  0
SECTION
  2
HEADER
  9
$LIMMIN
 10
-89.802561
 20
-127.000000
  9
$LIMMAX
 10
89.802561
 20
0.000000
  9
$EXTMIN
 10
-89.802561
 20
-127.000000
  9
$EXTMAX
 10
89.802561
 20
0.000000
  9
$ANGBASE
 50
0.000000
  9
$ANGDIR
 70
0
  9
$INSUNITS
 70
4
  9
$DIMALT
 70
4
  9
$DIMLUNIT
 70
2
  9
$DIMASZ
 40
3.000000
  9
$DIMTXT
 40
5.000000
  9
$DIMRND
 40
0.010000
  9
$DIMEXE
 40
2.000000
  9
$DIMEXO
 40
2.000000
  9
$DIMAUNIT
 70
0
  9
$DIMADEC
 70
2
  9
$GRIDUNIT
 10
0.001000
 20
0.001000
  9
$PLIMMIN
 10
-125.000000
 20
-125.000000
  9
$PLIMMAX
 10
85.000000
 20
172.000000
  9
$PSVPSCALE
 40
1.000000
  0
ENDSEC
  0
SECTION
  2
TABLES
  0
TABLE
  2
LTYPE
 70
     1
  0
LTYPE
  2
CONTINUOUS
 70
    64
  3
Ausgez
 72
    65
 73
  0
 40
0.000000
  0
ENDTAB
  0
TABLE
  2
LAYER
 70
     1
  0
LAYER
  2
default
 70
    64
 62
0
  6
CONTINUOUS
  0
LAYER
  2
Surface
 70
    64
 62
2
  6
CONTINUOUS
  0
ENDTAB
  0
ENDSEC
  0
SECTION
  2
BLOCKS
  0
ENDSEC
  0
SECTION
  2
ENTITIES
  0
ARC
  8
default
  6
CONTINUOUS
 10
0.000000
 20
0.000000
 40
125.000000
 50
225.000000
 51
315.000000
 39
0
 62
0
  0
ARC
  8
default
  6
CONTINUOUS
 10
0.000000
 20
0.000000
 40
75.000000
 50
225.000000
 51
315.000000
 39
0
 62
0
  0
ARC
  8
Surface
  6
CONTINUOUS
 10
0.000000
 20
0.000000
 40
78.000000
 50
225.000000
 51
315.000000
 39
0
 62
2
  0
ARC
  8
Surface
  6
CONTINUOUS
 10
0.000000
 20
0.000000
 40
81.000000
 50
225.000000
 51
315.000000
 39
0
 62
2
  0
ARC
  8
Surface
  6
CONTINUOUS
 10
0.000000
 20
0.000000
 40
84.000000
 50
225.000000
 51
315.000000
 39
0
 62
2
  0
ARC
  8
Surface
  6
CONTINUOUS
 10
0.000000
 20
0.000000
 40
87.000000
 50
225.000000
 51
315.000000
 39
0
 62
2
  0
ARC
  8
Surface
  6
CONTINUOUS
 10
0.000000
 20
0.000000
 40
90.000000
 50
225.000000
 51
315.000000
 39
0
 62
2
  0
ARC
  8
Surface
  6
CONTINUOUS
 10
0.000000
 20
0.000000
 40
93.000000
 50
225.000000
 51
315.000000
 39
0
 62
2
  0
ARC
  8
Surface
  6
CONTINUOUS
 10
0.000000
 20
0.000000
 40
96.000000
 50
225.000000
 51
315.000000
 39
0
 62
2
  0
ARC
  8
Surface
  6
CONTINUOUS
 10
0.000000
 20
0.000000
 40
97.000000
 50
225.000000
 51
315.000000
 39
0
 62
2
  0
LINE
  8
default
  6
CONTINUOUS
 10
-53.033009
 20
-53.033009
 11
-88.388348
 21
-88.388348
 39
0
 62
0
  0
LINE
  8
default
  6
CONTINUOUS
 10
53.033009
 20
-53.033009
 11
88.388348
 21
-88.388348
 39
0
 62
0
  0
CIRCLE
  8
default
  6
CONTINUOUS
 10
62.501651
 20
-93.540331
 40
2.500000
 39
0
 62
8
  0
CIRCLE
  8
default
  6
CONTINUOUS
 10
21.947661
 20
-110.338344
 40
2.500000
 39
0
 62
8
  0
CIRCLE
  8
default
  6
CONTINUOUS
 10
-21.947661
 20
-110.338344
 40
2.500000
 39
0
 62
8
  0
CIRCLE
  8
default
  6
CONTINUOUS
 10
-62.501651
 20
-93.540331
 40
2.500000
 39
0
 62
8
  0
CIRCLE
  8
default
  6
CONTINUOUS
 10
33.676142
 20
-81.301399
 40
2.500000
 39
0
 62
8
  0
CIRCLE
  8
default
  6
CONTINUOUS
 10
-33.676142
 20
-81.301399
 40
2.500000
 39
0
 62
8
  0
CIRCLE
  8
default
  6
CONTINUOUS
 10
48.890181
 20
-73.169326
 40
6.000000
 39
0
 62
8
  0
CIRCLE
  8
default
  6
CONTINUOUS
 10
17.167948
 20
-86.309105
 40
6.000000
 39
0
 62
8
  0
CIRCLE
  8
default
  6
CONTINUOUS
 10
-17.167948
 20
-86.309105
 40
6.000000
 39
0
 62
8
  0
CIRCLE
  8
default
  6
CONTINUOUS
 10
-48.890181
 20
-73.169326
 40
6.000000
 39
0
 62
8
  0
POINT
  8
Surface
  6
CONTINUOUS
 10
-48.890181
 20
-73.169326
 39
0
 62
0
  0
POINT
  8
Surface
  6
CONTINUOUS
 10
-33.676142
 20
-81.301399
 39
0
 62
0
  0
POINT
  8
Surface
  6
CONTINUOUS
 10
-62.501651
 20
-93.540331
 39
0
 62
0
  0
POINT
  8
Surface
  6
CONTINUOUS
 10
-21.947661
 20
-110.338344
 39
0
 62
0
  0
POINT
  8
Surface
  6
CONTINUOUS
 10
-17.167948
 20
-86.309105
 39
0
 62
0
  0
POINT
  8
Surface
  6
CONTINUOUS
 10
17.167948
 20
-86.309105
 39
0
 62
0
  0
POINT
  8
Surface
  6
CONTINUOUS
 10
21.947661
 20
-110.338344
 39
0
 62
0
  0
POINT
  8
Surface
  6
CONTINUOUS
 10
62.501651
 20
-93.540331
 39
0
 62
0
  0
POINT
  8
Surface
  6
CONTINUOUS
 10
48.890181
 20
-73.169326
 39
0
 62
0
  0
POINT
  8
Surface
  6
CONTINUOUS
 10
33.676142
 20
-81.301399
 39
0
 62
0
  0
ARC
  8
default
  6
CONTINUOUS
 10
-53.033009
 20
-53.033009
 40
2.000000
 50
45.000000
 51
135.000000
 39
0
 62
9
  0
ARC
  8
default
  6
CONTINUOUS
 10
53.033009
 20
-53.033009
 40
2.000000
 50
45.000000
 51
135.000000
 39
0
 62
9
  0
ARC
  8
default
  6
CONTINUOUS
 10
0.000000
 20
0.000000
 40
73.000000
 50
225.000000
 51
315.000000
 39
0
 62
9
  0
ARC
  8
default
  6
CONTINUOUS
 10
88.388348
 20
-88.388348
 40
2.000000
 50
315.000000
 51
45.000000
 39
0
 62
9
  0
LINE
  8
default
  6
CONTINUOUS
 10
54.447222
 20
-51.618795
 11
89.802561
 21
-86.974134
 39
0
 62
9
  0
ARC
  8
default
  6
CONTINUOUS
 10
-88.388348
 20
-88.388348
 40
2.000000
 50
135.000000
 51
225.000000
 39
0
 62
9
  0
ARC
  8
default
  6
CONTINUOUS
 10
0.000000
 20
0.000000
 40
127.000000
 50
225.000000
 51
315.000000
 39
0
 62
9
  0
LINE
  8
default
  6
CONTINUOUS
 10
-54.447222
 20
-51.618795
 11
-89.802561
 21
-86.974134
 39
0
 62
9
  0
ARC
  8
default
  6
CONTINUOUS
 10
0.000000
 20
0.000000
 40
99.000000
 50
225.000000
 51
315.000000
 39
0
 62
10
  0
ENDSEC
  0
EOF
