  0
SECTION
  2
HEADER
  9
$LIMMIN
 10
-0.225950
 20
-1.286049
  9
$LIMMAX
 10
499.473826
 20
999.056020
  9
$EXTMIN
 10
-0.225950
 20
-1.286049
  9
$EXTMAX
 10
499.473826
 20
999.056020
  9
$ANGBASE
 50
0.000000
  9
$ANGDIR
 70
0
  9
$INSUNITS
 70
4
  9
$DIMALT
 70
4
  9
$DIMLUNIT
 70
2
  9
$DIMASZ
 40
3.000000
  9
$DIMTXT
 40
5.000000
  9
$DIMRND
 40
0.010000
  9
$DIMEXE
 40
2.000000
  9
$DIMEXO
 40
2.000000
  9
$DIMAUNIT
 70
0
  9
$DIMADEC
 70
2
  9
$GRIDUNIT
 10
0.001000
 20
0.001000
  9
$PLIMMIN
 10
0.000000
 20
0.000000
  9
$PLIMMAX
 10
500.000000
 20
1000.000000
  9
$PSVPSCALE
 40
1.000000
  0
ENDSEC
  0
SECTION
  2
TABLES
  0
TABLE
  2
LTYPE
 70
     1
  0
LTYPE
  2
CONTINUOUS
 70
    64
  3
Ausgez
 72
    65
 73
  0
 40
0.000000
  0
ENDTAB
  0
TABLE
  2
LAYER
 70
     1
  0
LAYER
  2
default
 70
    64
 62
0
  6
CONTINUOUS
  0
ENDTAB
  0
ENDSEC
  0
SECTION
  2
BLOCKS
  0
ENDSEC
  0
SECTION
  2
ENTITIES
  0
ARC
  8
default
  6
CONTINUOUS
 10
407.866563
 20
125.713951
 40
125.000000
 50
225.000000
 51
315.000000
 39
0
 62
0
  0
ARC
  8
default
  6
CONTINUOUS
 10
407.866563
 20
125.713951
 40
75.000000
 50
225.000000
 51
315.000000
 39
0
 62
0
  0
LINE
  8
default
  6
CONTINUOUS
 10
354.833554
 20
72.680942
 11
319.478215
 21
37.325603
 39
0
 62
0
  0
LINE
  8
default
  6
CONTINUOUS
 10
460.899572
 20
72.680942
 11
496.254911
 21
37.325603
 39
0
 62
0
  0
CIRCLE
  8
default
  6
CONTINUOUS
 10
470.368214
 20
32.173620
 40
2.500000
 39
0
 62
8
  0
CIRCLE
  8
default
  6
CONTINUOUS
 10
429.814224
 20
15.375607
 40
2.500000
 39
0
 62
8
  0
CIRCLE
  8
default
  6
CONTINUOUS
 10
385.918902
 20
15.375607
 40
2.500000
 39
0
 62
8
  0
CIRCLE
  8
default
  6
CONTINUOUS
 10
345.364912
 20
32.173620
 40
2.500000
 39
0
 62
8
  0
CIRCLE
  8
default
  6
CONTINUOUS
 10
441.542705
 20
44.412552
 40
2.500000
 39
0
 62
8
  0
CIRCLE
  8
default
  6
CONTINUOUS
 10
374.190421
 20
44.412552
 40
2.500000
 39
0
 62
8
  0
CIRCLE
  8
default
  6
CONTINUOUS
 10
456.756744
 20
52.544625
 40
6.000000
 39
0
 62
8
  0
CIRCLE
  8
default
  6
CONTINUOUS
 10
425.034511
 20
39.404846
 40
6.000000
 39
0
 62
8
  0
CIRCLE
  8
default
  6
CONTINUOUS
 10
390.698615
 20
39.404846
 40
6.000000
 39
0
 62
8
  0
CIRCLE
  8
default
  6
CONTINUOUS
 10
358.976382
 20
52.544625
 40
6.000000
 39
0
 62
8
  0
ARC
  8
default
  6
CONTINUOUS
 10
354.833554
 20
72.680942
 40
2.000000
 50
45.000000
 51
135.000000
 39
0
 62
9
  0
ARC
  8
default
  6
CONTINUOUS
 10
460.899572
 20
72.680942
 40
2.000000
 50
45.000000
 51
135.000000
 39
0
 62
9
  0
ARC
  8
default
  6
CONTINUOUS
 10
407.866563
 20
125.713951
 40
73.000000
 50
225.000000
 51
315.000000
 39
0
 62
9
  0
ARC
  8
default
  6
CONTINUOUS
 10
496.254911
 20
37.325603
 40
2.000000
 50
315.000000
 51
45.000000
 39
0
 62
9
  0
LINE
  8
default
  6
CONTINUOUS
 10
462.313785
 20
74.095156
 11
497.669124
 21
38.739817
 39
0
 62
9
  0
ARC
  8
default
  6
CONTINUOUS
 10
319.478215
 20
37.325603
 40
2.000000
 50
135.000000
 51
225.000000
 39
0
 62
9
  0
ARC
  8
default
  6
CONTINUOUS
 10
407.866563
 20
125.713951
 40
127.000000
 50
225.000000
 51
315.000000
 39
0
 62
9
  0
LINE
  8
default
  6
CONTINUOUS
 10
353.419341
 20
74.095156
 11
318.064002
 21
38.739817
 39
0
 62
9
  0
ARC
  8
default
  6
CONTINUOUS
 10
407.866563
 20
125.713951
 40
99.000000
 50
225.000000
 51
315.000000
 39
0
 62
10
  0
ARC
  8
default
  6
CONTINUOUS
 10
407.866563
 20
125.713951
 40
78.000000
 50
225.000000
 51
315.000000
 39
0
 62
2
  0
ARC
  8
default
  6
CONTINUOUS
 10
407.866563
 20
125.713951
 40
81.000000
 50
225.000000
 51
315.000000
 39
0
 62
2
  0
ARC
  8
default
  6
CONTINUOUS
 10
407.866563
 20
125.713951
 40
84.000000
 50
225.000000
 51
315.000000
 39
0
 62
2
  0
ARC
  8
default
  6
CONTINUOUS
 10
407.866563
 20
125.713951
 40
87.000000
 50
225.000000
 51
315.000000
 39
0
 62
2
  0
ARC
  8
default
  6
CONTINUOUS
 10
407.866563
 20
125.713951
 40
90.000000
 50
225.000000
 51
315.000000
 39
0
 62
2
  0
ARC
  8
default
  6
CONTINUOUS
 10
407.866563
 20
125.713951
 40
93.000000
 50
225.000000
 51
315.000000
 39
0
 62
2
  0
ARC
  8
default
  6
CONTINUOUS
 10
407.866563
 20
125.713951
 40
96.000000
 50
225.000000
 51
315.000000
 39
0
 62
2
  0
ARC
  8
default
  6
CONTINUOUS
 10
407.866563
 20
125.713951
 40
97.000000
 50
225.000000
 51
315.000000
 39
0
 62
2
  0
POINT
  8
default
  6
CONTINUOUS
 10
358.976382
 20
52.544625
 39
0
 62
9
  0
POINT
  8
default
  6
CONTINUOUS
 10
374.190421
 20
44.412552
 39
0
 62
9
  0
POINT
  8
default
  6
CONTINUOUS
 10
345.364912
 20
32.173620
 39
0
 62
9
  0
POINT
  8
default
  6
CONTINUOUS
 10
385.918902
 20
15.375607
 39
0
 62
9
  0
POINT
  8
default
  6
CONTINUOUS
 10
390.698615
 20
39.404846
 39
0
 62
9
  0
POINT
  8
default
  6
CONTINUOUS
 10
425.034511
 20
39.404846
 39
0
 62
9
  0
POINT
  8
default
  6
CONTINUOUS
 10
429.814224
 20
15.375607
 39
0
 62
9
  0
POINT
  8
default
  6
CONTINUOUS
 10
470.368214
 20
32.173620
 39
0
 62
9
  0
POINT
  8
default
  6
CONTINUOUS
 10
456.756744
 20
52.544625
 39
0
 62
9
  0
POINT
  8
default
  6
CONTINUOUS
 10
441.542705
 20
44.412552
 39
0
 62
9
  0
ARC
  8
default
  6
CONTINUOUS
 10
90.162398
 20
126.570296
 40
125.000000
 50
225.000000
 51
315.000000
 39
0
 62
0
  0
ARC
  8
default
  6
CONTINUOUS
 10
90.162398
 20
126.570296
 40
75.000000
 50
225.000000
 51
315.000000
 39
0
 62
0
  0
LINE
  8
default
  6
CONTINUOUS
 10
37.129389
 20
73.537287
 11
1.774050
 21
38.181948
 39
0
 62
0
  0
LINE
  8
default
  6
CONTINUOUS
 10
143.195407
 20
73.537287
 11
178.550746
 21
38.181948
 39
0
 62
0
  0
CIRCLE
  8
default
  6
CONTINUOUS
 10
152.664049
 20
33.029965
 40
2.500000
 39
0
 62
8
  0
CIRCLE
  8
default
  6
CONTINUOUS
 10
112.110059
 20
16.231952
 40
2.500000
 39
0
 62
8
  0
CIRCLE
  8
default
  6
CONTINUOUS
 10
68.214737
 20
16.231952
 40
2.500000
 39
0
 62
8
  0
CIRCLE
  8
default
  6
CONTINUOUS
 10
27.660747
 20
33.029965
 40
2.500000
 39
0
 62
8
  0
CIRCLE
  8
default
  6
CONTINUOUS
 10
123.838540
 20
45.268897
 40
2.500000
 39
0
 62
8
  0
CIRCLE
  8
default
  6
CONTINUOUS
 10
56.486256
 20
45.268897
 40
2.500000
 39
0
 62
8
  0
CIRCLE
  8
default
  6
CONTINUOUS
 10
139.052579
 20
53.400970
 40
6.000000
 39
0
 62
8
  0
CIRCLE
  8
default
  6
CONTINUOUS
 10
107.330346
 20
40.261191
 40
6.000000
 39
0
 62
8
  0
CIRCLE
  8
default
  6
CONTINUOUS
 10
72.994450
 20
40.261191
 40
6.000000
 39
0
 62
8
  0
CIRCLE
  8
default
  6
CONTINUOUS
 10
41.272217
 20
53.400970
 40
6.000000
 39
0
 62
8
  0
ARC
  8
default
  6
CONTINUOUS
 10
37.129389
 20
73.537287
 40
2.000000
 50
45.000000
 51
135.000000
 39
0
 62
9
  0
ARC
  8
default
  6
CONTINUOUS
 10
143.195407
 20
73.537287
 40
2.000000
 50
45.000000
 51
135.000000
 39
0
 62
9
  0
ARC
  8
default
  6
CONTINUOUS
 10
90.162398
 20
126.570296
 40
73.000000
 50
225.000000
 51
315.000000
 39
0
 62
9
  0
ARC
  8
default
  6
CONTINUOUS
 10
178.550746
 20
38.181948
 40
2.000000
 50
315.000000
 51
45.000000
 39
0
 62
9
  0
LINE
  8
default
  6
CONTINUOUS
 10
144.609620
 20
74.951501
 11
179.964959
 21
39.596162
 39
0
 62
9
  0
ARC
  8
default
  6
CONTINUOUS
 10
1.774050
 20
38.181948
 40
2.000000
 50
135.000000
 51
225.000000
 39
0
 62
9
  0
ARC
  8
default
  6
CONTINUOUS
 10
90.162398
 20
126.570296
 40
127.000000
 50
225.000000
 51
315.000000
 39
0
 62
9
  0
LINE
  8
default
  6
CONTINUOUS
 10
35.715176
 20
74.951501
 11
0.359837
 21
39.596162
 39
0
 62
9
  0
ARC
  8
default
  6
CONTINUOUS
 10
90.162398
 20
126.570296
 40
99.000000
 50
225.000000
 51
315.000000
 39
0
 62
10
  0
ARC
  8
default
  6
CONTINUOUS
 10
90.162398
 20
126.570296
 40
78.000000
 50
225.000000
 51
315.000000
 39
0
 62
2
  0
ARC
  8
default
  6
CONTINUOUS
 10
90.162398
 20
126.570296
 40
81.000000
 50
225.000000
 51
315.000000
 39
0
 62
2
  0
ARC
  8
default
  6
CONTINUOUS
 10
90.162398
 20
126.570296
 40
84.000000
 50
225.000000
 51
315.000000
 39
0
 62
2
  0
ARC
  8
default
  6
CONTINUOUS
 10
90.162398
 20
126.570296
 40
87.000000
 50
225.000000
 51
315.000000
 39
0
 62
2
  0
ARC
  8
default
  6
CONTINUOUS
 10
90.162398
 20
126.570296
 40
90.000000
 50
225.000000
 51
315.000000
 39
0
 62
2
  0
ARC
  8
default
  6
CONTINUOUS
 10
90.162398
 20
126.570296
 40
93.000000
 50
225.000000
 51
315.000000
 39
0
 62
2
  0
ARC
  8
default
  6
CONTINUOUS
 10
90.162398
 20
126.570296
 40
96.000000
 50
225.000000
 51
315.000000
 39
0
 62
2
  0
ARC
  8
default
  6
CONTINUOUS
 10
90.162398
 20
126.570296
 40
97.000000
 50
225.000000
 51
315.000000
 39
0
 62
2
  0
POINT
  8
default
  6
CONTINUOUS
 10
41.272217
 20
53.400970
 39
0
 62
9
  0
POINT
  8
default
  6
CONTINUOUS
 10
56.486256
 20
45.268897
 39
0
 62
9
  0
POINT
  8
default
  6
CONTINUOUS
 10
27.660747
 20
33.029965
 39
0
 62
9
  0
POINT
  8
default
  6
CONTINUOUS
 10
68.214737
 20
16.231952
 39
0
 62
9
  0
POINT
  8
default
  6
CONTINUOUS
 10
72.994450
 20
40.261191
 39
0
 62
9
  0
POINT
  8
default
  6
CONTINUOUS
 10
107.330346
 20
40.261191
 39
0
 62
9
  0
POINT
  8
default
  6
CONTINUOUS
 10
112.110059
 20
16.231952
 39
0
 62
9
  0
POINT
  8
default
  6
CONTINUOUS
 10
152.664049
 20
33.029965
 39
0
 62
9
  0
POINT
  8
default
  6
CONTINUOUS
 10
139.052579
 20
53.400970
 39
0
 62
9
  0
POINT
  8
default
  6
CONTINUOUS
 10
123.838540
 20
45.268897
 39
0
 62
9
  0
ARC
  8
default
  6
CONTINUOUS
 10
249.380606
 20
-25.587993
 40
125.000000
 50
45.000000
 51
135.000000
 39
0
 62
0
  0
ARC
  8
default
  6
CONTINUOUS
 10
249.380606
 20
-25.587993
 40
75.000000
 50
45.000000
 51
135.000000
 39
0
 62
0
  0
LINE
  8
default
  6
CONTINUOUS
 10
196.347597
 20
27.445016
 11
160.992258
 21
62.800355
 39
0
 62
0
  0
LINE
  8
default
  6
CONTINUOUS
 10
302.413615
 20
27.445016
 11
337.768954
 21
62.800355
 39
0
 62
0
  0
CIRCLE
  8
default
  6
CONTINUOUS
 10
311.882257
 20
67.952338
 40
2.500000
 39
0
 62
8
  0
CIRCLE
  8
default
  6
CONTINUOUS
 10
271.328267
 20
84.750351
 40
2.500000
 39
0
 62
8
  0
CIRCLE
  8
default
  6
CONTINUOUS
 10
227.432945
 20
84.750351
 40
2.500000
 39
0
 62
8
  0
CIRCLE
  8
default
  6
CONTINUOUS
 10
186.878955
 20
67.952338
 40
2.500000
 39
0
 62
8
  0
CIRCLE
  8
default
  6
CONTINUOUS
 10
283.056748
 20
55.713406
 40
2.500000
 39
0
 62
8
  0
CIRCLE
  8
default
  6
CONTINUOUS
 10
215.704464
 20
55.713406
 40
2.500000
 39
0
 62
8
  0
CIRCLE
  8
default
  6
CONTINUOUS
 10
298.270787
 20
47.581333
 40
6.000000
 39
0
 62
8
  0
CIRCLE
  8
default
  6
CONTINUOUS
 10
266.548554
 20
60.721112
 40
6.000000
 39
0
 62
8
  0
CIRCLE
  8
default
  6
CONTINUOUS
 10
232.212658
 20
60.721112
 40
6.000000
 39
0
 62
8
  0
CIRCLE
  8
default
  6
CONTINUOUS
 10
200.490425
 20
47.581333
 40
6.000000
 39
0
 62
8
  0
ARC
  8
default
  6
CONTINUOUS
 10
196.347597
 20
27.445016
 40
2.000000
 50
225.000000
 51
315.000000
 39
0
 62
9
  0
ARC
  8
default
  6
CONTINUOUS
 10
302.413615
 20
27.445016
 40
2.000000
 50
225.000000
 51
315.000000
 39
0
 62
9
  0
ARC
  8
default
  6
CONTINUOUS
 10
249.380606
 20
-25.587993
 40
73.000000
 50
45.000000
 51
135.000000
 39
0
 62
9
  0
ARC
  8
default
  6
CONTINUOUS
 10
337.768954
 20
62.800355
 40
2.000000
 50
315.000000
 51
45.000000
 39
0
 62
9
  0
LINE
  8
default
  6
CONTINUOUS
 10
303.827828
 20
26.030802
 11
339.183167
 21
61.386141
 39
0
 62
9
  0
ARC
  8
default
  6
CONTINUOUS
 10
160.992258
 20
62.800355
 40
2.000000
 50
135.000000
 51
225.000000
 39
0
 62
9
  0
ARC
  8
default
  6
CONTINUOUS
 10
249.380606
 20
-25.587993
 40
127.000000
 50
45.000000
 51
135.000000
 39
0
 62
9
  0
LINE
  8
default
  6
CONTINUOUS
 10
194.933384
 20
26.030802
 11
159.578045
 21
61.386141
 39
0
 62
9
  0
ARC
  8
default
  6
CONTINUOUS
 10
249.380606
 20
-25.587993
 40
99.000000
 50
45.000000
 51
135.000000
 39
0
 62
10
  0
ARC
  8
default
  6
CONTINUOUS
 10
249.380606
 20
-25.587993
 40
78.000000
 50
45.000000
 51
135.000000
 39
0
 62
2
  0
ARC
  8
default
  6
CONTINUOUS
 10
249.380606
 20
-25.587993
 40
81.000000
 50
45.000000
 51
135.000000
 39
0
 62
2
  0
ARC
  8
default
  6
CONTINUOUS
 10
249.380606
 20
-25.587993
 40
84.000000
 50
45.000000
 51
135.000000
 39
0
 62
2
  0
ARC
  8
default
  6
CONTINUOUS
 10
249.380606
 20
-25.587993
 40
87.000000
 50
45.000000
 51
135.000000
 39
0
 62
2
  0
ARC
  8
default
  6
CONTINUOUS
 10
249.380606
 20
-25.587993
 40
90.000000
 50
45.000000
 51
135.000000
 39
0
 62
2
  0
ARC
  8
default
  6
CONTINUOUS
 10
249.380606
 20
-25.587993
 40
93.000000
 50
45.000000
 51
135.000000
 39
0
 62
2
  0
ARC
  8
default
  6
CONTINUOUS
 10
249.380606
 20
-25.587993
 40
96.000000
 50
45.000000
 51
135.000000
 39
0
 62
2
  0
ARC
  8
default
  6
CONTINUOUS
 10
249.380606
 20
-25.587993
 40
97.000000
 50
45.000000
 51
135.000000
 39
0
 62
2
  0
POINT
  8
default
  6
CONTINUOUS
 10
200.490425
 20
47.581333
 39
0
 62
9
  0
POINT
  8
default
  6
CONTINUOUS
 10
215.704464
 20
55.713406
 39
0
 62
9
  0
POINT
  8
default
  6
CONTINUOUS
 10
186.878955
 20
67.952338
 39
0
 62
9
  0
POINT
  8
default
  6
CONTINUOUS
 10
227.432945
 20
84.750351
 39
0
 62
9
  0
POINT
  8
default
  6
CONTINUOUS
 10
232.212658
 20
60.721112
 39
0
 62
9
  0
POINT
  8
default
  6
CONTINUOUS
 10
266.548554
 20
60.721112
 39
0
 62
9
  0
POINT
  8
default
  6
CONTINUOUS
 10
271.328267
 20
84.750351
 39
0
 62
9
  0
POINT
  8
default
  6
CONTINUOUS
 10
311.882257
 20
67.952338
 39
0
 62
9
  0
POINT
  8
default
  6
CONTINUOUS
 10
298.270787
 20
47.581333
 39
0
 62
9
  0
POINT
  8
default
  6
CONTINUOUS
 10
283.056748
 20
55.713406
 39
0
 62
9
  0
ARC
  8
default
  6
CONTINUOUS
 10
407.866563
 20
190.713951
 40
125.000000
 50
225.000000
 51
315.000000
 39
0
 62
0
  0
ARC
  8
default
  6
CONTINUOUS
 10
407.866563
 20
190.713951
 40
75.000000
 50
225.000000
 51
315.000000
 39
0
 62
0
  0
LINE
  8
default
  6
CONTINUOUS
 10
354.833554
 20
137.680942
 11
319.478215
 21
102.325603
 39
0
 62
0
  0
LINE
  8
default
  6
CONTINUOUS
 10
460.899572
 20
137.680942
 11
496.254911
 21
102.325603
 39
0
 62
0
  0
CIRCLE
  8
default
  6
CONTINUOUS
 10
470.368214
 20
97.173620
 40
2.500000
 39
0
 62
8
  0
CIRCLE
  8
default
  6
CONTINUOUS
 10
429.814224
 20
80.375607
 40
2.500000
 39
0
 62
8
  0
CIRCLE
  8
default
  6
CONTINUOUS
 10
385.918902
 20
80.375607
 40
2.500000
 39
0
 62
8
  0
CIRCLE
  8
default
  6
CONTINUOUS
 10
345.364912
 20
97.173620
 40
2.500000
 39
0
 62
8
  0
CIRCLE
  8
default
  6
CONTINUOUS
 10
441.542705
 20
109.412552
 40
2.500000
 39
0
 62
8
  0
CIRCLE
  8
default
  6
CONTINUOUS
 10
374.190421
 20
109.412552
 40
2.500000
 39
0
 62
8
  0
CIRCLE
  8
default
  6
CONTINUOUS
 10
456.756744
 20
117.544625
 40
6.000000
 39
0
 62
8
  0
CIRCLE
  8
default
  6
CONTINUOUS
 10
425.034511
 20
104.404846
 40
6.000000
 39
0
 62
8
  0
CIRCLE
  8
default
  6
CONTINUOUS
 10
390.698615
 20
104.404846
 40
6.000000
 39
0
 62
8
  0
CIRCLE
  8
default
  6
CONTINUOUS
 10
358.976382
 20
117.544625
 40
6.000000
 39
0
 62
8
  0
ARC
  8
default
  6
CONTINUOUS
 10
354.833554
 20
137.680942
 40
2.000000
 50
45.000000
 51
135.000000
 39
0
 62
9
  0
ARC
  8
default
  6
CONTINUOUS
 10
460.899572
 20
137.680942
 40
2.000000
 50
45.000000
 51
135.000000
 39
0
 62
9
  0
ARC
  8
default
  6
CONTINUOUS
 10
407.866563
 20
190.713951
 40
73.000000
 50
225.000000
 51
315.000000
 39
0
 62
9
  0
ARC
  8
default
  6
CONTINUOUS
 10
496.254911
 20
102.325603
 40
2.000000
 50
315.000000
 51
45.000000
 39
0
 62
9
  0
LINE
  8
default
  6
CONTINUOUS
 10
462.313785
 20
139.095156
 11
497.669124
 21
103.739817
 39
0
 62
9
  0
ARC
  8
default
  6
CONTINUOUS
 10
319.478215
 20
102.325603
 40
2.000000
 50
135.000000
 51
225.000000
 39
0
 62
9
  0
ARC
  8
default
  6
CONTINUOUS
 10
407.866563
 20
190.713951
 40
127.000000
 50
225.000000
 51
315.000000
 39
0
 62
9
  0
LINE
  8
default
  6
CONTINUOUS
 10
353.419341
 20
139.095156
 11
318.064002
 21
103.739817
 39
0
 62
9
  0
ARC
  8
default
  6
CONTINUOUS
 10
407.866563
 20
190.713951
 40
99.000000
 50
225.000000
 51
315.000000
 39
0
 62
10
  0
ARC
  8
default
  6
CONTINUOUS
 10
407.866563
 20
190.713951
 40
78.000000
 50
225.000000
 51
315.000000
 39
0
 62
2
  0
ARC
  8
default
  6
CONTINUOUS
 10
407.866563
 20
190.713951
 40
81.000000
 50
225.000000
 51
315.000000
 39
0
 62
2
  0
ARC
  8
default
  6
CONTINUOUS
 10
407.866563
 20
190.713951
 40
84.000000
 50
225.000000
 51
315.000000
 39
0
 62
2
  0
ARC
  8
default
  6
CONTINUOUS
 10
407.866563
 20
190.713951
 40
87.000000
 50
225.000000
 51
315.000000
 39
0
 62
2
  0
ARC
  8
default
  6
CONTINUOUS
 10
407.866563
 20
190.713951
 40
90.000000
 50
225.000000
 51
315.000000
 39
0
 62
2
  0
ARC
  8
default
  6
CONTINUOUS
 10
407.866563
 20
190.713951
 40
93.000000
 50
225.000000
 51
315.000000
 39
0
 62
2
  0
ARC
  8
default
  6
CONTINUOUS
 10
407.866563
 20
190.713951
 40
96.000000
 50
225.000000
 51
315.000000
 39
0
 62
2
  0
ARC
  8
default
  6
CONTINUOUS
 10
407.866563
 20
190.713951
 40
97.000000
 50
225.000000
 51
315.000000
 39
0
 62
2
  0
POINT
  8
default
  6
CONTINUOUS
 10
358.976382
 20
117.544625
 39
0
 62
9
  0
POINT
  8
default
  6
CONTINUOUS
 10
374.190421
 20
109.412552
 39
0
 62
9
  0
POINT
  8
default
  6
CONTINUOUS
 10
345.364912
 20
97.173620
 39
0
 62
9
  0
POINT
  8
default
  6
CONTINUOUS
 10
385.918902
 20
80.375607
 39
0
 62
9
  0
POINT
  8
default
  6
CONTINUOUS
 10
390.698615
 20
104.404846
 39
0
 62
9
  0
POINT
  8
default
  6
CONTINUOUS
 10
425.034511
 20
104.404846
 39
0
 62
9
  0
POINT
  8
default
  6
CONTINUOUS
 10
429.814224
 20
80.375607
 39
0
 62
9
  0
POINT
  8
default
  6
CONTINUOUS
 10
470.368214
 20
97.173620
 39
0
 62
9
  0
POINT
  8
default
  6
CONTINUOUS
 10
456.756744
 20
117.544625
 39
0
 62
9
  0
POINT
  8
default
  6
CONTINUOUS
 10
441.542705
 20
109.412552
 39
0
 62
9
  0
ARC
  8
default
  6
CONTINUOUS
 10
90.162398
 20
191.570296
 40
125.000000
 50
225.000000
 51
315.000000
 39
0
 62
0
  0
ARC
  8
default
  6
CONTINUOUS
 10
90.162398
 20
191.570296
 40
75.000000
 50
225.000000
 51
315.000000
 39
0
 62
0
  0
LINE
  8
default
  6
CONTINUOUS
 10
37.129389
 20
138.537287
 11
1.774050
 21
103.181948
 39
0
 62
0
  0
LINE
  8
default
  6
CONTINUOUS
 10
143.195407
 20
138.537287
 11
178.550746
 21
103.181948
 39
0
 62
0
  0
CIRCLE
  8
default
  6
CONTINUOUS
 10
152.664049
 20
98.029965
 40
2.500000
 39
0
 62
8
  0
CIRCLE
  8
default
  6
CONTINUOUS
 10
112.110059
 20
81.231952
 40
2.500000
 39
0
 62
8
  0
CIRCLE
  8
default
  6
CONTINUOUS
 10
68.214737
 20
81.231952
 40
2.500000
 39
0
 62
8
  0
CIRCLE
  8
default
  6
CONTINUOUS
 10
27.660747
 20
98.029965
 40
2.500000
 39
0
 62
8
  0
CIRCLE
  8
default
  6
CONTINUOUS
 10
123.838540
 20
110.268897
 40
2.500000
 39
0
 62
8
  0
CIRCLE
  8
default
  6
CONTINUOUS
 10
56.486256
 20
110.268897
 40
2.500000
 39
0
 62
8
  0
CIRCLE
  8
default
  6
CONTINUOUS
 10
139.052579
 20
118.400970
 40
6.000000
 39
0
 62
8
  0
CIRCLE
  8
default
  6
CONTINUOUS
 10
107.330346
 20
105.261191
 40
6.000000
 39
0
 62
8
  0
CIRCLE
  8
default
  6
CONTINUOUS
 10
72.994450
 20
105.261191
 40
6.000000
 39
0
 62
8
  0
CIRCLE
  8
default
  6
CONTINUOUS
 10
41.272217
 20
118.400970
 40
6.000000
 39
0
 62
8
  0
ARC
  8
default
  6
CONTINUOUS
 10
37.129389
 20
138.537287
 40
2.000000
 50
45.000000
 51
135.000000
 39
0
 62
9
  0
ARC
  8
default
  6
CONTINUOUS
 10
143.195407
 20
138.537287
 40
2.000000
 50
45.000000
 51
135.000000
 39
0
 62
9
  0
ARC
  8
default
  6
CONTINUOUS
 10
90.162398
 20
191.570296
 40
73.000000
 50
225.000000
 51
315.000000
 39
0
 62
9
  0
ARC
  8
default
  6
CONTINUOUS
 10
178.550746
 20
103.181948
 40
2.000000
 50
315.000000
 51
45.000000
 39
0
 62
9
  0
LINE
  8
default
  6
CONTINUOUS
 10
144.609620
 20
139.951501
 11
179.964959
 21
104.596162
 39
0
 62
9
  0
ARC
  8
default
  6
CONTINUOUS
 10
1.774050
 20
103.181948
 40
2.000000
 50
135.000000
 51
225.000000
 39
0
 62
9
  0
ARC
  8
default
  6
CONTINUOUS
 10
90.162398
 20
191.570296
 40
127.000000
 50
225.000000
 51
315.000000
 39
0
 62
9
  0
LINE
  8
default
  6
CONTINUOUS
 10
35.715176
 20
139.951501
 11
0.359837
 21
104.596162
 39
0
 62
9
  0
ARC
  8
default
  6
CONTINUOUS
 10
90.162398
 20
191.570296
 40
99.000000
 50
225.000000
 51
315.000000
 39
0
 62
10
  0
ARC
  8
default
  6
CONTINUOUS
 10
90.162398
 20
191.570296
 40
78.000000
 50
225.000000
 51
315.000000
 39
0
 62
2
  0
ARC
  8
default
  6
CONTINUOUS
 10
90.162398
 20
191.570296
 40
81.000000
 50
225.000000
 51
315.000000
 39
0
 62
2
  0
ARC
  8
default
  6
CONTINUOUS
 10
90.162398
 20
191.570296
 40
84.000000
 50
225.000000
 51
315.000000
 39
0
 62
2
  0
ARC
  8
default
  6
CONTINUOUS
 10
90.162398
 20
191.570296
 40
87.000000
 50
225.000000
 51
315.000000
 39
0
 62
2
  0
ARC
  8
default
  6
CONTINUOUS
 10
90.162398
 20
191.570296
 40
90.000000
 50
225.000000
 51
315.000000
 39
0
 62
2
  0
ARC
  8
default
  6
CONTINUOUS
 10
90.162398
 20
191.570296
 40
93.000000
 50
225.000000
 51
315.000000
 39
0
 62
2
  0
ARC
  8
default
  6
CONTINUOUS
 10
90.162398
 20
191.570296
 40
96.000000
 50
225.000000
 51
315.000000
 39
0
 62
2
  0
ARC
  8
default
  6
CONTINUOUS
 10
90.162398
 20
191.570296
 40
97.000000
 50
225.000000
 51
315.000000
 39
0
 62
2
  0
POINT
  8
default
  6
CONTINUOUS
 10
41.272217
 20
118.400970
 39
0
 62
9
  0
POINT
  8
default
  6
CONTINUOUS
 10
56.486256
 20
110.268897
 39
0
 62
9
  0
POINT
  8
default
  6
CONTINUOUS
 10
27.660747
 20
98.029965
 39
0
 62
9
  0
POINT
  8
default
  6
CONTINUOUS
 10
68.214737
 20
81.231952
 39
0
 62
9
  0
POINT
  8
default
  6
CONTINUOUS
 10
72.994450
 20
105.261191
 39
0
 62
9
  0
POINT
  8
default
  6
CONTINUOUS
 10
107.330346
 20
105.261191
 39
0
 62
9
  0
POINT
  8
default
  6
CONTINUOUS
 10
112.110059
 20
81.231952
 39
0
 62
9
  0
POINT
  8
default
  6
CONTINUOUS
 10
152.664049
 20
98.029965
 39
0
 62
9
  0
POINT
  8
default
  6
CONTINUOUS
 10
139.052579
 20
118.400970
 39
0
 62
9
  0
POINT
  8
default
  6
CONTINUOUS
 10
123.838540
 20
110.268897
 39
0
 62
9
  0
ARC
  8
default
  6
CONTINUOUS
 10
249.380606
 20
39.412007
 40
125.000000
 50
45.000000
 51
135.000000
 39
0
 62
0
  0
ARC
  8
default
  6
CONTINUOUS
 10
249.380606
 20
39.412007
 40
75.000000
 50
45.000000
 51
135.000000
 39
0
 62
0
  0
LINE
  8
default
  6
CONTINUOUS
 10
196.347597
 20
92.445016
 11
160.992258
 21
127.800355
 39
0
 62
0
  0
LINE
  8
default
  6
CONTINUOUS
 10
302.413615
 20
92.445016
 11
337.768954
 21
127.800355
 39
0
 62
0
  0
CIRCLE
  8
default
  6
CONTINUOUS
 10
311.882257
 20
132.952338
 40
2.500000
 39
0
 62
8
  0
CIRCLE
  8
default
  6
CONTINUOUS
 10
271.328267
 20
149.750351
 40
2.500000
 39
0
 62
8
  0
CIRCLE
  8
default
  6
CONTINUOUS
 10
227.432945
 20
149.750351
 40
2.500000
 39
0
 62
8
  0
CIRCLE
  8
default
  6
CONTINUOUS
 10
186.878955
 20
132.952338
 40
2.500000
 39
0
 62
8
  0
CIRCLE
  8
default
  6
CONTINUOUS
 10
283.056748
 20
120.713406
 40
2.500000
 39
0
 62
8
  0
CIRCLE
  8
default
  6
CONTINUOUS
 10
215.704464
 20
120.713406
 40
2.500000
 39
0
 62
8
  0
CIRCLE
  8
default
  6
CONTINUOUS
 10
298.270787
 20
112.581333
 40
6.000000
 39
0
 62
8
  0
CIRCLE
  8
default
  6
CONTINUOUS
 10
266.548554
 20
125.721112
 40
6.000000
 39
0
 62
8
  0
CIRCLE
  8
default
  6
CONTINUOUS
 10
232.212658
 20
125.721112
 40
6.000000
 39
0
 62
8
  0
CIRCLE
  8
default
  6
CONTINUOUS
 10
200.490425
 20
112.581333
 40
6.000000
 39
0
 62
8
  0
ARC
  8
default
  6
CONTINUOUS
 10
196.347597
 20
92.445016
 40
2.000000
 50
225.000000
 51
315.000000
 39
0
 62
9
  0
ARC
  8
default
  6
CONTINUOUS
 10
302.413615
 20
92.445016
 40
2.000000
 50
225.000000
 51
315.000000
 39
0
 62
9
  0
ARC
  8
default
  6
CONTINUOUS
 10
249.380606
 20
39.412007
 40
73.000000
 50
45.000000
 51
135.000000
 39
0
 62
9
  0
ARC
  8
default
  6
CONTINUOUS
 10
337.768954
 20
127.800355
 40
2.000000
 50
315.000000
 51
45.000000
 39
0
 62
9
  0
LINE
  8
default
  6
CONTINUOUS
 10
303.827828
 20
91.030802
 11
339.183167
 21
126.386141
 39
0
 62
9
  0
ARC
  8
default
  6
CONTINUOUS
 10
160.992258
 20
127.800355
 40
2.000000
 50
135.000000
 51
225.000000
 39
0
 62
9
  0
ARC
  8
default
  6
CONTINUOUS
 10
249.380606
 20
39.412007
 40
127.000000
 50
45.000000
 51
135.000000
 39
0
 62
9
  0
LINE
  8
default
  6
CONTINUOUS
 10
194.933384
 20
91.030802
 11
159.578045
 21
126.386141
 39
0
 62
9
  0
ARC
  8
default
  6
CONTINUOUS
 10
249.380606
 20
39.412007
 40
99.000000
 50
45.000000
 51
135.000000
 39
0
 62
10
  0
ARC
  8
default
  6
CONTINUOUS
 10
249.380606
 20
39.412007
 40
78.000000
 50
45.000000
 51
135.000000
 39
0
 62
2
  0
ARC
  8
default
  6
CONTINUOUS
 10
249.380606
 20
39.412007
 40
81.000000
 50
45.000000
 51
135.000000
 39
0
 62
2
  0
ARC
  8
default
  6
CONTINUOUS
 10
249.380606
 20
39.412007
 40
84.000000
 50
45.000000
 51
135.000000
 39
0
 62
2
  0
ARC
  8
default
  6
CONTINUOUS
 10
249.380606
 20
39.412007
 40
87.000000
 50
45.000000
 51
135.000000
 39
0
 62
2
  0
ARC
  8
default
  6
CONTINUOUS
 10
249.380606
 20
39.412007
 40
90.000000
 50
45.000000
 51
135.000000
 39
0
 62
2
  0
ARC
  8
default
  6
CONTINUOUS
 10
249.380606
 20
39.412007
 40
93.000000
 50
45.000000
 51
135.000000
 39
0
 62
2
  0
ARC
  8
default
  6
CONTINUOUS
 10
249.380606
 20
39.412007
 40
96.000000
 50
45.000000
 51
135.000000
 39
0
 62
2
  0
ARC
  8
default
  6
CONTINUOUS
 10
249.380606
 20
39.412007
 40
97.000000
 50
45.000000
 51
135.000000
 39
0
 62
2
  0
POINT
  8
default
  6
CONTINUOUS
 10
200.490425
 20
112.581333
 39
0
 62
9
  0
POINT
  8
default
  6
CONTINUOUS
 10
215.704464
 20
120.713406
 39
0
 62
9
  0
POINT
  8
default
  6
CONTINUOUS
 10
186.878955
 20
132.952338
 39
0
 62
9
  0
POINT
  8
default
  6
CONTINUOUS
 10
227.432945
 20
149.750351
 39
0
 62
9
  0
POINT
  8
default
  6
CONTINUOUS
 10
232.212658
 20
125.721112
 39
0
 62
9
  0
POINT
  8
default
  6
CONTINUOUS
 10
266.548554
 20
125.721112
 39
0
 62
9
  0
POINT
  8
default
  6
CONTINUOUS
 10
271.328267
 20
149.750351
 39
0
 62
9
  0
POINT
  8
default
  6
CONTINUOUS
 10
311.882257
 20
132.952338
 39
0
 62
9
  0
POINT
  8
default
  6
CONTINUOUS
 10
298.270787
 20
112.581333
 39
0
 62
9
  0
POINT
  8
default
  6
CONTINUOUS
 10
283.056748
 20
120.713406
 39
0
 62
9
  0
ARC
  8
default
  6
CONTINUOUS
 10
407.866563
 20
255.713951
 40
125.000000
 50
225.000000
 51
315.000000
 39
0
 62
0
  0
ARC
  8
default
  6
CONTINUOUS
 10
407.866563
 20
255.713951
 40
75.000000
 50
225.000000
 51
315.000000
 39
0
 62
0
  0
LINE
  8
default
  6
CONTINUOUS
 10
354.833554
 20
202.680942
 11
319.478215
 21
167.325603
 39
0
 62
0
  0
LINE
  8
default
  6
CONTINUOUS
 10
460.899572
 20
202.680942
 11
496.254911
 21
167.325603
 39
0
 62
0
  0
CIRCLE
  8
default
  6
CONTINUOUS
 10
470.368214
 20
162.173620
 40
2.500000
 39
0
 62
8
  0
CIRCLE
  8
default
  6
CONTINUOUS
 10
429.814224
 20
145.375607
 40
2.500000
 39
0
 62
8
  0
CIRCLE
  8
default
  6
CONTINUOUS
 10
385.918902
 20
145.375607
 40
2.500000
 39
0
 62
8
  0
CIRCLE
  8
default
  6
CONTINUOUS
 10
345.364912
 20
162.173620
 40
2.500000
 39
0
 62
8
  0
CIRCLE
  8
default
  6
CONTINUOUS
 10
441.542705
 20
174.412552
 40
2.500000
 39
0
 62
8
  0
CIRCLE
  8
default
  6
CONTINUOUS
 10
374.190421
 20
174.412552
 40
2.500000
 39
0
 62
8
  0
CIRCLE
  8
default
  6
CONTINUOUS
 10
456.756744
 20
182.544625
 40
6.000000
 39
0
 62
8
  0
CIRCLE
  8
default
  6
CONTINUOUS
 10
425.034511
 20
169.404846
 40
6.000000
 39
0
 62
8
  0
CIRCLE
  8
default
  6
CONTINUOUS
 10
390.698615
 20
169.404846
 40
6.000000
 39
0
 62
8
  0
CIRCLE
  8
default
  6
CONTINUOUS
 10
358.976382
 20
182.544625
 40
6.000000
 39
0
 62
8
  0
ARC
  8
default
  6
CONTINUOUS
 10
354.833554
 20
202.680942
 40
2.000000
 50
45.000000
 51
135.000000
 39
0
 62
9
  0
ARC
  8
default
  6
CONTINUOUS
 10
460.899572
 20
202.680942
 40
2.000000
 50
45.000000
 51
135.000000
 39
0
 62
9
  0
ARC
  8
default
  6
CONTINUOUS
 10
407.866563
 20
255.713951
 40
73.000000
 50
225.000000
 51
315.000000
 39
0
 62
9
  0
ARC
  8
default
  6
CONTINUOUS
 10
496.254911
 20
167.325603
 40
2.000000
 50
315.000000
 51
45.000000
 39
0
 62
9
  0
LINE
  8
default
  6
CONTINUOUS
 10
462.313785
 20
204.095156
 11
497.669124
 21
168.739817
 39
0
 62
9
  0
ARC
  8
default
  6
CONTINUOUS
 10
319.478215
 20
167.325603
 40
2.000000
 50
135.000000
 51
225.000000
 39
0
 62
9
  0
ARC
  8
default
  6
CONTINUOUS
 10
407.866563
 20
255.713951
 40
127.000000
 50
225.000000
 51
315.000000
 39
0
 62
9
  0
LINE
  8
default
  6
CONTINUOUS
 10
353.419341
 20
204.095156
 11
318.064002
 21
168.739817
 39
0
 62
9
  0
ARC
  8
default
  6
CONTINUOUS
 10
407.866563
 20
255.713951
 40
99.000000
 50
225.000000
 51
315.000000
 39
0
 62
10
  0
ARC
  8
default
  6
CONTINUOUS
 10
407.866563
 20
255.713951
 40
78.000000
 50
225.000000
 51
315.000000
 39
0
 62
2
  0
ARC
  8
default
  6
CONTINUOUS
 10
407.866563
 20
255.713951
 40
81.000000
 50
225.000000
 51
315.000000
 39
0
 62
2
  0
ARC
  8
default
  6
CONTINUOUS
 10
407.866563
 20
255.713951
 40
84.000000
 50
225.000000
 51
315.000000
 39
0
 62
2
  0
ARC
  8
default
  6
CONTINUOUS
 10
407.866563
 20
255.713951
 40
87.000000
 50
225.000000
 51
315.000000
 39
0
 62
2
  0
ARC
  8
default
  6
CONTINUOUS
 10
407.866563
 20
255.713951
 40
90.000000
 50
225.000000
 51
315.000000
 39
0
 62
2
  0
ARC
  8
default
  6
CONTINUOUS
 10
407.866563
 20
255.713951
 40
93.000000
 50
225.000000
 51
315.000000
 39
0
 62
2
  0
ARC
  8
default
  6
CONTINUOUS
 10
407.866563
 20
255.713951
 40
96.000000
 50
225.000000
 51
315.000000
 39
0
 62
2
  0
ARC
  8
default
  6
CONTINUOUS
 10
407.866563
 20
255.713951
 40
97.000000
 50
225.000000
 51
315.000000
 39
0
 62
2
  0
POINT
  8
default
  6
CONTINUOUS
 10
358.976382
 20
182.544625
 39
0
 62
9
  0
POINT
  8
default
  6
CONTINUOUS
 10
374.190421
 20
174.412552
 39
0
 62
9
  0
POINT
  8
default
  6
CONTINUOUS
 10
345.364912
 20
162.173620
 39
0
 62
9
  0
POINT
  8
default
  6
CONTINUOUS
 10
385.918902
 20
145.375607
 39
0
 62
9
  0
POINT
  8
default
  6
CONTINUOUS
 10
390.698615
 20
169.404846
 39
0
 62
9
  0
POINT
  8
default
  6
CONTINUOUS
 10
425.034511
 20
169.404846
 39
0
 62
9
  0
POINT
  8
default
  6
CONTINUOUS
 10
429.814224
 20
145.375607
 39
0
 62
9
  0
POINT
  8
default
  6
CONTINUOUS
 10
470.368214
 20
162.173620
 39
0
 62
9
  0
POINT
  8
default
  6
CONTINUOUS
 10
456.756744
 20
182.544625
 39
0
 62
9
  0
POINT
  8
default
  6
CONTINUOUS
 10
441.542705
 20
174.412552
 39
0
 62
9
  0
ARC
  8
default
  6
CONTINUOUS
 10
90.162398
 20
256.570296
 40
125.000000
 50
225.000000
 51
315.000000
 39
0
 62
0
  0
ARC
  8
default
  6
CONTINUOUS
 10
90.162398
 20
256.570296
 40
75.000000
 50
225.000000
 51
315.000000
 39
0
 62
0
  0
LINE
  8
default
  6
CONTINUOUS
 10
37.129389
 20
203.537287
 11
1.774050
 21
168.181948
 39
0
 62
0
  0
LINE
  8
default
  6
CONTINUOUS
 10
143.195407
 20
203.537287
 11
178.550746
 21
168.181948
 39
0
 62
0
  0
CIRCLE
  8
default
  6
CONTINUOUS
 10
152.664049
 20
163.029965
 40
2.500000
 39
0
 62
8
  0
CIRCLE
  8
default
  6
CONTINUOUS
 10
112.110059
 20
146.231952
 40
2.500000
 39
0
 62
8
  0
CIRCLE
  8
default
  6
CONTINUOUS
 10
68.214737
 20
146.231952
 40
2.500000
 39
0
 62
8
  0
CIRCLE
  8
default
  6
CONTINUOUS
 10
27.660747
 20
163.029965
 40
2.500000
 39
0
 62
8
  0
CIRCLE
  8
default
  6
CONTINUOUS
 10
123.838540
 20
175.268897
 40
2.500000
 39
0
 62
8
  0
CIRCLE
  8
default
  6
CONTINUOUS
 10
56.486256
 20
175.268897
 40
2.500000
 39
0
 62
8
  0
CIRCLE
  8
default
  6
CONTINUOUS
 10
139.052579
 20
183.400970
 40
6.000000
 39
0
 62
8
  0
CIRCLE
  8
default
  6
CONTINUOUS
 10
107.330346
 20
170.261191
 40
6.000000
 39
0
 62
8
  0
CIRCLE
  8
default
  6
CONTINUOUS
 10
72.994450
 20
170.261191
 40
6.000000
 39
0
 62
8
  0
CIRCLE
  8
default
  6
CONTINUOUS
 10
41.272217
 20
183.400970
 40
6.000000
 39
0
 62
8
  0
ARC
  8
default
  6
CONTINUOUS
 10
37.129389
 20
203.537287
 40
2.000000
 50
45.000000
 51
135.000000
 39
0
 62
9
  0
ARC
  8
default
  6
CONTINUOUS
 10
143.195407
 20
203.537287
 40
2.000000
 50
45.000000
 51
135.000000
 39
0
 62
9
  0
ARC
  8
default
  6
CONTINUOUS
 10
90.162398
 20
256.570296
 40
73.000000
 50
225.000000
 51
315.000000
 39
0
 62
9
  0
ARC
  8
default
  6
CONTINUOUS
 10
178.550746
 20
168.181948
 40
2.000000
 50
315.000000
 51
45.000000
 39
0
 62
9
  0
LINE
  8
default
  6
CONTINUOUS
 10
144.609620
 20
204.951501
 11
179.964959
 21
169.596162
 39
0
 62
9
  0
ARC
  8
default
  6
CONTINUOUS
 10
1.774050
 20
168.181948
 40
2.000000
 50
135.000000
 51
225.000000
 39
0
 62
9
  0
ARC
  8
default
  6
CONTINUOUS
 10
90.162398
 20
256.570296
 40
127.000000
 50
225.000000
 51
315.000000
 39
0
 62
9
  0
LINE
  8
default
  6
CONTINUOUS
 10
35.715176
 20
204.951501
 11
0.359837
 21
169.596162
 39
0
 62
9
  0
ARC
  8
default
  6
CONTINUOUS
 10
90.162398
 20
256.570296
 40
99.000000
 50
225.000000
 51
315.000000
 39
0
 62
10
  0
ARC
  8
default
  6
CONTINUOUS
 10
90.162398
 20
256.570296
 40
78.000000
 50
225.000000
 51
315.000000
 39
0
 62
2
  0
ARC
  8
default
  6
CONTINUOUS
 10
90.162398
 20
256.570296
 40
81.000000
 50
225.000000
 51
315.000000
 39
0
 62
2
  0
ARC
  8
default
  6
CONTINUOUS
 10
90.162398
 20
256.570296
 40
84.000000
 50
225.000000
 51
315.000000
 39
0
 62
2
  0
ARC
  8
default
  6
CONTINUOUS
 10
90.162398
 20
256.570296
 40
87.000000
 50
225.000000
 51
315.000000
 39
0
 62
2
  0
ARC
  8
default
  6
CONTINUOUS
 10
90.162398
 20
256.570296
 40
90.000000
 50
225.000000
 51
315.000000
 39
0
 62
2
  0
ARC
  8
default
  6
CONTINUOUS
 10
90.162398
 20
256.570296
 40
93.000000
 50
225.000000
 51
315.000000
 39
0
 62
2
  0
ARC
  8
default
  6
CONTINUOUS
 10
90.162398
 20
256.570296
 40
96.000000
 50
225.000000
 51
315.000000
 39
0
 62
2
  0
ARC
  8
default
  6
CONTINUOUS
 10
90.162398
 20
256.570296
 40
97.000000
 50
225.000000
 51
315.000000
 39
0
 62
2
  0
POINT
  8
default
  6
CONTINUOUS
 10
41.272217
 20
183.400970
 39
0
 62
9
  0
POINT
  8
default
  6
CONTINUOUS
 10
56.486256
 20
175.268897
 39
0
 62
9
  0
POINT
  8
default
  6
CONTINUOUS
 10
27.660747
 20
163.029965
 39
0
 62
9
  0
POINT
  8
default
  6
CONTINUOUS
 10
68.214737
 20
146.231952
 39
0
 62
9
  0
POINT
  8
default
  6
CONTINUOUS
 10
72.994450
 20
170.261191
 39
0
 62
9
  0
POINT
  8
default
  6
CONTINUOUS
 10
107.330346
 20
170.261191
 39
0
 62
9
  0
POINT
  8
default
  6
CONTINUOUS
 10
112.110059
 20
146.231952
 39
0
 62
9
  0
POINT
  8
default
  6
CONTINUOUS
 10
152.664049
 20
163.029965
 39
0
 62
9
  0
POINT
  8
default
  6
CONTINUOUS
 10
139.052579
 20
183.400970
 39
0
 62
9
  0
POINT
  8
default
  6
CONTINUOUS
 10
123.838540
 20
175.268897
 39
0
 62
9
  0
ARC
  8
default
  6
CONTINUOUS
 10
249.380606
 20
104.412007
 40
125.000000
 50
45.000000
 51
135.000000
 39
0
 62
0
  0
ARC
  8
default
  6
CONTINUOUS
 10
249.380606
 20
104.412007
 40
75.000000
 50
45.000000
 51
135.000000
 39
0
 62
0
  0
LINE
  8
default
  6
CONTINUOUS
 10
196.347597
 20
157.445016
 11
160.992258
 21
192.800355
 39
0
 62
0
  0
LINE
  8
default
  6
CONTINUOUS
 10
302.413615
 20
157.445016
 11
337.768954
 21
192.800355
 39
0
 62
0
  0
CIRCLE
  8
default
  6
CONTINUOUS
 10
311.882257
 20
197.952338
 40
2.500000
 39
0
 62
8
  0
CIRCLE
  8
default
  6
CONTINUOUS
 10
271.328267
 20
214.750351
 40
2.500000
 39
0
 62
8
  0
CIRCLE
  8
default
  6
CONTINUOUS
 10
227.432945
 20
214.750351
 40
2.500000
 39
0
 62
8
  0
CIRCLE
  8
default
  6
CONTINUOUS
 10
186.878955
 20
197.952338
 40
2.500000
 39
0
 62
8
  0
CIRCLE
  8
default
  6
CONTINUOUS
 10
283.056748
 20
185.713406
 40
2.500000
 39
0
 62
8
  0
CIRCLE
  8
default
  6
CONTINUOUS
 10
215.704464
 20
185.713406
 40
2.500000
 39
0
 62
8
  0
CIRCLE
  8
default
  6
CONTINUOUS
 10
298.270787
 20
177.581333
 40
6.000000
 39
0
 62
8
  0
CIRCLE
  8
default
  6
CONTINUOUS
 10
266.548554
 20
190.721112
 40
6.000000
 39
0
 62
8
  0
CIRCLE
  8
default
  6
CONTINUOUS
 10
232.212658
 20
190.721112
 40
6.000000
 39
0
 62
8
  0
CIRCLE
  8
default
  6
CONTINUOUS
 10
200.490425
 20
177.581333
 40
6.000000
 39
0
 62
8
  0
ARC
  8
default
  6
CONTINUOUS
 10
196.347597
 20
157.445016
 40
2.000000
 50
225.000000
 51
315.000000
 39
0
 62
9
  0
ARC
  8
default
  6
CONTINUOUS
 10
302.413615
 20
157.445016
 40
2.000000
 50
225.000000
 51
315.000000
 39
0
 62
9
  0
ARC
  8
default
  6
CONTINUOUS
 10
249.380606
 20
104.412007
 40
73.000000
 50
45.000000
 51
135.000000
 39
0
 62
9
  0
ARC
  8
default
  6
CONTINUOUS
 10
337.768954
 20
192.800355
 40
2.000000
 50
315.000000
 51
45.000000
 39
0
 62
9
  0
LINE
  8
default
  6
CONTINUOUS
 10
303.827828
 20
156.030802
 11
339.183167
 21
191.386141
 39
0
 62
9
  0
ARC
  8
default
  6
CONTINUOUS
 10
160.992258
 20
192.800355
 40
2.000000
 50
135.000000
 51
225.000000
 39
0
 62
9
  0
ARC
  8
default
  6
CONTINUOUS
 10
249.380606
 20
104.412007
 40
127.000000
 50
45.000000
 51
135.000000
 39
0
 62
9
  0
LINE
  8
default
  6
CONTINUOUS
 10
194.933384
 20
156.030802
 11
159.578045
 21
191.386141
 39
0
 62
9
  0
ARC
  8
default
  6
CONTINUOUS
 10
249.380606
 20
104.412007
 40
99.000000
 50
45.000000
 51
135.000000
 39
0
 62
10
  0
ARC
  8
default
  6
CONTINUOUS
 10
249.380606
 20
104.412007
 40
78.000000
 50
45.000000
 51
135.000000
 39
0
 62
2
  0
ARC
  8
default
  6
CONTINUOUS
 10
249.380606
 20
104.412007
 40
81.000000
 50
45.000000
 51
135.000000
 39
0
 62
2
  0
ARC
  8
default
  6
CONTINUOUS
 10
249.380606
 20
104.412007
 40
84.000000
 50
45.000000
 51
135.000000
 39
0
 62
2
  0
ARC
  8
default
  6
CONTINUOUS
 10
249.380606
 20
104.412007
 40
87.000000
 50
45.000000
 51
135.000000
 39
0
 62
2
  0
ARC
  8
default
  6
CONTINUOUS
 10
249.380606
 20
104.412007
 40
90.000000
 50
45.000000
 51
135.000000
 39
0
 62
2
  0
ARC
  8
default
  6
CONTINUOUS
 10
249.380606
 20
104.412007
 40
93.000000
 50
45.000000
 51
135.000000
 39
0
 62
2
  0
ARC
  8
default
  6
CONTINUOUS
 10
249.380606
 20
104.412007
 40
96.000000
 50
45.000000
 51
135.000000
 39
0
 62
2
  0
ARC
  8
default
  6
CONTINUOUS
 10
249.380606
 20
104.412007
 40
97.000000
 50
45.000000
 51
135.000000
 39
0
 62
2
  0
POINT
  8
default
  6
CONTINUOUS
 10
200.490425
 20
177.581333
 39
0
 62
9
  0
POINT
  8
default
  6
CONTINUOUS
 10
215.704464
 20
185.713406
 39
0
 62
9
  0
POINT
  8
default
  6
CONTINUOUS
 10
186.878955
 20
197.952338
 39
0
 62
9
  0
POINT
  8
default
  6
CONTINUOUS
 10
227.432945
 20
214.750351
 39
0
 62
9
  0
POINT
  8
default
  6
CONTINUOUS
 10
232.212658
 20
190.721112
 39
0
 62
9
  0
POINT
  8
default
  6
CONTINUOUS
 10
266.548554
 20
190.721112
 39
0
 62
9
  0
POINT
  8
default
  6
CONTINUOUS
 10
271.328267
 20
214.750351
 39
0
 62
9
  0
POINT
  8
default
  6
CONTINUOUS
 10
311.882257
 20
197.952338
 39
0
 62
9
  0
POINT
  8
default
  6
CONTINUOUS
 10
298.270787
 20
177.581333
 39
0
 62
9
  0
POINT
  8
default
  6
CONTINUOUS
 10
283.056748
 20
185.713406
 39
0
 62
9
  0
ARC
  8
default
  6
CONTINUOUS
 10
407.866563
 20
320.713951
 40
125.000000
 50
225.000000
 51
315.000000
 39
0
 62
0
  0
ARC
  8
default
  6
CONTINUOUS
 10
407.866563
 20
320.713951
 40
75.000000
 50
225.000000
 51
315.000000
 39
0
 62
0
  0
LINE
  8
default
  6
CONTINUOUS
 10
354.833554
 20
267.680942
 11
319.478215
 21
232.325603
 39
0
 62
0
  0
LINE
  8
default
  6
CONTINUOUS
 10
460.899572
 20
267.680942
 11
496.254911
 21
232.325603
 39
0
 62
0
  0
CIRCLE
  8
default
  6
CONTINUOUS
 10
470.368214
 20
227.173620
 40
2.500000
 39
0
 62
8
  0
CIRCLE
  8
default
  6
CONTINUOUS
 10
429.814224
 20
210.375607
 40
2.500000
 39
0
 62
8
  0
CIRCLE
  8
default
  6
CONTINUOUS
 10
385.918902
 20
210.375607
 40
2.500000
 39
0
 62
8
  0
CIRCLE
  8
default
  6
CONTINUOUS
 10
345.364912
 20
227.173620
 40
2.500000
 39
0
 62
8
  0
CIRCLE
  8
default
  6
CONTINUOUS
 10
441.542705
 20
239.412552
 40
2.500000
 39
0
 62
8
  0
CIRCLE
  8
default
  6
CONTINUOUS
 10
374.190421
 20
239.412552
 40
2.500000
 39
0
 62
8
  0
CIRCLE
  8
default
  6
CONTINUOUS
 10
456.756744
 20
247.544625
 40
6.000000
 39
0
 62
8
  0
CIRCLE
  8
default
  6
CONTINUOUS
 10
425.034511
 20
234.404846
 40
6.000000
 39
0
 62
8
  0
CIRCLE
  8
default
  6
CONTINUOUS
 10
390.698615
 20
234.404846
 40
6.000000
 39
0
 62
8
  0
CIRCLE
  8
default
  6
CONTINUOUS
 10
358.976382
 20
247.544625
 40
6.000000
 39
0
 62
8
  0
ARC
  8
default
  6
CONTINUOUS
 10
354.833554
 20
267.680942
 40
2.000000
 50
45.000000
 51
135.000000
 39
0
 62
9
  0
ARC
  8
default
  6
CONTINUOUS
 10
460.899572
 20
267.680942
 40
2.000000
 50
45.000000
 51
135.000000
 39
0
 62
9
  0
ARC
  8
default
  6
CONTINUOUS
 10
407.866563
 20
320.713951
 40
73.000000
 50
225.000000
 51
315.000000
 39
0
 62
9
  0
ARC
  8
default
  6
CONTINUOUS
 10
496.254911
 20
232.325603
 40
2.000000
 50
315.000000
 51
45.000000
 39
0
 62
9
  0
LINE
  8
default
  6
CONTINUOUS
 10
462.313785
 20
269.095156
 11
497.669124
 21
233.739817
 39
0
 62
9
  0
ARC
  8
default
  6
CONTINUOUS
 10
319.478215
 20
232.325603
 40
2.000000
 50
135.000000
 51
225.000000
 39
0
 62
9
  0
ARC
  8
default
  6
CONTINUOUS
 10
407.866563
 20
320.713951
 40
127.000000
 50
225.000000
 51
315.000000
 39
0
 62
9
  0
LINE
  8
default
  6
CONTINUOUS
 10
353.419341
 20
269.095156
 11
318.064002
 21
233.739817
 39
0
 62
9
  0
ARC
  8
default
  6
CONTINUOUS
 10
407.866563
 20
320.713951
 40
99.000000
 50
225.000000
 51
315.000000
 39
0
 62
10
  0
ARC
  8
default
  6
CONTINUOUS
 10
407.866563
 20
320.713951
 40
78.000000
 50
225.000000
 51
315.000000
 39
0
 62
2
  0
ARC
  8
default
  6
CONTINUOUS
 10
407.866563
 20
320.713951
 40
81.000000
 50
225.000000
 51
315.000000
 39
0
 62
2
  0
ARC
  8
default
  6
CONTINUOUS
 10
407.866563
 20
320.713951
 40
84.000000
 50
225.000000
 51
315.000000
 39
0
 62
2
  0
ARC
  8
default
  6
CONTINUOUS
 10
407.866563
 20
320.713951
 40
87.000000
 50
225.000000
 51
315.000000
 39
0
 62
2
  0
ARC
  8
default
  6
CONTINUOUS
 10
407.866563
 20
320.713951
 40
90.000000
 50
225.000000
 51
315.000000
 39
0
 62
2
  0
ARC
  8
default
  6
CONTINUOUS
 10
407.866563
 20
320.713951
 40
93.000000
 50
225.000000
 51
315.000000
 39
0
 62
2
  0
ARC
  8
default
  6
CONTINUOUS
 10
407.866563
 20
320.713951
 40
96.000000
 50
225.000000
 51
315.000000
 39
0
 62
2
  0
ARC
  8
default
  6
CONTINUOUS
 10
407.866563
 20
320.713951
 40
97.000000
 50
225.000000
 51
315.000000
 39
0
 62
2
  0
POINT
  8
default
  6
CONTINUOUS
 10
358.976382
 20
247.544625
 39
0
 62
9
  0
POINT
  8
default
  6
CONTINUOUS
 10
374.190421
 20
239.412552
 39
0
 62
9
  0
POINT
  8
default
  6
CONTINUOUS
 10
345.364912
 20
227.173620
 39
0
 62
9
  0
POINT
  8
default
  6
CONTINUOUS
 10
385.918902
 20
210.375607
 39
0
 62
9
  0
POINT
  8
default
  6
CONTINUOUS
 10
390.698615
 20
234.404846
 39
0
 62
9
  0
POINT
  8
default
  6
CONTINUOUS
 10
425.034511
 20
234.404846
 39
0
 62
9
  0
POINT
  8
default
  6
CONTINUOUS
 10
429.814224
 20
210.375607
 39
0
 62
9
  0
POINT
  8
default
  6
CONTINUOUS
 10
470.368214
 20
227.173620
 39
0
 62
9
  0
POINT
  8
default
  6
CONTINUOUS
 10
456.756744
 20
247.544625
 39
0
 62
9
  0
POINT
  8
default
  6
CONTINUOUS
 10
441.542705
 20
239.412552
 39
0
 62
9
  0
ARC
  8
default
  6
CONTINUOUS
 10
90.162398
 20
321.570296
 40
125.000000
 50
225.000000
 51
315.000000
 39
0
 62
0
  0
ARC
  8
default
  6
CONTINUOUS
 10
90.162398
 20
321.570296
 40
75.000000
 50
225.000000
 51
315.000000
 39
0
 62
0
  0
LINE
  8
default
  6
CONTINUOUS
 10
37.129389
 20
268.537287
 11
1.774050
 21
233.181948
 39
0
 62
0
  0
LINE
  8
default
  6
CONTINUOUS
 10
143.195407
 20
268.537287
 11
178.550746
 21
233.181948
 39
0
 62
0
  0
CIRCLE
  8
default
  6
CONTINUOUS
 10
152.664049
 20
228.029965
 40
2.500000
 39
0
 62
8
  0
CIRCLE
  8
default
  6
CONTINUOUS
 10
112.110059
 20
211.231952
 40
2.500000
 39
0
 62
8
  0
CIRCLE
  8
default
  6
CONTINUOUS
 10
68.214737
 20
211.231952
 40
2.500000
 39
0
 62
8
  0
CIRCLE
  8
default
  6
CONTINUOUS
 10
27.660747
 20
228.029965
 40
2.500000
 39
0
 62
8
  0
CIRCLE
  8
default
  6
CONTINUOUS
 10
123.838540
 20
240.268897
 40
2.500000
 39
0
 62
8
  0
CIRCLE
  8
default
  6
CONTINUOUS
 10
56.486256
 20
240.268897
 40
2.500000
 39
0
 62
8
  0
CIRCLE
  8
default
  6
CONTINUOUS
 10
139.052579
 20
248.400970
 40
6.000000
 39
0
 62
8
  0
CIRCLE
  8
default
  6
CONTINUOUS
 10
107.330346
 20
235.261191
 40
6.000000
 39
0
 62
8
  0
CIRCLE
  8
default
  6
CONTINUOUS
 10
72.994450
 20
235.261191
 40
6.000000
 39
0
 62
8
  0
CIRCLE
  8
default
  6
CONTINUOUS
 10
41.272217
 20
248.400970
 40
6.000000
 39
0
 62
8
  0
ARC
  8
default
  6
CONTINUOUS
 10
37.129389
 20
268.537287
 40
2.000000
 50
45.000000
 51
135.000000
 39
0
 62
9
  0
ARC
  8
default
  6
CONTINUOUS
 10
143.195407
 20
268.537287
 40
2.000000
 50
45.000000
 51
135.000000
 39
0
 62
9
  0
ARC
  8
default
  6
CONTINUOUS
 10
90.162398
 20
321.570296
 40
73.000000
 50
225.000000
 51
315.000000
 39
0
 62
9
  0
ARC
  8
default
  6
CONTINUOUS
 10
178.550746
 20
233.181948
 40
2.000000
 50
315.000000
 51
45.000000
 39
0
 62
9
  0
LINE
  8
default
  6
CONTINUOUS
 10
144.609620
 20
269.951501
 11
179.964959
 21
234.596162
 39
0
 62
9
  0
ARC
  8
default
  6
CONTINUOUS
 10
1.774050
 20
233.181948
 40
2.000000
 50
135.000000
 51
225.000000
 39
0
 62
9
  0
ARC
  8
default
  6
CONTINUOUS
 10
90.162398
 20
321.570296
 40
127.000000
 50
225.000000
 51
315.000000
 39
0
 62
9
  0
LINE
  8
default
  6
CONTINUOUS
 10
35.715176
 20
269.951501
 11
0.359837
 21
234.596162
 39
0
 62
9
  0
ARC
  8
default
  6
CONTINUOUS
 10
90.162398
 20
321.570296
 40
99.000000
 50
225.000000
 51
315.000000
 39
0
 62
10
  0
ARC
  8
default
  6
CONTINUOUS
 10
90.162398
 20
321.570296
 40
78.000000
 50
225.000000
 51
315.000000
 39
0
 62
2
  0
ARC
  8
default
  6
CONTINUOUS
 10
90.162398
 20
321.570296
 40
81.000000
 50
225.000000
 51
315.000000
 39
0
 62
2
  0
ARC
  8
default
  6
CONTINUOUS
 10
90.162398
 20
321.570296
 40
84.000000
 50
225.000000
 51
315.000000
 39
0
 62
2
  0
ARC
  8
default
  6
CONTINUOUS
 10
90.162398
 20
321.570296
 40
87.000000
 50
225.000000
 51
315.000000
 39
0
 62
2
  0
ARC
  8
default
  6
CONTINUOUS
 10
90.162398
 20
321.570296
 40
90.000000
 50
225.000000
 51
315.000000
 39
0
 62
2
  0
ARC
  8
default
  6
CONTINUOUS
 10
90.162398
 20
321.570296
 40
93.000000
 50
225.000000
 51
315.000000
 39
0
 62
2
  0
ARC
  8
default
  6
CONTINUOUS
 10
90.162398
 20
321.570296
 40
96.000000
 50
225.000000
 51
315.000000
 39
0
 62
2
  0
ARC
  8
default
  6
CONTINUOUS
 10
90.162398
 20
321.570296
 40
97.000000
 50
225.000000
 51
315.000000
 39
0
 62
2
  0
POINT
  8
default
  6
CONTINUOUS
 10
41.272217
 20
248.400970
 39
0
 62
9
  0
POINT
  8
default
  6
CONTINUOUS
 10
56.486256
 20
240.268897
 39
0
 62
9
  0
POINT
  8
default
  6
CONTINUOUS
 10
27.660747
 20
228.029965
 39
0
 62
9
  0
POINT
  8
default
  6
CONTINUOUS
 10
68.214737
 20
211.231952
 39
0
 62
9
  0
POINT
  8
default
  6
CONTINUOUS
 10
72.994450
 20
235.261191
 39
0
 62
9
  0
POINT
  8
default
  6
CONTINUOUS
 10
107.330346
 20
235.261191
 39
0
 62
9
  0
POINT
  8
default
  6
CONTINUOUS
 10
112.110059
 20
211.231952
 39
0
 62
9
  0
POINT
  8
default
  6
CONTINUOUS
 10
152.664049
 20
228.029965
 39
0
 62
9
  0
POINT
  8
default
  6
CONTINUOUS
 10
139.052579
 20
248.400970
 39
0
 62
9
  0
POINT
  8
default
  6
CONTINUOUS
 10
123.838540
 20
240.268897
 39
0
 62
9
  0
ARC
  8
default
  6
CONTINUOUS
 10
249.380606
 20
169.412007
 40
125.000000
 50
45.000000
 51
135.000000
 39
0
 62
0
  0
ARC
  8
default
  6
CONTINUOUS
 10
249.380606
 20
169.412007
 40
75.000000
 50
45.000000
 51
135.000000
 39
0
 62
0
  0
LINE
  8
default
  6
CONTINUOUS
 10
196.347597
 20
222.445016
 11
160.992258
 21
257.800355
 39
0
 62
0
  0
LINE
  8
default
  6
CONTINUOUS
 10
302.413615
 20
222.445016
 11
337.768954
 21
257.800355
 39
0
 62
0
  0
CIRCLE
  8
default
  6
CONTINUOUS
 10
311.882257
 20
262.952338
 40
2.500000
 39
0
 62
8
  0
CIRCLE
  8
default
  6
CONTINUOUS
 10
271.328267
 20
279.750351
 40
2.500000
 39
0
 62
8
  0
CIRCLE
  8
default
  6
CONTINUOUS
 10
227.432945
 20
279.750351
 40
2.500000
 39
0
 62
8
  0
CIRCLE
  8
default
  6
CONTINUOUS
 10
186.878955
 20
262.952338
 40
2.500000
 39
0
 62
8
  0
CIRCLE
  8
default
  6
CONTINUOUS
 10
283.056748
 20
250.713406
 40
2.500000
 39
0
 62
8
  0
CIRCLE
  8
default
  6
CONTINUOUS
 10
215.704464
 20
250.713406
 40
2.500000
 39
0
 62
8
  0
CIRCLE
  8
default
  6
CONTINUOUS
 10
298.270787
 20
242.581333
 40
6.000000
 39
0
 62
8
  0
CIRCLE
  8
default
  6
CONTINUOUS
 10
266.548554
 20
255.721112
 40
6.000000
 39
0
 62
8
  0
CIRCLE
  8
default
  6
CONTINUOUS
 10
232.212658
 20
255.721112
 40
6.000000
 39
0
 62
8
  0
CIRCLE
  8
default
  6
CONTINUOUS
 10
200.490425
 20
242.581333
 40
6.000000
 39
0
 62
8
  0
ARC
  8
default
  6
CONTINUOUS
 10
196.347597
 20
222.445016
 40
2.000000
 50
225.000000
 51
315.000000
 39
0
 62
9
  0
ARC
  8
default
  6
CONTINUOUS
 10
302.413615
 20
222.445016
 40
2.000000
 50
225.000000
 51
315.000000
 39
0
 62
9
  0
ARC
  8
default
  6
CONTINUOUS
 10
249.380606
 20
169.412007
 40
73.000000
 50
45.000000
 51
135.000000
 39
0
 62
9
  0
ARC
  8
default
  6
CONTINUOUS
 10
337.768954
 20
257.800355
 40
2.000000
 50
315.000000
 51
45.000000
 39
0
 62
9
  0
LINE
  8
default
  6
CONTINUOUS
 10
303.827828
 20
221.030802
 11
339.183167
 21
256.386141
 39
0
 62
9
  0
ARC
  8
default
  6
CONTINUOUS
 10
160.992258
 20
257.800355
 40
2.000000
 50
135.000000
 51
225.000000
 39
0
 62
9
  0
ARC
  8
default
  6
CONTINUOUS
 10
249.380606
 20
169.412007
 40
127.000000
 50
45.000000
 51
135.000000
 39
0
 62
9
  0
LINE
  8
default
  6
CONTINUOUS
 10
194.933384
 20
221.030802
 11
159.578045
 21
256.386141
 39
0
 62
9
  0
ARC
  8
default
  6
CONTINUOUS
 10
249.380606
 20
169.412007
 40
99.000000
 50
45.000000
 51
135.000000
 39
0
 62
10
  0
ARC
  8
default
  6
CONTINUOUS
 10
249.380606
 20
169.412007
 40
78.000000
 50
45.000000
 51
135.000000
 39
0
 62
2
  0
ARC
  8
default
  6
CONTINUOUS
 10
249.380606
 20
169.412007
 40
81.000000
 50
45.000000
 51
135.000000
 39
0
 62
2
  0
ARC
  8
default
  6
CONTINUOUS
 10
249.380606
 20
169.412007
 40
84.000000
 50
45.000000
 51
135.000000
 39
0
 62
2
  0
ARC
  8
default
  6
CONTINUOUS
 10
249.380606
 20
169.412007
 40
87.000000
 50
45.000000
 51
135.000000
 39
0
 62
2
  0
ARC
  8
default
  6
CONTINUOUS
 10
249.380606
 20
169.412007
 40
90.000000
 50
45.000000
 51
135.000000
 39
0
 62
2
  0
ARC
  8
default
  6
CONTINUOUS
 10
249.380606
 20
169.412007
 40
93.000000
 50
45.000000
 51
135.000000
 39
0
 62
2
  0
ARC
  8
default
  6
CONTINUOUS
 10
249.380606
 20
169.412007
 40
96.000000
 50
45.000000
 51
135.000000
 39
0
 62
2
  0
ARC
  8
default
  6
CONTINUOUS
 10
249.380606
 20
169.412007
 40
97.000000
 50
45.000000
 51
135.000000
 39
0
 62
2
  0
POINT
  8
default
  6
CONTINUOUS
 10
200.490425
 20
242.581333
 39
0
 62
9
  0
POINT
  8
default
  6
CONTINUOUS
 10
215.704464
 20
250.713406
 39
0
 62
9
  0
POINT
  8
default
  6
CONTINUOUS
 10
186.878955
 20
262.952338
 39
0
 62
9
  0
POINT
  8
default
  6
CONTINUOUS
 10
227.432945
 20
279.750351
 39
0
 62
9
  0
POINT
  8
default
  6
CONTINUOUS
 10
232.212658
 20
255.721112
 39
0
 62
9
  0
POINT
  8
default
  6
CONTINUOUS
 10
266.548554
 20
255.721112
 39
0
 62
9
  0
POINT
  8
default
  6
CONTINUOUS
 10
271.328267
 20
279.750351
 39
0
 62
9
  0
POINT
  8
default
  6
CONTINUOUS
 10
311.882257
 20
262.952338
 39
0
 62
9
  0
POINT
  8
default
  6
CONTINUOUS
 10
298.270787
 20
242.581333
 39
0
 62
9
  0
POINT
  8
default
  6
CONTINUOUS
 10
283.056748
 20
250.713406
 39
0
 62
9
  0
ARC
  8
default
  6
CONTINUOUS
 10
407.866563
 20
385.713951
 40
125.000000
 50
225.000000
 51
315.000000
 39
0
 62
0
  0
ARC
  8
default
  6
CONTINUOUS
 10
407.866563
 20
385.713951
 40
75.000000
 50
225.000000
 51
315.000000
 39
0
 62
0
  0
LINE
  8
default
  6
CONTINUOUS
 10
354.833554
 20
332.680942
 11
319.478215
 21
297.325603
 39
0
 62
0
  0
LINE
  8
default
  6
CONTINUOUS
 10
460.899572
 20
332.680942
 11
496.254911
 21
297.325603
 39
0
 62
0
  0
CIRCLE
  8
default
  6
CONTINUOUS
 10
470.368214
 20
292.173620
 40
2.500000
 39
0
 62
8
  0
CIRCLE
  8
default
  6
CONTINUOUS
 10
429.814224
 20
275.375607
 40
2.500000
 39
0
 62
8
  0
CIRCLE
  8
default
  6
CONTINUOUS
 10
385.918902
 20
275.375607
 40
2.500000
 39
0
 62
8
  0
CIRCLE
  8
default
  6
CONTINUOUS
 10
345.364912
 20
292.173620
 40
2.500000
 39
0
 62
8
  0
CIRCLE
  8
default
  6
CONTINUOUS
 10
441.542705
 20
304.412552
 40
2.500000
 39
0
 62
8
  0
CIRCLE
  8
default
  6
CONTINUOUS
 10
374.190421
 20
304.412552
 40
2.500000
 39
0
 62
8
  0
CIRCLE
  8
default
  6
CONTINUOUS
 10
456.756744
 20
312.544625
 40
6.000000
 39
0
 62
8
  0
CIRCLE
  8
default
  6
CONTINUOUS
 10
425.034511
 20
299.404846
 40
6.000000
 39
0
 62
8
  0
CIRCLE
  8
default
  6
CONTINUOUS
 10
390.698615
 20
299.404846
 40
6.000000
 39
0
 62
8
  0
CIRCLE
  8
default
  6
CONTINUOUS
 10
358.976382
 20
312.544625
 40
6.000000
 39
0
 62
8
  0
ARC
  8
default
  6
CONTINUOUS
 10
354.833554
 20
332.680942
 40
2.000000
 50
45.000000
 51
135.000000
 39
0
 62
9
  0
ARC
  8
default
  6
CONTINUOUS
 10
460.899572
 20
332.680942
 40
2.000000
 50
45.000000
 51
135.000000
 39
0
 62
9
  0
ARC
  8
default
  6
CONTINUOUS
 10
407.866563
 20
385.713951
 40
73.000000
 50
225.000000
 51
315.000000
 39
0
 62
9
  0
ARC
  8
default
  6
CONTINUOUS
 10
496.254911
 20
297.325603
 40
2.000000
 50
315.000000
 51
45.000000
 39
0
 62
9
  0
LINE
  8
default
  6
CONTINUOUS
 10
462.313785
 20
334.095156
 11
497.669124
 21
298.739817
 39
0
 62
9
  0
ARC
  8
default
  6
CONTINUOUS
 10
319.478215
 20
297.325603
 40
2.000000
 50
135.000000
 51
225.000000
 39
0
 62
9
  0
ARC
  8
default
  6
CONTINUOUS
 10
407.866563
 20
385.713951
 40
127.000000
 50
225.000000
 51
315.000000
 39
0
 62
9
  0
LINE
  8
default
  6
CONTINUOUS
 10
353.419341
 20
334.095156
 11
318.064002
 21
298.739817
 39
0
 62
9
  0
ARC
  8
default
  6
CONTINUOUS
 10
407.866563
 20
385.713951
 40
99.000000
 50
225.000000
 51
315.000000
 39
0
 62
10
  0
ARC
  8
default
  6
CONTINUOUS
 10
407.866563
 20
385.713951
 40
78.000000
 50
225.000000
 51
315.000000
 39
0
 62
2
  0
ARC
  8
default
  6
CONTINUOUS
 10
407.866563
 20
385.713951
 40
81.000000
 50
225.000000
 51
315.000000
 39
0
 62
2
  0
ARC
  8
default
  6
CONTINUOUS
 10
407.866563
 20
385.713951
 40
84.000000
 50
225.000000
 51
315.000000
 39
0
 62
2
  0
ARC
  8
default
  6
CONTINUOUS
 10
407.866563
 20
385.713951
 40
87.000000
 50
225.000000
 51
315.000000
 39
0
 62
2
  0
ARC
  8
default
  6
CONTINUOUS
 10
407.866563
 20
385.713951
 40
90.000000
 50
225.000000
 51
315.000000
 39
0
 62
2
  0
ARC
  8
default
  6
CONTINUOUS
 10
407.866563
 20
385.713951
 40
93.000000
 50
225.000000
 51
315.000000
 39
0
 62
2
  0
ARC
  8
default
  6
CONTINUOUS
 10
407.866563
 20
385.713951
 40
96.000000
 50
225.000000
 51
315.000000
 39
0
 62
2
  0
ARC
  8
default
  6
CONTINUOUS
 10
407.866563
 20
385.713951
 40
97.000000
 50
225.000000
 51
315.000000
 39
0
 62
2
  0
POINT
  8
default
  6
CONTINUOUS
 10
358.976382
 20
312.544625
 39
0
 62
9
  0
POINT
  8
default
  6
CONTINUOUS
 10
374.190421
 20
304.412552
 39
0
 62
9
  0
POINT
  8
default
  6
CONTINUOUS
 10
345.364912
 20
292.173620
 39
0
 62
9
  0
POINT
  8
default
  6
CONTINUOUS
 10
385.918902
 20
275.375607
 39
0
 62
9
  0
POINT
  8
default
  6
CONTINUOUS
 10
390.698615
 20
299.404846
 39
0
 62
9
  0
POINT
  8
default
  6
CONTINUOUS
 10
425.034511
 20
299.404846
 39
0
 62
9
  0
POINT
  8
default
  6
CONTINUOUS
 10
429.814224
 20
275.375607
 39
0
 62
9
  0
POINT
  8
default
  6
CONTINUOUS
 10
470.368214
 20
292.173620
 39
0
 62
9
  0
POINT
  8
default
  6
CONTINUOUS
 10
456.756744
 20
312.544625
 39
0
 62
9
  0
POINT
  8
default
  6
CONTINUOUS
 10
441.542705
 20
304.412552
 39
0
 62
9
  0
ARC
  8
default
  6
CONTINUOUS
 10
90.162398
 20
386.570296
 40
125.000000
 50
225.000000
 51
315.000000
 39
0
 62
0
  0
ARC
  8
default
  6
CONTINUOUS
 10
90.162398
 20
386.570296
 40
75.000000
 50
225.000000
 51
315.000000
 39
0
 62
0
  0
LINE
  8
default
  6
CONTINUOUS
 10
37.129389
 20
333.537287
 11
1.774050
 21
298.181948
 39
0
 62
0
  0
LINE
  8
default
  6
CONTINUOUS
 10
143.195407
 20
333.537287
 11
178.550746
 21
298.181948
 39
0
 62
0
  0
CIRCLE
  8
default
  6
CONTINUOUS
 10
152.664049
 20
293.029965
 40
2.500000
 39
0
 62
8
  0
CIRCLE
  8
default
  6
CONTINUOUS
 10
112.110059
 20
276.231952
 40
2.500000
 39
0
 62
8
  0
CIRCLE
  8
default
  6
CONTINUOUS
 10
68.214737
 20
276.231952
 40
2.500000
 39
0
 62
8
  0
CIRCLE
  8
default
  6
CONTINUOUS
 10
27.660747
 20
293.029965
 40
2.500000
 39
0
 62
8
  0
CIRCLE
  8
default
  6
CONTINUOUS
 10
123.838540
 20
305.268897
 40
2.500000
 39
0
 62
8
  0
CIRCLE
  8
default
  6
CONTINUOUS
 10
56.486256
 20
305.268897
 40
2.500000
 39
0
 62
8
  0
CIRCLE
  8
default
  6
CONTINUOUS
 10
139.052579
 20
313.400970
 40
6.000000
 39
0
 62
8
  0
CIRCLE
  8
default
  6
CONTINUOUS
 10
107.330346
 20
300.261191
 40
6.000000
 39
0
 62
8
  0
CIRCLE
  8
default
  6
CONTINUOUS
 10
72.994450
 20
300.261191
 40
6.000000
 39
0
 62
8
  0
CIRCLE
  8
default
  6
CONTINUOUS
 10
41.272217
 20
313.400970
 40
6.000000
 39
0
 62
8
  0
ARC
  8
default
  6
CONTINUOUS
 10
37.129389
 20
333.537287
 40
2.000000
 50
45.000000
 51
135.000000
 39
0
 62
9
  0
ARC
  8
default
  6
CONTINUOUS
 10
143.195407
 20
333.537287
 40
2.000000
 50
45.000000
 51
135.000000
 39
0
 62
9
  0
ARC
  8
default
  6
CONTINUOUS
 10
90.162398
 20
386.570296
 40
73.000000
 50
225.000000
 51
315.000000
 39
0
 62
9
  0
ARC
  8
default
  6
CONTINUOUS
 10
178.550746
 20
298.181948
 40
2.000000
 50
315.000000
 51
45.000000
 39
0
 62
9
  0
LINE
  8
default
  6
CONTINUOUS
 10
144.609620
 20
334.951501
 11
179.964959
 21
299.596162
 39
0
 62
9
  0
ARC
  8
default
  6
CONTINUOUS
 10
1.774050
 20
298.181948
 40
2.000000
 50
135.000000
 51
225.000000
 39
0
 62
9
  0
ARC
  8
default
  6
CONTINUOUS
 10
90.162398
 20
386.570296
 40
127.000000
 50
225.000000
 51
315.000000
 39
0
 62
9
  0
LINE
  8
default
  6
CONTINUOUS
 10
35.715176
 20
334.951501
 11
0.359837
 21
299.596162
 39
0
 62
9
  0
ARC
  8
default
  6
CONTINUOUS
 10
90.162398
 20
386.570296
 40
99.000000
 50
225.000000
 51
315.000000
 39
0
 62
10
  0
ARC
  8
default
  6
CONTINUOUS
 10
90.162398
 20
386.570296
 40
78.000000
 50
225.000000
 51
315.000000
 39
0
 62
2
  0
ARC
  8
default
  6
CONTINUOUS
 10
90.162398
 20
386.570296
 40
81.000000
 50
225.000000
 51
315.000000
 39
0
 62
2
  0
ARC
  8
default
  6
CONTINUOUS
 10
90.162398
 20
386.570296
 40
84.000000
 50
225.000000
 51
315.000000
 39
0
 62
2
  0
ARC
  8
default
  6
CONTINUOUS
 10
90.162398
 20
386.570296
 40
87.000000
 50
225.000000
 51
315.000000
 39
0
 62
2
  0
ARC
  8
default
  6
CONTINUOUS
 10
90.162398
 20
386.570296
 40
90.000000
 50
225.000000
 51
315.000000
 39
0
 62
2
  0
ARC
  8
default
  6
CONTINUOUS
 10
90.162398
 20
386.570296
 40
93.000000
 50
225.000000
 51
315.000000
 39
0
 62
2
  0
ARC
  8
default
  6
CONTINUOUS
 10
90.162398
 20
386.570296
 40
96.000000
 50
225.000000
 51
315.000000
 39
0
 62
2
  0
ARC
  8
default
  6
CONTINUOUS
 10
90.162398
 20
386.570296
 40
97.000000
 50
225.000000
 51
315.000000
 39
0
 62
2
  0
POINT
  8
default
  6
CONTINUOUS
 10
41.272217
 20
313.400970
 39
0
 62
9
  0
POINT
  8
default
  6
CONTINUOUS
 10
56.486256
 20
305.268897
 39
0
 62
9
  0
POINT
  8
default
  6
CONTINUOUS
 10
27.660747
 20
293.029965
 39
0
 62
9
  0
POINT
  8
default
  6
CONTINUOUS
 10
68.214737
 20
276.231952
 39
0
 62
9
  0
POINT
  8
default
  6
CONTINUOUS
 10
72.994450
 20
300.261191
 39
0
 62
9
  0
POINT
  8
default
  6
CONTINUOUS
 10
107.330346
 20
300.261191
 39
0
 62
9
  0
POINT
  8
default
  6
CONTINUOUS
 10
112.110059
 20
276.231952
 39
0
 62
9
  0
POINT
  8
default
  6
CONTINUOUS
 10
152.664049
 20
293.029965
 39
0
 62
9
  0
POINT
  8
default
  6
CONTINUOUS
 10
139.052579
 20
313.400970
 39
0
 62
9
  0
POINT
  8
default
  6
CONTINUOUS
 10
123.838540
 20
305.268897
 39
0
 62
9
  0
ARC
  8
default
  6
CONTINUOUS
 10
249.380606
 20
234.412007
 40
125.000000
 50
45.000000
 51
135.000000
 39
0
 62
0
  0
ARC
  8
default
  6
CONTINUOUS
 10
249.380606
 20
234.412007
 40
75.000000
 50
45.000000
 51
135.000000
 39
0
 62
0
  0
LINE
  8
default
  6
CONTINUOUS
 10
196.347597
 20
287.445016
 11
160.992258
 21
322.800355
 39
0
 62
0
  0
LINE
  8
default
  6
CONTINUOUS
 10
302.413615
 20
287.445016
 11
337.768954
 21
322.800355
 39
0
 62
0
  0
CIRCLE
  8
default
  6
CONTINUOUS
 10
311.882257
 20
327.952338
 40
2.500000
 39
0
 62
8
  0
CIRCLE
  8
default
  6
CONTINUOUS
 10
271.328267
 20
344.750351
 40
2.500000
 39
0
 62
8
  0
CIRCLE
  8
default
  6
CONTINUOUS
 10
227.432945
 20
344.750351
 40
2.500000
 39
0
 62
8
  0
CIRCLE
  8
default
  6
CONTINUOUS
 10
186.878955
 20
327.952338
 40
2.500000
 39
0
 62
8
  0
CIRCLE
  8
default
  6
CONTINUOUS
 10
283.056748
 20
315.713406
 40
2.500000
 39
0
 62
8
  0
CIRCLE
  8
default
  6
CONTINUOUS
 10
215.704464
 20
315.713406
 40
2.500000
 39
0
 62
8
  0
CIRCLE
  8
default
  6
CONTINUOUS
 10
298.270787
 20
307.581333
 40
6.000000
 39
0
 62
8
  0
CIRCLE
  8
default
  6
CONTINUOUS
 10
266.548554
 20
320.721112
 40
6.000000
 39
0
 62
8
  0
CIRCLE
  8
default
  6
CONTINUOUS
 10
232.212658
 20
320.721112
 40
6.000000
 39
0
 62
8
  0
CIRCLE
  8
default
  6
CONTINUOUS
 10
200.490425
 20
307.581333
 40
6.000000
 39
0
 62
8
  0
ARC
  8
default
  6
CONTINUOUS
 10
196.347597
 20
287.445016
 40
2.000000
 50
225.000000
 51
315.000000
 39
0
 62
9
  0
ARC
  8
default
  6
CONTINUOUS
 10
302.413615
 20
287.445016
 40
2.000000
 50
225.000000
 51
315.000000
 39
0
 62
9
  0
ARC
  8
default
  6
CONTINUOUS
 10
249.380606
 20
234.412007
 40
73.000000
 50
45.000000
 51
135.000000
 39
0
 62
9
  0
ARC
  8
default
  6
CONTINUOUS
 10
337.768954
 20
322.800355
 40
2.000000
 50
315.000000
 51
45.000000
 39
0
 62
9
  0
LINE
  8
default
  6
CONTINUOUS
 10
303.827828
 20
286.030802
 11
339.183167
 21
321.386141
 39
0
 62
9
  0
ARC
  8
default
  6
CONTINUOUS
 10
160.992258
 20
322.800355
 40
2.000000
 50
135.000000
 51
225.000000
 39
0
 62
9
  0
ARC
  8
default
  6
CONTINUOUS
 10
249.380606
 20
234.412007
 40
127.000000
 50
45.000000
 51
135.000000
 39
0
 62
9
  0
LINE
  8
default
  6
CONTINUOUS
 10
194.933384
 20
286.030802
 11
159.578045
 21
321.386141
 39
0
 62
9
  0
ARC
  8
default
  6
CONTINUOUS
 10
249.380606
 20
234.412007
 40
99.000000
 50
45.000000
 51
135.000000
 39
0
 62
10
  0
ARC
  8
default
  6
CONTINUOUS
 10
249.380606
 20
234.412007
 40
78.000000
 50
45.000000
 51
135.000000
 39
0
 62
2
  0
ARC
  8
default
  6
CONTINUOUS
 10
249.380606
 20
234.412007
 40
81.000000
 50
45.000000
 51
135.000000
 39
0
 62
2
  0
ARC
  8
default
  6
CONTINUOUS
 10
249.380606
 20
234.412007
 40
84.000000
 50
45.000000
 51
135.000000
 39
0
 62
2
  0
ARC
  8
default
  6
CONTINUOUS
 10
249.380606
 20
234.412007
 40
87.000000
 50
45.000000
 51
135.000000
 39
0
 62
2
  0
ARC
  8
default
  6
CONTINUOUS
 10
249.380606
 20
234.412007
 40
90.000000
 50
45.000000
 51
135.000000
 39
0
 62
2
  0
ARC
  8
default
  6
CONTINUOUS
 10
249.380606
 20
234.412007
 40
93.000000
 50
45.000000
 51
135.000000
 39
0
 62
2
  0
ARC
  8
default
  6
CONTINUOUS
 10
249.380606
 20
234.412007
 40
96.000000
 50
45.000000
 51
135.000000
 39
0
 62
2
  0
ARC
  8
default
  6
CONTINUOUS
 10
249.380606
 20
234.412007
 40
97.000000
 50
45.000000
 51
135.000000
 39
0
 62
2
  0
POINT
  8
default
  6
CONTINUOUS
 10
200.490425
 20
307.581333
 39
0
 62
9
  0
POINT
  8
default
  6
CONTINUOUS
 10
215.704464
 20
315.713406
 39
0
 62
9
  0
POINT
  8
default
  6
CONTINUOUS
 10
186.878955
 20
327.952338
 39
0
 62
9
  0
POINT
  8
default
  6
CONTINUOUS
 10
227.432945
 20
344.750351
 39
0
 62
9
  0
POINT
  8
default
  6
CONTINUOUS
 10
232.212658
 20
320.721112
 39
0
 62
9
  0
POINT
  8
default
  6
CONTINUOUS
 10
266.548554
 20
320.721112
 39
0
 62
9
  0
POINT
  8
default
  6
CONTINUOUS
 10
271.328267
 20
344.750351
 39
0
 62
9
  0
POINT
  8
default
  6
CONTINUOUS
 10
311.882257
 20
327.952338
 39
0
 62
9
  0
POINT
  8
default
  6
CONTINUOUS
 10
298.270787
 20
307.581333
 39
0
 62
9
  0
POINT
  8
default
  6
CONTINUOUS
 10
283.056748
 20
315.713406
 39
0
 62
9
  0
ARC
  8
default
  6
CONTINUOUS
 10
407.866563
 20
450.713951
 40
125.000000
 50
225.000000
 51
315.000000
 39
0
 62
0
  0
ARC
  8
default
  6
CONTINUOUS
 10
407.866563
 20
450.713951
 40
75.000000
 50
225.000000
 51
315.000000
 39
0
 62
0
  0
LINE
  8
default
  6
CONTINUOUS
 10
354.833554
 20
397.680942
 11
319.478215
 21
362.325603
 39
0
 62
0
  0
LINE
  8
default
  6
CONTINUOUS
 10
460.899572
 20
397.680942
 11
496.254911
 21
362.325603
 39
0
 62
0
  0
CIRCLE
  8
default
  6
CONTINUOUS
 10
470.368214
 20
357.173620
 40
2.500000
 39
0
 62
8
  0
CIRCLE
  8
default
  6
CONTINUOUS
 10
429.814224
 20
340.375607
 40
2.500000
 39
0
 62
8
  0
CIRCLE
  8
default
  6
CONTINUOUS
 10
385.918902
 20
340.375607
 40
2.500000
 39
0
 62
8
  0
CIRCLE
  8
default
  6
CONTINUOUS
 10
345.364912
 20
357.173620
 40
2.500000
 39
0
 62
8
  0
CIRCLE
  8
default
  6
CONTINUOUS
 10
441.542705
 20
369.412552
 40
2.500000
 39
0
 62
8
  0
CIRCLE
  8
default
  6
CONTINUOUS
 10
374.190421
 20
369.412552
 40
2.500000
 39
0
 62
8
  0
CIRCLE
  8
default
  6
CONTINUOUS
 10
456.756744
 20
377.544625
 40
6.000000
 39
0
 62
8
  0
CIRCLE
  8
default
  6
CONTINUOUS
 10
425.034511
 20
364.404846
 40
6.000000
 39
0
 62
8
  0
CIRCLE
  8
default
  6
CONTINUOUS
 10
390.698615
 20
364.404846
 40
6.000000
 39
0
 62
8
  0
CIRCLE
  8
default
  6
CONTINUOUS
 10
358.976382
 20
377.544625
 40
6.000000
 39
0
 62
8
  0
ARC
  8
default
  6
CONTINUOUS
 10
354.833554
 20
397.680942
 40
2.000000
 50
45.000000
 51
135.000000
 39
0
 62
9
  0
ARC
  8
default
  6
CONTINUOUS
 10
460.899572
 20
397.680942
 40
2.000000
 50
45.000000
 51
135.000000
 39
0
 62
9
  0
ARC
  8
default
  6
CONTINUOUS
 10
407.866563
 20
450.713951
 40
73.000000
 50
225.000000
 51
315.000000
 39
0
 62
9
  0
ARC
  8
default
  6
CONTINUOUS
 10
496.254911
 20
362.325603
 40
2.000000
 50
315.000000
 51
45.000000
 39
0
 62
9
  0
LINE
  8
default
  6
CONTINUOUS
 10
462.313785
 20
399.095156
 11
497.669124
 21
363.739817
 39
0
 62
9
  0
ARC
  8
default
  6
CONTINUOUS
 10
319.478215
 20
362.325603
 40
2.000000
 50
135.000000
 51
225.000000
 39
0
 62
9
  0
ARC
  8
default
  6
CONTINUOUS
 10
407.866563
 20
450.713951
 40
127.000000
 50
225.000000
 51
315.000000
 39
0
 62
9
  0
LINE
  8
default
  6
CONTINUOUS
 10
353.419341
 20
399.095156
 11
318.064002
 21
363.739817
 39
0
 62
9
  0
ARC
  8
default
  6
CONTINUOUS
 10
407.866563
 20
450.713951
 40
99.000000
 50
225.000000
 51
315.000000
 39
0
 62
10
  0
ARC
  8
default
  6
CONTINUOUS
 10
407.866563
 20
450.713951
 40
78.000000
 50
225.000000
 51
315.000000
 39
0
 62
2
  0
ARC
  8
default
  6
CONTINUOUS
 10
407.866563
 20
450.713951
 40
81.000000
 50
225.000000
 51
315.000000
 39
0
 62
2
  0
ARC
  8
default
  6
CONTINUOUS
 10
407.866563
 20
450.713951
 40
84.000000
 50
225.000000
 51
315.000000
 39
0
 62
2
  0
ARC
  8
default
  6
CONTINUOUS
 10
407.866563
 20
450.713951
 40
87.000000
 50
225.000000
 51
315.000000
 39
0
 62
2
  0
ARC
  8
default
  6
CONTINUOUS
 10
407.866563
 20
450.713951
 40
90.000000
 50
225.000000
 51
315.000000
 39
0
 62
2
  0
ARC
  8
default
  6
CONTINUOUS
 10
407.866563
 20
450.713951
 40
93.000000
 50
225.000000
 51
315.000000
 39
0
 62
2
  0
ARC
  8
default
  6
CONTINUOUS
 10
407.866563
 20
450.713951
 40
96.000000
 50
225.000000
 51
315.000000
 39
0
 62
2
  0
ARC
  8
default
  6
CONTINUOUS
 10
407.866563
 20
450.713951
 40
97.000000
 50
225.000000
 51
315.000000
 39
0
 62
2
  0
POINT
  8
default
  6
CONTINUOUS
 10
358.976382
 20
377.544625
 39
0
 62
9
  0
POINT
  8
default
  6
CONTINUOUS
 10
374.190421
 20
369.412552
 39
0
 62
9
  0
POINT
  8
default
  6
CONTINUOUS
 10
345.364912
 20
357.173620
 39
0
 62
9
  0
POINT
  8
default
  6
CONTINUOUS
 10
385.918902
 20
340.375607
 39
0
 62
9
  0
POINT
  8
default
  6
CONTINUOUS
 10
390.698615
 20
364.404846
 39
0
 62
9
  0
POINT
  8
default
  6
CONTINUOUS
 10
425.034511
 20
364.404846
 39
0
 62
9
  0
POINT
  8
default
  6
CONTINUOUS
 10
429.814224
 20
340.375607
 39
0
 62
9
  0
POINT
  8
default
  6
CONTINUOUS
 10
470.368214
 20
357.173620
 39
0
 62
9
  0
POINT
  8
default
  6
CONTINUOUS
 10
456.756744
 20
377.544625
 39
0
 62
9
  0
POINT
  8
default
  6
CONTINUOUS
 10
441.542705
 20
369.412552
 39
0
 62
9
  0
ARC
  8
default
  6
CONTINUOUS
 10
90.162398
 20
451.570296
 40
125.000000
 50
225.000000
 51
315.000000
 39
0
 62
0
  0
ARC
  8
default
  6
CONTINUOUS
 10
90.162398
 20
451.570296
 40
75.000000
 50
225.000000
 51
315.000000
 39
0
 62
0
  0
LINE
  8
default
  6
CONTINUOUS
 10
37.129389
 20
398.537287
 11
1.774050
 21
363.181948
 39
0
 62
0
  0
LINE
  8
default
  6
CONTINUOUS
 10
143.195407
 20
398.537287
 11
178.550746
 21
363.181948
 39
0
 62
0
  0
CIRCLE
  8
default
  6
CONTINUOUS
 10
152.664049
 20
358.029965
 40
2.500000
 39
0
 62
8
  0
CIRCLE
  8
default
  6
CONTINUOUS
 10
112.110059
 20
341.231952
 40
2.500000
 39
0
 62
8
  0
CIRCLE
  8
default
  6
CONTINUOUS
 10
68.214737
 20
341.231952
 40
2.500000
 39
0
 62
8
  0
CIRCLE
  8
default
  6
CONTINUOUS
 10
27.660747
 20
358.029965
 40
2.500000
 39
0
 62
8
  0
CIRCLE
  8
default
  6
CONTINUOUS
 10
123.838540
 20
370.268897
 40
2.500000
 39
0
 62
8
  0
CIRCLE
  8
default
  6
CONTINUOUS
 10
56.486256
 20
370.268897
 40
2.500000
 39
0
 62
8
  0
CIRCLE
  8
default
  6
CONTINUOUS
 10
139.052579
 20
378.400970
 40
6.000000
 39
0
 62
8
  0
CIRCLE
  8
default
  6
CONTINUOUS
 10
107.330346
 20
365.261191
 40
6.000000
 39
0
 62
8
  0
CIRCLE
  8
default
  6
CONTINUOUS
 10
72.994450
 20
365.261191
 40
6.000000
 39
0
 62
8
  0
CIRCLE
  8
default
  6
CONTINUOUS
 10
41.272217
 20
378.400970
 40
6.000000
 39
0
 62
8
  0
ARC
  8
default
  6
CONTINUOUS
 10
37.129389
 20
398.537287
 40
2.000000
 50
45.000000
 51
135.000000
 39
0
 62
9
  0
ARC
  8
default
  6
CONTINUOUS
 10
143.195407
 20
398.537287
 40
2.000000
 50
45.000000
 51
135.000000
 39
0
 62
9
  0
ARC
  8
default
  6
CONTINUOUS
 10
90.162398
 20
451.570296
 40
73.000000
 50
225.000000
 51
315.000000
 39
0
 62
9
  0
ARC
  8
default
  6
CONTINUOUS
 10
178.550746
 20
363.181948
 40
2.000000
 50
315.000000
 51
45.000000
 39
0
 62
9
  0
LINE
  8
default
  6
CONTINUOUS
 10
144.609620
 20
399.951501
 11
179.964959
 21
364.596162
 39
0
 62
9
  0
ARC
  8
default
  6
CONTINUOUS
 10
1.774050
 20
363.181948
 40
2.000000
 50
135.000000
 51
225.000000
 39
0
 62
9
  0
ARC
  8
default
  6
CONTINUOUS
 10
90.162398
 20
451.570296
 40
127.000000
 50
225.000000
 51
315.000000
 39
0
 62
9
  0
LINE
  8
default
  6
CONTINUOUS
 10
35.715176
 20
399.951501
 11
0.359837
 21
364.596162
 39
0
 62
9
  0
ARC
  8
default
  6
CONTINUOUS
 10
90.162398
 20
451.570296
 40
99.000000
 50
225.000000
 51
315.000000
 39
0
 62
10
  0
ARC
  8
default
  6
CONTINUOUS
 10
90.162398
 20
451.570296
 40
78.000000
 50
225.000000
 51
315.000000
 39
0
 62
2
  0
ARC
  8
default
  6
CONTINUOUS
 10
90.162398
 20
451.570296
 40
81.000000
 50
225.000000
 51
315.000000
 39
0
 62
2
  0
ARC
  8
default
  6
CONTINUOUS
 10
90.162398
 20
451.570296
 40
84.000000
 50
225.000000
 51
315.000000
 39
0
 62
2
  0
ARC
  8
default
  6
CONTINUOUS
 10
90.162398
 20
451.570296
 40
87.000000
 50
225.000000
 51
315.000000
 39
0
 62
2
  0
ARC
  8
default
  6
CONTINUOUS
 10
90.162398
 20
451.570296
 40
90.000000
 50
225.000000
 51
315.000000
 39
0
 62
2
  0
ARC
  8
default
  6
CONTINUOUS
 10
90.162398
 20
451.570296
 40
93.000000
 50
225.000000
 51
315.000000
 39
0
 62
2
  0
ARC
  8
default
  6
CONTINUOUS
 10
90.162398
 20
451.570296
 40
96.000000
 50
225.000000
 51
315.000000
 39
0
 62
2
  0
ARC
  8
default
  6
CONTINUOUS
 10
90.162398
 20
451.570296
 40
97.000000
 50
225.000000
 51
315.000000
 39
0
 62
2
  0
POINT
  8
default
  6
CONTINUOUS
 10
41.272217
 20
378.400970
 39
0
 62
9
  0
POINT
  8
default
  6
CONTINUOUS
 10
56.486256
 20
370.268897
 39
0
 62
9
  0
POINT
  8
default
  6
CONTINUOUS
 10
27.660747
 20
358.029965
 39
0
 62
9
  0
POINT
  8
default
  6
CONTINUOUS
 10
68.214737
 20
341.231952
 39
0
 62
9
  0
POINT
  8
default
  6
CONTINUOUS
 10
72.994450
 20
365.261191
 39
0
 62
9
  0
POINT
  8
default
  6
CONTINUOUS
 10
107.330346
 20
365.261191
 39
0
 62
9
  0
POINT
  8
default
  6
CONTINUOUS
 10
112.110059
 20
341.231952
 39
0
 62
9
  0
POINT
  8
default
  6
CONTINUOUS
 10
152.664049
 20
358.029965
 39
0
 62
9
  0
POINT
  8
default
  6
CONTINUOUS
 10
139.052579
 20
378.400970
 39
0
 62
9
  0
POINT
  8
default
  6
CONTINUOUS
 10
123.838540
 20
370.268897
 39
0
 62
9
  0
ARC
  8
default
  6
CONTINUOUS
 10
249.380606
 20
299.412007
 40
125.000000
 50
45.000000
 51
135.000000
 39
0
 62
0
  0
ARC
  8
default
  6
CONTINUOUS
 10
249.380606
 20
299.412007
 40
75.000000
 50
45.000000
 51
135.000000
 39
0
 62
0
  0
LINE
  8
default
  6
CONTINUOUS
 10
196.347597
 20
352.445016
 11
160.992258
 21
387.800355
 39
0
 62
0
  0
LINE
  8
default
  6
CONTINUOUS
 10
302.413615
 20
352.445016
 11
337.768954
 21
387.800355
 39
0
 62
0
  0
CIRCLE
  8
default
  6
CONTINUOUS
 10
311.882257
 20
392.952338
 40
2.500000
 39
0
 62
8
  0
CIRCLE
  8
default
  6
CONTINUOUS
 10
271.328267
 20
409.750351
 40
2.500000
 39
0
 62
8
  0
CIRCLE
  8
default
  6
CONTINUOUS
 10
227.432945
 20
409.750351
 40
2.500000
 39
0
 62
8
  0
CIRCLE
  8
default
  6
CONTINUOUS
 10
186.878955
 20
392.952338
 40
2.500000
 39
0
 62
8
  0
CIRCLE
  8
default
  6
CONTINUOUS
 10
283.056748
 20
380.713406
 40
2.500000
 39
0
 62
8
  0
CIRCLE
  8
default
  6
CONTINUOUS
 10
215.704464
 20
380.713406
 40
2.500000
 39
0
 62
8
  0
CIRCLE
  8
default
  6
CONTINUOUS
 10
298.270787
 20
372.581333
 40
6.000000
 39
0
 62
8
  0
CIRCLE
  8
default
  6
CONTINUOUS
 10
266.548554
 20
385.721112
 40
6.000000
 39
0
 62
8
  0
CIRCLE
  8
default
  6
CONTINUOUS
 10
232.212658
 20
385.721112
 40
6.000000
 39
0
 62
8
  0
CIRCLE
  8
default
  6
CONTINUOUS
 10
200.490425
 20
372.581333
 40
6.000000
 39
0
 62
8
  0
ARC
  8
default
  6
CONTINUOUS
 10
196.347597
 20
352.445016
 40
2.000000
 50
225.000000
 51
315.000000
 39
0
 62
9
  0
ARC
  8
default
  6
CONTINUOUS
 10
302.413615
 20
352.445016
 40
2.000000
 50
225.000000
 51
315.000000
 39
0
 62
9
  0
ARC
  8
default
  6
CONTINUOUS
 10
249.380606
 20
299.412007
 40
73.000000
 50
45.000000
 51
135.000000
 39
0
 62
9
  0
ARC
  8
default
  6
CONTINUOUS
 10
337.768954
 20
387.800355
 40
2.000000
 50
315.000000
 51
45.000000
 39
0
 62
9
  0
LINE
  8
default
  6
CONTINUOUS
 10
303.827828
 20
351.030802
 11
339.183167
 21
386.386141
 39
0
 62
9
  0
ARC
  8
default
  6
CONTINUOUS
 10
160.992258
 20
387.800355
 40
2.000000
 50
135.000000
 51
225.000000
 39
0
 62
9
  0
ARC
  8
default
  6
CONTINUOUS
 10
249.380606
 20
299.412007
 40
127.000000
 50
45.000000
 51
135.000000
 39
0
 62
9
  0
LINE
  8
default
  6
CONTINUOUS
 10
194.933384
 20
351.030802
 11
159.578045
 21
386.386141
 39
0
 62
9
  0
ARC
  8
default
  6
CONTINUOUS
 10
249.380606
 20
299.412007
 40
99.000000
 50
45.000000
 51
135.000000
 39
0
 62
10
  0
ARC
  8
default
  6
CONTINUOUS
 10
249.380606
 20
299.412007
 40
78.000000
 50
45.000000
 51
135.000000
 39
0
 62
2
  0
ARC
  8
default
  6
CONTINUOUS
 10
249.380606
 20
299.412007
 40
81.000000
 50
45.000000
 51
135.000000
 39
0
 62
2
  0
ARC
  8
default
  6
CONTINUOUS
 10
249.380606
 20
299.412007
 40
84.000000
 50
45.000000
 51
135.000000
 39
0
 62
2
  0
ARC
  8
default
  6
CONTINUOUS
 10
249.380606
 20
299.412007
 40
87.000000
 50
45.000000
 51
135.000000
 39
0
 62
2
  0
ARC
  8
default
  6
CONTINUOUS
 10
249.380606
 20
299.412007
 40
90.000000
 50
45.000000
 51
135.000000
 39
0
 62
2
  0
ARC
  8
default
  6
CONTINUOUS
 10
249.380606
 20
299.412007
 40
93.000000
 50
45.000000
 51
135.000000
 39
0
 62
2
  0
ARC
  8
default
  6
CONTINUOUS
 10
249.380606
 20
299.412007
 40
96.000000
 50
45.000000
 51
135.000000
 39
0
 62
2
  0
ARC
  8
default
  6
CONTINUOUS
 10
249.380606
 20
299.412007
 40
97.000000
 50
45.000000
 51
135.000000
 39
0
 62
2
  0
POINT
  8
default
  6
CONTINUOUS
 10
200.490425
 20
372.581333
 39
0
 62
9
  0
POINT
  8
default
  6
CONTINUOUS
 10
215.704464
 20
380.713406
 39
0
 62
9
  0
POINT
  8
default
  6
CONTINUOUS
 10
186.878955
 20
392.952338
 39
0
 62
9
  0
POINT
  8
default
  6
CONTINUOUS
 10
227.432945
 20
409.750351
 39
0
 62
9
  0
POINT
  8
default
  6
CONTINUOUS
 10
232.212658
 20
385.721112
 39
0
 62
9
  0
POINT
  8
default
  6
CONTINUOUS
 10
266.548554
 20
385.721112
 39
0
 62
9
  0
POINT
  8
default
  6
CONTINUOUS
 10
271.328267
 20
409.750351
 39
0
 62
9
  0
POINT
  8
default
  6
CONTINUOUS
 10
311.882257
 20
392.952338
 39
0
 62
9
  0
POINT
  8
default
  6
CONTINUOUS
 10
298.270787
 20
372.581333
 39
0
 62
9
  0
POINT
  8
default
  6
CONTINUOUS
 10
283.056748
 20
380.713406
 39
0
 62
9
  0
ARC
  8
default
  6
CONTINUOUS
 10
407.866563
 20
515.713951
 40
125.000000
 50
225.000000
 51
315.000000
 39
0
 62
0
  0
ARC
  8
default
  6
CONTINUOUS
 10
407.866563
 20
515.713951
 40
75.000000
 50
225.000000
 51
315.000000
 39
0
 62
0
  0
LINE
  8
default
  6
CONTINUOUS
 10
354.833554
 20
462.680942
 11
319.478215
 21
427.325603
 39
0
 62
0
  0
LINE
  8
default
  6
CONTINUOUS
 10
460.899572
 20
462.680942
 11
496.254911
 21
427.325603
 39
0
 62
0
  0
CIRCLE
  8
default
  6
CONTINUOUS
 10
470.368214
 20
422.173620
 40
2.500000
 39
0
 62
8
  0
CIRCLE
  8
default
  6
CONTINUOUS
 10
429.814224
 20
405.375607
 40
2.500000
 39
0
 62
8
  0
CIRCLE
  8
default
  6
CONTINUOUS
 10
385.918902
 20
405.375607
 40
2.500000
 39
0
 62
8
  0
CIRCLE
  8
default
  6
CONTINUOUS
 10
345.364912
 20
422.173620
 40
2.500000
 39
0
 62
8
  0
CIRCLE
  8
default
  6
CONTINUOUS
 10
441.542705
 20
434.412552
 40
2.500000
 39
0
 62
8
  0
CIRCLE
  8
default
  6
CONTINUOUS
 10
374.190421
 20
434.412552
 40
2.500000
 39
0
 62
8
  0
CIRCLE
  8
default
  6
CONTINUOUS
 10
456.756744
 20
442.544625
 40
6.000000
 39
0
 62
8
  0
CIRCLE
  8
default
  6
CONTINUOUS
 10
425.034511
 20
429.404846
 40
6.000000
 39
0
 62
8
  0
CIRCLE
  8
default
  6
CONTINUOUS
 10
390.698615
 20
429.404846
 40
6.000000
 39
0
 62
8
  0
CIRCLE
  8
default
  6
CONTINUOUS
 10
358.976382
 20
442.544625
 40
6.000000
 39
0
 62
8
  0
ARC
  8
default
  6
CONTINUOUS
 10
354.833554
 20
462.680942
 40
2.000000
 50
45.000000
 51
135.000000
 39
0
 62
9
  0
ARC
  8
default
  6
CONTINUOUS
 10
460.899572
 20
462.680942
 40
2.000000
 50
45.000000
 51
135.000000
 39
0
 62
9
  0
ARC
  8
default
  6
CONTINUOUS
 10
407.866563
 20
515.713951
 40
73.000000
 50
225.000000
 51
315.000000
 39
0
 62
9
  0
ARC
  8
default
  6
CONTINUOUS
 10
496.254911
 20
427.325603
 40
2.000000
 50
315.000000
 51
45.000000
 39
0
 62
9
  0
LINE
  8
default
  6
CONTINUOUS
 10
462.313785
 20
464.095156
 11
497.669124
 21
428.739817
 39
0
 62
9
  0
ARC
  8
default
  6
CONTINUOUS
 10
319.478215
 20
427.325603
 40
2.000000
 50
135.000000
 51
225.000000
 39
0
 62
9
  0
ARC
  8
default
  6
CONTINUOUS
 10
407.866563
 20
515.713951
 40
127.000000
 50
225.000000
 51
315.000000
 39
0
 62
9
  0
LINE
  8
default
  6
CONTINUOUS
 10
353.419341
 20
464.095156
 11
318.064002
 21
428.739817
 39
0
 62
9
  0
ARC
  8
default
  6
CONTINUOUS
 10
407.866563
 20
515.713951
 40
99.000000
 50
225.000000
 51
315.000000
 39
0
 62
10
  0
ARC
  8
default
  6
CONTINUOUS
 10
407.866563
 20
515.713951
 40
78.000000
 50
225.000000
 51
315.000000
 39
0
 62
2
  0
ARC
  8
default
  6
CONTINUOUS
 10
407.866563
 20
515.713951
 40
81.000000
 50
225.000000
 51
315.000000
 39
0
 62
2
  0
ARC
  8
default
  6
CONTINUOUS
 10
407.866563
 20
515.713951
 40
84.000000
 50
225.000000
 51
315.000000
 39
0
 62
2
  0
ARC
  8
default
  6
CONTINUOUS
 10
407.866563
 20
515.713951
 40
87.000000
 50
225.000000
 51
315.000000
 39
0
 62
2
  0
ARC
  8
default
  6
CONTINUOUS
 10
407.866563
 20
515.713951
 40
90.000000
 50
225.000000
 51
315.000000
 39
0
 62
2
  0
ARC
  8
default
  6
CONTINUOUS
 10
407.866563
 20
515.713951
 40
93.000000
 50
225.000000
 51
315.000000
 39
0
 62
2
  0
ARC
  8
default
  6
CONTINUOUS
 10
407.866563
 20
515.713951
 40
96.000000
 50
225.000000
 51
315.000000
 39
0
 62
2
  0
ARC
  8
default
  6
CONTINUOUS
 10
407.866563
 20
515.713951
 40
97.000000
 50
225.000000
 51
315.000000
 39
0
 62
2
  0
POINT
  8
default
  6
CONTINUOUS
 10
358.976382
 20
442.544625
 39
0
 62
9
  0
POINT
  8
default
  6
CONTINUOUS
 10
374.190421
 20
434.412552
 39
0
 62
9
  0
POINT
  8
default
  6
CONTINUOUS
 10
345.364912
 20
422.173620
 39
0
 62
9
  0
POINT
  8
default
  6
CONTINUOUS
 10
385.918902
 20
405.375607
 39
0
 62
9
  0
POINT
  8
default
  6
CONTINUOUS
 10
390.698615
 20
429.404846
 39
0
 62
9
  0
POINT
  8
default
  6
CONTINUOUS
 10
425.034511
 20
429.404846
 39
0
 62
9
  0
POINT
  8
default
  6
CONTINUOUS
 10
429.814224
 20
405.375607
 39
0
 62
9
  0
POINT
  8
default
  6
CONTINUOUS
 10
470.368214
 20
422.173620
 39
0
 62
9
  0
POINT
  8
default
  6
CONTINUOUS
 10
456.756744
 20
442.544625
 39
0
 62
9
  0
POINT
  8
default
  6
CONTINUOUS
 10
441.542705
 20
434.412552
 39
0
 62
9
  0
ARC
  8
default
  6
CONTINUOUS
 10
90.162398
 20
516.570296
 40
125.000000
 50
225.000000
 51
315.000000
 39
0
 62
0
  0
ARC
  8
default
  6
CONTINUOUS
 10
90.162398
 20
516.570296
 40
75.000000
 50
225.000000
 51
315.000000
 39
0
 62
0
  0
LINE
  8
default
  6
CONTINUOUS
 10
37.129389
 20
463.537287
 11
1.774050
 21
428.181948
 39
0
 62
0
  0
LINE
  8
default
  6
CONTINUOUS
 10
143.195407
 20
463.537287
 11
178.550746
 21
428.181948
 39
0
 62
0
  0
CIRCLE
  8
default
  6
CONTINUOUS
 10
152.664049
 20
423.029965
 40
2.500000
 39
0
 62
8
  0
CIRCLE
  8
default
  6
CONTINUOUS
 10
112.110059
 20
406.231952
 40
2.500000
 39
0
 62
8
  0
CIRCLE
  8
default
  6
CONTINUOUS
 10
68.214737
 20
406.231952
 40
2.500000
 39
0
 62
8
  0
CIRCLE
  8
default
  6
CONTINUOUS
 10
27.660747
 20
423.029965
 40
2.500000
 39
0
 62
8
  0
CIRCLE
  8
default
  6
CONTINUOUS
 10
123.838540
 20
435.268897
 40
2.500000
 39
0
 62
8
  0
CIRCLE
  8
default
  6
CONTINUOUS
 10
56.486256
 20
435.268897
 40
2.500000
 39
0
 62
8
  0
CIRCLE
  8
default
  6
CONTINUOUS
 10
139.052579
 20
443.400970
 40
6.000000
 39
0
 62
8
  0
CIRCLE
  8
default
  6
CONTINUOUS
 10
107.330346
 20
430.261191
 40
6.000000
 39
0
 62
8
  0
CIRCLE
  8
default
  6
CONTINUOUS
 10
72.994450
 20
430.261191
 40
6.000000
 39
0
 62
8
  0
CIRCLE
  8
default
  6
CONTINUOUS
 10
41.272217
 20
443.400970
 40
6.000000
 39
0
 62
8
  0
ARC
  8
default
  6
CONTINUOUS
 10
37.129389
 20
463.537287
 40
2.000000
 50
45.000000
 51
135.000000
 39
0
 62
9
  0
ARC
  8
default
  6
CONTINUOUS
 10
143.195407
 20
463.537287
 40
2.000000
 50
45.000000
 51
135.000000
 39
0
 62
9
  0
ARC
  8
default
  6
CONTINUOUS
 10
90.162398
 20
516.570296
 40
73.000000
 50
225.000000
 51
315.000000
 39
0
 62
9
  0
ARC
  8
default
  6
CONTINUOUS
 10
178.550746
 20
428.181948
 40
2.000000
 50
315.000000
 51
45.000000
 39
0
 62
9
  0
LINE
  8
default
  6
CONTINUOUS
 10
144.609620
 20
464.951501
 11
179.964959
 21
429.596162
 39
0
 62
9
  0
ARC
  8
default
  6
CONTINUOUS
 10
1.774050
 20
428.181948
 40
2.000000
 50
135.000000
 51
225.000000
 39
0
 62
9
  0
ARC
  8
default
  6
CONTINUOUS
 10
90.162398
 20
516.570296
 40
127.000000
 50
225.000000
 51
315.000000
 39
0
 62
9
  0
LINE
  8
default
  6
CONTINUOUS
 10
35.715176
 20
464.951501
 11
0.359837
 21
429.596162
 39
0
 62
9
  0
ARC
  8
default
  6
CONTINUOUS
 10
90.162398
 20
516.570296
 40
99.000000
 50
225.000000
 51
315.000000
 39
0
 62
10
  0
ARC
  8
default
  6
CONTINUOUS
 10
90.162398
 20
516.570296
 40
78.000000
 50
225.000000
 51
315.000000
 39
0
 62
2
  0
ARC
  8
default
  6
CONTINUOUS
 10
90.162398
 20
516.570296
 40
81.000000
 50
225.000000
 51
315.000000
 39
0
 62
2
  0
ARC
  8
default
  6
CONTINUOUS
 10
90.162398
 20
516.570296
 40
84.000000
 50
225.000000
 51
315.000000
 39
0
 62
2
  0
ARC
  8
default
  6
CONTINUOUS
 10
90.162398
 20
516.570296
 40
87.000000
 50
225.000000
 51
315.000000
 39
0
 62
2
  0
ARC
  8
default
  6
CONTINUOUS
 10
90.162398
 20
516.570296
 40
90.000000
 50
225.000000
 51
315.000000
 39
0
 62
2
  0
ARC
  8
default
  6
CONTINUOUS
 10
90.162398
 20
516.570296
 40
93.000000
 50
225.000000
 51
315.000000
 39
0
 62
2
  0
ARC
  8
default
  6
CONTINUOUS
 10
90.162398
 20
516.570296
 40
96.000000
 50
225.000000
 51
315.000000
 39
0
 62
2
  0
ARC
  8
default
  6
CONTINUOUS
 10
90.162398
 20
516.570296
 40
97.000000
 50
225.000000
 51
315.000000
 39
0
 62
2
  0
POINT
  8
default
  6
CONTINUOUS
 10
41.272217
 20
443.400970
 39
0
 62
9
  0
POINT
  8
default
  6
CONTINUOUS
 10
56.486256
 20
435.268897
 39
0
 62
9
  0
POINT
  8
default
  6
CONTINUOUS
 10
27.660747
 20
423.029965
 39
0
 62
9
  0
POINT
  8
default
  6
CONTINUOUS
 10
68.214737
 20
406.231952
 39
0
 62
9
  0
POINT
  8
default
  6
CONTINUOUS
 10
72.994450
 20
430.261191
 39
0
 62
9
  0
POINT
  8
default
  6
CONTINUOUS
 10
107.330346
 20
430.261191
 39
0
 62
9
  0
POINT
  8
default
  6
CONTINUOUS
 10
112.110059
 20
406.231952
 39
0
 62
9
  0
POINT
  8
default
  6
CONTINUOUS
 10
152.664049
 20
423.029965
 39
0
 62
9
  0
POINT
  8
default
  6
CONTINUOUS
 10
139.052579
 20
443.400970
 39
0
 62
9
  0
POINT
  8
default
  6
CONTINUOUS
 10
123.838540
 20
435.268897
 39
0
 62
9
  0
ARC
  8
default
  6
CONTINUOUS
 10
249.380606
 20
364.412007
 40
125.000000
 50
45.000000
 51
135.000000
 39
0
 62
0
  0
ARC
  8
default
  6
CONTINUOUS
 10
249.380606
 20
364.412007
 40
75.000000
 50
45.000000
 51
135.000000
 39
0
 62
0
  0
LINE
  8
default
  6
CONTINUOUS
 10
196.347597
 20
417.445016
 11
160.992258
 21
452.800355
 39
0
 62
0
  0
LINE
  8
default
  6
CONTINUOUS
 10
302.413615
 20
417.445016
 11
337.768954
 21
452.800355
 39
0
 62
0
  0
CIRCLE
  8
default
  6
CONTINUOUS
 10
311.882257
 20
457.952338
 40
2.500000
 39
0
 62
8
  0
CIRCLE
  8
default
  6
CONTINUOUS
 10
271.328267
 20
474.750351
 40
2.500000
 39
0
 62
8
  0
CIRCLE
  8
default
  6
CONTINUOUS
 10
227.432945
 20
474.750351
 40
2.500000
 39
0
 62
8
  0
CIRCLE
  8
default
  6
CONTINUOUS
 10
186.878955
 20
457.952338
 40
2.500000
 39
0
 62
8
  0
CIRCLE
  8
default
  6
CONTINUOUS
 10
283.056748
 20
445.713406
 40
2.500000
 39
0
 62
8
  0
CIRCLE
  8
default
  6
CONTINUOUS
 10
215.704464
 20
445.713406
 40
2.500000
 39
0
 62
8
  0
CIRCLE
  8
default
  6
CONTINUOUS
 10
298.270787
 20
437.581333
 40
6.000000
 39
0
 62
8
  0
CIRCLE
  8
default
  6
CONTINUOUS
 10
266.548554
 20
450.721112
 40
6.000000
 39
0
 62
8
  0
CIRCLE
  8
default
  6
CONTINUOUS
 10
232.212658
 20
450.721112
 40
6.000000
 39
0
 62
8
  0
CIRCLE
  8
default
  6
CONTINUOUS
 10
200.490425
 20
437.581333
 40
6.000000
 39
0
 62
8
  0
ARC
  8
default
  6
CONTINUOUS
 10
196.347597
 20
417.445016
 40
2.000000
 50
225.000000
 51
315.000000
 39
0
 62
9
  0
ARC
  8
default
  6
CONTINUOUS
 10
302.413615
 20
417.445016
 40
2.000000
 50
225.000000
 51
315.000000
 39
0
 62
9
  0
ARC
  8
default
  6
CONTINUOUS
 10
249.380606
 20
364.412007
 40
73.000000
 50
45.000000
 51
135.000000
 39
0
 62
9
  0
ARC
  8
default
  6
CONTINUOUS
 10
337.768954
 20
452.800355
 40
2.000000
 50
315.000000
 51
45.000000
 39
0
 62
9
  0
LINE
  8
default
  6
CONTINUOUS
 10
303.827828
 20
416.030802
 11
339.183167
 21
451.386141
 39
0
 62
9
  0
ARC
  8
default
  6
CONTINUOUS
 10
160.992258
 20
452.800355
 40
2.000000
 50
135.000000
 51
225.000000
 39
0
 62
9
  0
ARC
  8
default
  6
CONTINUOUS
 10
249.380606
 20
364.412007
 40
127.000000
 50
45.000000
 51
135.000000
 39
0
 62
9
  0
LINE
  8
default
  6
CONTINUOUS
 10
194.933384
 20
416.030802
 11
159.578045
 21
451.386141
 39
0
 62
9
  0
ARC
  8
default
  6
CONTINUOUS
 10
249.380606
 20
364.412007
 40
99.000000
 50
45.000000
 51
135.000000
 39
0
 62
10
  0
ARC
  8
default
  6
CONTINUOUS
 10
249.380606
 20
364.412007
 40
78.000000
 50
45.000000
 51
135.000000
 39
0
 62
2
  0
ARC
  8
default
  6
CONTINUOUS
 10
249.380606
 20
364.412007
 40
81.000000
 50
45.000000
 51
135.000000
 39
0
 62
2
  0
ARC
  8
default
  6
CONTINUOUS
 10
249.380606
 20
364.412007
 40
84.000000
 50
45.000000
 51
135.000000
 39
0
 62
2
  0
ARC
  8
default
  6
CONTINUOUS
 10
249.380606
 20
364.412007
 40
87.000000
 50
45.000000
 51
135.000000
 39
0
 62
2
  0
ARC
  8
default
  6
CONTINUOUS
 10
249.380606
 20
364.412007
 40
90.000000
 50
45.000000
 51
135.000000
 39
0
 62
2
  0
ARC
  8
default
  6
CONTINUOUS
 10
249.380606
 20
364.412007
 40
93.000000
 50
45.000000
 51
135.000000
 39
0
 62
2
  0
ARC
  8
default
  6
CONTINUOUS
 10
249.380606
 20
364.412007
 40
96.000000
 50
45.000000
 51
135.000000
 39
0
 62
2
  0
ARC
  8
default
  6
CONTINUOUS
 10
249.380606
 20
364.412007
 40
97.000000
 50
45.000000
 51
135.000000
 39
0
 62
2
  0
POINT
  8
default
  6
CONTINUOUS
 10
200.490425
 20
437.581333
 39
0
 62
9
  0
POINT
  8
default
  6
CONTINUOUS
 10
215.704464
 20
445.713406
 39
0
 62
9
  0
POINT
  8
default
  6
CONTINUOUS
 10
186.878955
 20
457.952338
 39
0
 62
9
  0
POINT
  8
default
  6
CONTINUOUS
 10
227.432945
 20
474.750351
 39
0
 62
9
  0
POINT
  8
default
  6
CONTINUOUS
 10
232.212658
 20
450.721112
 39
0
 62
9
  0
POINT
  8
default
  6
CONTINUOUS
 10
266.548554
 20
450.721112
 39
0
 62
9
  0
POINT
  8
default
  6
CONTINUOUS
 10
271.328267
 20
474.750351
 39
0
 62
9
  0
POINT
  8
default
  6
CONTINUOUS
 10
311.882257
 20
457.952338
 39
0
 62
9
  0
POINT
  8
default
  6
CONTINUOUS
 10
298.270787
 20
437.581333
 39
0
 62
9
  0
POINT
  8
default
  6
CONTINUOUS
 10
283.056748
 20
445.713406
 39
0
 62
9
  0
ARC
  8
default
  6
CONTINUOUS
 10
407.866563
 20
580.713951
 40
125.000000
 50
225.000000
 51
315.000000
 39
0
 62
0
  0
ARC
  8
default
  6
CONTINUOUS
 10
407.866563
 20
580.713951
 40
75.000000
 50
225.000000
 51
315.000000
 39
0
 62
0
  0
LINE
  8
default
  6
CONTINUOUS
 10
354.833554
 20
527.680942
 11
319.478215
 21
492.325603
 39
0
 62
0
  0
LINE
  8
default
  6
CONTINUOUS
 10
460.899572
 20
527.680942
 11
496.254911
 21
492.325603
 39
0
 62
0
  0
CIRCLE
  8
default
  6
CONTINUOUS
 10
470.368214
 20
487.173620
 40
2.500000
 39
0
 62
8
  0
CIRCLE
  8
default
  6
CONTINUOUS
 10
429.814224
 20
470.375607
 40
2.500000
 39
0
 62
8
  0
CIRCLE
  8
default
  6
CONTINUOUS
 10
385.918902
 20
470.375607
 40
2.500000
 39
0
 62
8
  0
CIRCLE
  8
default
  6
CONTINUOUS
 10
345.364912
 20
487.173620
 40
2.500000
 39
0
 62
8
  0
CIRCLE
  8
default
  6
CONTINUOUS
 10
441.542705
 20
499.412552
 40
2.500000
 39
0
 62
8
  0
CIRCLE
  8
default
  6
CONTINUOUS
 10
374.190421
 20
499.412552
 40
2.500000
 39
0
 62
8
  0
CIRCLE
  8
default
  6
CONTINUOUS
 10
456.756744
 20
507.544625
 40
6.000000
 39
0
 62
8
  0
CIRCLE
  8
default
  6
CONTINUOUS
 10
425.034511
 20
494.404846
 40
6.000000
 39
0
 62
8
  0
CIRCLE
  8
default
  6
CONTINUOUS
 10
390.698615
 20
494.404846
 40
6.000000
 39
0
 62
8
  0
CIRCLE
  8
default
  6
CONTINUOUS
 10
358.976382
 20
507.544625
 40
6.000000
 39
0
 62
8
  0
ARC
  8
default
  6
CONTINUOUS
 10
354.833554
 20
527.680942
 40
2.000000
 50
45.000000
 51
135.000000
 39
0
 62
9
  0
ARC
  8
default
  6
CONTINUOUS
 10
460.899572
 20
527.680942
 40
2.000000
 50
45.000000
 51
135.000000
 39
0
 62
9
  0
ARC
  8
default
  6
CONTINUOUS
 10
407.866563
 20
580.713951
 40
73.000000
 50
225.000000
 51
315.000000
 39
0
 62
9
  0
ARC
  8
default
  6
CONTINUOUS
 10
496.254911
 20
492.325603
 40
2.000000
 50
315.000000
 51
45.000000
 39
0
 62
9
  0
LINE
  8
default
  6
CONTINUOUS
 10
462.313785
 20
529.095156
 11
497.669124
 21
493.739817
 39
0
 62
9
  0
ARC
  8
default
  6
CONTINUOUS
 10
319.478215
 20
492.325603
 40
2.000000
 50
135.000000
 51
225.000000
 39
0
 62
9
  0
ARC
  8
default
  6
CONTINUOUS
 10
407.866563
 20
580.713951
 40
127.000000
 50
225.000000
 51
315.000000
 39
0
 62
9
  0
LINE
  8
default
  6
CONTINUOUS
 10
353.419341
 20
529.095156
 11
318.064002
 21
493.739817
 39
0
 62
9
  0
ARC
  8
default
  6
CONTINUOUS
 10
407.866563
 20
580.713951
 40
99.000000
 50
225.000000
 51
315.000000
 39
0
 62
10
  0
ARC
  8
default
  6
CONTINUOUS
 10
407.866563
 20
580.713951
 40
78.000000
 50
225.000000
 51
315.000000
 39
0
 62
2
  0
ARC
  8
default
  6
CONTINUOUS
 10
407.866563
 20
580.713951
 40
81.000000
 50
225.000000
 51
315.000000
 39
0
 62
2
  0
ARC
  8
default
  6
CONTINUOUS
 10
407.866563
 20
580.713951
 40
84.000000
 50
225.000000
 51
315.000000
 39
0
 62
2
  0
ARC
  8
default
  6
CONTINUOUS
 10
407.866563
 20
580.713951
 40
87.000000
 50
225.000000
 51
315.000000
 39
0
 62
2
  0
ARC
  8
default
  6
CONTINUOUS
 10
407.866563
 20
580.713951
 40
90.000000
 50
225.000000
 51
315.000000
 39
0
 62
2
  0
ARC
  8
default
  6
CONTINUOUS
 10
407.866563
 20
580.713951
 40
93.000000
 50
225.000000
 51
315.000000
 39
0
 62
2
  0
ARC
  8
default
  6
CONTINUOUS
 10
407.866563
 20
580.713951
 40
96.000000
 50
225.000000
 51
315.000000
 39
0
 62
2
  0
ARC
  8
default
  6
CONTINUOUS
 10
407.866563
 20
580.713951
 40
97.000000
 50
225.000000
 51
315.000000
 39
0
 62
2
  0
POINT
  8
default
  6
CONTINUOUS
 10
358.976382
 20
507.544625
 39
0
 62
9
  0
POINT
  8
default
  6
CONTINUOUS
 10
374.190421
 20
499.412552
 39
0
 62
9
  0
POINT
  8
default
  6
CONTINUOUS
 10
345.364912
 20
487.173620
 39
0
 62
9
  0
POINT
  8
default
  6
CONTINUOUS
 10
385.918902
 20
470.375607
 39
0
 62
9
  0
POINT
  8
default
  6
CONTINUOUS
 10
390.698615
 20
494.404846
 39
0
 62
9
  0
POINT
  8
default
  6
CONTINUOUS
 10
425.034511
 20
494.404846
 39
0
 62
9
  0
POINT
  8
default
  6
CONTINUOUS
 10
429.814224
 20
470.375607
 39
0
 62
9
  0
POINT
  8
default
  6
CONTINUOUS
 10
470.368214
 20
487.173620
 39
0
 62
9
  0
POINT
  8
default
  6
CONTINUOUS
 10
456.756744
 20
507.544625
 39
0
 62
9
  0
POINT
  8
default
  6
CONTINUOUS
 10
441.542705
 20
499.412552
 39
0
 62
9
  0
ARC
  8
default
  6
CONTINUOUS
 10
90.162398
 20
581.570296
 40
125.000000
 50
225.000000
 51
315.000000
 39
0
 62
0
  0
ARC
  8
default
  6
CONTINUOUS
 10
90.162398
 20
581.570296
 40
75.000000
 50
225.000000
 51
315.000000
 39
0
 62
0
  0
LINE
  8
default
  6
CONTINUOUS
 10
37.129389
 20
528.537287
 11
1.774050
 21
493.181948
 39
0
 62
0
  0
LINE
  8
default
  6
CONTINUOUS
 10
143.195407
 20
528.537287
 11
178.550746
 21
493.181948
 39
0
 62
0
  0
CIRCLE
  8
default
  6
CONTINUOUS
 10
152.664049
 20
488.029965
 40
2.500000
 39
0
 62
8
  0
CIRCLE
  8
default
  6
CONTINUOUS
 10
112.110059
 20
471.231952
 40
2.500000
 39
0
 62
8
  0
CIRCLE
  8
default
  6
CONTINUOUS
 10
68.214737
 20
471.231952
 40
2.500000
 39
0
 62
8
  0
CIRCLE
  8
default
  6
CONTINUOUS
 10
27.660747
 20
488.029965
 40
2.500000
 39
0
 62
8
  0
CIRCLE
  8
default
  6
CONTINUOUS
 10
123.838540
 20
500.268897
 40
2.500000
 39
0
 62
8
  0
CIRCLE
  8
default
  6
CONTINUOUS
 10
56.486256
 20
500.268897
 40
2.500000
 39
0
 62
8
  0
CIRCLE
  8
default
  6
CONTINUOUS
 10
139.052579
 20
508.400970
 40
6.000000
 39
0
 62
8
  0
CIRCLE
  8
default
  6
CONTINUOUS
 10
107.330346
 20
495.261191
 40
6.000000
 39
0
 62
8
  0
CIRCLE
  8
default
  6
CONTINUOUS
 10
72.994450
 20
495.261191
 40
6.000000
 39
0
 62
8
  0
CIRCLE
  8
default
  6
CONTINUOUS
 10
41.272217
 20
508.400970
 40
6.000000
 39
0
 62
8
  0
ARC
  8
default
  6
CONTINUOUS
 10
37.129389
 20
528.537287
 40
2.000000
 50
45.000000
 51
135.000000
 39
0
 62
9
  0
ARC
  8
default
  6
CONTINUOUS
 10
143.195407
 20
528.537287
 40
2.000000
 50
45.000000
 51
135.000000
 39
0
 62
9
  0
ARC
  8
default
  6
CONTINUOUS
 10
90.162398
 20
581.570296
 40
73.000000
 50
225.000000
 51
315.000000
 39
0
 62
9
  0
ARC
  8
default
  6
CONTINUOUS
 10
178.550746
 20
493.181948
 40
2.000000
 50
315.000000
 51
45.000000
 39
0
 62
9
  0
LINE
  8
default
  6
CONTINUOUS
 10
144.609620
 20
529.951501
 11
179.964959
 21
494.596162
 39
0
 62
9
  0
ARC
  8
default
  6
CONTINUOUS
 10
1.774050
 20
493.181948
 40
2.000000
 50
135.000000
 51
225.000000
 39
0
 62
9
  0
ARC
  8
default
  6
CONTINUOUS
 10
90.162398
 20
581.570296
 40
127.000000
 50
225.000000
 51
315.000000
 39
0
 62
9
  0
LINE
  8
default
  6
CONTINUOUS
 10
35.715176
 20
529.951501
 11
0.359837
 21
494.596162
 39
0
 62
9
  0
ARC
  8
default
  6
CONTINUOUS
 10
90.162398
 20
581.570296
 40
99.000000
 50
225.000000
 51
315.000000
 39
0
 62
10
  0
ARC
  8
default
  6
CONTINUOUS
 10
90.162398
 20
581.570296
 40
78.000000
 50
225.000000
 51
315.000000
 39
0
 62
2
  0
ARC
  8
default
  6
CONTINUOUS
 10
90.162398
 20
581.570296
 40
81.000000
 50
225.000000
 51
315.000000
 39
0
 62
2
  0
ARC
  8
default
  6
CONTINUOUS
 10
90.162398
 20
581.570296
 40
84.000000
 50
225.000000
 51
315.000000
 39
0
 62
2
  0
ARC
  8
default
  6
CONTINUOUS
 10
90.162398
 20
581.570296
 40
87.000000
 50
225.000000
 51
315.000000
 39
0
 62
2
  0
ARC
  8
default
  6
CONTINUOUS
 10
90.162398
 20
581.570296
 40
90.000000
 50
225.000000
 51
315.000000
 39
0
 62
2
  0
ARC
  8
default
  6
CONTINUOUS
 10
90.162398
 20
581.570296
 40
93.000000
 50
225.000000
 51
315.000000
 39
0
 62
2
  0
ARC
  8
default
  6
CONTINUOUS
 10
90.162398
 20
581.570296
 40
96.000000
 50
225.000000
 51
315.000000
 39
0
 62
2
  0
ARC
  8
default
  6
CONTINUOUS
 10
90.162398
 20
581.570296
 40
97.000000
 50
225.000000
 51
315.000000
 39
0
 62
2
  0
POINT
  8
default
  6
CONTINUOUS
 10
41.272217
 20
508.400970
 39
0
 62
9
  0
POINT
  8
default
  6
CONTINUOUS
 10
56.486256
 20
500.268897
 39
0
 62
9
  0
POINT
  8
default
  6
CONTINUOUS
 10
27.660747
 20
488.029965
 39
0
 62
9
  0
POINT
  8
default
  6
CONTINUOUS
 10
68.214737
 20
471.231952
 39
0
 62
9
  0
POINT
  8
default
  6
CONTINUOUS
 10
72.994450
 20
495.261191
 39
0
 62
9
  0
POINT
  8
default
  6
CONTINUOUS
 10
107.330346
 20
495.261191
 39
0
 62
9
  0
POINT
  8
default
  6
CONTINUOUS
 10
112.110059
 20
471.231952
 39
0
 62
9
  0
POINT
  8
default
  6
CONTINUOUS
 10
152.664049
 20
488.029965
 39
0
 62
9
  0
POINT
  8
default
  6
CONTINUOUS
 10
139.052579
 20
508.400970
 39
0
 62
9
  0
POINT
  8
default
  6
CONTINUOUS
 10
123.838540
 20
500.268897
 39
0
 62
9
  0
ARC
  8
default
  6
CONTINUOUS
 10
249.380606
 20
429.412007
 40
125.000000
 50
45.000000
 51
135.000000
 39
0
 62
0
  0
ARC
  8
default
  6
CONTINUOUS
 10
249.380606
 20
429.412007
 40
75.000000
 50
45.000000
 51
135.000000
 39
0
 62
0
  0
LINE
  8
default
  6
CONTINUOUS
 10
196.347597
 20
482.445016
 11
160.992258
 21
517.800355
 39
0
 62
0
  0
LINE
  8
default
  6
CONTINUOUS
 10
302.413615
 20
482.445016
 11
337.768954
 21
517.800355
 39
0
 62
0
  0
CIRCLE
  8
default
  6
CONTINUOUS
 10
311.882257
 20
522.952338
 40
2.500000
 39
0
 62
8
  0
CIRCLE
  8
default
  6
CONTINUOUS
 10
271.328267
 20
539.750351
 40
2.500000
 39
0
 62
8
  0
CIRCLE
  8
default
  6
CONTINUOUS
 10
227.432945
 20
539.750351
 40
2.500000
 39
0
 62
8
  0
CIRCLE
  8
default
  6
CONTINUOUS
 10
186.878955
 20
522.952338
 40
2.500000
 39
0
 62
8
  0
CIRCLE
  8
default
  6
CONTINUOUS
 10
283.056748
 20
510.713406
 40
2.500000
 39
0
 62
8
  0
CIRCLE
  8
default
  6
CONTINUOUS
 10
215.704464
 20
510.713406
 40
2.500000
 39
0
 62
8
  0
CIRCLE
  8
default
  6
CONTINUOUS
 10
298.270787
 20
502.581333
 40
6.000000
 39
0
 62
8
  0
CIRCLE
  8
default
  6
CONTINUOUS
 10
266.548554
 20
515.721112
 40
6.000000
 39
0
 62
8
  0
CIRCLE
  8
default
  6
CONTINUOUS
 10
232.212658
 20
515.721112
 40
6.000000
 39
0
 62
8
  0
CIRCLE
  8
default
  6
CONTINUOUS
 10
200.490425
 20
502.581333
 40
6.000000
 39
0
 62
8
  0
ARC
  8
default
  6
CONTINUOUS
 10
196.347597
 20
482.445016
 40
2.000000
 50
225.000000
 51
315.000000
 39
0
 62
9
  0
ARC
  8
default
  6
CONTINUOUS
 10
302.413615
 20
482.445016
 40
2.000000
 50
225.000000
 51
315.000000
 39
0
 62
9
  0
ARC
  8
default
  6
CONTINUOUS
 10
249.380606
 20
429.412007
 40
73.000000
 50
45.000000
 51
135.000000
 39
0
 62
9
  0
ARC
  8
default
  6
CONTINUOUS
 10
337.768954
 20
517.800355
 40
2.000000
 50
315.000000
 51
45.000000
 39
0
 62
9
  0
LINE
  8
default
  6
CONTINUOUS
 10
303.827828
 20
481.030802
 11
339.183167
 21
516.386141
 39
0
 62
9
  0
ARC
  8
default
  6
CONTINUOUS
 10
160.992258
 20
517.800355
 40
2.000000
 50
135.000000
 51
225.000000
 39
0
 62
9
  0
ARC
  8
default
  6
CONTINUOUS
 10
249.380606
 20
429.412007
 40
127.000000
 50
45.000000
 51
135.000000
 39
0
 62
9
  0
LINE
  8
default
  6
CONTINUOUS
 10
194.933384
 20
481.030802
 11
159.578045
 21
516.386141
 39
0
 62
9
  0
ARC
  8
default
  6
CONTINUOUS
 10
249.380606
 20
429.412007
 40
99.000000
 50
45.000000
 51
135.000000
 39
0
 62
10
  0
ARC
  8
default
  6
CONTINUOUS
 10
249.380606
 20
429.412007
 40
78.000000
 50
45.000000
 51
135.000000
 39
0
 62
2
  0
ARC
  8
default
  6
CONTINUOUS
 10
249.380606
 20
429.412007
 40
81.000000
 50
45.000000
 51
135.000000
 39
0
 62
2
  0
ARC
  8
default
  6
CONTINUOUS
 10
249.380606
 20
429.412007
 40
84.000000
 50
45.000000
 51
135.000000
 39
0
 62
2
  0
ARC
  8
default
  6
CONTINUOUS
 10
249.380606
 20
429.412007
 40
87.000000
 50
45.000000
 51
135.000000
 39
0
 62
2
  0
ARC
  8
default
  6
CONTINUOUS
 10
249.380606
 20
429.412007
 40
90.000000
 50
45.000000
 51
135.000000
 39
0
 62
2
  0
ARC
  8
default
  6
CONTINUOUS
 10
249.380606
 20
429.412007
 40
93.000000
 50
45.000000
 51
135.000000
 39
0
 62
2
  0
ARC
  8
default
  6
CONTINUOUS
 10
249.380606
 20
429.412007
 40
96.000000
 50
45.000000
 51
135.000000
 39
0
 62
2
  0
ARC
  8
default
  6
CONTINUOUS
 10
249.380606
 20
429.412007
 40
97.000000
 50
45.000000
 51
135.000000
 39
0
 62
2
  0
POINT
  8
default
  6
CONTINUOUS
 10
200.490425
 20
502.581333
 39
0
 62
9
  0
POINT
  8
default
  6
CONTINUOUS
 10
215.704464
 20
510.713406
 39
0
 62
9
  0
POINT
  8
default
  6
CONTINUOUS
 10
186.878955
 20
522.952338
 39
0
 62
9
  0
POINT
  8
default
  6
CONTINUOUS
 10
227.432945
 20
539.750351
 39
0
 62
9
  0
POINT
  8
default
  6
CONTINUOUS
 10
232.212658
 20
515.721112
 39
0
 62
9
  0
POINT
  8
default
  6
CONTINUOUS
 10
266.548554
 20
515.721112
 39
0
 62
9
  0
POINT
  8
default
  6
CONTINUOUS
 10
271.328267
 20
539.750351
 39
0
 62
9
  0
POINT
  8
default
  6
CONTINUOUS
 10
311.882257
 20
522.952338
 39
0
 62
9
  0
POINT
  8
default
  6
CONTINUOUS
 10
298.270787
 20
502.581333
 39
0
 62
9
  0
POINT
  8
default
  6
CONTINUOUS
 10
283.056748
 20
510.713406
 39
0
 62
9
  0
CIRCLE
  8
default
  6
CONTINUOUS
 10
230.855621
 20
689.784052
 40
16.000000
 39
0
 62
0
  0
LINE
  8
default
  6
CONTINUOUS
 10
208.355621
 20
682.034052
 11
208.355621
 21
697.534052
 39
0
 62
0
  0
LINE
  8
default
  6
CONTINUOUS
 10
208.355621
 20
697.534052
 11
211.855621
 21
697.534052
 39
0
 62
0
  0
LINE
  8
default
  6
CONTINUOUS
 10
211.855621
 20
697.534052
 11
211.855621
 21
682.034052
 39
0
 62
0
  0
LINE
  8
default
  6
CONTINUOUS
 10
211.855621
 20
682.034052
 11
208.355621
 21
682.034052
 39
0
 62
0
  0
LINE
  8
default
  6
CONTINUOUS
 10
249.855621
 20
682.034052
 11
249.855621
 21
697.534052
 39
0
 62
0
  0
LINE
  8
default
  6
CONTINUOUS
 10
249.855621
 20
697.534052
 11
253.355621
 21
697.534052
 39
0
 62
0
  0
LINE
  8
default
  6
CONTINUOUS
 10
253.355621
 20
697.534052
 11
253.355621
 21
682.034052
 39
0
 62
0
  0
LINE
  8
default
  6
CONTINUOUS
 10
253.355621
 20
682.034052
 11
249.855621
 21
682.034052
 39
0
 62
0
  0
ARC
  8
default
  6
CONTINUOUS
 10
230.855621
 20
689.784052
 40
27.500000
 50
225.000000
 51
315.000000
 39
0
 62
0
  0
LINE
  8
default
  6
CONTINUOUS
 10
250.301057
 20
670.338616
 11
283.535076
 21
637.104597
 39
0
 62
0
  0
ARC
  8
default
  6
CONTINUOUS
 10
230.855621
 20
689.784052
 40
74.500000
 50
315.000000
 51
45.000000
 39
0
 62
0
  0
LINE
  8
default
  6
CONTINUOUS
 10
250.301057
 20
709.229488
 11
283.535076
 21
742.463507
 39
0
 62
0
  0
ARC
  8
default
  6
CONTINUOUS
 10
230.855621
 20
689.784052
 40
27.500000
 50
45.000000
 51
135.000000
 39
0
 62
0
  0
LINE
  8
default
  6
CONTINUOUS
 10
211.410185
 20
709.229488
 11
178.176166
 21
742.463507
 39
0
 62
0
  0
ARC
  8
default
  6
CONTINUOUS
 10
230.855621
 20
689.784052
 40
74.500000
 50
135.000000
 51
225.000000
 39
0
 62
0
  0
LINE
  8
default
  6
CONTINUOUS
 10
211.410185
 20
670.338616
 11
178.176166
 21
637.104597
 39
0
 62
0
  0
ARC
  8
default
  6
CONTINUOUS
 10
178.176166
 20
742.463507
 40
2.000000
 50
45.000000
 51
135.000000
 39
0
 62
9
  0
ARC
  8
default
  6
CONTINUOUS
 10
178.176166
 20
637.104597
 40
2.000000
 50
225.000000
 51
315.000000
 39
0
 62
9
  0
ARC
  8
default
  6
CONTINUOUS
 10
230.855621
 20
689.784052
 40
76.500000
 50
135.000000
 51
225.000000
 39
0
 62
9
  0
ARC
  8
default
  6
CONTINUOUS
 10
283.535076
 20
742.463507
 40
2.000000
 50
45.000000
 51
135.000000
 39
0
 62
9
  0
ARC
  8
default
  6
CONTINUOUS
 10
283.535076
 20
637.104597
 40
2.000000
 50
225.000000
 51
315.000000
 39
0
 62
9
  0
ARC
  8
default
  6
CONTINUOUS
 10
230.855621
 20
689.784052
 40
76.500000
 50
315.000000
 51
45.000000
 39
0
 62
9
  0
LINE
  8
default
  6
CONTINUOUS
 10
211.458179
 20
667.558183
 11
179.590379
 21
635.690383
 39
0
 62
9
  0
ARC
  8
default
  6
CONTINUOUS
 10
230.855621
 20
689.784052
 40
29.500000
 50
228.887442
 51
311.112558
 39
0
 62
9
  0
LINE
  8
default
  6
CONTINUOUS
 10
250.253063
 20
667.558183
 11
282.120863
 21
635.690383
 39
0
 62
9
  0
LINE
  8
default
  6
CONTINUOUS
 10
250.253063
 20
712.009921
 11
282.120863
 21
743.877721
 39
0
 62
9
  0
ARC
  8
default
  6
CONTINUOUS
 10
230.855621
 20
689.784052
 40
29.500000
 50
48.887442
 51
131.112558
 39
0
 62
9
  0
LINE
  8
default
  6
CONTINUOUS
 10
211.458179
 20
712.009921
 11
179.590379
 21
743.877721
 39
0
 62
9
  0
ARC
  8
default
  6
CONTINUOUS
 10
230.855621
 20
689.784052
 40
29.500000
 50
135.000000
 51
225.000000
 39
0
 62
13
  0
ARC
  8
default
  6
CONTINUOUS
 10
230.855621
 20
689.784052
 40
32.500000
 50
135.000000
 51
225.000000
 39
0
 62
13
  0
ARC
  8
default
  6
CONTINUOUS
 10
230.855621
 20
689.784052
 40
35.500000
 50
135.000000
 51
225.000000
 39
0
 62
13
  0
ARC
  8
default
  6
CONTINUOUS
 10
230.855621
 20
689.784052
 40
38.500000
 50
135.000000
 51
225.000000
 39
0
 62
13
  0
ARC
  8
default
  6
CONTINUOUS
 10
230.855621
 20
689.784052
 40
41.500000
 50
135.000000
 51
225.000000
 39
0
 62
13
  0
ARC
  8
default
  6
CONTINUOUS
 10
230.855621
 20
689.784052
 40
44.500000
 50
135.000000
 51
225.000000
 39
0
 62
13
  0
ARC
  8
default
  6
CONTINUOUS
 10
230.855621
 20
689.784052
 40
47.500000
 50
135.000000
 51
225.000000
 39
0
 62
13
  0
ARC
  8
default
  6
CONTINUOUS
 10
230.855621
 20
689.784052
 40
50.500000
 50
135.000000
 51
225.000000
 39
0
 62
13
  0
ARC
  8
default
  6
CONTINUOUS
 10
230.855621
 20
689.784052
 40
53.500000
 50
135.000000
 51
225.000000
 39
0
 62
13
  0
ARC
  8
default
  6
CONTINUOUS
 10
230.855621
 20
689.784052
 40
56.500000
 50
135.000000
 51
225.000000
 39
0
 62
13
  0
ARC
  8
default
  6
CONTINUOUS
 10
230.855621
 20
689.784052
 40
59.500000
 50
135.000000
 51
225.000000
 39
0
 62
13
  0
ARC
  8
default
  6
CONTINUOUS
 10
230.855621
 20
689.784052
 40
62.500000
 50
135.000000
 51
225.000000
 39
0
 62
13
  0
ARC
  8
default
  6
CONTINUOUS
 10
230.855621
 20
689.784052
 40
65.500000
 50
135.000000
 51
225.000000
 39
0
 62
13
  0
ARC
  8
default
  6
CONTINUOUS
 10
230.855621
 20
689.784052
 40
68.500000
 50
135.000000
 51
225.000000
 39
0
 62
13
  0
ARC
  8
default
  6
CONTINUOUS
 10
230.855621
 20
689.784052
 40
71.500000
 50
135.000000
 51
225.000000
 39
0
 62
13
  0
ARC
  8
default
  6
CONTINUOUS
 10
230.855621
 20
689.784052
 40
29.500000
 50
315.000000
 51
45.000000
 39
0
 62
13
  0
ARC
  8
default
  6
CONTINUOUS
 10
230.855621
 20
689.784052
 40
32.500000
 50
315.000000
 51
45.000000
 39
0
 62
13
  0
ARC
  8
default
  6
CONTINUOUS
 10
230.855621
 20
689.784052
 40
35.500000
 50
315.000000
 51
45.000000
 39
0
 62
13
  0
ARC
  8
default
  6
CONTINUOUS
 10
230.855621
 20
689.784052
 40
38.500000
 50
315.000000
 51
45.000000
 39
0
 62
13
  0
ARC
  8
default
  6
CONTINUOUS
 10
230.855621
 20
689.784052
 40
41.500000
 50
315.000000
 51
45.000000
 39
0
 62
13
  0
ARC
  8
default
  6
CONTINUOUS
 10
230.855621
 20
689.784052
 40
44.500000
 50
315.000000
 51
45.000000
 39
0
 62
13
  0
ARC
  8
default
  6
CONTINUOUS
 10
230.855621
 20
689.784052
 40
47.500000
 50
315.000000
 51
45.000000
 39
0
 62
13
  0
ARC
  8
default
  6
CONTINUOUS
 10
230.855621
 20
689.784052
 40
50.500000
 50
315.000000
 51
45.000000
 39
0
 62
13
  0
ARC
  8
default
  6
CONTINUOUS
 10
230.855621
 20
689.784052
 40
53.500000
 50
315.000000
 51
45.000000
 39
0
 62
13
  0
ARC
  8
default
  6
CONTINUOUS
 10
230.855621
 20
689.784052
 40
56.500000
 50
315.000000
 51
45.000000
 39
0
 62
13
  0
ARC
  8
default
  6
CONTINUOUS
 10
230.855621
 20
689.784052
 40
59.500000
 50
315.000000
 51
45.000000
 39
0
 62
13
  0
ARC
  8
default
  6
CONTINUOUS
 10
230.855621
 20
689.784052
 40
62.500000
 50
315.000000
 51
45.000000
 39
0
 62
13
  0
ARC
  8
default
  6
CONTINUOUS
 10
230.855621
 20
689.784052
 40
65.500000
 50
315.000000
 51
45.000000
 39
0
 62
13
  0
ARC
  8
default
  6
CONTINUOUS
 10
230.855621
 20
689.784052
 40
68.500000
 50
315.000000
 51
45.000000
 39
0
 62
13
  0
ARC
  8
default
  6
CONTINUOUS
 10
230.855621
 20
689.784052
 40
71.500000
 50
315.000000
 51
45.000000
 39
0
 62
13
  0
LINE
  8
default
  6
CONTINUOUS
 10
251.855621
 20
684.034053
 11
251.855621
 21
695.534051
 39
0
 62
9
  0
LINE
  8
default
  6
CONTINUOUS
 10
209.855621
 20
695.534051
 11
209.855621
 21
684.034053
 39
0
 62
9
  0
POINT
  8
default
  6
CONTINUOUS
 10
230.855621
 20
667.534052
 39
0
 62
9
  0
POINT
  8
default
  6
CONTINUOUS
 10
230.855621
 20
712.034052
 39
0
 62
9
  0
POINT
  8
default
  6
CONTINUOUS
 10
230.855621
 20
689.784052
 39
0
 62
9
  0
CIRCLE
  8
default
  6
CONTINUOUS
 10
263.204619
 20
609.810140
 40
16.000000
 39
0
 62
0
  0
LINE
  8
default
  6
CONTINUOUS
 10
240.704619
 20
602.060140
 11
240.704619
 21
617.560140
 39
0
 62
0
  0
LINE
  8
default
  6
CONTINUOUS
 10
240.704619
 20
617.560140
 11
244.204619
 21
617.560140
 39
0
 62
0
  0
LINE
  8
default
  6
CONTINUOUS
 10
244.204619
 20
617.560140
 11
244.204619
 21
602.060140
 39
0
 62
0
  0
LINE
  8
default
  6
CONTINUOUS
 10
244.204619
 20
602.060140
 11
240.704619
 21
602.060140
 39
0
 62
0
  0
LINE
  8
default
  6
CONTINUOUS
 10
282.204619
 20
602.060140
 11
282.204619
 21
617.560140
 39
0
 62
0
  0
LINE
  8
default
  6
CONTINUOUS
 10
282.204619
 20
617.560140
 11
285.704619
 21
617.560140
 39
0
 62
0
  0
LINE
  8
default
  6
CONTINUOUS
 10
285.704619
 20
617.560140
 11
285.704619
 21
602.060140
 39
0
 62
0
  0
LINE
  8
default
  6
CONTINUOUS
 10
285.704619
 20
602.060140
 11
282.204619
 21
602.060140
 39
0
 62
0
  0
ARC
  8
default
  6
CONTINUOUS
 10
263.204619
 20
609.810140
 40
27.500000
 50
225.000000
 51
315.000000
 39
0
 62
0
  0
LINE
  8
default
  6
CONTINUOUS
 10
282.650055
 20
590.364704
 11
315.884074
 21
557.130685
 39
0
 62
0
  0
ARC
  8
default
  6
CONTINUOUS
 10
263.204619
 20
609.810140
 40
74.500000
 50
315.000000
 51
45.000000
 39
0
 62
0
  0
LINE
  8
default
  6
CONTINUOUS
 10
282.650055
 20
629.255576
 11
315.884074
 21
662.489595
 39
0
 62
0
  0
ARC
  8
default
  6
CONTINUOUS
 10
263.204619
 20
609.810140
 40
27.500000
 50
45.000000
 51
135.000000
 39
0
 62
0
  0
LINE
  8
default
  6
CONTINUOUS
 10
243.759183
 20
629.255576
 11
210.525164
 21
662.489595
 39
0
 62
0
  0
ARC
  8
default
  6
CONTINUOUS
 10
263.204619
 20
609.810140
 40
74.500000
 50
135.000000
 51
225.000000
 39
0
 62
0
  0
LINE
  8
default
  6
CONTINUOUS
 10
243.759183
 20
590.364704
 11
210.525164
 21
557.130685
 39
0
 62
0
  0
ARC
  8
default
  6
CONTINUOUS
 10
210.525164
 20
662.489595
 40
2.000000
 50
45.000000
 51
135.000000
 39
0
 62
9
  0
ARC
  8
default
  6
CONTINUOUS
 10
210.525164
 20
557.130685
 40
2.000000
 50
225.000000
 51
315.000000
 39
0
 62
9
  0
ARC
  8
default
  6
CONTINUOUS
 10
263.204619
 20
609.810140
 40
76.500000
 50
135.000000
 51
225.000000
 39
0
 62
9
  0
ARC
  8
default
  6
CONTINUOUS
 10
315.884074
 20
662.489595
 40
2.000000
 50
45.000000
 51
135.000000
 39
0
 62
9
  0
ARC
  8
default
  6
CONTINUOUS
 10
315.884074
 20
557.130685
 40
2.000000
 50
225.000000
 51
315.000000
 39
0
 62
9
  0
ARC
  8
default
  6
CONTINUOUS
 10
263.204619
 20
609.810140
 40
76.500000
 50
315.000000
 51
45.000000
 39
0
 62
9
  0
LINE
  8
default
  6
CONTINUOUS
 10
243.807177
 20
587.584271
 11
211.939377
 21
555.716471
 39
0
 62
9
  0
ARC
  8
default
  6
CONTINUOUS
 10
263.204619
 20
609.810140
 40
29.500000
 50
228.887442
 51
311.112558
 39
0
 62
9
  0
LINE
  8
default
  6
CONTINUOUS
 10
282.602061
 20
587.584271
 11
314.469861
 21
555.716471
 39
0
 62
9
  0
LINE
  8
default
  6
CONTINUOUS
 10
282.602061
 20
632.036009
 11
314.469861
 21
663.903809
 39
0
 62
9
  0
ARC
  8
default
  6
CONTINUOUS
 10
263.204619
 20
609.810140
 40
29.500000
 50
48.887442
 51
131.112558
 39
0
 62
9
  0
LINE
  8
default
  6
CONTINUOUS
 10
243.807177
 20
632.036009
 11
211.939377
 21
663.903809
 39
0
 62
9
  0
ARC
  8
default
  6
CONTINUOUS
 10
263.204619
 20
609.810140
 40
29.500000
 50
135.000000
 51
225.000000
 39
0
 62
13
  0
ARC
  8
default
  6
CONTINUOUS
 10
263.204619
 20
609.810140
 40
32.500000
 50
135.000000
 51
225.000000
 39
0
 62
13
  0
ARC
  8
default
  6
CONTINUOUS
 10
263.204619
 20
609.810140
 40
35.500000
 50
135.000000
 51
225.000000
 39
0
 62
13
  0
ARC
  8
default
  6
CONTINUOUS
 10
263.204619
 20
609.810140
 40
38.500000
 50
135.000000
 51
225.000000
 39
0
 62
13
  0
ARC
  8
default
  6
CONTINUOUS
 10
263.204619
 20
609.810140
 40
41.500000
 50
135.000000
 51
225.000000
 39
0
 62
13
  0
ARC
  8
default
  6
CONTINUOUS
 10
263.204619
 20
609.810140
 40
44.500000
 50
135.000000
 51
225.000000
 39
0
 62
13
  0
ARC
  8
default
  6
CONTINUOUS
 10
263.204619
 20
609.810140
 40
47.500000
 50
135.000000
 51
225.000000
 39
0
 62
13
  0
ARC
  8
default
  6
CONTINUOUS
 10
263.204619
 20
609.810140
 40
50.500000
 50
135.000000
 51
225.000000
 39
0
 62
13
  0
ARC
  8
default
  6
CONTINUOUS
 10
263.204619
 20
609.810140
 40
53.500000
 50
135.000000
 51
225.000000
 39
0
 62
13
  0
ARC
  8
default
  6
CONTINUOUS
 10
263.204619
 20
609.810140
 40
56.500000
 50
135.000000
 51
225.000000
 39
0
 62
13
  0
ARC
  8
default
  6
CONTINUOUS
 10
263.204619
 20
609.810140
 40
59.500000
 50
135.000000
 51
225.000000
 39
0
 62
13
  0
ARC
  8
default
  6
CONTINUOUS
 10
263.204619
 20
609.810140
 40
62.500000
 50
135.000000
 51
225.000000
 39
0
 62
13
  0
ARC
  8
default
  6
CONTINUOUS
 10
263.204619
 20
609.810140
 40
65.500000
 50
135.000000
 51
225.000000
 39
0
 62
13
  0
ARC
  8
default
  6
CONTINUOUS
 10
263.204619
 20
609.810140
 40
68.500000
 50
135.000000
 51
225.000000
 39
0
 62
13
  0
ARC
  8
default
  6
CONTINUOUS
 10
263.204619
 20
609.810140
 40
71.500000
 50
135.000000
 51
225.000000
 39
0
 62
13
  0
ARC
  8
default
  6
CONTINUOUS
 10
263.204619
 20
609.810140
 40
29.500000
 50
315.000000
 51
45.000000
 39
0
 62
13
  0
ARC
  8
default
  6
CONTINUOUS
 10
263.204619
 20
609.810140
 40
32.500000
 50
315.000000
 51
45.000000
 39
0
 62
13
  0
ARC
  8
default
  6
CONTINUOUS
 10
263.204619
 20
609.810140
 40
35.500000
 50
315.000000
 51
45.000000
 39
0
 62
13
  0
ARC
  8
default
  6
CONTINUOUS
 10
263.204619
 20
609.810140
 40
38.500000
 50
315.000000
 51
45.000000
 39
0
 62
13
  0
ARC
  8
default
  6
CONTINUOUS
 10
263.204619
 20
609.810140
 40
41.500000
 50
315.000000
 51
45.000000
 39
0
 62
13
  0
ARC
  8
default
  6
CONTINUOUS
 10
263.204619
 20
609.810140
 40
44.500000
 50
315.000000
 51
45.000000
 39
0
 62
13
  0
ARC
  8
default
  6
CONTINUOUS
 10
263.204619
 20
609.810140
 40
47.500000
 50
315.000000
 51
45.000000
 39
0
 62
13
  0
ARC
  8
default
  6
CONTINUOUS
 10
263.204619
 20
609.810140
 40
50.500000
 50
315.000000
 51
45.000000
 39
0
 62
13
  0
ARC
  8
default
  6
CONTINUOUS
 10
263.204619
 20
609.810140
 40
53.500000
 50
315.000000
 51
45.000000
 39
0
 62
13
  0
ARC
  8
default
  6
CONTINUOUS
 10
263.204619
 20
609.810140
 40
56.500000
 50
315.000000
 51
45.000000
 39
0
 62
13
  0
ARC
  8
default
  6
CONTINUOUS
 10
263.204619
 20
609.810140
 40
59.500000
 50
315.000000
 51
45.000000
 39
0
 62
13
  0
ARC
  8
default
  6
CONTINUOUS
 10
263.204619
 20
609.810140
 40
62.500000
 50
315.000000
 51
45.000000
 39
0
 62
13
  0
ARC
  8
default
  6
CONTINUOUS
 10
263.204619
 20
609.810140
 40
65.500000
 50
315.000000
 51
45.000000
 39
0
 62
13
  0
ARC
  8
default
  6
CONTINUOUS
 10
263.204619
 20
609.810140
 40
68.500000
 50
315.000000
 51
45.000000
 39
0
 62
13
  0
ARC
  8
default
  6
CONTINUOUS
 10
263.204619
 20
609.810140
 40
71.500000
 50
315.000000
 51
45.000000
 39
0
 62
13
  0
LINE
  8
default
  6
CONTINUOUS
 10
284.204619
 20
604.060141
 11
284.204619
 21
615.560139
 39
0
 62
9
  0
LINE
  8
default
  6
CONTINUOUS
 10
242.204619
 20
615.560139
 11
242.204619
 21
604.060141
 39
0
 62
9
  0
POINT
  8
default
  6
CONTINUOUS
 10
263.204619
 20
587.560140
 39
0
 62
9
  0
POINT
  8
default
  6
CONTINUOUS
 10
263.204619
 20
632.060140
 39
0
 62
9
  0
POINT
  8
default
  6
CONTINUOUS
 10
263.204619
 20
609.810140
 39
0
 62
9
  0
CIRCLE
  8
default
  6
CONTINUOUS
 10
77.336471
 20
672.643042
 40
16.000000
 39
0
 62
0
  0
LINE
  8
default
  6
CONTINUOUS
 10
53.597292
 20
670.980546
 11
57.608988
 21
685.952396
 39
0
 62
0
  0
LINE
  8
default
  6
CONTINUOUS
 10
57.608988
 20
685.952396
 11
60.989728
 21
685.046529
 39
0
 62
0
  0
LINE
  8
default
  6
CONTINUOUS
 10
60.989728
 20
685.046529
 11
56.978033
 21
670.074679
 39
0
 62
0
  0
LINE
  8
default
  6
CONTINUOUS
 10
56.978033
 20
670.074679
 11
53.597292
 21
670.980546
 39
0
 62
0
  0
LINE
  8
default
  6
CONTINUOUS
 10
93.683214
 20
660.239555
 11
97.694909
 21
675.211406
 39
0
 62
0
  0
LINE
  8
default
  6
CONTINUOUS
 10
97.694909
 20
675.211406
 11
101.075650
 21
674.305539
 39
0
 62
0
  0
LINE
  8
default
  6
CONTINUOUS
 10
101.075650
 20
674.305539
 11
97.063955
 21
659.333689
 39
0
 62
0
  0
LINE
  8
default
  6
CONTINUOUS
 10
97.063955
 20
659.333689
 11
93.683214
 21
660.239555
 39
0
 62
0
  0
ARC
  8
default
  6
CONTINUOUS
 10
77.336471
 20
672.643042
 40
27.500000
 50
210.000000
 51
300.000000
 39
0
 62
0
  0
LINE
  8
default
  6
CONTINUOUS
 10
91.086471
 20
648.827344
 11
114.586471
 21
608.124150
 39
0
 62
0
  0
ARC
  8
default
  6
CONTINUOUS
 10
77.336471
 20
672.643042
 40
74.500000
 50
300.000000
 51
30.000000
 39
0
 62
0
  0
LINE
  8
default
  6
CONTINUOUS
 10
101.152169
 20
686.393042
 11
141.855363
 21
709.893042
 39
0
 62
0
  0
ARC
  8
default
  6
CONTINUOUS
 10
77.336471
 20
672.643042
 40
27.500000
 50
30.000000
 51
120.000000
 39
0
 62
0
  0
LINE
  8
default
  6
CONTINUOUS
 10
63.586471
 20
696.458740
 11
40.086471
 21
737.161935
 39
0
 62
0
  0
ARC
  8
default
  6
CONTINUOUS
 10
77.336471
 20
672.643042
 40
74.500000
 50
120.000000
 51
210.000000
 39
0
 62
0
  0
LINE
  8
default
  6
CONTINUOUS
 10
53.520773
 20
658.893043
 11
12.817579
 21
635.393042
 39
0
 62
0
  0
ARC
  8
default
  6
CONTINUOUS
 10
40.086471
 20
737.161935
 40
2.000000
 50
30.000000
 51
120.000000
 39
0
 62
9
  0
ARC
  8
default
  6
CONTINUOUS
 10
12.817579
 20
635.393042
 40
2.000000
 50
210.000000
 51
300.000000
 39
0
 62
9
  0
ARC
  8
default
  6
CONTINUOUS
 10
77.336471
 20
672.643042
 40
76.500000
 50
120.000000
 51
210.000000
 39
0
 62
9
  0
ARC
  8
default
  6
CONTINUOUS
 10
141.855363
 20
709.893042
 40
2.000000
 50
30.000000
 51
120.000000
 39
0
 62
9
  0
ARC
  8
default
  6
CONTINUOUS
 10
114.586471
 20
608.124150
 40
2.000000
 50
210.000000
 51
300.000000
 39
0
 62
9
  0
ARC
  8
default
  6
CONTINUOUS
 10
77.336471
 20
672.643042
 40
76.500000
 50
300.000000
 51
30.000000
 39
0
 62
9
  0
LINE
  8
default
  6
CONTINUOUS
 10
52.847503
 20
656.194929
 11
13.817578
 21
633.660991
 39
0
 62
9
  0
ARC
  8
default
  6
CONTINUOUS
 10
77.336471
 20
672.643042
 40
29.500000
 50
213.887442
 51
296.112558
 39
0
 62
9
  0
LINE
  8
default
  6
CONTINUOUS
 10
90.320483
 20
646.154074
 11
112.854421
 21
607.124149
 39
0
 62
9
  0
LINE
  8
default
  6
CONTINUOUS
 10
101.825439
 20
689.091156
 11
140.855364
 21
711.625093
 39
0
 62
9
  0
ARC
  8
default
  6
CONTINUOUS
 10
77.336471
 20
672.643042
 40
29.500000
 50
33.887442
 51
116.112558
 39
0
 62
9
  0
LINE
  8
default
  6
CONTINUOUS
 10
64.352459
 20
699.132011
 11
41.818522
 21
738.161935
 39
0
 62
9
  0
ARC
  8
default
  6
CONTINUOUS
 10
77.336471
 20
672.643042
 40
29.500000
 50
120.000000
 51
210.000000
 39
0
 62
13
  0
ARC
  8
default
  6
CONTINUOUS
 10
77.336471
 20
672.643042
 40
32.500000
 50
120.000000
 51
210.000000
 39
0
 62
13
  0
ARC
  8
default
  6
CONTINUOUS
 10
77.336471
 20
672.643042
 40
35.500000
 50
120.000000
 51
210.000000
 39
0
 62
13
  0
ARC
  8
default
  6
CONTINUOUS
 10
77.336471
 20
672.643042
 40
38.500000
 50
120.000000
 51
210.000000
 39
0
 62
13
  0
ARC
  8
default
  6
CONTINUOUS
 10
77.336471
 20
672.643042
 40
41.500000
 50
120.000000
 51
210.000000
 39
0
 62
13
  0
ARC
  8
default
  6
CONTINUOUS
 10
77.336471
 20
672.643042
 40
44.500000
 50
120.000000
 51
210.000000
 39
0
 62
13
  0
ARC
  8
default
  6
CONTINUOUS
 10
77.336471
 20
672.643042
 40
47.500000
 50
120.000000
 51
210.000000
 39
0
 62
13
  0
ARC
  8
default
  6
CONTINUOUS
 10
77.336471
 20
672.643042
 40
50.500000
 50
120.000000
 51
210.000000
 39
0
 62
13
  0
ARC
  8
default
  6
CONTINUOUS
 10
77.336471
 20
672.643042
 40
53.500000
 50
120.000000
 51
210.000000
 39
0
 62
13
  0
ARC
  8
default
  6
CONTINUOUS
 10
77.336471
 20
672.643042
 40
56.500000
 50
120.000000
 51
210.000000
 39
0
 62
13
  0
ARC
  8
default
  6
CONTINUOUS
 10
77.336471
 20
672.643042
 40
59.500000
 50
120.000000
 51
210.000000
 39
0
 62
13
  0
ARC
  8
default
  6
CONTINUOUS
 10
77.336471
 20
672.643042
 40
62.500000
 50
120.000000
 51
210.000000
 39
0
 62
13
  0
ARC
  8
default
  6
CONTINUOUS
 10
77.336471
 20
672.643042
 40
65.500000
 50
120.000000
 51
210.000000
 39
0
 62
13
  0
ARC
  8
default
  6
CONTINUOUS
 10
77.336471
 20
672.643042
 40
68.500000
 50
120.000000
 51
210.000000
 39
0
 62
13
  0
ARC
  8
default
  6
CONTINUOUS
 10
77.336471
 20
672.643042
 40
71.500000
 50
120.000000
 51
210.000000
 39
0
 62
13
  0
ARC
  8
default
  6
CONTINUOUS
 10
77.336471
 20
672.643042
 40
29.500000
 50
300.000000
 51
30.000000
 39
0
 62
13
  0
ARC
  8
default
  6
CONTINUOUS
 10
77.336471
 20
672.643042
 40
32.500000
 50
300.000000
 51
30.000000
 39
0
 62
13
  0
ARC
  8
default
  6
CONTINUOUS
 10
77.336471
 20
672.643042
 40
35.500000
 50
300.000000
 51
30.000000
 39
0
 62
13
  0
ARC
  8
default
  6
CONTINUOUS
 10
77.336471
 20
672.643042
 40
38.500000
 50
300.000000
 51
30.000000
 39
0
 62
13
  0
ARC
  8
default
  6
CONTINUOUS
 10
77.336471
 20
672.643042
 40
41.500000
 50
300.000000
 51
30.000000
 39
0
 62
13
  0
ARC
  8
default
  6
CONTINUOUS
 10
77.336471
 20
672.643042
 40
44.500000
 50
300.000000
 51
30.000000
 39
0
 62
13
  0
ARC
  8
default
  6
CONTINUOUS
 10
77.336471
 20
672.643042
 40
47.500000
 50
300.000000
 51
30.000000
 39
0
 62
13
  0
ARC
  8
default
  6
CONTINUOUS
 10
77.336471
 20
672.643042
 40
50.500000
 50
300.000000
 51
30.000000
 39
0
 62
13
  0
ARC
  8
default
  6
CONTINUOUS
 10
77.336471
 20
672.643042
 40
53.500000
 50
300.000000
 51
30.000000
 39
0
 62
13
  0
ARC
  8
default
  6
CONTINUOUS
 10
77.336471
 20
672.643042
 40
56.500000
 50
300.000000
 51
30.000000
 39
0
 62
13
  0
ARC
  8
default
  6
CONTINUOUS
 10
77.336471
 20
672.643042
 40
59.500000
 50
300.000000
 51
30.000000
 39
0
 62
13
  0
ARC
  8
default
  6
CONTINUOUS
 10
77.336471
 20
672.643042
 40
62.500000
 50
300.000000
 51
30.000000
 39
0
 62
13
  0
ARC
  8
default
  6
CONTINUOUS
 10
77.336471
 20
672.643042
 40
65.500000
 50
300.000000
 51
30.000000
 39
0
 62
13
  0
ARC
  8
default
  6
CONTINUOUS
 10
77.336471
 20
672.643042
 40
68.500000
 50
300.000000
 51
30.000000
 39
0
 62
13
  0
ARC
  8
default
  6
CONTINUOUS
 10
77.336471
 20
672.643042
 40
71.500000
 50
300.000000
 51
30.000000
 39
0
 62
13
  0
LINE
  8
default
  6
CONTINUOUS
 10
96.132704
 20
661.653770
 11
99.109123
 21
672.761915
 39
0
 62
9
  0
LINE
  8
default
  6
CONTINUOUS
 10
58.540238
 20
683.632315
 11
55.563819
 21
672.524170
 39
0
 62
9
  0
POINT
  8
default
  6
CONTINUOUS
 10
71.577747
 20
651.151193
 39
0
 62
9
  0
POINT
  8
default
  6
CONTINUOUS
 10
83.095195
 20
694.134892
 39
0
 62
9
  0
POINT
  8
default
  6
CONTINUOUS
 10
77.336471
 20
672.643042
 39
0
 62
9
  0
CIRCLE
  8
default
  6
CONTINUOUS
 10
77.336471
 20
580.633560
 40
16.000000
 39
0
 62
0
  0
LINE
  8
default
  6
CONTINUOUS
 10
53.597292
 20
578.971063
 11
57.608988
 21
593.942913
 39
0
 62
0
  0
LINE
  8
default
  6
CONTINUOUS
 10
57.608988
 20
593.942913
 11
60.989728
 21
593.037047
 39
0
 62
0
  0
LINE
  8
default
  6
CONTINUOUS
 10
60.989728
 20
593.037047
 11
56.978033
 21
578.065197
 39
0
 62
0
  0
LINE
  8
default
  6
CONTINUOUS
 10
56.978033
 20
578.065197
 11
53.597292
 21
578.971063
 39
0
 62
0
  0
LINE
  8
default
  6
CONTINUOUS
 10
93.683214
 20
568.230073
 11
97.694909
 21
583.201923
 39
0
 62
0
  0
LINE
  8
default
  6
CONTINUOUS
 10
97.694909
 20
583.201923
 11
101.075650
 21
582.296056
 39
0
 62
0
  0
LINE
  8
default
  6
CONTINUOUS
 10
101.075650
 20
582.296056
 11
97.063955
 21
567.324206
 39
0
 62
0
  0
LINE
  8
default
  6
CONTINUOUS
 10
97.063955
 20
567.324206
 11
93.683214
 21
568.230073
 39
0
 62
0
  0
ARC
  8
default
  6
CONTINUOUS
 10
77.336471
 20
580.633560
 40
27.500000
 50
210.000000
 51
300.000000
 39
0
 62
0
  0
LINE
  8
default
  6
CONTINUOUS
 10
91.086471
 20
556.817862
 11
114.586471
 21
516.114667
 39
0
 62
0
  0
ARC
  8
default
  6
CONTINUOUS
 10
77.336471
 20
580.633560
 40
74.500000
 50
300.000000
 51
30.000000
 39
0
 62
0
  0
LINE
  8
default
  6
CONTINUOUS
 10
101.152169
 20
594.383559
 11
141.855363
 21
617.883560
 39
0
 62
0
  0
ARC
  8
default
  6
CONTINUOUS
 10
77.336471
 20
580.633560
 40
27.500000
 50
30.000000
 51
120.000000
 39
0
 62
0
  0
LINE
  8
default
  6
CONTINUOUS
 10
63.586471
 20
604.449258
 11
40.086471
 21
645.152452
 39
0
 62
0
  0
ARC
  8
default
  6
CONTINUOUS
 10
77.336471
 20
580.633560
 40
74.500000
 50
120.000000
 51
210.000000
 39
0
 62
0
  0
LINE
  8
default
  6
CONTINUOUS
 10
53.520773
 20
566.883560
 11
12.817579
 21
543.383560
 39
0
 62
0
  0
ARC
  8
default
  6
CONTINUOUS
 10
40.086471
 20
645.152452
 40
2.000000
 50
30.000000
 51
120.000000
 39
0
 62
9
  0
ARC
  8
default
  6
CONTINUOUS
 10
12.817579
 20
543.383560
 40
2.000000
 50
210.000000
 51
300.000000
 39
0
 62
9
  0
ARC
  8
default
  6
CONTINUOUS
 10
77.336471
 20
580.633560
 40
76.500000
 50
120.000000
 51
210.000000
 39
0
 62
9
  0
ARC
  8
default
  6
CONTINUOUS
 10
141.855363
 20
617.883560
 40
2.000000
 50
30.000000
 51
120.000000
 39
0
 62
9
  0
ARC
  8
default
  6
CONTINUOUS
 10
114.586471
 20
516.114667
 40
2.000000
 50
210.000000
 51
300.000000
 39
0
 62
9
  0
ARC
  8
default
  6
CONTINUOUS
 10
77.336471
 20
580.633560
 40
76.500000
 50
300.000000
 51
30.000000
 39
0
 62
9
  0
LINE
  8
default
  6
CONTINUOUS
 10
52.847503
 20
564.185446
 11
13.817578
 21
541.651509
 39
0
 62
9
  0
ARC
  8
default
  6
CONTINUOUS
 10
77.336471
 20
580.633560
 40
29.500000
 50
213.887442
 51
296.112558
 39
0
 62
9
  0
LINE
  8
default
  6
CONTINUOUS
 10
90.320483
 20
554.144592
 11
112.854421
 21
515.114667
 39
0
 62
9
  0
LINE
  8
default
  6
CONTINUOUS
 10
101.825439
 20
597.081673
 11
140.855364
 21
619.615611
 39
0
 62
9
  0
ARC
  8
default
  6
CONTINUOUS
 10
77.336471
 20
580.633560
 40
29.500000
 50
33.887442
 51
116.112558
 39
0
 62
9
  0
LINE
  8
default
  6
CONTINUOUS
 10
64.352459
 20
607.122528
 11
41.818522
 21
646.152453
 39
0
 62
9
  0
ARC
  8
default
  6
CONTINUOUS
 10
77.336471
 20
580.633560
 40
29.500000
 50
120.000000
 51
210.000000
 39
0
 62
13
  0
ARC
  8
default
  6
CONTINUOUS
 10
77.336471
 20
580.633560
 40
32.500000
 50
120.000000
 51
210.000000
 39
0
 62
13
  0
ARC
  8
default
  6
CONTINUOUS
 10
77.336471
 20
580.633560
 40
35.500000
 50
120.000000
 51
210.000000
 39
0
 62
13
  0
ARC
  8
default
  6
CONTINUOUS
 10
77.336471
 20
580.633560
 40
38.500000
 50
120.000000
 51
210.000000
 39
0
 62
13
  0
ARC
  8
default
  6
CONTINUOUS
 10
77.336471
 20
580.633560
 40
41.500000
 50
120.000000
 51
210.000000
 39
0
 62
13
  0
ARC
  8
default
  6
CONTINUOUS
 10
77.336471
 20
580.633560
 40
44.500000
 50
120.000000
 51
210.000000
 39
0
 62
13
  0
ARC
  8
default
  6
CONTINUOUS
 10
77.336471
 20
580.633560
 40
47.500000
 50
120.000000
 51
210.000000
 39
0
 62
13
  0
ARC
  8
default
  6
CONTINUOUS
 10
77.336471
 20
580.633560
 40
50.500000
 50
120.000000
 51
210.000000
 39
0
 62
13
  0
ARC
  8
default
  6
CONTINUOUS
 10
77.336471
 20
580.633560
 40
53.500000
 50
120.000000
 51
210.000000
 39
0
 62
13
  0
ARC
  8
default
  6
CONTINUOUS
 10
77.336471
 20
580.633560
 40
56.500000
 50
120.000000
 51
210.000000
 39
0
 62
13
  0
ARC
  8
default
  6
CONTINUOUS
 10
77.336471
 20
580.633560
 40
59.500000
 50
120.000000
 51
210.000000
 39
0
 62
13
  0
ARC
  8
default
  6
CONTINUOUS
 10
77.336471
 20
580.633560
 40
62.500000
 50
120.000000
 51
210.000000
 39
0
 62
13
  0
ARC
  8
default
  6
CONTINUOUS
 10
77.336471
 20
580.633560
 40
65.500000
 50
120.000000
 51
210.000000
 39
0
 62
13
  0
ARC
  8
default
  6
CONTINUOUS
 10
77.336471
 20
580.633560
 40
68.500000
 50
120.000000
 51
210.000000
 39
0
 62
13
  0
ARC
  8
default
  6
CONTINUOUS
 10
77.336471
 20
580.633560
 40
71.500000
 50
120.000000
 51
210.000000
 39
0
 62
13
  0
ARC
  8
default
  6
CONTINUOUS
 10
77.336471
 20
580.633560
 40
29.500000
 50
300.000000
 51
30.000000
 39
0
 62
13
  0
ARC
  8
default
  6
CONTINUOUS
 10
77.336471
 20
580.633560
 40
32.500000
 50
300.000000
 51
30.000000
 39
0
 62
13
  0
ARC
  8
default
  6
CONTINUOUS
 10
77.336471
 20
580.633560
 40
35.500000
 50
300.000000
 51
30.000000
 39
0
 62
13
  0
ARC
  8
default
  6
CONTINUOUS
 10
77.336471
 20
580.633560
 40
38.500000
 50
300.000000
 51
30.000000
 39
0
 62
13
  0
ARC
  8
default
  6
CONTINUOUS
 10
77.336471
 20
580.633560
 40
41.500000
 50
300.000000
 51
30.000000
 39
0
 62
13
  0
ARC
  8
default
  6
CONTINUOUS
 10
77.336471
 20
580.633560
 40
44.500000
 50
300.000000
 51
30.000000
 39
0
 62
13
  0
ARC
  8
default
  6
CONTINUOUS
 10
77.336471
 20
580.633560
 40
47.500000
 50
300.000000
 51
30.000000
 39
0
 62
13
  0
ARC
  8
default
  6
CONTINUOUS
 10
77.336471
 20
580.633560
 40
50.500000
 50
300.000000
 51
30.000000
 39
0
 62
13
  0
ARC
  8
default
  6
CONTINUOUS
 10
77.336471
 20
580.633560
 40
53.500000
 50
300.000000
 51
30.000000
 39
0
 62
13
  0
ARC
  8
default
  6
CONTINUOUS
 10
77.336471
 20
580.633560
 40
56.500000
 50
300.000000
 51
30.000000
 39
0
 62
13
  0
ARC
  8
default
  6
CONTINUOUS
 10
77.336471
 20
580.633560
 40
59.500000
 50
300.000000
 51
30.000000
 39
0
 62
13
  0
ARC
  8
default
  6
CONTINUOUS
 10
77.336471
 20
580.633560
 40
62.500000
 50
300.000000
 51
30.000000
 39
0
 62
13
  0
ARC
  8
default
  6
CONTINUOUS
 10
77.336471
 20
580.633560
 40
65.500000
 50
300.000000
 51
30.000000
 39
0
 62
13
  0
ARC
  8
default
  6
CONTINUOUS
 10
77.336471
 20
580.633560
 40
68.500000
 50
300.000000
 51
30.000000
 39
0
 62
13
  0
ARC
  8
default
  6
CONTINUOUS
 10
77.336471
 20
580.633560
 40
71.500000
 50
300.000000
 51
30.000000
 39
0
 62
13
  0
LINE
  8
default
  6
CONTINUOUS
 10
96.132704
 20
569.644287
 11
99.109123
 21
580.752432
 39
0
 62
9
  0
LINE
  8
default
  6
CONTINUOUS
 10
58.540238
 20
591.622832
 11
55.563819
 21
580.514687
 39
0
 62
9
  0
POINT
  8
default
  6
CONTINUOUS
 10
71.577747
 20
559.141710
 39
0
 62
9
  0
POINT
  8
default
  6
CONTINUOUS
 10
83.095195
 20
602.125409
 39
0
 62
9
  0
POINT
  8
default
  6
CONTINUOUS
 10
77.336471
 20
580.633560
 39
0
 62
9
  0
CIRCLE
  8
default
  6
CONTINUOUS
 10
419.763992
 20
671.212183
 40
16.000000
 39
0
 62
0
  0
LINE
  8
default
  6
CONTINUOUS
 10
439.014969
 20
685.201909
 11
443.546730
 21
670.379185
 39
0
 62
0
  0
LINE
  8
default
  6
CONTINUOUS
 10
443.546730
 20
670.379185
 11
440.199663
 21
669.355884
 39
0
 62
0
  0
LINE
  8
default
  6
CONTINUOUS
 10
440.199663
 20
669.355884
 11
435.667902
 21
684.178608
 39
0
 62
0
  0
LINE
  8
default
  6
CONTINUOUS
 10
435.667902
 20
684.178608
 11
439.014969
 21
685.201909
 39
0
 62
0
  0
LINE
  8
default
  6
CONTINUOUS
 10
399.328321
 20
673.068483
 11
403.860083
 21
658.245759
 39
0
 62
0
  0
LINE
  8
default
  6
CONTINUOUS
 10
403.860083
 20
658.245759
 11
400.513016
 21
657.222458
 39
0
 62
0
  0
LINE
  8
default
  6
CONTINUOUS
 10
400.513016
 20
657.222458
 11
395.981255
 21
672.045182
 39
0
 62
0
  0
LINE
  8
default
  6
CONTINUOUS
 10
395.981255
 20
672.045182
 11
399.328321
 21
673.068483
 39
0
 62
0
  0
ARC
  8
default
  6
CONTINUOUS
 10
419.763992
 20
671.212183
 40
27.500000
 50
62.000000
 51
152.000000
 39
0
 62
0
  0
LINE
  8
default
  6
CONTINUOUS
 10
395.482934
 20
684.122651
 11
353.984397
 21
706.187815
 39
0
 62
0
  0
ARC
  8
default
  6
CONTINUOUS
 10
419.763992
 20
671.212183
 40
74.500000
 50
152.000000
 51
242.000000
 39
0
 62
0
  0
LINE
  8
default
  6
CONTINUOUS
 10
406.853525
 20
646.931125
 11
384.788361
 21
605.432588
 39
0
 62
0
  0
ARC
  8
default
  6
CONTINUOUS
 10
419.763992
 20
671.212183
 40
27.500000
 50
242.000000
 51
332.000000
 39
0
 62
0
  0
LINE
  8
default
  6
CONTINUOUS
 10
444.045050
 20
658.301716
 11
485.543588
 21
636.236552
 39
0
 62
0
  0
ARC
  8
default
  6
CONTINUOUS
 10
419.763992
 20
671.212183
 40
74.500000
 50
332.000000
 51
62.000000
 39
0
 62
0
  0
LINE
  8
default
  6
CONTINUOUS
 10
432.674460
 20
695.493242
 11
454.739624
 21
736.991779
 39
0
 62
0
  0
ARC
  8
default
  6
CONTINUOUS
 10
485.543588
 20
636.236552
 40
2.000000
 50
242.000000
 51
332.000000
 39
0
 62
9
  0
ARC
  8
default
  6
CONTINUOUS
 10
454.739624
 20
736.991779
 40
2.000000
 50
62.000000
 51
152.000000
 39
0
 62
9
  0
ARC
  8
default
  6
CONTINUOUS
 10
419.763992
 20
671.212183
 40
76.500000
 50
332.000000
 51
62.000000
 39
0
 62
9
  0
ARC
  8
default
  6
CONTINUOUS
 10
384.788361
 20
605.432588
 40
2.000000
 50
242.000000
 51
332.000000
 39
0
 62
9
  0
ARC
  8
default
  6
CONTINUOUS
 10
353.984397
 20
706.187815
 40
2.000000
 50
62.000000
 51
152.000000
 39
0
 62
9
  0
ARC
  8
default
  6
CONTINUOUS
 10
419.763992
 20
671.212183
 40
76.500000
 50
152.000000
 51
242.000000
 39
0
 62
9
  0
LINE
  8
default
  6
CONTINUOUS
 10
431.815643
 20
698.138151
 11
452.973729
 21
737.930723
 39
0
 62
9
  0
ARC
  8
default
  6
CONTINUOUS
 10
419.763992
 20
671.212183
 40
29.500000
 50
65.887442
 51
148.112558
 39
0
 62
9
  0
LINE
  8
default
  6
CONTINUOUS
 10
394.715911
 20
686.795624
 11
354.923339
 21
707.953710
 39
0
 62
9
  0
LINE
  8
default
  6
CONTINUOUS
 10
407.712341
 20
644.286216
 11
386.554256
 21
604.493644
 39
0
 62
9
  0
ARC
  8
default
  6
CONTINUOUS
 10
419.763992
 20
671.212183
 40
29.500000
 50
245.887442
 51
328.112558
 39
0
 62
9
  0
LINE
  8
default
  6
CONTINUOUS
 10
444.812073
 20
655.628742
 11
484.604645
 21
634.470657
 39
0
 62
9
  0
ARC
  8
default
  6
CONTINUOUS
 10
419.763992
 20
671.212183
 40
29.500000
 50
332.000000
 51
62.000000
 39
0
 62
13
  0
ARC
  8
default
  6
CONTINUOUS
 10
419.763992
 20
671.212183
 40
32.500000
 50
332.000000
 51
62.000000
 39
0
 62
13
  0
ARC
  8
default
  6
CONTINUOUS
 10
419.763992
 20
671.212183
 40
35.500000
 50
332.000000
 51
62.000000
 39
0
 62
13
  0
ARC
  8
default
  6
CONTINUOUS
 10
419.763992
 20
671.212183
 40
38.500000
 50
332.000000
 51
62.000000
 39
0
 62
13
  0
ARC
  8
default
  6
CONTINUOUS
 10
419.763992
 20
671.212183
 40
41.500000
 50
332.000000
 51
62.000000
 39
0
 62
13
  0
ARC
  8
default
  6
CONTINUOUS
 10
419.763992
 20
671.212183
 40
44.500000
 50
332.000000
 51
62.000000
 39
0
 62
13
  0
ARC
  8
default
  6
CONTINUOUS
 10
419.763992
 20
671.212183
 40
47.500000
 50
332.000000
 51
62.000000
 39
0
 62
13
  0
ARC
  8
default
  6
CONTINUOUS
 10
419.763992
 20
671.212183
 40
50.500000
 50
332.000000
 51
62.000000
 39
0
 62
13
  0
ARC
  8
default
  6
CONTINUOUS
 10
419.763992
 20
671.212183
 40
53.500000
 50
332.000000
 51
62.000000
 39
0
 62
13
  0
ARC
  8
default
  6
CONTINUOUS
 10
419.763992
 20
671.212183
 40
56.500000
 50
332.000000
 51
62.000000
 39
0
 62
13
  0
ARC
  8
default
  6
CONTINUOUS
 10
419.763992
 20
671.212183
 40
59.500000
 50
332.000000
 51
62.000000
 39
0
 62
13
  0
ARC
  8
default
  6
CONTINUOUS
 10
419.763992
 20
671.212183
 40
62.500000
 50
332.000000
 51
62.000000
 39
0
 62
13
  0
ARC
  8
default
  6
CONTINUOUS
 10
419.763992
 20
671.212183
 40
65.500000
 50
332.000000
 51
62.000000
 39
0
 62
13
  0
ARC
  8
default
  6
CONTINUOUS
 10
419.763992
 20
671.212183
 40
68.500000
 50
332.000000
 51
62.000000
 39
0
 62
13
  0
ARC
  8
default
  6
CONTINUOUS
 10
419.763992
 20
671.212183
 40
71.500000
 50
332.000000
 51
62.000000
 39
0
 62
13
  0
ARC
  8
default
  6
CONTINUOUS
 10
419.763992
 20
671.212183
 40
29.500000
 50
152.000000
 51
242.000000
 39
0
 62
13
  0
ARC
  8
default
  6
CONTINUOUS
 10
419.763992
 20
671.212183
 40
32.500000
 50
152.000000
 51
242.000000
 39
0
 62
13
  0
ARC
  8
default
  6
CONTINUOUS
 10
419.763992
 20
671.212183
 40
35.500000
 50
152.000000
 51
242.000000
 39
0
 62
13
  0
ARC
  8
default
  6
CONTINUOUS
 10
419.763992
 20
671.212183
 40
38.500000
 50
152.000000
 51
242.000000
 39
0
 62
13
  0
ARC
  8
default
  6
CONTINUOUS
 10
419.763992
 20
671.212183
 40
41.500000
 50
152.000000
 51
242.000000
 39
0
 62
13
  0
ARC
  8
default
  6
CONTINUOUS
 10
419.763992
 20
671.212183
 40
44.500000
 50
152.000000
 51
242.000000
 39
0
 62
13
  0
ARC
  8
default
  6
CONTINUOUS
 10
419.763992
 20
671.212183
 40
47.500000
 50
152.000000
 51
242.000000
 39
0
 62
13
  0
ARC
  8
default
  6
CONTINUOUS
 10
419.763992
 20
671.212183
 40
50.500000
 50
152.000000
 51
242.000000
 39
0
 62
13
  0
ARC
  8
default
  6
CONTINUOUS
 10
419.763992
 20
671.212183
 40
53.500000
 50
152.000000
 51
242.000000
 39
0
 62
13
  0
ARC
  8
default
  6
CONTINUOUS
 10
419.763992
 20
671.212183
 40
56.500000
 50
152.000000
 51
242.000000
 39
0
 62
13
  0
ARC
  8
default
  6
CONTINUOUS
 10
419.763992
 20
671.212183
 40
59.500000
 50
152.000000
 51
242.000000
 39
0
 62
13
  0
ARC
  8
default
  6
CONTINUOUS
 10
419.763992
 20
671.212183
 40
62.500000
 50
152.000000
 51
242.000000
 39
0
 62
13
  0
ARC
  8
default
  6
CONTINUOUS
 10
419.763992
 20
671.212183
 40
65.500000
 50
152.000000
 51
242.000000
 39
0
 62
13
  0
ARC
  8
default
  6
CONTINUOUS
 10
419.763992
 20
671.212183
 40
68.500000
 50
152.000000
 51
242.000000
 39
0
 62
13
  0
ARC
  8
default
  6
CONTINUOUS
 10
419.763992
 20
671.212183
 40
71.500000
 50
152.000000
 51
242.000000
 39
0
 62
13
  0
LINE
  8
default
  6
CONTINUOUS
 10
398.000455
 20
670.571129
 11
401.362729
 21
659.573626
 39
0
 62
9
  0
LINE
  8
default
  6
CONTINUOUS
 10
441.527529
 20
671.853238
 11
438.165255
 21
682.850741
 39
0
 62
9
  0
POINT
  8
default
  6
CONTINUOUS
 10
413.258722
 20
692.489964
 39
0
 62
9
  0
POINT
  8
default
  6
CONTINUOUS
 10
426.269263
 20
649.934403
 39
0
 62
9
  0
POINT
  8
default
  6
CONTINUOUS
 10
419.763992
 20
671.212183
 39
0
 62
9
  0
CIRCLE
  8
default
  6
CONTINUOUS
 10
418.865409
 20
581.353855
 40
16.000000
 39
0
 62
0
  0
LINE
  8
default
  6
CONTINUOUS
 10
438.116385
 20
595.343580
 11
442.648147
 21
580.520856
 39
0
 62
0
  0
LINE
  8
default
  6
CONTINUOUS
 10
442.648147
 20
580.520856
 11
439.301080
 21
579.497555
 39
0
 62
0
  0
LINE
  8
default
  6
CONTINUOUS
 10
439.301080
 20
579.497555
 11
434.769319
 21
594.320279
 39
0
 62
0
  0
LINE
  8
default
  6
CONTINUOUS
 10
434.769319
 20
594.320279
 11
438.116385
 21
595.343580
 39
0
 62
0
  0
LINE
  8
default
  6
CONTINUOUS
 10
398.429738
 20
583.210154
 11
402.961499
 21
568.387431
 39
0
 62
0
  0
LINE
  8
default
  6
CONTINUOUS
 10
402.961499
 20
568.387431
 11
399.614433
 21
567.364130
 39
0
 62
0
  0
LINE
  8
default
  6
CONTINUOUS
 10
399.614433
 20
567.364130
 11
395.082671
 21
582.186853
 39
0
 62
0
  0
LINE
  8
default
  6
CONTINUOUS
 10
395.082671
 20
582.186853
 11
398.429738
 21
583.210154
 39
0
 62
0
  0
ARC
  8
default
  6
CONTINUOUS
 10
418.865409
 20
581.353855
 40
27.500000
 50
62.000000
 51
152.000000
 39
0
 62
0
  0
LINE
  8
default
  6
CONTINUOUS
 10
394.584351
 20
594.264323
 11
353.085814
 21
616.329486
 39
0
 62
0
  0
ARC
  8
default
  6
CONTINUOUS
 10
418.865409
 20
581.353855
 40
74.500000
 50
152.000000
 51
242.000000
 39
0
 62
0
  0
LINE
  8
default
  6
CONTINUOUS
 10
405.954941
 20
557.072797
 11
383.889778
 21
515.574260
 39
0
 62
0
  0
ARC
  8
default
  6
CONTINUOUS
 10
418.865409
 20
581.353855
 40
27.500000
 50
242.000000
 51
332.000000
 39
0
 62
0
  0
LINE
  8
default
  6
CONTINUOUS
 10
443.146467
 20
568.443387
 11
484.645004
 21
546.378224
 39
0
 62
0
  0
ARC
  8
default
  6
CONTINUOUS
 10
418.865409
 20
581.353855
 40
74.500000
 50
332.000000
 51
62.000000
 39
0
 62
0
  0
LINE
  8
default
  6
CONTINUOUS
 10
431.775877
 20
605.634913
 11
453.841040
 21
647.133450
 39
0
 62
0
  0
ARC
  8
default
  6
CONTINUOUS
 10
484.645004
 20
546.378224
 40
2.000000
 50
242.000000
 51
332.000000
 39
0
 62
9
  0
ARC
  8
default
  6
CONTINUOUS
 10
453.841040
 20
647.133450
 40
2.000000
 50
62.000000
 51
152.000000
 39
0
 62
9
  0
ARC
  8
default
  6
CONTINUOUS
 10
418.865409
 20
581.353855
 40
76.500000
 50
332.000000
 51
62.000000
 39
0
 62
9
  0
ARC
  8
default
  6
CONTINUOUS
 10
383.889778
 20
515.574260
 40
2.000000
 50
242.000000
 51
332.000000
 39
0
 62
9
  0
ARC
  8
default
  6
CONTINUOUS
 10
353.085814
 20
616.329486
 40
2.000000
 50
62.000000
 51
152.000000
 39
0
 62
9
  0
ARC
  8
default
  6
CONTINUOUS
 10
418.865409
 20
581.353855
 40
76.500000
 50
152.000000
 51
242.000000
 39
0
 62
9
  0
LINE
  8
default
  6
CONTINUOUS
 10
430.917060
 20
608.279822
 11
452.075145
 21
648.072394
 39
0
 62
9
  0
ARC
  8
default
  6
CONTINUOUS
 10
418.865409
 20
581.353855
 40
29.500000
 50
65.887442
 51
148.112558
 39
0
 62
9
  0
LINE
  8
default
  6
CONTINUOUS
 10
393.817328
 20
596.937296
 11
354.024756
 21
618.095382
 39
0
 62
9
  0
LINE
  8
default
  6
CONTINUOUS
 10
406.813758
 20
554.427888
 11
385.655672
 21
514.635316
 39
0
 62
9
  0
ARC
  8
default
  6
CONTINUOUS
 10
418.865409
 20
581.353855
 40
29.500000
 50
245.887442
 51
328.112558
 39
0
 62
9
  0
LINE
  8
default
  6
CONTINUOUS
 10
443.913490
 20
565.770414
 11
483.706062
 21
544.612328
 39
0
 62
9
  0
ARC
  8
default
  6
CONTINUOUS
 10
418.865409
 20
581.353855
 40
29.500000
 50
332.000000
 51
62.000000
 39
0
 62
13
  0
ARC
  8
default
  6
CONTINUOUS
 10
418.865409
 20
581.353855
 40
32.500000
 50
332.000000
 51
62.000000
 39
0
 62
13
  0
ARC
  8
default
  6
CONTINUOUS
 10
418.865409
 20
581.353855
 40
35.500000
 50
332.000000
 51
62.000000
 39
0
 62
13
  0
ARC
  8
default
  6
CONTINUOUS
 10
418.865409
 20
581.353855
 40
38.500000
 50
332.000000
 51
62.000000
 39
0
 62
13
  0
ARC
  8
default
  6
CONTINUOUS
 10
418.865409
 20
581.353855
 40
41.500000
 50
332.000000
 51
62.000000
 39
0
 62
13
  0
ARC
  8
default
  6
CONTINUOUS
 10
418.865409
 20
581.353855
 40
44.500000
 50
332.000000
 51
62.000000
 39
0
 62
13
  0
ARC
  8
default
  6
CONTINUOUS
 10
418.865409
 20
581.353855
 40
47.500000
 50
332.000000
 51
62.000000
 39
0
 62
13
  0
ARC
  8
default
  6
CONTINUOUS
 10
418.865409
 20
581.353855
 40
50.500000
 50
332.000000
 51
62.000000
 39
0
 62
13
  0
ARC
  8
default
  6
CONTINUOUS
 10
418.865409
 20
581.353855
 40
53.500000
 50
332.000000
 51
62.000000
 39
0
 62
13
  0
ARC
  8
default
  6
CONTINUOUS
 10
418.865409
 20
581.353855
 40
56.500000
 50
332.000000
 51
62.000000
 39
0
 62
13
  0
ARC
  8
default
  6
CONTINUOUS
 10
418.865409
 20
581.353855
 40
59.500000
 50
332.000000
 51
62.000000
 39
0
 62
13
  0
ARC
  8
default
  6
CONTINUOUS
 10
418.865409
 20
581.353855
 40
62.500000
 50
332.000000
 51
62.000000
 39
0
 62
13
  0
ARC
  8
default
  6
CONTINUOUS
 10
418.865409
 20
581.353855
 40
65.500000
 50
332.000000
 51
62.000000
 39
0
 62
13
  0
ARC
  8
default
  6
CONTINUOUS
 10
418.865409
 20
581.353855
 40
68.500000
 50
332.000000
 51
62.000000
 39
0
 62
13
  0
ARC
  8
default
  6
CONTINUOUS
 10
418.865409
 20
581.353855
 40
71.500000
 50
332.000000
 51
62.000000
 39
0
 62
13
  0
ARC
  8
default
  6
CONTINUOUS
 10
418.865409
 20
581.353855
 40
29.500000
 50
152.000000
 51
242.000000
 39
0
 62
13
  0
ARC
  8
default
  6
CONTINUOUS
 10
418.865409
 20
581.353855
 40
32.500000
 50
152.000000
 51
242.000000
 39
0
 62
13
  0
ARC
  8
default
  6
CONTINUOUS
 10
418.865409
 20
581.353855
 40
35.500000
 50
152.000000
 51
242.000000
 39
0
 62
13
  0
ARC
  8
default
  6
CONTINUOUS
 10
418.865409
 20
581.353855
 40
38.500000
 50
152.000000
 51
242.000000
 39
0
 62
13
  0
ARC
  8
default
  6
CONTINUOUS
 10
418.865409
 20
581.353855
 40
41.500000
 50
152.000000
 51
242.000000
 39
0
 62
13
  0
ARC
  8
default
  6
CONTINUOUS
 10
418.865409
 20
581.353855
 40
44.500000
 50
152.000000
 51
242.000000
 39
0
 62
13
  0
ARC
  8
default
  6
CONTINUOUS
 10
418.865409
 20
581.353855
 40
47.500000
 50
152.000000
 51
242.000000
 39
0
 62
13
  0
ARC
  8
default
  6
CONTINUOUS
 10
418.865409
 20
581.353855
 40
50.500000
 50
152.000000
 51
242.000000
 39
0
 62
13
  0
ARC
  8
default
  6
CONTINUOUS
 10
418.865409
 20
581.353855
 40
53.500000
 50
152.000000
 51
242.000000
 39
0
 62
13
  0
ARC
  8
default
  6
CONTINUOUS
 10
418.865409
 20
581.353855
 40
56.500000
 50
152.000000
 51
242.000000
 39
0
 62
13
  0
ARC
  8
default
  6
CONTINUOUS
 10
418.865409
 20
581.353855
 40
59.500000
 50
152.000000
 51
242.000000
 39
0
 62
13
  0
ARC
  8
default
  6
CONTINUOUS
 10
418.865409
 20
581.353855
 40
62.500000
 50
152.000000
 51
242.000000
 39
0
 62
13
  0
ARC
  8
default
  6
CONTINUOUS
 10
418.865409
 20
581.353855
 40
65.500000
 50
152.000000
 51
242.000000
 39
0
 62
13
  0
ARC
  8
default
  6
CONTINUOUS
 10
418.865409
 20
581.353855
 40
68.500000
 50
152.000000
 51
242.000000
 39
0
 62
13
  0
ARC
  8
default
  6
CONTINUOUS
 10
418.865409
 20
581.353855
 40
71.500000
 50
152.000000
 51
242.000000
 39
0
 62
13
  0
LINE
  8
default
  6
CONTINUOUS
 10
397.101872
 20
580.712801
 11
400.464146
 21
569.715298
 39
0
 62
9
  0
LINE
  8
default
  6
CONTINUOUS
 10
440.628946
 20
581.994909
 11
437.266672
 21
592.992412
 39
0
 62
9
  0
POINT
  8
default
  6
CONTINUOUS
 10
412.360139
 20
602.631636
 39
0
 62
9
  0
POINT
  8
default
  6
CONTINUOUS
 10
425.370679
 20
560.076074
 39
0
 62
9
  0
POINT
  8
default
  6
CONTINUOUS
 10
418.865409
 20
581.353855
 39
0
 62
9
  0
CIRCLE
  8
default
  6
CONTINUOUS
 10
126.197151
 20
874.056020
 40
125.000000
 39
0
 62
0
  0
CIRCLE
  8
default
  6
CONTINUOUS
 10
126.197151
 20
874.056020
 40
16.000000
 39
0
 62
0
  0
CIRCLE
  8
default
  6
CONTINUOUS
 10
15.858807
 20
896.003681
 40
2.500000
 39
0
 62
0
  0
CIRCLE
  8
default
  6
CONTINUOUS
 10
32.656820
 20
936.557671
 40
2.500000
 39
0
 62
0
  0
CIRCLE
  8
default
  6
CONTINUOUS
 10
63.695500
 20
967.596351
 40
2.500000
 39
0
 62
0
  0
CIRCLE
  8
default
  6
CONTINUOUS
 10
104.249490
 20
984.394364
 40
2.500000
 39
0
 62
0
  0
CIRCLE
  8
default
  6
CONTINUOUS
 10
148.144812
 20
984.394364
 40
2.500000
 39
0
 62
0
  0
CIRCLE
  8
default
  6
CONTINUOUS
 10
188.698802
 20
967.596351
 40
2.500000
 39
0
 62
0
  0
CIRCLE
  8
default
  6
CONTINUOUS
 10
219.737482
 20
936.557671
 40
2.500000
 39
0
 62
0
  0
CIRCLE
  8
default
  6
CONTINUOUS
 10
236.535495
 20
896.003681
 40
2.500000
 39
0
 62
0
  0
CIRCLE
  8
default
  6
CONTINUOUS
 10
236.535495
 20
852.108359
 40
2.500000
 39
0
 62
0
  0
CIRCLE
  8
default
  6
CONTINUOUS
 10
219.737482
 20
811.554369
 40
2.500000
 39
0
 62
0
  0
CIRCLE
  8
default
  6
CONTINUOUS
 10
188.698802
 20
780.515689
 40
2.500000
 39
0
 62
0
  0
CIRCLE
  8
default
  6
CONTINUOUS
 10
148.144812
 20
763.717676
 40
2.500000
 39
0
 62
0
  0
CIRCLE
  8
default
  6
CONTINUOUS
 10
104.249490
 20
763.717676
 40
2.500000
 39
0
 62
0
  0
CIRCLE
  8
default
  6
CONTINUOUS
 10
63.695500
 20
780.515689
 40
2.500000
 39
0
 62
0
  0
CIRCLE
  8
default
  6
CONTINUOUS
 10
32.656820
 20
811.554369
 40
2.500000
 39
0
 62
0
  0
CIRCLE
  8
default
  6
CONTINUOUS
 10
15.858807
 20
852.108359
 40
2.500000
 39
0
 62
0
  0
CIRCLE
  8
default
  6
CONTINUOUS
 10
44.895752
 20
907.732162
 40
2.500000
 39
0
 62
0
  0
CIRCLE
  8
default
  6
CONTINUOUS
 10
92.521009
 20
955.357419
 40
2.500000
 39
0
 62
0
  0
CIRCLE
  8
default
  6
CONTINUOUS
 10
159.873293
 20
955.357419
 40
2.500000
 39
0
 62
0
  0
CIRCLE
  8
default
  6
CONTINUOUS
 10
207.498550
 20
907.732162
 40
2.500000
 39
0
 62
0
  0
CIRCLE
  8
default
  6
CONTINUOUS
 10
207.498550
 20
840.379878
 40
2.500000
 39
0
 62
0
  0
CIRCLE
  8
default
  6
CONTINUOUS
 10
159.873293
 20
792.754621
 40
2.500000
 39
0
 62
0
  0
CIRCLE
  8
default
  6
CONTINUOUS
 10
92.521009
 20
792.754621
 40
2.500000
 39
0
 62
0
  0
CIRCLE
  8
default
  6
CONTINUOUS
 10
44.895752
 20
840.379878
 40
2.500000
 39
0
 62
0
  0
CIRCLE
  8
default
  6
CONTINUOUS
 10
39.888046
 20
891.223968
 40
6.000000
 39
0
 62
0
  0
CIRCLE
  8
default
  6
CONTINUOUS
 10
53.027825
 20
922.946201
 40
6.000000
 39
0
 62
0
  0
CIRCLE
  8
default
  6
CONTINUOUS
 10
77.306970
 20
947.225346
 40
6.000000
 39
0
 62
0
  0
CIRCLE
  8
default
  6
CONTINUOUS
 10
109.029203
 20
960.365125
 40
6.000000
 39
0
 62
0
  0
CIRCLE
  8
default
  6
CONTINUOUS
 10
143.365099
 20
960.365125
 40
6.000000
 39
0
 62
0
  0
CIRCLE
  8
default
  6
CONTINUOUS
 10
175.087332
 20
947.225346
 40
6.000000
 39
0
 62
0
  0
CIRCLE
  8
default
  6
CONTINUOUS
 10
199.366477
 20
922.946201
 40
6.000000
 39
0
 62
0
  0
CIRCLE
  8
default
  6
CONTINUOUS
 10
212.506256
 20
891.223968
 40
6.000000
 39
0
 62
0
  0
CIRCLE
  8
default
  6
CONTINUOUS
 10
212.506256
 20
856.888072
 40
6.000000
 39
0
 62
0
  0
CIRCLE
  8
default
  6
CONTINUOUS
 10
199.366477
 20
825.165839
 40
6.000000
 39
0
 62
0
  0
CIRCLE
  8
default
  6
CONTINUOUS
 10
175.087332
 20
800.886694
 40
6.000000
 39
0
 62
0
  0
CIRCLE
  8
default
  6
CONTINUOUS
 10
143.365099
 20
787.746915
 40
6.000000
 39
0
 62
0
  0
CIRCLE
  8
default
  6
CONTINUOUS
 10
109.029203
 20
787.746915
 40
6.000000
 39
0
 62
0
  0
CIRCLE
  8
default
  6
CONTINUOUS
 10
77.306970
 20
800.886694
 40
6.000000
 39
0
 62
0
  0
CIRCLE
  8
default
  6
CONTINUOUS
 10
53.027825
 20
825.165839
 40
6.000000
 39
0
 62
0
  0
CIRCLE
  8
default
  6
CONTINUOUS
 10
39.888046
 20
856.888072
 40
6.000000
 39
0
 62
0
  0
ARC
  8
default
  6
CONTINUOUS
 10
52.447151
 20
874.056020
 40
3.750000
 50
90.000000
 51
270.000000
 39
0
 62
0
  0
ARC
  8
default
  6
CONTINUOUS
 10
89.947151
 20
874.056020
 40
3.750000
 50
270.000000
 51
90.000000
 39
0
 62
0
  0
LINE
  8
default
  6
CONTINUOUS
 10
52.447151
 20
877.806020
 11
89.947151
 21
877.806020
 39
0
 62
0
  0
LINE
  8
default
  6
CONTINUOUS
 10
89.947151
 20
870.306020
 11
52.447151
 21
870.306020
 39
0
 62
0
  0
POINT
  8
default
  6
CONTINUOUS
 10
32.656820
 20
936.557671
 39
0
 62
9
  0
POINT
  8
default
  6
CONTINUOUS
 10
63.695500
 20
967.596351
 39
0
 62
9
  0
POINT
  8
default
  6
CONTINUOUS
 10
104.249490
 20
984.394364
 39
0
 62
9
  0
POINT
  8
default
  6
CONTINUOUS
 10
148.144812
 20
984.394364
 39
0
 62
9
  0
POINT
  8
default
  6
CONTINUOUS
 10
188.698802
 20
967.596351
 39
0
 62
9
  0
POINT
  8
default
  6
CONTINUOUS
 10
219.737482
 20
936.557671
 39
0
 62
9
  0
POINT
  8
default
  6
CONTINUOUS
 10
236.535495
 20
896.003681
 39
0
 62
9
  0
POINT
  8
default
  6
CONTINUOUS
 10
236.535495
 20
852.108359
 39
0
 62
9
  0
POINT
  8
default
  6
CONTINUOUS
 10
219.737482
 20
811.554369
 39
0
 62
9
  0
POINT
  8
default
  6
CONTINUOUS
 10
188.698802
 20
780.515689
 39
0
 62
9
  0
POINT
  8
default
  6
CONTINUOUS
 10
148.144812
 20
763.717676
 39
0
 62
9
  0
POINT
  8
default
  6
CONTINUOUS
 10
104.249490
 20
763.717676
 39
0
 62
9
  0
POINT
  8
default
  6
CONTINUOUS
 10
63.695500
 20
780.515689
 39
0
 62
9
  0
POINT
  8
default
  6
CONTINUOUS
 10
32.656820
 20
811.554369
 39
0
 62
9
  0
POINT
  8
default
  6
CONTINUOUS
 10
15.858807
 20
852.108359
 39
0
 62
9
  0
POINT
  8
default
  6
CONTINUOUS
 10
15.858807
 20
896.003681
 39
0
 62
9
  0
POINT
  8
default
  6
CONTINUOUS
 10
39.888046
 20
891.223968
 39
0
 62
9
  0
POINT
  8
default
  6
CONTINUOUS
 10
44.895752
 20
907.732162
 39
0
 62
9
  0
POINT
  8
default
  6
CONTINUOUS
 10
53.027825
 20
922.946201
 39
0
 62
9
  0
POINT
  8
default
  6
CONTINUOUS
 10
77.306970
 20
947.225346
 39
0
 62
9
  0
POINT
  8
default
  6
CONTINUOUS
 10
92.521009
 20
955.357419
 39
0
 62
9
  0
POINT
  8
default
  6
CONTINUOUS
 10
109.029203
 20
960.365125
 39
0
 62
9
  0
POINT
  8
default
  6
CONTINUOUS
 10
143.365099
 20
960.365125
 39
0
 62
9
  0
POINT
  8
default
  6
CONTINUOUS
 10
159.873293
 20
955.357419
 39
0
 62
9
  0
POINT
  8
default
  6
CONTINUOUS
 10
175.087332
 20
947.225346
 39
0
 62
9
  0
POINT
  8
default
  6
CONTINUOUS
 10
199.366477
 20
922.946201
 39
0
 62
9
  0
POINT
  8
default
  6
CONTINUOUS
 10
207.498550
 20
907.732162
 39
0
 62
9
  0
POINT
  8
default
  6
CONTINUOUS
 10
212.506256
 20
891.223968
 39
0
 62
9
  0
POINT
  8
default
  6
CONTINUOUS
 10
212.506256
 20
856.888072
 39
0
 62
9
  0
POINT
  8
default
  6
CONTINUOUS
 10
207.498550
 20
840.379878
 39
0
 62
9
  0
POINT
  8
default
  6
CONTINUOUS
 10
199.366477
 20
825.165839
 39
0
 62
9
  0
POINT
  8
default
  6
CONTINUOUS
 10
175.087332
 20
800.886694
 39
0
 62
9
  0
POINT
  8
default
  6
CONTINUOUS
 10
159.873293
 20
792.754621
 39
0
 62
9
  0
POINT
  8
default
  6
CONTINUOUS
 10
143.365099
 20
787.746915
 39
0
 62
9
  0
POINT
  8
default
  6
CONTINUOUS
 10
109.029203
 20
787.746915
 39
0
 62
9
  0
POINT
  8
default
  6
CONTINUOUS
 10
92.521009
 20
792.754621
 39
0
 62
9
  0
POINT
  8
default
  6
CONTINUOUS
 10
77.306970
 20
800.886694
 39
0
 62
9
  0
POINT
  8
default
  6
CONTINUOUS
 10
53.027825
 20
825.165839
 39
0
 62
9
  0
POINT
  8
default
  6
CONTINUOUS
 10
44.895752
 20
840.379878
 39
0
 62
9
  0
POINT
  8
default
  6
CONTINUOUS
 10
39.888046
 20
856.888072
 39
0
 62
9
  0
POINT
  8
default
  6
CONTINUOUS
 10
126.197151
 20
874.056020
 39
0
 62
9
  0
CIRCLE
  8
default
  6
CONTINUOUS
 10
374.473826
 20
874.056020
 40
125.000000
 39
0
 62
0
  0
CIRCLE
  8
default
  6
CONTINUOUS
 10
374.473826
 20
874.056020
 40
16.000000
 39
0
 62
0
  0
CIRCLE
  8
default
  6
CONTINUOUS
 10
264.135482
 20
896.003681
 40
2.500000
 39
0
 62
0
  0
CIRCLE
  8
default
  6
CONTINUOUS
 10
280.933495
 20
936.557671
 40
2.500000
 39
0
 62
0
  0
CIRCLE
  8
default
  6
CONTINUOUS
 10
311.972175
 20
967.596351
 40
2.500000
 39
0
 62
0
  0
CIRCLE
  8
default
  6
CONTINUOUS
 10
352.526165
 20
984.394364
 40
2.500000
 39
0
 62
0
  0
CIRCLE
  8
default
  6
CONTINUOUS
 10
396.421487
 20
984.394364
 40
2.500000
 39
0
 62
0
  0
CIRCLE
  8
default
  6
CONTINUOUS
 10
436.975477
 20
967.596351
 40
2.500000
 39
0
 62
0
  0
CIRCLE
  8
default
  6
CONTINUOUS
 10
468.014157
 20
936.557671
 40
2.500000
 39
0
 62
0
  0
CIRCLE
  8
default
  6
CONTINUOUS
 10
484.812170
 20
896.003681
 40
2.500000
 39
0
 62
0
  0
CIRCLE
  8
default
  6
CONTINUOUS
 10
484.812170
 20
852.108359
 40
2.500000
 39
0
 62
0
  0
CIRCLE
  8
default
  6
CONTINUOUS
 10
468.014157
 20
811.554369
 40
2.500000
 39
0
 62
0
  0
CIRCLE
  8
default
  6
CONTINUOUS
 10
436.975477
 20
780.515689
 40
2.500000
 39
0
 62
0
  0
CIRCLE
  8
default
  6
CONTINUOUS
 10
396.421487
 20
763.717676
 40
2.500000
 39
0
 62
0
  0
CIRCLE
  8
default
  6
CONTINUOUS
 10
352.526165
 20
763.717676
 40
2.500000
 39
0
 62
0
  0
CIRCLE
  8
default
  6
CONTINUOUS
 10
311.972175
 20
780.515689
 40
2.500000
 39
0
 62
0
  0
CIRCLE
  8
default
  6
CONTINUOUS
 10
280.933495
 20
811.554369
 40
2.500000
 39
0
 62
0
  0
CIRCLE
  8
default
  6
CONTINUOUS
 10
264.135482
 20
852.108359
 40
2.500000
 39
0
 62
0
  0
CIRCLE
  8
default
  6
CONTINUOUS
 10
293.172427
 20
907.732162
 40
2.500000
 39
0
 62
0
  0
CIRCLE
  8
default
  6
CONTINUOUS
 10
340.797684
 20
955.357419
 40
2.500000
 39
0
 62
0
  0
CIRCLE
  8
default
  6
CONTINUOUS
 10
408.149968
 20
955.357419
 40
2.500000
 39
0
 62
0
  0
CIRCLE
  8
default
  6
CONTINUOUS
 10
455.775225
 20
907.732162
 40
2.500000
 39
0
 62
0
  0
CIRCLE
  8
default
  6
CONTINUOUS
 10
455.775225
 20
840.379878
 40
2.500000
 39
0
 62
0
  0
CIRCLE
  8
default
  6
CONTINUOUS
 10
408.149968
 20
792.754621
 40
2.500000
 39
0
 62
0
  0
CIRCLE
  8
default
  6
CONTINUOUS
 10
340.797684
 20
792.754621
 40
2.500000
 39
0
 62
0
  0
CIRCLE
  8
default
  6
CONTINUOUS
 10
293.172427
 20
840.379878
 40
2.500000
 39
0
 62
0
  0
CIRCLE
  8
default
  6
CONTINUOUS
 10
288.164721
 20
891.223968
 40
6.000000
 39
0
 62
0
  0
CIRCLE
  8
default
  6
CONTINUOUS
 10
301.304500
 20
922.946201
 40
6.000000
 39
0
 62
0
  0
CIRCLE
  8
default
  6
CONTINUOUS
 10
325.583645
 20
947.225346
 40
6.000000
 39
0
 62
0
  0
CIRCLE
  8
default
  6
CONTINUOUS
 10
357.305878
 20
960.365125
 40
6.000000
 39
0
 62
0
  0
CIRCLE
  8
default
  6
CONTINUOUS
 10
391.641774
 20
960.365125
 40
6.000000
 39
0
 62
0
  0
CIRCLE
  8
default
  6
CONTINUOUS
 10
423.364007
 20
947.225346
 40
6.000000
 39
0
 62
0
  0
CIRCLE
  8
default
  6
CONTINUOUS
 10
447.643152
 20
922.946201
 40
6.000000
 39
0
 62
0
  0
CIRCLE
  8
default
  6
CONTINUOUS
 10
460.782931
 20
891.223968
 40
6.000000
 39
0
 62
0
  0
CIRCLE
  8
default
  6
CONTINUOUS
 10
460.782931
 20
856.888072
 40
6.000000
 39
0
 62
0
  0
CIRCLE
  8
default
  6
CONTINUOUS
 10
447.643152
 20
825.165839
 40
6.000000
 39
0
 62
0
  0
CIRCLE
  8
default
  6
CONTINUOUS
 10
423.364007
 20
800.886694
 40
6.000000
 39
0
 62
0
  0
CIRCLE
  8
default
  6
CONTINUOUS
 10
391.641774
 20
787.746915
 40
6.000000
 39
0
 62
0
  0
CIRCLE
  8
default
  6
CONTINUOUS
 10
357.305878
 20
787.746915
 40
6.000000
 39
0
 62
0
  0
CIRCLE
  8
default
  6
CONTINUOUS
 10
325.583645
 20
800.886694
 40
6.000000
 39
0
 62
0
  0
CIRCLE
  8
default
  6
CONTINUOUS
 10
301.304500
 20
825.165839
 40
6.000000
 39
0
 62
0
  0
CIRCLE
  8
default
  6
CONTINUOUS
 10
288.164721
 20
856.888072
 40
6.000000
 39
0
 62
0
  0
ARC
  8
default
  6
CONTINUOUS
 10
300.723826
 20
874.056020
 40
3.750000
 50
90.000000
 51
270.000000
 39
0
 62
0
  0
ARC
  8
default
  6
CONTINUOUS
 10
338.223826
 20
874.056020
 40
3.750000
 50
270.000000
 51
90.000000
 39
0
 62
0
  0
LINE
  8
default
  6
CONTINUOUS
 10
300.723826
 20
877.806020
 11
338.223826
 21
877.806020
 39
0
 62
0
  0
LINE
  8
default
  6
CONTINUOUS
 10
338.223826
 20
870.306020
 11
300.723826
 21
870.306020
 39
0
 62
0
  0
POINT
  8
default
  6
CONTINUOUS
 10
280.933495
 20
936.557671
 39
0
 62
9
  0
POINT
  8
default
  6
CONTINUOUS
 10
311.972175
 20
967.596351
 39
0
 62
9
  0
POINT
  8
default
  6
CONTINUOUS
 10
352.526165
 20
984.394364
 39
0
 62
9
  0
POINT
  8
default
  6
CONTINUOUS
 10
396.421487
 20
984.394364
 39
0
 62
9
  0
POINT
  8
default
  6
CONTINUOUS
 10
436.975477
 20
967.596351
 39
0
 62
9
  0
POINT
  8
default
  6
CONTINUOUS
 10
468.014157
 20
936.557671
 39
0
 62
9
  0
POINT
  8
default
  6
CONTINUOUS
 10
484.812170
 20
896.003681
 39
0
 62
9
  0
POINT
  8
default
  6
CONTINUOUS
 10
484.812170
 20
852.108359
 39
0
 62
9
  0
POINT
  8
default
  6
CONTINUOUS
 10
468.014157
 20
811.554369
 39
0
 62
9
  0
POINT
  8
default
  6
CONTINUOUS
 10
436.975477
 20
780.515689
 39
0
 62
9
  0
POINT
  8
default
  6
CONTINUOUS
 10
396.421487
 20
763.717676
 39
0
 62
9
  0
POINT
  8
default
  6
CONTINUOUS
 10
352.526165
 20
763.717676
 39
0
 62
9
  0
POINT
  8
default
  6
CONTINUOUS
 10
311.972175
 20
780.515689
 39
0
 62
9
  0
POINT
  8
default
  6
CONTINUOUS
 10
280.933495
 20
811.554369
 39
0
 62
9
  0
POINT
  8
default
  6
CONTINUOUS
 10
264.135482
 20
852.108359
 39
0
 62
9
  0
POINT
  8
default
  6
CONTINUOUS
 10
264.135482
 20
896.003681
 39
0
 62
9
  0
POINT
  8
default
  6
CONTINUOUS
 10
288.164721
 20
891.223968
 39
0
 62
9
  0
POINT
  8
default
  6
CONTINUOUS
 10
293.172427
 20
907.732162
 39
0
 62
9
  0
POINT
  8
default
  6
CONTINUOUS
 10
301.304500
 20
922.946201
 39
0
 62
9
  0
POINT
  8
default
  6
CONTINUOUS
 10
325.583645
 20
947.225346
 39
0
 62
9
  0
POINT
  8
default
  6
CONTINUOUS
 10
340.797684
 20
955.357419
 39
0
 62
9
  0
POINT
  8
default
  6
CONTINUOUS
 10
357.305878
 20
960.365125
 39
0
 62
9
  0
POINT
  8
default
  6
CONTINUOUS
 10
391.641774
 20
960.365125
 39
0
 62
9
  0
POINT
  8
default
  6
CONTINUOUS
 10
408.149968
 20
955.357419
 39
0
 62
9
  0
POINT
  8
default
  6
CONTINUOUS
 10
423.364007
 20
947.225346
 39
0
 62
9
  0
POINT
  8
default
  6
CONTINUOUS
 10
447.643152
 20
922.946201
 39
0
 62
9
  0
POINT
  8
default
  6
CONTINUOUS
 10
455.775225
 20
907.732162
 39
0
 62
9
  0
POINT
  8
default
  6
CONTINUOUS
 10
460.782931
 20
891.223968
 39
0
 62
9
  0
POINT
  8
default
  6
CONTINUOUS
 10
460.782931
 20
856.888072
 39
0
 62
9
  0
POINT
  8
default
  6
CONTINUOUS
 10
455.775225
 20
840.379878
 39
0
 62
9
  0
POINT
  8
default
  6
CONTINUOUS
 10
447.643152
 20
825.165839
 39
0
 62
9
  0
POINT
  8
default
  6
CONTINUOUS
 10
423.364007
 20
800.886694
 39
0
 62
9
  0
POINT
  8
default
  6
CONTINUOUS
 10
408.149968
 20
792.754621
 39
0
 62
9
  0
POINT
  8
default
  6
CONTINUOUS
 10
391.641774
 20
787.746915
 39
0
 62
9
  0
POINT
  8
default
  6
CONTINUOUS
 10
357.305878
 20
787.746915
 39
0
 62
9
  0
POINT
  8
default
  6
CONTINUOUS
 10
340.797684
 20
792.754621
 39
0
 62
9
  0
POINT
  8
default
  6
CONTINUOUS
 10
325.583645
 20
800.886694
 39
0
 62
9
  0
POINT
  8
default
  6
CONTINUOUS
 10
301.304500
 20
825.165839
 39
0
 62
9
  0
POINT
  8
default
  6
CONTINUOUS
 10
293.172427
 20
840.379878
 39
0
 62
9
  0
POINT
  8
default
  6
CONTINUOUS
 10
288.164721
 20
856.888072
 39
0
 62
9
  0
POINT
  8
default
  6
CONTINUOUS
 10
374.473826
 20
874.056020
 39
0
 62
9
  0
LINE
  8
default
  6
CONTINUOUS
 10
52.447151
 20
874.056020
 11
89.947151
 21
874.056020
 39
0
 62
9
  0
ARC
  8
default
  6
CONTINUOUS
 10
89.947151
 20
874.056020
 40
1.750000
 50
270.000000
 51
90.000000
 39
0
 62
5
  0
LINE
  8
default
  6
CONTINUOUS
 10
52.447151
 20
875.806020
 11
89.947151
 21
875.806020
 39
0
 62
5
  0
ARC
  8
default
  6
CONTINUOUS
 10
52.447151
 20
874.056020
 40
1.750000
 50
90.000000
 51
270.000000
 39
0
 62
5
  0
LINE
  8
default
  6
CONTINUOUS
 10
89.947151
 20
872.306020
 11
52.447151
 21
872.306020
 39
0
 62
5
  0
LINE
  8
default
  6
CONTINUOUS
 10
300.723826
 20
874.056020
 11
338.223826
 21
874.056020
 39
0
 62
9
  0
ARC
  8
default
  6
CONTINUOUS
 10
338.223826
 20
874.056020
 40
1.750000
 50
270.000000
 51
90.000000
 39
0
 62
5
  0
LINE
  8
default
  6
CONTINUOUS
 10
300.723826
 20
875.806020
 11
338.223826
 21
875.806020
 39
0
 62
5
  0
ARC
  8
default
  6
CONTINUOUS
 10
300.723826
 20
874.056020
 40
1.750000
 50
90.000000
 51
270.000000
 39
0
 62
5
  0
LINE
  8
default
  6
CONTINUOUS
 10
338.223826
 20
872.306020
 11
300.723826
 21
872.306020
 39
0
 62
5
  0
CIRCLE
  8
default
  6
CONTINUOUS
 10
126.197151
 20
874.056020
 40
123.000000
 39
0
 62
9
  0
CIRCLE
  8
default
  6
CONTINUOUS
 10
374.473826
 20
874.056020
 40
123.000000
 39
0
 62
9
  0
CIRCLE
  8
default
  6
CONTINUOUS
 10
126.197151
 20
874.056020
 40
14.000000
 39
0
 62
9
  0
CIRCLE
  8
default
  6
CONTINUOUS
 10
374.473826
 20
874.056020
 40
14.000000
 39
0
 62
9
  0
ENDSEC
  0
EOF
