0
SECTION
2
HEADER
9
$EXTMIN
10
-144,04296875
20
-22,16796875
30
10
9
$EXTMAX
10
151,85546875
20
88,671875
30
10
0
ENDSEC
0
SECTION
2
TABLES
0
TABLE
2
VPORT
0
VPORT
2
*ACTIVE
41
  1.000000
0
ENDTAB
0
TABLE
2
LAYER
0
LAYER
2
0
62
0
0
ENDTAB
0
ENDSEC
0
SECTION
2
BLOCKS
0
ENDSEC
0
SECTION
2
ENTITIES
0
LINE
8
0
62
0
10
-143,750000
20
-1,269531
30
10,000000
11
-143,359400
21
1,074219
31
10,000000
0
LINE
8
0
62
0
10
-143,359400
20
1,074219
30
10,000000
11
-142,773400
21
3,613281
31
10,000000
0
LINE
8
0
62
0
10
-142,773400
20
3,613281
30
10,000000
11
-142,285200
21
2,636719
31
10,000000
0
LINE
8
0
62
0
10
-142,285200
20
2,636719
30
10,000000
11
-141,699200
21
1,660156
31
10,000000
0
LINE
8
0
62
0
10
-141,699200
20
1,660156
30
10,000000
11
-141,113300
21
0,781250
31
10,000000
0
LINE
8
0
62
0
10
-141,113300
20
0,781250
30
10,000000
11
-140,429700
21
-0,097656
31
10,000000
0
LINE
8
0
62
0
10
-140,429700
20
-0,097656
30
10,000000
11
-139,648400
21
-0,976563
31
10,000000
0
LINE
8
0
62
0
10
-139,648400
20
-0,976563
30
10,000000
11
-138,867200
21
-1,757813
31
10,000000
0
LINE
8
0
62
0
10
-138,867200
20
-1,757813
30
10,000000
11
-138,085900
21
-2,539063
31
10,000000
0
LINE
8
0
62
0
10
-138,085900
20
-2,539063
30
10,000000
11
-137,207000
21
-3,320313
31
10,000000
0
LINE
8
0
62
0
10
-137,207000
20
-3,320313
30
10,000000
11
-136,230500
21
-4,003906
31
10,000000
0
LINE
8
0
62
0
10
-136,230500
20
-4,003906
30
10,000000
11
-135,253900
21
-4,589844
31
10,000000
0
LINE
8
0
62
0
10
-135,253900
20
-4,589844
30
10,000000
11
-134,082000
21
-5,078125
31
10,000000
0
LINE
8
0
62
0
10
-134,082000
20
-5,078125
30
10,000000
11
-132,812500
21
-5,566406
31
10,000000
0
LINE
8
0
62
0
10
-132,812500
20
-5,566406
30
10,000000
11
-131,445300
21
-5,859375
31
10,000000
0
LINE
8
0
62
0
10
-131,445300
20
-5,859375
30
10,000000
11
-129,980500
21
-6,054688
31
10,000000
0
LINE
8
0
62
0
10
-129,980500
20
-6,054688
30
10,000000
11
-128,418000
21
-6,250000
31
10,000000
0
LINE
8
0
62
0
10
-128,418000
20
-6,250000
30
10,000000
11
-126,757800
21
-6,250000
31
10,000000
0
LINE
8
0
62
0
10
-126,757800
20
-6,250000
30
10,000000
11
-123,046900
21
-6,054688
31
10,000000
0
LINE
8
0
62
0
10
-123,046900
20
-6,054688
30
10,000000
11
-119,335900
21
-5,468750
31
10,000000
0
LINE
8
0
62
0
10
-119,335900
20
-5,468750
30
10,000000
11
-115,820300
21
-4,589844
31
10,000000
0
LINE
8
0
62
0
10
-115,820300
20
-4,589844
30
10,000000
11
-112,304700
21
-3,320313
31
10,000000
0
LINE
8
0
62
0
10
-112,304700
20
-3,320313
30
10,000000
11
-108,886700
21
-1,660156
31
10,000000
0
LINE
8
0
62
0
10
-108,886700
20
-1,660156
30
10,000000
11
-105,664100
21
0,390625
31
10,000000
0
LINE
8
0
62
0
10
-105,664100
20
0,390625
30
10,000000
11
-102,441400
21
2,832031
31
10,000000
0
LINE
8
0
62
0
10
-102,441400
20
2,832031
30
10,000000
11
-99,316410
21
5,566406
31
10,000000
0
LINE
8
0
62
0
10
-99,316410
20
5,566406
30
10,000000
11
-96,289060
21
8,593750
31
10,000000
0
LINE
8
0
62
0
10
-96,289060
20
8,593750
30
10,000000
11
-93,359380
21
11,718750
31
10,000000
0
LINE
8
0
62
0
10
-93,359380
20
11,718750
30
10,000000
11
-90,625000
21
14,843750
31
10,000000
0
LINE
8
0
62
0
10
-90,625000
20
14,843750
30
10,000000
11
-87,988280
21
18,066410
31
10,000000
0
LINE
8
0
62
0
10
-87,988280
20
18,066410
30
10,000000
11
-85,449220
21
21,386720
31
10,000000
0
LINE
8
0
62
0
10
-85,449220
20
21,386720
30
10,000000
11
-83,105470
21
24,707030
31
10,000000
0
LINE
8
0
62
0
10
-83,105470
20
24,707030
30
10,000000
11
-80,859380
21
28,222660
31
10,000000
0
LINE
8
0
62
0
10
-80,859380
20
28,222660
30
10,000000
11
-78,710940
21
31,738280
31
10,000000
0
LINE
8
0
62
0
10
-78,710940
20
31,738280
30
10,000000
11
-77,441410
21
33,789060
31
10,000000
0
LINE
8
0
62
0
10
-77,441410
20
33,789060
30
10,000000
11
-76,269530
21
35,839840
31
10,000000
0
LINE
8
0
62
0
10
-76,269530
20
35,839840
30
10,000000
11
-75,195310
21
37,988280
31
10,000000
0
LINE
8
0
62
0
10
-75,195310
20
37,988280
30
10,000000
11
-74,121090
21
39,941410
31
10,000000
0
LINE
8
0
62
0
10
-74,121090
20
39,941410
30
10,000000
11
-73,046880
21
41,992190
31
10,000000
0
LINE
8
0
62
0
10
-73,046880
20
41,992190
30
10,000000
11
-72,070310
21
44,042970
31
10,000000
0
LINE
8
0
62
0
10
-72,070310
20
44,042970
30
10,000000
11
-71,093750
21
45,996090
31
10,000000
0
LINE
8
0
62
0
10
-71,093750
20
45,996090
30
10,000000
11
-70,214840
21
48,046880
31
10,000000
0
LINE
8
0
62
0
10
-70,214840
20
48,046880
30
10,000000
11
-69,335940
21
50,000000
31
10,000000
0
LINE
8
0
62
0
10
-69,335940
20
50,000000
30
10,000000
11
-68,554690
21
51,855470
31
10,000000
0
LINE
8
0
62
0
10
-68,554690
20
51,855470
30
10,000000
11
-67,773440
21
53,613280
31
10,000000
0
LINE
8
0
62
0
10
-67,773440
20
53,613280
30
10,000000
11
-67,089840
21
55,371090
31
10,000000
0
LINE
8
0
62
0
10
-67,089840
20
55,371090
30
10,000000
11
-66,503910
21
56,933590
31
10,000000
0
LINE
8
0
62
0
10
-66,503910
20
56,933590
30
10,000000
11
-65,917970
21
58,496090
31
10,000000
0
LINE
8
0
62
0
10
-65,917970
20
58,496090
30
10,000000
11
-65,332030
21
60,058590
31
10,000000
0
LINE
8
0
62
0
10
-65,332030
20
60,058590
30
10,000000
11
-64,843750
21
61,425780
31
10,000000
0
LINE
8
0
62
0
10
-64,843750
20
61,425780
30
10,000000
11
-63,867190
21
64,355470
31
10,000000
0
LINE
8
0
62
0
10
-63,867190
20
64,355470
30
10,000000
11
-63,085940
21
66,992190
31
10,000000
0
LINE
8
0
62
0
10
-63,085940
20
66,992190
30
10,000000
11
-62,402340
21
69,531250
31
10,000000
0
LINE
8
0
62
0
10
-62,402340
20
69,531250
30
10,000000
11
-61,914060
21
71,875000
31
10,000000
0
LINE
8
0
62
0
10
-61,914060
20
71,875000
30
10,000000
11
-61,523440
21
73,925780
31
10,000000
0
LINE
8
0
62
0
10
-61,523440
20
73,925780
30
10,000000
11
-61,328130
21
75,878910
31
10,000000
0
LINE
8
0
62
0
10
-61,328130
20
75,878910
30
10,000000
11
-61,230470
21
77,636720
31
10,000000
0
LINE
8
0
62
0
10
-61,230470
20
77,636720
30
10,000000
11
-61,230470
21
79,101560
31
10,000000
0
LINE
8
0
62
0
10
-61,230470
20
79,101560
30
10,000000
11
-61,523440
21
80,468750
31
10,000000
0
LINE
8
0
62
0
10
-61,523440
20
80,468750
30
10,000000
11
-62,011720
21
81,640630
31
10,000000
0
LINE
8
0
62
0
10
-62,011720
20
81,640630
30
10,000000
11
-62,890630
21
82,617190
31
10,000000
0
LINE
8
0
62
0
10
-62,890630
20
82,617190
30
10,000000
11
-63,964840
21
83,398440
31
10,000000
0
LINE
8
0
62
0
10
-63,964840
20
83,398440
30
10,000000
11
-65,429690
21
83,984380
31
10,000000
0
LINE
8
0
62
0
10
-65,429690
20
83,984380
30
10,000000
11
-67,089840
21
84,472660
31
10,000000
0
LINE
8
0
62
0
10
-67,089840
20
84,472660
30
10,000000
11
-69,042970
21
84,765630
31
10,000000
0
LINE
8
0
62
0
10
-69,042970
20
84,765630
30
10,000000
11
-71,289060
21
84,765630
31
10,000000
0
LINE
8
0
62
0
10
-71,289060
20
84,765630
30
10,000000
11
-75,292970
21
84,667970
31
10,000000
0
LINE
8
0
62
0
10
-75,292970
20
84,667970
30
10,000000
11
-79,199220
21
84,277340
31
10,000000
0
LINE
8
0
62
0
10
-79,199220
20
84,277340
30
10,000000
11
-83,007810
21
83,593750
31
10,000000
0
LINE
8
0
62
0
10
-83,007810
20
83,593750
30
10,000000
11
-86,621090
21
82,714840
31
10,000000
0
LINE
8
0
62
0
10
-86,621090
20
82,714840
30
10,000000
11
-90,234380
21
81,445310
31
10,000000
0
LINE
8
0
62
0
10
-90,234380
20
81,445310
30
10,000000
11
-93,652340
21
80,078130
31
10,000000
0
LINE
8
0
62
0
10
-93,652340
20
80,078130
30
10,000000
11
-96,875000
21
78,320310
31
10,000000
0
LINE
8
0
62
0
10
-96,875000
20
78,320310
30
10,000000
11
-100,097700
21
76,367190
31
10,000000
0
LINE
8
0
62
0
10
-100,097700
20
76,367190
30
10,000000
11
-103,125000
21
74,121090
31
10,000000
0
LINE
8
0
62
0
10
-103,125000
20
74,121090
30
10,000000
11
-105,859400
21
71,679690
31
10,000000
0
LINE
8
0
62
0
10
-105,859400
20
71,679690
30
10,000000
11
-108,398400
21
69,140630
31
10,000000
0
LINE
8
0
62
0
10
-108,398400
20
69,140630
30
10,000000
11
-110,644500
21
66,406250
31
10,000000
0
LINE
8
0
62
0
10
-110,644500
20
66,406250
30
10,000000
11
-112,695300
21
63,476560
31
10,000000
0
LINE
8
0
62
0
10
-112,695300
20
63,476560
30
10,000000
11
-114,550800
21
60,351560
31
10,000000
0
LINE
8
0
62
0
10
-114,550800
20
60,351560
30
10,000000
11
-116,113300
21
57,031250
31
10,000000
0
LINE
8
0
62
0
10
-116,113300
20
57,031250
30
10,000000
11
-117,382800
21
53,515630
31
10,000000
0
LINE
8
0
62
0
10
-117,382800
20
53,515630
30
10,000000
11
-118,066400
21
51,562500
31
10,000000
0
LINE
8
0
62
0
10
-118,066400
20
51,562500
30
10,000000
11
-118,652300
21
49,609380
31
10,000000
0
LINE
8
0
62
0
10
-118,652300
20
49,609380
30
10,000000
11
-119,043000
21
47,851560
31
10,000000
0
LINE
8
0
62
0
10
-119,043000
20
47,851560
30
10,000000
11
-119,433600
21
46,093750
31
10,000000
0
LINE
8
0
62
0
10
-119,433600
20
46,093750
30
10,000000
11
-119,726600
21
44,433590
31
10,000000
0
LINE
8
0
62
0
10
-119,726600
20
44,433590
30
10,000000
11
-119,921900
21
42,773440
31
10,000000
0
LINE
8
0
62
0
10
-119,921900
20
42,773440
30
10,000000
11
-120,019500
21
41,308590
31
10,000000
0
LINE
8
0
62
0
10
-120,019500
20
41,308590
30
10,000000
11
-120,019500
21
39,843750
31
10,000000
0
LINE
8
0
62
0
10
-120,019500
20
39,843750
30
10,000000
11
-119,921900
21
38,574220
31
10,000000
0
LINE
8
0
62
0
10
-119,921900
20
38,574220
30
10,000000
11
-119,824200
21
37,207030
31
10,000000
0
LINE
8
0
62
0
10
-119,824200
20
37,207030
30
10,000000
11
-119,726600
21
36,035160
31
10,000000
0
LINE
8
0
62
0
10
-119,726600
20
36,035160
30
10,000000
11
-119,531300
21
34,863280
31
10,000000
0
LINE
8
0
62
0
10
-119,531300
20
34,863280
30
10,000000
11
-119,335900
21
33,789060
31
10,000000
0
LINE
8
0
62
0
10
-119,335900
20
33,789060
30
10,000000
11
-119,043000
21
32,714840
31
10,000000
0
LINE
8
0
62
0
10
-119,043000
20
32,714840
30
10,000000
11
-118,750000
21
31,738280
31
10,000000
0
LINE
8
0
62
0
10
-118,750000
20
31,738280
30
10,000000
11
-118,457000
21
30,859380
31
10,000000
0
LINE
8
0
62
0
10
-118,457000
20
30,859380
30
10,000000
11
-118,164100
21
29,980470
31
10,000000
0
LINE
8
0
62
0
10
-118,164100
20
29,980470
30
10,000000
11
-117,773400
21
29,199220
31
10,000000
0
LINE
8
0
62
0
10
-117,773400
20
29,199220
30
10,000000
11
-117,480500
21
28,417970
31
10,000000
0
LINE
8
0
62
0
10
-117,480500
20
28,417970
30
10,000000
11
-117,089800
21
27,734380
31
10,000000
0
LINE
8
0
62
0
10
-117,089800
20
27,734380
30
10,000000
11
-116,796900
21
27,050780
31
10,000000
0
LINE
8
0
62
0
10
-116,796900
20
27,050780
30
10,000000
11
-116,406300
21
26,464840
31
10,000000
0
LINE
8
0
62
0
10
-116,406300
20
26,464840
30
10,000000
11
-116,113300
21
25,878910
31
10,000000
0
LINE
8
0
62
0
10
-116,113300
20
25,878910
30
10,000000
11
-115,722700
21
25,390630
31
10,000000
0
LINE
8
0
62
0
10
-115,722700
20
25,390630
30
10,000000
11
-115,429700
21
25,000000
31
10,000000
0
LINE
8
0
62
0
10
-115,429700
20
25,000000
30
10,000000
11
-115,136700
21
24,511720
31
10,000000
0
LINE
8
0
62
0
10
-115,136700
20
24,511720
30
10,000000
11
-114,941400
21
24,121090
31
10,000000
0
LINE
8
0
62
0
10
-114,941400
20
24,121090
30
10,000000
11
-114,746100
21
23,730470
31
10,000000
0
LINE
8
0
62
0
10
-114,746100
20
23,730470
30
10,000000
11
-114,648400
21
23,437500
31
10,000000
0
LINE
8
0
62
0
10
-114,648400
20
23,437500
30
10,000000
11
-114,550800
21
23,046880
31
10,000000
0
LINE
8
0
62
0
10
-114,550800
20
23,046880
30
10,000000
11
-114,550800
21
22,753910
31
10,000000
0
LINE
8
0
62
0
10
-114,550800
20
22,753910
30
10,000000
11
-114,648400
21
22,460940
31
10,000000
0
LINE
8
0
62
0
10
-114,648400
20
22,460940
30
10,000000
11
-114,746100
21
22,167970
31
10,000000
0
LINE
8
0
62
0
10
-114,746100
20
22,167970
30
10,000000
11
-114,941400
21
21,875000
31
10,000000
0
LINE
8
0
62
0
10
-114,941400
20
21,875000
30
10,000000
11
-115,136700
21
21,582030
31
10,000000
0
LINE
8
0
62
0
10
-115,136700
20
21,582030
30
10,000000
11
-115,332000
21
21,386720
31
10,000000
0
LINE
8
0
62
0
10
-115,332000
20
21,386720
30
10,000000
11
-115,625000
21
21,093750
31
10,000000
0
LINE
8
0
62
0
10
-115,625000
20
21,093750
30
10,000000
11
-115,918000
21
20,800780
31
10,000000
0
LINE
8
0
62
0
10
-115,918000
20
20,800780
30
10,000000
11
-116,308600
21
20,605470
31
10,000000
0
LINE
8
0
62
0
10
-116,308600
20
20,605470
30
10,000000
11
-116,699200
21
20,312500
31
10,000000
0
LINE
8
0
62
0
10
-116,699200
20
20,312500
30
10,000000
11
-117,089800
21
20,117190
31
10,000000
0
LINE
8
0
62
0
10
-117,089800
20
20,117190
30
10,000000
11
-117,578100
21
19,921880
31
10,000000
0
LINE
8
0
62
0
10
-117,578100
20
19,921880
30
10,000000
11
-117,968800
21
19,726560
31
10,000000
0
LINE
8
0
62
0
10
-117,968800
20
19,726560
30
10,000000
11
-118,359400
21
19,531250
31
10,000000
0
LINE
8
0
62
0
10
-118,359400
20
19,531250
30
10,000000
11
-118,847700
21
19,335940
31
10,000000
0
LINE
8
0
62
0
10
-118,847700
20
19,335940
30
10,000000
11
-119,238300
21
19,140630
31
10,000000
0
LINE
8
0
62
0
10
-119,238300
20
19,140630
30
10,000000
11
-119,726600
21
19,042970
31
10,000000
0
LINE
8
0
62
0
10
-119,726600
20
19,042970
30
10,000000
11
-120,117200
21
18,847660
31
10,000000
0
LINE
8
0
62
0
10
-120,117200
20
18,847660
30
10,000000
11
-120,410200
21
18,750000
31
10,000000
0
LINE
8
0
62
0
10
-120,410200
20
18,750000
30
10,000000
11
-120,703100
21
18,750000
31
10,000000
0
LINE
8
0
62
0
10
-120,703100
20
18,750000
30
10,000000
11
-120,898400
21
18,652340
31
10,000000
0
LINE
8
0
62
0
10
-120,898400
20
18,652340
30
10,000000
11
-121,191400
21
18,554690
31
10,000000
0
LINE
8
0
62
0
10
-121,191400
20
18,554690
30
10,000000
11
-121,484400
21
18,457030
31
10,000000
0
LINE
8
0
62
0
10
-121,484400
20
18,457030
30
10,000000
11
-121,777300
21
18,359380
31
10,000000
0
LINE
8
0
62
0
10
-121,777300
20
18,359380
30
10,000000
11
-121,972700
21
18,359380
31
10,000000
0
LINE
8
0
62
0
10
-121,972700
20
18,359380
30
10,000000
11
-122,265600
21
18,261720
31
10,000000
0
LINE
8
0
62
0
10
-122,265600
20
18,261720
30
10,000000
11
-122,558600
21
18,261720
31
10,000000
0
LINE
8
0
62
0
10
-122,558600
20
18,261720
30
10,000000
11
-122,753900
21
18,164060
31
10,000000
0
LINE
8
0
62
0
10
-122,753900
20
18,164060
30
10,000000
11
-123,046900
21
18,164060
31
10,000000
0
LINE
8
0
62
0
10
-123,046900
20
18,164060
30
10,000000
11
-123,242200
21
18,164060
31
10,000000
0
LINE
8
0
62
0
10
-123,242200
20
18,164060
30
10,000000
11
-123,437500
21
18,164060
31
10,000000
0
LINE
8
0
62
0
10
-123,437500
20
18,164060
30
10,000000
11
-123,632800
21
18,066410
31
10,000000
0
LINE
8
0
62
0
10
-123,632800
20
18,066410
30
10,000000
11
-123,828100
21
18,066410
31
10,000000
0
LINE
8
0
62
0
10
-123,828100
20
18,066410
30
10,000000
11
-123,925800
21
18,066410
31
10,000000
0
LINE
8
0
62
0
10
-123,925800
20
18,066410
30
10,000000
11
-124,707000
21
18,847660
31
10,000000
0
LINE
8
0
62
0
10
-124,707000
20
18,847660
30
10,000000
11
-125,293000
21
19,628910
31
10,000000
0
LINE
8
0
62
0
10
-125,293000
20
19,628910
30
10,000000
11
-125,878900
21
20,410160
31
10,000000
0
LINE
8
0
62
0
10
-125,878900
20
20,410160
30
10,000000
11
-126,367200
21
21,191410
31
10,000000
0
LINE
8
0
62
0
10
-126,367200
20
21,191410
30
10,000000
11
-126,855500
21
21,972660
31
10,000000
0
LINE
8
0
62
0
10
-126,855500
20
21,972660
30
10,000000
11
-127,246100
21
22,753910
31
10,000000
0
LINE
8
0
62
0
10
-127,246100
20
22,753910
30
10,000000
11
-127,636700
21
23,632810
31
10,000000
0
LINE
8
0
62
0
10
-127,636700
20
23,632810
30
10,000000
11
-127,929700
21
24,511720
31
10,000000
0
LINE
8
0
62
0
10
-127,929700
20
24,511720
30
10,000000
11
-128,222700
21
25,390630
31
10,000000
0
LINE
8
0
62
0
10
-128,222700
20
25,390630
30
10,000000
11
-128,418000
21
26,269530
31
10,000000
0
LINE
8
0
62
0
10
-128,418000
20
26,269530
30
10,000000
11
-128,613300
21
27,343750
31
10,000000
0
LINE
8
0
62
0
10
-128,613300
20
27,343750
30
10,000000
11
-128,808600
21
28,417970
31
10,000000
0
LINE
8
0
62
0
10
-128,808600
20
28,417970
30
10,000000
11
-128,906300
21
29,492190
31
10,000000
0
LINE
8
0
62
0
10
-128,906300
20
29,492190
30
10,000000
11
-129,003900
21
30,761720
31
10,000000
0
LINE
8
0
62
0
10
-129,003900
20
30,761720
30
10,000000
11
-129,101600
21
32,031250
31
10,000000
0
LINE
8
0
62
0
10
-129,101600
20
32,031250
30
10,000000
11
-129,101600
21
33,398440
31
10,000000
0
LINE
8
0
62
0
10
-129,101600
20
33,398440
30
10,000000
11
-129,101600
21
34,765630
31
10,000000
0
LINE
8
0
62
0
10
-129,101600
20
34,765630
30
10,000000
11
-129,003900
21
36,328130
31
10,000000
0
LINE
8
0
62
0
10
-129,003900
20
36,328130
30
10,000000
11
-128,710900
21
37,890630
31
10,000000
0
LINE
8
0
62
0
10
-128,710900
20
37,890630
30
10,000000
11
-128,418000
21
39,550780
31
10,000000
0
LINE
8
0
62
0
10
-128,418000
20
39,550780
30
10,000000
11
-128,125000
21
41,308590
31
10,000000
0
LINE
8
0
62
0
10
-128,125000
20
41,308590
30
10,000000
11
-127,636700
21
43,066410
31
10,000000
0
LINE
8
0
62
0
10
-127,636700
20
43,066410
30
10,000000
11
-127,050800
21
45,019530
31
10,000000
0
LINE
8
0
62
0
10
-127,050800
20
45,019530
30
10,000000
11
-126,367200
21
46,972660
31
10,000000
0
LINE
8
0
62
0
10
-126,367200
20
46,972660
30
10,000000
11
-126,367200
21
47,167970
31
10,000000
0
LINE
8
0
62
0
10
-126,367200
20
47,167970
30
10,000000
11
-124,414100
21
52,148440
31
10,000000
0
LINE
8
0
62
0
10
-124,414100
20
52,148440
30
10,000000
11
-122,168000
21
56,933590
31
10,000000
0
LINE
8
0
62
0
10
-122,168000
20
56,933590
30
10,000000
11
-119,531300
21
61,328130
31
10,000000
0
LINE
8
0
62
0
10
-119,531300
20
61,328130
30
10,000000
11
-116,601600
21
65,332030
31
10,000000
0
LINE
8
0
62
0
10
-116,601600
20
65,332030
30
10,000000
11
-113,378900
21
69,042970
31
10,000000
0
LINE
8
0
62
0
10
-113,378900
20
69,042970
30
10,000000
11
-109,765600
21
72,460940
31
10,000000
0
LINE
8
0
62
0
10
-109,765600
20
72,460940
30
10,000000
11
-105,859400
21
75,585940
31
10,000000
0
LINE
8
0
62
0
10
-105,859400
20
75,585940
30
10,000000
11
-101,660200
21
78,320310
31
10,000000
0
LINE
8
0
62
0
10
-101,660200
20
78,320310
30
10,000000
11
-97,070310
21
80,761720
31
10,000000
0
LINE
8
0
62
0
10
-97,070310
20
80,761720
30
10,000000
11
-92,382810
21
82,812500
31
10,000000
0
LINE
8
0
62
0
10
-92,382810
20
82,812500
30
10,000000
11
-87,304690
21
84,667970
31
10,000000
0
LINE
8
0
62
0
10
-87,304690
20
84,667970
30
10,000000
11
-82,128910
21
86,132810
31
10,000000
0
LINE
8
0
62
0
10
-82,128910
20
86,132810
30
10,000000
11
-76,660160
21
87,207030
31
10,000000
0
LINE
8
0
62
0
10
-76,660160
20
87,207030
30
10,000000
11
-70,898440
21
87,988280
31
10,000000
0
LINE
8
0
62
0
10
-70,898440
20
87,988280
30
10,000000
11
-64,941410
21
88,476560
31
10,000000
0
LINE
8
0
62
0
10
-64,941410
20
88,476560
30
10,000000
11
-58,789060
21
88,671880
31
10,000000
0
LINE
8
0
62
0
10
-58,789060
20
88,671880
30
10,000000
11
-56,250000
21
88,574220
31
10,000000
0
LINE
8
0
62
0
10
-56,250000
20
88,574220
30
10,000000
11
-53,906250
21
88,085940
31
10,000000
0
LINE
8
0
62
0
10
-53,906250
20
88,085940
30
10,000000
11
-51,855470
21
87,402340
31
10,000000
0
LINE
8
0
62
0
10
-51,855470
20
87,402340
30
10,000000
11
-50,097660
21
86,425780
31
10,000000
0
LINE
8
0
62
0
10
-50,097660
20
86,425780
30
10,000000
11
-48,535160
21
85,253910
31
10,000000
0
LINE
8
0
62
0
10
-48,535160
20
85,253910
30
10,000000
11
-47,363280
21
83,691410
31
10,000000
0
LINE
8
0
62
0
10
-47,363280
20
83,691410
30
10,000000
11
-46,386720
21
81,933590
31
10,000000
0
LINE
8
0
62
0
10
-46,386720
20
81,933590
30
10,000000
11
-45,703130
21
79,785160
31
10,000000
0
LINE
8
0
62
0
10
-45,703130
20
79,785160
30
10,000000
11
-45,214840
21
77,539060
31
10,000000
0
LINE
8
0
62
0
10
-45,214840
20
77,539060
30
10,000000
11
-44,824220
21
75,292970
31
10,000000
0
LINE
8
0
62
0
10
-44,824220
20
75,292970
30
10,000000
11
-44,433590
21
72,949220
31
10,000000
0
LINE
8
0
62
0
10
-44,433590
20
72,949220
30
10,000000
11
-44,238280
21
70,507810
31
10,000000
0
LINE
8
0
62
0
10
-44,238280
20
70,507810
30
10,000000
11
-44,140630
21
68,066410
31
10,000000
0
LINE
8
0
62
0
10
-44,140630
20
68,066410
30
10,000000
11
-44,042970
21
65,527340
31
10,000000
0
LINE
8
0
62
0
10
-44,042970
20
65,527340
30
10,000000
11
-44,042970
21
62,890630
31
10,000000
0
LINE
8
0
62
0
10
-44,042970
20
62,890630
30
10,000000
11
-44,238280
21
60,253910
31
10,000000
0
LINE
8
0
62
0
10
-44,238280
20
60,253910
30
10,000000
11
-44,238280
21
59,375000
31
10,000000
0
LINE
8
0
62
0
10
-44,238280
20
59,375000
30
10,000000
11
-44,335940
21
58,593750
31
10,000000
0
LINE
8
0
62
0
10
-44,335940
20
58,593750
30
10,000000
11
-44,433590
21
57,714840
31
10,000000
0
LINE
8
0
62
0
10
-44,433590
20
57,714840
30
10,000000
11
-44,531250
21
56,835940
31
10,000000
0
LINE
8
0
62
0
10
-44,531250
20
56,835940
30
10,000000
11
-44,531250
21
55,957030
31
10,000000
0
LINE
8
0
62
0
10
-44,531250
20
55,957030
30
10,000000
11
-44,628910
21
55,078130
31
10,000000
0
LINE
8
0
62
0
10
-44,628910
20
55,078130
30
10,000000
11
-44,726560
21
54,199220
31
10,000000
0
LINE
8
0
62
0
10
-44,726560
20
54,199220
30
10,000000
11
-44,824220
21
53,320310
31
10,000000
0
LINE
8
0
62
0
10
-44,824220
20
53,320310
30
10,000000
11
-44,921880
21
52,441410
31
10,000000
0
LINE
8
0
62
0
10
-44,921880
20
52,441410
30
10,000000
11
-45,019530
21
51,660160
31
10,000000
0
LINE
8
0
62
0
10
-45,019530
20
51,660160
30
10,000000
11
-45,117190
21
50,781250
31
10,000000
0
LINE
8
0
62
0
10
-45,117190
20
50,781250
30
10,000000
11
-45,214840
21
49,902340
31
10,000000
0
LINE
8
0
62
0
10
-45,214840
20
49,902340
30
10,000000
11
-45,312500
21
49,121090
31
10,000000
0
LINE
8
0
62
0
10
-45,312500
20
49,121090
30
10,000000
11
-45,312500
21
48,339840
31
10,000000
0
LINE
8
0
62
0
10
-45,312500
20
48,339840
30
10,000000
11
-45,410160
21
47,460940
31
10,000000
0
LINE
8
0
62
0
10
-45,410160
20
47,460940
30
10,000000
11
-45,507810
21
46,679690
31
10,000000
0
LINE
8
0
62
0
10
-45,507810
20
46,679690
30
10,000000
11
-45,605470
21
45,898440
31
10,000000
0
LINE
8
0
62
0
10
-45,605470
20
45,898440
30
10,000000
11
-45,605470
21
45,117190
31
10,000000
0
LINE
8
0
62
0
10
-45,605470
20
45,117190
30
10,000000
11
-45,703130
21
44,335940
31
10,000000
0
LINE
8
0
62
0
10
-45,703130
20
44,335940
30
10,000000
11
-45,800780
21
43,554690
31
10,000000
0
LINE
8
0
62
0
10
-45,800780
20
43,554690
30
10,000000
11
-45,800780
21
42,871090
31
10,000000
0
LINE
8
0
62
0
10
-45,800780
20
42,871090
30
10,000000
11
-45,898440
21
42,089840
31
10,000000
0
LINE
8
0
62
0
10
-45,898440
20
42,089840
30
10,000000
11
-45,898440
21
41,406250
31
10,000000
0
LINE
8
0
62
0
10
-45,898440
20
41,406250
30
10,000000
11
-45,898440
21
40,722660
31
10,000000
0
LINE
8
0
62
0
10
-45,898440
20
40,722660
30
10,000000
11
-45,996090
21
40,039060
31
10,000000
0
LINE
8
0
62
0
10
-45,996090
20
40,039060
30
10,000000
11
-45,996090
21
39,355470
31
10,000000
0
LINE
8
0
62
0
10
-45,996090
20
39,355470
30
10,000000
11
-45,996090
21
38,671880
31
10,000000
0
LINE
8
0
62
0
10
-45,996090
20
38,671880
30
10,000000
11
-45,996090
21
38,085940
31
10,000000
0
LINE
8
0
62
0
10
-45,996090
20
38,085940
30
10,000000
11
-45,898440
21
37,500000
31
10,000000
0
LINE
8
0
62
0
10
-45,898440
20
37,500000
30
10,000000
11
-45,898440
21
36,914060
31
10,000000
0
LINE
8
0
62
0
10
-45,898440
20
36,914060
30
10,000000
11
-45,800780
21
36,425780
31
10,000000
0
LINE
8
0
62
0
10
-45,800780
20
36,425780
30
10,000000
11
-45,800780
21
35,839840
31
10,000000
0
LINE
8
0
62
0
10
-45,800780
20
35,839840
30
10,000000
11
-45,019530
21
36,718750
31
10,000000
0
LINE
8
0
62
0
10
-45,019530
20
36,718750
30
10,000000
11
-44,140630
21
37,695310
31
10,000000
0
LINE
8
0
62
0
10
-44,140630
20
37,695310
30
10,000000
11
-43,261720
21
38,867190
31
10,000000
0
LINE
8
0
62
0
10
-43,261720
20
38,867190
30
10,000000
11
-42,285160
21
40,039060
31
10,000000
0
LINE
8
0
62
0
10
-42,285160
20
40,039060
30
10,000000
11
-41,308590
21
41,406250
31
10,000000
0
LINE
8
0
62
0
10
-41,308590
20
41,406250
30
10,000000
11
-40,332030
21
42,871090
31
10,000000
0
LINE
8
0
62
0
10
-40,332030
20
42,871090
30
10,000000
11
-39,257810
21
44,531250
31
10,000000
0
LINE
8
0
62
0
10
-39,257810
20
44,531250
30
10,000000
11
-38,085940
21
46,191410
31
10,000000
0
LINE
8
0
62
0
10
-38,085940
20
46,191410
30
10,000000
11
-36,914060
21
48,046880
31
10,000000
0
LINE
8
0
62
0
10
-36,914060
20
48,046880
30
10,000000
11
-35,742190
21
49,804690
31
10,000000
0
LINE
8
0
62
0
10
-35,742190
20
49,804690
30
10,000000
11
-34,472660
21
51,660160
31
10,000000
0
LINE
8
0
62
0
10
-34,472660
20
51,660160
30
10,000000
11
-33,105470
21
53,515630
31
10,000000
0
LINE
8
0
62
0
10
-33,105470
20
53,515630
30
10,000000
11
-31,738280
21
55,371090
31
10,000000
0
LINE
8
0
62
0
10
-31,738280
20
55,371090
30
10,000000
11
-30,371090
21
57,324220
31
10,000000
0
LINE
8
0
62
0
10
-30,371090
20
57,324220
30
10,000000
11
-28,906250
21
59,277340
31
10,000000
0
LINE
8
0
62
0
10
-28,906250
20
59,277340
30
10,000000
11
-27,441410
21
61,230470
31
10,000000
0
LINE
8
0
62
0
10
-27,441410
20
61,230470
30
10,000000
11
-25,488280
21
63,769530
31
10,000000
0
LINE
8
0
62
0
10
-25,488280
20
63,769530
30
10,000000
11
-23,339840
21
66,308590
31
10,000000
0
LINE
8
0
62
0
10
-23,339840
20
66,308590
30
10,000000
11
-21,191410
21
68,750000
31
10,000000
0
LINE
8
0
62
0
10
-21,191410
20
68,750000
30
10,000000
11
-19,042970
21
71,191410
31
10,000000
0
LINE
8
0
62
0
10
-19,042970
20
71,191410
30
10,000000
11
-16,796880
21
73,437500
31
10,000000
0
LINE
8
0
62
0
10
-16,796880
20
73,437500
30
10,000000
11
-14,453130
21
75,781250
31
10,000000
0
LINE
8
0
62
0
10
-14,453130
20
75,781250
30
10,000000
11
-12,011720
21
78,027340
31
10,000000
0
LINE
8
0
62
0
10
-12,011720
20
78,027340
30
10,000000
11
-9,570313
21
80,175780
31
10,000000
0
LINE
8
0
62
0
10
-9,570313
20
80,175780
30
10,000000
11
-7,031250
21
82,128910
31
10,000000
0
LINE
8
0
62
0
10
-7,031250
20
82,128910
30
10,000000
11
-4,492188
21
83,886720
31
10,000000
0
LINE
8
0
62
0
10
-4,492188
20
83,886720
30
10,000000
11
-1,855469
21
85,351560
31
10,000000
0
LINE
8
0
62
0
10
-1,855469
20
85,351560
30
10,000000
11
0,878906
21
86,523440
31
10,000000
0
LINE
8
0
62
0
10
0,878906
20
86,523440
30
10,000000
11
3,613281
21
87,500000
31
10,000000
0
LINE
8
0
62
0
10
3,613281
20
87,500000
30
10,000000
11
6,445313
21
88,183590
31
10,000000
0
LINE
8
0
62
0
10
6,445313
20
88,183590
30
10,000000
11
9,277344
21
88,574220
31
10,000000
0
LINE
8
0
62
0
10
9,277344
20
88,574220
30
10,000000
11
12,207030
21
88,671880
31
10,000000
0
LINE
8
0
62
0
10
12,207030
20
88,671880
30
10,000000
11
13,769530
21
88,671880
31
10,000000
0
LINE
8
0
62
0
10
13,769530
20
88,671880
30
10,000000
11
15,234380
21
88,476560
31
10,000000
0
LINE
8
0
62
0
10
15,234380
20
88,476560
30
10,000000
11
16,503910
21
88,378910
31
10,000000
0
LINE
8
0
62
0
10
16,503910
20
88,378910
30
10,000000
11
17,675780
21
88,085940
31
10,000000
0
LINE
8
0
62
0
10
17,675780
20
88,085940
30
10,000000
11
18,750000
21
87,695310
31
10,000000
0
LINE
8
0
62
0
10
18,750000
20
87,695310
30
10,000000
11
19,628910
21
87,304690
31
10,000000
0
LINE
8
0
62
0
10
19,628910
20
87,304690
30
10,000000
11
20,507810
21
86,816410
31
10,000000
0
LINE
8
0
62
0
10
20,507810
20
86,816410
30
10,000000
11
21,191410
21
86,230470
31
10,000000
0
LINE
8
0
62
0
10
21,191410
20
86,230470
30
10,000000
11
21,777340
21
85,644530
31
10,000000
0
LINE
8
0
62
0
10
21,777340
20
85,644530
30
10,000000
11
22,363280
21
84,960940
31
10,000000
0
LINE
8
0
62
0
10
22,363280
20
84,960940
30
10,000000
11
22,851560
21
84,277340
31
10,000000
0
LINE
8
0
62
0
10
22,851560
20
84,277340
30
10,000000
11
23,242190
21
83,593750
31
10,000000
0
LINE
8
0
62
0
10
23,242190
20
83,593750
30
10,000000
11
23,632810
21
82,812500
31
10,000000
0
LINE
8
0
62
0
10
23,632810
20
82,812500
30
10,000000
11
23,828130
21
82,031250
31
10,000000
0
LINE
8
0
62
0
10
23,828130
20
82,031250
30
10,000000
11
24,023440
21
81,250000
31
10,000000
0
LINE
8
0
62
0
10
24,023440
20
81,250000
30
10,000000
11
24,218750
21
80,371090
31
10,000000
0
LINE
8
0
62
0
10
24,218750
20
80,371090
30
10,000000
11
23,730470
21
81,054690
31
10,000000
0
LINE
8
0
62
0
10
23,730470
20
81,054690
30
10,000000
11
23,339840
21
81,738280
31
10,000000
0
LINE
8
0
62
0
10
23,339840
20
81,738280
30
10,000000
11
22,851560
21
82,324220
31
10,000000
0
LINE
8
0
62
0
10
22,851560
20
82,324220
30
10,000000
11
22,265630
21
82,910160
31
10,000000
0
LINE
8
0
62
0
10
22,265630
20
82,910160
30
10,000000
11
21,777340
21
83,496090
31
10,000000
0
LINE
8
0
62
0
10
21,777340
20
83,496090
30
10,000000
11
21,191410
21
83,984380
31
10,000000
0
LINE
8
0
62
0
10
21,191410
20
83,984380
30
10,000000
11
20,605470
21
84,472660
31
10,000000
0
LINE
8
0
62
0
10
20,605470
20
84,472660
30
10,000000
11
20,019530
21
84,960940
31
10,000000
0
LINE
8
0
62
0
10
20,019530
20
84,960940
30
10,000000
11
19,335940
21
85,351560
31
10,000000
0
LINE
8
0
62
0
10
19,335940
20
85,351560
30
10,000000
11
18,652340
21
85,742190
31
10,000000
0
LINE
8
0
62
0
10
18,652340
20
85,742190
30
10,000000
11
17,968750
21
86,035160
31
10,000000
0
LINE
8
0
62
0
10
17,968750
20
86,035160
30
10,000000
11
17,285160
21
86,328130
31
10,000000
0
LINE
8
0
62
0
10
17,285160
20
86,328130
30
10,000000
11
16,601560
21
86,523440
31
10,000000
0
LINE
8
0
62
0
10
16,601560
20
86,523440
30
10,000000
11
15,820310
21
86,718750
31
10,000000
0
LINE
8
0
62
0
10
15,820310
20
86,718750
30
10,000000
11
15,136720
21
86,816410
31
10,000000
0
LINE
8
0
62
0
10
15,136720
20
86,816410
30
10,000000
11
14,355470
21
86,914060
31
10,000000
0
LINE
8
0
62
0
10
14,355470
20
86,914060
30
10,000000
11
14,257810
21
87,011720
31
10,000000
0
LINE
8
0
62
0
10
14,257810
20
87,011720
30
10,000000
11
14,160160
21
87,011720
31
10,000000
0
LINE
8
0
62
0
10
14,160160
20
87,011720
30
10,000000
11
14,062500
21
87,011720
31
10,000000
0
LINE
8
0
62
0
10
14,062500
20
87,011720
30
10,000000
11
13,964840
21
87,011720
31
10,000000
0
LINE
8
0
62
0
10
13,964840
20
87,011720
30
10,000000
11
13,867190
21
87,011720
31
10,000000
0
LINE
8
0
62
0
10
13,867190
20
87,011720
30
10,000000
11
13,769530
21
87,109380
31
10,000000
0
LINE
8
0
62
0
10
13,769530
20
87,109380
30
10,000000
11
13,769530
21
87,109380
31
10,000000
0
LINE
8
0
62
0
10
13,769530
20
87,109380
30
10,000000
11
13,671880
21
87,109380
31
10,000000
0
LINE
8
0
62
0
10
13,671880
20
87,109380
30
10,000000
11
13,574220
21
87,109380
31
10,000000
0
LINE
8
0
62
0
10
13,574220
20
87,109380
30
10,000000
11
13,476560
21
87,109380
31
10,000000
0
LINE
8
0
62
0
10
13,476560
20
87,109380
30
10,000000
11
13,378910
21
87,109380
31
10,000000
0
LINE
8
0
62
0
10
13,378910
20
87,109380
30
10,000000
11
13,281250
21
87,109380
31
10,000000
0
LINE
8
0
62
0
10
13,281250
20
87,109380
30
10,000000
11
13,183590
21
87,109380
31
10,000000
0
LINE
8
0
62
0
10
13,183590
20
87,109380
30
10,000000
11
13,085940
21
87,109380
31
10,000000
0
LINE
8
0
62
0
10
13,085940
20
87,109380
30
10,000000
11
12,988280
21
87,109380
31
10,000000
0
LINE
8
0
62
0
10
12,988280
20
87,109380
30
10,000000
11
12,890630
21
87,109380
31
10,000000
0
LINE
8
0
62
0
10
12,890630
20
87,109380
30
10,000000
11
11,230470
21
87,011720
31
10,000000
0
LINE
8
0
62
0
10
11,230470
20
87,011720
30
10,000000
11
9,570313
21
86,718750
31
10,000000
0
LINE
8
0
62
0
10
9,570313
20
86,718750
30
10,000000
11
7,910156
21
86,328130
31
10,000000
0
LINE
8
0
62
0
10
7,910156
20
86,328130
30
10,000000
11
6,250000
21
85,644530
31
10,000000
0
LINE
8
0
62
0
10
6,250000
20
85,644530
30
10,000000
11
4,687500
21
84,863280
31
10,000000
0
LINE
8
0
62
0
10
4,687500
20
84,863280
30
10,000000
11
3,125000
21
83,984380
31
10,000000
0
LINE
8
0
62
0
10
3,125000
20
83,984380
30
10,000000
11
1,562500
21
82,812500
31
10,000000
0
LINE
8
0
62
0
10
1,562500
20
82,812500
30
10,000000
11
0,000000
21
81,542970
31
10,000000
0
LINE
8
0
62
0
10
0,000000
20
81,542970
30
10,000000
11
-1,464844
21
80,078130
31
10,000000
0
LINE
8
0
62
0
10
-1,464844
20
80,078130
30
10,000000
11
-2,929688
21
78,710940
31
10,000000
0
LINE
8
0
62
0
10
-2,929688
20
78,710940
30
10,000000
11
-4,296875
21
77,148440
31
10,000000
0
LINE
8
0
62
0
10
-4,296875
20
77,148440
30
10,000000
11
-5,566406
21
75,683590
31
10,000000
0
LINE
8
0
62
0
10
-5,566406
20
75,683590
30
10,000000
11
-6,738281
21
74,121090
31
10,000000
0
LINE
8
0
62
0
10
-6,738281
20
74,121090
30
10,000000
11
-7,910156
21
72,460940
31
10,000000
0
LINE
8
0
62
0
10
-7,910156
20
72,460940
30
10,000000
11
-8,984375
21
70,898440
31
10,000000
0
LINE
8
0
62
0
10
-8,984375
20
70,898440
30
10,000000
11
-9,960938
21
69,140630
31
10,000000
0
LINE
8
0
62
0
10
-9,960938
20
69,140630
30
10,000000
11
-10,253910
21
68,652340
31
10,000000
0
LINE
8
0
62
0
10
-10,253910
20
68,652340
30
10,000000
11
-10,546880
21
68,164060
31
10,000000
0
LINE
8
0
62
0
10
-10,546880
20
68,164060
30
10,000000
11
-10,839840
21
67,675780
31
10,000000
0
LINE
8
0
62
0
10
-10,839840
20
67,675780
30
10,000000
11
-11,035160
21
67,187500
31
10,000000
0
LINE
8
0
62
0
10
-11,035160
20
67,187500
30
10,000000
11
-11,328130
21
66,699220
31
10,000000
0
LINE
8
0
62
0
10
-11,328130
20
66,699220
30
10,000000
11
-11,523440
21
66,210940
31
10,000000
0
LINE
8
0
62
0
10
-11,523440
20
66,210940
30
10,000000
11
-11,816410
21
65,722660
31
10,000000
0
LINE
8
0
62
0
10
-11,816410
20
65,722660
30
10,000000
11
-12,011720
21
65,234380
31
10,000000
0
LINE
8
0
62
0
10
-12,011720
20
65,234380
30
10,000000
11
-12,207030
21
64,746090
31
10,000000
0
LINE
8
0
62
0
10
-12,207030
20
64,746090
30
10,000000
11
-12,500000
21
64,257810
31
10,000000
0
LINE
8
0
62
0
10
-12,500000
20
64,257810
30
10,000000
11
-12,695310
21
63,769530
31
10,000000
0
LINE
8
0
62
0
10
-12,695310
20
63,769530
30
10,000000
11
-12,890630
21
63,281250
31
10,000000
0
LINE
8
0
62
0
10
-12,890630
20
63,281250
30
10,000000
11
-13,085940
21
62,792970
31
10,000000
0
LINE
8
0
62
0
10
-13,085940
20
62,792970
30
10,000000
11
-13,281250
21
62,402340
31
10,000000
0
LINE
8
0
62
0
10
-13,281250
20
62,402340
30
10,000000
11
-13,378910
21
61,914060
31
10,000000
0
LINE
8
0
62
0
10
-13,378910
20
61,914060
30
10,000000
11
-13,574220
21
61,425780
31
10,000000
0
LINE
8
0
62
0
10
-13,574220
20
61,425780
30
10,000000
11
-14,160160
21
59,667970
31
10,000000
0
LINE
8
0
62
0
10
-14,160160
20
59,667970
30
10,000000
11
-14,648440
21
57,812500
31
10,000000
0
LINE
8
0
62
0
10
-14,648440
20
57,812500
30
10,000000
11
-15,039060
21
55,761720
31
10,000000
0
LINE
8
0
62
0
10
-15,039060
20
55,761720
30
10,000000
11
-15,527340
21
53,613280
31
10,000000
0
LINE
8
0
62
0
10
-15,527340
20
53,613280
30
10,000000
11
-15,820310
21
51,367190
31
10,000000
0
LINE
8
0
62
0
10
-15,820310
20
51,367190
30
10,000000
11
-16,210940
21
49,023440
31
10,000000
0
LINE
8
0
62
0
10
-16,210940
20
49,023440
30
10,000000
11
-16,406250
21
46,582030
31
10,000000
0
LINE
8
0
62
0
10
-16,406250
20
46,582030
30
10,000000
11
-16,601560
21
43,945310
31
10,000000
0
LINE
8
0
62
0
10
-16,601560
20
43,945310
30
10,000000
11
-16,796880
21
41,308590
31
10,000000
0
LINE
8
0
62
0
10
-16,796880
20
41,308590
30
10,000000
11
-16,894530
21
38,574220
31
10,000000
0
LINE
8
0
62
0
10
-16,894530
20
38,574220
30
10,000000
11
-16,894530
21
35,839840
31
10,000000
0
LINE
8
0
62
0
10
-16,894530
20
35,839840
30
10,000000
11
-16,796880
21
33,105470
31
10,000000
0
LINE
8
0
62
0
10
-16,796880
20
33,105470
30
10,000000
11
-16,601560
21
30,273440
31
10,000000
0
LINE
8
0
62
0
10
-16,601560
20
30,273440
30
10,000000
11
-16,406250
21
27,539060
31
10,000000
0
LINE
8
0
62
0
10
-16,406250
20
27,539060
30
10,000000
11
-16,113280
21
24,707030
31
10,000000
0
LINE
8
0
62
0
10
-16,113280
20
24,707030
30
10,000000
11
-15,722660
21
21,875000
31
10,000000
0
LINE
8
0
62
0
10
-15,722660
20
21,875000
30
10,000000
11
-15,136720
21
18,457030
31
10,000000
0
LINE
8
0
62
0
10
-15,136720
20
18,457030
30
10,000000
11
-14,355470
21
15,136720
31
10,000000
0
LINE
8
0
62
0
10
-14,355470
20
15,136720
30
10,000000
11
-13,574220
21
11,816410
31
10,000000
0
LINE
8
0
62
0
10
-13,574220
20
11,816410
30
10,000000
11
-12,597660
21
8,593750
31
10,000000
0
LINE
8
0
62
0
10
-12,597660
20
8,593750
30
10,000000
11
-11,425780
21
5,371094
31
10,000000
0
LINE
8
0
62
0
10
-11,425780
20
5,371094
30
10,000000
11
-10,156250
21
2,148438
31
10,000000
0
LINE
8
0
62
0
10
-10,156250
20
2,148438
30
10,000000
11
-8,789063
21
-0,976563
31
10,000000
0
LINE
8
0
62
0
10
-8,789063
20
-0,976563
30
10,000000
11
-7,226563
21
-4,003906
31
10,000000
0
LINE
8
0
62
0
10
-7,226563
20
-4,003906
30
10,000000
11
-5,566406
21
-7,031250
31
10,000000
0
LINE
8
0
62
0
10
-5,566406
20
-7,031250
30
10,000000
11
-3,613281
21
-9,765625
31
10,000000
0
LINE
8
0
62
0
10
-3,613281
20
-9,765625
30
10,000000
11
-1,562500
21
-12,304690
31
10,000000
0
LINE
8
0
62
0
10
-1,562500
20
-12,304690
30
10,000000
11
0,683594
21
-14,746090
31
10,000000
0
LINE
8
0
62
0
10
0,683594
20
-14,746090
30
10,000000
11
3,125000
21
-16,894530
31
10,000000
0
LINE
8
0
62
0
10
3,125000
20
-16,894530
30
10,000000
11
5,664063
21
-18,847660
31
10,000000
0
LINE
8
0
62
0
10
5,664063
20
-18,847660
30
10,000000
11
8,496094
21
-20,605470
31
10,000000
0
LINE
8
0
62
0
10
8,496094
20
-20,605470
30
10,000000
11
11,425780
21
-22,167970
31
10,000000
0
LINE
8
0
62
0
10
11,425780
20
-22,167970
30
10,000000
11
-0,976563
21
-22,167970
31
10,000000
0
LINE
8
0
62
0
10
-0,976563
20
-22,167970
30
10,000000
11
-5,761719
21
-21,972660
31
10,000000
0
LINE
8
0
62
0
10
-5,761719
20
-21,972660
30
10,000000
11
-10,058590
21
-21,386720
31
10,000000
0
LINE
8
0
62
0
10
-10,058590
20
-21,386720
30
10,000000
11
-13,964840
21
-20,507810
31
10,000000
0
LINE
8
0
62
0
10
-13,964840
20
-20,507810
30
10,000000
11
-17,480470
21
-19,140630
31
10,000000
0
LINE
8
0
62
0
10
-17,480470
20
-19,140630
30
10,000000
11
-20,507810
21
-17,480470
31
10,000000
0
LINE
8
0
62
0
10
-20,507810
20
-17,480470
30
10,000000
11
-23,242190
21
-15,429690
31
10,000000
0
LINE
8
0
62
0
10
-23,242190
20
-15,429690
30
10,000000
11
-25,488280
21
-12,988280
31
10,000000
0
LINE
8
0
62
0
10
-25,488280
20
-12,988280
30
10,000000
11
-27,343750
21
-10,156250
31
10,000000
0
LINE
8
0
62
0
10
-27,343750
20
-10,156250
30
10,000000
11
-28,906250
21
-7,128906
31
10,000000
0
LINE
8
0
62
0
10
-28,906250
20
-7,128906
30
10,000000
11
-30,175780
21
-4,003906
31
10,000000
0
LINE
8
0
62
0
10
-30,175780
20
-4,003906
30
10,000000
11
-31,347660
21
-0,878906
31
10,000000
0
LINE
8
0
62
0
10
-31,347660
20
-0,878906
30
10,000000
11
-32,226560
21
2,441406
31
10,000000
0
LINE
8
0
62
0
10
-32,226560
20
2,441406
30
10,000000
11
-32,910160
21
5,761719
31
10,000000
0
LINE
8
0
62
0
10
-32,910160
20
5,761719
30
10,000000
11
-33,496090
21
9,179688
31
10,000000
0
LINE
8
0
62
0
10
-33,496090
20
9,179688
30
10,000000
11
-33,789060
21
12,695310
31
10,000000
0
LINE
8
0
62
0
10
-33,789060
20
12,695310
30
10,000000
11
-33,789060
21
16,210940
31
10,000000
0
LINE
8
0
62
0
10
-33,789060
20
16,210940
30
10,000000
11
-33,789060
21
19,726560
31
10,000000
0
LINE
8
0
62
0
10
-33,789060
20
19,726560
30
10,000000
11
-33,593750
21
23,144530
31
10,000000
0
LINE
8
0
62
0
10
-33,593750
20
23,144530
30
10,000000
11
-33,398440
21
26,562500
31
10,000000
0
LINE
8
0
62
0
10
-33,398440
20
26,562500
30
10,000000
11
-33,007810
21
29,785160
31
10,000000
0
LINE
8
0
62
0
10
-33,007810
20
29,785160
30
10,000000
11
-32,519530
21
33,007810
31
10,000000
0
LINE
8
0
62
0
10
-32,519530
20
33,007810
30
10,000000
11
-32,031250
21
36,230470
31
10,000000
0
LINE
8
0
62
0
10
-32,031250
20
36,230470
30
10,000000
11
-31,347660
21
39,257810
31
10,000000
0
LINE
8
0
62
0
10
-31,347660
20
39,257810
30
10,000000
11
-30,566410
21
42,285160
31
10,000000
0
LINE
8
0
62
0
10
-30,566410
20
42,285160
30
10,000000
11
-29,785160
21
45,117190
31
10,000000
0
LINE
8
0
62
0
10
-29,785160
20
45,117190
30
10,000000
11
-29,101560
21
47,558590
31
10,000000
0
LINE
8
0
62
0
10
-29,101560
20
47,558590
30
10,000000
11
-28,515630
21
49,609380
31
10,000000
0
LINE
8
0
62
0
10
-28,515630
20
49,609380
30
10,000000
11
-28,125000
21
51,367190
31
10,000000
0
LINE
8
0
62
0
10
-28,125000
20
51,367190
30
10,000000
11
-27,734380
21
52,734380
31
10,000000
0
LINE
8
0
62
0
10
-27,734380
20
52,734380
30
10,000000
11
-27,441410
21
53,808590
31
10,000000
0
LINE
8
0
62
0
10
-27,441410
20
53,808590
30
10,000000
11
-27,246090
21
54,394530
31
10,000000
0
LINE
8
0
62
0
10
-27,246090
20
54,394530
30
10,000000
11
-27,148440
21
54,785160
31
10,000000
0
LINE
8
0
62
0
10
-27,148440
20
54,785160
30
10,000000
11
-28,125000
21
53,808590
31
10,000000
0
LINE
8
0
62
0
10
-28,125000
20
53,808590
30
10,000000
11
-29,003910
21
52,832030
31
10,000000
0
LINE
8
0
62
0
10
-29,003910
20
52,832030
30
10,000000
11
-30,078130
21
51,757810
31
10,000000
0
LINE
8
0
62
0
10
-30,078130
20
51,757810
30
10,000000
11
-31,054690
21
50,585940
31
10,000000
0
LINE
8
0
62
0
10
-31,054690
20
50,585940
30
10,000000
11
-32,128910
21
49,316410
31
10,000000
0
LINE
8
0
62
0
10
-32,128910
20
49,316410
30
10,000000
11
-33,105470
21
48,046880
31
10,000000
0
LINE
8
0
62
0
10
-33,105470
20
48,046880
30
10,000000
11
-34,179690
21
46,582030
31
10,000000
0
LINE
8
0
62
0
10
-34,179690
20
46,582030
30
10,000000
11
-35,351560
21
45,117190
31
10,000000
0
LINE
8
0
62
0
10
-35,351560
20
45,117190
30
10,000000
11
-36,425780
21
43,554690
31
10,000000
0
LINE
8
0
62
0
10
-36,425780
20
43,554690
30
10,000000
11
-37,500000
21
41,992190
31
10,000000
0
LINE
8
0
62
0
10
-37,500000
20
41,992190
30
10,000000
11
-38,671880
21
40,332030
31
10,000000
0
LINE
8
0
62
0
10
-38,671880
20
40,332030
30
10,000000
11
-39,746090
21
38,769530
31
10,000000
0
LINE
8
0
62
0
10
-39,746090
20
38,769530
30
10,000000
11
-40,820310
21
37,109380
31
10,000000
0
LINE
8
0
62
0
10
-40,820310
20
37,109380
30
10,000000
11
-41,894530
21
35,546880
31
10,000000
0
LINE
8
0
62
0
10
-41,894530
20
35,546880
30
10,000000
11
-42,968750
21
33,886720
31
10,000000
0
LINE
8
0
62
0
10
-42,968750
20
33,886720
30
10,000000
11
-44,042970
21
32,226560
31
10,000000
0
LINE
8
0
62
0
10
-44,042970
20
32,226560
30
10,000000
11
-45,312500
21
30,078130
31
10,000000
0
LINE
8
0
62
0
10
-45,312500
20
30,078130
30
10,000000
11
-46,582030
21
28,027340
31
10,000000
0
LINE
8
0
62
0
10
-46,582030
20
28,027340
30
10,000000
11
-47,851560
21
25,976560
31
10,000000
0
LINE
8
0
62
0
10
-47,851560
20
25,976560
30
10,000000
11
-49,121090
21
23,925780
31
10,000000
0
LINE
8
0
62
0
10
-49,121090
20
23,925780
30
10,000000
11
-50,292970
21
21,972660
31
10,000000
0
LINE
8
0
62
0
10
-50,292970
20
21,972660
30
10,000000
11
-51,464840
21
20,019530
31
10,000000
0
LINE
8
0
62
0
10
-51,464840
20
20,019530
30
10,000000
11
-52,636720
21
18,066410
31
10,000000
0
LINE
8
0
62
0
10
-52,636720
20
18,066410
30
10,000000
11
-53,710940
21
16,210940
31
10,000000
0
LINE
8
0
62
0
10
-53,710940
20
16,210940
30
10,000000
11
-54,785160
21
14,453130
31
10,000000
0
LINE
8
0
62
0
10
-54,785160
20
14,453130
30
10,000000
11
-55,761720
21
12,890630
31
10,000000
0
LINE
8
0
62
0
10
-55,761720
20
12,890630
30
10,000000
11
-56,640630
21
11,425780
31
10,000000
0
LINE
8
0
62
0
10
-56,640630
20
11,425780
30
10,000000
11
-57,421880
21
10,156250
31
10,000000
0
LINE
8
0
62
0
10
-57,421880
20
10,156250
30
10,000000
11
-58,203130
21
9,082031
31
10,000000
0
LINE
8
0
62
0
10
-58,203130
20
9,082031
30
10,000000
11
-58,789060
21
8,203125
31
10,000000
0
LINE
8
0
62
0
10
-58,789060
20
8,203125
30
10,000000
11
-59,375000
21
7,421875
31
10,000000
0
LINE
8
0
62
0
10
-59,375000
20
7,421875
30
10,000000
11
-59,863280
21
6,933594
31
10,000000
0
LINE
8
0
62
0
10
-59,863280
20
6,933594
30
10,000000
11
-60,156250
21
7,324219
31
10,000000
0
LINE
8
0
62
0
10
-60,156250
20
7,324219
30
10,000000
11
-60,351560
21
7,910156
31
10,000000
0
LINE
8
0
62
0
10
-60,351560
20
7,910156
30
10,000000
11
-60,644530
21
8,593750
31
10,000000
0
LINE
8
0
62
0
10
-60,644530
20
8,593750
30
10,000000
11
-60,839840
21
9,472656
31
10,000000
0
LINE
8
0
62
0
10
-60,839840
20
9,472656
30
10,000000
11
-60,937500
21
10,351560
31
10,000000
0
LINE
8
0
62
0
10
-60,937500
20
10,351560
30
10,000000
11
-61,132810
21
11,425780
31
10,000000
0
LINE
8
0
62
0
10
-61,132810
20
11,425780
30
10,000000
11
-61,230470
21
12,597660
31
10,000000
0
LINE
8
0
62
0
10
-61,230470
20
12,597660
30
10,000000
11
-61,328130
21
13,867190
31
10,000000
0
LINE
8
0
62
0
10
-61,328130
20
13,867190
30
10,000000
11
-61,425780
21
15,136720
31
10,000000
0
LINE
8
0
62
0
10
-61,425780
20
15,136720
30
10,000000
11
-61,523440
21
16,601560
31
10,000000
0
LINE
8
0
62
0
10
-61,523440
20
16,601560
30
10,000000
11
-61,621090
21
17,968750
31
10,000000
0
LINE
8
0
62
0
10
-61,621090
20
17,968750
30
10,000000
11
-61,718750
21
19,433590
31
10,000000
0
LINE
8
0
62
0
10
-61,718750
20
19,433590
30
10,000000
11
-61,718750
21
20,996090
31
10,000000
0
LINE
8
0
62
0
10
-61,718750
20
20,996090
30
10,000000
11
-61,718750
21
22,460940
31
10,000000
0
LINE
8
0
62
0
10
-61,718750
20
22,460940
30
10,000000
11
-61,816410
21
24,121090
31
10,000000
0
LINE
8
0
62
0
10
-61,816410
20
24,121090
30
10,000000
11
-61,816410
21
25,683590
31
10,000000
0
LINE
8
0
62
0
10
-61,816410
20
25,683590
30
10,000000
11
-61,816410
21
25,976560
31
10,000000
0
LINE
8
0
62
0
10
-61,816410
20
25,976560
30
10,000000
11
-61,816410
21
26,269530
31
10,000000
0
LINE
8
0
62
0
10
-61,816410
20
26,269530
30
10,000000
11
-61,914060
21
26,562500
31
10,000000
0
LINE
8
0
62
0
10
-61,914060
20
26,562500
30
10,000000
11
-61,914060
21
26,953130
31
10,000000
0
LINE
8
0
62
0
10
-61,914060
20
26,953130
30
10,000000
11
-61,914060
21
27,246090
31
10,000000
0
LINE
8
0
62
0
10
-61,914060
20
27,246090
30
10,000000
11
-61,914060
21
27,539060
31
10,000000
0
LINE
8
0
62
0
10
-61,914060
20
27,539060
30
10,000000
11
-61,914060
21
27,832030
31
10,000000
0
LINE
8
0
62
0
10
-61,914060
20
27,832030
30
10,000000
11
-61,914060
21
28,125000
31
10,000000
0
LINE
8
0
62
0
10
-61,914060
20
28,125000
30
10,000000
11
-61,914060
21
28,515630
31
10,000000
0
LINE
8
0
62
0
10
-61,914060
20
28,515630
30
10,000000
11
-61,914060
21
28,808590
31
10,000000
0
LINE
8
0
62
0
10
-61,914060
20
28,808590
30
10,000000
11
-61,914060
21
29,101560
31
10,000000
0
LINE
8
0
62
0
10
-61,914060
20
29,101560
30
10,000000
11
-61,914060
21
29,394530
31
10,000000
0
LINE
8
0
62
0
10
-61,914060
20
29,394530
30
10,000000
11
-61,914060
21
29,687500
31
10,000000
0
LINE
8
0
62
0
10
-61,914060
20
29,687500
30
10,000000
11
-61,816410
21
29,980470
31
10,000000
0
LINE
8
0
62
0
10
-61,816410
20
29,980470
30
10,000000
11
-61,816410
21
30,371090
31
10,000000
0
LINE
8
0
62
0
10
-61,816410
20
30,371090
30
10,000000
11
-61,816410
21
30,664060
31
10,000000
0
LINE
8
0
62
0
10
-61,816410
20
30,664060
30
10,000000
11
-61,914060
21
32,714840
31
10,000000
0
LINE
8
0
62
0
10
-61,914060
20
32,714840
30
10,000000
11
-61,914060
21
34,765630
31
10,000000
0
LINE
8
0
62
0
10
-61,914060
20
34,765630
30
10,000000
11
-61,914060
21
36,816410
31
10,000000
0
LINE
8
0
62
0
10
-61,914060
20
36,816410
30
10,000000
11
-61,914060
21
38,867190
31
10,000000
0
LINE
8
0
62
0
10
-61,914060
20
38,867190
30
10,000000
11
-61,816410
21
40,820310
31
10,000000
0
LINE
8
0
62
0
10
-61,816410
20
40,820310
30
10,000000
11
-61,816410
21
42,675780
31
10,000000
0
LINE
8
0
62
0
10
-61,816410
20
42,675780
30
10,000000
11
-61,816410
21
44,628910
31
10,000000
0
LINE
8
0
62
0
10
-61,816410
20
44,628910
30
10,000000
11
-61,816410
21
46,386720
31
10,000000
0
LINE
8
0
62
0
10
-61,816410
20
46,386720
30
10,000000
11
-61,816410
21
48,144530
31
10,000000
0
LINE
8
0
62
0
10
-61,816410
20
48,144530
30
10,000000
11
-61,816410
21
49,707030
31
10,000000
0
LINE
8
0
62
0
10
-61,816410
20
49,707030
30
10,000000
11
-61,914060
21
50,976560
31
10,000000
0
LINE
8
0
62
0
10
-61,914060
20
50,976560
30
10,000000
11
-61,914060
21
52,148440
31
10,000000
0
LINE
8
0
62
0
10
-61,914060
20
52,148440
30
10,000000
11
-62,011720
21
53,125000
31
10,000000
0
LINE
8
0
62
0
10
-62,011720
20
53,125000
30
10,000000
11
-62,109380
21
53,906250
31
10,000000
0
LINE
8
0
62
0
10
-62,109380
20
53,906250
30
10,000000
11
-62,304690
21
54,492190
31
10,000000
0
LINE
8
0
62
0
10
-62,304690
20
54,492190
30
10,000000
11
-62,500000
21
54,882810
31
10,000000
0
LINE
8
0
62
0
10
-62,500000
20
54,882810
30
10,000000
11
-63,183590
21
53,417970
31
10,000000
0
LINE
8
0
62
0
10
-63,183590
20
53,417970
30
10,000000
11
-63,964840
21
51,855470
31
10,000000
0
LINE
8
0
62
0
10
-63,964840
20
51,855470
30
10,000000
11
-64,843750
21
50,195310
31
10,000000
0
LINE
8
0
62
0
10
-64,843750
20
50,195310
30
10,000000
11
-65,820310
21
48,339840
31
10,000000
0
LINE
8
0
62
0
10
-65,820310
20
48,339840
30
10,000000
11
-66,894530
21
46,289060
31
10,000000
0
LINE
8
0
62
0
10
-66,894530
20
46,289060
30
10,000000
11
-67,968750
21
44,238280
31
10,000000
0
LINE
8
0
62
0
10
-67,968750
20
44,238280
30
10,000000
11
-69,238280
21
41,992190
31
10,000000
0
LINE
8
0
62
0
10
-69,238280
20
41,992190
30
10,000000
11
-70,507810
21
39,550780
31
10,000000
0
LINE
8
0
62
0
10
-70,507810
20
39,550780
30
10,000000
11
-71,875000
21
37,109380
31
10,000000
0
LINE
8
0
62
0
10
-71,875000
20
37,109380
30
10,000000
11
-73,339840
21
34,570310
31
10,000000
0
LINE
8
0
62
0
10
-73,339840
20
34,570310
30
10,000000
11
-74,804690
21
32,031250
31
10,000000
0
LINE
8
0
62
0
10
-74,804690
20
32,031250
30
10,000000
11
-76,367190
21
29,394530
31
10,000000
0
LINE
8
0
62
0
10
-76,367190
20
29,394530
30
10,000000
11
-78,027340
21
26,855470
31
10,000000
0
LINE
8
0
62
0
10
-78,027340
20
26,855470
30
10,000000
11
-79,687500
21
24,121090
31
10,000000
0
LINE
8
0
62
0
10
-79,687500
20
24,121090
30
10,000000
11
-81,445310
21
21,484380
31
10,000000
0
LINE
8
0
62
0
10
-81,445310
20
21,484380
30
10,000000
11
-83,300780
21
18,750000
31
10,000000
0
LINE
8
0
62
0
10
-83,300780
20
18,750000
30
10,000000
11
-85,937500
21
14,941410
31
10,000000
0
LINE
8
0
62
0
10
-85,937500
20
14,941410
30
10,000000
11
-88,574220
21
11,230470
31
10,000000
0
LINE
8
0
62
0
10
-88,574220
20
11,230470
30
10,000000
11
-91,406250
21
7,617188
31
10,000000
0
LINE
8
0
62
0
10
-91,406250
20
7,617188
30
10,000000
11
-94,238280
21
4,101563
31
10,000000
0
LINE
8
0
62
0
10
-94,238280
20
4,101563
30
10,000000
11
-97,167970
21
0,683594
31
10,000000
0
LINE
8
0
62
0
10
-97,167970
20
0,683594
30
10,000000
11
-100,195300
21
-2,734375
31
10,000000
0
LINE
8
0
62
0
10
-100,195300
20
-2,734375
30
10,000000
11
-103,320300
21
-6,054688
31
10,000000
0
LINE
8
0
62
0
10
-103,320300
20
-6,054688
30
10,000000
11
-106,445300
21
-9,179688
31
10,000000
0
LINE
8
0
62
0
10
-106,445300
20
-9,179688
30
10,000000
11
-109,668000
21
-12,207030
31
10,000000
0
LINE
8
0
62
0
10
-109,668000
20
-12,207030
30
10,000000
11
-112,890600
21
-14,746090
31
10,000000
0
LINE
8
0
62
0
10
-112,890600
20
-14,746090
30
10,000000
11
-116,113300
21
-16,894530
31
10,000000
0
LINE
8
0
62
0
10
-116,113300
20
-16,894530
30
10,000000
11
-119,335900
21
-18,750000
31
10,000000
0
LINE
8
0
62
0
10
-119,335900
20
-18,750000
30
10,000000
11
-122,460900
21
-20,117190
31
10,000000
0
LINE
8
0
62
0
10
-122,460900
20
-20,117190
30
10,000000
11
-125,683600
21
-21,093750
31
10,000000
0
LINE
8
0
62
0
10
-125,683600
20
-21,093750
30
10,000000
11
-128,906300
21
-21,679690
31
10,000000
0
LINE
8
0
62
0
10
-128,906300
20
-21,679690
30
10,000000
11
-132,128900
21
-21,875000
31
10,000000
0
LINE
8
0
62
0
10
-132,128900
20
-21,875000
30
10,000000
11
-134,082000
21
-21,777340
31
10,000000
0
LINE
8
0
62
0
10
-134,082000
20
-21,777340
30
10,000000
11
-135,839800
21
-21,386720
31
10,000000
0
LINE
8
0
62
0
10
-135,839800
20
-21,386720
30
10,000000
11
-137,402300
21
-20,800780
31
10,000000
0
LINE
8
0
62
0
10
-137,402300
20
-20,800780
30
10,000000
11
-138,867200
21
-19,921880
31
10,000000
0
LINE
8
0
62
0
10
-138,867200
20
-19,921880
30
10,000000
11
-140,039100
21
-18,847660
31
10,000000
0
LINE
8
0
62
0
10
-140,039100
20
-18,847660
30
10,000000
11
-141,210900
21
-17,578130
31
10,000000
0
LINE
8
0
62
0
10
-141,210900
20
-17,578130
30
10,000000
11
-142,089800
21
-16,015630
31
10,000000
0
LINE
8
0
62
0
10
-142,089800
20
-16,015630
30
10,000000
11
-142,773400
21
-14,160160
31
10,000000
0
LINE
8
0
62
0
10
-142,773400
20
-14,160160
30
10,000000
11
-143,359400
21
-12,207030
31
10,000000
0
LINE
8
0
62
0
10
-143,359400
20
-12,207030
30
10,000000
11
-143,750000
21
-10,253910
31
10,000000
0
LINE
8
0
62
0
10
-143,750000
20
-10,253910
30
10,000000
11
-144,043000
21
-8,105469
31
10,000000
0
LINE
8
0
62
0
10
-144,043000
20
-8,105469
30
10,000000
11
-144,043000
21
-5,957031
31
10,000000
0
LINE
8
0
62
0
10
-144,043000
20
-5,957031
30
10,000000
11
-144,043000
21
-3,613281
31
10,000000
0
LINE
8
0
62
0
10
-144,043000
20
-3,613281
30
10,000000
11
-143,750000
21
-1,269531
31
10,000000
0
LINE
8
0
62
0
10
1,757813
20
9,960938
30
10,000000
11
1,757813
21
9,960938
31
10,000000
0
LINE
8
0
62
0
10
1,757813
20
9,960938
30
10,000000
11
1,757813
21
9,960938
31
10,000000
0
LINE
8
0
62
0
10
1,855469
20
10,156250
30
10,000000
11
1,855469
21
10,156250
31
10,000000
0
LINE
8
0
62
0
10
1,855469
20
10,156250
30
10,000000
11
1,855469
21
10,156250
31
10,000000
0
LINE
8
0
62
0
10
1,269531
20
4,785156
30
10,000000
11
1,171875
21
5,664063
31
10,000000
0
LINE
8
0
62
0
10
1,171875
20
5,664063
30
10,000000
11
1,171875
21
6,445313
31
10,000000
0
LINE
8
0
62
0
10
1,171875
20
6,445313
30
10,000000
11
1,171875
21
7,226563
31
10,000000
0
LINE
8
0
62
0
10
1,171875
20
7,226563
30
10,000000
11
1,367188
21
8,105469
31
10,000000
0
LINE
8
0
62
0
10
1,367188
20
8,105469
30
10,000000
11
1,464844
21
8,984375
31
10,000000
0
LINE
8
0
62
0
10
1,464844
20
8,984375
30
10,000000
11
1,757813
21
9,863281
31
10,000000
0
LINE
8
0
62
0
10
1,757813
20
9,863281
30
10,000000
11
1,757813
21
9,960938
31
10,000000
0
LINE
8
0
62
0
10
1,757813
20
9,960938
30
10,000000
11
1,757813
21
10,058590
31
10,000000
0
LINE
8
0
62
0
10
1,757813
20
10,058590
30
10,000000
11
1,757813
21
10,058590
31
10,000000
0
LINE
8
0
62
0
10
1,757813
20
10,058590
30
10,000000
11
1,855469
21
10,058590
31
10,000000
0
LINE
8
0
62
0
10
1,855469
20
10,058590
30
10,000000
11
1,855469
21
10,058590
31
10,000000
0
LINE
8
0
62
0
10
1,855469
20
10,058590
30
10,000000
11
1,855469
21
10,156250
31
10,000000
0
LINE
8
0
62
0
10
1,855469
20
10,156250
30
10,000000
11
1,855469
21
10,253910
31
10,000000
0
LINE
8
0
62
0
10
1,855469
20
10,253910
30
10,000000
11
1,855469
21
10,253910
31
10,000000
0
LINE
8
0
62
0
10
1,855469
20
10,253910
30
10,000000
11
15,136720
21
49,316410
31
10,000000
0
LINE
8
0
62
0
10
15,136720
20
49,316410
30
10,000000
11
15,136720
21
49,316410
31
10,000000
0
LINE
8
0
62
0
10
15,136720
20
49,316410
30
10,000000
11
15,136720
21
49,316410
31
10,000000
0
LINE
8
0
62
0
10
15,136720
20
49,316410
30
10,000000
11
15,039060
21
49,316410
31
10,000000
0
LINE
8
0
62
0
10
15,039060
20
49,316410
30
10,000000
11
15,039060
21
49,414060
31
10,000000
0
LINE
8
0
62
0
10
15,039060
20
49,414060
30
10,000000
11
14,941410
21
49,511720
31
10,000000
0
LINE
8
0
62
0
10
14,941410
20
49,511720
30
10,000000
11
14,941410
21
49,511720
31
10,000000
0
LINE
8
0
62
0
10
14,941410
20
49,511720
30
10,000000
11
14,941410
21
49,609380
31
10,000000
0
LINE
8
0
62
0
10
14,941410
20
49,609380
30
10,000000
11
14,843750
21
49,707030
31
10,000000
0
LINE
8
0
62
0
10
14,843750
20
49,707030
30
10,000000
11
14,843750
21
49,707030
31
10,000000
0
LINE
8
0
62
0
10
14,843750
20
49,707030
30
10,000000
11
14,746090
21
49,804690
31
10,000000
0
LINE
8
0
62
0
10
14,746090
20
49,804690
30
10,000000
11
14,648440
21
49,902340
31
10,000000
0
LINE
8
0
62
0
10
14,648440
20
49,902340
30
10,000000
11
14,550780
21
49,902340
31
10,000000
0
LINE
8
0
62
0
10
14,550780
20
49,902340
30
10,000000
11
14,453130
21
50,000000
31
10,000000
0
LINE
8
0
62
0
10
14,453130
20
50,000000
30
10,000000
11
14,355470
21
50,000000
31
10,000000
0
LINE
8
0
62
0
10
14,355470
20
50,000000
30
10,000000
11
14,257810
21
50,000000
31
10,000000
0
LINE
8
0
62
0
10
14,257810
20
50,000000
30
10,000000
11
14,160160
21
50,097660
31
10,000000
0
LINE
8
0
62
0
10
14,160160
20
50,097660
30
10,000000
11
14,062500
21
50,097660
31
10,000000
0
LINE
8
0
62
0
10
14,062500
20
50,097660
30
10,000000
11
13,964840
21
50,195310
31
10,000000
0
LINE
8
0
62
0
10
13,964840
20
50,195310
30
10,000000
11
13,867190
21
50,195310
31
10,000000
0
LINE
8
0
62
0
10
13,867190
20
50,195310
30
10,000000
11
13,671880
21
50,292970
31
10,000000
0
LINE
8
0
62
0
10
13,671880
20
50,292970
30
10,000000
11
13,574220
21
50,292970
31
10,000000
0
LINE
8
0
62
0
10
13,574220
20
50,292970
30
10,000000
11
13,378910
21
50,292970
31
10,000000
0
LINE
8
0
62
0
10
13,378910
20
50,292970
30
10,000000
11
13,281250
21
50,390630
31
10,000000
0
LINE
8
0
62
0
10
13,281250
20
50,390630
30
10,000000
11
13,085940
21
50,390630
31
10,000000
0
LINE
8
0
62
0
10
13,085940
20
50,390630
30
10,000000
11
12,890630
21
50,390630
31
10,000000
0
LINE
8
0
62
0
10
12,890630
20
50,390630
30
10,000000
11
12,695310
21
50,390630
31
10,000000
0
LINE
8
0
62
0
10
12,695310
20
50,390630
30
10,000000
11
12,402340
21
50,390630
31
10,000000
0
LINE
8
0
62
0
10
12,402340
20
50,390630
30
10,000000
11
12,207030
21
50,292970
31
10,000000
0
LINE
8
0
62
0
10
12,207030
20
50,292970
30
10,000000
11
11,816410
21
50,292970
31
10,000000
0
LINE
8
0
62
0
10
11,816410
20
50,292970
30
10,000000
11
11,523440
21
50,195310
31
10,000000
0
LINE
8
0
62
0
10
11,523440
20
50,195310
30
10,000000
11
11,132810
21
50,097660
31
10,000000
0
LINE
8
0
62
0
10
11,132810
20
50,097660
30
10,000000
11
10,644530
21
50,000000
31
10,000000
0
LINE
8
0
62
0
10
10,644530
20
50,000000
30
10,000000
11
10,253910
21
49,804690
31
10,000000
0
LINE
8
0
62
0
10
10,253910
20
49,804690
30
10,000000
11
9,765625
21
49,609380
31
10,000000
0
LINE
8
0
62
0
10
9,765625
20
49,609380
30
10,000000
11
9,277344
21
49,414060
31
10,000000
0
LINE
8
0
62
0
10
9,277344
20
49,414060
30
10,000000
11
8,691406
21
49,218750
31
10,000000
0
LINE
8
0
62
0
10
8,691406
20
49,218750
30
10,000000
11
8,105469
21
48,925780
31
10,000000
0
LINE
8
0
62
0
10
8,105469
20
48,925780
30
10,000000
11
7,519531
21
48,632810
31
10,000000
0
LINE
8
0
62
0
10
7,519531
20
48,632810
30
10,000000
11
6,835938
21
48,242190
31
10,000000
0
LINE
8
0
62
0
10
6,835938
20
48,242190
30
10,000000
11
6,152344
21
47,851560
31
10,000000
0
LINE
8
0
62
0
10
6,152344
20
47,851560
30
10,000000
11
5,371094
21
47,363280
31
10,000000
0
LINE
8
0
62
0
10
5,371094
20
47,363280
30
10,000000
11
4,589844
21
46,875000
31
10,000000
0
LINE
8
0
62
0
10
4,589844
20
46,875000
30
10,000000
11
4,687500
21
47,070310
31
10,000000
0
LINE
8
0
62
0
10
4,687500
20
47,070310
30
10,000000
11
4,785156
21
47,265630
31
10,000000
0
LINE
8
0
62
0
10
4,785156
20
47,265630
30
10,000000
11
4,980469
21
47,460940
31
10,000000
0
LINE
8
0
62
0
10
4,980469
20
47,460940
30
10,000000
11
5,175781
21
47,656250
31
10,000000
0
LINE
8
0
62
0
10
5,175781
20
47,656250
30
10,000000
11
5,371094
21
47,949220
31
10,000000
0
LINE
8
0
62
0
10
5,371094
20
47,949220
30
10,000000
11
5,664063
21
48,144530
31
10,000000
0
LINE
8
0
62
0
10
5,664063
20
48,144530
30
10,000000
11
5,957031
21
48,437500
31
10,000000
0
LINE
8
0
62
0
10
5,957031
20
48,437500
30
10,000000
11
6,250000
21
48,828130
31
10,000000
0
LINE
8
0
62
0
10
6,250000
20
48,828130
30
10,000000
11
6,640625
21
49,121090
31
10,000000
0
LINE
8
0
62
0
10
6,640625
20
49,121090
30
10,000000
11
7,031250
21
49,511720
31
10,000000
0
LINE
8
0
62
0
10
7,031250
20
49,511720
30
10,000000
11
7,421875
21
49,804690
31
10,000000
0
LINE
8
0
62
0
10
7,421875
20
49,804690
30
10,000000
11
7,812500
21
50,195310
31
10,000000
0
LINE
8
0
62
0
10
7,812500
20
50,195310
30
10,000000
11
8,203125
21
50,585940
31
10,000000
0
LINE
8
0
62
0
10
8,203125
20
50,585940
30
10,000000
11
8,691406
21
50,878910
31
10,000000
0
LINE
8
0
62
0
10
8,691406
20
50,878910
30
10,000000
11
9,179688
21
51,269530
31
10,000000
0
LINE
8
0
62
0
10
9,179688
20
51,269530
30
10,000000
11
9,667969
21
51,660160
31
10,000000
0
LINE
8
0
62
0
10
9,667969
20
51,660160
30
10,000000
11
10,156250
21
51,953130
31
10,000000
0
LINE
8
0
62
0
10
10,156250
20
51,953130
30
10,000000
11
10,742190
21
52,343750
31
10,000000
0
LINE
8
0
62
0
10
10,742190
20
52,343750
30
10,000000
11
11,328130
21
52,734380
31
10,000000
0
LINE
8
0
62
0
10
11,328130
20
52,734380
30
10,000000
11
11,816410
21
53,222660
31
10,000000
0
LINE
8
0
62
0
10
11,816410
20
53,222660
30
10,000000
11
12,500000
21
53,613280
31
10,000000
0
LINE
8
0
62
0
10
12,500000
20
53,613280
30
10,000000
11
13,085940
21
54,003910
31
10,000000
0
LINE
8
0
62
0
10
13,085940
20
54,003910
30
10,000000
11
13,671880
21
54,394530
31
10,000000
0
LINE
8
0
62
0
10
13,671880
20
54,394530
30
10,000000
11
14,355470
21
54,687500
31
10,000000
0
LINE
8
0
62
0
10
14,355470
20
54,687500
30
10,000000
11
14,941410
21
55,078130
31
10,000000
0
LINE
8
0
62
0
10
14,941410
20
55,078130
30
10,000000
11
15,625000
21
55,468750
31
10,000000
0
LINE
8
0
62
0
10
15,625000
20
55,468750
30
10,000000
11
16,308590
21
55,859380
31
10,000000
0
LINE
8
0
62
0
10
16,308590
20
55,859380
30
10,000000
11
16,894530
21
56,152340
31
10,000000
0
LINE
8
0
62
0
10
16,894530
20
56,152340
30
10,000000
11
17,578130
21
56,445310
31
10,000000
0
LINE
8
0
62
0
10
17,578130
20
56,445310
30
10,000000
11
18,164060
21
56,738280
31
10,000000
0
LINE
8
0
62
0
10
18,164060
20
56,738280
30
10,000000
11
18,750000
21
56,933590
31
10,000000
0
LINE
8
0
62
0
10
18,750000
20
56,933590
30
10,000000
11
19,433590
21
57,128910
31
10,000000
0
LINE
8
0
62
0
10
19,433590
20
57,128910
30
10,000000
11
20,019530
21
57,324220
31
10,000000
0
LINE
8
0
62
0
10
20,019530
20
57,324220
30
10,000000
11
20,214840
21
57,324220
31
10,000000
0
LINE
8
0
62
0
10
20,214840
20
57,324220
30
10,000000
11
20,312500
21
57,421880
31
10,000000
0
LINE
8
0
62
0
10
20,312500
20
57,421880
30
10,000000
11
20,507810
21
57,421880
31
10,000000
0
LINE
8
0
62
0
10
20,507810
20
57,421880
30
10,000000
11
20,703130
21
57,421880
31
10,000000
0
LINE
8
0
62
0
10
20,703130
20
57,421880
30
10,000000
11
20,898440
21
57,519530
31
10,000000
0
LINE
8
0
62
0
10
20,898440
20
57,519530
30
10,000000
11
21,093750
21
57,519530
31
10,000000
0
LINE
8
0
62
0
10
21,093750
20
57,519530
30
10,000000
11
21,191410
21
57,519530
31
10,000000
0
LINE
8
0
62
0
10
21,191410
20
57,519530
30
10,000000
11
21,386720
21
57,617190
31
10,000000
0
LINE
8
0
62
0
10
21,386720
20
57,617190
30
10,000000
11
21,582030
21
57,617190
31
10,000000
0
LINE
8
0
62
0
10
21,582030
20
57,617190
30
10,000000
11
21,777340
21
57,617190
31
10,000000
0
LINE
8
0
62
0
10
21,777340
20
57,617190
30
10,000000
11
21,972660
21
57,617190
31
10,000000
0
LINE
8
0
62
0
10
21,972660
20
57,617190
30
10,000000
11
22,070310
21
57,714840
31
10,000000
0
LINE
8
0
62
0
10
22,070310
20
57,714840
30
10,000000
11
22,265630
21
57,714840
31
10,000000
0
LINE
8
0
62
0
10
22,265630
20
57,714840
30
10,000000
11
22,460940
21
57,714840
31
10,000000
0
LINE
8
0
62
0
10
22,460940
20
57,714840
30
10,000000
11
22,656250
21
57,714840
31
10,000000
0
LINE
8
0
62
0
10
22,656250
20
57,714840
30
10,000000
11
22,753910
21
57,714840
31
10,000000
0
LINE
8
0
62
0
10
22,753910
20
57,714840
30
10,000000
11
23,730470
21
57,714840
31
10,000000
0
LINE
8
0
62
0
10
23,730470
20
57,714840
30
10,000000
11
24,511720
21
57,519530
31
10,000000
0
LINE
8
0
62
0
10
24,511720
20
57,519530
30
10,000000
11
25,195310
21
57,324220
31
10,000000
0
LINE
8
0
62
0
10
25,195310
20
57,324220
30
10,000000
11
25,878910
21
57,128910
31
10,000000
0
LINE
8
0
62
0
10
25,878910
20
57,128910
30
10,000000
11
26,367190
21
56,738280
31
10,000000
0
LINE
8
0
62
0
10
26,367190
20
56,738280
30
10,000000
11
26,757810
21
56,250000
31
10,000000
0
LINE
8
0
62
0
10
26,757810
20
56,250000
30
10,000000
11
27,148440
21
55,761720
31
10,000000
0
LINE
8
0
62
0
10
27,148440
20
55,761720
30
10,000000
11
27,343750
21
55,175780
31
10,000000
0
LINE
8
0
62
0
10
27,343750
20
55,175780
30
10,000000
11
27,539060
21
54,589840
31
10,000000
0
LINE
8
0
62
0
10
27,539060
20
54,589840
30
10,000000
11
27,636720
21
53,906250
31
10,000000
0
LINE
8
0
62
0
10
27,636720
20
53,906250
30
10,000000
11
27,734380
21
53,222660
31
10,000000
0
LINE
8
0
62
0
10
27,734380
20
53,222660
30
10,000000
11
27,734380
21
52,539060
31
10,000000
0
LINE
8
0
62
0
10
27,734380
20
52,539060
30
10,000000
11
27,734380
21
51,855470
31
10,000000
0
LINE
8
0
62
0
10
27,734380
20
51,855470
30
10,000000
11
27,734380
21
51,171880
31
10,000000
0
LINE
8
0
62
0
10
27,734380
20
51,171880
30
10,000000
11
27,636720
21
50,488280
31
10,000000
0
LINE
8
0
62
0
10
27,636720
20
50,488280
30
10,000000
11
27,539060
21
49,707030
31
10,000000
0
LINE
8
0
62
0
10
27,539060
20
49,707030
30
10,000000
11
27,441410
21
49,511720
31
10,000000
0
LINE
8
0
62
0
10
27,441410
20
49,511720
30
10,000000
11
27,441410
21
49,414060
31
10,000000
0
LINE
8
0
62
0
10
27,441410
20
49,414060
30
10,000000
11
27,343750
21
49,218750
31
10,000000
0
LINE
8
0
62
0
10
27,343750
20
49,218750
30
10,000000
11
27,343750
21
49,023440
31
10,000000
0
LINE
8
0
62
0
10
27,343750
20
49,023440
30
10,000000
11
27,246090
21
48,925780
31
10,000000
0
LINE
8
0
62
0
10
27,246090
20
48,925780
30
10,000000
11
27,246090
21
48,730470
31
10,000000
0
LINE
8
0
62
0
10
27,246090
20
48,730470
30
10,000000
11
27,148440
21
48,535160
31
10,000000
0
LINE
8
0
62
0
10
27,148440
20
48,535160
30
10,000000
11
27,148440
21
48,437500
31
10,000000
0
LINE
8
0
62
0
10
27,148440
20
48,437500
30
10,000000
11
27,050780
21
48,242190
31
10,000000
0
LINE
8
0
62
0
10
27,050780
20
48,242190
30
10,000000
11
27,050780
21
48,046880
31
10,000000
0
LINE
8
0
62
0
10
27,050780
20
48,046880
30
10,000000
11
26,953130
21
47,851560
31
10,000000
0
LINE
8
0
62
0
10
26,953130
20
47,851560
30
10,000000
11
26,953130
21
47,753910
31
10,000000
0
LINE
8
0
62
0
10
26,953130
20
47,753910
30
10,000000
11
26,855470
21
47,558590
31
10,000000
0
LINE
8
0
62
0
10
26,855470
20
47,558590
30
10,000000
11
26,855470
21
47,363280
31
10,000000
0
LINE
8
0
62
0
10
26,855470
20
47,363280
30
10,000000
11
26,757810
21
47,265630
31
10,000000
0
LINE
8
0
62
0
10
26,757810
20
47,265630
30
10,000000
11
26,757810
21
47,070310
31
10,000000
0
LINE
8
0
62
0
10
26,757810
20
47,070310
30
10,000000
11
14,453130
21
10,839840
31
10,000000
0
LINE
8
0
62
0
10
14,453130
20
10,839840
30
10,000000
11
14,355470
21
10,253910
31
10,000000
0
LINE
8
0
62
0
10
14,355470
20
10,253910
30
10,000000
11
14,257810
21
9,765625
31
10,000000
0
LINE
8
0
62
0
10
14,257810
20
9,765625
30
10,000000
11
14,257810
21
9,277344
31
10,000000
0
LINE
8
0
62
0
10
14,257810
20
9,277344
30
10,000000
11
14,257810
21
8,886719
31
10,000000
0
LINE
8
0
62
0
10
14,257810
20
8,886719
30
10,000000
11
14,257810
21
8,496094
31
10,000000
0
LINE
8
0
62
0
10
14,257810
20
8,496094
30
10,000000
11
14,355470
21
8,203125
31
10,000000
0
LINE
8
0
62
0
10
14,355470
20
8,203125
30
10,000000
11
14,355470
21
7,910156
31
10,000000
0
LINE
8
0
62
0
10
14,355470
20
7,910156
30
10,000000
11
14,453130
21
7,714844
31
10,000000
0
LINE
8
0
62
0
10
14,453130
20
7,714844
30
10,000000
11
14,550780
21
7,519531
31
10,000000
0
LINE
8
0
62
0
10
14,550780
20
7,519531
30
10,000000
11
14,746090
21
7,324219
31
10,000000
0
LINE
8
0
62
0
10
14,746090
20
7,324219
30
10,000000
11
14,843750
21
7,226563
31
10,000000
0
LINE
8
0
62
0
10
14,843750
20
7,226563
30
10,000000
11
15,039060
21
7,031250
31
10,000000
0
LINE
8
0
62
0
10
15,039060
20
7,031250
30
10,000000
11
15,234380
21
7,031250
31
10,000000
0
LINE
8
0
62
0
10
15,234380
20
7,031250
30
10,000000
11
15,429690
21
6,933594
31
10,000000
0
LINE
8
0
62
0
10
15,429690
20
6,933594
30
10,000000
11
15,625000
21
6,933594
31
10,000000
0
LINE
8
0
62
0
10
15,625000
20
6,933594
30
10,000000
11
15,820310
21
6,933594
31
10,000000
0
LINE
8
0
62
0
10
15,820310
20
6,933594
30
10,000000
11
16,015630
21
6,933594
31
10,000000
0
LINE
8
0
62
0
10
16,015630
20
6,933594
30
10,000000
11
16,113280
21
6,933594
31
10,000000
0
LINE
8
0
62
0
10
16,113280
20
6,933594
30
10,000000
11
16,308590
21
7,031250
31
10,000000
0
LINE
8
0
62
0
10
16,308590
20
7,031250
30
10,000000
11
16,503910
21
7,031250
31
10,000000
0
LINE
8
0
62
0
10
16,503910
20
7,031250
30
10,000000
11
16,699220
21
7,128906
31
10,000000
0
LINE
8
0
62
0
10
16,699220
20
7,128906
30
10,000000
11
16,992190
21
7,128906
31
10,000000
0
LINE
8
0
62
0
10
16,992190
20
7,128906
30
10,000000
11
17,187500
21
7,226563
31
10,000000
0
LINE
8
0
62
0
10
17,187500
20
7,226563
30
10,000000
11
17,382810
21
7,324219
31
10,000000
0
LINE
8
0
62
0
10
17,382810
20
7,324219
30
10,000000
11
17,578130
21
7,421875
31
10,000000
0
LINE
8
0
62
0
10
17,578130
20
7,421875
30
10,000000
11
17,871090
21
7,421875
31
10,000000
0
LINE
8
0
62
0
10
17,871090
20
7,421875
30
10,000000
11
18,066410
21
7,519531
31
10,000000
0
LINE
8
0
62
0
10
18,066410
20
7,519531
30
10,000000
11
18,359380
21
7,714844
31
10,000000
0
LINE
8
0
62
0
10
18,359380
20
7,714844
30
10,000000
11
18,554690
21
7,812500
31
10,000000
0
LINE
8
0
62
0
10
18,554690
20
7,812500
30
10,000000
11
18,750000
21
7,910156
31
10,000000
0
LINE
8
0
62
0
10
18,750000
20
7,910156
30
10,000000
11
19,042970
21
8,007813
31
10,000000
0
LINE
8
0
62
0
10
19,042970
20
8,007813
30
10,000000
11
19,238280
21
8,105469
31
10,000000
0
LINE
8
0
62
0
10
19,238280
20
8,105469
30
10,000000
11
19,335940
21
8,203125
31
10,000000
0
LINE
8
0
62
0
10
19,335940
20
8,203125
30
10,000000
11
19,433590
21
8,300781
31
10,000000
0
LINE
8
0
62
0
10
19,433590
20
8,300781
30
10,000000
11
19,531250
21
8,398438
31
10,000000
0
LINE
8
0
62
0
10
19,531250
20
8,398438
30
10,000000
11
19,628910
21
8,398438
31
10,000000
0
LINE
8
0
62
0
10
19,628910
20
8,398438
30
10,000000
11
19,824220
21
8,496094
31
10,000000
0
LINE
8
0
62
0
10
19,824220
20
8,496094
30
10,000000
11
19,921880
21
8,593750
31
10,000000
0
LINE
8
0
62
0
10
19,921880
20
8,593750
30
10,000000
11
20,019530
21
8,593750
31
10,000000
0
LINE
8
0
62
0
10
20,019530
20
8,593750
30
10,000000
11
20,117190
21
8,691406
31
10,000000
0
LINE
8
0
62
0
10
20,117190
20
8,691406
30
10,000000
11
20,214840
21
8,789063
31
10,000000
0
LINE
8
0
62
0
10
20,214840
20
8,789063
30
10,000000
11
20,410160
21
8,789063
31
10,000000
0
LINE
8
0
62
0
10
20,410160
20
8,789063
30
10,000000
11
20,507810
21
8,886719
31
10,000000
0
LINE
8
0
62
0
10
20,507810
20
8,886719
30
10,000000
11
20,605470
21
8,984375
31
10,000000
0
LINE
8
0
62
0
10
20,605470
20
8,984375
30
10,000000
11
20,703130
21
8,984375
31
10,000000
0
LINE
8
0
62
0
10
20,703130
20
8,984375
30
10,000000
11
20,898440
21
9,082031
31
10,000000
0
LINE
8
0
62
0
10
20,898440
20
9,082031
30
10,000000
11
20,996090
21
9,179688
31
10,000000
0
LINE
8
0
62
0
10
20,996090
20
9,179688
30
10,000000
11
21,093750
21
9,179688
31
10,000000
0
LINE
8
0
62
0
10
21,093750
20
9,179688
30
10,000000
11
21,289060
21
9,375000
31
10,000000
0
LINE
8
0
62
0
10
21,289060
20
9,375000
30
10,000000
11
21,484380
21
9,472656
31
10,000000
0
LINE
8
0
62
0
10
21,484380
20
9,472656
30
10,000000
11
21,679690
21
9,570313
31
10,000000
0
LINE
8
0
62
0
10
21,679690
20
9,570313
30
10,000000
11
21,777340
21
9,765625
31
10,000000
0
LINE
8
0
62
0
10
21,777340
20
9,765625
30
10,000000
11
21,972660
21
9,863281
31
10,000000
0
LINE
8
0
62
0
10
21,972660
20
9,863281
30
10,000000
11
22,167970
21
9,960938
31
10,000000
0
LINE
8
0
62
0
10
22,167970
20
9,960938
30
10,000000
11
22,363280
21
10,058590
31
10,000000
0
LINE
8
0
62
0
10
22,363280
20
10,058590
30
10,000000
11
22,460940
21
10,156250
31
10,000000
0
LINE
8
0
62
0
10
22,460940
20
10,156250
30
10,000000
11
22,656250
21
10,253910
31
10,000000
0
LINE
8
0
62
0
10
22,656250
20
10,253910
30
10,000000
11
22,851560
21
10,351560
31
10,000000
0
LINE
8
0
62
0
10
22,851560
20
10,351560
30
10,000000
11
22,949220
21
10,449220
31
10,000000
0
LINE
8
0
62
0
10
22,949220
20
10,449220
30
10,000000
11
23,144530
21
10,546880
31
10,000000
0
LINE
8
0
62
0
10
23,144530
20
10,546880
30
10,000000
11
23,339840
21
10,644530
31
10,000000
0
LINE
8
0
62
0
10
23,339840
20
10,644530
30
10,000000
11
23,437500
21
10,644530
31
10,000000
0
LINE
8
0
62
0
10
23,437500
20
10,644530
30
10,000000
11
23,632810
21
10,742190
31
10,000000
0
LINE
8
0
62
0
10
23,632810
20
10,742190
30
10,000000
11
23,730470
21
10,839840
31
10,000000
0
LINE
8
0
62
0
10
23,730470
20
10,839840
30
10,000000
11
21,972660
21
8,984375
31
10,000000
0
LINE
8
0
62
0
10
21,972660
20
8,984375
30
10,000000
11
20,312500
21
7,324219
31
10,000000
0
LINE
8
0
62
0
10
20,312500
20
7,324219
30
10,000000
11
18,750000
21
5,859375
31
10,000000
0
LINE
8
0
62
0
10
18,750000
20
5,859375
30
10,000000
11
17,187500
21
4,589844
31
10,000000
0
LINE
8
0
62
0
10
17,187500
20
4,589844
30
10,000000
11
15,820310
21
3,515625
31
10,000000
0
LINE
8
0
62
0
10
15,820310
20
3,515625
30
10,000000
11
14,550780
21
2,734375
31
10,000000
0
LINE
8
0
62
0
10
14,550780
20
2,734375
30
10,000000
11
13,378910
21
2,050781
31
10,000000
0
LINE
8
0
62
0
10
13,378910
20
2,050781
30
10,000000
11
12,402340
21
1,660156
31
10,000000
0
LINE
8
0
62
0
10
12,402340
20
1,660156
30
10,000000
11
11,425780
21
1,269531
31
10,000000
0
LINE
8
0
62
0
10
11,425780
20
1,269531
30
10,000000
11
10,449220
21
1,074219
31
10,000000
0
LINE
8
0
62
0
10
10,449220
20
1,074219
30
10,000000
11
9,667969
21
0,781250
31
10,000000
0
LINE
8
0
62
0
10
9,667969
20
0,781250
30
10,000000
11
8,886719
21
0,585938
31
10,000000
0
LINE
8
0
62
0
10
8,886719
20
0,585938
30
10,000000
11
8,203125
21
0,488281
31
10,000000
0
LINE
8
0
62
0
10
8,203125
20
0,488281
30
10,000000
11
7,519531
21
0,390625
31
10,000000
0
LINE
8
0
62
0
10
7,519531
20
0,390625
30
10,000000
11
6,933594
21
0,292969
31
10,000000
0
LINE
8
0
62
0
10
6,933594
20
0,292969
30
10,000000
11
6,445313
21
0,292969
31
10,000000
0
LINE
8
0
62
0
10
6,445313
20
0,292969
30
10,000000
11
6,347656
21
0,292969
31
10,000000
0
LINE
8
0
62
0
10
6,347656
20
0,292969
30
10,000000
11
6,250000
21
0,292969
31
10,000000
0
LINE
8
0
62
0
10
6,250000
20
0,292969
30
10,000000
11
5,371094
21
0,292969
31
10,000000
0
LINE
8
0
62
0
10
5,371094
20
0,292969
30
10,000000
11
4,589844
21
0,488281
31
10,000000
0
LINE
8
0
62
0
10
4,589844
20
0,488281
30
10,000000
11
3,906250
21
0,683594
31
10,000000
0
LINE
8
0
62
0
10
3,906250
20
0,683594
30
10,000000
11
3,222656
21
1,074219
31
10,000000
0
LINE
8
0
62
0
10
3,222656
20
1,074219
30
10,000000
11
2,734375
21
1,464844
31
10,000000
0
LINE
8
0
62
0
10
2,734375
20
1,464844
30
10,000000
11
2,246094
21
1,953125
31
10,000000
0
LINE
8
0
62
0
10
2,246094
20
1,953125
30
10,000000
11
1,953125
21
2,636719
31
10,000000
0
LINE
8
0
62
0
10
1,953125
20
2,636719
30
10,000000
11
1,660156
21
3,320313
31
10,000000
0
LINE
8
0
62
0
10
1,660156
20
3,320313
30
10,000000
11
1,464844
21
4,003906
31
10,000000
0
LINE
8
0
62
0
10
1,464844
20
4,003906
30
10,000000
11
1,269531
21
4,785156
31
10,000000
0
LINE
8
0
62
0
10
6,250000
20
0,292969
30
10,000000
11
6,250000
21
0,292969
31
10,000000
0
LINE
8
0
62
0
10
6,347656
20
0,292969
30
10,000000
11
6,347656
21
0,292969
31
10,000000
0
LINE
8
0
62
0
10
6,445313
20
0,292969
30
10,000000
11
6,445313
21
0,292969
31
10,000000
0
LINE
8
0
62
0
10
14,550780
20
49,902340
30
10,000000
11
14,550780
21
49,902340
31
10,000000
0
LINE
8
0
62
0
10
15,039060
20
49,414060
30
10,000000
11
15,039060
21
49,414060
31
10,000000
0
LINE
8
0
62
0
10
15,039060
20
49,316410
30
10,000000
11
15,039060
21
49,316410
31
10,000000
0
LINE
8
0
62
0
10
18,066410
20
69,531250
30
10,000000
11
18,164060
21
70,214840
31
10,000000
0
LINE
8
0
62
0
10
18,164060
20
70,214840
30
10,000000
11
18,164060
21
70,507810
31
10,000000
0
LINE
8
0
62
0
10
18,164060
20
70,507810
30
10,000000
11
18,261720
21
70,800780
31
10,000000
0
LINE
8
0
62
0
10
18,261720
20
70,800780
30
10,000000
11
18,359380
21
71,093750
31
10,000000
0
LINE
8
0
62
0
10
18,359380
20
71,093750
30
10,000000
11
18,359380
21
71,484380
31
10,000000
0
LINE
8
0
62
0
10
18,359380
20
71,484380
30
10,000000
11
18,457030
21
71,777340
31
10,000000
0
LINE
8
0
62
0
10
18,457030
20
71,777340
30
10,000000
11
18,554690
21
72,070310
31
10,000000
0
LINE
8
0
62
0
10
18,554690
20
72,070310
30
10,000000
11
18,554690
21
72,363280
31
10,000000
0
LINE
8
0
62
0
10
18,554690
20
72,363280
30
10,000000
11
18,652340
21
72,656250
31
10,000000
0
LINE
8
0
62
0
10
18,652340
20
72,656250
30
10,000000
11
18,750000
21
72,949220
31
10,000000
0
LINE
8
0
62
0
10
18,750000
20
72,949220
30
10,000000
11
18,847660
21
73,242190
31
10,000000
0
LINE
8
0
62
0
10
18,847660
20
73,242190
30
10,000000
11
18,847660
21
73,535160
31
10,000000
0
LINE
8
0
62
0
10
18,847660
20
73,535160
30
10,000000
11
18,945310
21
73,730470
31
10,000000
0
LINE
8
0
62
0
10
18,945310
20
73,730470
30
10,000000
11
19,042970
21
74,023440
31
10,000000
0
LINE
8
0
62
0
10
19,042970
20
74,023440
30
10,000000
11
19,140630
21
74,316410
31
10,000000
0
LINE
8
0
62
0
10
19,140630
20
74,316410
30
10,000000
11
19,140630
21
74,511720
31
10,000000
0
LINE
8
0
62
0
10
19,140630
20
74,511720
30
10,000000
11
19,238280
21
74,804690
31
10,000000
0
LINE
8
0
62
0
10
19,238280
20
74,804690
30
10,000000
11
19,335940
21
74,902340
31
10,000000
0
LINE
8
0
62
0
10
19,335940
20
74,902340
30
10,000000
11
19,726560
21
76,171880
31
10,000000
0
LINE
8
0
62
0
10
19,726560
20
76,171880
30
10,000000
11
20,312500
21
77,246090
31
10,000000
0
LINE
8
0
62
0
10
20,312500
20
77,246090
30
10,000000
11
20,898440
21
78,320310
31
10,000000
0
LINE
8
0
62
0
10
20,898440
20
78,320310
30
10,000000
11
21,484380
21
79,199220
31
10,000000
0
LINE
8
0
62
0
10
21,484380
20
79,199220
30
10,000000
11
22,167970
21
80,078130
31
10,000000
0
LINE
8
0
62
0
10
22,167970
20
80,078130
30
10,000000
11
22,851560
21
80,761720
31
10,000000
0
LINE
8
0
62
0
10
22,851560
20
80,761720
30
10,000000
11
23,632810
21
81,347660
31
10,000000
0
LINE
8
0
62
0
10
23,632810
20
81,347660
30
10,000000
11
24,511720
21
81,933590
31
10,000000
0
LINE
8
0
62
0
10
24,511720
20
81,933590
30
10,000000
11
25,292970
21
82,324220
31
10,000000
0
LINE
8
0
62
0
10
25,292970
20
82,324220
30
10,000000
11
26,171880
21
82,714840
31
10,000000
0
LINE
8
0
62
0
10
26,171880
20
82,714840
30
10,000000
11
27,050780
21
83,007810
31
10,000000
0
LINE
8
0
62
0
10
27,050780
20
83,007810
30
10,000000
11
27,832030
21
83,203130
31
10,000000
0
LINE
8
0
62
0
10
27,832030
20
83,203130
30
10,000000
11
28,710940
21
83,398440
31
10,000000
0
LINE
8
0
62
0
10
28,710940
20
83,398440
30
10,000000
11
29,589840
21
83,593750
31
10,000000
0
LINE
8
0
62
0
10
29,589840
20
83,593750
30
10,000000
11
30,371090
21
83,691410
31
10,000000
0
LINE
8
0
62
0
10
30,371090
20
83,691410
30
10,000000
11
31,250000
21
83,691410
31
10,000000
0
LINE
8
0
62
0
10
31,250000
20
83,691410
30
10,000000
11
32,031250
21
83,691410
31
10,000000
0
LINE
8
0
62
0
10
32,031250
20
83,691410
30
10,000000
11
32,714840
21
83,593750
31
10,000000
0
LINE
8
0
62
0
10
32,714840
20
83,593750
30
10,000000
11
33,398440
21
83,398440
31
10,000000
0
LINE
8
0
62
0
10
33,398440
20
83,398440
30
10,000000
11
33,984380
21
83,105470
31
10,000000
0
LINE
8
0
62
0
10
33,984380
20
83,105470
30
10,000000
11
34,570310
21
82,812500
31
10,000000
0
LINE
8
0
62
0
10
34,570310
20
82,812500
30
10,000000
11
35,058590
21
82,421880
31
10,000000
0
LINE
8
0
62
0
10
35,058590
20
82,421880
30
10,000000
11
35,546880
21
81,933590
31
10,000000
0
LINE
8
0
62
0
10
35,546880
20
81,933590
30
10,000000
11
36,035160
21
81,347660
31
10,000000
0
LINE
8
0
62
0
10
36,035160
20
81,347660
30
10,000000
11
36,328130
21
80,761720
31
10,000000
0
LINE
8
0
62
0
10
36,328130
20
80,761720
30
10,000000
11
36,621090
21
80,078130
31
10,000000
0
LINE
8
0
62
0
10
36,621090
20
80,078130
30
10,000000
11
36,816410
21
79,296880
31
10,000000
0
LINE
8
0
62
0
10
36,816410
20
79,296880
30
10,000000
11
36,816410
21
78,515630
31
10,000000
0
LINE
8
0
62
0
10
36,816410
20
78,515630
30
10,000000
11
36,816410
21
77,734380
31
10,000000
0
LINE
8
0
62
0
10
36,816410
20
77,734380
30
10,000000
11
36,718750
21
76,757810
31
10,000000
0
LINE
8
0
62
0
10
36,718750
20
76,757810
30
10,000000
11
36,425780
21
75,781250
31
10,000000
0
LINE
8
0
62
0
10
36,425780
20
75,781250
30
10,000000
11
36,132810
21
74,804690
31
10,000000
0
LINE
8
0
62
0
10
36,132810
20
74,804690
30
10,000000
11
36,035160
21
74,609380
31
10,000000
0
LINE
8
0
62
0
10
36,035160
20
74,609380
30
10,000000
11
36,035160
21
74,316410
31
10,000000
0
LINE
8
0
62
0
10
36,035160
20
74,316410
30
10,000000
11
35,937500
21
74,121090
31
10,000000
0
LINE
8
0
62
0
10
35,937500
20
74,121090
30
10,000000
11
35,839840
21
73,925780
31
10,000000
0
LINE
8
0
62
0
10
35,839840
20
73,925780
30
10,000000
11
35,742190
21
73,730470
31
10,000000
0
LINE
8
0
62
0
10
35,742190
20
73,730470
30
10,000000
11
35,546880
21
73,535160
31
10,000000
0
LINE
8
0
62
0
10
35,546880
20
73,535160
30
10,000000
11
35,449220
21
73,339840
31
10,000000
0
LINE
8
0
62
0
10
35,449220
20
73,339840
30
10,000000
11
35,351560
21
73,144530
31
10,000000
0
LINE
8
0
62
0
10
35,351560
20
73,144530
30
10,000000
11
35,156250
21
72,851560
31
10,000000
0
LINE
8
0
62
0
10
35,156250
20
72,851560
30
10,000000
11
35,058590
21
72,656250
31
10,000000
0
LINE
8
0
62
0
10
35,058590
20
72,656250
30
10,000000
11
34,863280
21
72,460940
31
10,000000
0
LINE
8
0
62
0
10
34,863280
20
72,460940
30
10,000000
11
34,667970
21
72,265630
31
10,000000
0
LINE
8
0
62
0
10
34,667970
20
72,265630
30
10,000000
11
34,472660
21
71,972660
31
10,000000
0
LINE
8
0
62
0
10
34,472660
20
71,972660
30
10,000000
11
34,277340
21
71,777340
31
10,000000
0
LINE
8
0
62
0
10
34,277340
20
71,777340
30
10,000000
11
34,082030
21
71,582030
31
10,000000
0
LINE
8
0
62
0
10
34,082030
20
71,582030
30
10,000000
11
33,886720
21
71,289060
31
10,000000
0
LINE
8
0
62
0
10
33,886720
20
71,289060
30
10,000000
11
33,593750
21
70,898440
31
10,000000
0
LINE
8
0
62
0
10
33,593750
20
70,898440
30
10,000000
11
33,203130
21
70,605470
31
10,000000
0
LINE
8
0
62
0
10
33,203130
20
70,605470
30
10,000000
11
32,812500
21
70,214840
31
10,000000
0
LINE
8
0
62
0
10
32,812500
20
70,214840
30
10,000000
11
32,519530
21
69,824220
31
10,000000
0
LINE
8
0
62
0
10
32,519530
20
69,824220
30
10,000000
11
32,031250
21
69,433590
31
10,000000
0
LINE
8
0
62
0
10
32,031250
20
69,433590
30
10,000000
11
31,640630
21
69,042970
31
10,000000
0
LINE
8
0
62
0
10
31,640630
20
69,042970
30
10,000000
11
31,250000
21
68,652340
31
10,000000
0
LINE
8
0
62
0
10
31,250000
20
68,652340
30
10,000000
11
30,761720
21
68,261720
31
10,000000
0
LINE
8
0
62
0
10
30,761720
20
68,261720
30
10,000000
11
30,273440
21
67,968750
31
10,000000
0
LINE
8
0
62
0
10
30,273440
20
67,968750
30
10,000000
11
29,882810
21
67,578130
31
10,000000
0
LINE
8
0
62
0
10
29,882810
20
67,578130
30
10,000000
11
29,394530
21
67,187500
31
10,000000
0
LINE
8
0
62
0
10
29,394530
20
67,187500
30
10,000000
11
28,906250
21
66,894530
31
10,000000
0
LINE
8
0
62
0
10
28,906250
20
66,894530
30
10,000000
11
28,515630
21
66,503910
31
10,000000
0
LINE
8
0
62
0
10
28,515630
20
66,503910
30
10,000000
11
28,027340
21
66,210940
31
10,000000
0
LINE
8
0
62
0
10
28,027340
20
66,210940
30
10,000000
11
27,636720
21
65,917970
31
10,000000
0
LINE
8
0
62
0
10
27,636720
20
65,917970
30
10,000000
11
27,148440
21
65,625000
31
10,000000
0
LINE
8
0
62
0
10
27,148440
20
65,625000
30
10,000000
11
26,660160
21
65,234380
31
10,000000
0
LINE
8
0
62
0
10
26,660160
20
65,234380
30
10,000000
11
26,171880
21
64,941410
31
10,000000
0
LINE
8
0
62
0
10
26,171880
20
64,941410
30
10,000000
11
25,683590
21
64,648440
31
10,000000
0
LINE
8
0
62
0
10
25,683590
20
64,648440
30
10,000000
11
25,195310
21
64,355470
31
10,000000
0
LINE
8
0
62
0
10
25,195310
20
64,355470
30
10,000000
11
24,707030
21
64,062500
31
10,000000
0
LINE
8
0
62
0
10
24,707030
20
64,062500
30
10,000000
11
24,218750
21
63,867190
31
10,000000
0
LINE
8
0
62
0
10
24,218750
20
63,867190
30
10,000000
11
23,828130
21
63,574220
31
10,000000
0
LINE
8
0
62
0
10
23,828130
20
63,574220
30
10,000000
11
23,339840
21
63,378910
31
10,000000
0
LINE
8
0
62
0
10
23,339840
20
63,378910
30
10,000000
11
22,949220
21
63,183590
31
10,000000
0
LINE
8
0
62
0
10
22,949220
20
63,183590
30
10,000000
11
22,558590
21
62,988280
31
10,000000
0
LINE
8
0
62
0
10
22,558590
20
62,988280
30
10,000000
11
22,167970
21
62,890630
31
10,000000
0
LINE
8
0
62
0
10
22,167970
20
62,890630
30
10,000000
11
21,777340
21
62,695310
31
10,000000
0
LINE
8
0
62
0
10
21,777340
20
62,695310
30
10,000000
11
21,484380
21
62,597660
31
10,000000
0
LINE
8
0
62
0
10
21,484380
20
62,597660
30
10,000000
11
21,191410
21
62,597660
31
10,000000
0
LINE
8
0
62
0
10
21,191410
20
62,597660
30
10,000000
11
20,898440
21
62,500000
31
10,000000
0
LINE
8
0
62
0
10
20,898440
20
62,500000
30
10,000000
11
20,703130
21
62,500000
31
10,000000
0
LINE
8
0
62
0
10
20,703130
20
62,500000
30
10,000000
11
20,214840
21
62,597660
31
10,000000
0
LINE
8
0
62
0
10
20,214840
20
62,597660
30
10,000000
11
19,824220
21
62,695310
31
10,000000
0
LINE
8
0
62
0
10
19,824220
20
62,695310
30
10,000000
11
19,433590
21
62,890630
31
10,000000
0
LINE
8
0
62
0
10
19,433590
20
62,890630
30
10,000000
11
19,042970
21
63,085940
31
10,000000
0
LINE
8
0
62
0
10
19,042970
20
63,085940
30
10,000000
11
18,750000
21
63,476560
31
10,000000
0
LINE
8
0
62
0
10
18,750000
20
63,476560
30
10,000000
11
18,554690
21
63,867190
31
10,000000
0
LINE
8
0
62
0
10
18,554690
20
63,867190
30
10,000000
11
18,359380
21
64,355470
31
10,000000
0
LINE
8
0
62
0
10
18,359380
20
64,355470
30
10,000000
11
18,261720
21
64,941410
31
10,000000
0
LINE
8
0
62
0
10
18,261720
20
64,941410
30
10,000000
11
18,164060
21
65,527340
31
10,000000
0
LINE
8
0
62
0
10
18,164060
20
65,527340
30
10,000000
11
18,066410
21
66,113280
31
10,000000
0
LINE
8
0
62
0
10
18,066410
20
66,113280
30
10,000000
11
17,968750
21
66,796880
31
10,000000
0
LINE
8
0
62
0
10
17,968750
20
66,796880
30
10,000000
11
17,968750
21
67,480470
31
10,000000
0
LINE
8
0
62
0
10
17,968750
20
67,480470
30
10,000000
11
17,968750
21
68,164060
31
10,000000
0
LINE
8
0
62
0
10
17,968750
20
68,164060
30
10,000000
11
17,968750
21
68,847660
31
10,000000
0
LINE
8
0
62
0
10
17,968750
20
68,847660
30
10,000000
11
18,066410
21
69,531250
31
10,000000
0
LINE
8
0
62
0
10
42,480470
20
44,628910
30
10,000000
11
42,480470
21
44,628910
31
10,000000
0
LINE
8
0
62
0
10
42,480470
20
44,628910
30
10,000000
11
42,480470
21
44,628910
31
10,000000
0
LINE
8
0
62
0
10
42,480470
20
44,628910
30
10,000000
11
42,480470
21
44,726560
31
10,000000
0
LINE
8
0
62
0
10
42,480470
20
44,726560
30
10,000000
11
42,480470
21
44,824220
31
10,000000
0
LINE
8
0
62
0
10
42,480470
20
44,824220
30
10,000000
11
42,480470
21
44,921880
31
10,000000
0
LINE
8
0
62
0
10
42,480470
20
44,921880
30
10,000000
11
42,578130
21
44,921880
31
10,000000
0
LINE
8
0
62
0
10
42,578130
20
44,921880
30
10,000000
11
42,578130
21
45,019530
31
10,000000
0
LINE
8
0
62
0
10
42,578130
20
45,019530
30
10,000000
11
42,480470
21
45,117190
31
10,000000
0
LINE
8
0
62
0
10
42,480470
20
45,117190
30
10,000000
11
42,480470
21
45,214840
31
10,000000
0
LINE
8
0
62
0
10
42,480470
20
45,214840
30
10,000000
11
42,480470
21
45,312500
31
10,000000
0
LINE
8
0
62
0
10
42,480470
20
45,312500
30
10,000000
11
42,382810
21
45,410160
31
10,000000
0
LINE
8
0
62
0
10
42,382810
20
45,410160
30
10,000000
11
42,382810
21
45,507810
31
10,000000
0
LINE
8
0
62
0
10
42,382810
20
45,507810
30
10,000000
11
42,285160
21
45,605470
31
10,000000
0
LINE
8
0
62
0
10
42,285160
20
45,605470
30
10,000000
11
42,285160
21
45,703130
31
10,000000
0
LINE
8
0
62
0
10
42,285160
20
45,703130
30
10,000000
11
42,187500
21
45,800780
31
10,000000
0
LINE
8
0
62
0
10
42,187500
20
45,800780
30
10,000000
11
42,089840
21
45,898440
31
10,000000
0
LINE
8
0
62
0
10
42,089840
20
45,898440
30
10,000000
11
41,992190
21
45,996090
31
10,000000
0
LINE
8
0
62
0
10
41,992190
20
45,996090
30
10,000000
11
41,894530
21
46,093750
31
10,000000
0
LINE
8
0
62
0
10
41,894530
20
46,093750
30
10,000000
11
41,796880
21
46,093750
31
10,000000
0
LINE
8
0
62
0
10
41,796880
20
46,093750
30
10,000000
11
41,699220
21
46,191410
31
10,000000
0
LINE
8
0
62
0
10
41,699220
20
46,191410
30
10,000000
11
41,601560
21
46,289060
31
10,000000
0
LINE
8
0
62
0
10
41,601560
20
46,289060
30
10,000000
11
41,503910
21
46,386720
31
10,000000
0
LINE
8
0
62
0
10
41,503910
20
46,386720
30
10,000000
11
41,308590
21
46,386720
31
10,000000
0
LINE
8
0
62
0
10
41,308590
20
46,386720
30
10,000000
11
41,210940
21
46,484380
31
10,000000
0
LINE
8
0
62
0
10
41,210940
20
46,484380
30
10,000000
11
41,015630
21
46,484380
31
10,000000
0
LINE
8
0
62
0
10
41,015630
20
46,484380
30
10,000000
11
40,820310
21
46,582030
31
10,000000
0
LINE
8
0
62
0
10
40,820310
20
46,582030
30
10,000000
11
40,625000
21
46,582030
31
10,000000
0
LINE
8
0
62
0
10
40,625000
20
46,582030
30
10,000000
11
40,332030
21
46,582030
31
10,000000
0
LINE
8
0
62
0
10
40,332030
20
46,582030
30
10,000000
11
40,136720
21
46,582030
31
10,000000
0
LINE
8
0
62
0
10
40,136720
20
46,582030
30
10,000000
11
39,843750
21
46,484380
31
10,000000
0
LINE
8
0
62
0
10
39,843750
20
46,484380
30
10,000000
11
39,550780
21
46,484380
31
10,000000
0
LINE
8
0
62
0
10
39,550780
20
46,484380
30
10,000000
11
39,160160
21
46,386720
31
10,000000
0
LINE
8
0
62
0
10
39,160160
20
46,386720
30
10,000000
11
38,867190
21
46,289060
31
10,000000
0
LINE
8
0
62
0
10
38,867190
20
46,289060
30
10,000000
11
38,476560
21
46,191410
31
10,000000
0
LINE
8
0
62
0
10
38,476560
20
46,191410
30
10,000000
11
37,988280
21
45,996090
31
10,000000
0
LINE
8
0
62
0
10
37,988280
20
45,996090
30
10,000000
11
37,597660
21
45,898440
31
10,000000
0
LINE
8
0
62
0
10
37,597660
20
45,898440
30
10,000000
11
37,109380
21
45,703130
31
10,000000
0
LINE
8
0
62
0
10
37,109380
20
45,703130
30
10,000000
11
36,621090
21
45,507810
31
10,000000
0
LINE
8
0
62
0
10
36,621090
20
45,507810
30
10,000000
11
36,035160
21
45,214840
31
10,000000
0
LINE
8
0
62
0
10
36,035160
20
45,214840
30
10,000000
11
35,449220
21
44,921880
31
10,000000
0
LINE
8
0
62
0
10
35,449220
20
44,921880
30
10,000000
11
34,765630
21
44,628910
31
10,000000
0
LINE
8
0
62
0
10
34,765630
20
44,628910
30
10,000000
11
34,179690
21
44,238280
31
10,000000
0
LINE
8
0
62
0
10
34,179690
20
44,238280
30
10,000000
11
33,398440
21
43,847660
31
10,000000
0
LINE
8
0
62
0
10
33,398440
20
43,847660
30
10,000000
11
32,714840
21
43,457030
31
10,000000
0
LINE
8
0
62
0
10
32,714840
20
43,457030
30
10,000000
11
32,617190
21
43,554690
31
10,000000
0
LINE
8
0
62
0
10
32,617190
20
43,554690
30
10,000000
11
32,714840
21
43,652340
31
10,000000
0
LINE
8
0
62
0
10
32,714840
20
43,652340
30
10,000000
11
32,812500
21
43,652340
31
10,000000
0
LINE
8
0
62
0
10
32,812500
20
43,652340
30
10,000000
11
33,007810
21
43,847660
31
10,000000
0
LINE
8
0
62
0
10
33,007810
20
43,847660
30
10,000000
11
33,300780
21
44,042970
31
10,000000
0
LINE
8
0
62
0
10
33,300780
20
44,042970
30
10,000000
11
33,691410
21
44,335940
31
10,000000
0
LINE
8
0
62
0
10
33,691410
20
44,335940
30
10,000000
11
34,082030
21
44,628910
31
10,000000
0
LINE
8
0
62
0
10
34,082030
20
44,628910
30
10,000000
11
34,570310
21
45,019530
31
10,000000
0
LINE
8
0
62
0
10
34,570310
20
45,019530
30
10,000000
11
35,156250
21
45,507810
31
10,000000
0
LINE
8
0
62
0
10
35,156250
20
45,507810
30
10,000000
11
35,839840
21
46,093750
31
10,000000
0
LINE
8
0
62
0
10
35,839840
20
46,093750
30
10,000000
11
36,523440
21
46,582030
31
10,000000
0
LINE
8
0
62
0
10
36,523440
20
46,582030
30
10,000000
11
37,207030
21
47,167970
31
10,000000
0
LINE
8
0
62
0
10
37,207030
20
47,167970
30
10,000000
11
37,890630
21
47,753910
31
10,000000
0
LINE
8
0
62
0
10
37,890630
20
47,753910
30
10,000000
11
38,671880
21
48,339840
31
10,000000
0
LINE
8
0
62
0
10
38,671880
20
48,339840
30
10,000000
11
39,453130
21
48,925780
31
10,000000
0
LINE
8
0
62
0
10
39,453130
20
48,925780
30
10,000000
11
40,234380
21
49,609380
31
10,000000
0
LINE
8
0
62
0
10
40,234380
20
49,609380
30
10,000000
11
41,113280
21
50,195310
31
10,000000
0
LINE
8
0
62
0
10
41,113280
20
50,195310
30
10,000000
11
41,308590
21
50,390630
31
10,000000
0
LINE
8
0
62
0
10
41,308590
20
50,390630
30
10,000000
11
41,503910
21
50,488280
31
10,000000
0
LINE
8
0
62
0
10
41,503910
20
50,488280
30
10,000000
11
41,796880
21
50,683590
31
10,000000
0
LINE
8
0
62
0
10
41,796880
20
50,683590
30
10,000000
11
41,992190
21
50,878910
31
10,000000
0
LINE
8
0
62
0
10
41,992190
20
50,878910
30
10,000000
11
42,285160
21
51,074220
31
10,000000
0
LINE
8
0
62
0
10
42,285160
20
51,074220
30
10,000000
11
42,480470
21
51,269530
31
10,000000
0
LINE
8
0
62
0
10
42,480470
20
51,269530
30
10,000000
11
42,773440
21
51,464840
31
10,000000
0
LINE
8
0
62
0
10
42,773440
20
51,464840
30
10,000000
11
43,066410
21
51,562500
31
10,000000
0
LINE
8
0
62
0
10
43,066410
20
51,562500
30
10,000000
11
43,261720
21
51,757810
31
10,000000
0
LINE
8
0
62
0
10
43,261720
20
51,757810
30
10,000000
11
43,554690
21
51,953130
31
10,000000
0
LINE
8
0
62
0
10
43,554690
20
51,953130
30
10,000000
11
43,847660
21
52,148440
31
10,000000
0
LINE
8
0
62
0
10
43,847660
20
52,148440
30
10,000000
11
44,042970
21
52,343750
31
10,000000
0
LINE
8
0
62
0
10
44,042970
20
52,343750
30
10,000000
11
44,335940
21
52,539060
31
10,000000
0
LINE
8
0
62
0
10
44,335940
20
52,539060
30
10,000000
11
44,628910
21
52,636720
31
10,000000
0
LINE
8
0
62
0
10
44,628910
20
52,636720
30
10,000000
11
44,824220
21
52,832030
31
10,000000
0
LINE
8
0
62
0
10
44,824220
20
52,832030
30
10,000000
11
45,117190
21
53,027340
31
10,000000
0
LINE
8
0
62
0
10
45,117190
20
53,027340
30
10,000000
11
45,703130
21
53,417970
31
10,000000
0
LINE
8
0
62
0
10
45,703130
20
53,417970
30
10,000000
11
46,386720
21
53,808590
31
10,000000
0
LINE
8
0
62
0
10
46,386720
20
53,808590
30
10,000000
11
46,972660
21
54,199220
31
10,000000
0
LINE
8
0
62
0
10
46,972660
20
54,199220
30
10,000000
11
47,558590
21
54,492190
31
10,000000
0
LINE
8
0
62
0
10
47,558590
20
54,492190
30
10,000000
11
48,144530
21
54,882810
31
10,000000
0
LINE
8
0
62
0
10
48,144530
20
54,882810
30
10,000000
11
48,730470
21
55,175780
31
10,000000
0
LINE
8
0
62
0
10
48,730470
20
55,175780
30
10,000000
11
49,316410
21
55,468750
31
10,000000
0
LINE
8
0
62
0
10
49,316410
20
55,468750
30
10,000000
11
49,804690
21
55,761720
31
10,000000
0
LINE
8
0
62
0
10
49,804690
20
55,761720
30
10,000000
11
50,390630
21
56,054690
31
10,000000
0
LINE
8
0
62
0
10
50,390630
20
56,054690
30
10,000000
11
50,878910
21
56,250000
31
10,000000
0
LINE
8
0
62
0
10
50,878910
20
56,250000
30
10,000000
11
51,367190
21
56,445310
31
10,000000
0
LINE
8
0
62
0
10
51,367190
20
56,445310
30
10,000000
11
51,855470
21
56,640630
31
10,000000
0
LINE
8
0
62
0
10
51,855470
20
56,640630
30
10,000000
11
52,246090
21
56,738280
31
10,000000
0
LINE
8
0
62
0
10
52,246090
20
56,738280
30
10,000000
11
52,636720
21
56,835940
31
10,000000
0
LINE
8
0
62
0
10
52,636720
20
56,835940
30
10,000000
11
53,027340
21
56,933590
31
10,000000
0
LINE
8
0
62
0
10
53,027340
20
56,933590
30
10,000000
11
53,320310
21
56,933590
31
10,000000
0
LINE
8
0
62
0
10
53,320310
20
56,933590
30
10,000000
11
53,906250
21
56,835940
31
10,000000
0
LINE
8
0
62
0
10
53,906250
20
56,835940
30
10,000000
11
54,492190
21
56,738280
31
10,000000
0
LINE
8
0
62
0
10
54,492190
20
56,738280
30
10,000000
11
54,882810
21
56,445310
31
10,000000
0
LINE
8
0
62
0
10
54,882810
20
56,445310
30
10,000000
11
55,273440
21
56,054690
31
10,000000
0
LINE
8
0
62
0
10
55,273440
20
56,054690
30
10,000000
11
55,566410
21
55,566410
31
10,000000
0
LINE
8
0
62
0
10
55,566410
20
55,566410
30
10,000000
11
55,761720
21
54,980470
31
10,000000
0
LINE
8
0
62
0
10
55,761720
20
54,980470
30
10,000000
11
55,859380
21
54,296880
31
10,000000
0
LINE
8
0
62
0
10
55,859380
20
54,296880
30
10,000000
11
55,859380
21
53,515630
31
10,000000
0
LINE
8
0
62
0
10
55,859380
20
53,515630
30
10,000000
11
55,859380
21
52,636720
31
10,000000
0
LINE
8
0
62
0
10
55,859380
20
52,636720
30
10,000000
11
55,859380
21
51,660160
31
10,000000
0
LINE
8
0
62
0
10
55,859380
20
51,660160
30
10,000000
11
55,761720
21
50,781250
31
10,000000
0
LINE
8
0
62
0
10
55,761720
20
50,781250
30
10,000000
11
55,664060
21
49,804690
31
10,000000
0
LINE
8
0
62
0
10
55,664060
20
49,804690
30
10,000000
11
55,468750
21
48,828130
31
10,000000
0
LINE
8
0
62
0
10
55,468750
20
48,828130
30
10,000000
11
55,273440
21
47,851560
31
10,000000
0
LINE
8
0
62
0
10
55,273440
20
47,851560
30
10,000000
11
55,078130
21
46,777340
31
10,000000
0
LINE
8
0
62
0
10
55,078130
20
46,777340
30
10,000000
11
54,882810
21
45,703130
31
10,000000
0
LINE
8
0
62
0
10
54,882810
20
45,703130
30
10,000000
11
54,687500
21
45,117190
31
10,000000
0
LINE
8
0
62
0
10
54,687500
20
45,117190
30
10,000000
11
54,589840
21
44,433590
31
10,000000
0
LINE
8
0
62
0
10
54,589840
20
44,433590
30
10,000000
11
54,394530
21
43,847660
31
10,000000
0
LINE
8
0
62
0
10
54,394530
20
43,847660
30
10,000000
11
54,199220
21
43,261720
31
10,000000
0
LINE
8
0
62
0
10
54,199220
20
43,261720
30
10,000000
11
54,101560
21
42,578130
31
10,000000
0
LINE
8
0
62
0
10
54,101560
20
42,578130
30
10,000000
11
53,906250
21
41,992190
31
10,000000
0
LINE
8
0
62
0
10
53,906250
20
41,992190
30
10,000000
11
53,710940
21
41,406250
31
10,000000
0
LINE
8
0
62
0
10
53,710940
20
41,406250
30
10,000000
11
53,515630
21
40,820310
31
10,000000
0
LINE
8
0
62
0
10
53,515630
20
40,820310
30
10,000000
11
53,320310
21
40,234380
31
10,000000
0
LINE
8
0
62
0
10
53,320310
20
40,234380
30
10,000000
11
53,125000
21
39,648440
31
10,000000
0
LINE
8
0
62
0
10
53,125000
20
39,648440
30
10,000000
11
53,027340
21
39,160160
31
10,000000
0
LINE
8
0
62
0
10
53,027340
20
39,160160
30
10,000000
11
52,832030
21
38,574220
31
10,000000
0
LINE
8
0
62
0
10
52,832030
20
38,574220
30
10,000000
11
52,636720
21
38,085940
31
10,000000
0
LINE
8
0
62
0
10
52,636720
20
38,085940
30
10,000000
11
52,539060
21
37,695310
31
10,000000
0
LINE
8
0
62
0
10
52,539060
20
37,695310
30
10,000000
11
52,343750
21
37,207030
31
10,000000
0
LINE
8
0
62
0
10
52,343750
20
37,207030
30
10,000000
11
52,246090
21
36,816410
31
10,000000
0
LINE
8
0
62
0
10
52,246090
20
36,816410
30
10,000000
11
52,148440
21
36,523440
31
10,000000
0
LINE
8
0
62
0
10
52,148440
20
36,523440
30
10,000000
11
52,050780
21
36,328130
31
10,000000
0
LINE
8
0
62
0
10
52,050780
20
36,328130
30
10,000000
11
51,953130
21
36,035160
31
10,000000
0
LINE
8
0
62
0
10
51,953130
20
36,035160
30
10,000000
11
51,855470
21
35,839840
31
10,000000
0
LINE
8
0
62
0
10
51,855470
20
35,839840
30
10,000000
11
51,757810
21
35,546880
31
10,000000
0
LINE
8
0
62
0
10
51,757810
20
35,546880
30
10,000000
11
51,660160
21
35,253910
31
10,000000
0
LINE
8
0
62
0
10
51,660160
20
35,253910
30
10,000000
11
51,562500
21
34,960940
31
10,000000
0
LINE
8
0
62
0
10
51,562500
20
34,960940
30
10,000000
11
51,464840
21
34,667970
31
10,000000
0
LINE
8
0
62
0
10
51,464840
20
34,667970
30
10,000000
11
51,757810
21
34,960940
31
10,000000
0
LINE
8
0
62
0
10
51,757810
20
34,960940
30
10,000000
11
52,050780
21
35,351560
31
10,000000
0
LINE
8
0
62
0
10
52,050780
20
35,351560
30
10,000000
11
52,441410
21
35,742190
31
10,000000
0
LINE
8
0
62
0
10
52,441410
20
35,742190
30
10,000000
11
52,929690
21
36,230470
31
10,000000
0
LINE
8
0
62
0
10
52,929690
20
36,230470
30
10,000000
11
53,515630
21
36,816410
31
10,000000
0
LINE
8
0
62
0
10
53,515630
20
36,816410
30
10,000000
11
54,101560
21
37,402340
31
10,000000
0
LINE
8
0
62
0
10
54,101560
20
37,402340
30
10,000000
11
54,687500
21
38,085940
31
10,000000
0
LINE
8
0
62
0
10
54,687500
20
38,085940
30
10,000000
11
55,468750
21
38,867190
31
10,000000
0
LINE
8
0
62
0
10
55,468750
20
38,867190
30
10,000000
11
56,152340
21
39,648440
31
10,000000
0
LINE
8
0
62
0
10
56,152340
20
39,648440
30
10,000000
11
57,031250
21
40,429690
31
10,000000
0
LINE
8
0
62
0
10
57,031250
20
40,429690
30
10,000000
11
57,812500
21
41,308590
31
10,000000
0
LINE
8
0
62
0
10
57,812500
20
41,308590
30
10,000000
11
58,691410
21
42,089840
31
10,000000
0
LINE
8
0
62
0
10
58,691410
20
42,089840
30
10,000000
11
59,570310
21
42,968750
31
10,000000
0
LINE
8
0
62
0
10
59,570310
20
42,968750
30
10,000000
11
60,546880
21
43,847660
31
10,000000
0
LINE
8
0
62
0
10
60,546880
20
43,847660
30
10,000000
11
61,425780
21
44,726560
31
10,000000
0
LINE
8
0
62
0
10
61,425780
20
44,726560
30
10,000000
11
62,500000
21
45,605470
31
10,000000
0
LINE
8
0
62
0
10
62,500000
20
45,605470
30
10,000000
11
63,378910
21
46,386720
31
10,000000
0
LINE
8
0
62
0
10
63,378910
20
46,386720
30
10,000000
11
64,355470
21
47,265630
31
10,000000
0
LINE
8
0
62
0
10
64,355470
20
47,265630
30
10,000000
11
65,332030
21
48,046880
31
10,000000
0
LINE
8
0
62
0
10
65,332030
20
48,046880
30
10,000000
11
66,406250
21
48,828130
31
10,000000
0
LINE
8
0
62
0
10
66,406250
20
48,828130
30
10,000000
11
67,382810
21
49,707030
31
10,000000
0
LINE
8
0
62
0
10
67,382810
20
49,707030
30
10,000000
11
68,457030
21
50,488280
31
10,000000
0
LINE
8
0
62
0
10
68,457030
20
50,488280
30
10,000000
11
69,531250
21
51,269530
31
10,000000
0
LINE
8
0
62
0
10
69,531250
20
51,269530
30
10,000000
11
70,605470
21
51,953130
31
10,000000
0
LINE
8
0
62
0
10
70,605470
20
51,953130
30
10,000000
11
71,679690
21
52,734380
31
10,000000
0
LINE
8
0
62
0
10
71,679690
20
52,734380
30
10,000000
11
72,656250
21
53,417970
31
10,000000
0
LINE
8
0
62
0
10
72,656250
20
53,417970
30
10,000000
11
73,730470
21
54,003910
31
10,000000
0
LINE
8
0
62
0
10
73,730470
20
54,003910
30
10,000000
11
74,707030
21
54,589840
31
10,000000
0
LINE
8
0
62
0
10
74,707030
20
54,589840
30
10,000000
11
75,683590
21
55,078130
31
10,000000
0
LINE
8
0
62
0
10
75,683590
20
55,078130
30
10,000000
11
76,757810
21
55,566410
31
10,000000
0
LINE
8
0
62
0
10
76,757810
20
55,566410
30
10,000000
11
77,636720
21
55,957030
31
10,000000
0
LINE
8
0
62
0
10
77,636720
20
55,957030
30
10,000000
11
78,613280
21
56,250000
31
10,000000
0
LINE
8
0
62
0
10
78,613280
20
56,250000
30
10,000000
11
78,906250
21
56,347660
31
10,000000
0
LINE
8
0
62
0
10
78,906250
20
56,347660
30
10,000000
11
79,101560
21
56,347660
31
10,000000
0
LINE
8
0
62
0
10
79,101560
20
56,347660
30
10,000000
11
79,394530
21
56,445310
31
10,000000
0
LINE
8
0
62
0
10
79,394530
20
56,445310
30
10,000000
11
79,589840
21
56,542970
31
10,000000
0
LINE
8
0
62
0
10
79,589840
20
56,542970
30
10,000000
11
79,882810
21
56,542970
31
10,000000
0
LINE
8
0
62
0
10
79,882810
20
56,542970
30
10,000000
11
80,078130
21
56,640630
31
10,000000
0
LINE
8
0
62
0
10
80,078130
20
56,640630
30
10,000000
11
80,371090
21
56,640630
31
10,000000
0
LINE
8
0
62
0
10
80,371090
20
56,640630
30
10,000000
11
80,566410
21
56,738280
31
10,000000
0
LINE
8
0
62
0
10
80,566410
20
56,738280
30
10,000000
11
80,859380
21
56,738280
31
10,000000
0
LINE
8
0
62
0
10
80,859380
20
56,738280
30
10,000000
11
81,054690
21
56,835940
31
10,000000
0
LINE
8
0
62
0
10
81,054690
20
56,835940
30
10,000000
11
81,250000
21
56,835940
31
10,000000
0
LINE
8
0
62
0
10
81,250000
20
56,835940
30
10,000000
11
81,445310
21
56,835940
31
10,000000
0
LINE
8
0
62
0
10
81,445310
20
56,835940
30
10,000000
11
81,738280
21
56,933590
31
10,000000
0
LINE
8
0
62
0
10
81,738280
20
56,933590
30
10,000000
11
81,933590
21
56,933590
31
10,000000
0
LINE
8
0
62
0
10
81,933590
20
56,933590
30
10,000000
11
82,128910
21
56,933590
31
10,000000
0
LINE
8
0
62
0
10
82,128910
20
56,933590
30
10,000000
11
82,324220
21
56,933590
31
10,000000
0
LINE
8
0
62
0
10
82,324220
20
56,933590
30
10,000000
11
83,007810
21
56,933590
31
10,000000
0
LINE
8
0
62
0
10
83,007810
20
56,933590
30
10,000000
11
83,691410
21
56,835940
31
10,000000
0
LINE
8
0
62
0
10
83,691410
20
56,835940
30
10,000000
11
84,277340
21
56,640630
31
10,000000
0
LINE
8
0
62
0
10
84,277340
20
56,640630
30
10,000000
11
84,765630
21
56,445310
31
10,000000
0
LINE
8
0
62
0
10
84,765630
20
56,445310
30
10,000000
11
85,253910
21
56,152340
31
10,000000
0
LINE
8
0
62
0
10
85,253910
20
56,152340
30
10,000000
11
85,644530
21
55,761720
31
10,000000
0
LINE
8
0
62
0
10
85,644530
20
55,761720
30
10,000000
11
86,035160
21
55,371090
31
10,000000
0
LINE
8
0
62
0
10
86,035160
20
55,371090
30
10,000000
11
86,328130
21
54,882810
31
10,000000
0
LINE
8
0
62
0
10
86,328130
20
54,882810
30
10,000000
11
86,523440
21
54,296880
31
10,000000
0
LINE
8
0
62
0
10
86,523440
20
54,296880
30
10,000000
11
86,816410
21
53,808590
31
10,000000
0
LINE
8
0
62
0
10
86,816410
20
53,808590
30
10,000000
11
87,011720
21
53,222660
31
10,000000
0
LINE
8
0
62
0
10
87,011720
20
53,222660
30
10,000000
11
87,109380
21
52,734380
31
10,000000
0
LINE
8
0
62
0
10
87,109380
20
52,734380
30
10,000000
11
87,207030
21
52,148440
31
10,000000
0
LINE
8
0
62
0
10
87,207030
20
52,148440
30
10,000000
11
87,304690
21
51,562500
31
10,000000
0
LINE
8
0
62
0
10
87,304690
20
51,562500
30
10,000000
11
87,402340
21
50,976560
31
10,000000
0
LINE
8
0
62
0
10
87,402340
20
50,976560
30
10,000000
11
87,402340
21
50,390630
31
10,000000
0
LINE
8
0
62
0
10
87,402340
20
50,390630
30
10,000000
11
87,402340
21
50,195310
31
10,000000
0
LINE
8
0
62
0
10
87,402340
20
50,195310
30
10,000000
11
87,402340
21
49,902340
31
10,000000
0
LINE
8
0
62
0
10
87,402340
20
49,902340
30
10,000000
11
87,304690
21
49,707030
31
10,000000
0
LINE
8
0
62
0
10
87,304690
20
49,707030
30
10,000000
11
87,304690
21
49,511720
31
10,000000
0
LINE
8
0
62
0
10
87,304690
20
49,511720
30
10,000000
11
87,304690
21
49,218750
31
10,000000
0
LINE
8
0
62
0
10
87,304690
20
49,218750
30
10,000000
11
87,304690
21
49,023440
31
10,000000
0
LINE
8
0
62
0
10
87,304690
20
49,023440
30
10,000000
11
87,207030
21
48,828130
31
10,000000
0
LINE
8
0
62
0
10
87,207030
20
48,828130
30
10,000000
11
87,207030
21
48,632810
31
10,000000
0
LINE
8
0
62
0
10
87,207030
20
48,632810
30
10,000000
11
87,109380
21
48,339840
31
10,000000
0
LINE
8
0
62
0
10
87,109380
20
48,339840
30
10,000000
11
87,109380
21
48,144530
31
10,000000
0
LINE
8
0
62
0
10
87,109380
20
48,144530
30
10,000000
11
87,011720
21
47,949220
31
10,000000
0
LINE
8
0
62
0
10
87,011720
20
47,949220
30
10,000000
11
87,011720
21
47,753910
31
10,000000
0
LINE
8
0
62
0
10
87,011720
20
47,753910
30
10,000000
11
86,914060
21
47,558590
31
10,000000
0
LINE
8
0
62
0
10
86,914060
20
47,558590
30
10,000000
11
86,914060
21
47,363280
31
10,000000
0
LINE
8
0
62
0
10
86,914060
20
47,363280
30
10,000000
11
86,816410
21
47,167970
31
10,000000
0
LINE
8
0
62
0
10
86,816410
20
47,167970
30
10,000000
11
86,718750
21
46,972660
31
10,000000
0
LINE
8
0
62
0
10
86,718750
20
46,972660
30
10,000000
11
73,535160
21
8,007813
31
10,000000
0
LINE
8
0
62
0
10
73,535160
20
8,007813
30
10,000000
11
73,535160
21
7,910156
31
10,000000
0
LINE
8
0
62
0
10
73,535160
20
7,910156
30
10,000000
11
73,535160
21
7,812500
31
10,000000
0
LINE
8
0
62
0
10
73,535160
20
7,812500
30
10,000000
11
73,535160
21
7,812500
31
10,000000
0
LINE
8
0
62
0
10
73,535160
20
7,812500
30
10,000000
11
73,535160
21
7,714844
31
10,000000
0
LINE
8
0
62
0
10
73,535160
20
7,714844
30
10,000000
11
73,632810
21
7,617188
31
10,000000
0
LINE
8
0
62
0
10
73,632810
20
7,617188
30
10,000000
11
73,632810
21
7,617188
31
10,000000
0
LINE
8
0
62
0
10
73,632810
20
7,617188
30
10,000000
11
73,632810
21
7,519531
31
10,000000
0
LINE
8
0
62
0
10
73,632810
20
7,519531
30
10,000000
11
73,730470
21
7,519531
31
10,000000
0
LINE
8
0
62
0
10
73,730470
20
7,519531
30
10,000000
11
73,730470
21
7,421875
31
10,000000
0
LINE
8
0
62
0
10
73,730470
20
7,421875
30
10,000000
11
73,828130
21
7,421875
31
10,000000
0
LINE
8
0
62
0
10
73,828130
20
7,421875
30
10,000000
11
73,925780
21
7,324219
31
10,000000
0
LINE
8
0
62
0
10
73,925780
20
7,324219
30
10,000000
11
74,023440
21
7,324219
31
10,000000
0
LINE
8
0
62
0
10
74,023440
20
7,324219
30
10,000000
11
74,121090
21
7,324219
31
10,000000
0
LINE
8
0
62
0
10
74,121090
20
7,324219
30
10,000000
11
74,218750
21
7,226563
31
10,000000
0
LINE
8
0
62
0
10
74,218750
20
7,226563
30
10,000000
11
74,316410
21
7,226563
31
10,000000
0
LINE
8
0
62
0
10
74,316410
20
7,226563
30
10,000000
11
74,414060
21
7,226563
31
10,000000
0
LINE
8
0
62
0
10
74,414060
20
7,226563
30
10,000000
11
74,511720
21
7,226563
31
10,000000
0
LINE
8
0
62
0
10
74,511720
20
7,226563
30
10,000000
11
74,609380
21
7,226563
31
10,000000
0
LINE
8
0
62
0
10
74,609380
20
7,226563
30
10,000000
11
74,707030
21
7,226563
31
10,000000
0
LINE
8
0
62
0
10
74,707030
20
7,226563
30
10,000000
11
74,804690
21
7,226563
31
10,000000
0
LINE
8
0
62
0
10
74,804690
20
7,226563
30
10,000000
11
74,902340
21
7,226563
31
10,000000
0
LINE
8
0
62
0
10
74,902340
20
7,226563
30
10,000000
11
75,097660
21
7,128906
31
10,000000
0
LINE
8
0
62
0
10
75,097660
20
7,128906
30
10,000000
11
75,195310
21
7,128906
31
10,000000
0
LINE
8
0
62
0
10
75,195310
20
7,128906
30
10,000000
11
75,292970
21
7,128906
31
10,000000
0
LINE
8
0
62
0
10
75,292970
20
7,128906
30
10,000000
11
75,585940
21
7,226563
31
10,000000
0
LINE
8
0
62
0
10
75,585940
20
7,226563
30
10,000000
11
75,878910
21
7,226563
31
10,000000
0
LINE
8
0
62
0
10
75,878910
20
7,226563
30
10,000000
11
76,171880
21
7,226563
31
10,000000
0
LINE
8
0
62
0
10
76,171880
20
7,226563
30
10,000000
11
76,562500
21
7,324219
31
10,000000
0
LINE
8
0
62
0
10
76,562500
20
7,324219
30
10,000000
11
76,953130
21
7,421875
31
10,000000
0
LINE
8
0
62
0
10
76,953130
20
7,421875
30
10,000000
11
77,343750
21
7,617188
31
10,000000
0
LINE
8
0
62
0
10
77,343750
20
7,617188
30
10,000000
11
77,832030
21
7,714844
31
10,000000
0
LINE
8
0
62
0
10
77,832030
20
7,714844
30
10,000000
11
78,320310
21
7,910156
31
10,000000
0
LINE
8
0
62
0
10
78,320310
20
7,910156
30
10,000000
11
78,808590
21
8,105469
31
10,000000
0
LINE
8
0
62
0
10
78,808590
20
8,105469
30
10,000000
11
79,394530
21
8,398438
31
10,000000
0
LINE
8
0
62
0
10
79,394530
20
8,398438
30
10,000000
11
79,980470
21
8,691406
31
10,000000
0
LINE
8
0
62
0
10
79,980470
20
8,691406
30
10,000000
11
80,664060
21
8,984375
31
10,000000
0
LINE
8
0
62
0
10
80,664060
20
8,984375
30
10,000000
11
81,347660
21
9,375000
31
10,000000
0
LINE
8
0
62
0
10
81,347660
20
9,375000
30
10,000000
11
82,031250
21
9,765625
31
10,000000
0
LINE
8
0
62
0
10
82,031250
20
9,765625
30
10,000000
11
82,812500
21
10,253910
31
10,000000
0
LINE
8
0
62
0
10
82,812500
20
10,253910
30
10,000000
11
83,691410
21
10,742190
31
10,000000
0
LINE
8
0
62
0
10
83,691410
20
10,742190
30
10,000000
11
83,203130
21
10,351560
31
10,000000
0
LINE
8
0
62
0
10
83,203130
20
10,351560
30
10,000000
11
82,812500
21
9,960938
31
10,000000
0
LINE
8
0
62
0
10
82,812500
20
9,960938
30
10,000000
11
82,421880
21
9,472656
31
10,000000
0
LINE
8
0
62
0
10
82,421880
20
9,472656
30
10,000000
11
82,031250
21
9,082031
31
10,000000
0
LINE
8
0
62
0
10
82,031250
20
9,082031
30
10,000000
11
81,542970
21
8,691406
31
10,000000
0
LINE
8
0
62
0
10
81,542970
20
8,691406
30
10,000000
11
81,152340
21
8,300781
31
10,000000
0
LINE
8
0
62
0
10
81,152340
20
8,300781
30
10,000000
11
80,761720
21
7,910156
31
10,000000
0
LINE
8
0
62
0
10
80,761720
20
7,910156
30
10,000000
11
80,273440
21
7,617188
31
10,000000
0
LINE
8
0
62
0
10
80,273440
20
7,617188
30
10,000000
11
79,882810
21
7,226563
31
10,000000
0
LINE
8
0
62
0
10
79,882810
20
7,226563
30
10,000000
11
79,492190
21
6,835938
31
10,000000
0
LINE
8
0
62
0
10
79,492190
20
6,835938
30
10,000000
11
79,003910
21
6,542969
31
10,000000
0
LINE
8
0
62
0
10
79,003910
20
6,542969
30
10,000000
11
78,613280
21
6,152344
31
10,000000
0
LINE
8
0
62
0
10
78,613280
20
6,152344
30
10,000000
11
78,222660
21
5,859375
31
10,000000
0
LINE
8
0
62
0
10
78,222660
20
5,859375
30
10,000000
11
77,832030
21
5,566406
31
10,000000
0
LINE
8
0
62
0
10
77,832030
20
5,566406
30
10,000000
11
77,441410
21
5,175781
31
10,000000
0
LINE
8
0
62
0
10
77,441410
20
5,175781
30
10,000000
11
76,953130
21
4,882813
31
10,000000
0
LINE
8
0
62
0
10
76,953130
20
4,882813
30
10,000000
11
76,171880
21
4,296875
31
10,000000
0
LINE
8
0
62
0
10
76,171880
20
4,296875
30
10,000000
11
75,390630
21
3,808594
31
10,000000
0
LINE
8
0
62
0
10
75,390630
20
3,808594
30
10,000000
11
74,707030
21
3,222656
31
10,000000
0
LINE
8
0
62
0
10
74,707030
20
3,222656
30
10,000000
11
73,925780
21
2,832031
31
10,000000
0
LINE
8
0
62
0
10
73,925780
20
2,832031
30
10,000000
11
73,144530
21
2,343750
31
10,000000
0
LINE
8
0
62
0
10
73,144530
20
2,343750
30
10,000000
11
72,460940
21
1,953125
31
10,000000
0
LINE
8
0
62
0
10
72,460940
20
1,953125
30
10,000000
11
71,777340
21
1,660156
31
10,000000
0
LINE
8
0
62
0
10
71,777340
20
1,660156
30
10,000000
11
71,093750
21
1,269531
31
10,000000
0
LINE
8
0
62
0
10
71,093750
20
1,269531
30
10,000000
11
70,410160
21
0,976563
31
10,000000
0
LINE
8
0
62
0
10
70,410160
20
0,976563
30
10,000000
11
69,824220
21
0,781250
31
10,000000
0
LINE
8
0
62
0
10
69,824220
20
0,781250
30
10,000000
11
69,140630
21
0,585938
31
10,000000
0
LINE
8
0
62
0
10
69,140630
20
0,585938
30
10,000000
11
68,554690
21
0,390625
31
10,000000
0
LINE
8
0
62
0
10
68,554690
20
0,390625
30
10,000000
11
67,968750
21
0,292969
31
10,000000
0
LINE
8
0
62
0
10
67,968750
20
0,292969
30
10,000000
11
67,382810
21
0,195313
31
10,000000
0
LINE
8
0
62
0
10
67,382810
20
0,195313
30
10,000000
11
66,894530
21
0,097656
31
10,000000
0
LINE
8
0
62
0
10
66,894530
20
0,097656
30
10,000000
11
66,308590
21
0,097656
31
10,000000
0
LINE
8
0
62
0
10
66,308590
20
0,097656
30
10,000000
11
65,527340
21
0,097656
31
10,000000
0
LINE
8
0
62
0
10
65,527340
20
0,097656
30
10,000000
11
64,843750
21
0,292969
31
10,000000
0
LINE
8
0
62
0
10
64,843750
20
0,292969
30
10,000000
11
64,160160
21
0,488281
31
10,000000
0
LINE
8
0
62
0
10
64,160160
20
0,488281
30
10,000000
11
63,476560
21
0,781250
31
10,000000
0
LINE
8
0
62
0
10
63,476560
20
0,781250
30
10,000000
11
62,988280
21
1,171875
31
10,000000
0
LINE
8
0
62
0
10
62,988280
20
1,171875
30
10,000000
11
62,500000
21
1,660156
31
10,000000
0
LINE
8
0
62
0
10
62,500000
20
1,660156
30
10,000000
11
62,109380
21
2,148438
31
10,000000
0
LINE
8
0
62
0
10
62,109380
20
2,148438
30
10,000000
11
61,718750
21
2,832031
31
10,000000
0
LINE
8
0
62
0
10
61,718750
20
2,832031
30
10,000000
11
61,425780
21
3,515625
31
10,000000
0
LINE
8
0
62
0
10
61,425780
20
3,515625
30
10,000000
11
61,230470
21
4,199219
31
10,000000
0
LINE
8
0
62
0
10
61,230470
20
4,199219
30
10,000000
11
61,132810
21
4,980469
31
10,000000
0
LINE
8
0
62
0
10
61,132810
20
4,980469
30
10,000000
11
61,035160
21
5,761719
31
10,000000
0
LINE
8
0
62
0
10
61,035160
20
5,761719
30
10,000000
11
61,132810
21
6,542969
31
10,000000
0
LINE
8
0
62
0
10
61,132810
20
6,542969
30
10,000000
11
61,230470
21
7,324219
31
10,000000
0
LINE
8
0
62
0
10
61,230470
20
7,324219
30
10,000000
11
61,425780
21
8,203125
31
10,000000
0
LINE
8
0
62
0
10
61,425780
20
8,203125
30
10,000000
11
61,621090
21
9,082031
31
10,000000
0
LINE
8
0
62
0
10
61,621090
20
9,082031
30
10,000000
11
71,484380
21
38,085940
31
10,000000
0
LINE
8
0
62
0
10
71,484380
20
38,085940
30
10,000000
11
71,582030
21
38,183590
31
10,000000
0
LINE
8
0
62
0
10
71,582030
20
38,183590
30
10,000000
11
71,582030
21
38,281250
31
10,000000
0
LINE
8
0
62
0
10
71,582030
20
38,281250
30
10,000000
11
71,582030
21
38,378910
31
10,000000
0
LINE
8
0
62
0
10
71,582030
20
38,378910
30
10,000000
11
71,679690
21
38,476560
31
10,000000
0
LINE
8
0
62
0
10
71,679690
20
38,476560
30
10,000000
11
71,679690
21
38,574220
31
10,000000
0
LINE
8
0
62
0
10
71,679690
20
38,574220
30
10,000000
11
71,679690
21
38,671880
31
10,000000
0
LINE
8
0
62
0
10
71,679690
20
38,671880
30
10,000000
11
71,777340
21
38,769530
31
10,000000
0
LINE
8
0
62
0
10
71,777340
20
38,769530
30
10,000000
11
71,777340
21
38,867190
31
10,000000
0
LINE
8
0
62
0
10
71,777340
20
38,867190
30
10,000000
11
71,777340
21
38,964840
31
10,000000
0
LINE
8
0
62
0
10
71,777340
20
38,964840
30
10,000000
11
71,777340
21
39,062500
31
10,000000
0
LINE
8
0
62
0
10
71,777340
20
39,062500
30
10,000000
11
71,777340
21
39,160160
31
10,000000
0
LINE
8
0
62
0
10
71,777340
20
39,160160
30
10,000000
11
71,875000
21
39,648440
31
10,000000
0
LINE
8
0
62
0
10
71,875000
20
39,648440
30
10,000000
11
71,875000
21
40,136720
31
10,000000
0
LINE
8
0
62
0
10
71,875000
20
40,136720
30
10,000000
11
71,875000
21
40,527340
31
10,000000
0
LINE
8
0
62
0
10
71,875000
20
40,527340
30
10,000000
11
71,875000
21
41,015630
31
10,000000
0
LINE
8
0
62
0
10
71,875000
20
41,015630
30
10,000000
11
71,875000
21
41,406250
31
10,000000
0
LINE
8
0
62
0
10
71,875000
20
41,406250
30
10,000000
11
71,777340
21
41,796880
31
10,000000
0
LINE
8
0
62
0
10
71,777340
20
41,796880
30
10,000000
11
71,679690
21
42,187500
31
10,000000
0
LINE
8
0
62
0
10
71,679690
20
42,187500
30
10,000000
11
71,484380
21
42,578130
31
10,000000
0
LINE
8
0
62
0
10
71,484380
20
42,578130
30
10,000000
11
71,386720
21
42,968750
31
10,000000
0
LINE
8
0
62
0
10
71,386720
20
42,968750
30
10,000000
11
71,191410
21
43,261720
31
10,000000
0
LINE
8
0
62
0
10
71,191410
20
43,261720
30
10,000000
11
70,996090
21
43,554690
31
10,000000
0
LINE
8
0
62
0
10
70,996090
20
43,554690
30
10,000000
11
70,800780
21
43,847660
31
10,000000
0
LINE
8
0
62
0
10
70,800780
20
43,847660
30
10,000000
11
70,605470
21
44,042970
31
10,000000
0
LINE
8
0
62
0
10
70,605470
20
44,042970
30
10,000000
11
70,312500
21
44,238280
31
10,000000
0
LINE
8
0
62
0
10
70,312500
20
44,238280
30
10,000000
11
70,117190
21
44,433590
31
10,000000
0
LINE
8
0
62
0
10
70,117190
20
44,433590
30
10,000000
11
69,824220
21
44,531250
31
10,000000
0
LINE
8
0
62
0
10
69,824220
20
44,531250
30
10,000000
11
69,824220
21
44,628910
31
10,000000
0
LINE
8
0
62
0
10
69,824220
20
44,628910
30
10,000000
11
69,726560
21
44,628910
31
10,000000
0
LINE
8
0
62
0
10
69,726560
20
44,628910
30
10,000000
11
69,628910
21
44,628910
31
10,000000
0
LINE
8
0
62
0
10
69,628910
20
44,628910
30
10,000000
11
69,531250
21
44,628910
31
10,000000
0
LINE
8
0
62
0
10
69,531250
20
44,628910
30
10,000000
11
69,531250
21
44,628910
31
10,000000
0
LINE
8
0
62
0
10
69,531250
20
44,628910
30
10,000000
11
69,433590
21
44,628910
31
10,000000
0
LINE
8
0
62
0
10
69,433590
20
44,628910
30
10,000000
11
69,335940
21
44,628910
31
10,000000
0
LINE
8
0
62
0
10
69,335940
20
44,628910
30
10,000000
11
69,238280
21
44,628910
31
10,000000
0
LINE
8
0
62
0
10
69,238280
20
44,628910
30
10,000000
11
69,238280
21
44,628910
31
10,000000
0
LINE
8
0
62
0
10
69,238280
20
44,628910
30
10,000000
11
68,457030
21
44,628910
31
10,000000
0
LINE
8
0
62
0
10
68,457030
20
44,628910
30
10,000000
11
67,675780
21
44,531250
31
10,000000
0
LINE
8
0
62
0
10
67,675780
20
44,531250
30
10,000000
11
66,894530
21
44,335940
31
10,000000
0
LINE
8
0
62
0
10
66,894530
20
44,335940
30
10,000000
11
66,113280
21
44,042970
31
10,000000
0
LINE
8
0
62
0
10
66,113280
20
44,042970
30
10,000000
11
65,234380
21
43,652340
31
10,000000
0
LINE
8
0
62
0
10
65,234380
20
43,652340
30
10,000000
11
64,453130
21
43,261720
31
10,000000
0
LINE
8
0
62
0
10
64,453130
20
43,261720
30
10,000000
11
63,574220
21
42,773440
31
10,000000
0
LINE
8
0
62
0
10
63,574220
20
42,773440
30
10,000000
11
62,695310
21
42,089840
31
10,000000
0
LINE
8
0
62
0
10
62,695310
20
42,089840
30
10,000000
11
61,816410
21
41,503910
31
10,000000
0
LINE
8
0
62
0
10
61,816410
20
41,503910
30
10,000000
11
60,937500
21
40,820310
31
10,000000
0
LINE
8
0
62
0
10
60,937500
20
40,820310
30
10,000000
11
60,156250
21
40,136720
31
10,000000
0
LINE
8
0
62
0
10
60,156250
20
40,136720
30
10,000000
11
59,375000
21
39,453130
31
10,000000
0
LINE
8
0
62
0
10
59,375000
20
39,453130
30
10,000000
11
58,496090
21
38,769530
31
10,000000
0
LINE
8
0
62
0
10
58,496090
20
38,769530
30
10,000000
11
57,714840
21
37,988280
31
10,000000
0
LINE
8
0
62
0
10
57,714840
20
37,988280
30
10,000000
11
57,031250
21
37,304690
31
10,000000
0
LINE
8
0
62
0
10
57,031250
20
37,304690
30
10,000000
11
56,250000
21
36,523440
31
10,000000
0
LINE
8
0
62
0
10
56,250000
20
36,523440
30
10,000000
11
55,468750
21
35,742190
31
10,000000
0
LINE
8
0
62
0
10
55,468750
20
35,742190
30
10,000000
11
54,687500
21
34,863280
31
10,000000
0
LINE
8
0
62
0
10
54,687500
20
34,863280
30
10,000000
11
53,808590
21
33,984380
31
10,000000
0
LINE
8
0
62
0
10
53,808590
20
33,984380
30
10,000000
11
52,929690
21
33,007810
31
10,000000
0
LINE
8
0
62
0
10
52,929690
20
33,007810
30
10,000000
11
52,050780
21
31,933590
31
10,000000
0
LINE
8
0
62
0
10
52,050780
20
31,933590
30
10,000000
11
51,171880
21
30,761720
31
10,000000
0
LINE
8
0
62
0
10
51,171880
20
30,761720
30
10,000000
11
50,195310
21
29,589840
31
10,000000
0
LINE
8
0
62
0
10
50,195310
20
29,589840
30
10,000000
11
49,218750
21
28,417970
31
10,000000
0
LINE
8
0
62
0
10
49,218750
20
28,417970
30
10,000000
11
42,382810
21
8,007813
31
10,000000
0
LINE
8
0
62
0
10
42,382810
20
8,007813
30
10,000000
11
41,992190
21
7,324219
31
10,000000
0
LINE
8
0
62
0
10
41,992190
20
7,324219
30
10,000000
11
41,406250
21
6,640625
31
10,000000
0
LINE
8
0
62
0
10
41,406250
20
6,640625
30
10,000000
11
40,820310
21
6,054688
31
10,000000
0
LINE
8
0
62
0
10
40,820310
20
6,054688
30
10,000000
11
40,136720
21
5,371094
31
10,000000
0
LINE
8
0
62
0
10
40,136720
20
5,371094
30
10,000000
11
39,453130
21
4,785156
31
10,000000
0
LINE
8
0
62
0
10
39,453130
20
4,785156
30
10,000000
11
38,574220
21
4,199219
31
10,000000
0
LINE
8
0
62
0
10
38,574220
20
4,199219
30
10,000000
11
37,792970
21
3,613281
31
10,000000
0
LINE
8
0
62
0
10
37,792970
20
3,613281
30
10,000000
11
36,816410
21
3,027344
31
10,000000
0
LINE
8
0
62
0
10
36,816410
20
3,027344
30
10,000000
11
35,839840
21
2,539063
31
10,000000
0
LINE
8
0
62
0
10
35,839840
20
2,539063
30
10,000000
11
34,765630
21
1,953125
31
10,000000
0
LINE
8
0
62
0
10
34,765630
20
1,953125
30
10,000000
11
33,691410
21
1,562500
31
10,000000
0
LINE
8
0
62
0
10
33,691410
20
1,562500
30
10,000000
11
32,519530
21
1,171875
31
10,000000
0
LINE
8
0
62
0
10
32,519530
20
1,171875
30
10,000000
11
31,250000
21
0,781250
31
10,000000
0
LINE
8
0
62
0
10
31,250000
20
0,781250
30
10,000000
11
30,078130
21
0,488281
31
10,000000
0
LINE
8
0
62
0
10
30,078130
20
0,488281
30
10,000000
11
28,710940
21
0,292969
31
10,000000
0
LINE
8
0
62
0
10
28,710940
20
0,292969
30
10,000000
11
27,343750
21
0,097656
31
10,000000
0
LINE
8
0
62
0
10
27,343750
20
0,097656
30
10,000000
11
42,480470
21
44,628910
31
10,000000
0
LINE
8
0
62
0
10
42,187500
20
45,800780
30
10,000000
11
42,187500
21
45,800780
31
10,000000
0
LINE
8
0
62
0
10
42,480470
20
44,726560
30
10,000000
11
42,480470
21
44,726560
31
10,000000
0
LINE
8
0
62
0
10
69,335940
20
44,628910
30
10,000000
11
69,335940
21
44,628910
31
10,000000
0
LINE
8
0
62
0
10
69,433590
20
44,628910
30
10,000000
11
69,433590
21
44,628910
31
10,000000
0
LINE
8
0
62
0
10
69,628910
20
44,628910
30
10,000000
11
69,628910
21
44,628910
31
10,000000
0
LINE
8
0
62
0
10
69,726560
20
44,628910
30
10,000000
11
69,726560
21
44,628910
31
10,000000
0
LINE
8
0
62
0
10
69,824220
20
44,531250
30
10,000000
11
69,824220
21
44,531250
31
10,000000
0
LINE
8
0
62
0
10
71,582030
20
38,281250
30
10,000000
11
71,582030
21
38,281250
31
10,000000
0
LINE
8
0
62
0
10
71,582030
20
38,183590
30
10,000000
11
71,582030
21
38,183590
31
10,000000
0
LINE
8
0
62
0
10
71,679690
20
38,476560
30
10,000000
11
71,679690
21
38,476560
31
10,000000
0
LINE
8
0
62
0
10
71,777340
20
38,867190
30
10,000000
11
71,777340
21
38,867190
31
10,000000
0
LINE
8
0
62
0
10
71,777340
20
39,160160
30
10,000000
11
71,777340
21
39,160160
31
10,000000
0
LINE
8
0
62
0
10
73,535160
20
7,910156
30
10,000000
11
73,535160
21
7,910156
31
10,000000
0
LINE
8
0
62
0
10
73,535160
20
7,714844
30
10,000000
11
73,535160
21
7,714844
31
10,000000
0
LINE
8
0
62
0
10
73,730470
20
7,421875
30
10,000000
11
73,730470
21
7,421875
31
10,000000
0
LINE
8
0
62
0
10
73,828130
20
7,421875
30
10,000000
11
73,828130
21
7,421875
31
10,000000
0
LINE
8
0
62
0
10
88,671880
20
5,957031
30
10,000000
11
88,476560
21
7,421875
31
10,000000
0
LINE
8
0
62
0
10
88,476560
20
7,421875
30
10,000000
11
88,476560
21
8,886719
31
10,000000
0
LINE
8
0
62
0
10
88,476560
20
8,886719
30
10,000000
11
88,671880
21
10,644530
31
10,000000
0
LINE
8
0
62
0
10
88,671880
20
10,644530
30
10,000000
11
88,964840
21
12,402340
31
10,000000
0
LINE
8
0
62
0
10
88,964840
20
12,402340
30
10,000000
11
89,355470
21
14,453130
31
10,000000
0
LINE
8
0
62
0
10
89,355470
20
14,453130
30
10,000000
11
89,941410
21
16,503910
31
10,000000
0
LINE
8
0
62
0
10
89,941410
20
16,503910
30
10,000000
11
90,625000
21
18,750000
31
10,000000
0
LINE
8
0
62
0
10
90,625000
20
18,750000
30
10,000000
11
90,722660
21
18,945310
31
10,000000
0
LINE
8
0
62
0
10
90,722660
20
18,945310
30
10,000000
11
92,089840
21
22,753910
31
10,000000
0
LINE
8
0
62
0
10
92,089840
20
22,753910
30
10,000000
11
93,554690
21
26,367190
31
10,000000
0
LINE
8
0
62
0
10
93,554690
20
26,367190
30
10,000000
11
95,117190
21
29,687500
31
10,000000
0
LINE
8
0
62
0
10
95,117190
20
29,687500
30
10,000000
11
96,777340
21
32,714840
31
10,000000
0
LINE
8
0
62
0
10
96,777340
20
32,714840
30
10,000000
11
98,437500
21
35,546880
31
10,000000
0
LINE
8
0
62
0
10
98,437500
20
35,546880
30
10,000000
11
100,195300
21
37,988280
31
10,000000
0
LINE
8
0
62
0
10
100,195300
20
37,988280
30
10,000000
11
102,050800
21
40,234380
31
10,000000
0
LINE
8
0
62
0
10
102,050800
20
40,234380
30
10,000000
11
104,003900
21
42,187500
31
10,000000
0
LINE
8
0
62
0
10
104,003900
20
42,187500
30
10,000000
11
105,957000
21
43,945310
31
10,000000
0
LINE
8
0
62
0
10
105,957000
20
43,945310
30
10,000000
11
107,910200
21
45,605470
31
10,000000
0
LINE
8
0
62
0
10
107,910200
20
45,605470
30
10,000000
11
109,863300
21
47,167970
31
10,000000
0
LINE
8
0
62
0
10
109,863300
20
47,167970
30
10,000000
11
111,816400
21
48,535160
31
10,000000
0
LINE
8
0
62
0
10
111,816400
20
48,535160
30
10,000000
11
113,769500
21
49,804690
31
10,000000
0
LINE
8
0
62
0
10
113,769500
20
49,804690
30
10,000000
11
115,625000
21
50,878910
31
10,000000
0
LINE
8
0
62
0
10
115,625000
20
50,878910
30
10,000000
11
117,480500
21
51,855470
31
10,000000
0
LINE
8
0
62
0
10
117,480500
20
51,855470
30
10,000000
11
119,433600
21
52,734380
31
10,000000
0
LINE
8
0
62
0
10
119,433600
20
52,734380
30
10,000000
11
120,117200
21
53,027340
31
10,000000
0
LINE
8
0
62
0
10
120,117200
20
53,027340
30
10,000000
11
120,898400
21
53,417970
31
10,000000
0
LINE
8
0
62
0
10
120,898400
20
53,417970
30
10,000000
11
121,582000
21
53,710940
31
10,000000
0
LINE
8
0
62
0
10
121,582000
20
53,710940
30
10,000000
11
122,363300
21
54,003910
31
10,000000
0
LINE
8
0
62
0
10
122,363300
20
54,003910
30
10,000000
11
123,046900
21
54,199220
31
10,000000
0
LINE
8
0
62
0
10
123,046900
20
54,199220
30
10,000000
11
123,730500
21
54,492190
31
10,000000
0
LINE
8
0
62
0
10
123,730500
20
54,492190
30
10,000000
11
124,414100
21
54,687500
31
10,000000
0
LINE
8
0
62
0
10
124,414100
20
54,687500
30
10,000000
11
125,195300
21
54,980470
31
10,000000
0
LINE
8
0
62
0
10
125,195300
20
54,980470
30
10,000000
11
125,878900
21
55,175780
31
10,000000
0
LINE
8
0
62
0
10
125,878900
20
55,175780
30
10,000000
11
126,562500
21
55,371090
31
10,000000
0
LINE
8
0
62
0
10
126,562500
20
55,371090
30
10,000000
11
127,148400
21
55,566410
31
10,000000
0
LINE
8
0
62
0
10
127,148400
20
55,566410
30
10,000000
11
127,832000
21
55,859380
31
10,000000
0
LINE
8
0
62
0
10
127,832000
20
55,859380
30
10,000000
11
128,515600
21
56,054690
31
10,000000
0
LINE
8
0
62
0
10
128,515600
20
56,054690
30
10,000000
11
129,101600
21
56,250000
31
10,000000
0
LINE
8
0
62
0
10
129,101600
20
56,250000
30
10,000000
11
129,785200
21
56,542970
31
10,000000
0
LINE
8
0
62
0
10
129,785200
20
56,542970
30
10,000000
11
130,371100
21
56,738280
31
10,000000
0
LINE
8
0
62
0
10
130,371100
20
56,738280
30
10,000000
11
130,468800
21
56,738280
31
10,000000
0
LINE
8
0
62
0
10
130,468800
20
56,738280
30
10,000000
11
151,855500
21
56,835940
31
10,000000
0
LINE
8
0
62
0
10
151,855500
20
56,835940
30
10,000000
11
135,156300
21
7,714844
31
10,000000
0
LINE
8
0
62
0
10
135,156300
20
7,714844
30
10,000000
11
135,839800
21
7,519531
31
10,000000
0
LINE
8
0
62
0
10
135,839800
20
7,519531
30
10,000000
11
136,425800
21
7,324219
31
10,000000
0
LINE
8
0
62
0
10
136,425800
20
7,324219
30
10,000000
11
137,011700
21
7,128906
31
10,000000
0
LINE
8
0
62
0
10
137,011700
20
7,128906
30
10,000000
11
137,500000
21
6,933594
31
10,000000
0
LINE
8
0
62
0
10
137,500000
20
6,933594
30
10,000000
11
137,890600
21
6,835938
31
10,000000
0
LINE
8
0
62
0
10
137,890600
20
6,835938
30
10,000000
11
138,281300
21
6,640625
31
10,000000
0
LINE
8
0
62
0
10
138,281300
20
6,640625
30
10,000000
11
138,574200
21
6,542969
31
10,000000
0
LINE
8
0
62
0
10
138,574200
20
6,542969
30
10,000000
11
138,769500
21
6,445313
31
10,000000
0
LINE
8
0
62
0
10
138,769500
20
6,445313
30
10,000000
11
138,964800
21
6,347656
31
10,000000
0
LINE
8
0
62
0
10
138,964800
20
6,347656
30
10,000000
11
139,062500
21
6,347656
31
10,000000
0
LINE
8
0
62
0
10
139,062500
20
6,347656
30
10,000000
11
139,257800
21
6,250000
31
10,000000
0
LINE
8
0
62
0
10
139,257800
20
6,250000
30
10,000000
11
139,453100
21
6,250000
31
10,000000
0
LINE
8
0
62
0
10
139,453100
20
6,250000
30
10,000000
11
139,648400
21
6,250000
31
10,000000
0
LINE
8
0
62
0
10
139,648400
20
6,250000
30
10,000000
11
139,746100
21
6,347656
31
10,000000
0
LINE
8
0
62
0
10
139,746100
20
6,347656
30
10,000000
11
139,941400
21
6,347656
31
10,000000
0
LINE
8
0
62
0
10
139,941400
20
6,347656
30
10,000000
11
140,039100
21
6,347656
31
10,000000
0
LINE
8
0
62
0
10
140,039100
20
6,347656
30
10,000000
11
140,136700
21
6,445313
31
10,000000
0
LINE
8
0
62
0
10
140,136700
20
6,445313
30
10,000000
11
140,234400
21
6,445313
31
10,000000
0
LINE
8
0
62
0
10
140,234400
20
6,445313
30
10,000000
11
140,332000
21
6,542969
31
10,000000
0
LINE
8
0
62
0
10
140,332000
20
6,542969
30
10,000000
11
140,527300
21
6,640625
31
10,000000
0
LINE
8
0
62
0
10
140,527300
20
6,640625
30
10,000000
11
140,625000
21
6,738281
31
10,000000
0
LINE
8
0
62
0
10
140,625000
20
6,738281
30
10,000000
11
140,820300
21
6,835938
31
10,000000
0
LINE
8
0
62
0
10
140,820300
20
6,835938
30
10,000000
11
141,015600
21
7,031250
31
10,000000
0
LINE
8
0
62
0
10
141,015600
20
7,031250
30
10,000000
11
141,210900
21
7,128906
31
10,000000
0
LINE
8
0
62
0
10
141,210900
20
7,128906
30
10,000000
11
141,503900
21
7,324219
31
10,000000
0
LINE
8
0
62
0
10
141,503900
20
7,324219
30
10,000000
11
141,796900
21
7,421875
31
10,000000
0
LINE
8
0
62
0
10
141,796900
20
7,421875
30
10,000000
11
142,089800
21
7,617188
31
10,000000
0
LINE
8
0
62
0
10
142,089800
20
7,617188
30
10,000000
11
142,480500
21
7,812500
31
10,000000
0
LINE
8
0
62
0
10
142,480500
20
7,812500
30
10,000000
11
142,871100
21
8,105469
31
10,000000
0
LINE
8
0
62
0
10
142,871100
20
8,105469
30
10,000000
11
143,359400
21
8,300781
31
10,000000
0
LINE
8
0
62
0
10
143,359400
20
8,300781
30
10,000000
11
143,847700
21
8,496094
31
10,000000
0
LINE
8
0
62
0
10
143,847700
20
8,496094
30
10,000000
11
144,433600
21
8,789063
31
10,000000
0
LINE
8
0
62
0
10
144,433600
20
8,789063
30
10,000000
11
143,066400
21
7,812500
31
10,000000
0
LINE
8
0
62
0
10
143,066400
20
7,812500
30
10,000000
11
141,894500
21
6,835938
31
10,000000
0
LINE
8
0
62
0
10
141,894500
20
6,835938
30
10,000000
11
140,722700
21
6,054688
31
10,000000
0
LINE
8
0
62
0
10
140,722700
20
6,054688
30
10,000000
11
139,648400
21
5,273438
31
10,000000
0
LINE
8
0
62
0
10
139,648400
20
5,273438
30
10,000000
11
138,769500
21
4,492188
31
10,000000
0
LINE
8
0
62
0
10
138,769500
20
4,492188
30
10,000000
11
137,890600
21
3,906250
31
10,000000
0
LINE
8
0
62
0
10
137,890600
20
3,906250
30
10,000000
11
137,109400
21
3,320313
31
10,000000
0
LINE
8
0
62
0
10
137,109400
20
3,320313
30
10,000000
11
136,425800
21
2,832031
31
10,000000
0
LINE
8
0
62
0
10
136,425800
20
2,832031
30
10,000000
11
135,839800
21
2,343750
31
10,000000
0
LINE
8
0
62
0
10
135,839800
20
2,343750
30
10,000000
11
135,351600
21
1,953125
31
10,000000
0
LINE
8
0
62
0
10
135,351600
20
1,953125
30
10,000000
11
134,765600
21
1,562500
31
10,000000
0
LINE
8
0
62
0
10
134,765600
20
1,562500
30
10,000000
11
134,277300
21
1,269531
31
10,000000
0
LINE
8
0
62
0
10
134,277300
20
1,269531
30
10,000000
11
133,789100
21
0,976563
31
10,000000
0
LINE
8
0
62
0
10
133,789100
20
0,976563
30
10,000000
11
133,300800
21
0,781250
31
10,000000
0
LINE
8
0
62
0
10
133,300800
20
0,781250
30
10,000000
11
132,910200
21
0,585938
31
10,000000
0
LINE
8
0
62
0
10
132,910200
20
0,585938
30
10,000000
11
132,519500
21
0,390625
31
10,000000
0
LINE
8
0
62
0
10
132,519500
20
0,390625
30
10,000000
11
132,324200
21
0,292969
31
10,000000
0
LINE
8
0
62
0
10
132,324200
20
0,292969
30
10,000000
11
132,031300
21
0,195313
31
10,000000
0
LINE
8
0
62
0
10
132,031300
20
0,195313
30
10,000000
11
131,835900
21
0,195313
31
10,000000
0
LINE
8
0
62
0
10
131,835900
20
0,195313
30
10,000000
11
131,543000
21
0,097656
31
10,000000
0
LINE
8
0
62
0
10
131,543000
20
0,097656
30
10,000000
11
131,347700
21
0,097656
31
10,000000
0
LINE
8
0
62
0
10
131,347700
20
0,097656
30
10,000000
11
131,054700
21
0,000000
31
10,000000
0
LINE
8
0
62
0
10
131,054700
20
0,000000
30
10,000000
11
130,859400
21
0,000000
31
10,000000
0
LINE
8
0
62
0
10
130,859400
20
0,000000
30
10,000000
11
130,566400
21
0,000000
31
10,000000
0
LINE
8
0
62
0
10
130,566400
20
0,000000
30
10,000000
11
130,371100
21
0,000000
31
10,000000
0
LINE
8
0
62
0
10
130,371100
20
0,000000
30
10,000000
11
130,078100
21
0,000000
31
10,000000
0
LINE
8
0
62
0
10
130,078100
20
0,000000
30
10,000000
11
129,785200
21
0,000000
31
10,000000
0
LINE
8
0
62
0
10
129,785200
20
0,000000
30
10,000000
11
129,492200
21
0,000000
31
10,000000
0
LINE
8
0
62
0
10
129,492200
20
0,000000
30
10,000000
11
129,199200
21
0,000000
31
10,000000
0
LINE
8
0
62
0
10
129,199200
20
0,000000
30
10,000000
11
128,906300
21
0,000000
31
10,000000
0
LINE
8
0
62
0
10
128,906300
20
0,000000
30
10,000000
11
128,613300
21
0,000000
31
10,000000
0
LINE
8
0
62
0
10
128,613300
20
0,000000
30
10,000000
11
128,320300
21
0,000000
31
10,000000
0
LINE
8
0
62
0
10
128,320300
20
0,000000
30
10,000000
11
128,222700
21
0,000000
31
10,000000
0
LINE
8
0
62
0
10
128,222700
20
0,000000
30
10,000000
11
128,125000
21
0,000000
31
10,000000
0
LINE
8
0
62
0
10
128,125000
20
0,000000
30
10,000000
11
128,027300
21
0,000000
31
10,000000
0
LINE
8
0
62
0
10
128,027300
20
0,000000
30
10,000000
11
126,953100
21
0,097656
31
10,000000
0
LINE
8
0
62
0
10
126,953100
20
0,097656
30
10,000000
11
125,976600
21
0,195313
31
10,000000
0
LINE
8
0
62
0
10
125,976600
20
0,195313
30
10,000000
11
125,195300
21
0,488281
31
10,000000
0
LINE
8
0
62
0
10
125,195300
20
0,488281
30
10,000000
11
124,511700
21
0,781250
31
10,000000
0
LINE
8
0
62
0
10
124,511700
20
0,781250
30
10,000000
11
123,925800
21
1,269531
31
10,000000
0
LINE
8
0
62
0
10
123,925800
20
1,269531
30
10,000000
11
123,535200
21
1,757813
31
10,000000
0
LINE
8
0
62
0
10
123,535200
20
1,757813
30
10,000000
11
123,242200
21
2,441406
31
10,000000
0
LINE
8
0
62
0
10
123,242200
20
2,441406
30
10,000000
11
123,144500
21
3,125000
31
10,000000
0
LINE
8
0
62
0
10
123,144500
20
3,125000
30
10,000000
11
123,144500
21
3,906250
31
10,000000
0
LINE
8
0
62
0
10
123,144500
20
3,906250
30
10,000000
11
123,144500
21
4,785156
31
10,000000
0
LINE
8
0
62
0
10
123,144500
20
4,785156
30
10,000000
11
123,144500
21
5,664063
31
10,000000
0
LINE
8
0
62
0
10
123,144500
20
5,664063
30
10,000000
11
123,144500
21
6,542969
31
10,000000
0
LINE
8
0
62
0
10
123,144500
20
6,542969
30
10,000000
11
123,242200
21
7,421875
31
10,000000
0
LINE
8
0
62
0
10
123,242200
20
7,421875
30
10,000000
11
123,339800
21
8,398438
31
10,000000
0
LINE
8
0
62
0
10
123,339800
20
8,398438
30
10,000000
11
123,535200
21
9,375000
31
10,000000
0
LINE
8
0
62
0
10
123,535200
20
9,375000
30
10,000000
11
123,730500
21
10,351560
31
10,000000
0
LINE
8
0
62
0
10
123,730500
20
10,351560
30
10,000000
11
123,730500
21
10,546880
31
10,000000
0
LINE
8
0
62
0
10
123,730500
20
10,546880
30
10,000000
11
123,730500
21
10,742190
31
10,000000
0
LINE
8
0
62
0
10
123,730500
20
10,742190
30
10,000000
11
123,730500
21
10,839840
31
10,000000
0
LINE
8
0
62
0
10
123,730500
20
10,839840
30
10,000000
11
123,828100
21
11,035160
31
10,000000
0
LINE
8
0
62
0
10
123,828100
20
11,035160
30
10,000000
11
123,828100
21
11,230470
31
10,000000
0
LINE
8
0
62
0
10
123,828100
20
11,230470
30
10,000000
11
123,828100
21
11,328130
31
10,000000
0
LINE
8
0
62
0
10
123,828100
20
11,328130
30
10,000000
11
123,925800
21
11,523440
31
10,000000
0
LINE
8
0
62
0
10
123,925800
20
11,523440
30
10,000000
11
123,925800
21
11,621090
31
10,000000
0
LINE
8
0
62
0
10
123,925800
20
11,621090
30
10,000000
11
123,925800
21
11,816410
31
10,000000
0
LINE
8
0
62
0
10
123,925800
20
11,816410
30
10,000000
11
124,023400
21
11,914060
31
10,000000
0
LINE
8
0
62
0
10
124,023400
20
11,914060
30
10,000000
11
124,023400
21
12,109380
31
10,000000
0
LINE
8
0
62
0
10
124,023400
20
12,109380
30
10,000000
11
124,023400
21
12,207030
31
10,000000
0
LINE
8
0
62
0
10
124,023400
20
12,207030
30
10,000000
11
124,023400
21
12,402340
31
10,000000
0
LINE
8
0
62
0
10
124,023400
20
12,402340
30
10,000000
11
124,121100
21
12,500000
31
10,000000
0
LINE
8
0
62
0
10
124,121100
20
12,500000
30
10,000000
11
124,121100
21
12,695310
31
10,000000
0
LINE
8
0
62
0
10
124,121100
20
12,695310
30
10,000000
11
124,121100
21
12,792970
31
10,000000
0
LINE
8
0
62
0
10
124,121100
20
12,792970
30
10,000000
11
124,121100
21
13,085940
31
10,000000
0
LINE
8
0
62
0
10
124,121100
20
13,085940
30
10,000000
11
124,218800
21
13,281250
31
10,000000
0
LINE
8
0
62
0
10
124,218800
20
13,281250
30
10,000000
11
124,218800
21
13,574220
31
10,000000
0
LINE
8
0
62
0
10
124,218800
20
13,574220
30
10,000000
11
124,316400
21
13,867190
31
10,000000
0
LINE
8
0
62
0
10
124,316400
20
13,867190
30
10,000000
11
124,316400
21
14,062500
31
10,000000
0
LINE
8
0
62
0
10
124,316400
20
14,062500
30
10,000000
11
124,414100
21
14,355470
31
10,000000
0
LINE
8
0
62
0
10
124,414100
20
14,355470
30
10,000000
11
124,414100
21
14,550780
31
10,000000
0
LINE
8
0
62
0
10
124,414100
20
14,550780
30
10,000000
11
124,414100
21
14,843750
31
10,000000
0
LINE
8
0
62
0
10
124,414100
20
14,843750
30
10,000000
11
124,511700
21
15,039060
31
10,000000
0
LINE
8
0
62
0
10
124,511700
20
15,039060
30
10,000000
11
124,511700
21
15,234380
31
10,000000
0
LINE
8
0
62
0
10
124,511700
20
15,234380
30
10,000000
11
124,511700
21
15,527340
31
10,000000
0
LINE
8
0
62
0
10
124,511700
20
15,527340
30
10,000000
11
124,511700
21
15,722660
31
10,000000
0
LINE
8
0
62
0
10
124,511700
20
15,722660
30
10,000000
11
124,609400
21
15,917970
31
10,000000
0
LINE
8
0
62
0
10
124,609400
20
15,917970
30
10,000000
11
124,609400
21
16,210940
31
10,000000
0
LINE
8
0
62
0
10
124,609400
20
16,210940
30
10,000000
11
124,609400
21
16,406250
31
10,000000
0
LINE
8
0
62
0
10
124,609400
20
16,406250
30
10,000000
11
124,609400
21
16,699220
31
10,000000
0
LINE
8
0
62
0
10
124,609400
20
16,699220
30
10,000000
11
124,316400
21
16,406250
31
10,000000
0
LINE
8
0
62
0
10
124,316400
20
16,406250
30
10,000000
11
123,925800
21
16,015630
31
10,000000
0
LINE
8
0
62
0
10
123,925800
20
16,015630
30
10,000000
11
123,535200
21
15,722660
31
10,000000
0
LINE
8
0
62
0
10
123,535200
20
15,722660
30
10,000000
11
123,046900
21
15,332030
31
10,000000
0
LINE
8
0
62
0
10
123,046900
20
15,332030
30
10,000000
11
122,460900
21
14,843750
31
10,000000
0
LINE
8
0
62
0
10
122,460900
20
14,843750
30
10,000000
11
121,875000
21
14,355470
31
10,000000
0
LINE
8
0
62
0
10
121,875000
20
14,355470
30
10,000000
11
121,191400
21
13,867190
31
10,000000
0
LINE
8
0
62
0
10
121,191400
20
13,867190
30
10,000000
11
120,507800
21
13,281250
31
10,000000
0
LINE
8
0
62
0
10
120,507800
20
13,281250
30
10,000000
11
119,824200
21
12,792970
31
10,000000
0
LINE
8
0
62
0
10
119,824200
20
12,792970
30
10,000000
11
119,043000
21
12,207030
31
10,000000
0
LINE
8
0
62
0
10
119,043000
20
12,207030
30
10,000000
11
118,261700
21
11,621090
31
10,000000
0
LINE
8
0
62
0
10
118,261700
20
11,621090
30
10,000000
11
117,480500
21
11,035160
31
10,000000
0
LINE
8
0
62
0
10
117,480500
20
11,035160
30
10,000000
11
116,699200
21
10,449220
31
10,000000
0
LINE
8
0
62
0
10
116,699200
20
10,449220
30
10,000000
11
115,820300
21
9,863281
31
10,000000
0
LINE
8
0
62
0
10
115,820300
20
9,863281
30
10,000000
11
115,039100
21
9,277344
31
10,000000
0
LINE
8
0
62
0
10
115,039100
20
9,277344
30
10,000000
11
114,160200
21
8,691406
31
10,000000
0
LINE
8
0
62
0
10
114,160200
20
8,691406
30
10,000000
11
113,476600
21
8,203125
31
10,000000
0
LINE
8
0
62
0
10
113,476600
20
8,203125
30
10,000000
11
112,793000
21
7,714844
31
10,000000
0
LINE
8
0
62
0
10
112,793000
20
7,714844
30
10,000000
11
112,109400
21
7,226563
31
10,000000
0
LINE
8
0
62
0
10
112,109400
20
7,226563
30
10,000000
11
111,425800
21
6,835938
31
10,000000
0
LINE
8
0
62
0
10
111,425800
20
6,835938
30
10,000000
11
110,742200
21
6,347656
31
10,000000
0
LINE
8
0
62
0
10
110,742200
20
6,347656
30
10,000000
11
110,058600
21
5,859375
31
10,000000
0
LINE
8
0
62
0
10
110,058600
20
5,859375
30
10,000000
11
109,375000
21
5,468750
31
10,000000
0
LINE
8
0
62
0
10
109,375000
20
5,468750
30
10,000000
11
108,691400
21
4,980469
31
10,000000
0
LINE
8
0
62
0
10
108,691400
20
4,980469
30
10,000000
11
108,007800
21
4,589844
31
10,000000
0
LINE
8
0
62
0
10
108,007800
20
4,589844
30
10,000000
11
107,324200
21
4,101563
31
10,000000
0
LINE
8
0
62
0
10
107,324200
20
4,101563
30
10,000000
11
106,543000
21
3,710938
31
10,000000
0
LINE
8
0
62
0
10
106,543000
20
3,710938
30
10,000000
11
105,859400
21
3,320313
31
10,000000
0
LINE
8
0
62
0
10
105,859400
20
3,320313
30
10,000000
11
105,175800
21
3,027344
31
10,000000
0
LINE
8
0
62
0
10
105,175800
20
3,027344
30
10,000000
11
104,492200
21
2,636719
31
10,000000
0
LINE
8
0
62
0
10
104,492200
20
2,636719
30
10,000000
11
103,808600
21
2,343750
31
10,000000
0
LINE
8
0
62
0
10
103,808600
20
2,343750
30
10,000000
11
103,027300
21
1,953125
31
10,000000
0
LINE
8
0
62
0
10
103,027300
20
1,953125
30
10,000000
11
102,539100
21
1,757813
31
10,000000
0
LINE
8
0
62
0
10
102,539100
20
1,757813
30
10,000000
11
102,050800
21
1,562500
31
10,000000
0
LINE
8
0
62
0
10
102,050800
20
1,562500
30
10,000000
11
101,562500
21
1,367188
31
10,000000
0
LINE
8
0
62
0
10
101,562500
20
1,367188
30
10,000000
11
101,074200
21
1,171875
31
10,000000
0
LINE
8
0
62
0
10
101,074200
20
1,171875
30
10,000000
11
100,585900
21
0,976563
31
10,000000
0
LINE
8
0
62
0
10
100,585900
20
0,976563
30
10,000000
11
100,097700
21
0,781250
31
10,000000
0
LINE
8
0
62
0
10
100,097700
20
0,781250
30
10,000000
11
99,609380
21
0,683594
31
10,000000
0
LINE
8
0
62
0
10
99,609380
20
0,683594
30
10,000000
11
99,121090
21
0,488281
31
10,000000
0
LINE
8
0
62
0
10
99,121090
20
0,488281
30
10,000000
11
98,632810
21
0,390625
31
10,000000
0
LINE
8
0
62
0
10
98,632810
20
0,390625
30
10,000000
11
98,144530
21
0,292969
31
10,000000
0
LINE
8
0
62
0
10
98,144530
20
0,292969
30
10,000000
11
97,656250
21
0,195313
31
10,000000
0
LINE
8
0
62
0
10
97,656250
20
0,195313
30
10,000000
11
97,265630
21
0,097656
31
10,000000
0
LINE
8
0
62
0
10
97,265630
20
0,097656
30
10,000000
11
96,777340
21
0,097656
31
10,000000
0
LINE
8
0
62
0
10
96,777340
20
0,097656
30
10,000000
11
96,386720
21
0,000000
31
10,000000
0
LINE
8
0
62
0
10
96,386720
20
0,000000
30
10,000000
11
95,898440
21
0,000000
31
10,000000
0
LINE
8
0
62
0
10
95,898440
20
0,000000
30
10,000000
11
95,507810
21
0,000000
31
10,000000
0
LINE
8
0
62
0
10
95,507810
20
0,000000
30
10,000000
11
94,238280
21
0,097656
31
10,000000
0
LINE
8
0
62
0
10
94,238280
20
0,097656
30
10,000000
11
93,164060
21
0,292969
31
10,000000
0
LINE
8
0
62
0
10
93,164060
20
0,292969
30
10,000000
11
92,187500
21
0,683594
31
10,000000
0
LINE
8
0
62
0
10
92,187500
20
0,683594
30
10,000000
11
91,308590
21
1,171875
31
10,000000
0
LINE
8
0
62
0
10
91,308590
20
1,171875
30
10,000000
11
90,527340
21
1,855469
31
10,000000
0
LINE
8
0
62
0
10
90,527340
20
1,855469
30
10,000000
11
89,941410
21
2,636719
31
10,000000
0
LINE
8
0
62
0
10
89,941410
20
2,636719
30
10,000000
11
89,355470
21
3,613281
31
10,000000
0
LINE
8
0
62
0
10
89,355470
20
3,613281
30
10,000000
11
88,964840
21
4,687500
31
10,000000
0
LINE
8
0
62
0
10
88,964840
20
4,687500
30
10,000000
11
88,671880
21
5,957031
31
10,000000
0
LINE
8
0
62
0
10
105,468800
20
24,609380
30
10,000000
11
105,664100
21
25,585940
31
10,000000
0
LINE
8
0
62
0
10
105,664100
20
25,585940
30
10,000000
11
105,859400
21
26,562500
31
10,000000
0
LINE
8
0
62
0
10
105,859400
20
26,562500
30
10,000000
11
106,152300
21
27,539060
31
10,000000
0
LINE
8
0
62
0
10
106,152300
20
27,539060
30
10,000000
11
106,152300
21
27,636720
31
10,000000
0
LINE
8
0
62
0
10
106,152300
20
27,636720
30
10,000000
11
106,152300
21
27,734380
31
10,000000
0
LINE
8
0
62
0
10
106,152300
20
27,734380
30
10,000000
11
106,250000
21
27,832030
31
10,000000
0
LINE
8
0
62
0
10
106,250000
20
27,832030
30
10,000000
11
106,250000
21
27,929690
31
10,000000
0
LINE
8
0
62
0
10
106,250000
20
27,929690
30
10,000000
11
106,250000
21
28,027340
31
10,000000
0
LINE
8
0
62
0
10
106,250000
20
28,027340
30
10,000000
11
106,347700
21
28,125000
31
10,000000
0
LINE
8
0
62
0
10
106,347700
20
28,125000
30
10,000000
11
106,347700
21
28,222660
31
10,000000
0
LINE
8
0
62
0
10
106,347700
20
28,222660
30
10,000000
11
106,445300
21
28,320310
31
10,000000
0
LINE
8
0
62
0
10
106,445300
20
28,320310
30
10,000000
11
106,445300
21
28,417970
31
10,000000
0
LINE
8
0
62
0
10
106,445300
20
28,417970
30
10,000000
11
106,445300
21
28,515630
31
10,000000
0
LINE
8
0
62
0
10
106,445300
20
28,515630
30
10,000000
11
106,543000
21
28,613280
31
10,000000
0
LINE
8
0
62
0
10
106,543000
20
28,613280
30
10,000000
11
106,543000
21
28,710940
31
10,000000
0
LINE
8
0
62
0
10
106,543000
20
28,710940
30
10,000000
11
106,543000
21
28,808590
31
10,000000
0
LINE
8
0
62
0
10
106,543000
20
28,808590
30
10,000000
11
106,640600
21
28,906250
31
10,000000
0
LINE
8
0
62
0
10
106,640600
20
28,906250
30
10,000000
11
107,421900
21
31,054690
31
10,000000
0
LINE
8
0
62
0
10
107,421900
20
31,054690
30
10,000000
11
108,203100
21
33,105470
31
10,000000
0
LINE
8
0
62
0
10
108,203100
20
33,105470
30
10,000000
11
109,179700
21
34,960940
31
10,000000
0
LINE
8
0
62
0
10
109,179700
20
34,960940
30
10,000000
11
110,156300
21
36,816410
31
10,000000
0
LINE
8
0
62
0
10
110,156300
20
36,816410
30
10,000000
11
111,230500
21
38,476560
31
10,000000
0
LINE
8
0
62
0
10
111,230500
20
38,476560
30
10,000000
11
112,402300
21
40,039060
31
10,000000
0
LINE
8
0
62
0
10
112,402300
20
40,039060
30
10,000000
11
113,671900
21
41,503910
31
10,000000
0
LINE
8
0
62
0
10
113,671900
20
41,503910
30
10,000000
11
114,941400
21
42,773440
31
10,000000
0
LINE
8
0
62
0
10
114,941400
20
42,773440
30
10,000000
11
116,308600
21
44,140630
31
10,000000
0
LINE
8
0
62
0
10
116,308600
20
44,140630
30
10,000000
11
117,773400
21
45,312500
31
10,000000
0
LINE
8
0
62
0
10
117,773400
20
45,312500
30
10,000000
11
119,433600
21
46,582030
31
10,000000
0
LINE
8
0
62
0
10
119,433600
20
46,582030
30
10,000000
11
121,191400
21
47,753910
31
10,000000
0
LINE
8
0
62
0
10
121,191400
20
47,753910
30
10,000000
11
122,949200
21
49,023440
31
10,000000
0
LINE
8
0
62
0
10
122,949200
20
49,023440
30
10,000000
11
124,902300
21
50,195310
31
10,000000
0
LINE
8
0
62
0
10
124,902300
20
50,195310
30
10,000000
11
126,953100
21
51,367190
31
10,000000
0
LINE
8
0
62
0
10
126,953100
20
51,367190
30
10,000000
11
129,199200
21
52,441410
31
10,000000
0
LINE
8
0
62
0
10
129,199200
20
52,441410
30
10,000000
11
129,003900
21
52,441410
31
10,000000
0
LINE
8
0
62
0
10
129,003900
20
52,441410
30
10,000000
11
136,816400
21
52,441410
31
10,000000
0
LINE
8
0
62
0
10
136,816400
20
52,441410
30
10,000000
11
126,953100
21
23,437500
31
10,000000
0
LINE
8
0
62
0
10
126,953100
20
23,437500
30
10,000000
11
126,074200
21
22,753910
31
10,000000
0
LINE
8
0
62
0
10
126,074200
20
22,753910
30
10,000000
11
125,195300
21
22,070310
31
10,000000
0
LINE
8
0
62
0
10
125,195300
20
22,070310
30
10,000000
11
124,316400
21
21,386720
31
10,000000
0
LINE
8
0
62
0
10
124,316400
20
21,386720
30
10,000000
11
123,437500
21
20,800780
31
10,000000
0
LINE
8
0
62
0
10
123,437500
20
20,800780
30
10,000000
11
122,558600
21
20,214840
31
10,000000
0
LINE
8
0
62
0
10
122,558600
20
20,214840
30
10,000000
11
121,679700
21
19,628910
31
10,000000
0
LINE
8
0
62
0
10
121,679700
20
19,628910
30
10,000000
11
120,800800
21
19,042970
31
10,000000
0
LINE
8
0
62
0
10
120,800800
20
19,042970
30
10,000000
11
119,824200
21
18,554690
31
10,000000
0
LINE
8
0
62
0
10
119,824200
20
18,554690
30
10,000000
11
118,945300
21
18,164060
31
10,000000
0
LINE
8
0
62
0
10
118,945300
20
18,164060
30
10,000000
11
118,066400
21
17,773440
31
10,000000
0
LINE
8
0
62
0
10
118,066400
20
17,773440
30
10,000000
11
117,187500
21
17,382810
31
10,000000
0
LINE
8
0
62
0
10
117,187500
20
17,382810
30
10,000000
11
116,210900
21
17,187500
31
10,000000
0
LINE
8
0
62
0
10
116,210900
20
17,187500
30
10,000000
11
115,234400
21
16,894530
31
10,000000
0
LINE
8
0
62
0
10
115,234400
20
16,894530
30
10,000000
11
114,355500
21
16,796880
31
10,000000
0
LINE
8
0
62
0
10
114,355500
20
16,796880
30
10,000000
11
113,378900
21
16,699220
31
10,000000
0
LINE
8
0
62
0
10
113,378900
20
16,699220
30
10,000000
11
112,304700
21
16,699220
31
10,000000
0
LINE
8
0
62
0
10
112,304700
20
16,699220
30
10,000000
11
110,839800
21
16,699220
31
10,000000
0
LINE
8
0
62
0
10
110,839800
20
16,699220
30
10,000000
11
109,472700
21
16,894530
31
10,000000
0
LINE
8
0
62
0
10
109,472700
20
16,894530
30
10,000000
11
108,300800
21
17,187500
31
10,000000
0
LINE
8
0
62
0
10
108,300800
20
17,187500
30
10,000000
11
107,421900
21
17,480470
31
10,000000
0
LINE
8
0
62
0
10
107,421900
20
17,480470
30
10,000000
11
106,640600
21
17,968750
31
10,000000
0
LINE
8
0
62
0
10
106,640600
20
17,968750
30
10,000000
11
106,054700
21
18,554690
31
10,000000
0
LINE
8
0
62
0
10
106,054700
20
18,554690
30
10,000000
11
105,566400
21
19,238280
31
10,000000
0
LINE
8
0
62
0
10
105,566400
20
19,238280
30
10,000000
11
105,371100
21
20,019530
31
10,000000
0
LINE
8
0
62
0
10
105,371100
20
20,019530
30
10,000000
11
105,273400
21
20,898440
31
10,000000
0
LINE
8
0
62
0
10
105,273400
20
20,898440
30
10,000000
11
105,273400
21
21,777340
31
10,000000
0
LINE
8
0
62
0
10
105,273400
20
21,777340
30
10,000000
11
105,273400
21
22,753910
31
10,000000
0
LINE
8
0
62
0
10
105,273400
20
22,753910
30
10,000000
11
105,273400
21
23,632810
31
10,000000
0
LINE
8
0
62
0
10
105,273400
20
23,632810
30
10,000000
11
105,468800
21
24,609380
31
10,000000
0
LINE
8
0
62
0
10
106,250000
20
27,832030
30
10,000000
11
106,250000
21
27,832030
31
10,000000
0
LINE
8
0
62
0
10
106,347700
20
28,222660
30
10,000000
11
106,347700
21
28,222660
31
10,000000
0
LINE
8
0
62
0
10
128,027300
20
0,000000
30
10,000000
11
128,027300
21
0,000000
31
10,000000
0
LINE
8
0
62
0
10
128,125000
20
0,000000
30
10,000000
11
128,125000
21
0,000000
31
10,000000
0
LINE
8
0
62
0
10
128,222700
20
0,000000
30
10,000000
11
128,222700
21
0,000000
31
10,000000
0
ENDSEC
0
EOF
