  0
SECTION
  2
HEADER
  9
$LIMMIN
 10
-20.000000
 20
-25.000000
  9
$LIMMAX
 10
295.000000
 20
100.000000
  9
$EXTMIN
 10
-20.000000
 20
-25.000000
  9
$EXTMAX
 10
295.000000
 20
100.000000
  9
$ANGBASE
 50
0.000000
  9
$ANGDIR
 70
0
  9
$INSUNITS
 70
0
  9
$DIMALT
 70
4
  9
$DIMLUNIT
 70
2
  9
$DIMASZ
 40
3.000000
  9
$DIMTXT
 40
5.000000
  9
$DIMRND
 40
0.010000
  9
$DIMEXE
 40
2.000000
  9
$DIMEXO
 40
2.000000
  9
$DIMAUNIT
 70
0
  9
$DIMADEC
 70
2
  9
$GRIDUNIT
 10
0.001000
 20
0.001000
  9
$PLIMMIN
 10
0.000000
 20
0.000000
  9
$PLIMMAX
 10
210.000000
 20
297.000000
  9
$PSVPSCALE
 40
1.000000
  0
ENDSEC
  0
SECTION
  2
TABLES
  0
TABLE
  2
LTYPE
 70
     1
  0
LTYPE
  2
CONTINUOUS
 70
    64
  3
Ausgez
 72
    65
 73
  0
 40
0.000000
  0
ENDTAB
  0
TABLE
  2
LAYER
 70
     1
  0
LAYER
  2
default
 70
    64
 62
0
  6
CONTINUOUS
  0
LAYER
  2
0
 70
    64
 62
0
  6
CONTINUOUS
  0
ENDTAB
  0
ENDSEC
  0
SECTION
  2
BLOCKS
  0
ENDSEC
  0
SECTION
  2
ENTITIES
  0
LINE
  8
0
  6
CONTINUOUS
 10
6.250000
 20
32.968750
 11
6.875000
 21
37.500000
 39
0
 62
0
  0
LINE
  8
0
  6
CONTINUOUS
 10
6.875000
 20
37.500000
 11
7.812500
 21
41.875000
 39
0
 62
0
  0
LINE
  8
0
  6
CONTINUOUS
 10
7.812500
 20
41.875000
 11
9.218750
 21
46.015630
 39
0
 62
0
  0
LINE
  8
0
  6
CONTINUOUS
 10
9.218750
 20
46.015630
 11
10.937500
 21
50.000000
 39
0
 62
0
  0
LINE
  8
0
  6
CONTINUOUS
 10
10.937500
 20
50.000000
 11
13.046880
 21
53.828130
 39
0
 62
0
  0
LINE
  8
0
  6
CONTINUOUS
 10
13.046880
 20
53.828130
 11
15.625000
 21
57.500000
 39
0
 62
0
  0
LINE
  8
0
  6
CONTINUOUS
 10
15.625000
 20
57.500000
 11
18.515630
 21
60.937500
 39
0
 62
0
  0
LINE
  8
0
  6
CONTINUOUS
 10
18.515630
 20
60.937500
 11
21.718750
 21
64.062500
 39
0
 62
0
  0
LINE
  8
0
  6
CONTINUOUS
 10
21.718750
 20
64.062500
 11
25.078130
 21
66.796880
 39
0
 62
0
  0
LINE
  8
0
  6
CONTINUOUS
 10
25.078130
 20
66.796880
 11
28.593750
 21
69.140630
 39
0
 62
0
  0
LINE
  8
0
  6
CONTINUOUS
 10
28.593750
 20
69.140630
 11
32.343750
 21
71.015630
 39
0
 62
0
  0
LINE
  8
0
  6
CONTINUOUS
 10
32.343750
 20
71.015630
 11
36.250000
 21
72.500000
 39
0
 62
0
  0
LINE
  8
0
  6
CONTINUOUS
 10
36.250000
 20
72.500000
 11
40.312500
 21
73.515630
 39
0
 62
0
  0
LINE
  8
0
  6
CONTINUOUS
 10
40.312500
 20
73.515630
 11
44.531250
 21
74.140630
 39
0
 62
0
  0
LINE
  8
0
  6
CONTINUOUS
 10
44.531250
 20
74.140630
 11
48.984380
 21
74.375000
 39
0
 62
0
  0
LINE
  8
0
  6
CONTINUOUS
 10
48.984380
 20
74.375000
 11
52.421880
 21
74.218750
 39
0
 62
0
  0
LINE
  8
0
  6
CONTINUOUS
 10
52.421880
 20
74.218750
 11
55.703130
 21
73.906250
 39
0
 62
0
  0
LINE
  8
0
  6
CONTINUOUS
 10
55.703130
 20
73.906250
 11
58.828130
 21
73.281250
 39
0
 62
0
  0
LINE
  8
0
  6
CONTINUOUS
 10
58.828130
 20
73.281250
 11
61.718750
 21
72.421880
 39
0
 62
0
  0
LINE
  8
0
  6
CONTINUOUS
 10
61.718750
 20
72.421880
 11
64.531250
 21
71.328130
 39
0
 62
0
  0
LINE
  8
0
  6
CONTINUOUS
 10
64.531250
 20
71.328130
 11
67.031250
 21
70.000000
 39
0
 62
0
  0
LINE
  8
0
  6
CONTINUOUS
 10
67.031250
 20
70.000000
 11
69.453130
 21
68.359380
 39
0
 62
0
  0
LINE
  8
0
  6
CONTINUOUS
 10
69.453130
 20
68.359380
 11
71.640630
 21
66.562500
 39
0
 62
0
  0
LINE
  8
0
  6
CONTINUOUS
 10
71.640630
 20
66.562500
 11
73.593750
 21
64.531250
 39
0
 62
0
  0
LINE
  8
0
  6
CONTINUOUS
 10
73.593750
 20
64.531250
 11
75.312500
 21
62.265630
 39
0
 62
0
  0
LINE
  8
0
  6
CONTINUOUS
 10
75.312500
 20
62.265630
 11
76.718750
 21
59.765630
 39
0
 62
0
  0
LINE
  8
0
  6
CONTINUOUS
 10
76.718750
 20
59.765630
 11
77.968750
 21
57.109380
 39
0
 62
0
  0
LINE
  8
0
  6
CONTINUOUS
 10
77.968750
 20
57.109380
 11
78.828130
 21
54.218750
 39
0
 62
0
  0
LINE
  8
0
  6
CONTINUOUS
 10
78.828130
 20
54.218750
 11
79.531250
 21
51.093750
 39
0
 62
0
  0
LINE
  8
0
  6
CONTINUOUS
 10
79.531250
 20
51.093750
 11
79.921880
 21
47.812500
 39
0
 62
0
  0
LINE
  8
0
  6
CONTINUOUS
 10
79.921880
 20
47.812500
 11
80.000000
 21
44.296880
 39
0
 62
0
  0
LINE
  8
0
  6
CONTINUOUS
 10
80.000000
 20
44.296880
 11
79.843750
 21
39.531250
 39
0
 62
0
  0
LINE
  8
0
  6
CONTINUOUS
 10
79.843750
 20
39.531250
 11
79.218750
 21
35.000000
 39
0
 62
0
  0
LINE
  8
0
  6
CONTINUOUS
 10
79.218750
 20
35.000000
 11
78.281250
 21
30.625000
 39
0
 62
0
  0
LINE
  8
0
  6
CONTINUOUS
 10
78.281250
 20
30.625000
 11
76.953130
 21
26.484380
 39
0
 62
0
  0
LINE
  8
0
  6
CONTINUOUS
 10
76.953130
 20
26.484380
 11
75.156250
 21
22.421880
 39
0
 62
0
  0
LINE
  8
0
  6
CONTINUOUS
 10
75.156250
 20
22.421880
 11
73.046880
 21
18.671880
 39
0
 62
0
  0
LINE
  8
0
  6
CONTINUOUS
 10
73.046880
 20
18.671880
 11
70.546880
 21
15.000000
 39
0
 62
0
  0
LINE
  8
0
  6
CONTINUOUS
 10
70.546880
 20
15.000000
 11
67.578130
 21
11.562500
 39
0
 62
0
  0
LINE
  8
0
  6
CONTINUOUS
 10
67.578130
 20
11.562500
 11
64.453130
 21
8.437500
 39
0
 62
0
  0
LINE
  8
0
  6
CONTINUOUS
 10
64.453130
 20
8.437500
 11
61.015630
 21
5.703125
 39
0
 62
0
  0
LINE
  8
0
  6
CONTINUOUS
 10
61.015630
 20
5.703125
 11
57.500000
 21
3.437500
 39
0
 62
0
  0
LINE
  8
0
  6
CONTINUOUS
 10
57.500000
 20
3.437500
 11
53.750000
 21
1.562500
 39
0
 62
0
  0
LINE
  8
0
  6
CONTINUOUS
 10
53.750000
 20
1.562500
 11
49.921880
 21
0.078125
 39
0
 62
0
  0
LINE
  8
0
  6
CONTINUOUS
 10
49.921880
 20
0.078125
 11
45.781250
 21
-0.937500
 39
0
 62
0
  0
LINE
  8
0
  6
CONTINUOUS
 10
45.781250
 20
-0.937500
 11
41.562500
 21
-1.562500
 39
0
 62
0
  0
LINE
  8
0
  6
CONTINUOUS
 10
41.562500
 20
-1.562500
 11
37.109380
 21
-1.796875
 39
0
 62
0
  0
LINE
  8
0
  6
CONTINUOUS
 10
37.109380
 20
-1.796875
 11
33.671880
 21
-1.640625
 39
0
 62
0
  0
LINE
  8
0
  6
CONTINUOUS
 10
33.671880
 20
-1.640625
 11
30.390630
 21
-1.328125
 39
0
 62
0
  0
LINE
  8
0
  6
CONTINUOUS
 10
30.390630
 20
-1.328125
 11
27.265630
 21
-0.703125
 39
0
 62
0
  0
LINE
  8
0
  6
CONTINUOUS
 10
27.265630
 20
-0.703125
 11
24.296880
 21
0.156250
 39
0
 62
0
  0
LINE
  8
0
  6
CONTINUOUS
 10
24.296880
 20
0.156250
 11
21.562500
 21
1.250000
 39
0
 62
0
  0
LINE
  8
0
  6
CONTINUOUS
 10
21.562500
 20
1.250000
 11
19.062500
 21
2.656250
 39
0
 62
0
  0
LINE
  8
0
  6
CONTINUOUS
 10
19.062500
 20
2.656250
 11
16.640630
 21
4.218750
 39
0
 62
0
  0
LINE
  8
0
  6
CONTINUOUS
 10
16.640630
 20
4.218750
 11
14.453130
 21
6.093750
 39
0
 62
0
  0
LINE
  8
0
  6
CONTINUOUS
 10
14.453130
 20
6.093750
 11
12.500000
 21
8.125000
 39
0
 62
0
  0
LINE
  8
0
  6
CONTINUOUS
 10
12.500000
 20
8.125000
 11
10.781250
 21
10.390630
 39
0
 62
0
  0
LINE
  8
0
  6
CONTINUOUS
 10
10.781250
 20
10.390630
 11
9.375000
 21
12.890630
 39
0
 62
0
  0
LINE
  8
0
  6
CONTINUOUS
 10
9.375000
 20
12.890630
 11
8.203125
 21
15.546880
 39
0
 62
0
  0
LINE
  8
0
  6
CONTINUOUS
 10
8.203125
 20
15.546880
 11
7.265625
 21
18.437500
 39
0
 62
0
  0
LINE
  8
0
  6
CONTINUOUS
 10
7.265625
 20
18.437500
 11
6.640625
 21
21.484380
 39
0
 62
0
  0
LINE
  8
0
  6
CONTINUOUS
 10
6.640625
 20
21.484380
 11
6.250000
 21
24.843750
 39
0
 62
0
  0
LINE
  8
0
  6
CONTINUOUS
 10
6.250000
 20
24.843750
 11
6.093750
 21
28.281250
 39
0
 62
0
  0
LINE
  8
0
  6
CONTINUOUS
 10
6.093750
 20
28.281250
 11
6.250000
 21
32.968750
 39
0
 62
0
  0
LINE
  8
0
  6
CONTINUOUS
 10
17.343750
 20
24.140630
 11
17.265630
 21
26.953130
 39
0
 62
0
  0
LINE
  8
0
  6
CONTINUOUS
 10
17.265630
 20
26.953130
 11
17.343750
 21
31.484380
 39
0
 62
0
  0
LINE
  8
0
  6
CONTINUOUS
 10
17.343750
 20
31.484380
 11
17.734380
 21
35.859380
 39
0
 62
0
  0
LINE
  8
0
  6
CONTINUOUS
 10
17.734380
 20
35.859380
 11
18.359380
 21
40.000000
 39
0
 62
0
  0
LINE
  8
0
  6
CONTINUOUS
 10
18.359380
 20
40.000000
 11
19.296880
 21
43.984380
 39
0
 62
0
  0
LINE
  8
0
  6
CONTINUOUS
 10
19.296880
 20
43.984380
 11
20.390630
 21
47.734380
 39
0
 62
0
  0
LINE
  8
0
  6
CONTINUOUS
 10
20.390630
 20
47.734380
 11
21.796880
 21
51.328130
 39
0
 62
0
  0
LINE
  8
0
  6
CONTINUOUS
 10
21.796880
 20
51.328130
 11
23.515630
 21
54.687500
 39
0
 62
0
  0
LINE
  8
0
  6
CONTINUOUS
 10
23.515630
 20
54.687500
 11
25.390630
 21
57.890630
 39
0
 62
0
  0
LINE
  8
0
  6
CONTINUOUS
 10
25.390630
 20
57.890630
 11
27.578130
 21
60.781250
 39
0
 62
0
  0
LINE
  8
0
  6
CONTINUOUS
 10
27.578130
 20
60.781250
 11
29.843750
 21
63.281250
 39
0
 62
0
  0
LINE
  8
0
  6
CONTINUOUS
 10
29.843750
 20
63.281250
 11
32.421880
 21
65.390630
 39
0
 62
0
  0
LINE
  8
0
  6
CONTINUOUS
 10
32.421880
 20
65.390630
 11
35.156250
 21
67.109380
 39
0
 62
0
  0
LINE
  8
0
  6
CONTINUOUS
 10
35.156250
 20
67.109380
 11
38.046880
 21
68.515630
 39
0
 62
0
  0
LINE
  8
0
  6
CONTINUOUS
 10
38.046880
 20
68.515630
 11
41.093750
 21
69.453130
 39
0
 62
0
  0
LINE
  8
0
  6
CONTINUOUS
 10
41.093750
 20
69.453130
 11
44.453130
 21
70.078130
 39
0
 62
0
  0
LINE
  8
0
  6
CONTINUOUS
 10
44.453130
 20
70.078130
 11
47.890630
 21
70.234380
 39
0
 62
0
  0
LINE
  8
0
  6
CONTINUOUS
 10
47.890630
 20
70.234380
 11
50.234380
 21
70.156250
 39
0
 62
0
  0
LINE
  8
0
  6
CONTINUOUS
 10
50.234380
 20
70.156250
 11
52.421880
 21
69.843750
 39
0
 62
0
  0
LINE
  8
0
  6
CONTINUOUS
 10
52.421880
 20
69.843750
 11
54.531250
 21
69.296880
 39
0
 62
0
  0
LINE
  8
0
  6
CONTINUOUS
 10
54.531250
 20
69.296880
 11
56.484380
 21
68.593750
 39
0
 62
0
  0
LINE
  8
0
  6
CONTINUOUS
 10
56.484380
 20
68.593750
 11
58.359380
 21
67.656250
 39
0
 62
0
  0
LINE
  8
0
  6
CONTINUOUS
 10
58.359380
 20
67.656250
 11
60.078130
 21
66.562500
 39
0
 62
0
  0
LINE
  8
0
  6
CONTINUOUS
 10
60.078130
 20
66.562500
 11
61.718750
 21
65.234380
 39
0
 62
0
  0
LINE
  8
0
  6
CONTINUOUS
 10
61.718750
 20
65.234380
 11
63.125000
 21
63.750000
 39
0
 62
0
  0
LINE
  8
0
  6
CONTINUOUS
 10
63.125000
 20
63.750000
 11
64.531250
 21
62.031250
 39
0
 62
0
  0
LINE
  8
0
  6
CONTINUOUS
 10
64.531250
 20
62.031250
 11
65.625000
 21
60.156250
 39
0
 62
0
  0
LINE
  8
0
  6
CONTINUOUS
 10
65.625000
 20
60.156250
 11
66.640630
 21
58.125000
 39
0
 62
0
  0
LINE
  8
0
  6
CONTINUOUS
 10
66.640630
 20
58.125000
 11
67.421880
 21
55.937500
 39
0
 62
0
  0
LINE
  8
0
  6
CONTINUOUS
 10
67.421880
 20
55.937500
 11
68.046880
 21
53.593750
 39
0
 62
0
  0
LINE
  8
0
  6
CONTINUOUS
 10
68.046880
 20
53.593750
 11
68.515630
 21
51.171880
 39
0
 62
0
  0
LINE
  8
0
  6
CONTINUOUS
 10
68.515630
 20
51.171880
 11
68.750000
 21
48.515630
 39
0
 62
0
  0
LINE
  8
0
  6
CONTINUOUS
 10
68.750000
 20
48.515630
 11
68.828130
 21
45.703130
 39
0
 62
0
  0
LINE
  8
0
  6
CONTINUOUS
 10
68.828130
 20
45.703130
 11
68.671880
 21
41.093750
 39
0
 62
0
  0
LINE
  8
0
  6
CONTINUOUS
 10
68.671880
 20
41.093750
 11
68.359380
 21
36.718750
 39
0
 62
0
  0
LINE
  8
0
  6
CONTINUOUS
 10
68.359380
 20
36.718750
 11
67.656250
 21
32.500000
 39
0
 62
0
  0
LINE
  8
0
  6
CONTINUOUS
 10
67.656250
 20
32.500000
 11
66.796880
 21
28.515630
 39
0
 62
0
  0
LINE
  8
0
  6
CONTINUOUS
 10
66.796880
 20
28.515630
 11
65.625000
 21
24.765630
 39
0
 62
0
  0
LINE
  8
0
  6
CONTINUOUS
 10
65.625000
 20
24.765630
 11
64.218750
 21
21.171880
 39
0
 62
0
  0
LINE
  8
0
  6
CONTINUOUS
 10
64.218750
 20
21.171880
 11
62.578130
 21
17.812500
 39
0
 62
0
  0
LINE
  8
0
  6
CONTINUOUS
 10
62.578130
 20
17.812500
 11
60.625000
 21
14.609380
 39
0
 62
0
  0
LINE
  8
0
  6
CONTINUOUS
 10
60.625000
 20
14.609380
 11
58.515630
 21
11.718750
 39
0
 62
0
  0
LINE
  8
0
  6
CONTINUOUS
 10
58.515630
 20
11.718750
 11
56.171880
 21
9.218750
 39
0
 62
0
  0
LINE
  8
0
  6
CONTINUOUS
 10
56.171880
 20
9.218750
 11
53.671880
 21
7.109375
 39
0
 62
0
  0
LINE
  8
0
  6
CONTINUOUS
 10
53.671880
 20
7.109375
 11
50.937500
 21
5.390625
 39
0
 62
0
  0
LINE
  8
0
  6
CONTINUOUS
 10
50.937500
 20
5.390625
 11
48.046880
 21
4.062500
 39
0
 62
0
  0
LINE
  8
0
  6
CONTINUOUS
 10
48.046880
 20
4.062500
 11
44.921880
 21
3.125000
 39
0
 62
0
  0
LINE
  8
0
  6
CONTINUOUS
 10
44.921880
 20
3.125000
 11
41.640630
 21
2.500000
 39
0
 62
0
  0
LINE
  8
0
  6
CONTINUOUS
 10
41.640630
 20
2.500000
 11
38.203130
 21
2.343750
 39
0
 62
0
  0
LINE
  8
0
  6
CONTINUOUS
 10
38.203130
 20
2.343750
 11
35.781250
 21
2.421875
 39
0
 62
0
  0
LINE
  8
0
  6
CONTINUOUS
 10
35.781250
 20
2.421875
 11
33.593750
 21
2.734375
 39
0
 62
0
  0
LINE
  8
0
  6
CONTINUOUS
 10
33.593750
 20
2.734375
 11
31.484380
 21
3.281250
 39
0
 62
0
  0
LINE
  8
0
  6
CONTINUOUS
 10
31.484380
 20
3.281250
 11
29.453130
 21
3.984375
 39
0
 62
0
  0
LINE
  8
0
  6
CONTINUOUS
 10
29.453130
 20
3.984375
 11
27.578130
 21
4.921875
 39
0
 62
0
  0
LINE
  8
0
  6
CONTINUOUS
 10
27.578130
 20
4.921875
 11
25.859380
 21
6.015625
 39
0
 62
0
  0
LINE
  8
0
  6
CONTINUOUS
 10
25.859380
 20
6.015625
 11
24.296880
 21
7.421875
 39
0
 62
0
  0
LINE
  8
0
  6
CONTINUOUS
 10
24.296880
 20
7.421875
 11
22.812500
 21
8.906250
 39
0
 62
0
  0
LINE
  8
0
  6
CONTINUOUS
 10
22.812500
 20
8.906250
 11
21.484380
 21
10.625000
 39
0
 62
0
  0
LINE
  8
0
  6
CONTINUOUS
 10
21.484380
 20
10.625000
 11
20.390630
 21
12.500000
 39
0
 62
0
  0
LINE
  8
0
  6
CONTINUOUS
 10
20.390630
 20
12.500000
 11
19.453130
 21
14.531250
 39
0
 62
0
  0
LINE
  8
0
  6
CONTINUOUS
 10
19.453130
 20
14.531250
 11
18.671880
 21
16.718750
 39
0
 62
0
  0
LINE
  8
0
  6
CONTINUOUS
 10
18.671880
 20
16.718750
 11
18.046880
 21
19.062500
 39
0
 62
0
  0
LINE
  8
0
  6
CONTINUOUS
 10
18.046880
 20
19.062500
 11
17.578130
 21
21.562500
 39
0
 62
0
  0
LINE
  8
0
  6
CONTINUOUS
 10
17.578130
 20
21.562500
 11
17.343750
 21
24.140630
 39
0
 62
0
  0
LINE
  8
0
  6
CONTINUOUS
 10
88.437500
 20
5.937500
 11
88.437500
 21
6.171875
 39
0
 62
0
  0
LINE
  8
0
  6
CONTINUOUS
 10
88.437500
 20
6.171875
 11
88.437500
 21
6.328125
 39
0
 62
0
  0
LINE
  8
0
  6
CONTINUOUS
 10
88.437500
 20
6.328125
 11
88.437500
 21
6.562500
 39
0
 62
0
  0
LINE
  8
0
  6
CONTINUOUS
 10
88.437500
 20
6.562500
 11
88.515630
 21
6.796875
 39
0
 62
0
  0
LINE
  8
0
  6
CONTINUOUS
 10
88.515630
 20
6.796875
 11
88.515630
 21
7.031250
 39
0
 62
0
  0
LINE
  8
0
  6
CONTINUOUS
 10
88.515630
 20
7.031250
 11
88.515630
 21
7.265625
 39
0
 62
0
  0
LINE
  8
0
  6
CONTINUOUS
 10
88.515630
 20
7.265625
 11
88.593750
 21
7.500000
 39
0
 62
0
  0
LINE
  8
0
  6
CONTINUOUS
 10
88.593750
 20
7.500000
 11
88.593750
 21
7.734375
 39
0
 62
0
  0
LINE
  8
0
  6
CONTINUOUS
 10
88.593750
 20
7.734375
 11
88.671880
 21
7.968750
 39
0
 62
0
  0
LINE
  8
0
  6
CONTINUOUS
 10
88.671880
 20
7.968750
 11
88.671880
 21
8.281250
 39
0
 62
0
  0
LINE
  8
0
  6
CONTINUOUS
 10
88.671880
 20
8.281250
 11
88.750000
 21
8.515625
 39
0
 62
0
  0
LINE
  8
0
  6
CONTINUOUS
 10
88.750000
 20
8.515625
 11
88.828130
 21
8.828125
 39
0
 62
0
  0
LINE
  8
0
  6
CONTINUOUS
 10
88.828130
 20
8.828125
 11
101.718800
 21
71.484380
 39
0
 62
0
  0
LINE
  8
0
  6
CONTINUOUS
 10
101.718800
 20
71.484380
 11
93.906250
 21
72.812500
 39
0
 62
0
  0
LINE
  8
0
  6
CONTINUOUS
 10
93.906250
 20
72.812500
 11
93.906250
 21
74.609380
 39
0
 62
0
  0
LINE
  8
0
  6
CONTINUOUS
 10
93.906250
 20
74.609380
 11
96.171880
 21
75.078130
 39
0
 62
0
  0
LINE
  8
0
  6
CONTINUOUS
 10
96.171880
 20
75.078130
 11
98.437500
 21
75.468750
 39
0
 62
0
  0
LINE
  8
0
  6
CONTINUOUS
 10
98.437500
 20
75.468750
 11
100.703100
 21
75.937500
 39
0
 62
0
  0
LINE
  8
0
  6
CONTINUOUS
 10
100.703100
 20
75.937500
 11
102.968800
 21
76.406250
 39
0
 62
0
  0
LINE
  8
0
  6
CONTINUOUS
 10
102.968800
 20
76.406250
 11
105.234400
 21
76.953130
 39
0
 62
0
  0
LINE
  8
0
  6
CONTINUOUS
 10
105.234400
 20
76.953130
 11
107.500000
 21
77.421880
 39
0
 62
0
  0
LINE
  8
0
  6
CONTINUOUS
 10
107.500000
 20
77.421880
 11
109.765600
 21
77.890630
 39
0
 62
0
  0
LINE
  8
0
  6
CONTINUOUS
 10
109.765600
 20
77.890630
 11
112.031300
 21
78.437500
 39
0
 62
0
  0
LINE
  8
0
  6
CONTINUOUS
 10
112.031300
 20
78.437500
 11
112.500000
 21
77.812500
 39
0
 62
0
  0
LINE
  8
0
  6
CONTINUOUS
 10
112.500000
 20
77.812500
 11
112.265600
 21
76.796880
 39
0
 62
0
  0
LINE
  8
0
  6
CONTINUOUS
 10
112.265600
 20
76.796880
 11
111.953100
 21
75.703130
 39
0
 62
0
  0
LINE
  8
0
  6
CONTINUOUS
 10
111.953100
 20
75.703130
 11
111.718800
 21
74.609380
 39
0
 62
0
  0
LINE
  8
0
  6
CONTINUOUS
 10
111.718800
 20
74.609380
 11
111.406300
 21
73.359380
 39
0
 62
0
  0
LINE
  8
0
  6
CONTINUOUS
 10
111.406300
 20
73.359380
 11
111.171900
 21
72.031250
 39
0
 62
0
  0
LINE
  8
0
  6
CONTINUOUS
 10
111.171900
 20
72.031250
 11
110.859400
 21
70.703130
 39
0
 62
0
  0
LINE
  8
0
  6
CONTINUOUS
 10
110.859400
 20
70.703130
 11
110.546900
 21
69.296880
 39
0
 62
0
  0
LINE
  8
0
  6
CONTINUOUS
 10
110.546900
 20
69.296880
 11
110.234400
 21
67.812500
 39
0
 62
0
  0
LINE
  8
0
  6
CONTINUOUS
 10
110.234400
 20
67.812500
 11
109.843800
 21
66.250000
 39
0
 62
0
  0
LINE
  8
0
  6
CONTINUOUS
 10
109.843800
 20
66.250000
 11
109.531300
 21
64.687500
 39
0
 62
0
  0
LINE
  8
0
  6
CONTINUOUS
 10
109.531300
 20
64.687500
 11
109.218800
 21
63.046880
 39
0
 62
0
  0
LINE
  8
0
  6
CONTINUOUS
 10
109.218800
 20
63.046880
 11
108.828100
 21
61.406250
 39
0
 62
0
  0
LINE
  8
0
  6
CONTINUOUS
 10
108.828100
 20
61.406250
 11
108.437500
 21
59.687500
 39
0
 62
0
  0
LINE
  8
0
  6
CONTINUOUS
 10
108.437500
 20
59.687500
 11
108.125000
 21
57.968750
 39
0
 62
0
  0
LINE
  8
0
  6
CONTINUOUS
 10
108.125000
 20
57.968750
 11
107.734400
 21
56.250000
 39
0
 62
0
  0
LINE
  8
0
  6
CONTINUOUS
 10
107.734400
 20
56.250000
 11
107.343800
 21
54.453130
 39
0
 62
0
  0
LINE
  8
0
  6
CONTINUOUS
 10
107.343800
 20
54.453130
 11
97.968750
 21
8.515625
 39
0
 62
0
  0
LINE
  8
0
  6
CONTINUOUS
 10
97.968750
 20
8.515625
 11
97.968750
 21
8.281250
 39
0
 62
0
  0
LINE
  8
0
  6
CONTINUOUS
 10
97.968750
 20
8.281250
 11
97.890630
 21
8.046875
 39
0
 62
0
  0
LINE
  8
0
  6
CONTINUOUS
 10
97.890630
 20
8.046875
 11
97.890630
 21
7.812500
 39
0
 62
0
  0
LINE
  8
0
  6
CONTINUOUS
 10
97.890630
 20
7.812500
 11
97.812500
 21
7.578125
 39
0
 62
0
  0
LINE
  8
0
  6
CONTINUOUS
 10
97.812500
 20
7.578125
 11
97.812500
 21
7.343750
 39
0
 62
0
  0
LINE
  8
0
  6
CONTINUOUS
 10
97.812500
 20
7.343750
 11
97.812500
 21
7.109375
 39
0
 62
0
  0
LINE
  8
0
  6
CONTINUOUS
 10
97.812500
 20
7.109375
 11
97.812500
 21
6.875000
 39
0
 62
0
  0
LINE
  8
0
  6
CONTINUOUS
 10
97.812500
 20
6.875000
 11
97.812500
 21
6.640625
 39
0
 62
0
  0
LINE
  8
0
  6
CONTINUOUS
 10
97.812500
 20
6.640625
 11
97.812500
 21
6.171875
 39
0
 62
0
  0
LINE
  8
0
  6
CONTINUOUS
 10
97.812500
 20
6.171875
 11
97.890630
 21
5.703125
 39
0
 62
0
  0
LINE
  8
0
  6
CONTINUOUS
 10
97.890630
 20
5.703125
 11
98.046880
 21
5.312500
 39
0
 62
0
  0
LINE
  8
0
  6
CONTINUOUS
 10
98.046880
 20
5.312500
 11
98.203130
 21
4.921875
 39
0
 62
0
  0
LINE
  8
0
  6
CONTINUOUS
 10
98.203130
 20
4.921875
 11
98.437500
 21
4.609375
 39
0
 62
0
  0
LINE
  8
0
  6
CONTINUOUS
 10
98.437500
 20
4.609375
 11
98.750000
 21
4.375000
 39
0
 62
0
  0
LINE
  8
0
  6
CONTINUOUS
 10
98.750000
 20
4.375000
 11
99.140630
 21
4.140625
 39
0
 62
0
  0
LINE
  8
0
  6
CONTINUOUS
 10
99.140630
 20
4.140625
 11
99.531250
 21
3.906250
 39
0
 62
0
  0
LINE
  8
0
  6
CONTINUOUS
 10
99.531250
 20
3.906250
 11
100.000000
 21
3.750000
 39
0
 62
0
  0
LINE
  8
0
  6
CONTINUOUS
 10
100.000000
 20
3.750000
 11
100.546900
 21
3.671875
 39
0
 62
0
  0
LINE
  8
0
  6
CONTINUOUS
 10
100.546900
 20
3.671875
 11
101.171900
 21
3.515625
 39
0
 62
0
  0
LINE
  8
0
  6
CONTINUOUS
 10
101.171900
 20
3.515625
 11
101.875000
 21
3.437500
 39
0
 62
0
  0
LINE
  8
0
  6
CONTINUOUS
 10
101.875000
 20
3.437500
 11
102.656300
 21
3.359375
 39
0
 62
0
  0
LINE
  8
0
  6
CONTINUOUS
 10
102.656300
 20
3.359375
 11
103.515600
 21
3.359375
 39
0
 62
0
  0
LINE
  8
0
  6
CONTINUOUS
 10
103.515600
 20
3.359375
 11
104.453100
 21
3.281250
 39
0
 62
0
  0
LINE
  8
0
  6
CONTINUOUS
 10
104.453100
 20
3.281250
 11
105.468800
 21
3.281250
 39
0
 62
0
  0
LINE
  8
0
  6
CONTINUOUS
 10
105.468800
 20
3.281250
 11
105.234400
 21
1.250000
 39
0
 62
0
  0
LINE
  8
0
  6
CONTINUOUS
 10
105.234400
 20
1.250000
 11
103.593800
 21
0.703125
 39
0
 62
0
  0
LINE
  8
0
  6
CONTINUOUS
 10
103.593800
 20
0.703125
 11
102.031300
 21
0.312500
 39
0
 62
0
  0
LINE
  8
0
  6
CONTINUOUS
 10
102.031300
 20
0.312500
 11
100.625000
 21
-0.078125
 39
0
 62
0
  0
LINE
  8
0
  6
CONTINUOUS
 10
100.625000
 20
-0.078125
 11
99.218750
 21
-0.390625
 39
0
 62
0
  0
LINE
  8
0
  6
CONTINUOUS
 10
99.218750
 20
-0.390625
 11
97.968750
 21
-0.625000
 39
0
 62
0
  0
LINE
  8
0
  6
CONTINUOUS
 10
97.968750
 20
-0.625000
 11
96.796880
 21
-0.781250
 39
0
 62
0
  0
LINE
  8
0
  6
CONTINUOUS
 10
96.796880
 20
-0.781250
 11
95.703130
 21
-0.937500
 39
0
 62
0
  0
LINE
  8
0
  6
CONTINUOUS
 10
95.703130
 20
-0.937500
 11
94.687500
 21
-0.937500
 39
0
 62
0
  0
LINE
  8
0
  6
CONTINUOUS
 10
94.687500
 20
-0.937500
 11
93.906250
 21
-0.937500
 39
0
 62
0
  0
LINE
  8
0
  6
CONTINUOUS
 10
93.906250
 20
-0.937500
 11
93.203130
 21
-0.859375
 39
0
 62
0
  0
LINE
  8
0
  6
CONTINUOUS
 10
93.203130
 20
-0.859375
 11
92.578130
 21
-0.703125
 39
0
 62
0
  0
LINE
  8
0
  6
CONTINUOUS
 10
92.578130
 20
-0.703125
 11
91.953130
 21
-0.546875
 39
0
 62
0
  0
LINE
  8
0
  6
CONTINUOUS
 10
91.953130
 20
-0.546875
 11
91.406250
 21
-0.390625
 39
0
 62
0
  0
LINE
  8
0
  6
CONTINUOUS
 10
91.406250
 20
-0.390625
 11
90.937500
 21
-0.078125
 39
0
 62
0
  0
LINE
  8
0
  6
CONTINUOUS
 10
90.937500
 20
-0.078125
 11
90.468750
 21
0.234375
 39
0
 62
0
  0
LINE
  8
0
  6
CONTINUOUS
 10
90.468750
 20
0.234375
 11
90.000000
 21
0.546875
 39
0
 62
0
  0
LINE
  8
0
  6
CONTINUOUS
 10
90.000000
 20
0.546875
 11
89.609380
 21
0.937500
 39
0
 62
0
  0
LINE
  8
0
  6
CONTINUOUS
 10
89.609380
 20
0.937500
 11
89.296880
 21
1.406250
 39
0
 62
0
  0
LINE
  8
0
  6
CONTINUOUS
 10
89.296880
 20
1.406250
 11
89.062500
 21
1.875000
 39
0
 62
0
  0
LINE
  8
0
  6
CONTINUOUS
 10
89.062500
 20
1.875000
 11
88.828130
 21
2.421875
 39
0
 62
0
  0
LINE
  8
0
  6
CONTINUOUS
 10
88.828130
 20
2.421875
 11
88.671880
 21
3.046875
 39
0
 62
0
  0
LINE
  8
0
  6
CONTINUOUS
 10
88.671880
 20
3.046875
 11
88.515630
 21
3.671875
 39
0
 62
0
  0
LINE
  8
0
  6
CONTINUOUS
 10
88.515630
 20
3.671875
 11
88.437500
 21
4.375000
 39
0
 62
0
  0
LINE
  8
0
  6
CONTINUOUS
 10
88.437500
 20
4.375000
 11
88.437500
 21
5.156250
 39
0
 62
0
  0
LINE
  8
0
  6
CONTINUOUS
 10
88.437500
 20
5.156250
 11
88.437500
 21
5.312500
 39
0
 62
0
  0
LINE
  8
0
  6
CONTINUOUS
 10
88.437500
 20
5.312500
 11
88.437500
 21
5.546875
 39
0
 62
0
  0
LINE
  8
0
  6
CONTINUOUS
 10
88.437500
 20
5.546875
 11
88.437500
 21
5.703125
 39
0
 62
0
  0
LINE
  8
0
  6
CONTINUOUS
 10
88.437500
 20
5.703125
 11
88.437500
 21
5.937500
 39
0
 62
0
  0
LINE
  8
0
  6
CONTINUOUS
 10
118.828100
 20
44.453130
 11
117.656300
 21
44.453130
 39
0
 62
0
  0
LINE
  8
0
  6
CONTINUOUS
 10
117.656300
 20
44.453130
 11
117.812500
 21
46.406250
 39
0
 62
0
  0
LINE
  8
0
  6
CONTINUOUS
 10
117.812500
 20
46.406250
 11
119.531300
 21
47.031250
 39
0
 62
0
  0
LINE
  8
0
  6
CONTINUOUS
 10
119.531300
 20
47.031250
 11
121.171900
 21
47.500000
 39
0
 62
0
  0
LINE
  8
0
  6
CONTINUOUS
 10
121.171900
 20
47.500000
 11
122.734400
 21
47.890630
 39
0
 62
0
  0
LINE
  8
0
  6
CONTINUOUS
 10
122.734400
 20
47.890630
 11
124.140600
 21
48.203130
 39
0
 62
0
  0
LINE
  8
0
  6
CONTINUOUS
 10
124.140600
 20
48.203130
 11
125.468800
 21
48.515630
 39
0
 62
0
  0
LINE
  8
0
  6
CONTINUOUS
 10
125.468800
 20
48.515630
 11
126.718800
 21
48.671880
 39
0
 62
0
  0
LINE
  8
0
  6
CONTINUOUS
 10
126.718800
 20
48.671880
 11
127.890600
 21
48.828130
 39
0
 62
0
  0
LINE
  8
0
  6
CONTINUOUS
 10
127.890600
 20
48.828130
 11
128.906300
 21
48.828130
 39
0
 62
0
  0
LINE
  8
0
  6
CONTINUOUS
 10
128.906300
 20
48.828130
 11
129.609400
 21
48.828130
 39
0
 62
0
  0
LINE
  8
0
  6
CONTINUOUS
 10
129.609400
 20
48.828130
 11
130.156300
 21
48.750000
 39
0
 62
0
  0
LINE
  8
0
  6
CONTINUOUS
 10
130.156300
 20
48.750000
 11
130.781300
 21
48.671880
 39
0
 62
0
  0
LINE
  8
0
  6
CONTINUOUS
 10
130.781300
 20
48.671880
 11
131.328100
 21
48.515630
 39
0
 62
0
  0
LINE
  8
0
  6
CONTINUOUS
 10
131.328100
 20
48.515630
 11
131.796900
 21
48.359380
 39
0
 62
0
  0
LINE
  8
0
  6
CONTINUOUS
 10
131.796900
 20
48.359380
 11
132.265600
 21
48.125000
 39
0
 62
0
  0
LINE
  8
0
  6
CONTINUOUS
 10
132.265600
 20
48.125000
 11
132.656300
 21
47.890630
 39
0
 62
0
  0
LINE
  8
0
  6
CONTINUOUS
 10
132.656300
 20
47.890630
 11
133.046900
 21
47.578130
 39
0
 62
0
  0
LINE
  8
0
  6
CONTINUOUS
 10
133.046900
 20
47.578130
 11
133.437500
 21
47.265630
 39
0
 62
0
  0
LINE
  8
0
  6
CONTINUOUS
 10
133.437500
 20
47.265630
 11
133.750000
 21
46.875000
 39
0
 62
0
  0
LINE
  8
0
  6
CONTINUOUS
 10
133.750000
 20
46.875000
 11
133.984400
 21
46.484380
 39
0
 62
0
  0
LINE
  8
0
  6
CONTINUOUS
 10
133.984400
 20
46.484380
 11
134.218800
 21
46.015630
 39
0
 62
0
  0
LINE
  8
0
  6
CONTINUOUS
 10
134.218800
 20
46.015630
 11
134.375000
 21
45.546880
 39
0
 62
0
  0
LINE
  8
0
  6
CONTINUOUS
 10
134.375000
 20
45.546880
 11
134.453100
 21
45.000000
 39
0
 62
0
  0
LINE
  8
0
  6
CONTINUOUS
 10
134.453100
 20
45.000000
 11
134.531300
 21
44.375000
 39
0
 62
0
  0
LINE
  8
0
  6
CONTINUOUS
 10
134.531300
 20
44.375000
 11
134.531300
 21
43.750000
 39
0
 62
0
  0
LINE
  8
0
  6
CONTINUOUS
 10
134.531300
 20
43.750000
 11
134.531300
 21
43.515630
 39
0
 62
0
  0
LINE
  8
0
  6
CONTINUOUS
 10
134.531300
 20
43.515630
 11
134.531300
 21
43.203130
 39
0
 62
0
  0
LINE
  8
0
  6
CONTINUOUS
 10
134.531300
 20
43.203130
 11
134.531300
 21
42.968750
 39
0
 62
0
  0
LINE
  8
0
  6
CONTINUOUS
 10
134.531300
 20
42.968750
 11
134.531300
 21
42.656250
 39
0
 62
0
  0
LINE
  8
0
  6
CONTINUOUS
 10
134.531300
 20
42.656250
 11
134.453100
 21
42.421880
 39
0
 62
0
  0
LINE
  8
0
  6
CONTINUOUS
 10
134.453100
 20
42.421880
 11
134.453100
 21
42.187500
 39
0
 62
0
  0
LINE
  8
0
  6
CONTINUOUS
 10
134.453100
 20
42.187500
 11
134.375000
 21
41.875000
 39
0
 62
0
  0
LINE
  8
0
  6
CONTINUOUS
 10
134.375000
 20
41.875000
 11
134.375000
 21
41.640630
 39
0
 62
0
  0
LINE
  8
0
  6
CONTINUOUS
 10
134.375000
 20
41.640630
 11
127.500000
 21
8.515625
 39
0
 62
0
  0
LINE
  8
0
  6
CONTINUOUS
 10
127.500000
 20
8.515625
 11
127.500000
 21
8.281250
 39
0
 62
0
  0
LINE
  8
0
  6
CONTINUOUS
 10
127.500000
 20
8.281250
 11
127.421900
 21
8.046875
 39
0
 62
0
  0
LINE
  8
0
  6
CONTINUOUS
 10
127.421900
 20
8.046875
 11
127.343800
 21
7.812500
 39
0
 62
0
  0
LINE
  8
0
  6
CONTINUOUS
 10
127.343800
 20
7.812500
 11
127.343800
 21
7.578125
 39
0
 62
0
  0
LINE
  8
0
  6
CONTINUOUS
 10
127.343800
 20
7.578125
 11
127.265600
 21
7.343750
 39
0
 62
0
  0
LINE
  8
0
  6
CONTINUOUS
 10
127.265600
 20
7.343750
 11
127.265600
 21
7.109375
 39
0
 62
0
  0
LINE
  8
0
  6
CONTINUOUS
 10
127.265600
 20
7.109375
 11
127.265600
 21
6.875000
 39
0
 62
0
  0
LINE
  8
0
  6
CONTINUOUS
 10
127.265600
 20
6.875000
 11
127.265600
 21
6.640625
 39
0
 62
0
  0
LINE
  8
0
  6
CONTINUOUS
 10
127.265600
 20
6.640625
 11
127.265600
 21
6.171875
 39
0
 62
0
  0
LINE
  8
0
  6
CONTINUOUS
 10
127.265600
 20
6.171875
 11
127.343800
 21
5.703125
 39
0
 62
0
  0
LINE
  8
0
  6
CONTINUOUS
 10
127.343800
 20
5.703125
 11
127.500000
 21
5.312500
 39
0
 62
0
  0
LINE
  8
0
  6
CONTINUOUS
 10
127.500000
 20
5.312500
 11
127.656300
 21
4.921875
 39
0
 62
0
  0
LINE
  8
0
  6
CONTINUOUS
 10
127.656300
 20
4.921875
 11
127.968800
 21
4.609375
 39
0
 62
0
  0
LINE
  8
0
  6
CONTINUOUS
 10
127.968800
 20
4.609375
 11
128.203100
 21
4.375000
 39
0
 62
0
  0
LINE
  8
0
  6
CONTINUOUS
 10
128.203100
 20
4.375000
 11
128.593800
 21
4.140625
 39
0
 62
0
  0
LINE
  8
0
  6
CONTINUOUS
 10
128.593800
 20
4.140625
 11
128.984400
 21
3.906250
 39
0
 62
0
  0
LINE
  8
0
  6
CONTINUOUS
 10
128.984400
 20
3.906250
 11
129.453100
 21
3.750000
 39
0
 62
0
  0
LINE
  8
0
  6
CONTINUOUS
 10
129.453100
 20
3.750000
 11
130.000000
 21
3.671875
 39
0
 62
0
  0
LINE
  8
0
  6
CONTINUOUS
 10
130.000000
 20
3.671875
 11
130.625000
 21
3.515625
 39
0
 62
0
  0
LINE
  8
0
  6
CONTINUOUS
 10
130.625000
 20
3.515625
 11
131.328100
 21
3.437500
 39
0
 62
0
  0
LINE
  8
0
  6
CONTINUOUS
 10
131.328100
 20
3.437500
 11
132.031300
 21
3.359375
 39
0
 62
0
  0
LINE
  8
0
  6
CONTINUOUS
 10
132.031300
 20
3.359375
 11
132.890600
 21
3.359375
 39
0
 62
0
  0
LINE
  8
0
  6
CONTINUOUS
 10
132.890600
 20
3.359375
 11
133.828100
 21
3.281250
 39
0
 62
0
  0
LINE
  8
0
  6
CONTINUOUS
 10
133.828100
 20
3.281250
 11
134.843800
 21
3.281250
 39
0
 62
0
  0
LINE
  8
0
  6
CONTINUOUS
 10
134.843800
 20
3.281250
 11
134.687500
 21
1.250000
 39
0
 62
0
  0
LINE
  8
0
  6
CONTINUOUS
 10
134.687500
 20
1.250000
 11
133.046900
 21
0.703125
 39
0
 62
0
  0
LINE
  8
0
  6
CONTINUOUS
 10
133.046900
 20
0.703125
 11
131.484400
 21
0.312500
 39
0
 62
0
  0
LINE
  8
0
  6
CONTINUOUS
 10
131.484400
 20
0.312500
 11
130.000000
 21
-0.078125
 39
0
 62
0
  0
LINE
  8
0
  6
CONTINUOUS
 10
130.000000
 20
-0.078125
 11
128.671900
 21
-0.390625
 39
0
 62
0
  0
LINE
  8
0
  6
CONTINUOUS
 10
128.671900
 20
-0.390625
 11
127.343800
 21
-0.625000
 39
0
 62
0
  0
LINE
  8
0
  6
CONTINUOUS
 10
127.343800
 20
-0.625000
 11
126.171900
 21
-0.781250
 39
0
 62
0
  0
LINE
  8
0
  6
CONTINUOUS
 10
126.171900
 20
-0.781250
 11
125.156300
 21
-0.937500
 39
0
 62
0
  0
LINE
  8
0
  6
CONTINUOUS
 10
125.156300
 20
-0.937500
 11
124.140600
 21
-0.937500
 39
0
 62
0
  0
LINE
  8
0
  6
CONTINUOUS
 10
124.140600
 20
-0.937500
 11
123.437500
 21
-0.937500
 39
0
 62
0
  0
LINE
  8
0
  6
CONTINUOUS
 10
123.437500
 20
-0.937500
 11
122.734400
 21
-0.859375
 39
0
 62
0
  0
LINE
  8
0
  6
CONTINUOUS
 10
122.734400
 20
-0.859375
 11
122.109400
 21
-0.703125
 39
0
 62
0
  0
LINE
  8
0
  6
CONTINUOUS
 10
122.109400
 20
-0.703125
 11
121.562500
 21
-0.546875
 39
0
 62
0
  0
LINE
  8
0
  6
CONTINUOUS
 10
121.562500
 20
-0.546875
 11
121.015600
 21
-0.312500
 39
0
 62
0
  0
LINE
  8
0
  6
CONTINUOUS
 10
121.015600
 20
-0.312500
 11
120.468800
 21
-0.078125
 39
0
 62
0
  0
LINE
  8
0
  6
CONTINUOUS
 10
120.468800
 20
-0.078125
 11
120.000000
 21
0.234375
 39
0
 62
0
  0
LINE
  8
0
  6
CONTINUOUS
 10
120.000000
 20
0.234375
 11
119.609400
 21
0.546875
 39
0
 62
0
  0
LINE
  8
0
  6
CONTINUOUS
 10
119.609400
 20
0.546875
 11
119.218800
 21
0.937500
 39
0
 62
0
  0
LINE
  8
0
  6
CONTINUOUS
 10
119.218800
 20
0.937500
 11
118.828100
 21
1.406250
 39
0
 62
0
  0
LINE
  8
0
  6
CONTINUOUS
 10
118.828100
 20
1.406250
 11
118.593800
 21
1.953125
 39
0
 62
0
  0
LINE
  8
0
  6
CONTINUOUS
 10
118.593800
 20
1.953125
 11
118.359400
 21
2.500000
 39
0
 62
0
  0
LINE
  8
0
  6
CONTINUOUS
 10
118.359400
 20
2.500000
 11
118.203100
 21
3.046875
 39
0
 62
0
  0
LINE
  8
0
  6
CONTINUOUS
 10
118.203100
 20
3.046875
 11
118.046900
 21
3.750000
 39
0
 62
0
  0
LINE
  8
0
  6
CONTINUOUS
 10
118.046900
 20
3.750000
 11
117.968800
 21
4.453125
 39
0
 62
0
  0
LINE
  8
0
  6
CONTINUOUS
 10
117.968800
 20
4.453125
 11
117.968800
 21
5.156250
 39
0
 62
0
  0
LINE
  8
0
  6
CONTINUOUS
 10
117.968800
 20
5.156250
 11
117.968800
 21
5.546875
 39
0
 62
0
  0
LINE
  8
0
  6
CONTINUOUS
 10
117.968800
 20
5.546875
 11
117.968800
 21
5.937500
 39
0
 62
0
  0
LINE
  8
0
  6
CONTINUOUS
 10
117.968800
 20
5.937500
 11
117.968800
 21
6.328125
 39
0
 62
0
  0
LINE
  8
0
  6
CONTINUOUS
 10
117.968800
 20
6.328125
 11
118.046900
 21
6.796875
 39
0
 62
0
  0
LINE
  8
0
  6
CONTINUOUS
 10
118.046900
 20
6.796875
 11
118.125000
 21
7.265625
 39
0
 62
0
  0
LINE
  8
0
  6
CONTINUOUS
 10
118.125000
 20
7.265625
 11
118.203100
 21
7.734375
 39
0
 62
0
  0
LINE
  8
0
  6
CONTINUOUS
 10
118.203100
 20
7.734375
 11
118.281300
 21
8.281250
 39
0
 62
0
  0
LINE
  8
0
  6
CONTINUOUS
 10
118.281300
 20
8.281250
 11
118.359400
 21
8.828125
 39
0
 62
0
  0
LINE
  8
0
  6
CONTINUOUS
 10
118.359400
 20
8.828125
 11
124.609400
 21
39.218750
 39
0
 62
0
  0
LINE
  8
0
  6
CONTINUOUS
 10
124.609400
 20
39.218750
 11
124.609400
 21
39.375000
 39
0
 62
0
  0
LINE
  8
0
  6
CONTINUOUS
 10
124.609400
 20
39.375000
 11
124.687500
 21
39.609380
 39
0
 62
0
  0
LINE
  8
0
  6
CONTINUOUS
 10
124.687500
 20
39.609380
 11
124.687500
 21
39.843750
 39
0
 62
0
  0
LINE
  8
0
  6
CONTINUOUS
 10
124.687500
 20
39.843750
 11
124.765600
 21
40.000000
 39
0
 62
0
  0
LINE
  8
0
  6
CONTINUOUS
 10
124.765600
 20
40.000000
 11
124.765600
 21
40.234380
 39
0
 62
0
  0
LINE
  8
0
  6
CONTINUOUS
 10
124.765600
 20
40.234380
 11
124.843800
 21
40.390630
 39
0
 62
0
  0
LINE
  8
0
  6
CONTINUOUS
 10
124.843800
 20
40.390630
 11
124.843800
 21
40.546880
 39
0
 62
0
  0
LINE
  8
0
  6
CONTINUOUS
 10
124.843800
 20
40.546880
 11
124.921900
 21
40.703130
 39
0
 62
0
  0
LINE
  8
0
  6
CONTINUOUS
 10
124.921900
 20
40.703130
 11
124.921900
 21
40.859380
 39
0
 62
0
  0
LINE
  8
0
  6
CONTINUOUS
 10
124.921900
 20
40.859380
 11
124.921900
 21
41.015630
 39
0
 62
0
  0
LINE
  8
0
  6
CONTINUOUS
 10
124.921900
 20
41.015630
 11
125.000000
 21
41.171880
 39
0
 62
0
  0
LINE
  8
0
  6
CONTINUOUS
 10
125.000000
 20
41.171880
 11
125.000000
 21
41.328130
 39
0
 62
0
  0
LINE
  8
0
  6
CONTINUOUS
 10
125.000000
 20
41.328130
 11
125.000000
 21
41.484380
 39
0
 62
0
  0
LINE
  8
0
  6
CONTINUOUS
 10
125.000000
 20
41.484380
 11
125.000000
 21
41.640630
 39
0
 62
0
  0
LINE
  8
0
  6
CONTINUOUS
 10
125.000000
 20
41.640630
 11
125.000000
 21
41.796880
 39
0
 62
0
  0
LINE
  8
0
  6
CONTINUOUS
 10
125.000000
 20
41.796880
 11
125.000000
 21
41.875000
 39
0
 62
0
  0
LINE
  8
0
  6
CONTINUOUS
 10
125.000000
 20
41.875000
 11
125.000000
 21
42.265630
 39
0
 62
0
  0
LINE
  8
0
  6
CONTINUOUS
 10
125.000000
 20
42.265630
 11
124.921900
 21
42.578130
 39
0
 62
0
  0
LINE
  8
0
  6
CONTINUOUS
 10
124.921900
 20
42.578130
 11
124.843800
 21
42.812500
 39
0
 62
0
  0
LINE
  8
0
  6
CONTINUOUS
 10
124.843800
 20
42.812500
 11
124.687500
 21
43.125000
 39
0
 62
0
  0
LINE
  8
0
  6
CONTINUOUS
 10
124.687500
 20
43.125000
 11
124.531300
 21
43.359380
 39
0
 62
0
  0
LINE
  8
0
  6
CONTINUOUS
 10
124.531300
 20
43.359380
 11
124.375000
 21
43.515630
 39
0
 62
0
  0
LINE
  8
0
  6
CONTINUOUS
 10
124.375000
 20
43.515630
 11
124.140600
 21
43.750000
 39
0
 62
0
  0
LINE
  8
0
  6
CONTINUOUS
 10
124.140600
 20
43.750000
 11
123.828100
 21
43.906250
 39
0
 62
0
  0
LINE
  8
0
  6
CONTINUOUS
 10
123.828100
 20
43.906250
 11
123.437500
 21
43.984380
 39
0
 62
0
  0
LINE
  8
0
  6
CONTINUOUS
 10
123.437500
 20
43.984380
 11
122.968800
 21
44.140630
 39
0
 62
0
  0
LINE
  8
0
  6
CONTINUOUS
 10
122.968800
 20
44.140630
 11
122.421900
 21
44.218750
 39
0
 62
0
  0
LINE
  8
0
  6
CONTINUOUS
 10
122.421900
 20
44.218750
 11
121.718800
 21
44.296880
 39
0
 62
0
  0
LINE
  8
0
  6
CONTINUOUS
 10
121.718800
 20
44.296880
 11
120.859400
 21
44.375000
 39
0
 62
0
  0
LINE
  8
0
  6
CONTINUOUS
 10
120.859400
 20
44.375000
 11
119.921900
 21
44.453130
 39
0
 62
0
  0
LINE
  8
0
  6
CONTINUOUS
 10
119.921900
 20
44.453130
 11
118.828100
 21
44.453130
 39
0
 62
0
  0
LINE
  8
0
  6
CONTINUOUS
 10
127.734400
 20
68.515630
 11
127.890600
 21
69.140630
 39
0
 62
0
  0
LINE
  8
0
  6
CONTINUOUS
 10
127.890600
 20
69.140630
 11
128.046900
 21
69.687500
 39
0
 62
0
  0
LINE
  8
0
  6
CONTINUOUS
 10
128.046900
 20
69.687500
 11
128.281300
 21
70.234380
 39
0
 62
0
  0
LINE
  8
0
  6
CONTINUOUS
 10
128.281300
 20
70.234380
 11
128.593800
 21
70.703130
 39
0
 62
0
  0
LINE
  8
0
  6
CONTINUOUS
 10
128.593800
 20
70.703130
 11
128.906300
 21
71.171880
 39
0
 62
0
  0
LINE
  8
0
  6
CONTINUOUS
 10
128.906300
 20
71.171880
 11
129.296900
 21
71.562500
 39
0
 62
0
  0
LINE
  8
0
  6
CONTINUOUS
 10
129.296900
 20
71.562500
 11
129.687500
 21
71.953130
 39
0
 62
0
  0
LINE
  8
0
  6
CONTINUOUS
 10
129.687500
 20
71.953130
 11
130.156300
 21
72.265630
 39
0
 62
0
  0
LINE
  8
0
  6
CONTINUOUS
 10
130.156300
 20
72.265630
 11
130.703100
 21
72.578130
 39
0
 62
0
  0
LINE
  8
0
  6
CONTINUOUS
 10
130.703100
 20
72.578130
 11
131.171900
 21
72.812500
 39
0
 62
0
  0
LINE
  8
0
  6
CONTINUOUS
 10
131.171900
 20
72.812500
 11
131.718800
 21
72.968750
 39
0
 62
0
  0
LINE
  8
0
  6
CONTINUOUS
 10
131.718800
 20
72.968750
 11
132.265600
 21
73.125000
 39
0
 62
0
  0
LINE
  8
0
  6
CONTINUOUS
 10
132.265600
 20
73.125000
 11
132.890600
 21
73.203130
 39
0
 62
0
  0
LINE
  8
0
  6
CONTINUOUS
 10
132.890600
 20
73.203130
 11
133.515600
 21
73.203130
 39
0
 62
0
  0
LINE
  8
0
  6
CONTINUOUS
 10
133.515600
 20
73.203130
 11
134.140600
 21
73.203130
 39
0
 62
0
  0
LINE
  8
0
  6
CONTINUOUS
 10
134.140600
 20
73.203130
 11
134.687500
 21
73.125000
 39
0
 62
0
  0
LINE
  8
0
  6
CONTINUOUS
 10
134.687500
 20
73.125000
 11
135.234400
 21
72.968750
 39
0
 62
0
  0
LINE
  8
0
  6
CONTINUOUS
 10
135.234400
 20
72.968750
 11
135.703100
 21
72.812500
 39
0
 62
0
  0
LINE
  8
0
  6
CONTINUOUS
 10
135.703100
 20
72.812500
 11
136.250000
 21
72.656250
 39
0
 62
0
  0
LINE
  8
0
  6
CONTINUOUS
 10
136.250000
 20
72.656250
 11
136.718800
 21
72.343750
 39
0
 62
0
  0
LINE
  8
0
  6
CONTINUOUS
 10
136.718800
 20
72.343750
 11
137.109400
 21
72.031250
 39
0
 62
0
  0
LINE
  8
0
  6
CONTINUOUS
 10
137.109400
 20
72.031250
 11
137.500000
 21
71.718750
 39
0
 62
0
  0
LINE
  8
0
  6
CONTINUOUS
 10
137.500000
 20
71.718750
 11
137.890600
 21
71.328130
 39
0
 62
0
  0
LINE
  8
0
  6
CONTINUOUS
 10
137.890600
 20
71.328130
 11
138.203100
 21
70.937500
 39
0
 62
0
  0
LINE
  8
0
  6
CONTINUOUS
 10
138.203100
 20
70.937500
 11
138.437500
 21
70.468750
 39
0
 62
0
  0
LINE
  8
0
  6
CONTINUOUS
 10
138.437500
 20
70.468750
 11
138.671900
 21
70.000000
 39
0
 62
0
  0
LINE
  8
0
  6
CONTINUOUS
 10
138.671900
 20
70.000000
 11
138.828100
 21
69.453130
 39
0
 62
0
  0
LINE
  8
0
  6
CONTINUOUS
 10
138.828100
 20
69.453130
 11
138.984400
 21
68.906250
 39
0
 62
0
  0
LINE
  8
0
  6
CONTINUOUS
 10
138.984400
 20
68.906250
 11
139.062500
 21
68.281250
 39
0
 62
0
  0
LINE
  8
0
  6
CONTINUOUS
 10
139.062500
 20
68.281250
 11
139.062500
 21
67.656250
 39
0
 62
0
  0
LINE
  8
0
  6
CONTINUOUS
 10
139.062500
 20
67.656250
 11
139.062500
 21
66.953130
 39
0
 62
0
  0
LINE
  8
0
  6
CONTINUOUS
 10
139.062500
 20
66.953130
 11
138.984400
 21
66.328130
 39
0
 62
0
  0
LINE
  8
0
  6
CONTINUOUS
 10
138.984400
 20
66.328130
 11
138.828100
 21
65.781250
 39
0
 62
0
  0
LINE
  8
0
  6
CONTINUOUS
 10
138.828100
 20
65.781250
 11
138.671900
 21
65.156250
 39
0
 62
0
  0
LINE
  8
0
  6
CONTINUOUS
 10
138.671900
 20
65.156250
 11
138.437500
 21
64.687500
 39
0
 62
0
  0
LINE
  8
0
  6
CONTINUOUS
 10
138.437500
 20
64.687500
 11
138.125000
 21
64.140630
 39
0
 62
0
  0
LINE
  8
0
  6
CONTINUOUS
 10
138.125000
 20
64.140630
 11
137.812500
 21
63.671880
 39
0
 62
0
  0
LINE
  8
0
  6
CONTINUOUS
 10
137.812500
 20
63.671880
 11
137.421900
 21
63.281250
 39
0
 62
0
  0
LINE
  8
0
  6
CONTINUOUS
 10
137.421900
 20
63.281250
 11
136.953100
 21
62.890630
 39
0
 62
0
  0
LINE
  8
0
  6
CONTINUOUS
 10
136.953100
 20
62.890630
 11
136.562500
 21
62.500000
 39
0
 62
0
  0
LINE
  8
0
  6
CONTINUOUS
 10
136.562500
 20
62.500000
 11
136.015600
 21
62.187500
 39
0
 62
0
  0
LINE
  8
0
  6
CONTINUOUS
 10
136.015600
 20
62.187500
 11
135.546900
 21
61.953130
 39
0
 62
0
  0
LINE
  8
0
  6
CONTINUOUS
 10
135.546900
 20
61.953130
 11
135.000000
 21
61.796880
 39
0
 62
0
  0
LINE
  8
0
  6
CONTINUOUS
 10
135.000000
 20
61.796880
 11
134.453100
 21
61.640630
 39
0
 62
0
  0
LINE
  8
0
  6
CONTINUOUS
 10
134.453100
 20
61.640630
 11
133.828100
 21
61.562500
 39
0
 62
0
  0
LINE
  8
0
  6
CONTINUOUS
 10
133.828100
 20
61.562500
 11
133.281300
 21
61.562500
 39
0
 62
0
  0
LINE
  8
0
  6
CONTINUOUS
 10
133.281300
 20
61.562500
 11
132.656300
 21
61.562500
 39
0
 62
0
  0
LINE
  8
0
  6
CONTINUOUS
 10
132.656300
 20
61.562500
 11
132.109400
 21
61.640630
 39
0
 62
0
  0
LINE
  8
0
  6
CONTINUOUS
 10
132.109400
 20
61.640630
 11
131.562500
 21
61.796880
 39
0
 62
0
  0
LINE
  8
0
  6
CONTINUOUS
 10
131.562500
 20
61.796880
 11
131.015600
 21
61.953130
 39
0
 62
0
  0
LINE
  8
0
  6
CONTINUOUS
 10
131.015600
 20
61.953130
 11
130.546900
 21
62.187500
 39
0
 62
0
  0
LINE
  8
0
  6
CONTINUOUS
 10
130.546900
 20
62.187500
 11
130.078100
 21
62.421880
 39
0
 62
0
  0
LINE
  8
0
  6
CONTINUOUS
 10
130.078100
 20
62.421880
 11
129.609400
 21
62.812500
 39
0
 62
0
  0
LINE
  8
0
  6
CONTINUOUS
 10
129.609400
 20
62.812500
 11
129.218800
 21
63.125000
 39
0
 62
0
  0
LINE
  8
0
  6
CONTINUOUS
 10
129.218800
 20
63.125000
 11
128.828100
 21
63.593750
 39
0
 62
0
  0
LINE
  8
0
  6
CONTINUOUS
 10
128.828100
 20
63.593750
 11
128.515600
 21
63.984380
 39
0
 62
0
  0
LINE
  8
0
  6
CONTINUOUS
 10
128.515600
 20
63.984380
 11
128.281300
 21
64.453130
 39
0
 62
0
  0
LINE
  8
0
  6
CONTINUOUS
 10
128.281300
 20
64.453130
 11
128.046900
 21
64.921880
 39
0
 62
0
  0
LINE
  8
0
  6
CONTINUOUS
 10
128.046900
 20
64.921880
 11
127.812500
 21
65.468750
 39
0
 62
0
  0
LINE
  8
0
  6
CONTINUOUS
 10
127.812500
 20
65.468750
 11
127.734400
 21
66.015630
 39
0
 62
0
  0
LINE
  8
0
  6
CONTINUOUS
 10
127.734400
 20
66.015630
 11
127.656300
 21
66.640630
 39
0
 62
0
  0
LINE
  8
0
  6
CONTINUOUS
 10
127.656300
 20
66.640630
 11
127.656300
 21
67.187500
 39
0
 62
0
  0
LINE
  8
0
  6
CONTINUOUS
 10
127.656300
 20
67.187500
 11
127.656300
 21
67.890630
 39
0
 62
0
  0
LINE
  8
0
  6
CONTINUOUS
 10
127.656300
 20
67.890630
 11
127.734400
 21
68.515630
 39
0
 62
0
  0
LINE
  8
0
  6
CONTINUOUS
 10
140.859400
 20
46.406250
 11
142.578100
 21
47.031250
 39
0
 62
0
  0
LINE
  8
0
  6
CONTINUOUS
 10
142.578100
 20
47.031250
 11
144.218800
 21
47.500000
 39
0
 62
0
  0
LINE
  8
0
  6
CONTINUOUS
 10
144.218800
 20
47.500000
 11
145.703100
 21
47.890630
 39
0
 62
0
  0
LINE
  8
0
  6
CONTINUOUS
 10
145.703100
 20
47.890630
 11
147.187500
 21
48.203130
 39
0
 62
0
  0
LINE
  8
0
  6
CONTINUOUS
 10
147.187500
 20
48.203130
 11
148.515600
 21
48.515630
 39
0
 62
0
  0
LINE
  8
0
  6
CONTINUOUS
 10
148.515600
 20
48.515630
 11
149.765600
 21
48.671880
 39
0
 62
0
  0
LINE
  8
0
  6
CONTINUOUS
 10
149.765600
 20
48.671880
 11
150.937500
 21
48.828130
 39
0
 62
0
  0
LINE
  8
0
  6
CONTINUOUS
 10
150.937500
 20
48.828130
 11
152.031300
 21
48.828130
 39
0
 62
0
  0
LINE
  8
0
  6
CONTINUOUS
 10
152.031300
 20
48.828130
 11
152.500000
 21
48.828130
 39
0
 62
0
  0
LINE
  8
0
  6
CONTINUOUS
 10
152.500000
 20
48.828130
 11
153.046900
 21
48.750000
 39
0
 62
0
  0
LINE
  8
0
  6
CONTINUOUS
 10
153.046900
 20
48.750000
 11
153.437500
 21
48.750000
 39
0
 62
0
  0
LINE
  8
0
  6
CONTINUOUS
 10
153.437500
 20
48.750000
 11
153.906300
 21
48.671880
 39
0
 62
0
  0
LINE
  8
0
  6
CONTINUOUS
 10
153.906300
 20
48.671880
 11
154.296900
 21
48.515630
 39
0
 62
0
  0
LINE
  8
0
  6
CONTINUOUS
 10
154.296900
 20
48.515630
 11
154.687500
 21
48.437500
 39
0
 62
0
  0
LINE
  8
0
  6
CONTINUOUS
 10
154.687500
 20
48.437500
 11
155.000000
 21
48.281250
 39
0
 62
0
  0
LINE
  8
0
  6
CONTINUOUS
 10
155.000000
 20
48.281250
 11
155.312500
 21
48.125000
 39
0
 62
0
  0
LINE
  8
0
  6
CONTINUOUS
 10
155.312500
 20
48.125000
 11
155.625000
 21
47.890630
 39
0
 62
0
  0
LINE
  8
0
  6
CONTINUOUS
 10
155.625000
 20
47.890630
 11
155.859400
 21
47.656250
 39
0
 62
0
  0
LINE
  8
0
  6
CONTINUOUS
 10
155.859400
 20
47.656250
 11
156.093800
 21
47.421880
 39
0
 62
0
  0
LINE
  8
0
  6
CONTINUOUS
 10
156.093800
 20
47.421880
 11
156.328100
 21
47.187500
 39
0
 62
0
  0
LINE
  8
0
  6
CONTINUOUS
 10
156.328100
 20
47.187500
 11
156.562500
 21
46.953130
 39
0
 62
0
  0
LINE
  8
0
  6
CONTINUOUS
 10
156.562500
 20
46.953130
 11
156.796900
 21
46.640630
 39
0
 62
0
  0
LINE
  8
0
  6
CONTINUOUS
 10
156.796900
 20
46.640630
 11
156.953100
 21
46.328130
 39
0
 62
0
  0
LINE
  8
0
  6
CONTINUOUS
 10
156.953100
 20
46.328130
 11
157.109400
 21
45.937500
 39
0
 62
0
  0
LINE
  8
0
  6
CONTINUOUS
 10
157.109400
 20
45.937500
 11
157.265600
 21
45.625000
 39
0
 62
0
  0
LINE
  8
0
  6
CONTINUOUS
 10
157.265600
 20
45.625000
 11
157.343800
 21
45.312500
 39
0
 62
0
  0
LINE
  8
0
  6
CONTINUOUS
 10
157.343800
 20
45.312500
 11
157.500000
 21
44.921880
 39
0
 62
0
  0
LINE
  8
0
  6
CONTINUOUS
 10
157.500000
 20
44.921880
 11
157.578100
 21
44.531250
 39
0
 62
0
  0
LINE
  8
0
  6
CONTINUOUS
 10
157.578100
 20
44.531250
 11
157.734400
 21
44.062500
 39
0
 62
0
  0
LINE
  8
0
  6
CONTINUOUS
 10
157.734400
 20
44.062500
 11
157.812500
 21
43.671880
 39
0
 62
0
  0
LINE
  8
0
  6
CONTINUOUS
 10
157.812500
 20
43.671880
 11
157.968800
 21
43.203130
 39
0
 62
0
  0
LINE
  8
0
  6
CONTINUOUS
 10
157.968800
 20
43.203130
 11
158.125000
 21
42.734380
 39
0
 62
0
  0
LINE
  8
0
  6
CONTINUOUS
 10
158.125000
 20
42.734380
 11
158.203100
 21
42.187500
 39
0
 62
0
  0
LINE
  8
0
  6
CONTINUOUS
 10
158.203100
 20
42.187500
 11
158.359400
 21
41.640630
 39
0
 62
0
  0
LINE
  8
0
  6
CONTINUOUS
 10
158.359400
 20
41.640630
 11
158.437500
 21
41.171880
 39
0
 62
0
  0
LINE
  8
0
  6
CONTINUOUS
 10
158.437500
 20
41.171880
 11
158.593800
 21
40.625000
 39
0
 62
0
  0
LINE
  8
0
  6
CONTINUOUS
 10
158.593800
 20
40.625000
 11
158.750000
 21
40.000000
 39
0
 62
0
  0
LINE
  8
0
  6
CONTINUOUS
 10
158.750000
 20
40.000000
 11
158.828100
 21
39.453130
 39
0
 62
0
  0
LINE
  8
0
  6
CONTINUOUS
 10
158.828100
 20
39.453130
 11
158.984400
 21
38.906250
 39
0
 62
0
  0
LINE
  8
0
  6
CONTINUOUS
 10
158.984400
 20
38.906250
 11
159.062500
 21
38.281250
 39
0
 62
0
  0
LINE
  8
0
  6
CONTINUOUS
 10
159.062500
 20
38.281250
 11
159.218800
 21
37.656250
 39
0
 62
0
  0
LINE
  8
0
  6
CONTINUOUS
 10
159.218800
 20
37.656250
 11
159.296900
 21
37.031250
 39
0
 62
0
  0
LINE
  8
0
  6
CONTINUOUS
 10
159.296900
 20
37.031250
 11
159.453100
 21
36.406250
 39
0
 62
0
  0
LINE
  8
0
  6
CONTINUOUS
 10
159.453100
 20
36.406250
 11
159.531300
 21
35.781250
 39
0
 62
0
  0
LINE
  8
0
  6
CONTINUOUS
 10
159.531300
 20
35.781250
 11
159.687500
 21
35.156250
 39
0
 62
0
  0
LINE
  8
0
  6
CONTINUOUS
 10
159.687500
 20
35.156250
 11
159.765600
 21
34.453130
 39
0
 62
0
  0
LINE
  8
0
  6
CONTINUOUS
 10
159.765600
 20
34.453130
 11
159.921900
 21
33.828130
 39
0
 62
0
  0
LINE
  8
0
  6
CONTINUOUS
 10
159.921900
 20
33.828130
 11
160.000000
 21
33.125000
 39
0
 62
0
  0
LINE
  8
0
  6
CONTINUOUS
 10
160.000000
 20
33.125000
 11
160.156300
 21
32.421880
 39
0
 62
0
  0
LINE
  8
0
  6
CONTINUOUS
 10
160.156300
 20
32.421880
 11
160.234400
 21
31.796880
 39
0
 62
0
  0
LINE
  8
0
  6
CONTINUOUS
 10
160.234400
 20
31.796880
 11
160.312500
 21
31.093750
 39
0
 62
0
  0
LINE
  8
0
  6
CONTINUOUS
 10
160.312500
 20
31.093750
 11
160.468800
 21
30.468750
 39
0
 62
0
  0
LINE
  8
0
  6
CONTINUOUS
 10
160.468800
 20
30.468750
 11
160.546900
 21
29.765630
 39
0
 62
0
  0
LINE
  8
0
  6
CONTINUOUS
 10
160.546900
 20
29.765630
 11
160.703100
 21
29.140630
 39
0
 62
0
  0
LINE
  8
0
  6
CONTINUOUS
 10
160.703100
 20
29.140630
 11
160.781300
 21
28.437500
 39
0
 62
0
  0
LINE
  8
0
  6
CONTINUOUS
 10
160.781300
 20
28.437500
 11
160.859400
 21
27.812500
 39
0
 62
0
  0
LINE
  8
0
  6
CONTINUOUS
 10
160.859400
 20
27.812500
 11
161.015600
 21
27.109380
 39
0
 62
0
  0
LINE
  8
0
  6
CONTINUOUS
 10
161.015600
 20
27.109380
 11
161.093800
 21
26.484380
 39
0
 62
0
  0
LINE
  8
0
  6
CONTINUOUS
 10
161.093800
 20
26.484380
 11
161.171900
 21
25.859380
 39
0
 62
0
  0
LINE
  8
0
  6
CONTINUOUS
 10
161.171900
 20
25.859380
 11
161.250000
 21
25.234380
 39
0
 62
0
  0
LINE
  8
0
  6
CONTINUOUS
 10
161.250000
 20
25.234380
 11
161.406300
 21
24.609380
 39
0
 62
0
  0
LINE
  8
0
  6
CONTINUOUS
 10
161.406300
 20
24.609380
 11
161.484400
 21
23.984380
 39
0
 62
0
  0
LINE
  8
0
  6
CONTINUOUS
 10
161.484400
 20
23.984380
 11
161.562500
 21
23.359380
 39
0
 62
0
  0
LINE
  8
0
  6
CONTINUOUS
 10
161.562500
 20
23.359380
 11
161.640600
 21
22.812500
 39
0
 62
0
  0
LINE
  8
0
  6
CONTINUOUS
 10
161.640600
 20
22.812500
 11
161.718800
 21
22.187500
 39
0
 62
0
  0
LINE
  8
0
  6
CONTINUOUS
 10
161.718800
 20
22.187500
 11
161.796900
 21
21.640630
 39
0
 62
0
  0
LINE
  8
0
  6
CONTINUOUS
 10
161.796900
 20
21.640630
 11
161.875000
 21
21.093750
 39
0
 62
0
  0
LINE
  8
0
  6
CONTINUOUS
 10
161.875000
 20
21.093750
 11
161.953100
 21
20.546880
 39
0
 62
0
  0
LINE
  8
0
  6
CONTINUOUS
 10
161.953100
 20
20.546880
 11
162.031300
 21
20.000000
 39
0
 62
0
  0
LINE
  8
0
  6
CONTINUOUS
 10
162.031300
 20
20.000000
 11
162.109400
 21
19.531250
 39
0
 62
0
  0
LINE
  8
0
  6
CONTINUOUS
 10
162.109400
 20
19.531250
 11
162.187500
 21
18.984380
 39
0
 62
0
  0
LINE
  8
0
  6
CONTINUOUS
 10
162.187500
 20
18.984380
 11
162.265600
 21
18.515630
 39
0
 62
0
  0
LINE
  8
0
  6
CONTINUOUS
 10
162.265600
 20
18.515630
 11
162.343800
 21
18.125000
 39
0
 62
0
  0
LINE
  8
0
  6
CONTINUOUS
 10
162.343800
 20
18.125000
 11
162.421900
 21
17.656250
 39
0
 62
0
  0
LINE
  8
0
  6
CONTINUOUS
 10
162.421900
 20
17.656250
 11
162.421900
 21
17.187500
 39
0
 62
0
  0
LINE
  8
0
  6
CONTINUOUS
 10
162.421900
 20
17.187500
 11
162.500000
 21
16.718750
 39
0
 62
0
  0
LINE
  8
0
  6
CONTINUOUS
 10
162.500000
 20
16.718750
 11
162.578100
 21
16.171880
 39
0
 62
0
  0
LINE
  8
0
  6
CONTINUOUS
 10
162.578100
 20
16.171880
 11
162.656300
 21
15.703130
 39
0
 62
0
  0
LINE
  8
0
  6
CONTINUOUS
 10
162.656300
 20
15.703130
 11
162.734400
 21
15.156250
 39
0
 62
0
  0
LINE
  8
0
  6
CONTINUOUS
 10
162.734400
 20
15.156250
 11
162.734400
 21
14.609380
 39
0
 62
0
  0
LINE
  8
0
  6
CONTINUOUS
 10
162.734400
 20
14.609380
 11
162.812500
 21
14.062500
 39
0
 62
0
  0
LINE
  8
0
  6
CONTINUOUS
 10
162.812500
 20
14.062500
 11
162.890600
 21
13.515630
 39
0
 62
0
  0
LINE
  8
0
  6
CONTINUOUS
 10
162.890600
 20
13.515630
 11
162.890600
 21
12.968750
 39
0
 62
0
  0
LINE
  8
0
  6
CONTINUOUS
 10
162.890600
 20
12.968750
 11
162.968800
 21
12.421880
 39
0
 62
0
  0
LINE
  8
0
  6
CONTINUOUS
 10
162.968800
 20
12.421880
 11
163.046900
 21
11.875000
 39
0
 62
0
  0
LINE
  8
0
  6
CONTINUOUS
 10
163.046900
 20
11.875000
 11
163.125000
 21
11.328130
 39
0
 62
0
  0
LINE
  8
0
  6
CONTINUOUS
 10
163.125000
 20
11.328130
 11
163.125000
 21
10.781250
 39
0
 62
0
  0
LINE
  8
0
  6
CONTINUOUS
 10
163.125000
 20
10.781250
 11
163.203100
 21
10.234380
 39
0
 62
0
  0
LINE
  8
0
  6
CONTINUOUS
 10
163.203100
 20
10.234380
 11
164.062500
 21
11.250000
 39
0
 62
0
  0
LINE
  8
0
  6
CONTINUOUS
 10
164.062500
 20
11.250000
 11
164.843800
 21
12.343750
 39
0
 62
0
  0
LINE
  8
0
  6
CONTINUOUS
 10
164.843800
 20
12.343750
 11
165.625000
 21
13.359380
 39
0
 62
0
  0
LINE
  8
0
  6
CONTINUOUS
 10
165.625000
 20
13.359380
 11
166.406300
 21
14.453130
 39
0
 62
0
  0
LINE
  8
0
  6
CONTINUOUS
 10
166.406300
 20
14.453130
 11
167.187500
 21
15.468750
 39
0
 62
0
  0
LINE
  8
0
  6
CONTINUOUS
 10
167.187500
 20
15.468750
 11
167.890600
 21
16.562500
 39
0
 62
0
  0
LINE
  8
0
  6
CONTINUOUS
 10
167.890600
 20
16.562500
 11
168.671900
 21
17.578130
 39
0
 62
0
  0
LINE
  8
0
  6
CONTINUOUS
 10
168.671900
 20
17.578130
 11
169.375000
 21
18.671880
 39
0
 62
0
  0
LINE
  8
0
  6
CONTINUOUS
 10
169.375000
 20
18.671880
 11
170.000000
 21
19.765630
 39
0
 62
0
  0
LINE
  8
0
  6
CONTINUOUS
 10
170.000000
 20
19.765630
 11
170.703100
 21
20.859380
 39
0
 62
0
  0
LINE
  8
0
  6
CONTINUOUS
 10
170.703100
 20
20.859380
 11
171.328100
 21
21.875000
 39
0
 62
0
  0
LINE
  8
0
  6
CONTINUOUS
 10
171.328100
 20
21.875000
 11
171.953100
 21
22.968750
 39
0
 62
0
  0
LINE
  8
0
  6
CONTINUOUS
 10
171.953100
 20
22.968750
 11
172.500000
 21
24.062500
 39
0
 62
0
  0
LINE
  8
0
  6
CONTINUOUS
 10
172.500000
 20
24.062500
 11
173.046900
 21
25.156250
 39
0
 62
0
  0
LINE
  8
0
  6
CONTINUOUS
 10
173.046900
 20
25.156250
 11
173.593800
 21
26.250000
 39
0
 62
0
  0
LINE
  8
0
  6
CONTINUOUS
 10
173.593800
 20
26.250000
 11
174.140600
 21
27.343750
 39
0
 62
0
  0
LINE
  8
0
  6
CONTINUOUS
 10
174.140600
 20
27.343750
 11
174.609400
 21
28.515630
 39
0
 62
0
  0
LINE
  8
0
  6
CONTINUOUS
 10
174.609400
 20
28.515630
 11
175.078100
 21
29.609380
 39
0
 62
0
  0
LINE
  8
0
  6
CONTINUOUS
 10
175.078100
 20
29.609380
 11
175.546900
 21
30.703130
 39
0
 62
0
  0
LINE
  8
0
  6
CONTINUOUS
 10
175.546900
 20
30.703130
 11
175.937500
 21
31.875000
 39
0
 62
0
  0
LINE
  8
0
  6
CONTINUOUS
 10
175.937500
 20
31.875000
 11
176.328100
 21
32.968750
 39
0
 62
0
  0
LINE
  8
0
  6
CONTINUOUS
 10
176.328100
 20
32.968750
 11
176.640600
 21
34.140630
 39
0
 62
0
  0
LINE
  8
0
  6
CONTINUOUS
 10
176.640600
 20
34.140630
 11
176.953100
 21
35.312500
 39
0
 62
0
  0
LINE
  8
0
  6
CONTINUOUS
 10
176.953100
 20
35.312500
 11
177.265600
 21
36.484380
 39
0
 62
0
  0
LINE
  8
0
  6
CONTINUOUS
 10
177.265600
 20
36.484380
 11
177.500000
 21
37.656250
 39
0
 62
0
  0
LINE
  8
0
  6
CONTINUOUS
 10
177.500000
 20
37.656250
 11
177.734400
 21
38.828130
 39
0
 62
0
  0
LINE
  8
0
  6
CONTINUOUS
 10
177.734400
 20
38.828130
 11
177.968800
 21
40.000000
 39
0
 62
0
  0
LINE
  8
0
  6
CONTINUOUS
 10
177.968800
 20
40.000000
 11
178.125000
 21
41.171880
 39
0
 62
0
  0
LINE
  8
0
  6
CONTINUOUS
 10
178.125000
 20
41.171880
 11
178.203100
 21
42.343750
 39
0
 62
0
  0
LINE
  8
0
  6
CONTINUOUS
 10
178.203100
 20
42.343750
 11
178.281300
 21
43.593750
 39
0
 62
0
  0
LINE
  8
0
  6
CONTINUOUS
 10
178.281300
 20
43.593750
 11
178.359400
 21
44.765630
 39
0
 62
0
  0
LINE
  8
0
  6
CONTINUOUS
 10
178.359400
 20
44.765630
 11
178.359400
 21
46.015630
 39
0
 62
0
  0
LINE
  8
0
  6
CONTINUOUS
 10
178.359400
 20
46.015630
 11
179.609400
 21
46.328130
 39
0
 62
0
  0
LINE
  8
0
  6
CONTINUOUS
 10
179.609400
 20
46.328130
 11
180.859400
 21
46.640630
 39
0
 62
0
  0
LINE
  8
0
  6
CONTINUOUS
 10
180.859400
 20
46.640630
 11
182.109400
 21
47.031250
 39
0
 62
0
  0
LINE
  8
0
  6
CONTINUOUS
 10
182.109400
 20
47.031250
 11
183.281300
 21
47.343750
 39
0
 62
0
  0
LINE
  8
0
  6
CONTINUOUS
 10
183.281300
 20
47.343750
 11
184.531300
 21
47.734380
 39
0
 62
0
  0
LINE
  8
0
  6
CONTINUOUS
 10
184.531300
 20
47.734380
 11
185.703100
 21
48.046880
 39
0
 62
0
  0
LINE
  8
0
  6
CONTINUOUS
 10
185.703100
 20
48.046880
 11
186.953100
 21
48.437500
 39
0
 62
0
  0
LINE
  8
0
  6
CONTINUOUS
 10
186.953100
 20
48.437500
 11
188.203100
 21
48.828130
 39
0
 62
0
  0
LINE
  8
0
  6
CONTINUOUS
 10
188.203100
 20
48.828130
 11
188.750000
 21
48.437500
 39
0
 62
0
  0
LINE
  8
0
  6
CONTINUOUS
 10
188.750000
 20
48.437500
 11
188.750000
 21
47.578130
 39
0
 62
0
  0
LINE
  8
0
  6
CONTINUOUS
 10
188.750000
 20
47.578130
 11
188.671900
 21
46.718750
 39
0
 62
0
  0
LINE
  8
0
  6
CONTINUOUS
 10
188.671900
 20
46.718750
 11
188.515600
 21
45.781250
 39
0
 62
0
  0
LINE
  8
0
  6
CONTINUOUS
 10
188.515600
 20
45.781250
 11
188.359400
 21
44.921880
 39
0
 62
0
  0
LINE
  8
0
  6
CONTINUOUS
 10
188.359400
 20
44.921880
 11
188.125000
 21
43.906250
 39
0
 62
0
  0
LINE
  8
0
  6
CONTINUOUS
 10
188.125000
 20
43.906250
 11
187.890600
 21
42.968750
 39
0
 62
0
  0
LINE
  8
0
  6
CONTINUOUS
 10
187.890600
 20
42.968750
 11
187.578100
 21
41.953130
 39
0
 62
0
  0
LINE
  8
0
  6
CONTINUOUS
 10
187.578100
 20
41.953130
 11
187.265600
 21
40.937500
 39
0
 62
0
  0
LINE
  8
0
  6
CONTINUOUS
 10
187.265600
 20
40.937500
 11
186.875000
 21
39.843750
 39
0
 62
0
  0
LINE
  8
0
  6
CONTINUOUS
 10
186.875000
 20
39.843750
 11
186.484400
 21
38.750000
 39
0
 62
0
  0
LINE
  8
0
  6
CONTINUOUS
 10
186.484400
 20
38.750000
 11
186.015600
 21
37.656250
 39
0
 62
0
  0
LINE
  8
0
  6
CONTINUOUS
 10
186.015600
 20
37.656250
 11
185.546900
 21
36.562500
 39
0
 62
0
  0
LINE
  8
0
  6
CONTINUOUS
 10
185.546900
 20
36.562500
 11
185.078100
 21
35.468750
 39
0
 62
0
  0
LINE
  8
0
  6
CONTINUOUS
 10
185.078100
 20
35.468750
 11
184.531300
 21
34.375000
 39
0
 62
0
  0
LINE
  8
0
  6
CONTINUOUS
 10
184.531300
 20
34.375000
 11
183.984400
 21
33.203130
 39
0
 62
0
  0
LINE
  8
0
  6
CONTINUOUS
 10
183.984400
 20
33.203130
 11
183.359400
 21
32.031250
 39
0
 62
0
  0
LINE
  8
0
  6
CONTINUOUS
 10
183.359400
 20
32.031250
 11
182.734400
 21
30.859380
 39
0
 62
0
  0
LINE
  8
0
  6
CONTINUOUS
 10
182.734400
 20
30.859380
 11
182.109400
 21
29.765630
 39
0
 62
0
  0
LINE
  8
0
  6
CONTINUOUS
 10
182.109400
 20
29.765630
 11
181.484400
 21
28.593750
 39
0
 62
0
  0
LINE
  8
0
  6
CONTINUOUS
 10
181.484400
 20
28.593750
 11
180.781300
 21
27.343750
 39
0
 62
0
  0
LINE
  8
0
  6
CONTINUOUS
 10
180.781300
 20
27.343750
 11
180.078100
 21
26.171880
 39
0
 62
0
  0
LINE
  8
0
  6
CONTINUOUS
 10
180.078100
 20
26.171880
 11
179.375000
 21
25.000000
 39
0
 62
0
  0
LINE
  8
0
  6
CONTINUOUS
 10
179.375000
 20
25.000000
 11
178.671900
 21
23.828130
 39
0
 62
0
  0
LINE
  8
0
  6
CONTINUOUS
 10
178.671900
 20
23.828130
 11
177.890600
 21
22.656250
 39
0
 62
0
  0
LINE
  8
0
  6
CONTINUOUS
 10
177.890600
 20
22.656250
 11
177.109400
 21
21.406250
 39
0
 62
0
  0
LINE
  8
0
  6
CONTINUOUS
 10
177.109400
 20
21.406250
 11
176.328100
 21
20.234380
 39
0
 62
0
  0
LINE
  8
0
  6
CONTINUOUS
 10
176.328100
 20
20.234380
 11
175.625000
 21
19.062500
 39
0
 62
0
  0
LINE
  8
0
  6
CONTINUOUS
 10
175.625000
 20
19.062500
 11
174.843800
 21
17.968750
 39
0
 62
0
  0
LINE
  8
0
  6
CONTINUOUS
 10
174.843800
 20
17.968750
 11
174.062500
 21
16.796880
 39
0
 62
0
  0
LINE
  8
0
  6
CONTINUOUS
 10
174.062500
 20
16.796880
 11
173.203100
 21
15.703130
 39
0
 62
0
  0
LINE
  8
0
  6
CONTINUOUS
 10
173.203100
 20
15.703130
 11
172.421900
 21
14.609380
 39
0
 62
0
  0
LINE
  8
0
  6
CONTINUOUS
 10
172.421900
 20
14.609380
 11
171.640600
 21
13.515630
 39
0
 62
0
  0
LINE
  8
0
  6
CONTINUOUS
 10
171.640600
 20
13.515630
 11
170.859400
 21
12.421880
 39
0
 62
0
  0
LINE
  8
0
  6
CONTINUOUS
 10
170.859400
 20
12.421880
 11
170.078100
 21
11.328130
 39
0
 62
0
  0
LINE
  8
0
  6
CONTINUOUS
 10
170.078100
 20
11.328130
 11
169.296900
 21
10.312500
 39
0
 62
0
  0
LINE
  8
0
  6
CONTINUOUS
 10
169.296900
 20
10.312500
 11
168.515600
 21
9.296875
 39
0
 62
0
  0
LINE
  8
0
  6
CONTINUOUS
 10
168.515600
 20
9.296875
 11
167.734400
 21
8.281250
 39
0
 62
0
  0
LINE
  8
0
  6
CONTINUOUS
 10
167.734400
 20
8.281250
 11
166.953100
 21
7.343750
 39
0
 62
0
  0
LINE
  8
0
  6
CONTINUOUS
 10
166.953100
 20
7.343750
 11
166.250000
 21
6.406250
 39
0
 62
0
  0
LINE
  8
0
  6
CONTINUOUS
 10
166.250000
 20
6.406250
 11
165.468800
 21
5.468750
 39
0
 62
0
  0
LINE
  8
0
  6
CONTINUOUS
 10
165.468800
 20
5.468750
 11
164.687500
 21
4.531250
 39
0
 62
0
  0
LINE
  8
0
  6
CONTINUOUS
 10
164.687500
 20
4.531250
 11
163.984400
 21
3.671875
 39
0
 62
0
  0
LINE
  8
0
  6
CONTINUOUS
 10
163.984400
 20
3.671875
 11
163.281300
 21
2.890625
 39
0
 62
0
  0
LINE
  8
0
  6
CONTINUOUS
 10
163.281300
 20
2.890625
 11
162.578100
 21
2.109375
 39
0
 62
0
  0
LINE
  8
0
  6
CONTINUOUS
 10
162.578100
 20
2.109375
 11
161.953100
 21
1.328125
 39
0
 62
0
  0
LINE
  8
0
  6
CONTINUOUS
 10
161.953100
 20
1.328125
 11
161.328100
 21
0.625000
 39
0
 62
0
  0
LINE
  8
0
  6
CONTINUOUS
 10
161.328100
 20
0.625000
 11
160.703100
 21
-0.078125
 39
0
 62
0
  0
LINE
  8
0
  6
CONTINUOUS
 10
160.703100
 20
-0.078125
 11
160.078100
 21
-0.703125
 39
0
 62
0
  0
LINE
  8
0
  6
CONTINUOUS
 10
160.078100
 20
-0.703125
 11
155.937500
 21
-1.093750
 39
0
 62
0
  0
LINE
  8
0
  6
CONTINUOUS
 10
155.937500
 20
-1.093750
 11
155.703100
 21
0.546875
 39
0
 62
0
  0
LINE
  8
0
  6
CONTINUOUS
 10
155.703100
 20
0.546875
 11
155.546900
 21
2.187500
 39
0
 62
0
  0
LINE
  8
0
  6
CONTINUOUS
 10
155.546900
 20
2.187500
 11
155.312500
 21
3.750000
 39
0
 62
0
  0
LINE
  8
0
  6
CONTINUOUS
 10
155.312500
 20
3.750000
 11
155.156300
 21
5.390625
 39
0
 62
0
  0
LINE
  8
0
  6
CONTINUOUS
 10
155.156300
 20
5.390625
 11
154.921900
 21
6.953125
 39
0
 62
0
  0
LINE
  8
0
  6
CONTINUOUS
 10
154.921900
 20
6.953125
 11
154.765600
 21
8.437500
 39
0
 62
0
  0
LINE
  8
0
  6
CONTINUOUS
 10
154.765600
 20
8.437500
 11
154.531300
 21
10.000000
 39
0
 62
0
  0
LINE
  8
0
  6
CONTINUOUS
 10
154.531300
 20
10.000000
 11
154.296900
 21
11.562500
 39
0
 62
0
  0
LINE
  8
0
  6
CONTINUOUS
 10
154.296900
 20
11.562500
 11
154.140600
 21
13.046880
 39
0
 62
0
  0
LINE
  8
0
  6
CONTINUOUS
 10
154.140600
 20
13.046880
 11
153.906300
 21
14.531250
 39
0
 62
0
  0
LINE
  8
0
  6
CONTINUOUS
 10
153.906300
 20
14.531250
 11
153.671900
 21
16.093750
 39
0
 62
0
  0
LINE
  8
0
  6
CONTINUOUS
 10
153.671900
 20
16.093750
 11
153.437500
 21
17.656250
 39
0
 62
0
  0
LINE
  8
0
  6
CONTINUOUS
 10
153.437500
 20
17.656250
 11
153.203100
 21
19.218750
 39
0
 62
0
  0
LINE
  8
0
  6
CONTINUOUS
 10
153.203100
 20
19.218750
 11
152.890600
 21
20.781250
 39
0
 62
0
  0
LINE
  8
0
  6
CONTINUOUS
 10
152.890600
 20
20.781250
 11
152.656300
 21
22.343750
 39
0
 62
0
  0
LINE
  8
0
  6
CONTINUOUS
 10
152.656300
 20
22.343750
 11
152.421900
 21
23.984380
 39
0
 62
0
  0
LINE
  8
0
  6
CONTINUOUS
 10
152.421900
 20
23.984380
 11
152.343800
 21
24.453130
 39
0
 62
0
  0
LINE
  8
0
  6
CONTINUOUS
 10
152.343800
 20
24.453130
 11
152.265600
 21
25.000000
 39
0
 62
0
  0
LINE
  8
0
  6
CONTINUOUS
 10
152.265600
 20
25.000000
 11
152.109400
 21
25.546880
 39
0
 62
0
  0
LINE
  8
0
  6
CONTINUOUS
 10
152.109400
 20
25.546880
 11
152.031300
 21
26.093750
 39
0
 62
0
  0
LINE
  8
0
  6
CONTINUOUS
 10
152.031300
 20
26.093750
 11
151.953100
 21
26.640630
 39
0
 62
0
  0
LINE
  8
0
  6
CONTINUOUS
 10
151.953100
 20
26.640630
 11
151.875000
 21
27.265630
 39
0
 62
0
  0
LINE
  8
0
  6
CONTINUOUS
 10
151.875000
 20
27.265630
 11
151.718800
 21
27.890630
 39
0
 62
0
  0
LINE
  8
0
  6
CONTINUOUS
 10
151.718800
 20
27.890630
 11
151.640600
 21
28.593750
 39
0
 62
0
  0
LINE
  8
0
  6
CONTINUOUS
 10
151.640600
 20
28.593750
 11
151.562500
 21
29.218750
 39
0
 62
0
  0
LINE
  8
0
  6
CONTINUOUS
 10
151.562500
 20
29.218750
 11
151.406300
 21
29.921880
 39
0
 62
0
  0
LINE
  8
0
  6
CONTINUOUS
 10
151.406300
 20
29.921880
 11
151.250000
 21
30.546880
 39
0
 62
0
  0
LINE
  8
0
  6
CONTINUOUS
 10
151.250000
 20
30.546880
 11
151.171900
 21
31.250000
 39
0
 62
0
  0
LINE
  8
0
  6
CONTINUOUS
 10
151.171900
 20
31.250000
 11
151.015600
 21
31.875000
 39
0
 62
0
  0
LINE
  8
0
  6
CONTINUOUS
 10
151.015600
 20
31.875000
 11
150.937500
 21
32.578130
 39
0
 62
0
  0
LINE
  8
0
  6
CONTINUOUS
 10
150.937500
 20
32.578130
 11
150.781300
 21
33.203130
 39
0
 62
0
  0
LINE
  8
0
  6
CONTINUOUS
 10
150.781300
 20
33.203130
 11
150.625000
 21
33.906250
 39
0
 62
0
  0
LINE
  8
0
  6
CONTINUOUS
 10
150.625000
 20
33.906250
 11
150.468800
 21
34.531250
 39
0
 62
0
  0
LINE
  8
0
  6
CONTINUOUS
 10
150.468800
 20
34.531250
 11
150.312500
 21
35.156250
 39
0
 62
0
  0
LINE
  8
0
  6
CONTINUOUS
 10
150.312500
 20
35.156250
 11
150.156300
 21
35.781250
 39
0
 62
0
  0
LINE
  8
0
  6
CONTINUOUS
 10
150.156300
 20
35.781250
 11
150.000000
 21
36.406250
 39
0
 62
0
  0
LINE
  8
0
  6
CONTINUOUS
 10
150.000000
 20
36.406250
 11
149.843800
 21
37.031250
 39
0
 62
0
  0
LINE
  8
0
  6
CONTINUOUS
 10
149.843800
 20
37.031250
 11
149.687500
 21
37.656250
 39
0
 62
0
  0
LINE
  8
0
  6
CONTINUOUS
 10
149.687500
 20
37.656250
 11
149.531300
 21
38.281250
 39
0
 62
0
  0
LINE
  8
0
  6
CONTINUOUS
 10
149.531300
 20
38.281250
 11
149.375000
 21
38.828130
 39
0
 62
0
  0
LINE
  8
0
  6
CONTINUOUS
 10
149.375000
 20
38.828130
 11
149.140600
 21
39.453130
 39
0
 62
0
  0
LINE
  8
0
  6
CONTINUOUS
 10
149.140600
 20
39.453130
 11
148.984400
 21
39.921880
 39
0
 62
0
  0
LINE
  8
0
  6
CONTINUOUS
 10
148.984400
 20
39.921880
 11
148.828100
 21
40.468750
 39
0
 62
0
  0
LINE
  8
0
  6
CONTINUOUS
 10
148.828100
 20
40.468750
 11
148.593800
 21
40.859380
 39
0
 62
0
  0
LINE
  8
0
  6
CONTINUOUS
 10
148.593800
 20
40.859380
 11
148.359400
 21
41.328130
 39
0
 62
0
  0
LINE
  8
0
  6
CONTINUOUS
 10
148.359400
 20
41.328130
 11
148.203100
 21
41.640630
 39
0
 62
0
  0
LINE
  8
0
  6
CONTINUOUS
 10
148.203100
 20
41.640630
 11
147.968800
 21
41.953130
 39
0
 62
0
  0
LINE
  8
0
  6
CONTINUOUS
 10
147.968800
 20
41.953130
 11
147.734400
 21
42.265630
 39
0
 62
0
  0
LINE
  8
0
  6
CONTINUOUS
 10
147.734400
 20
42.265630
 11
147.578100
 21
42.421880
 39
0
 62
0
  0
LINE
  8
0
  6
CONTINUOUS
 10
147.578100
 20
42.421880
 11
147.500000
 21
42.578130
 39
0
 62
0
  0
LINE
  8
0
  6
CONTINUOUS
 10
147.500000
 20
42.578130
 11
147.343800
 21
42.734380
 39
0
 62
0
  0
LINE
  8
0
  6
CONTINUOUS
 10
147.343800
 20
42.734380
 11
147.187500
 21
42.812500
 39
0
 62
0
  0
LINE
  8
0
  6
CONTINUOUS
 10
147.187500
 20
42.812500
 11
147.031300
 21
42.968750
 39
0
 62
0
  0
LINE
  8
0
  6
CONTINUOUS
 10
147.031300
 20
42.968750
 11
146.875000
 21
43.046880
 39
0
 62
0
  0
LINE
  8
0
  6
CONTINUOUS
 10
146.875000
 20
43.046880
 11
146.718800
 21
43.203130
 39
0
 62
0
  0
LINE
  8
0
  6
CONTINUOUS
 10
146.718800
 20
43.203130
 11
146.640600
 21
43.281250
 39
0
 62
0
  0
LINE
  8
0
  6
CONTINUOUS
 10
146.640600
 20
43.281250
 11
146.484400
 21
43.437500
 39
0
 62
0
  0
LINE
  8
0
  6
CONTINUOUS
 10
146.484400
 20
43.437500
 11
146.328100
 21
43.515630
 39
0
 62
0
  0
LINE
  8
0
  6
CONTINUOUS
 10
146.328100
 20
43.515630
 11
146.171900
 21
43.593750
 39
0
 62
0
  0
LINE
  8
0
  6
CONTINUOUS
 10
146.171900
 20
43.593750
 11
146.015600
 21
43.671880
 39
0
 62
0
  0
LINE
  8
0
  6
CONTINUOUS
 10
146.015600
 20
43.671880
 11
145.781300
 21
43.750000
 39
0
 62
0
  0
LINE
  8
0
  6
CONTINUOUS
 10
145.781300
 20
43.750000
 11
145.625000
 21
43.828130
 39
0
 62
0
  0
LINE
  8
0
  6
CONTINUOUS
 10
145.625000
 20
43.828130
 11
145.468800
 21
43.906250
 39
0
 62
0
  0
LINE
  8
0
  6
CONTINUOUS
 10
145.468800
 20
43.906250
 11
145.234400
 21
43.906250
 39
0
 62
0
  0
LINE
  8
0
  6
CONTINUOUS
 10
145.234400
 20
43.906250
 11
145.000000
 21
43.984380
 39
0
 62
0
  0
LINE
  8
0
  6
CONTINUOUS
 10
145.000000
 20
43.984380
 11
144.843800
 21
44.062500
 39
0
 62
0
  0
LINE
  8
0
  6
CONTINUOUS
 10
144.843800
 20
44.062500
 11
144.609400
 21
44.062500
 39
0
 62
0
  0
LINE
  8
0
  6
CONTINUOUS
 10
144.609400
 20
44.062500
 11
144.375000
 21
44.140630
 39
0
 62
0
  0
LINE
  8
0
  6
CONTINUOUS
 10
144.375000
 20
44.140630
 11
144.140600
 21
44.140630
 39
0
 62
0
  0
LINE
  8
0
  6
CONTINUOUS
 10
144.140600
 20
44.140630
 11
143.828100
 21
44.218750
 39
0
 62
0
  0
LINE
  8
0
  6
CONTINUOUS
 10
143.828100
 20
44.218750
 11
143.593800
 21
44.218750
 39
0
 62
0
  0
LINE
  8
0
  6
CONTINUOUS
 10
143.593800
 20
44.218750
 11
143.359400
 21
44.296880
 39
0
 62
0
  0
LINE
  8
0
  6
CONTINUOUS
 10
143.359400
 20
44.296880
 11
143.046900
 21
44.296880
 39
0
 62
0
  0
LINE
  8
0
  6
CONTINUOUS
 10
143.046900
 20
44.296880
 11
142.734400
 21
44.296880
 39
0
 62
0
  0
LINE
  8
0
  6
CONTINUOUS
 10
142.734400
 20
44.296880
 11
142.421900
 21
44.375000
 39
0
 62
0
  0
LINE
  8
0
  6
CONTINUOUS
 10
142.421900
 20
44.375000
 11
142.109400
 21
44.375000
 39
0
 62
0
  0
LINE
  8
0
  6
CONTINUOUS
 10
142.109400
 20
44.375000
 11
141.796900
 21
44.375000
 39
0
 62
0
  0
LINE
  8
0
  6
CONTINUOUS
 10
141.796900
 20
44.375000
 11
141.484400
 21
44.453130
 39
0
 62
0
  0
LINE
  8
0
  6
CONTINUOUS
 10
141.484400
 20
44.453130
 11
141.093800
 21
44.453130
 39
0
 62
0
  0
LINE
  8
0
  6
CONTINUOUS
 10
141.093800
 20
44.453130
 11
140.703100
 21
44.453130
 39
0
 62
0
  0
LINE
  8
0
  6
CONTINUOUS
 10
140.703100
 20
44.453130
 11
140.859400
 21
46.406250
 39
0
 62
0
  0
LINE
  8
0
  6
CONTINUOUS
 10
196.562500
 20
44.453130
 11
195.390600
 21
44.453130
 39
0
 62
0
  0
LINE
  8
0
  6
CONTINUOUS
 10
195.390600
 20
44.453130
 11
195.546900
 21
46.406250
 39
0
 62
0
  0
LINE
  8
0
  6
CONTINUOUS
 10
195.546900
 20
46.406250
 11
197.265600
 21
47.031250
 39
0
 62
0
  0
LINE
  8
0
  6
CONTINUOUS
 10
197.265600
 20
47.031250
 11
198.906300
 21
47.500000
 39
0
 62
0
  0
LINE
  8
0
  6
CONTINUOUS
 10
198.906300
 20
47.500000
 11
200.468800
 21
47.890630
 39
0
 62
0
  0
LINE
  8
0
  6
CONTINUOUS
 10
200.468800
 20
47.890630
 11
201.875000
 21
48.203130
 39
0
 62
0
  0
LINE
  8
0
  6
CONTINUOUS
 10
201.875000
 20
48.203130
 11
203.203100
 21
48.515630
 39
0
 62
0
  0
LINE
  8
0
  6
CONTINUOUS
 10
203.203100
 20
48.515630
 11
204.453100
 21
48.671880
 39
0
 62
0
  0
LINE
  8
0
  6
CONTINUOUS
 10
204.453100
 20
48.671880
 11
205.625000
 21
48.828130
 39
0
 62
0
  0
LINE
  8
0
  6
CONTINUOUS
 10
205.625000
 20
48.828130
 11
206.640600
 21
48.828130
 39
0
 62
0
  0
LINE
  8
0
  6
CONTINUOUS
 10
206.640600
 20
48.828130
 11
207.343800
 21
48.828130
 39
0
 62
0
  0
LINE
  8
0
  6
CONTINUOUS
 10
207.343800
 20
48.828130
 11
207.890600
 21
48.750000
 39
0
 62
0
  0
LINE
  8
0
  6
CONTINUOUS
 10
207.890600
 20
48.750000
 11
208.515600
 21
48.671880
 39
0
 62
0
  0
LINE
  8
0
  6
CONTINUOUS
 10
208.515600
 20
48.671880
 11
209.062500
 21
48.515630
 39
0
 62
0
  0
LINE
  8
0
  6
CONTINUOUS
 10
209.062500
 20
48.515630
 11
209.531300
 21
48.359380
 39
0
 62
0
  0
LINE
  8
0
  6
CONTINUOUS
 10
209.531300
 20
48.359380
 11
210.000000
 21
48.125000
 39
0
 62
0
  0
LINE
  8
0
  6
CONTINUOUS
 10
210.000000
 20
48.125000
 11
210.390600
 21
47.890630
 39
0
 62
0
  0
LINE
  8
0
  6
CONTINUOUS
 10
210.390600
 20
47.890630
 11
210.781300
 21
47.578130
 39
0
 62
0
  0
LINE
  8
0
  6
CONTINUOUS
 10
210.781300
 20
47.578130
 11
211.171900
 21
47.265630
 39
0
 62
0
  0
LINE
  8
0
  6
CONTINUOUS
 10
211.171900
 20
47.265630
 11
211.484400
 21
46.875000
 39
0
 62
0
  0
LINE
  8
0
  6
CONTINUOUS
 10
211.484400
 20
46.875000
 11
211.718800
 21
46.484380
 39
0
 62
0
  0
LINE
  8
0
  6
CONTINUOUS
 10
211.718800
 20
46.484380
 11
211.953100
 21
46.015630
 39
0
 62
0
  0
LINE
  8
0
  6
CONTINUOUS
 10
211.953100
 20
46.015630
 11
212.109400
 21
45.546880
 39
0
 62
0
  0
LINE
  8
0
  6
CONTINUOUS
 10
212.109400
 20
45.546880
 11
212.187500
 21
45.000000
 39
0
 62
0
  0
LINE
  8
0
  6
CONTINUOUS
 10
212.187500
 20
45.000000
 11
212.265600
 21
44.375000
 39
0
 62
0
  0
LINE
  8
0
  6
CONTINUOUS
 10
212.265600
 20
44.375000
 11
212.265600
 21
43.750000
 39
0
 62
0
  0
LINE
  8
0
  6
CONTINUOUS
 10
212.265600
 20
43.750000
 11
212.265600
 21
43.515630
 39
0
 62
0
  0
LINE
  8
0
  6
CONTINUOUS
 10
212.265600
 20
43.515630
 11
212.265600
 21
43.203130
 39
0
 62
0
  0
LINE
  8
0
  6
CONTINUOUS
 10
212.265600
 20
43.203130
 11
212.265600
 21
42.968750
 39
0
 62
0
  0
LINE
  8
0
  6
CONTINUOUS
 10
212.265600
 20
42.968750
 11
212.265600
 21
42.656250
 39
0
 62
0
  0
LINE
  8
0
  6
CONTINUOUS
 10
212.265600
 20
42.656250
 11
212.187500
 21
42.421880
 39
0
 62
0
  0
LINE
  8
0
  6
CONTINUOUS
 10
212.187500
 20
42.421880
 11
212.187500
 21
42.187500
 39
0
 62
0
  0
LINE
  8
0
  6
CONTINUOUS
 10
212.187500
 20
42.187500
 11
212.109400
 21
41.875000
 39
0
 62
0
  0
LINE
  8
0
  6
CONTINUOUS
 10
212.109400
 20
41.875000
 11
212.109400
 21
41.640630
 39
0
 62
0
  0
LINE
  8
0
  6
CONTINUOUS
 10
212.109400
 20
41.640630
 11
205.234400
 21
8.515625
 39
0
 62
0
  0
LINE
  8
0
  6
CONTINUOUS
 10
205.234400
 20
8.515625
 11
205.234400
 21
8.281250
 39
0
 62
0
  0
LINE
  8
0
  6
CONTINUOUS
 10
205.234400
 20
8.281250
 11
205.156300
 21
8.046875
 39
0
 62
0
  0
LINE
  8
0
  6
CONTINUOUS
 10
205.156300
 20
8.046875
 11
205.078100
 21
7.812500
 39
0
 62
0
  0
LINE
  8
0
  6
CONTINUOUS
 10
205.078100
 20
7.812500
 11
205.078100
 21
7.578125
 39
0
 62
0
  0
LINE
  8
0
  6
CONTINUOUS
 10
205.078100
 20
7.578125
 11
205.000000
 21
7.343750
 39
0
 62
0
  0
LINE
  8
0
  6
CONTINUOUS
 10
205.000000
 20
7.343750
 11
205.000000
 21
7.109375
 39
0
 62
0
  0
LINE
  8
0
  6
CONTINUOUS
 10
205.000000
 20
7.109375
 11
205.000000
 21
6.875000
 39
0
 62
0
  0
LINE
  8
0
  6
CONTINUOUS
 10
205.000000
 20
6.875000
 11
205.000000
 21
6.640625
 39
0
 62
0
  0
LINE
  8
0
  6
CONTINUOUS
 10
205.000000
 20
6.640625
 11
205.000000
 21
6.171875
 39
0
 62
0
  0
LINE
  8
0
  6
CONTINUOUS
 10
205.000000
 20
6.171875
 11
205.078100
 21
5.703125
 39
0
 62
0
  0
LINE
  8
0
  6
CONTINUOUS
 10
205.078100
 20
5.703125
 11
205.234400
 21
5.312500
 39
0
 62
0
  0
LINE
  8
0
  6
CONTINUOUS
 10
205.234400
 20
5.312500
 11
205.390600
 21
4.921875
 39
0
 62
0
  0
LINE
  8
0
  6
CONTINUOUS
 10
205.390600
 20
4.921875
 11
205.703100
 21
4.609375
 39
0
 62
0
  0
LINE
  8
0
  6
CONTINUOUS
 10
205.703100
 20
4.609375
 11
205.937500
 21
4.375000
 39
0
 62
0
  0
LINE
  8
0
  6
CONTINUOUS
 10
205.937500
 20
4.375000
 11
206.328100
 21
4.140625
 39
0
 62
0
  0
LINE
  8
0
  6
CONTINUOUS
 10
206.328100
 20
4.140625
 11
206.718800
 21
3.906250
 39
0
 62
0
  0
LINE
  8
0
  6
CONTINUOUS
 10
206.718800
 20
3.906250
 11
207.187500
 21
3.750000
 39
0
 62
0
  0
LINE
  8
0
  6
CONTINUOUS
 10
207.187500
 20
3.750000
 11
207.734400
 21
3.671875
 39
0
 62
0
  0
LINE
  8
0
  6
CONTINUOUS
 10
207.734400
 20
3.671875
 11
208.359400
 21
3.515625
 39
0
 62
0
  0
LINE
  8
0
  6
CONTINUOUS
 10
208.359400
 20
3.515625
 11
209.062500
 21
3.437500
 39
0
 62
0
  0
LINE
  8
0
  6
CONTINUOUS
 10
209.062500
 20
3.437500
 11
209.765600
 21
3.359375
 39
0
 62
0
  0
LINE
  8
0
  6
CONTINUOUS
 10
209.765600
 20
3.359375
 11
210.625000
 21
3.359375
 39
0
 62
0
  0
LINE
  8
0
  6
CONTINUOUS
 10
210.625000
 20
3.359375
 11
211.562500
 21
3.281250
 39
0
 62
0
  0
LINE
  8
0
  6
CONTINUOUS
 10
211.562500
 20
3.281250
 11
212.578100
 21
3.281250
 39
0
 62
0
  0
LINE
  8
0
  6
CONTINUOUS
 10
212.578100
 20
3.281250
 11
212.421900
 21
1.250000
 39
0
 62
0
  0
LINE
  8
0
  6
CONTINUOUS
 10
212.421900
 20
1.250000
 11
210.781300
 21
0.703125
 39
0
 62
0
  0
LINE
  8
0
  6
CONTINUOUS
 10
210.781300
 20
0.703125
 11
209.218800
 21
0.312500
 39
0
 62
0
  0
LINE
  8
0
  6
CONTINUOUS
 10
209.218800
 20
0.312500
 11
207.734400
 21
-0.078125
 39
0
 62
0
  0
LINE
  8
0
  6
CONTINUOUS
 10
207.734400
 20
-0.078125
 11
206.406300
 21
-0.390625
 39
0
 62
0
  0
LINE
  8
0
  6
CONTINUOUS
 10
206.406300
 20
-0.390625
 11
205.078100
 21
-0.625000
 39
0
 62
0
  0
LINE
  8
0
  6
CONTINUOUS
 10
205.078100
 20
-0.625000
 11
203.906300
 21
-0.781250
 39
0
 62
0
  0
LINE
  8
0
  6
CONTINUOUS
 10
203.906300
 20
-0.781250
 11
202.890600
 21
-0.937500
 39
0
 62
0
  0
LINE
  8
0
  6
CONTINUOUS
 10
202.890600
 20
-0.937500
 11
201.875000
 21
-0.937500
 39
0
 62
0
  0
LINE
  8
0
  6
CONTINUOUS
 10
201.875000
 20
-0.937500
 11
201.171900
 21
-0.937500
 39
0
 62
0
  0
LINE
  8
0
  6
CONTINUOUS
 10
201.171900
 20
-0.937500
 11
200.468800
 21
-0.859375
 39
0
 62
0
  0
LINE
  8
0
  6
CONTINUOUS
 10
200.468800
 20
-0.859375
 11
199.843800
 21
-0.703125
 39
0
 62
0
  0
LINE
  8
0
  6
CONTINUOUS
 10
199.843800
 20
-0.703125
 11
199.296900
 21
-0.546875
 39
0
 62
0
  0
LINE
  8
0
  6
CONTINUOUS
 10
199.296900
 20
-0.546875
 11
198.750000
 21
-0.312500
 39
0
 62
0
  0
LINE
  8
0
  6
CONTINUOUS
 10
198.750000
 20
-0.312500
 11
198.203100
 21
-0.078125
 39
0
 62
0
  0
LINE
  8
0
  6
CONTINUOUS
 10
198.203100
 20
-0.078125
 11
197.734400
 21
0.234375
 39
0
 62
0
  0
LINE
  8
0
  6
CONTINUOUS
 10
197.734400
 20
0.234375
 11
197.343800
 21
0.546875
 39
0
 62
0
  0
LINE
  8
0
  6
CONTINUOUS
 10
197.343800
 20
0.546875
 11
196.953100
 21
0.937500
 39
0
 62
0
  0
LINE
  8
0
  6
CONTINUOUS
 10
196.953100
 20
0.937500
 11
196.562500
 21
1.406250
 39
0
 62
0
  0
LINE
  8
0
  6
CONTINUOUS
 10
196.562500
 20
1.406250
 11
196.328100
 21
1.953125
 39
0
 62
0
  0
LINE
  8
0
  6
CONTINUOUS
 10
196.328100
 20
1.953125
 11
196.093800
 21
2.500000
 39
0
 62
0
  0
LINE
  8
0
  6
CONTINUOUS
 10
196.093800
 20
2.500000
 11
195.937500
 21
3.046875
 39
0
 62
0
  0
LINE
  8
0
  6
CONTINUOUS
 10
195.937500
 20
3.046875
 11
195.781300
 21
3.750000
 39
0
 62
0
  0
LINE
  8
0
  6
CONTINUOUS
 10
195.781300
 20
3.750000
 11
195.703100
 21
4.453125
 39
0
 62
0
  0
LINE
  8
0
  6
CONTINUOUS
 10
195.703100
 20
4.453125
 11
195.703100
 21
5.156250
 39
0
 62
0
  0
LINE
  8
0
  6
CONTINUOUS
 10
195.703100
 20
5.156250
 11
195.703100
 21
5.546875
 39
0
 62
0
  0
LINE
  8
0
  6
CONTINUOUS
 10
195.703100
 20
5.546875
 11
195.703100
 21
5.937500
 39
0
 62
0
  0
LINE
  8
0
  6
CONTINUOUS
 10
195.703100
 20
5.937500
 11
195.703100
 21
6.328125
 39
0
 62
0
  0
LINE
  8
0
  6
CONTINUOUS
 10
195.703100
 20
6.328125
 11
195.781300
 21
6.796875
 39
0
 62
0
  0
LINE
  8
0
  6
CONTINUOUS
 10
195.781300
 20
6.796875
 11
195.859400
 21
7.265625
 39
0
 62
0
  0
LINE
  8
0
  6
CONTINUOUS
 10
195.859400
 20
7.265625
 11
195.937500
 21
7.734375
 39
0
 62
0
  0
LINE
  8
0
  6
CONTINUOUS
 10
195.937500
 20
7.734375
 11
196.015600
 21
8.281250
 39
0
 62
0
  0
LINE
  8
0
  6
CONTINUOUS
 10
196.015600
 20
8.281250
 11
196.093800
 21
8.828125
 39
0
 62
0
  0
LINE
  8
0
  6
CONTINUOUS
 10
196.093800
 20
8.828125
 11
202.343800
 21
39.218750
 39
0
 62
0
  0
LINE
  8
0
  6
CONTINUOUS
 10
202.343800
 20
39.218750
 11
202.343800
 21
39.375000
 39
0
 62
0
  0
LINE
  8
0
  6
CONTINUOUS
 10
202.343800
 20
39.375000
 11
202.421900
 21
39.609380
 39
0
 62
0
  0
LINE
  8
0
  6
CONTINUOUS
 10
202.421900
 20
39.609380
 11
202.421900
 21
39.843750
 39
0
 62
0
  0
LINE
  8
0
  6
CONTINUOUS
 10
202.421900
 20
39.843750
 11
202.500000
 21
40.000000
 39
0
 62
0
  0
LINE
  8
0
  6
CONTINUOUS
 10
202.500000
 20
40.000000
 11
202.500000
 21
40.234380
 39
0
 62
0
  0
LINE
  8
0
  6
CONTINUOUS
 10
202.500000
 20
40.234380
 11
202.578100
 21
40.390630
 39
0
 62
0
  0
LINE
  8
0
  6
CONTINUOUS
 10
202.578100
 20
40.390630
 11
202.578100
 21
40.546880
 39
0
 62
0
  0
LINE
  8
0
  6
CONTINUOUS
 10
202.578100
 20
40.546880
 11
202.656300
 21
40.703130
 39
0
 62
0
  0
LINE
  8
0
  6
CONTINUOUS
 10
202.656300
 20
40.703130
 11
202.656300
 21
40.859380
 39
0
 62
0
  0
LINE
  8
0
  6
CONTINUOUS
 10
202.656300
 20
40.859380
 11
202.656300
 21
41.015630
 39
0
 62
0
  0
LINE
  8
0
  6
CONTINUOUS
 10
202.656300
 20
41.015630
 11
202.734400
 21
41.171880
 39
0
 62
0
  0
LINE
  8
0
  6
CONTINUOUS
 10
202.734400
 20
41.171880
 11
202.734400
 21
41.328130
 39
0
 62
0
  0
LINE
  8
0
  6
CONTINUOUS
 10
202.734400
 20
41.328130
 11
202.734400
 21
41.484380
 39
0
 62
0
  0
LINE
  8
0
  6
CONTINUOUS
 10
202.734400
 20
41.484380
 11
202.734400
 21
41.640630
 39
0
 62
0
  0
LINE
  8
0
  6
CONTINUOUS
 10
202.734400
 20
41.640630
 11
202.734400
 21
41.796880
 39
0
 62
0
  0
LINE
  8
0
  6
CONTINUOUS
 10
202.734400
 20
41.796880
 11
202.734400
 21
41.875000
 39
0
 62
0
  0
LINE
  8
0
  6
CONTINUOUS
 10
202.734400
 20
41.875000
 11
202.734400
 21
42.265630
 39
0
 62
0
  0
LINE
  8
0
  6
CONTINUOUS
 10
202.734400
 20
42.265630
 11
202.656300
 21
42.578130
 39
0
 62
0
  0
LINE
  8
0
  6
CONTINUOUS
 10
202.656300
 20
42.578130
 11
202.578100
 21
42.812500
 39
0
 62
0
  0
LINE
  8
0
  6
CONTINUOUS
 10
202.578100
 20
42.812500
 11
202.421900
 21
43.125000
 39
0
 62
0
  0
LINE
  8
0
  6
CONTINUOUS
 10
202.421900
 20
43.125000
 11
202.265600
 21
43.359380
 39
0
 62
0
  0
LINE
  8
0
  6
CONTINUOUS
 10
202.265600
 20
43.359380
 11
202.109400
 21
43.515630
 39
0
 62
0
  0
LINE
  8
0
  6
CONTINUOUS
 10
202.109400
 20
43.515630
 11
201.875000
 21
43.750000
 39
0
 62
0
  0
LINE
  8
0
  6
CONTINUOUS
 10
201.875000
 20
43.750000
 11
201.562500
 21
43.906250
 39
0
 62
0
  0
LINE
  8
0
  6
CONTINUOUS
 10
201.562500
 20
43.906250
 11
201.171900
 21
43.984380
 39
0
 62
0
  0
LINE
  8
0
  6
CONTINUOUS
 10
201.171900
 20
43.984380
 11
200.703100
 21
44.140630
 39
0
 62
0
  0
LINE
  8
0
  6
CONTINUOUS
 10
200.703100
 20
44.140630
 11
200.156300
 21
44.218750
 39
0
 62
0
  0
LINE
  8
0
  6
CONTINUOUS
 10
200.156300
 20
44.218750
 11
199.453100
 21
44.296880
 39
0
 62
0
  0
LINE
  8
0
  6
CONTINUOUS
 10
199.453100
 20
44.296880
 11
198.593800
 21
44.375000
 39
0
 62
0
  0
LINE
  8
0
  6
CONTINUOUS
 10
198.593800
 20
44.375000
 11
197.656300
 21
44.453130
 39
0
 62
0
  0
LINE
  8
0
  6
CONTINUOUS
 10
197.656300
 20
44.453130
 11
196.562500
 21
44.453130
 39
0
 62
0
  0
LINE
  8
0
  6
CONTINUOUS
 10
205.468800
 20
68.515630
 11
205.625000
 21
69.140630
 39
0
 62
0
  0
LINE
  8
0
  6
CONTINUOUS
 10
205.625000
 20
69.140630
 11
205.781300
 21
69.687500
 39
0
 62
0
  0
LINE
  8
0
  6
CONTINUOUS
 10
205.781300
 20
69.687500
 11
206.015600
 21
70.234380
 39
0
 62
0
  0
LINE
  8
0
  6
CONTINUOUS
 10
206.015600
 20
70.234380
 11
206.328100
 21
70.703130
 39
0
 62
0
  0
LINE
  8
0
  6
CONTINUOUS
 10
206.328100
 20
70.703130
 11
206.640600
 21
71.171880
 39
0
 62
0
  0
LINE
  8
0
  6
CONTINUOUS
 10
206.640600
 20
71.171880
 11
207.031300
 21
71.562500
 39
0
 62
0
  0
LINE
  8
0
  6
CONTINUOUS
 10
207.031300
 20
71.562500
 11
207.421900
 21
71.953130
 39
0
 62
0
  0
LINE
  8
0
  6
CONTINUOUS
 10
207.421900
 20
71.953130
 11
207.890600
 21
72.265630
 39
0
 62
0
  0
LINE
  8
0
  6
CONTINUOUS
 10
207.890600
 20
72.265630
 11
208.437500
 21
72.578130
 39
0
 62
0
  0
LINE
  8
0
  6
CONTINUOUS
 10
208.437500
 20
72.578130
 11
208.906300
 21
72.812500
 39
0
 62
0
  0
LINE
  8
0
  6
CONTINUOUS
 10
208.906300
 20
72.812500
 11
209.453100
 21
72.968750
 39
0
 62
0
  0
LINE
  8
0
  6
CONTINUOUS
 10
209.453100
 20
72.968750
 11
210.000000
 21
73.125000
 39
0
 62
0
  0
LINE
  8
0
  6
CONTINUOUS
 10
210.000000
 20
73.125000
 11
210.625000
 21
73.203130
 39
0
 62
0
  0
LINE
  8
0
  6
CONTINUOUS
 10
210.625000
 20
73.203130
 11
211.250000
 21
73.203130
 39
0
 62
0
  0
LINE
  8
0
  6
CONTINUOUS
 10
211.250000
 20
73.203130
 11
211.875000
 21
73.203130
 39
0
 62
0
  0
LINE
  8
0
  6
CONTINUOUS
 10
211.875000
 20
73.203130
 11
212.421900
 21
73.125000
 39
0
 62
0
  0
LINE
  8
0
  6
CONTINUOUS
 10
212.421900
 20
73.125000
 11
212.968800
 21
72.968750
 39
0
 62
0
  0
LINE
  8
0
  6
CONTINUOUS
 10
212.968800
 20
72.968750
 11
213.437500
 21
72.812500
 39
0
 62
0
  0
LINE
  8
0
  6
CONTINUOUS
 10
213.437500
 20
72.812500
 11
213.984400
 21
72.656250
 39
0
 62
0
  0
LINE
  8
0
  6
CONTINUOUS
 10
213.984400
 20
72.656250
 11
214.453100
 21
72.343750
 39
0
 62
0
  0
LINE
  8
0
  6
CONTINUOUS
 10
214.453100
 20
72.343750
 11
214.843800
 21
72.031250
 39
0
 62
0
  0
LINE
  8
0
  6
CONTINUOUS
 10
214.843800
 20
72.031250
 11
215.234400
 21
71.718750
 39
0
 62
0
  0
LINE
  8
0
  6
CONTINUOUS
 10
215.234400
 20
71.718750
 11
215.625000
 21
71.328130
 39
0
 62
0
  0
LINE
  8
0
  6
CONTINUOUS
 10
215.625000
 20
71.328130
 11
215.937500
 21
70.937500
 39
0
 62
0
  0
LINE
  8
0
  6
CONTINUOUS
 10
215.937500
 20
70.937500
 11
216.171900
 21
70.468750
 39
0
 62
0
  0
LINE
  8
0
  6
CONTINUOUS
 10
216.171900
 20
70.468750
 11
216.406300
 21
70.000000
 39
0
 62
0
  0
LINE
  8
0
  6
CONTINUOUS
 10
216.406300
 20
70.000000
 11
216.562500
 21
69.453130
 39
0
 62
0
  0
LINE
  8
0
  6
CONTINUOUS
 10
216.562500
 20
69.453130
 11
216.718800
 21
68.906250
 39
0
 62
0
  0
LINE
  8
0
  6
CONTINUOUS
 10
216.718800
 20
68.906250
 11
216.796900
 21
68.281250
 39
0
 62
0
  0
LINE
  8
0
  6
CONTINUOUS
 10
216.796900
 20
68.281250
 11
216.796900
 21
67.656250
 39
0
 62
0
  0
LINE
  8
0
  6
CONTINUOUS
 10
216.796900
 20
67.656250
 11
216.796900
 21
66.953130
 39
0
 62
0
  0
LINE
  8
0
  6
CONTINUOUS
 10
216.796900
 20
66.953130
 11
216.718800
 21
66.328130
 39
0
 62
0
  0
LINE
  8
0
  6
CONTINUOUS
 10
216.718800
 20
66.328130
 11
216.562500
 21
65.781250
 39
0
 62
0
  0
LINE
  8
0
  6
CONTINUOUS
 10
216.562500
 20
65.781250
 11
216.406300
 21
65.156250
 39
0
 62
0
  0
LINE
  8
0
  6
CONTINUOUS
 10
216.406300
 20
65.156250
 11
216.171900
 21
64.687500
 39
0
 62
0
  0
LINE
  8
0
  6
CONTINUOUS
 10
216.171900
 20
64.687500
 11
215.859400
 21
64.140630
 39
0
 62
0
  0
LINE
  8
0
  6
CONTINUOUS
 10
215.859400
 20
64.140630
 11
215.546900
 21
63.671880
 39
0
 62
0
  0
LINE
  8
0
  6
CONTINUOUS
 10
215.546900
 20
63.671880
 11
215.156300
 21
63.281250
 39
0
 62
0
  0
LINE
  8
0
  6
CONTINUOUS
 10
215.156300
 20
63.281250
 11
214.687500
 21
62.890630
 39
0
 62
0
  0
LINE
  8
0
  6
CONTINUOUS
 10
214.687500
 20
62.890630
 11
214.296900
 21
62.500000
 39
0
 62
0
  0
LINE
  8
0
  6
CONTINUOUS
 10
214.296900
 20
62.500000
 11
213.750000
 21
62.187500
 39
0
 62
0
  0
LINE
  8
0
  6
CONTINUOUS
 10
213.750000
 20
62.187500
 11
213.281300
 21
61.953130
 39
0
 62
0
  0
LINE
  8
0
  6
CONTINUOUS
 10
213.281300
 20
61.953130
 11
212.734400
 21
61.796880
 39
0
 62
0
  0
LINE
  8
0
  6
CONTINUOUS
 10
212.734400
 20
61.796880
 11
212.187500
 21
61.640630
 39
0
 62
0
  0
LINE
  8
0
  6
CONTINUOUS
 10
212.187500
 20
61.640630
 11
211.562500
 21
61.562500
 39
0
 62
0
  0
LINE
  8
0
  6
CONTINUOUS
 10
211.562500
 20
61.562500
 11
211.015600
 21
61.562500
 39
0
 62
0
  0
LINE
  8
0
  6
CONTINUOUS
 10
211.015600
 20
61.562500
 11
210.390600
 21
61.562500
 39
0
 62
0
  0
LINE
  8
0
  6
CONTINUOUS
 10
210.390600
 20
61.562500
 11
209.843800
 21
61.640630
 39
0
 62
0
  0
LINE
  8
0
  6
CONTINUOUS
 10
209.843800
 20
61.640630
 11
209.296900
 21
61.796880
 39
0
 62
0
  0
LINE
  8
0
  6
CONTINUOUS
 10
209.296900
 20
61.796880
 11
208.750000
 21
61.953130
 39
0
 62
0
  0
LINE
  8
0
  6
CONTINUOUS
 10
208.750000
 20
61.953130
 11
208.281300
 21
62.187500
 39
0
 62
0
  0
LINE
  8
0
  6
CONTINUOUS
 10
208.281300
 20
62.187500
 11
207.812500
 21
62.421880
 39
0
 62
0
  0
LINE
  8
0
  6
CONTINUOUS
 10
207.812500
 20
62.421880
 11
207.343800
 21
62.812500
 39
0
 62
0
  0
LINE
  8
0
  6
CONTINUOUS
 10
207.343800
 20
62.812500
 11
206.953100
 21
63.125000
 39
0
 62
0
  0
LINE
  8
0
  6
CONTINUOUS
 10
206.953100
 20
63.125000
 11
206.562500
 21
63.593750
 39
0
 62
0
  0
LINE
  8
0
  6
CONTINUOUS
 10
206.562500
 20
63.593750
 11
206.250000
 21
63.984380
 39
0
 62
0
  0
LINE
  8
0
  6
CONTINUOUS
 10
206.250000
 20
63.984380
 11
206.015600
 21
64.453130
 39
0
 62
0
  0
LINE
  8
0
  6
CONTINUOUS
 10
206.015600
 20
64.453130
 11
205.781300
 21
64.921880
 39
0
 62
0
  0
LINE
  8
0
  6
CONTINUOUS
 10
205.781300
 20
64.921880
 11
205.546900
 21
65.468750
 39
0
 62
0
  0
LINE
  8
0
  6
CONTINUOUS
 10
205.546900
 20
65.468750
 11
205.468800
 21
66.015630
 39
0
 62
0
  0
LINE
  8
0
  6
CONTINUOUS
 10
205.468800
 20
66.015630
 11
205.390600
 21
66.640630
 39
0
 62
0
  0
LINE
  8
0
  6
CONTINUOUS
 10
205.390600
 20
66.640630
 11
205.390600
 21
67.187500
 39
0
 62
0
  0
LINE
  8
0
  6
CONTINUOUS
 10
205.390600
 20
67.187500
 11
205.390600
 21
67.890630
 39
0
 62
0
  0
LINE
  8
0
  6
CONTINUOUS
 10
205.390600
 20
67.890630
 11
205.468800
 21
68.515630
 39
0
 62
0
  0
LINE
  8
0
  6
CONTINUOUS
 10
222.187500
 20
14.843750
 11
222.109400
 21
16.718750
 39
0
 62
0
  0
LINE
  8
0
  6
CONTINUOUS
 10
222.109400
 20
16.718750
 11
222.265600
 21
20.000000
 39
0
 62
0
  0
LINE
  8
0
  6
CONTINUOUS
 10
222.265600
 20
20.000000
 11
222.656300
 21
23.203130
 39
0
 62
0
  0
LINE
  8
0
  6
CONTINUOUS
 10
222.656300
 20
23.203130
 11
223.281300
 21
26.328130
 39
0
 62
0
  0
LINE
  8
0
  6
CONTINUOUS
 10
223.281300
 20
26.328130
 11
224.140600
 21
29.218750
 39
0
 62
0
  0
LINE
  8
0
  6
CONTINUOUS
 10
224.140600
 20
29.218750
 11
225.312500
 21
32.031250
 39
0
 62
0
  0
LINE
  8
0
  6
CONTINUOUS
 10
225.312500
 20
32.031250
 11
226.718800
 21
34.687500
 39
0
 62
0
  0
LINE
  8
0
  6
CONTINUOUS
 10
226.718800
 20
34.687500
 11
228.359400
 21
37.187500
 39
0
 62
0
  0
LINE
  8
0
  6
CONTINUOUS
 10
228.359400
 20
37.187500
 11
230.312500
 21
39.609380
 39
0
 62
0
  0
LINE
  8
0
  6
CONTINUOUS
 10
230.312500
 20
39.609380
 11
232.421900
 21
41.796880
 39
0
 62
0
  0
LINE
  8
0
  6
CONTINUOUS
 10
232.421900
 20
41.796880
 11
234.609400
 21
43.671880
 39
0
 62
0
  0
LINE
  8
0
  6
CONTINUOUS
 10
234.609400
 20
43.671880
 11
237.031300
 21
45.234380
 39
0
 62
0
  0
LINE
  8
0
  6
CONTINUOUS
 10
237.031300
 20
45.234380
 11
239.531300
 21
46.562500
 39
0
 62
0
  0
LINE
  8
0
  6
CONTINUOUS
 10
239.531300
 20
46.562500
 11
242.187500
 21
47.578130
 39
0
 62
0
  0
LINE
  8
0
  6
CONTINUOUS
 10
242.187500
 20
47.578130
 11
245.000000
 21
48.359380
 39
0
 62
0
  0
LINE
  8
0
  6
CONTINUOUS
 10
245.000000
 20
48.359380
 11
247.890600
 21
48.750000
 39
0
 62
0
  0
LINE
  8
0
  6
CONTINUOUS
 10
247.890600
 20
48.750000
 11
250.937500
 21
48.906250
 39
0
 62
0
  0
LINE
  8
0
  6
CONTINUOUS
 10
250.937500
 20
48.906250
 11
252.187500
 21
48.906250
 39
0
 62
0
  0
LINE
  8
0
  6
CONTINUOUS
 10
252.187500
 20
48.906250
 11
253.437500
 21
48.750000
 39
0
 62
0
  0
LINE
  8
0
  6
CONTINUOUS
 10
253.437500
 20
48.750000
 11
254.765600
 21
48.671880
 39
0
 62
0
  0
LINE
  8
0
  6
CONTINUOUS
 10
254.765600
 20
48.671880
 11
256.093800
 21
48.437500
 39
0
 62
0
  0
LINE
  8
0
  6
CONTINUOUS
 10
256.093800
 20
48.437500
 11
257.500000
 21
48.125000
 39
0
 62
0
  0
LINE
  8
0
  6
CONTINUOUS
 10
257.500000
 20
48.125000
 11
258.906300
 21
47.812500
 39
0
 62
0
  0
LINE
  8
0
  6
CONTINUOUS
 10
258.906300
 20
47.812500
 11
260.390600
 21
47.421880
 39
0
 62
0
  0
LINE
  8
0
  6
CONTINUOUS
 10
260.390600
 20
47.421880
 11
261.953100
 21
46.953130
 39
0
 62
0
  0
LINE
  8
0
  6
CONTINUOUS
 10
261.953100
 20
46.953130
 11
262.578100
 21
47.109380
 39
0
 62
0
  0
LINE
  8
0
  6
CONTINUOUS
 10
262.578100
 20
47.109380
 11
263.281300
 21
47.343750
 39
0
 62
0
  0
LINE
  8
0
  6
CONTINUOUS
 10
263.281300
 20
47.343750
 11
263.984400
 21
47.500000
 39
0
 62
0
  0
LINE
  8
0
  6
CONTINUOUS
 10
263.984400
 20
47.500000
 11
264.687500
 21
47.734380
 39
0
 62
0
  0
LINE
  8
0
  6
CONTINUOUS
 10
264.687500
 20
47.734380
 11
265.468800
 21
47.968750
 39
0
 62
0
  0
LINE
  8
0
  6
CONTINUOUS
 10
265.468800
 20
47.968750
 11
266.250000
 21
48.281250
 39
0
 62
0
  0
LINE
  8
0
  6
CONTINUOUS
 10
266.250000
 20
48.281250
 11
267.109400
 21
48.515630
 39
0
 62
0
  0
LINE
  8
0
  6
CONTINUOUS
 10
267.109400
 20
48.515630
 11
267.968800
 21
48.828130
 39
0
 62
0
  0
LINE
  8
0
  6
CONTINUOUS
 10
267.968800
 20
48.828130
 11
268.515600
 21
48.437500
 39
0
 62
0
  0
LINE
  8
0
  6
CONTINUOUS
 10
268.515600
 20
48.437500
 11
268.359400
 21
47.812500
 39
0
 62
0
  0
LINE
  8
0
  6
CONTINUOUS
 10
268.359400
 20
47.812500
 11
268.125000
 21
47.109380
 39
0
 62
0
  0
LINE
  8
0
  6
CONTINUOUS
 10
268.125000
 20
47.109380
 11
267.968800
 21
46.406250
 39
0
 62
0
  0
LINE
  8
0
  6
CONTINUOUS
 10
267.968800
 20
46.406250
 11
267.734400
 21
45.703130
 39
0
 62
0
  0
LINE
  8
0
  6
CONTINUOUS
 10
267.734400
 20
45.703130
 11
267.500000
 21
44.843750
 39
0
 62
0
  0
LINE
  8
0
  6
CONTINUOUS
 10
267.500000
 20
44.843750
 11
267.343800
 21
43.984380
 39
0
 62
0
  0
LINE
  8
0
  6
CONTINUOUS
 10
267.343800
 20
43.984380
 11
267.109400
 21
43.125000
 39
0
 62
0
  0
LINE
  8
0
  6
CONTINUOUS
 10
267.109400
 20
43.125000
 11
266.875000
 21
42.109380
 39
0
 62
0
  0
LINE
  8
0
  6
CONTINUOUS
 10
266.875000
 20
42.109380
 11
266.562500
 21
41.015630
 39
0
 62
0
  0
LINE
  8
0
  6
CONTINUOUS
 10
266.562500
 20
41.015630
 11
266.250000
 21
39.609380
 39
0
 62
0
  0
LINE
  8
0
  6
CONTINUOUS
 10
266.250000
 20
39.609380
 11
265.859400
 21
37.968750
 39
0
 62
0
  0
LINE
  8
0
  6
CONTINUOUS
 10
265.859400
 20
37.968750
 11
265.468800
 21
36.015630
 39
0
 62
0
  0
LINE
  8
0
  6
CONTINUOUS
 10
265.468800
 20
36.015630
 11
264.921900
 21
33.750000
 39
0
 62
0
  0
LINE
  8
0
  6
CONTINUOUS
 10
264.921900
 20
33.750000
 11
264.453100
 21
31.171880
 39
0
 62
0
  0
LINE
  8
0
  6
CONTINUOUS
 10
264.453100
 20
31.171880
 11
263.828100
 21
28.437500
 39
0
 62
0
  0
LINE
  8
0
  6
CONTINUOUS
 10
263.828100
 20
28.437500
 11
263.203100
 21
25.312500
 39
0
 62
0
  0
LINE
  8
0
  6
CONTINUOUS
 10
263.203100
 20
25.312500
 11
259.921900
 21
9.062500
 39
0
 62
0
  0
LINE
  8
0
  6
CONTINUOUS
 10
259.921900
 20
9.062500
 11
259.843800
 21
8.828125
 39
0
 62
0
  0
LINE
  8
0
  6
CONTINUOUS
 10
259.843800
 20
8.828125
 11
259.843800
 21
8.515625
 39
0
 62
0
  0
LINE
  8
0
  6
CONTINUOUS
 10
259.843800
 20
8.515625
 11
259.765600
 21
8.281250
 39
0
 62
0
  0
LINE
  8
0
  6
CONTINUOUS
 10
259.765600
 20
8.281250
 11
259.765600
 21
8.046875
 39
0
 62
0
  0
LINE
  8
0
  6
CONTINUOUS
 10
259.765600
 20
8.046875
 11
259.765600
 21
7.812500
 39
0
 62
0
  0
LINE
  8
0
  6
CONTINUOUS
 10
259.765600
 20
7.812500
 11
259.687500
 21
7.500000
 39
0
 62
0
  0
LINE
  8
0
  6
CONTINUOUS
 10
259.687500
 20
7.500000
 11
259.687500
 21
7.265625
 39
0
 62
0
  0
LINE
  8
0
  6
CONTINUOUS
 10
259.687500
 20
7.265625
 11
259.687500
 21
7.031250
 39
0
 62
0
  0
LINE
  8
0
  6
CONTINUOUS
 10
259.687500
 20
7.031250
 11
259.765600
 21
6.484375
 39
0
 62
0
  0
LINE
  8
0
  6
CONTINUOUS
 10
259.765600
 20
6.484375
 11
259.843800
 21
6.015625
 39
0
 62
0
  0
LINE
  8
0
  6
CONTINUOUS
 10
259.843800
 20
6.015625
 11
259.921900
 21
5.546875
 39
0
 62
0
  0
LINE
  8
0
  6
CONTINUOUS
 10
259.921900
 20
5.546875
 11
260.078100
 21
5.156250
 39
0
 62
0
  0
LINE
  8
0
  6
CONTINUOUS
 10
260.078100
 20
5.156250
 11
260.312500
 21
4.765625
 39
0
 62
0
  0
LINE
  8
0
  6
CONTINUOUS
 10
260.312500
 20
4.765625
 11
260.625000
 21
4.453125
 39
0
 62
0
  0
LINE
  8
0
  6
CONTINUOUS
 10
260.625000
 20
4.453125
 11
260.937500
 21
4.218750
 39
0
 62
0
  0
LINE
  8
0
  6
CONTINUOUS
 10
260.937500
 20
4.218750
 11
261.328100
 21
3.984375
 39
0
 62
0
  0
LINE
  8
0
  6
CONTINUOUS
 10
261.328100
 20
3.984375
 11
261.796900
 21
3.828125
 39
0
 62
0
  0
LINE
  8
0
  6
CONTINUOUS
 10
261.796900
 20
3.828125
 11
262.343800
 21
3.671875
 39
0
 62
0
  0
LINE
  8
0
  6
CONTINUOUS
 10
262.343800
 20
3.671875
 11
262.968800
 21
3.515625
 39
0
 62
0
  0
LINE
  8
0
  6
CONTINUOUS
 10
262.968800
 20
3.515625
 11
263.671900
 21
3.437500
 39
0
 62
0
  0
LINE
  8
0
  6
CONTINUOUS
 10
263.671900
 20
3.437500
 11
264.453100
 21
3.359375
 39
0
 62
0
  0
LINE
  8
0
  6
CONTINUOUS
 10
264.453100
 20
3.359375
 11
265.312500
 21
3.281250
 39
0
 62
0
  0
LINE
  8
0
  6
CONTINUOUS
 10
265.312500
 20
3.281250
 11
266.250000
 21
3.281250
 39
0
 62
0
  0
LINE
  8
0
  6
CONTINUOUS
 10
266.250000
 20
3.281250
 11
267.265600
 21
3.281250
 39
0
 62
0
  0
LINE
  8
0
  6
CONTINUOUS
 10
267.265600
 20
3.281250
 11
267.109400
 21
1.250000
 39
0
 62
0
  0
LINE
  8
0
  6
CONTINUOUS
 10
267.109400
 20
1.250000
 11
265.468800
 21
0.703125
 39
0
 62
0
  0
LINE
  8
0
  6
CONTINUOUS
 10
265.468800
 20
0.703125
 11
263.906300
 21
0.312500
 39
0
 62
0
  0
LINE
  8
0
  6
CONTINUOUS
 10
263.906300
 20
0.312500
 11
262.500000
 21
-0.078125
 39
0
 62
0
  0
LINE
  8
0
  6
CONTINUOUS
 10
262.500000
 20
-0.078125
 11
261.250000
 21
-0.390625
 39
0
 62
0
  0
LINE
  8
0
  6
CONTINUOUS
 10
261.250000
 20
-0.390625
 11
260.000000
 21
-0.625000
 39
0
 62
0
  0
LINE
  8
0
  6
CONTINUOUS
 10
260.000000
 20
-0.625000
 11
258.906300
 21
-0.781250
 39
0
 62
0
  0
LINE
  8
0
  6
CONTINUOUS
 10
258.906300
 20
-0.781250
 11
257.968800
 21
-0.937500
 39
0
 62
0
  0
LINE
  8
0
  6
CONTINUOUS
 10
257.968800
 20
-0.937500
 11
257.109400
 21
-0.937500
 39
0
 62
0
  0
LINE
  8
0
  6
CONTINUOUS
 10
257.109400
 20
-0.937500
 11
256.406300
 21
-0.937500
 39
0
 62
0
  0
LINE
  8
0
  6
CONTINUOUS
 10
256.406300
 20
-0.937500
 11
255.703100
 21
-0.859375
 39
0
 62
0
  0
LINE
  8
0
  6
CONTINUOUS
 10
255.703100
 20
-0.859375
 11
255.000000
 21
-0.703125
 39
0
 62
0
  0
LINE
  8
0
  6
CONTINUOUS
 10
255.000000
 20
-0.703125
 11
254.453100
 21
-0.468750
 39
0
 62
0
  0
LINE
  8
0
  6
CONTINUOUS
 10
254.453100
 20
-0.468750
 11
253.828100
 21
-0.234375
 39
0
 62
0
  0
LINE
  8
0
  6
CONTINUOUS
 10
253.828100
 20
-0.234375
 11
253.281300
 21
0.078125
 39
0
 62
0
  0
LINE
  8
0
  6
CONTINUOUS
 10
253.281300
 20
0.078125
 11
252.812500
 21
0.390625
 39
0
 62
0
  0
LINE
  8
0
  6
CONTINUOUS
 10
252.812500
 20
0.390625
 11
252.343800
 21
0.859375
 39
0
 62
0
  0
LINE
  8
0
  6
CONTINUOUS
 10
252.343800
 20
0.859375
 11
251.953100
 21
1.328125
 39
0
 62
0
  0
LINE
  8
0
  6
CONTINUOUS
 10
251.953100
 20
1.328125
 11
251.562500
 21
1.796875
 39
0
 62
0
  0
LINE
  8
0
  6
CONTINUOUS
 10
251.562500
 20
1.796875
 11
251.250000
 21
2.343750
 39
0
 62
0
  0
LINE
  8
0
  6
CONTINUOUS
 10
251.250000
 20
2.343750
 11
251.015600
 21
2.968750
 39
0
 62
0
  0
LINE
  8
0
  6
CONTINUOUS
 10
251.015600
 20
2.968750
 11
250.781300
 21
3.671875
 39
0
 62
0
  0
LINE
  8
0
  6
CONTINUOUS
 10
250.781300
 20
3.671875
 11
250.625000
 21
4.375000
 39
0
 62
0
  0
LINE
  8
0
  6
CONTINUOUS
 10
250.625000
 20
4.375000
 11
250.546900
 21
5.156250
 39
0
 62
0
  0
LINE
  8
0
  6
CONTINUOUS
 10
250.546900
 20
5.156250
 11
250.546900
 21
5.937500
 39
0
 62
0
  0
LINE
  8
0
  6
CONTINUOUS
 10
250.546900
 20
5.937500
 11
250.546900
 21
6.093750
 39
0
 62
0
  0
LINE
  8
0
  6
CONTINUOUS
 10
250.546900
 20
6.093750
 11
250.546900
 21
6.250000
 39
0
 62
0
  0
LINE
  8
0
  6
CONTINUOUS
 10
250.546900
 20
6.250000
 11
250.546900
 21
6.484375
 39
0
 62
0
  0
LINE
  8
0
  6
CONTINUOUS
 10
250.546900
 20
6.484375
 11
250.546900
 21
6.640625
 39
0
 62
0
  0
LINE
  8
0
  6
CONTINUOUS
 10
250.546900
 20
6.640625
 11
250.546900
 21
6.875000
 39
0
 62
0
  0
LINE
  8
0
  6
CONTINUOUS
 10
250.546900
 20
6.875000
 11
250.546900
 21
7.109375
 39
0
 62
0
  0
LINE
  8
0
  6
CONTINUOUS
 10
250.546900
 20
7.109375
 11
250.546900
 21
7.343750
 39
0
 62
0
  0
LINE
  8
0
  6
CONTINUOUS
 10
250.546900
 20
7.343750
 11
250.625000
 21
7.656250
 39
0
 62
0
  0
LINE
  8
0
  6
CONTINUOUS
 10
250.625000
 20
7.656250
 11
249.296900
 21
6.562500
 39
0
 62
0
  0
LINE
  8
0
  6
CONTINUOUS
 10
249.296900
 20
6.562500
 11
248.046900
 21
5.468750
 39
0
 62
0
  0
LINE
  8
0
  6
CONTINUOUS
 10
248.046900
 20
5.468750
 11
246.875000
 21
4.531250
 39
0
 62
0
  0
LINE
  8
0
  6
CONTINUOUS
 10
246.875000
 20
4.531250
 11
245.781300
 21
3.671875
 39
0
 62
0
  0
LINE
  8
0
  6
CONTINUOUS
 10
245.781300
 20
3.671875
 11
244.687500
 21
2.890625
 39
0
 62
0
  0
LINE
  8
0
  6
CONTINUOUS
 10
244.687500
 20
2.890625
 11
243.593800
 21
2.187500
 39
0
 62
0
  0
LINE
  8
0
  6
CONTINUOUS
 10
243.593800
 20
2.187500
 11
242.656300
 21
1.484375
 39
0
 62
0
  0
LINE
  8
0
  6
CONTINUOUS
 10
242.656300
 20
1.484375
 11
241.718800
 21
0.937500
 39
0
 62
0
  0
LINE
  8
0
  6
CONTINUOUS
 10
241.718800
 20
0.937500
 11
240.781300
 21
0.468750
 39
0
 62
0
  0
LINE
  8
0
  6
CONTINUOUS
 10
240.781300
 20
0.468750
 11
240.000000
 21
0.000000
 39
0
 62
0
  0
LINE
  8
0
  6
CONTINUOUS
 10
240.000000
 20
0.000000
 11
239.218800
 21
-0.312500
 39
0
 62
0
  0
LINE
  8
0
  6
CONTINUOUS
 10
239.218800
 20
-0.312500
 11
238.515600
 21
-0.625000
 39
0
 62
0
  0
LINE
  8
0
  6
CONTINUOUS
 10
238.515600
 20
-0.625000
 11
237.890600
 21
-0.859375
 39
0
 62
0
  0
LINE
  8
0
  6
CONTINUOUS
 10
237.890600
 20
-0.859375
 11
237.343800
 21
-1.015625
 39
0
 62
0
  0
LINE
  8
0
  6
CONTINUOUS
 10
237.343800
 20
-1.015625
 11
236.875000
 21
-1.171875
 39
0
 62
0
  0
LINE
  8
0
  6
CONTINUOUS
 10
236.875000
 20
-1.171875
 11
236.484400
 21
-1.171875
 39
0
 62
0
  0
LINE
  8
0
  6
CONTINUOUS
 10
236.484400
 20
-1.171875
 11
234.843800
 21
-1.093750
 39
0
 62
0
  0
LINE
  8
0
  6
CONTINUOUS
 10
234.843800
 20
-1.093750
 11
233.359400
 21
-0.859375
 39
0
 62
0
  0
LINE
  8
0
  6
CONTINUOUS
 10
233.359400
 20
-0.859375
 11
231.875000
 21
-0.468750
 39
0
 62
0
  0
LINE
  8
0
  6
CONTINUOUS
 10
231.875000
 20
-0.468750
 11
230.546900
 21
0.078125
 39
0
 62
0
  0
LINE
  8
0
  6
CONTINUOUS
 10
230.546900
 20
0.078125
 11
229.218800
 21
0.859375
 39
0
 62
0
  0
LINE
  8
0
  6
CONTINUOUS
 10
229.218800
 20
0.859375
 11
228.046900
 21
1.718750
 39
0
 62
0
  0
LINE
  8
0
  6
CONTINUOUS
 10
228.046900
 20
1.718750
 11
226.953100
 21
2.734375
 39
0
 62
0
  0
LINE
  8
0
  6
CONTINUOUS
 10
226.953100
 20
2.734375
 11
225.937500
 21
3.984375
 39
0
 62
0
  0
LINE
  8
0
  6
CONTINUOUS
 10
225.937500
 20
3.984375
 11
225.078100
 21
5.312500
 39
0
 62
0
  0
LINE
  8
0
  6
CONTINUOUS
 10
225.078100
 20
5.312500
 11
224.296900
 21
6.718750
 39
0
 62
0
  0
LINE
  8
0
  6
CONTINUOUS
 10
224.296900
 20
6.718750
 11
223.593800
 21
8.125000
 39
0
 62
0
  0
LINE
  8
0
  6
CONTINUOUS
 10
223.593800
 20
8.125000
 11
223.046900
 21
9.687500
 39
0
 62
0
  0
LINE
  8
0
  6
CONTINUOUS
 10
223.046900
 20
9.687500
 11
222.656300
 21
11.328130
 39
0
 62
0
  0
LINE
  8
0
  6
CONTINUOUS
 10
222.656300
 20
11.328130
 11
222.343800
 21
13.046880
 39
0
 62
0
  0
LINE
  8
0
  6
CONTINUOUS
 10
222.343800
 20
13.046880
 11
222.187500
 21
14.843750
 39
0
 62
0
  0
LINE
  8
0
  6
CONTINUOUS
 10
231.953100
 20
17.734380
 11
231.875000
 21
19.062500
 39
0
 62
0
  0
LINE
  8
0
  6
CONTINUOUS
 10
231.875000
 20
19.062500
 11
231.953100
 21
21.484380
 39
0
 62
0
  0
LINE
  8
0
  6
CONTINUOUS
 10
231.953100
 20
21.484380
 11
232.265600
 21
23.828130
 39
0
 62
0
  0
LINE
  8
0
  6
CONTINUOUS
 10
232.265600
 20
23.828130
 11
232.656300
 21
26.093750
 39
0
 62
0
  0
LINE
  8
0
  6
CONTINUOUS
 10
232.656300
 20
26.093750
 11
233.203100
 21
28.359380
 39
0
 62
0
  0
LINE
  8
0
  6
CONTINUOUS
 10
233.203100
 20
28.359380
 11
233.984400
 21
30.546880
 39
0
 62
0
  0
LINE
  8
0
  6
CONTINUOUS
 10
233.984400
 20
30.546880
 11
234.921900
 21
32.656250
 39
0
 62
0
  0
LINE
  8
0
  6
CONTINUOUS
 10
234.921900
 20
32.656250
 11
235.937500
 21
34.765630
 39
0
 62
0
  0
LINE
  8
0
  6
CONTINUOUS
 10
235.937500
 20
34.765630
 11
237.187500
 21
36.796880
 39
0
 62
0
  0
LINE
  8
0
  6
CONTINUOUS
 10
237.187500
 20
36.796880
 11
238.593800
 21
38.671880
 39
0
 62
0
  0
LINE
  8
0
  6
CONTINUOUS
 10
238.593800
 20
38.671880
 11
240.000000
 21
40.312500
 39
0
 62
0
  0
LINE
  8
0
  6
CONTINUOUS
 10
240.000000
 20
40.312500
 11
241.484400
 21
41.718750
 39
0
 62
0
  0
LINE
  8
0
  6
CONTINUOUS
 10
241.484400
 20
41.718750
 11
243.125000
 21
42.812500
 39
0
 62
0
  0
LINE
  8
0
  6
CONTINUOUS
 10
243.125000
 20
42.812500
 11
244.765600
 21
43.750000
 39
0
 62
0
  0
LINE
  8
0
  6
CONTINUOUS
 10
244.765600
 20
43.750000
 11
246.484400
 21
44.375000
 39
0
 62
0
  0
LINE
  8
0
  6
CONTINUOUS
 10
246.484400
 20
44.375000
 11
248.281300
 21
44.687500
 39
0
 62
0
  0
LINE
  8
0
  6
CONTINUOUS
 10
248.281300
 20
44.687500
 11
250.156300
 21
44.843750
 39
0
 62
0
  0
LINE
  8
0
  6
CONTINUOUS
 10
250.156300
 20
44.843750
 11
251.093800
 21
44.843750
 39
0
 62
0
  0
LINE
  8
0
  6
CONTINUOUS
 10
251.093800
 20
44.843750
 11
252.031300
 21
44.687500
 39
0
 62
0
  0
LINE
  8
0
  6
CONTINUOUS
 10
252.031300
 20
44.687500
 11
252.968800
 21
44.531250
 39
0
 62
0
  0
LINE
  8
0
  6
CONTINUOUS
 10
252.968800
 20
44.531250
 11
253.828100
 21
44.296880
 39
0
 62
0
  0
LINE
  8
0
  6
CONTINUOUS
 10
253.828100
 20
44.296880
 11
254.765600
 21
43.984380
 39
0
 62
0
  0
LINE
  8
0
  6
CONTINUOUS
 10
254.765600
 20
43.984380
 11
255.703100
 21
43.593750
 39
0
 62
0
  0
LINE
  8
0
  6
CONTINUOUS
 10
255.703100
 20
43.593750
 11
256.640600
 21
43.203130
 39
0
 62
0
  0
LINE
  8
0
  6
CONTINUOUS
 10
256.640600
 20
43.203130
 11
257.656300
 21
42.656250
 39
0
 62
0
  0
LINE
  8
0
  6
CONTINUOUS
 10
257.656300
 20
42.656250
 11
251.328100
 21
12.031250
 39
0
 62
0
  0
LINE
  8
0
  6
CONTINUOUS
 10
251.328100
 20
12.031250
 11
250.234400
 21
11.171880
 39
0
 62
0
  0
LINE
  8
0
  6
CONTINUOUS
 10
250.234400
 20
11.171880
 11
249.140600
 21
10.468750
 39
0
 62
0
  0
LINE
  8
0
  6
CONTINUOUS
 10
249.140600
 20
10.468750
 11
248.125000
 21
9.765625
 39
0
 62
0
  0
LINE
  8
0
  6
CONTINUOUS
 10
248.125000
 20
9.765625
 11
247.187500
 21
9.140625
 39
0
 62
0
  0
LINE
  8
0
  6
CONTINUOUS
 10
247.187500
 20
9.140625
 11
246.250000
 21
8.515625
 39
0
 62
0
  0
LINE
  8
0
  6
CONTINUOUS
 10
246.250000
 20
8.515625
 11
245.468800
 21
8.046875
 39
0
 62
0
  0
LINE
  8
0
  6
CONTINUOUS
 10
245.468800
 20
8.046875
 11
244.609400
 21
7.578125
 39
0
 62
0
  0
LINE
  8
0
  6
CONTINUOUS
 10
244.609400
 20
7.578125
 11
243.906300
 21
7.187500
 39
0
 62
0
  0
LINE
  8
0
  6
CONTINUOUS
 10
243.906300
 20
7.187500
 11
243.203100
 21
6.875000
 39
0
 62
0
  0
LINE
  8
0
  6
CONTINUOUS
 10
243.203100
 20
6.875000
 11
242.500000
 21
6.562500
 39
0
 62
0
  0
LINE
  8
0
  6
CONTINUOUS
 10
242.500000
 20
6.562500
 11
241.953100
 21
6.328125
 39
0
 62
0
  0
LINE
  8
0
  6
CONTINUOUS
 10
241.953100
 20
6.328125
 11
241.406300
 21
6.171875
 39
0
 62
0
  0
LINE
  8
0
  6
CONTINUOUS
 10
241.406300
 20
6.171875
 11
240.937500
 21
6.015625
 39
0
 62
0
  0
LINE
  8
0
  6
CONTINUOUS
 10
240.937500
 20
6.015625
 11
240.468800
 21
5.859375
 39
0
 62
0
  0
LINE
  8
0
  6
CONTINUOUS
 10
240.468800
 20
5.859375
 11
240.078100
 21
5.781250
 39
0
 62
0
  0
LINE
  8
0
  6
CONTINUOUS
 10
240.078100
 20
5.781250
 11
239.765600
 21
5.781250
 39
0
 62
0
  0
LINE
  8
0
  6
CONTINUOUS
 10
239.765600
 20
5.781250
 11
238.828100
 21
5.859375
 39
0
 62
0
  0
LINE
  8
0
  6
CONTINUOUS
 10
238.828100
 20
5.859375
 11
237.968800
 21
6.015625
 39
0
 62
0
  0
LINE
  8
0
  6
CONTINUOUS
 10
237.968800
 20
6.015625
 11
237.187500
 21
6.328125
 39
0
 62
0
  0
LINE
  8
0
  6
CONTINUOUS
 10
237.187500
 20
6.328125
 11
236.406300
 21
6.718750
 39
0
 62
0
  0
LINE
  8
0
  6
CONTINUOUS
 10
236.406300
 20
6.718750
 11
235.703100
 21
7.265625
 39
0
 62
0
  0
LINE
  8
0
  6
CONTINUOUS
 10
235.703100
 20
7.265625
 11
235.078100
 21
7.968750
 39
0
 62
0
  0
LINE
  8
0
  6
CONTINUOUS
 10
235.078100
 20
7.968750
 11
234.531300
 21
8.750000
 39
0
 62
0
  0
LINE
  8
0
  6
CONTINUOUS
 10
234.531300
 20
8.750000
 11
233.984400
 21
9.609375
 39
0
 62
0
  0
LINE
  8
0
  6
CONTINUOUS
 10
233.984400
 20
9.609375
 11
233.437500
 21
10.625000
 39
0
 62
0
  0
LINE
  8
0
  6
CONTINUOUS
 10
233.437500
 20
10.625000
 11
233.046900
 21
11.640630
 39
0
 62
0
  0
LINE
  8
0
  6
CONTINUOUS
 10
233.046900
 20
11.640630
 11
232.734400
 21
12.812500
 39
0
 62
0
  0
LINE
  8
0
  6
CONTINUOUS
 10
232.734400
 20
12.812500
 11
232.421900
 21
13.906250
 39
0
 62
0
  0
LINE
  8
0
  6
CONTINUOUS
 10
232.421900
 20
13.906250
 11
232.187500
 21
15.156250
 39
0
 62
0
  0
LINE
  8
0
  6
CONTINUOUS
 10
232.187500
 20
15.156250
 11
232.031300
 21
16.406250
 39
0
 62
0
  0
LINE
  8
0
  6
CONTINUOUS
 10
232.031300
 20
16.406250
 11
231.953100
 21
17.734380
 39
0
 62
0
  0
ARC
  8
default
  6
CONTINUOUS
 10
10.000000
 20
70.000000
 40
30.000000
 50
90.000000
 51
180.000000
 39
0
 62
0
  0
ARC
  8
default
  6
CONTINUOUS
 10
265.000000
 20
70.000000
 40
30.000000
 50
0.000000
 51
90.000000
 39
0
 62
0
  0
LINE
  8
default
  6
CONTINUOUS
 10
10.000000
 20
100.000000
 11
265.000000
 21
100.000000
 39
0
 62
0
  0
ARC
  8
default
  6
CONTINUOUS
 10
265.000000
 20
5.000000
 40
30.000000
 50
270.000000
 51
0.000000
 39
0
 62
0
  0
LINE
  8
default
  6
CONTINUOUS
 10
295.000000
 20
70.000000
 11
295.000000
 21
5.000000
 39
0
 62
0
  0
ARC
  8
default
  6
CONTINUOUS
 10
10.000000
 20
5.000000
 40
30.000000
 50
180.000000
 51
270.000000
 39
0
 62
0
  0
LINE
  8
default
  6
CONTINUOUS
 10
265.000000
 20
-25.000000
 11
10.000000
 21
-25.000000
 39
0
 62
0
  0
LINE
  8
default
  6
CONTINUOUS
 10
-20.000000
 20
5.000000
 11
-20.000000
 21
70.000000
 39
0
 62
0
  0
ENDSEC
  0
EOF
