  0
SECTION
  2
HEADER
  9
$LIMMIN
 10
0.000000
 20
-0.714929
  9
$LIMMAX
 10
499.473826
 20
249.285071
  9
$EXTMIN
 10
0.000000
 20
-0.714929
  9
$EXTMAX
 10
499.473826
 20
249.285071
  9
$ANGBASE
 50
0.000000
  9
$ANGDIR
 70
0
  9
$INSUNITS
 70
4
  9
$DIMALT
 70
4
  9
$DIMLUNIT
 70
2
  9
$DIMASZ
 40
3.000000
  9
$DIMTXT
 40
5.000000
  9
$DIMRND
 40
0.010000
  9
$DIMEXE
 40
2.000000
  9
$DIMEXO
 40
2.000000
  9
$DIMAUNIT
 70
0
  9
$DIMADEC
 70
2
  9
$GRIDUNIT
 10
0.001000
 20
0.001000
  9
$PLIMMIN
 10
0.000000
 20
0.000000
  9
$PLIMMAX
 10
500.000000
 20
1000.000000
  9
$PSVPSCALE
 40
1.000000
  0
ENDSEC
  0
SECTION
  2
TABLES
  0
TABLE
  2
LTYPE
 70
     1
  0
LTYPE
  2
CONTINUOUS
 70
    64
  3
Ausgez
 72
    65
 73
  0
 40
0.000000
  0
ENDTAB
  0
TABLE
  2
LAYER
 70
     1
  0
LAYER
  2
default
 70
    64
 62
0
  6
CONTINUOUS
  0
ENDTAB
  0
ENDSEC
  0
SECTION
  2
BLOCKS
  0
ENDSEC
  0
SECTION
  2
ENTITIES
  0
CIRCLE
  8
default
  6
CONTINUOUS
 10
126.197151
 20
124.285071
 40
125.000000
 39
0
 62
0
  0
CIRCLE
  8
default
  6
CONTINUOUS
 10
126.197151
 20
124.285071
 40
16.000000
 39
0
 62
0
  0
CIRCLE
  8
default
  6
CONTINUOUS
 10
15.858807
 20
146.232732
 40
2.500000
 39
0
 62
0
  0
CIRCLE
  8
default
  6
CONTINUOUS
 10
32.656820
 20
186.786722
 40
2.500000
 39
0
 62
0
  0
CIRCLE
  8
default
  6
CONTINUOUS
 10
63.695500
 20
217.825402
 40
2.500000
 39
0
 62
0
  0
CIRCLE
  8
default
  6
CONTINUOUS
 10
104.249490
 20
234.623415
 40
2.500000
 39
0
 62
0
  0
CIRCLE
  8
default
  6
CONTINUOUS
 10
148.144812
 20
234.623415
 40
2.500000
 39
0
 62
0
  0
CIRCLE
  8
default
  6
CONTINUOUS
 10
188.698802
 20
217.825402
 40
2.500000
 39
0
 62
0
  0
CIRCLE
  8
default
  6
CONTINUOUS
 10
219.737482
 20
186.786722
 40
2.500000
 39
0
 62
0
  0
CIRCLE
  8
default
  6
CONTINUOUS
 10
236.535495
 20
146.232732
 40
2.500000
 39
0
 62
0
  0
CIRCLE
  8
default
  6
CONTINUOUS
 10
236.535495
 20
102.337410
 40
2.500000
 39
0
 62
0
  0
CIRCLE
  8
default
  6
CONTINUOUS
 10
219.737482
 20
61.783420
 40
2.500000
 39
0
 62
0
  0
CIRCLE
  8
default
  6
CONTINUOUS
 10
188.698802
 20
30.744740
 40
2.500000
 39
0
 62
0
  0
CIRCLE
  8
default
  6
CONTINUOUS
 10
148.144812
 20
13.946727
 40
2.500000
 39
0
 62
0
  0
CIRCLE
  8
default
  6
CONTINUOUS
 10
104.249490
 20
13.946727
 40
2.500000
 39
0
 62
0
  0
CIRCLE
  8
default
  6
CONTINUOUS
 10
63.695500
 20
30.744740
 40
2.500000
 39
0
 62
0
  0
CIRCLE
  8
default
  6
CONTINUOUS
 10
32.656820
 20
61.783420
 40
2.500000
 39
0
 62
0
  0
CIRCLE
  8
default
  6
CONTINUOUS
 10
15.858807
 20
102.337410
 40
2.500000
 39
0
 62
0
  0
CIRCLE
  8
default
  6
CONTINUOUS
 10
44.895752
 20
157.961213
 40
2.500000
 39
0
 62
0
  0
CIRCLE
  8
default
  6
CONTINUOUS
 10
92.521009
 20
205.586470
 40
2.500000
 39
0
 62
0
  0
CIRCLE
  8
default
  6
CONTINUOUS
 10
159.873293
 20
205.586470
 40
2.500000
 39
0
 62
0
  0
CIRCLE
  8
default
  6
CONTINUOUS
 10
207.498550
 20
157.961213
 40
2.500000
 39
0
 62
0
  0
CIRCLE
  8
default
  6
CONTINUOUS
 10
207.498550
 20
90.608929
 40
2.500000
 39
0
 62
0
  0
CIRCLE
  8
default
  6
CONTINUOUS
 10
159.873293
 20
42.983672
 40
2.500000
 39
0
 62
0
  0
CIRCLE
  8
default
  6
CONTINUOUS
 10
92.521009
 20
42.983672
 40
2.500000
 39
0
 62
0
  0
CIRCLE
  8
default
  6
CONTINUOUS
 10
44.895752
 20
90.608929
 40
2.500000
 39
0
 62
0
  0
CIRCLE
  8
default
  6
CONTINUOUS
 10
39.888046
 20
141.453019
 40
6.000000
 39
0
 62
0
  0
CIRCLE
  8
default
  6
CONTINUOUS
 10
53.027825
 20
173.175252
 40
6.000000
 39
0
 62
0
  0
CIRCLE
  8
default
  6
CONTINUOUS
 10
77.306970
 20
197.454397
 40
6.000000
 39
0
 62
0
  0
CIRCLE
  8
default
  6
CONTINUOUS
 10
109.029203
 20
210.594176
 40
6.000000
 39
0
 62
0
  0
CIRCLE
  8
default
  6
CONTINUOUS
 10
143.365099
 20
210.594176
 40
6.000000
 39
0
 62
0
  0
CIRCLE
  8
default
  6
CONTINUOUS
 10
175.087332
 20
197.454397
 40
6.000000
 39
0
 62
0
  0
CIRCLE
  8
default
  6
CONTINUOUS
 10
199.366477
 20
173.175252
 40
6.000000
 39
0
 62
0
  0
CIRCLE
  8
default
  6
CONTINUOUS
 10
212.506256
 20
141.453019
 40
6.000000
 39
0
 62
0
  0
CIRCLE
  8
default
  6
CONTINUOUS
 10
212.506256
 20
107.117123
 40
6.000000
 39
0
 62
0
  0
CIRCLE
  8
default
  6
CONTINUOUS
 10
199.366477
 20
75.394890
 40
6.000000
 39
0
 62
0
  0
CIRCLE
  8
default
  6
CONTINUOUS
 10
175.087332
 20
51.115745
 40
6.000000
 39
0
 62
0
  0
CIRCLE
  8
default
  6
CONTINUOUS
 10
143.365099
 20
37.975966
 40
6.000000
 39
0
 62
0
  0
CIRCLE
  8
default
  6
CONTINUOUS
 10
109.029203
 20
37.975966
 40
6.000000
 39
0
 62
0
  0
CIRCLE
  8
default
  6
CONTINUOUS
 10
77.306970
 20
51.115745
 40
6.000000
 39
0
 62
0
  0
CIRCLE
  8
default
  6
CONTINUOUS
 10
53.027825
 20
75.394890
 40
6.000000
 39
0
 62
0
  0
CIRCLE
  8
default
  6
CONTINUOUS
 10
39.888046
 20
107.117123
 40
6.000000
 39
0
 62
0
  0
ARC
  8
default
  6
CONTINUOUS
 10
52.447151
 20
124.285071
 40
3.750000
 50
90.000000
 51
270.000000
 39
0
 62
0
  0
ARC
  8
default
  6
CONTINUOUS
 10
89.947151
 20
124.285071
 40
3.750000
 50
270.000000
 51
90.000000
 39
0
 62
0
  0
LINE
  8
default
  6
CONTINUOUS
 10
52.447151
 20
128.035071
 11
89.947151
 21
128.035071
 39
0
 62
0
  0
LINE
  8
default
  6
CONTINUOUS
 10
89.947151
 20
120.535071
 11
52.447151
 21
120.535071
 39
0
 62
0
  0
POINT
  8
default
  6
CONTINUOUS
 10
32.656820
 20
186.786722
 39
0
 62
9
  0
POINT
  8
default
  6
CONTINUOUS
 10
63.695500
 20
217.825402
 39
0
 62
9
  0
POINT
  8
default
  6
CONTINUOUS
 10
104.249490
 20
234.623415
 39
0
 62
9
  0
POINT
  8
default
  6
CONTINUOUS
 10
148.144812
 20
234.623415
 39
0
 62
9
  0
POINT
  8
default
  6
CONTINUOUS
 10
188.698802
 20
217.825402
 39
0
 62
9
  0
POINT
  8
default
  6
CONTINUOUS
 10
219.737482
 20
186.786722
 39
0
 62
9
  0
POINT
  8
default
  6
CONTINUOUS
 10
236.535495
 20
146.232732
 39
0
 62
9
  0
POINT
  8
default
  6
CONTINUOUS
 10
236.535495
 20
102.337410
 39
0
 62
9
  0
POINT
  8
default
  6
CONTINUOUS
 10
219.737482
 20
61.783420
 39
0
 62
9
  0
POINT
  8
default
  6
CONTINUOUS
 10
188.698802
 20
30.744740
 39
0
 62
9
  0
POINT
  8
default
  6
CONTINUOUS
 10
148.144812
 20
13.946727
 39
0
 62
9
  0
POINT
  8
default
  6
CONTINUOUS
 10
104.249490
 20
13.946727
 39
0
 62
9
  0
POINT
  8
default
  6
CONTINUOUS
 10
63.695500
 20
30.744740
 39
0
 62
9
  0
POINT
  8
default
  6
CONTINUOUS
 10
32.656820
 20
61.783420
 39
0
 62
9
  0
POINT
  8
default
  6
CONTINUOUS
 10
15.858807
 20
102.337410
 39
0
 62
9
  0
POINT
  8
default
  6
CONTINUOUS
 10
15.858807
 20
146.232732
 39
0
 62
9
  0
POINT
  8
default
  6
CONTINUOUS
 10
39.888046
 20
141.453019
 39
0
 62
9
  0
POINT
  8
default
  6
CONTINUOUS
 10
44.895752
 20
157.961213
 39
0
 62
9
  0
POINT
  8
default
  6
CONTINUOUS
 10
53.027825
 20
173.175252
 39
0
 62
9
  0
POINT
  8
default
  6
CONTINUOUS
 10
77.306970
 20
197.454397
 39
0
 62
9
  0
POINT
  8
default
  6
CONTINUOUS
 10
92.521009
 20
205.586470
 39
0
 62
9
  0
POINT
  8
default
  6
CONTINUOUS
 10
109.029203
 20
210.594176
 39
0
 62
9
  0
POINT
  8
default
  6
CONTINUOUS
 10
143.365099
 20
210.594176
 39
0
 62
9
  0
POINT
  8
default
  6
CONTINUOUS
 10
159.873293
 20
205.586470
 39
0
 62
9
  0
POINT
  8
default
  6
CONTINUOUS
 10
175.087332
 20
197.454397
 39
0
 62
9
  0
POINT
  8
default
  6
CONTINUOUS
 10
199.366477
 20
173.175252
 39
0
 62
9
  0
POINT
  8
default
  6
CONTINUOUS
 10
207.498550
 20
157.961213
 39
0
 62
9
  0
POINT
  8
default
  6
CONTINUOUS
 10
212.506256
 20
141.453019
 39
0
 62
9
  0
POINT
  8
default
  6
CONTINUOUS
 10
212.506256
 20
107.117123
 39
0
 62
9
  0
POINT
  8
default
  6
CONTINUOUS
 10
207.498550
 20
90.608929
 39
0
 62
9
  0
POINT
  8
default
  6
CONTINUOUS
 10
199.366477
 20
75.394890
 39
0
 62
9
  0
POINT
  8
default
  6
CONTINUOUS
 10
175.087332
 20
51.115745
 39
0
 62
9
  0
POINT
  8
default
  6
CONTINUOUS
 10
159.873293
 20
42.983672
 39
0
 62
9
  0
POINT
  8
default
  6
CONTINUOUS
 10
143.365099
 20
37.975966
 39
0
 62
9
  0
POINT
  8
default
  6
CONTINUOUS
 10
109.029203
 20
37.975966
 39
0
 62
9
  0
POINT
  8
default
  6
CONTINUOUS
 10
92.521009
 20
42.983672
 39
0
 62
9
  0
POINT
  8
default
  6
CONTINUOUS
 10
77.306970
 20
51.115745
 39
0
 62
9
  0
POINT
  8
default
  6
CONTINUOUS
 10
53.027825
 20
75.394890
 39
0
 62
9
  0
POINT
  8
default
  6
CONTINUOUS
 10
44.895752
 20
90.608929
 39
0
 62
9
  0
POINT
  8
default
  6
CONTINUOUS
 10
39.888046
 20
107.117123
 39
0
 62
9
  0
POINT
  8
default
  6
CONTINUOUS
 10
126.197151
 20
124.285071
 39
0
 62
9
  0
CIRCLE
  8
default
  6
CONTINUOUS
 10
374.473826
 20
124.285071
 40
125.000000
 39
0
 62
0
  0
CIRCLE
  8
default
  6
CONTINUOUS
 10
374.473826
 20
124.285071
 40
16.000000
 39
0
 62
0
  0
CIRCLE
  8
default
  6
CONTINUOUS
 10
264.135482
 20
146.232732
 40
2.500000
 39
0
 62
0
  0
CIRCLE
  8
default
  6
CONTINUOUS
 10
280.933495
 20
186.786722
 40
2.500000
 39
0
 62
0
  0
CIRCLE
  8
default
  6
CONTINUOUS
 10
311.972175
 20
217.825402
 40
2.500000
 39
0
 62
0
  0
CIRCLE
  8
default
  6
CONTINUOUS
 10
352.526165
 20
234.623415
 40
2.500000
 39
0
 62
0
  0
CIRCLE
  8
default
  6
CONTINUOUS
 10
396.421487
 20
234.623415
 40
2.500000
 39
0
 62
0
  0
CIRCLE
  8
default
  6
CONTINUOUS
 10
436.975477
 20
217.825402
 40
2.500000
 39
0
 62
0
  0
CIRCLE
  8
default
  6
CONTINUOUS
 10
468.014157
 20
186.786722
 40
2.500000
 39
0
 62
0
  0
CIRCLE
  8
default
  6
CONTINUOUS
 10
484.812170
 20
146.232732
 40
2.500000
 39
0
 62
0
  0
CIRCLE
  8
default
  6
CONTINUOUS
 10
484.812170
 20
102.337410
 40
2.500000
 39
0
 62
0
  0
CIRCLE
  8
default
  6
CONTINUOUS
 10
468.014157
 20
61.783420
 40
2.500000
 39
0
 62
0
  0
CIRCLE
  8
default
  6
CONTINUOUS
 10
436.975477
 20
30.744740
 40
2.500000
 39
0
 62
0
  0
CIRCLE
  8
default
  6
CONTINUOUS
 10
396.421487
 20
13.946727
 40
2.500000
 39
0
 62
0
  0
CIRCLE
  8
default
  6
CONTINUOUS
 10
352.526165
 20
13.946727
 40
2.500000
 39
0
 62
0
  0
CIRCLE
  8
default
  6
CONTINUOUS
 10
311.972175
 20
30.744740
 40
2.500000
 39
0
 62
0
  0
CIRCLE
  8
default
  6
CONTINUOUS
 10
280.933495
 20
61.783420
 40
2.500000
 39
0
 62
0
  0
CIRCLE
  8
default
  6
CONTINUOUS
 10
264.135482
 20
102.337410
 40
2.500000
 39
0
 62
0
  0
CIRCLE
  8
default
  6
CONTINUOUS
 10
293.172427
 20
157.961213
 40
2.500000
 39
0
 62
0
  0
CIRCLE
  8
default
  6
CONTINUOUS
 10
340.797684
 20
205.586470
 40
2.500000
 39
0
 62
0
  0
CIRCLE
  8
default
  6
CONTINUOUS
 10
408.149968
 20
205.586470
 40
2.500000
 39
0
 62
0
  0
CIRCLE
  8
default
  6
CONTINUOUS
 10
455.775225
 20
157.961213
 40
2.500000
 39
0
 62
0
  0
CIRCLE
  8
default
  6
CONTINUOUS
 10
455.775225
 20
90.608929
 40
2.500000
 39
0
 62
0
  0
CIRCLE
  8
default
  6
CONTINUOUS
 10
408.149968
 20
42.983672
 40
2.500000
 39
0
 62
0
  0
CIRCLE
  8
default
  6
CONTINUOUS
 10
340.797684
 20
42.983672
 40
2.500000
 39
0
 62
0
  0
CIRCLE
  8
default
  6
CONTINUOUS
 10
293.172427
 20
90.608929
 40
2.500000
 39
0
 62
0
  0
CIRCLE
  8
default
  6
CONTINUOUS
 10
288.164721
 20
141.453019
 40
6.000000
 39
0
 62
0
  0
CIRCLE
  8
default
  6
CONTINUOUS
 10
301.304500
 20
173.175252
 40
6.000000
 39
0
 62
0
  0
CIRCLE
  8
default
  6
CONTINUOUS
 10
325.583645
 20
197.454397
 40
6.000000
 39
0
 62
0
  0
CIRCLE
  8
default
  6
CONTINUOUS
 10
357.305878
 20
210.594176
 40
6.000000
 39
0
 62
0
  0
CIRCLE
  8
default
  6
CONTINUOUS
 10
391.641774
 20
210.594176
 40
6.000000
 39
0
 62
0
  0
CIRCLE
  8
default
  6
CONTINUOUS
 10
423.364007
 20
197.454397
 40
6.000000
 39
0
 62
0
  0
CIRCLE
  8
default
  6
CONTINUOUS
 10
447.643152
 20
173.175252
 40
6.000000
 39
0
 62
0
  0
CIRCLE
  8
default
  6
CONTINUOUS
 10
460.782931
 20
141.453019
 40
6.000000
 39
0
 62
0
  0
CIRCLE
  8
default
  6
CONTINUOUS
 10
460.782931
 20
107.117123
 40
6.000000
 39
0
 62
0
  0
CIRCLE
  8
default
  6
CONTINUOUS
 10
447.643152
 20
75.394890
 40
6.000000
 39
0
 62
0
  0
CIRCLE
  8
default
  6
CONTINUOUS
 10
423.364007
 20
51.115745
 40
6.000000
 39
0
 62
0
  0
CIRCLE
  8
default
  6
CONTINUOUS
 10
391.641774
 20
37.975966
 40
6.000000
 39
0
 62
0
  0
CIRCLE
  8
default
  6
CONTINUOUS
 10
357.305878
 20
37.975966
 40
6.000000
 39
0
 62
0
  0
CIRCLE
  8
default
  6
CONTINUOUS
 10
325.583645
 20
51.115745
 40
6.000000
 39
0
 62
0
  0
CIRCLE
  8
default
  6
CONTINUOUS
 10
301.304500
 20
75.394890
 40
6.000000
 39
0
 62
0
  0
CIRCLE
  8
default
  6
CONTINUOUS
 10
288.164721
 20
107.117123
 40
6.000000
 39
0
 62
0
  0
ARC
  8
default
  6
CONTINUOUS
 10
300.723826
 20
124.285071
 40
3.750000
 50
90.000000
 51
270.000000
 39
0
 62
0
  0
ARC
  8
default
  6
CONTINUOUS
 10
338.223826
 20
124.285071
 40
3.750000
 50
270.000000
 51
90.000000
 39
0
 62
0
  0
LINE
  8
default
  6
CONTINUOUS
 10
300.723826
 20
128.035071
 11
338.223826
 21
128.035071
 39
0
 62
0
  0
LINE
  8
default
  6
CONTINUOUS
 10
338.223826
 20
120.535071
 11
300.723826
 21
120.535071
 39
0
 62
0
  0
POINT
  8
default
  6
CONTINUOUS
 10
280.933495
 20
186.786722
 39
0
 62
9
  0
POINT
  8
default
  6
CONTINUOUS
 10
311.972175
 20
217.825402
 39
0
 62
9
  0
POINT
  8
default
  6
CONTINUOUS
 10
352.526165
 20
234.623415
 39
0
 62
9
  0
POINT
  8
default
  6
CONTINUOUS
 10
396.421487
 20
234.623415
 39
0
 62
9
  0
POINT
  8
default
  6
CONTINUOUS
 10
436.975477
 20
217.825402
 39
0
 62
9
  0
POINT
  8
default
  6
CONTINUOUS
 10
468.014157
 20
186.786722
 39
0
 62
9
  0
POINT
  8
default
  6
CONTINUOUS
 10
484.812170
 20
146.232732
 39
0
 62
9
  0
POINT
  8
default
  6
CONTINUOUS
 10
484.812170
 20
102.337410
 39
0
 62
9
  0
POINT
  8
default
  6
CONTINUOUS
 10
468.014157
 20
61.783420
 39
0
 62
9
  0
POINT
  8
default
  6
CONTINUOUS
 10
436.975477
 20
30.744740
 39
0
 62
9
  0
POINT
  8
default
  6
CONTINUOUS
 10
396.421487
 20
13.946727
 39
0
 62
9
  0
POINT
  8
default
  6
CONTINUOUS
 10
352.526165
 20
13.946727
 39
0
 62
9
  0
POINT
  8
default
  6
CONTINUOUS
 10
311.972175
 20
30.744740
 39
0
 62
9
  0
POINT
  8
default
  6
CONTINUOUS
 10
280.933495
 20
61.783420
 39
0
 62
9
  0
POINT
  8
default
  6
CONTINUOUS
 10
264.135482
 20
102.337410
 39
0
 62
9
  0
POINT
  8
default
  6
CONTINUOUS
 10
264.135482
 20
146.232732
 39
0
 62
9
  0
POINT
  8
default
  6
CONTINUOUS
 10
288.164721
 20
141.453019
 39
0
 62
9
  0
POINT
  8
default
  6
CONTINUOUS
 10
293.172427
 20
157.961213
 39
0
 62
9
  0
POINT
  8
default
  6
CONTINUOUS
 10
301.304500
 20
173.175252
 39
0
 62
9
  0
POINT
  8
default
  6
CONTINUOUS
 10
325.583645
 20
197.454397
 39
0
 62
9
  0
POINT
  8
default
  6
CONTINUOUS
 10
340.797684
 20
205.586470
 39
0
 62
9
  0
POINT
  8
default
  6
CONTINUOUS
 10
357.305878
 20
210.594176
 39
0
 62
9
  0
POINT
  8
default
  6
CONTINUOUS
 10
391.641774
 20
210.594176
 39
0
 62
9
  0
POINT
  8
default
  6
CONTINUOUS
 10
408.149968
 20
205.586470
 39
0
 62
9
  0
POINT
  8
default
  6
CONTINUOUS
 10
423.364007
 20
197.454397
 39
0
 62
9
  0
POINT
  8
default
  6
CONTINUOUS
 10
447.643152
 20
173.175252
 39
0
 62
9
  0
POINT
  8
default
  6
CONTINUOUS
 10
455.775225
 20
157.961213
 39
0
 62
9
  0
POINT
  8
default
  6
CONTINUOUS
 10
460.782931
 20
141.453019
 39
0
 62
9
  0
POINT
  8
default
  6
CONTINUOUS
 10
460.782931
 20
107.117123
 39
0
 62
9
  0
POINT
  8
default
  6
CONTINUOUS
 10
455.775225
 20
90.608929
 39
0
 62
9
  0
POINT
  8
default
  6
CONTINUOUS
 10
447.643152
 20
75.394890
 39
0
 62
9
  0
POINT
  8
default
  6
CONTINUOUS
 10
423.364007
 20
51.115745
 39
0
 62
9
  0
POINT
  8
default
  6
CONTINUOUS
 10
408.149968
 20
42.983672
 39
0
 62
9
  0
POINT
  8
default
  6
CONTINUOUS
 10
391.641774
 20
37.975966
 39
0
 62
9
  0
POINT
  8
default
  6
CONTINUOUS
 10
357.305878
 20
37.975966
 39
0
 62
9
  0
POINT
  8
default
  6
CONTINUOUS
 10
340.797684
 20
42.983672
 39
0
 62
9
  0
POINT
  8
default
  6
CONTINUOUS
 10
325.583645
 20
51.115745
 39
0
 62
9
  0
POINT
  8
default
  6
CONTINUOUS
 10
301.304500
 20
75.394890
 39
0
 62
9
  0
POINT
  8
default
  6
CONTINUOUS
 10
293.172427
 20
90.608929
 39
0
 62
9
  0
POINT
  8
default
  6
CONTINUOUS
 10
288.164721
 20
107.117123
 39
0
 62
9
  0
POINT
  8
default
  6
CONTINUOUS
 10
374.473826
 20
124.285071
 39
0
 62
9
  0
LINE
  8
default
  6
CONTINUOUS
 10
52.447151
 20
124.285071
 11
89.947151
 21
124.285071
 39
0
 62
9
  0
LINE
  8
default
  6
CONTINUOUS
 10
300.723826
 20
124.285071
 11
338.223826
 21
124.285071
 39
0
 62
9
  0
CIRCLE
  8
default
  6
CONTINUOUS
 10
126.197151
 20
124.285071
 40
123.000000
 39
0
 62
9
  0
CIRCLE
  8
default
  6
CONTINUOUS
 10
374.473826
 20
124.285071
 40
123.000000
 39
0
 62
9
  0
CIRCLE
  8
default
  6
CONTINUOUS
 10
126.197151
 20
124.285071
 40
14.000000
 39
0
 62
9
  0
CIRCLE
  8
default
  6
CONTINUOUS
 10
374.473826
 20
124.285071
 40
14.000000
 39
0
 62
9
  0
ARC
  8
default
  6
CONTINUOUS
 10
89.947151
 20
124.285071
 40
1.750000
 50
270.000000
 51
90.000000
 39
0
 62
6
  0
LINE
  8
default
  6
CONTINUOUS
 10
52.447151
 20
126.035071
 11
89.947151
 21
126.035071
 39
0
 62
6
  0
ARC
  8
default
  6
CONTINUOUS
 10
52.447151
 20
124.285071
 40
1.750000
 50
90.000000
 51
270.000000
 39
0
 62
6
  0
LINE
  8
default
  6
CONTINUOUS
 10
89.947151
 20
122.535071
 11
52.447151
 21
122.535071
 39
0
 62
6
  0
ARC
  8
default
  6
CONTINUOUS
 10
338.223826
 20
124.285071
 40
1.750000
 50
270.000000
 51
90.000000
 39
0
 62
6
  0
LINE
  8
default
  6
CONTINUOUS
 10
300.723826
 20
126.035071
 11
338.223826
 21
126.035071
 39
0
 62
6
  0
ARC
  8
default
  6
CONTINUOUS
 10
300.723826
 20
124.285071
 40
1.750000
 50
90.000000
 51
270.000000
 39
0
 62
6
  0
LINE
  8
default
  6
CONTINUOUS
 10
338.223826
 20
122.535071
 11
300.723826
 21
122.535071
 39
0
 62
6
  0
ENDSEC
  0
EOF
