  0
SECTION
  2
HEADER
  9
$LIMMIN
 10
-38.690895
 20
-142.167948
  9
$LIMMAX
 10
211.309105
 20
107.832052
  9
$EXTMIN
 10
-38.690895
 20
-142.167948
  9
$EXTMAX
 10
211.309105
 20
107.832052
  9
$ANGBASE
 50
0.000000
  9
$ANGDIR
 70
0
  9
$INSUNITS
 70
4
  9
$DIMALT
 70
4
  9
$DIMLUNIT
 70
2
  9
$DIMASZ
 40
3.000000
  9
$DIMTXT
 40
5.000000
  9
$DIMRND
 40
0.010000
  9
$DIMEXE
 40
2.000000
  9
$DIMEXO
 40
2.000000
  9
$DIMAUNIT
 70
0
  9
$DIMADEC
 70
2
  9
$GRIDUNIT
 10
0.001000
 20
0.001000
  9
$PLIMMIN
 10
-39.888046
 20
-141.453019
  9
$PLIMMAX
 10
460.111954
 20
858.546981
  9
$PSVPSCALE
 40
1.000000
  0
ENDSEC
  0
SECTION
  2
TABLES
  0
TABLE
  2
LTYPE
 70
     1
  0
LTYPE
  2
CONTINUOUS
 70
    64
  3
Ausgez
 72
    65
 73
  0
 40
0.000000
  0
ENDTAB
  0
TABLE
  2
LAYER
 70
     1
  0
LAYER
  2
default
 70
    64
 62
0
  6
CONTINUOUS
  0
ENDTAB
  0
ENDSEC
  0
SECTION
  2
BLOCKS
  0
ENDSEC
  0
SECTION
  2
ENTITIES
  0
CIRCLE
  8
default
  6
CONTINUOUS
 10
86.309105
 20
-17.167948
 40
125.000000
 39
0
 62
0
  0
CIRCLE
  8
default
  6
CONTINUOUS
 10
86.309105
 20
-17.167948
 40
16.000000
 39
0
 62
0
  0
CIRCLE
  8
default
  6
CONTINUOUS
 10
-24.029239
 20
4.779713
 40
2.500000
 39
0
 62
0
  0
CIRCLE
  8
default
  6
CONTINUOUS
 10
-7.231226
 20
45.333703
 40
2.500000
 39
0
 62
0
  0
CIRCLE
  8
default
  6
CONTINUOUS
 10
23.807454
 20
76.372383
 40
2.500000
 39
0
 62
0
  0
CIRCLE
  8
default
  6
CONTINUOUS
 10
64.361444
 20
93.170396
 40
2.500000
 39
0
 62
0
  0
CIRCLE
  8
default
  6
CONTINUOUS
 10
108.256766
 20
93.170396
 40
2.500000
 39
0
 62
0
  0
CIRCLE
  8
default
  6
CONTINUOUS
 10
148.810756
 20
76.372383
 40
2.500000
 39
0
 62
0
  0
CIRCLE
  8
default
  6
CONTINUOUS
 10
179.849436
 20
45.333703
 40
2.500000
 39
0
 62
0
  0
CIRCLE
  8
default
  6
CONTINUOUS
 10
196.647449
 20
4.779713
 40
2.500000
 39
0
 62
0
  0
CIRCLE
  8
default
  6
CONTINUOUS
 10
196.647449
 20
-39.115609
 40
2.500000
 39
0
 62
0
  0
CIRCLE
  8
default
  6
CONTINUOUS
 10
179.849436
 20
-79.669599
 40
2.500000
 39
0
 62
0
  0
CIRCLE
  8
default
  6
CONTINUOUS
 10
148.810756
 20
-110.708279
 40
2.500000
 39
0
 62
0
  0
CIRCLE
  8
default
  6
CONTINUOUS
 10
108.256766
 20
-127.506292
 40
2.500000
 39
0
 62
0
  0
CIRCLE
  8
default
  6
CONTINUOUS
 10
64.361444
 20
-127.506292
 40
2.500000
 39
0
 62
0
  0
CIRCLE
  8
default
  6
CONTINUOUS
 10
23.807454
 20
-110.708279
 40
2.500000
 39
0
 62
0
  0
CIRCLE
  8
default
  6
CONTINUOUS
 10
-7.231226
 20
-79.669599
 40
2.500000
 39
0
 62
0
  0
CIRCLE
  8
default
  6
CONTINUOUS
 10
-24.029239
 20
-39.115609
 40
2.500000
 39
0
 62
0
  0
CIRCLE
  8
default
  6
CONTINUOUS
 10
5.007706
 20
16.508194
 40
2.500000
 39
0
 62
0
  0
CIRCLE
  8
default
  6
CONTINUOUS
 10
52.632963
 20
64.133451
 40
2.500000
 39
0
 62
0
  0
CIRCLE
  8
default
  6
CONTINUOUS
 10
119.985247
 20
64.133451
 40
2.500000
 39
0
 62
0
  0
CIRCLE
  8
default
  6
CONTINUOUS
 10
167.610504
 20
16.508194
 40
2.500000
 39
0
 62
0
  0
CIRCLE
  8
default
  6
CONTINUOUS
 10
167.610504
 20
-50.844090
 40
2.500000
 39
0
 62
0
  0
CIRCLE
  8
default
  6
CONTINUOUS
 10
119.985247
 20
-98.469347
 40
2.500000
 39
0
 62
0
  0
CIRCLE
  8
default
  6
CONTINUOUS
 10
52.632963
 20
-98.469347
 40
2.500000
 39
0
 62
0
  0
CIRCLE
  8
default
  6
CONTINUOUS
 10
5.007706
 20
-50.844090
 40
2.500000
 39
0
 62
0
  0
CIRCLE
  8
default
  6
CONTINUOUS
 10
0.000000
 20
0.000000
 40
6.000000
 39
0
 62
0
  0
CIRCLE
  8
default
  6
CONTINUOUS
 10
13.139779
 20
31.722233
 40
6.000000
 39
0
 62
0
  0
CIRCLE
  8
default
  6
CONTINUOUS
 10
37.418924
 20
56.001378
 40
6.000000
 39
0
 62
0
  0
CIRCLE
  8
default
  6
CONTINUOUS
 10
69.141157
 20
69.141157
 40
6.000000
 39
0
 62
0
  0
CIRCLE
  8
default
  6
CONTINUOUS
 10
103.477053
 20
69.141157
 40
6.000000
 39
0
 62
0
  0
CIRCLE
  8
default
  6
CONTINUOUS
 10
135.199286
 20
56.001378
 40
6.000000
 39
0
 62
0
  0
CIRCLE
  8
default
  6
CONTINUOUS
 10
159.478431
 20
31.722233
 40
6.000000
 39
0
 62
0
  0
CIRCLE
  8
default
  6
CONTINUOUS
 10
172.618210
 20
0.000000
 40
6.000000
 39
0
 62
0
  0
CIRCLE
  8
default
  6
CONTINUOUS
 10
172.618210
 20
-34.335896
 40
6.000000
 39
0
 62
0
  0
CIRCLE
  8
default
  6
CONTINUOUS
 10
159.478431
 20
-66.058129
 40
6.000000
 39
0
 62
0
  0
CIRCLE
  8
default
  6
CONTINUOUS
 10
135.199286
 20
-90.337274
 40
6.000000
 39
0
 62
0
  0
CIRCLE
  8
default
  6
CONTINUOUS
 10
103.477053
 20
-103.477053
 40
6.000000
 39
0
 62
0
  0
CIRCLE
  8
default
  6
CONTINUOUS
 10
69.141157
 20
-103.477053
 40
6.000000
 39
0
 62
0
  0
CIRCLE
  8
default
  6
CONTINUOUS
 10
37.418924
 20
-90.337274
 40
6.000000
 39
0
 62
0
  0
CIRCLE
  8
default
  6
CONTINUOUS
 10
13.139779
 20
-66.058129
 40
6.000000
 39
0
 62
0
  0
CIRCLE
  8
default
  6
CONTINUOUS
 10
0.000000
 20
-34.335896
 40
6.000000
 39
0
 62
0
  0
POINT
  8
default
  6
CONTINUOUS
 10
-7.231226
 20
45.333703
 39
0
 62
9
  0
POINT
  8
default
  6
CONTINUOUS
 10
23.807454
 20
76.372383
 39
0
 62
9
  0
POINT
  8
default
  6
CONTINUOUS
 10
64.361444
 20
93.170396
 39
0
 62
9
  0
POINT
  8
default
  6
CONTINUOUS
 10
108.256766
 20
93.170396
 39
0
 62
9
  0
POINT
  8
default
  6
CONTINUOUS
 10
148.810756
 20
76.372383
 39
0
 62
9
  0
POINT
  8
default
  6
CONTINUOUS
 10
179.849436
 20
45.333703
 39
0
 62
9
  0
POINT
  8
default
  6
CONTINUOUS
 10
196.647449
 20
4.779713
 39
0
 62
9
  0
POINT
  8
default
  6
CONTINUOUS
 10
196.647449
 20
-39.115609
 39
0
 62
9
  0
POINT
  8
default
  6
CONTINUOUS
 10
179.849436
 20
-79.669599
 39
0
 62
9
  0
POINT
  8
default
  6
CONTINUOUS
 10
148.810756
 20
-110.708279
 39
0
 62
9
  0
POINT
  8
default
  6
CONTINUOUS
 10
108.256766
 20
-127.506292
 39
0
 62
9
  0
POINT
  8
default
  6
CONTINUOUS
 10
64.361444
 20
-127.506292
 39
0
 62
9
  0
POINT
  8
default
  6
CONTINUOUS
 10
23.807454
 20
-110.708279
 39
0
 62
9
  0
POINT
  8
default
  6
CONTINUOUS
 10
-7.231226
 20
-79.669599
 39
0
 62
9
  0
POINT
  8
default
  6
CONTINUOUS
 10
-24.029239
 20
-39.115609
 39
0
 62
9
  0
POINT
  8
default
  6
CONTINUOUS
 10
-24.029239
 20
4.779713
 39
0
 62
9
  0
POINT
  8
default
  6
CONTINUOUS
 10
5.007706
 20
16.508194
 39
0
 62
9
  0
POINT
  8
default
  6
CONTINUOUS
 10
52.632963
 20
64.133451
 39
0
 62
9
  0
POINT
  8
default
  6
CONTINUOUS
 10
119.985247
 20
64.133451
 39
0
 62
9
  0
POINT
  8
default
  6
CONTINUOUS
 10
167.610504
 20
16.508194
 39
0
 62
9
  0
POINT
  8
default
  6
CONTINUOUS
 10
167.610504
 20
-50.844090
 39
0
 62
9
  0
POINT
  8
default
  6
CONTINUOUS
 10
119.985247
 20
-98.469347
 39
0
 62
9
  0
POINT
  8
default
  6
CONTINUOUS
 10
52.632963
 20
-98.469347
 39
0
 62
9
  0
POINT
  8
default
  6
CONTINUOUS
 10
5.007706
 20
-50.844090
 39
0
 62
9
  0
LINE
  8
default
  6
CONTINUOUS
 10
12.559105
 20
-17.167948
 11
50.059105
 21
-17.167948
 39
0
 62
2
  0
CIRCLE
  8
default
  6
CONTINUOUS
 10
86.309105
 20
-17.167948
 40
14.000000
 39
0
 62
2
  0
ARC
  8
default
  6
CONTINUOUS
 10
12.559105
 20
-17.167948
 40
3.750000
 50
90.000000
 51
270.000000
 39
0
 62
6
  0
ARC
  8
default
  6
CONTINUOUS
 10
50.059105
 20
-17.167948
 40
3.750000
 50
270.000000
 51
90.000000
 39
0
 62
6
  0
LINE
  8
default
  6
CONTINUOUS
 10
12.559105
 20
-13.417948
 11
50.059105
 21
-13.417948
 39
0
 62
6
  0
LINE
  8
default
  6
CONTINUOUS
 10
50.059105
 20
-20.917948
 11
12.559105
 21
-20.917948
 39
0
 62
6
  0
ARC
  8
default
  6
CONTINUOUS
 10
50.059105
 20
-17.167948
 40
1.750000
 50
270.000000
 51
90.000000
 39
0
 62
0
  0
LINE
  8
default
  6
CONTINUOUS
 10
12.559105
 20
-15.417948
 11
50.059105
 21
-15.417948
 39
0
 62
0
  0
ARC
  8
default
  6
CONTINUOUS
 10
12.559105
 20
-17.167948
 40
1.750000
 50
90.000000
 51
270.000000
 39
0
 62
0
  0
LINE
  8
default
  6
CONTINUOUS
 10
50.059105
 20
-18.917948
 11
12.559105
 21
-18.917948
 39
0
 62
0
  0
ARC
  8
default
  6
CONTINUOUS
 10
12.559105
 20
-17.167948
 40
5.750000
 50
90.000000
 51
270.000000
 39
0
 62
0
  0
LINE
  8
default
  6
CONTINUOUS
 10
12.559105
 20
-11.417948
 11
50.059105
 21
-11.417948
 39
0
 62
0
  0
ARC
  8
default
  6
CONTINUOUS
 10
50.059105
 20
-17.167948
 40
5.750000
 50
270.000000
 51
90.000000
 39
0
 62
0
  0
LINE
  8
default
  6
CONTINUOUS
 10
50.059105
 20
-22.917948
 11
12.559105
 21
-22.917948
 39
0
 62
0
  0
POINT
  8
default
  6
CONTINUOUS
 10
0.000000
 20
0.000000
 39
0
 62
9
  0
POINT
  8
default
  6
CONTINUOUS
 10
13.139779
 20
31.722233
 39
0
 62
9
  0
POINT
  8
default
  6
CONTINUOUS
 10
37.418924
 20
56.001378
 39
0
 62
9
  0
POINT
  8
default
  6
CONTINUOUS
 10
69.141157
 20
69.141157
 39
0
 62
9
  0
POINT
  8
default
  6
CONTINUOUS
 10
172.618210
 20
-34.335896
 39
0
 62
9
  0
POINT
  8
default
  6
CONTINUOUS
 10
159.478431
 20
-66.058129
 39
0
 62
9
  0
POINT
  8
default
  6
CONTINUOUS
 10
135.199286
 20
-90.337274
 39
0
 62
9
  0
POINT
  8
default
  6
CONTINUOUS
 10
103.477053
 20
-103.477053
 39
0
 62
9
  0
POINT
  8
default
  6
CONTINUOUS
 10
103.477053
 20
69.141157
 39
0
 62
10
  0
POINT
  8
default
  6
CONTINUOUS
 10
135.199286
 20
56.001378
 39
0
 62
10
  0
POINT
  8
default
  6
CONTINUOUS
 10
159.478431
 20
31.722233
 39
0
 62
10
  0
POINT
  8
default
  6
CONTINUOUS
 10
172.618210
 20
0.000000
 39
0
 62
10
  0
POINT
  8
default
  6
CONTINUOUS
 10
69.141157
 20
-103.477053
 39
0
 62
10
  0
POINT
  8
default
  6
CONTINUOUS
 10
37.418924
 20
-90.337274
 39
0
 62
10
  0
POINT
  8
default
  6
CONTINUOUS
 10
13.139779
 20
-66.058129
 39
0
 62
10
  0
POINT
  8
default
  6
CONTINUOUS
 10
0.000000
 20
-34.335896
 39
0
 62
10
  0
POINT
  8
default
  6
CONTINUOUS
 10
86.309105
 20
-17.167948
 39
0
 62
10
  0
ENDSEC
  0
EOF
