  0
SECTION
  2
HEADER
  9
$LIMMIN
 10
0.000000
 20
0.000000
  9
$LIMMAX
 10
88.591969
 20
88.591969
  9
$EXTMIN
 10
0.000000
 20
0.000000
  9
$EXTMAX
 10
88.591969
 20
88.591969
  9
$ANGBASE
 50
0.000000
  9
$ANGDIR
 70
0
  9
$INSUNITS
 70
4
  9
$DIMALT
 70
4
  9
$DIMLUNIT
 70
2
  9
$DIMASZ
 40
3.000000
  9
$DIMTXT
 40
5.000000
  9
$DIMRND
 40
0.010000
  9
$DIMEXE
 40
2.000000
  9
$DIMEXO
 40
2.000000
  9
$DIMAUNIT
 70
0
  9
$DIMADEC
 70
2
  9
$GRIDUNIT
 10
0.001000
 20
0.001000
  9
$PLIMMIN
 10
0.000000
 20
0.000000
  9
$PLIMMAX
 10
210.000000
 20
297.000000
  9
$PSVPSCALE
 40
1.000000
  0
ENDSEC
  0
SECTION
  2
TABLES
  0
TABLE
  2
LTYPE
 70
     1
  0
LTYPE
  2
CONTINUOUS
 70
    64
  3
Ausgez
 72
    65
 73
  0
 40
0.000000
  0
ENDTAB
  0
TABLE
  2
LAYER
 70
     1
  0
LAYER
  2
default
 70
    64
 62
0
  6
CONTINUOUS
  0
LAYER
  2
Trajectoire_D3
 70
    64
 62
12
  6
CONTINUOUS
  0
ENDTAB
  0
ENDSEC
  0
SECTION
  2
BLOCKS
  0
ENDSEC
  0
SECTION
  2
ENTITIES
  0
LINE
  8
Trajectoire_D3
  6
CONTINUOUS
 10
5.069116
 20
74.626971
 11
13.289993
 21
88.591969
 39
0
 62
12
  0
LINE
  8
Trajectoire_D3
  6
CONTINUOUS
 10
5.000000
 20
74.373320
 11
5.000000
 21
33.552198
 39
0
 62
12
  0
ARC
  8
Trajectoire_D3
  6
CONTINUOUS
 10
5.500000
 20
33.552198
 40
0.500000
 50
180.000000
 51
260.690659
 39
0
 62
12
  0
LINE
  8
Trajectoire_D3
  6
CONTINUOUS
 10
7.481623
 20
73.376597
 11
6.957733
 21
51.343296
 39
0
 62
12
  0
ARC
  8
Trajectoire_D3
  6
CONTINUOUS
 10
9.980916
 20
73.317171
 40
2.500000
 50
108.884588
 51
178.637926
 39
0
 62
12
  0
ARC
  8
Trajectoire_D3
  6
CONTINUOUS
 10
5.500000
 20
74.373320
 40
0.500000
 50
149.515644
 51
180.000000
 39
0
 62
12
  0
LINE
  8
Trajectoire_D3
  6
CONTINUOUS
 10
13.289993
 20
88.591969
 11
17.167948
 21
86.309105
 39
0
 62
12
  0
ARC
  8
Trajectoire_D3
  6
CONTINUOUS
 10
0.000000
 20
-0.000000
 40
33.500000
 50
78.811944
 51
80.690659
 39
0
 62
12
  0
LINE
  8
Trajectoire_D3
  6
CONTINUOUS
 10
6.500000
 20
74.100835
 11
6.500000
 21
32.863353
 39
0
 62
12
  0
LINE
  8
Trajectoire_D3
  6
CONTINUOUS
 10
6.500000
 20
74.100835
 11
12.961227
 21
85.076673
 39
0
 62
12
  0
LINE
  8
Trajectoire_D3
  6
CONTINUOUS
 10
9.171759
 20
75.682602
 11
13.435435
 21
82.925409
 39
0
 62
12
  0
LINE
  8
Trajectoire_D3
  6
CONTINUOUS
 10
12.961227
 20
85.076673
 11
13.435435
 21
82.925409
 39
0
 62
12
  0
LINE
  8
Trajectoire_D3
  6
CONTINUOUS
 10
9.948202
 20
51.142598
 11
12.373846
 21
73.054464
 39
0
 62
12
  0
LINE
  8
Trajectoire_D3
  6
CONTINUOUS
 10
12.850570
 20
76.018260
 11
16.020738
 21
81.403500
 39
0
 62
12
  0
ARC
  8
Trajectoire_D3
  6
CONTINUOUS
 10
9.889024
 20
73.329534
 40
2.500000
 50
353.683077
 51
66.681027
 39
0
 62
12
  0
LINE
  8
Trajectoire_D3
  6
CONTINUOUS
 10
10.878648
 20
75.625322
 11
14.728087
 21
82.164454
 39
0
 62
12
  0
LINE
  8
Trajectoire_D3
  6
CONTINUOUS
 10
14.728087
 20
82.164454
 11
16.020738
 21
81.403500
 39
0
 62
12
  0
ARC
  8
Trajectoire_D3
  6
CONTINUOUS
 10
9.889024
 20
73.329534
 40
4.000000
 50
17.290830
 51
42.235656
 39
0
 62
12
  0
LINE
  8
Trajectoire_D3
  6
CONTINUOUS
 10
18.096191
 20
81.972308
 11
13.708258
 21
74.518422
 39
0
 62
12
  0
LINE
  8
Trajectoire_D3
  6
CONTINUOUS
 10
20.092571
 20
82.406793
 11
15.457833
 21
74.533655
 39
0
 62
12
  0
LINE
  8
Trajectoire_D3
  6
CONTINUOUS
 10
18.096191
 20
81.972308
 11
20.092571
 21
82.406793
 39
0
 62
12
  0
ARC
  8
Trajectoire_D3
  6
CONTINUOUS
 10
17.181368
 20
73.519049
 40
2.000000
 50
149.515644
 51
256.846080
 39
0
 62
12
  0
LINE
  8
Trajectoire_D3
  6
CONTINUOUS
 10
45.389107
 20
70.707322
 11
43.987614
 21
63.058727
 39
0
 62
12
  0
LINE
  8
Trajectoire_D3
  6
CONTINUOUS
 10
43.987614
 20
63.058727
 11
42.595883
 21
60.373243
 39
0
 62
12
  0
ARC
  8
Trajectoire_D3
  6
CONTINUOUS
 10
45.863012
 20
58.065459
 40
4.000000
 50
97.745812
 51
144.763974
 39
0
 62
12
  0
LINE
  8
Trajectoire_D3
  6
CONTINUOUS
 10
46.622063
 20
69.113646
 11
45.323898
 21
62.028962
 39
0
 62
12
  0
LINE
  8
Trajectoire_D3
  6
CONTINUOUS
 10
46.622063
 20
69.113646
 11
48.089055
 21
68.797211
 39
0
 62
12
  0
LINE
  8
Trajectoire_D3
  6
CONTINUOUS
 10
48.089055
 20
68.797211
 11
46.839914
 21
61.980074
 39
0
 62
12
  0
ARC
  8
Trajectoire_D3
  6
CONTINUOUS
 10
45.795258
 20
58.118896
 40
4.000000
 50
52.364411
 51
74.860866
 39
0
 62
12
  0
ARC
  8
Trajectoire_D3
  6
CONTINUOUS
 10
45.795258
 20
58.118896
 40
4.000000
 50
319.777002
 51
23.218002
 39
0
 62
12
  0
LINE
  8
Trajectoire_D3
  6
CONTINUOUS
 10
49.598758
 20
68.713875
 11
48.237807
 21
61.286538
 39
0
 62
12
  0
LINE
  8
Trajectoire_D3
  6
CONTINUOUS
 10
51.292350
 20
69.634103
 11
49.471304
 21
59.695819
 39
0
 62
12
  0
LINE
  8
Trajectoire_D3
  6
CONTINUOUS
 10
49.598758
 20
68.713875
 11
51.292350
 21
69.634103
 39
0
 62
12
  0
ARC
  8
Trajectoire_D3
  6
CONTINUOUS
 10
49.698275
 20
55.386177
 40
0.500000
 50
317.733214
 51
349.616572
 39
0
 62
12
  0
LINE
  8
Trajectoire_D3
  6
CONTINUOUS
 10
53.316487
 20
72.358270
 11
50.190086
 21
55.296060
 39
0
 62
12
  0
LINE
  8
Trajectoire_D3
  6
CONTINUOUS
 10
46.925940
 20
53.822675
 11
48.849406
 21
55.535839
 39
0
 62
12
  0
ARC
  8
Trajectoire_D3
  6
CONTINUOUS
 10
0.000000
 20
-0.000000
 40
33.500000
 50
48.532119
 51
79.932495
 39
0
 62
12
  0
LINE
  8
Trajectoire_D3
  6
CONTINUOUS
 10
6.950634
 20
37.867383
 11
5.856079
 21
32.984183
 39
0
 62
12
  0
ARC
  8
Trajectoire_D3
  6
CONTINUOUS
 10
-0.000000
 20
-0.000000
 40
38.500000
 50
49.927455
 51
79.599022
 39
0
 62
12
  0
LINE
  8
Trajectoire_D3
  6
CONTINUOUS
 10
46.925940
 20
53.822675
 11
24.784645
 21
29.461354
 39
0
 62
12
  0
LINE
  8
Trajectoire_D3
  6
CONTINUOUS
 10
24.132574
 20
28.423039
 11
22.831135
 21
25.996402
 39
0
 62
12
  0
LINE
  8
Trajectoire_D3
  6
CONTINUOUS
 10
31.287704
 20
41.764360
 11
43.821057
 21
59.507824
 39
0
 62
12
  0
LINE
  8
Trajectoire_D3
  6
CONTINUOUS
 10
31.287704
 20
41.764360
 11
25.025010
 21
30.087058
 39
0
 62
12
  0
LINE
  8
Trajectoire_D3
  6
CONTINUOUS
 10
47.704100
 20
56.504485
 11
28.041285
 21
33.255621
 39
0
 62
12
  0
LINE
  8
Trajectoire_D3
  6
CONTINUOUS
 10
6.957733
 20
51.343296
 11
7.278950
 21
39.332136
 39
0
 62
12
  0
LINE
  8
Trajectoire_D3
  6
CONTINUOUS
 10
9.948202
 20
51.142598
 11
7.278950
 21
39.332136
 39
0
 62
12
  0
ARC
  8
Trajectoire_D3
  6
CONTINUOUS
 10
-0.000000
 20
-0.000000
 40
43.500000
 50
49.862266
 51
79.334092
 39
0
 62
12
  0
LINE
  8
Trajectoire_D3
  6
CONTINUOUS
 10
8.051063
 20
42.748455
 11
9.153945
 21
47.628303
 39
0
 62
12
  0
ARC
  8
Trajectoire_D3
  6
CONTINUOUS
 10
0.000000
 20
0.000000
 40
48.500000
 50
52.499936
 51
79.120673
 39
0
 62
12
  0
ARC
  8
Trajectoire_D3
  6
CONTINUOUS
 10
-0.000000
 20
-0.000000
 40
53.500000
 50
53.375251
 51
78.947164
 39
0
 62
12
  0
ARC
  8
Trajectoire_D3
  6
CONTINUOUS
 10
0.000000
 20
0.000000
 40
58.500000
 50
54.099432
 51
78.803326
 39
0
 62
12
  0
ARC
  8
Trajectoire_D3
  6
CONTINUOUS
 10
0.000000
 20
0.000000
 40
63.500000
 50
54.708606
 51
78.682148
 39
0
 62
12
  0
ARC
  8
Trajectoire_D3
  6
CONTINUOUS
 10
0.000000
 20
0.000000
 40
68.500000
 50
55.228210
 51
78.578665
 39
0
 62
12
  0
LINE
  8
Trajectoire_D3
  6
CONTINUOUS
 10
29.524972
 20
38.477604
 11
31.916581
 21
42.936952
 39
0
 62
12
  0
LINE
  8
Trajectoire_D3
  6
CONTINUOUS
 10
10.256706
 20
52.507618
 11
11.359378
 21
57.386536
 39
0
 62
12
  0
LINE
  8
Trajectoire_D3
  6
CONTINUOUS
 10
34.303253
 20
47.387096
 11
36.686175
 21
51.830248
 39
0
 62
12
  0
LINE
  8
Trajectoire_D3
  6
CONTINUOUS
 10
12.461981
 20
62.265151
 11
11.579825
 21
58.361935
 39
0
 62
12
  0
LINE
  8
Trajectoire_D3
  6
CONTINUOUS
 10
39.066180
 20
56.267962
 11
37.158806
 21
52.711508
 39
0
 62
12
  0
LINE
  8
Trajectoire_D3
  6
CONTINUOUS
 10
37.158806
 20
52.711508
 11
41.273506
 21
60.383689
 39
0
 62
12
  0
LINE
  8
Trajectoire_D3
  6
CONTINUOUS
 10
11.579825
 20
58.361935
 11
14.667038
 21
72.021719
 39
0
 62
12
  0
LINE
  8
Trajectoire_D3
  6
CONTINUOUS
 10
14.667038
 20
72.021719
 11
13.564531
 21
67.143529
 39
0
 62
12
  0
LINE
  8
Trajectoire_D3
  6
CONTINUOUS
 10
53.316487
 20
72.358270
 11
48.890181
 21
73.169326
 39
0
 62
12
  0
ARC
  8
Trajectoire_D3
  6
CONTINUOUS
 10
-0.000000
 20
0.000000
 40
73.500000
 50
13.153920
 51
32.480936
 39
0
 62
12
  0
LINE
  8
Trajectoire_D3
  6
CONTINUOUS
 10
74.626971
 20
5.069116
 11
88.591969
 21
13.289993
 39
0
 62
12
  0
LINE
  8
Trajectoire_D3
  6
CONTINUOUS
 10
74.373320
 20
5.000000
 11
33.552198
 21
5.000000
 39
0
 62
12
  0
ARC
  8
Trajectoire_D3
  6
CONTINUOUS
 10
33.552198
 20
5.500000
 40
0.500000
 50
189.309341
 51
270.000000
 39
0
 62
12
  0
LINE
  8
Trajectoire_D3
  6
CONTINUOUS
 10
73.376597
 20
7.481623
 11
51.343296
 21
6.957733
 39
0
 62
12
  0
ARC
  8
Trajectoire_D3
  6
CONTINUOUS
 10
73.317171
 20
9.980916
 40
2.500000
 50
271.362074
 51
341.115412
 39
0
 62
12
  0
ARC
  8
Trajectoire_D3
  6
CONTINUOUS
 10
74.373320
 20
5.500000
 40
0.500000
 50
270.000000
 51
300.484356
 39
0
 62
12
  0
LINE
  8
Trajectoire_D3
  6
CONTINUOUS
 10
88.591969
 20
13.289993
 11
86.309105
 21
17.167948
 39
0
 62
12
  0
ARC
  8
Trajectoire_D3
  6
CONTINUOUS
 10
-0.000000
 20
0.000000
 40
33.500000
 50
9.309341
 51
11.188056
 39
0
 62
12
  0
LINE
  8
Trajectoire_D3
  6
CONTINUOUS
 10
74.100835
 20
6.500000
 11
32.863353
 21
6.500000
 39
0
 62
12
  0
LINE
  8
Trajectoire_D3
  6
CONTINUOUS
 10
74.100835
 20
6.500000
 11
85.076673
 21
12.961227
 39
0
 62
12
  0
LINE
  8
Trajectoire_D3
  6
CONTINUOUS
 10
75.682602
 20
9.171759
 11
82.925409
 21
13.435435
 39
0
 62
12
  0
LINE
  8
Trajectoire_D3
  6
CONTINUOUS
 10
85.076673
 20
12.961227
 11
82.925409
 21
13.435435
 39
0
 62
12
  0
LINE
  8
Trajectoire_D3
  6
CONTINUOUS
 10
51.142598
 20
9.948202
 11
73.054464
 21
12.373846
 39
0
 62
12
  0
LINE
  8
Trajectoire_D3
  6
CONTINUOUS
 10
76.018260
 20
12.850570
 11
81.403500
 21
16.020738
 39
0
 62
12
  0
ARC
  8
Trajectoire_D3
  6
CONTINUOUS
 10
73.329534
 20
9.889024
 40
2.500000
 50
23.318973
 51
96.316923
 39
0
 62
12
  0
LINE
  8
Trajectoire_D3
  6
CONTINUOUS
 10
75.625322
 20
10.878648
 11
82.164454
 21
14.728087
 39
0
 62
12
  0
LINE
  8
Trajectoire_D3
  6
CONTINUOUS
 10
82.164454
 20
14.728087
 11
81.403500
 21
16.020738
 39
0
 62
12
  0
ARC
  8
Trajectoire_D3
  6
CONTINUOUS
 10
73.329534
 20
9.889024
 40
4.000000
 50
47.764344
 51
72.709170
 39
0
 62
12
  0
LINE
  8
Trajectoire_D3
  6
CONTINUOUS
 10
81.972308
 20
18.096191
 11
74.518422
 21
13.708258
 39
0
 62
12
  0
LINE
  8
Trajectoire_D3
  6
CONTINUOUS
 10
82.406793
 20
20.092571
 11
74.533655
 21
15.457833
 39
0
 62
12
  0
LINE
  8
Trajectoire_D3
  6
CONTINUOUS
 10
81.972308
 20
18.096191
 11
82.406793
 21
20.092571
 39
0
 62
12
  0
ARC
  8
Trajectoire_D3
  6
CONTINUOUS
 10
73.519049
 20
17.181368
 40
2.000000
 50
193.153920
 51
300.484356
 39
0
 62
12
  0
LINE
  8
Trajectoire_D3
  6
CONTINUOUS
 10
70.707322
 20
45.389107
 11
63.058727
 21
43.987614
 39
0
 62
12
  0
LINE
  8
Trajectoire_D3
  6
CONTINUOUS
 10
73.980382
 20
44.463874
 11
70.707322
 21
45.389107
 39
0
 62
12
  0
LINE
  8
Trajectoire_D3
  6
CONTINUOUS
 10
63.058727
 20
43.987614
 11
60.373243
 21
42.595883
 39
0
 62
12
  0
ARC
  8
Trajectoire_D3
  6
CONTINUOUS
 10
58.065459
 20
45.863012
 40
4.000000
 50
305.236026
 51
352.254188
 39
0
 62
12
  0
LINE
  8
Trajectoire_D3
  6
CONTINUOUS
 10
69.113646
 20
46.622063
 11
62.028962
 21
45.323898
 39
0
 62
12
  0
LINE
  8
Trajectoire_D3
  6
CONTINUOUS
 10
69.113646
 20
46.622063
 11
68.797211
 21
48.089055
 39
0
 62
12
  0
LINE
  8
Trajectoire_D3
  6
CONTINUOUS
 10
68.797211
 20
48.089055
 11
61.980074
 21
46.839914
 39
0
 62
12
  0
ARC
  8
Trajectoire_D3
  6
CONTINUOUS
 10
58.118896
 20
45.795258
 40
4.000000
 50
15.139134
 51
37.635589
 39
0
 62
12
  0
ARC
  8
Trajectoire_D3
  6
CONTINUOUS
 10
58.118896
 20
45.795258
 40
4.000000
 50
66.781998
 51
130.222998
 39
0
 62
12
  0
LINE
  8
Trajectoire_D3
  6
CONTINUOUS
 10
68.713875
 20
49.598758
 11
61.286538
 21
48.237807
 39
0
 62
12
  0
LINE
  8
Trajectoire_D3
  6
CONTINUOUS
 10
69.634103
 20
51.292350
 11
59.695819
 21
49.471304
 39
0
 62
12
  0
LINE
  8
Trajectoire_D3
  6
CONTINUOUS
 10
68.713875
 20
49.598758
 11
69.634103
 21
51.292350
 39
0
 62
12
  0
ARC
  8
Trajectoire_D3
  6
CONTINUOUS
 10
55.386177
 20
49.698275
 40
0.500000
 50
100.383428
 51
132.266786
 39
0
 62
12
  0
LINE
  8
Trajectoire_D3
  6
CONTINUOUS
 10
72.358270
 20
53.316487
 11
55.296060
 21
50.190086
 39
0
 62
12
  0
LINE
  8
Trajectoire_D3
  6
CONTINUOUS
 10
53.822675
 20
46.925940
 11
55.535839
 21
48.849406
 39
0
 62
12
  0
ARC
  8
Trajectoire_D3
  6
CONTINUOUS
 10
-0.000000
 20
0.000000
 40
33.500000
 50
10.067505
 51
41.467881
 39
0
 62
12
  0
LINE
  8
Trajectoire_D3
  6
CONTINUOUS
 10
37.867383
 20
6.950634
 11
32.984183
 21
5.856079
 39
0
 62
12
  0
ARC
  8
Trajectoire_D3
  6
CONTINUOUS
 10
-0.000000
 20
0.000000
 40
38.500000
 50
10.400978
 51
40.072545
 39
0
 62
12
  0
LINE
  8
Trajectoire_D3
  6
CONTINUOUS
 10
53.822675
 20
46.925940
 11
29.461354
 21
24.784645
 39
0
 62
12
  0
LINE
  8
Trajectoire_D3
  6
CONTINUOUS
 10
28.423039
 20
24.132574
 11
25.996402
 21
22.831135
 39
0
 62
12
  0
LINE
  8
Trajectoire_D3
  6
CONTINUOUS
 10
41.764360
 20
31.287704
 11
59.507824
 21
43.821057
 39
0
 62
12
  0
LINE
  8
Trajectoire_D3
  6
CONTINUOUS
 10
41.764360
 20
31.287704
 11
30.087058
 21
25.025010
 39
0
 62
12
  0
LINE
  8
Trajectoire_D3
  6
CONTINUOUS
 10
56.504485
 20
47.704100
 11
33.255621
 21
28.041285
 39
0
 62
12
  0
LINE
  8
Trajectoire_D3
  6
CONTINUOUS
 10
51.343296
 20
6.957733
 11
39.332136
 21
7.278950
 39
0
 62
12
  0
LINE
  8
Trajectoire_D3
  6
CONTINUOUS
 10
51.142598
 20
9.948202
 11
39.332136
 21
7.278950
 39
0
 62
12
  0
ARC
  8
Trajectoire_D3
  6
CONTINUOUS
 10
-0.000000
 20
0.000000
 40
43.500000
 50
10.665908
 51
40.137734
 39
0
 62
12
  0
LINE
  8
Trajectoire_D3
  6
CONTINUOUS
 10
42.748455
 20
8.051063
 11
47.628303
 21
9.153945
 39
0
 62
12
  0
ARC
  8
Trajectoire_D3
  6
CONTINUOUS
 10
-0.000000
 20
0.000000
 40
48.500000
 50
10.879327
 51
37.500064
 39
0
 62
12
  0
ARC
  8
Trajectoire_D3
  6
CONTINUOUS
 10
-0.000000
 20
0.000000
 40
53.500000
 50
11.052836
 51
36.624749
 39
0
 62
12
  0
ARC
  8
Trajectoire_D3
  6
CONTINUOUS
 10
-0.000000
 20
0.000000
 40
58.500000
 50
11.196674
 51
35.900568
 39
0
 62
12
  0
ARC
  8
Trajectoire_D3
  6
CONTINUOUS
 10
-0.000000
 20
0.000000
 40
63.500000
 50
11.317852
 51
35.291394
 39
0
 62
12
  0
ARC
  8
Trajectoire_D3
  6
CONTINUOUS
 10
-0.000000
 20
0.000000
 40
68.500000
 50
11.421335
 51
34.771790
 39
0
 62
12
  0
LINE
  8
Trajectoire_D3
  6
CONTINUOUS
 10
38.477604
 20
29.524972
 11
42.936952
 21
31.916581
 39
0
 62
12
  0
LINE
  8
Trajectoire_D3
  6
CONTINUOUS
 10
52.507618
 20
10.256706
 11
57.386536
 21
11.359378
 39
0
 62
12
  0
LINE
  8
Trajectoire_D3
  6
CONTINUOUS
 10
47.387096
 20
34.303253
 11
51.830248
 21
36.686175
 39
0
 62
12
  0
LINE
  8
Trajectoire_D3
  6
CONTINUOUS
 10
62.265151
 20
12.461981
 11
58.361935
 21
11.579825
 39
0
 62
12
  0
LINE
  8
Trajectoire_D3
  6
CONTINUOUS
 10
56.267962
 20
39.066180
 11
52.711508
 21
37.158806
 39
0
 62
12
  0
LINE
  8
Trajectoire_D3
  6
CONTINUOUS
 10
52.711508
 20
37.158806
 11
60.383689
 21
41.273506
 39
0
 62
12
  0
LINE
  8
Trajectoire_D3
  6
CONTINUOUS
 10
58.361935
 20
11.579825
 11
72.021719
 21
14.667038
 39
0
 62
12
  0
LINE
  8
Trajectoire_D3
  6
CONTINUOUS
 10
72.021719
 20
14.667038
 11
67.143529
 21
13.564531
 39
0
 62
12
  0
LINE
  8
Trajectoire_D3
  6
CONTINUOUS
 10
72.358270
 20
53.316487
 11
73.169326
 21
48.890181
 39
0
 62
12
  0
ARC
  8
Trajectoire_D3
  6
CONTINUOUS
 10
0.000000
 20
0.000000
 40
73.500000
 50
57.519063
 51
76.846080
 39
0
 62
12
  0
LINE
  8
Trajectoire_D3
  6
CONTINUOUS
 10
44.463874
 20
73.980382
 11
45.389107
 21
70.707322
 39
0
 62
12
  0
ARC
  8
Trajectoire_D3
  6
CONTINUOUS
 10
45.863012
 20
58.065459
 40
2.500000
 50
52.726328
 51
144.763974
 39
0
 62
12
  0
ARC
  8
Trajectoire_D3
  6
CONTINUOUS
 10
45.795258
 20
58.118896
 40
2.500000
 50
319.777002
 51
50.748588
 39
0
 62
12
  0
ARC
  8
Trajectoire_D3
  6
CONTINUOUS
 10
58.118896
 20
45.795258
 40
2.500000
 50
39.251412
 51
130.222998
 39
0
 62
12
  0
ARC
  8
Trajectoire_D3
  6
CONTINUOUS
 10
58.065459
 20
45.863012
 40
2.500000
 50
305.236026
 51
37.273672
 39
0
 62
12
  0
ARC
  8
Trajectoire_D3
  6
CONTINUOUS
 10
22.514803
 20
25.477120
 40
0.500000
 50
228.532119
 51
317.733215
 39
0
 62
12
  0
LINE
  8
Trajectoire_D3
  6
CONTINUOUS
 10
73.980382
 20
44.463874
 11
63.329079
 21
42.512178
 39
0
 62
12
  0
ARC
  8
Trajectoire_D3
  6
CONTINUOUS
 10
63.689548
 20
40.544932
 40
2.000000
 50
100.383430
 51
212.480936
 39
0
 62
12
  0
ARC
  8
Trajectoire_D3
  6
CONTINUOUS
 10
40.544932
 20
63.689548
 40
2.000000
 50
237.519063
 51
349.616570
 39
0
 62
12
  0
LINE
  8
Trajectoire_D3
  6
CONTINUOUS
 10
44.463874
 20
73.980382
 11
42.512178
 21
63.329079
 39
0
 62
12
  0
ARC
  8
Trajectoire_D3
  6
CONTINUOUS
 10
25.477120
 20
22.514803
 40
0.500000
 50
132.266785
 51
221.467881
 39
0
 62
12
  0
LINE
  8
Trajectoire_D3
  6
CONTINUOUS
 10
25.313610
 20
23.041852
 11
25.140827
 21
22.884814
 39
0
 62
12
  0
LINE
  8
Trajectoire_D3
  6
CONTINUOUS
 10
25.313610
 20
23.041852
 11
25.996402
 21
22.831135
 39
0
 62
12
  0
LINE
  8
Trajectoire_D3
  6
CONTINUOUS
 10
55.049885
 20
50.068285
 11
25.272362
 21
23.004362
 39
0
 62
12
  0
LINE
  8
Trajectoire_D3
  6
CONTINUOUS
 10
28.423039
 20
24.132574
 11
25.272362
 21
23.004362
 39
0
 62
12
  0
LINE
  8
Trajectoire_D3
  6
CONTINUOUS
 10
23.036443
 20
25.307659
 11
22.884814
 21
25.140827
 39
0
 62
12
  0
LINE
  8
Trajectoire_D3
  6
CONTINUOUS
 10
50.068285
 20
55.049885
 11
23.010860
 21
25.279512
 39
0
 62
12
  0
LINE
  8
Trajectoire_D3
  6
CONTINUOUS
 10
23.036443
 20
25.307659
 11
22.831135
 21
25.996402
 39
0
 62
12
  0
LINE
  8
Trajectoire_D3
  6
CONTINUOUS
 10
24.132574
 20
28.423039
 11
23.010860
 21
25.279512
 39
0
 62
12
  0
ENDSEC
  0
EOF
