  0
SECTION
  2
HEADER
  9
$LIMMIN
 10
0.000000
 20
0.000000
  9
$LIMMAX
 10
117.484942
 20
117.484942
  9
$EXTMIN
 10
0.000000
 20
0.000000
  9
$EXTMAX
 10
117.484942
 20
117.484942
  9
$ANGBASE
 50
0.000000
  9
$ANGDIR
 70
0
  9
$INSUNITS
 70
4
  9
$DIMALT
 70
4
  9
$DIMLUNIT
 70
2
  9
$DIMASZ
 40
3.000000
  9
$DIMTXT
 40
5.000000
  9
$DIMRND
 40
0.010000
  9
$DIMEXE
 40
2.000000
  9
$DIMEXO
 40
2.000000
  9
$DIMAUNIT
 70
0
  9
$DIMADEC
 70
2
  9
$GRIDUNIT
 10
0.001000
 20
0.001000
  9
$PLIMMIN
 10
0.000000
 20
0.000000
  9
$PLIMMAX
 10
210.000000
 20
297.000000
  9
$PSVPSCALE
 40
1.000000
  0
ENDSEC
  0
SECTION
  2
TABLES
  0
TABLE
  2
LTYPE
 70
     1
  0
LTYPE
  2
CONTINUOUS
 70
    64
  3
Ausgez
 72
    65
 73
  0
 40
0.000000
  0
ENDTAB
  0
TABLE
  2
LAYER
 70
     1
  0
LAYER
  2
default
 70
    64
 62
0
  6
CONTINUOUS
  0
LAYER
  2
0
 70
    64
 62
7
  6
CONTINUOUS
  0
LAYER
  2
trajectoire_D4_0mm
 70
    64
 62
2
  6
CONTINUOUS
  0
LAYER
  2
trajectoire_D4_5mm
 70
    64
 62
3
  6
CONTINUOUS
  0
ENDTAB
  0
ENDSEC
  0
SECTION
  2
BLOCKS
  0
ENDSEC
  0
SECTION
  2
ENTITIES
  0
CIRCLE
  8
default
  6
CONTINUOUS
 10
48.890180
 20
73.169326
 40
6.000000
 39
0
 62
0
  0
CIRCLE
  8
default
  6
CONTINUOUS
 10
73.169326
 20
48.890180
 40
6.000000
 39
0
 62
0
  0
CIRCLE
  8
default
  6
CONTINUOUS
 10
93.540331
 20
62.501651
 40
2.500000
 39
0
 62
0
  0
CIRCLE
  8
default
  6
CONTINUOUS
 10
62.501651
 20
93.540331
 40
2.500000
 39
0
 62
0
  0
ARC
  8
default
  6
CONTINUOUS
 10
0.000000
 20
0.000000
 40
75.000000
 50
22.500000
 51
67.500000
 39
0
 62
0
  0
CIRCLE
  8
default
  6
CONTINUOUS
 10
62.225397
 20
62.225397
 40
2.500000
 39
0
 62
0
  0
CIRCLE
  8
trajectoire_D4_0mm
  6
CONTINUOUS
 10
48.890180
 20
73.169326
 40
4.000000
 39
0
 62
9
  0
CIRCLE
  8
trajectoire_D4_0mm
  6
CONTINUOUS
 10
62.225397
 20
62.225397
 40
0.500000
 39
0
 62
9
  0
CIRCLE
  8
trajectoire_D4_0mm
  6
CONTINUOUS
 10
73.169326
 20
48.890180
 40
4.000000
 39
0
 62
9
  0
CIRCLE
  8
trajectoire_D4_0mm
  6
CONTINUOUS
 10
93.540331
 20
62.501651
 40
0.500000
 39
0
 62
9
  0
CIRCLE
  8
trajectoire_D4_0mm
  6
CONTINUOUS
 10
62.501651
 20
93.540331
 40
0.500000
 39
0
 62
9
  0
ARC
  8
default
  6
CONTINUOUS
 10
85.811646
 20
43.692449
 40
2.000000
 50
49.065051
 51
202.500000
 39
0
 62
0
  0
ARC
  8
default
  6
CONTINUOUS
 10
97.990816
 20
38.424341
 40
2.000000
 50
229.065051
 51
292.500000
 39
0
 62
0
  0
LINE
  8
default
  6
CONTINUOUS
 10
96.680413
 20
36.913433
 11
87.122049
 21
45.203357
 39
0
 62
0
  0
ARC
  8
default
  6
CONTINUOUS
 10
103.097897
 20
40.539763
 40
2.000000
 50
292.500000
 51
49.065051
 39
0
 62
0
  0
LINE
  8
default
  6
CONTINUOUS
 10
103.863263
 20
38.692004
 11
98.756183
 21
36.576582
 39
0
 62
0
  0
ARC
  8
default
  6
CONTINUOUS
 10
98.783380
 20
49.576553
 40
2.000000
 50
112.500000
 51
229.065051
 39
0
 62
0
  0
LINE
  8
default
  6
CONTINUOUS
 10
97.472976
 20
48.065646
 11
104.408300
 21
42.050670
 39
0
 62
0
  0
ARC
  8
default
  6
CONTINUOUS
 10
0.000000
 20
0.000000
 40
125.000000
 50
22.500000
 51
67.500000
 39
0
 62
0
  0
ARC
  8
default
  6
CONTINUOUS
 10
86.527651
 20
31.511358
 40
2.000000
 50
292.500000
 51
22.500000
 39
0
 62
0
  0
LINE
  8
default
  6
CONTINUOUS
 10
83.963887
 20
42.927082
 11
88.375410
 21
32.276725
 39
0
 62
0
  0
ARC
  8
default
  6
CONTINUOUS
 10
77.130343
 20
27.618865
 40
2.000000
 50
247.500000
 51
292.500000
 39
0
 62
0
  0
LINE
  8
default
  6
CONTINUOUS
 10
87.293018
 20
29.663599
 11
77.895709
 21
25.771106
 39
0
 62
0
  0
LINE
  8
default
  6
CONTINUOUS
 10
69.290965
 20
28.701257
 11
76.364976
 21
25.771106
 39
0
 62
0
  0
ARC
  8
default
  6
CONTINUOUS
 10
29.782770
 20
91.573224
 40
2.000000
 50
94.065051
 51
247.500000
 39
0
 62
0
  0
ARC
  8
default
  6
CONTINUOUS
 10
42.119859
 20
96.460083
 40
2.000000
 50
274.065051
 51
337.500000
 39
0
 62
0
  0
LINE
  8
default
  6
CONTINUOUS
 10
42.261637
 20
94.465114
 11
29.640992
 21
93.568192
 39
0
 62
0
  0
ARC
  8
default
  6
CONTINUOUS
 10
44.235281
 20
101.567163
 40
2.000000
 50
337.500000
 51
94.065051
 39
0
 62
0
  0
LINE
  8
default
  6
CONTINUOUS
 10
46.083040
 20
100.801796
 11
43.967618
 21
95.694715
 39
0
 62
0
  0
ARC
  8
default
  6
CONTINUOUS
 10
34.794481
 20
104.906314
 40
2.000000
 50
157.500000
 51
274.065051
 39
0
 62
0
  0
LINE
  8
default
  6
CONTINUOUS
 10
34.936258
 20
102.911346
 11
44.093503
 21
103.562131
 39
0
 62
0
  0
ARC
  8
default
  6
CONTINUOUS
 10
38.902394
 20
83.466184
 40
2.000000
 50
337.500000
 51
67.500000
 39
0
 62
0
  0
LINE
  8
default
  6
CONTINUOUS
 10
29.017403
 20
89.725465
 11
39.667761
 21
85.313942
 39
0
 62
0
  0
ARC
  8
default
  6
CONTINUOUS
 10
35.009901
 20
74.068876
 40
2.000000
 50
292.500000
 51
337.500000
 39
0
 62
0
  0
LINE
  8
default
  6
CONTINUOUS
 10
40.750153
 20
82.700816
 11
36.857660
 21
73.303508
 39
0
 62
0
  0
LINE
  8
default
  6
CONTINUOUS
 10
28.701258
 20
69.290965
 11
35.775268
 21
72.221117
 39
0
 62
0
  0
LINE
  8
default
  6
CONTINUOUS
 10
101.968402
 20
53.060617
 11
97.799914
 21
51.333973
 39
0
 62
0
  0
LINE
  8
default
  6
CONTINUOUS
 10
34.583027
 20
109.622071
 11
32.856382
 21
105.453583
 39
0
 62
0
  0
ARC
  8
default
  6
CONTINUOUS
 10
102.733769
 20
51.212858
 40
2.000000
 50
39.199244
 51
112.500000
 39
0
 62
3
  0
ARC
  8
default
  6
CONTINUOUS
 10
110.551087
 20
47.956544
 40
2.000000
 50
219.199244
 51
292.500000
 39
0
 62
3
  0
LINE
  8
default
  6
CONTINUOUS
 10
104.283674
 20
52.476896
 11
109.001182
 21
46.692506
 39
0
 62
3
  0
LINE
  8
default
  6
CONTINUOUS
 10
111.316453
 20
46.108785
 11
115.484942
 21
47.835429
 39
0
 62
3
  0
ARC
  8
default
  6
CONTINUOUS
 10
44.261026
 20
112.081821
 40
2.000000
 50
264.199244
 51
337.500000
 39
0
 62
3
  0
LINE
  8
default
  6
CONTINUOUS
 10
36.632924
 20
110.846463
 11
44.058887
 21
110.092062
 39
0
 62
3
  0
LINE
  8
default
  6
CONTINUOUS
 10
46.108785
 20
111.316453
 11
47.835429
 21
115.484942
 39
0
 62
3
  0
ARC
  8
default
  6
CONTINUOUS
 10
36.430785
 20
108.856704
 40
2.000000
 50
84.199244
 51
157.500000
 39
0
 62
3
  0
LINE
  8
trajectoire_D4_5mm
  6
CONTINUOUS
 10
36.187572
 20
76.912025
 11
37.336853
 21
79.686633
 39
0
 62
10
  0
LINE
  8
trajectoire_D4_5mm
  6
CONTINUOUS
 10
38.486052
 20
82.461045
 11
26.529313
 21
90.178687
 39
0
 62
10
  0
LINE
  8
trajectoire_D4_5mm
  6
CONTINUOUS
 10
31.303197
 20
72.533508
 11
35.101989
 21
74.107020
 39
0
 62
10
  0
ARC
  8
trajectoire_D4_5mm
  6
CONTINUOUS
 10
0.000000
 20
0.000000
 40
82.000000
 50
16.901262
 51
64.654667
 39
0
 62
10
  0
ARC
  8
trajectoire_D4_5mm
  6
CONTINUOUS
 10
0.000000
 20
0.000000
 40
85.000000
 50
17.099463
 51
64.802732
 39
0
 62
10
  0
ARC
  8
trajectoire_D4_5mm
  6
CONTINUOUS
 10
0.000000
 20
0.000000
 40
88.000000
 50
17.284091
 51
64.894749
 39
0
 62
10
  0
ARC
  8
trajectoire_D4_5mm
  6
CONTINUOUS
 10
0.000000
 20
0.000000
 40
91.000000
 50
17.456498
 51
64.980692
 39
0
 62
10
  0
ARC
  8
trajectoire_D4_5mm
  6
CONTINUOUS
 10
0.000000
 20
0.000000
 40
94.000000
 50
17.617858
 51
73.606852
 39
0
 62
10
  0
ARC
  8
trajectoire_D4_5mm
  6
CONTINUOUS
 10
0.000000
 20
0.000000
 40
76.000000
 50
19.681933
 51
68.895570
 39
0
 62
10
  0
ARC
  8
trajectoire_D4_5mm
  6
CONTINUOUS
 10
0.000000
 20
0.000000
 40
79.000000
 50
17.739752
 51
66.656480
 39
0
 62
10
  0
LINE
  8
trajectoire_D4_5mm
  6
CONTINUOUS
 10
71.559836
 20
25.596676
 11
75.243574
 21
24.070822
 39
0
 62
10
  0
ARC
  8
trajectoire_D4_5mm
  6
CONTINUOUS
 10
0.000000
 20
0.000000
 40
97.000000
 50
25.978436
 51
73.417295
 39
0
 62
10
  0
LINE
  8
trajectoire_D4_5mm
  6
CONTINUOUS
 10
87.199019
 20
42.489187
 11
89.591060
 21
28.450694
 39
0
 62
10
  0
LINE
  8
trajectoire_D4_5mm
  6
CONTINUOUS
 10
86.808994
 20
27.298325
 11
84.026213
 21
26.145659
 39
0
 62
10
  0
LINE
  8
trajectoire_D4_5mm
  6
CONTINUOUS
 10
81.242641
 20
24.992666
 11
78.458189
 21
23.839308
 39
0
 62
10
  0
LINE
  8
trajectoire_D4_0mm
  6
CONTINUOUS
 10
38.902394
 20
83.466184
 11
35.009901
 21
74.068876
 39
0
 62
9
  0
LINE
  8
trajectoire_D4_0mm
  6
CONTINUOUS
 10
28.252036
 20
87.877706
 11
38.902394
 21
83.466184
 39
0
 62
9
  0
ARC
  8
trajectoire_D4_0mm
  6
CONTINUOUS
 10
29.782770
 20
91.573224
 40
4.000000
 50
94.065051
 51
247.500000
 39
0
 62
9
  0
LINE
  8
trajectoire_D4_0mm
  6
CONTINUOUS
 10
42.119859
 20
96.460083
 11
29.499214
 21
95.563161
 39
0
 62
9
  0
LINE
  8
trajectoire_D4_0mm
  6
CONTINUOUS
 10
44.235281
 20
101.567163
 11
42.119859
 21
96.460083
 39
0
 62
9
  0
LINE
  8
trajectoire_D4_0mm
  6
CONTINUOUS
 10
35.078037
 20
100.916377
 11
44.235281
 21
101.567163
 39
0
 62
9
  0
ARC
  8
trajectoire_D4_0mm
  6
CONTINUOUS
 10
34.794481
 20
104.906314
 40
4.000000
 50
157.500000
 51
274.065051
 39
0
 62
9
  0
LINE
  8
trajectoire_D4_0mm
  6
CONTINUOUS
 10
32.735267
 20
110.387438
 11
31.008624
 21
106.218950
 39
0
 62
9
  0
ARC
  8
trajectoire_D4_0mm
  6
CONTINUOUS
 10
36.430785
 20
108.856704
 40
4.000000
 50
84.199244
 51
157.500000
 39
0
 62
9
  0
LINE
  8
trajectoire_D4_0mm
  6
CONTINUOUS
 10
36.835063
 20
112.836221
 11
44.261026
 21
112.081821
 39
0
 62
9
  0
ARC
  8
trajectoire_D4_0mm
  6
CONTINUOUS
 10
110.551087
 20
47.956544
 40
4.000000
 50
219.199244
 51
292.500000
 39
0
 62
9
  0
LINE
  8
trajectoire_D4_0mm
  6
CONTINUOUS
 10
102.733769
 20
51.212858
 11
107.451276
 21
45.428467
 39
0
 62
9
  0
LINE
  8
trajectoire_D4_0mm
  6
CONTINUOUS
 10
102.733769
 20
51.212858
 11
98.565281
 21
49.486214
 39
0
 62
9
  0
LINE
  8
trajectoire_D4_0mm
  6
CONTINUOUS
 10
98.783380
 20
49.576553
 11
105.718704
 21
43.561578
 39
0
 62
9
  0
ARC
  8
trajectoire_D4_0mm
  6
CONTINUOUS
 10
103.097897
 20
40.539763
 40
4.000000
 50
292.500000
 51
49.065051
 39
0
 62
9
  0
LINE
  8
trajectoire_D4_0mm
  6
CONTINUOUS
 10
104.628630
 20
36.844244
 11
99.521550
 21
34.728823
 39
0
 62
9
  0
ARC
  8
trajectoire_D4_0mm
  6
CONTINUOUS
 10
97.990816
 20
38.424341
 40
4.000000
 50
229.065051
 51
292.500000
 39
0
 62
9
  0
LINE
  8
trajectoire_D4_0mm
  6
CONTINUOUS
 10
95.370009
 20
35.402525
 11
85.811646
 21
43.692449
 39
0
 62
9
  0
LINE
  8
trajectoire_D4_0mm
  6
CONTINUOUS
 10
85.811646
 20
43.692449
 11
90.223169
 21
33.042091
 39
0
 62
9
  0
ARC
  8
trajectoire_D4_0mm
  6
CONTINUOUS
 10
86.527651
 20
31.511358
 40
4.000000
 50
292.500000
 51
22.500000
 39
0
 62
9
  0
LINE
  8
trajectoire_D4_0mm
  6
CONTINUOUS
 10
88.058384
 20
27.815840
 11
78.661076
 21
23.923347
 39
0
 62
9
  0
ARC
  8
trajectoire_D4_0mm
  6
CONTINUOUS
 10
77.130343
 20
27.618865
 40
4.000000
 50
247.500000
 51
292.500000
 39
0
 62
9
  0
ARC
  8
trajectoire_D4_0mm
  6
CONTINUOUS
 10
69.290965
 20
28.701257
 40
2.000000
 50
202.500000
 51
247.500000
 39
0
 62
9
  0
LINE
  8
trajectoire_D4_0mm
  6
CONTINUOUS
 10
68.525598
 20
26.853498
 11
75.599609
 21
23.923347
 39
0
 62
9
  0
ARC
  8
trajectoire_D4_0mm
  6
CONTINUOUS
 10
28.701258
 20
69.290965
 40
2.000000
 50
112.500000
 51
247.500000
 39
0
 62
9
  0
ARC
  8
trajectoire_D4_0mm
  6
CONTINUOUS
 10
0.000000
 20
0.000000
 40
73.000000
 50
22.500000
 51
67.500000
 39
0
 62
9
  0
LINE
  8
trajectoire_D4_0mm
  6
CONTINUOUS
 10
27.935891
 20
71.138725
 11
35.009901
 21
74.068876
 39
0
 62
9
  0
ARC
  8
trajectoire_D4_0mm
  6
CONTINUOUS
 10
47.835429
 20
115.484942
 40
2.000000
 50
67.500000
 51
157.500000
 39
0
 62
9
  0
LINE
  8
trajectoire_D4_0mm
  6
CONTINUOUS
 10
44.261026
 20
112.081821
 11
45.987670
 21
116.250308
 39
0
 62
9
  0
ARC
  8
trajectoire_D4_0mm
  6
CONTINUOUS
 10
115.484942
 20
47.835429
 40
2.000000
 50
292.500000
 51
22.500000
 39
0
 62
9
  0
ARC
  8
trajectoire_D4_0mm
  6
CONTINUOUS
 10
0.000000
 20
0.000000
 40
127.000000
 50
22.500000
 51
67.500000
 39
0
 62
9
  0
LINE
  8
trajectoire_D4_0mm
  6
CONTINUOUS
 10
112.081820
 20
44.261026
 11
116.250308
 21
45.987670
 39
0
 62
9
  0
CIRCLE
  8
default
  6
CONTINUOUS
 10
81.301399
 20
33.676142
 40
2.500000
 39
0
 62
0
  0
CIRCLE
  8
trajectoire_D4_0mm
  6
CONTINUOUS
 10
81.301399
 20
33.676142
 40
0.500000
 39
0
 62
9
  0
CIRCLE
  8
trajectoire_D4_0mm
  6
CONTINUOUS
 10
73.169326
 20
48.890180
 40
2.000000
 39
0
 62
9
  0
CIRCLE
  8
trajectoire_D4_0mm
  6
CONTINUOUS
 10
48.890180
 20
73.169326
 40
2.000000
 39
0
 62
9
  0
ENDSEC
  0
EOF
