  0
SECTION
  2
HEADER
  9
$LIMMIN
 10
0.000000
 20
0.000000
  9
$LIMMAX
 10
104.047475
 20
77.434176
  9
$EXTMIN
 10
0.000000
 20
0.000000
  9
$EXTMAX
 10
104.047475
 20
77.434176
  9
$ANGBASE
 50
0.000000
  9
$ANGDIR
 70
0
  9
$INSUNITS
 70
4
  9
$DIMALT
 70
4
  9
$DIMLUNIT
 70
2
  9
$DIMASZ
 40
3.000000
  9
$DIMTXT
 40
5.000000
  9
$DIMRND
 40
0.010000
  9
$DIMEXE
 40
2.000000
  9
$DIMEXO
 40
2.000000
  9
$DIMAUNIT
 70
0
  9
$DIMADEC
 70
2
  9
$GRIDUNIT
 10
0.001000
 20
0.001000
  9
$PLIMMIN
 10
0.000000
 20
0.000000
  9
$PLIMMAX
 10
210.000000
 20
297.000000
  9
$PSVPSCALE
 40
1.000000
  0
ENDSEC
  0
SECTION
  2
TABLES
  0
TABLE
  2
LTYPE
 70
     1
  0
LTYPE
  2
CONTINUOUS
 70
    64
  3
Ausgez
 72
    65
 73
  0
 40
0.000000
  0
ENDTAB
  0
TABLE
  2
LAYER
 70
     1
  0
LAYER
  2
default
 70
    64
 62
0
  6
CONTINUOUS
  0
LAYER
  2
trajectoire_D4_0mm
 70
    64
 62
2
  6
CONTINUOUS
  0
LAYER
  2
trajectoire_D4_5mm
 70
    64
 62
10
  6
CONTINUOUS
  0
LAYER
  2
trajectoire_D4_8mm
 70
    64
 62
12
  6
CONTINUOUS
  0
ENDTAB
  0
ENDSEC
  0
SECTION
  2
BLOCKS
  0
ENDSEC
  0
SECTION
  2
ENTITIES
  0
CIRCLE
  8
default
  6
CONTINUOUS
 10
61.596161
 20
55.297860
 40
6.000000
 39
0
 62
0
  0
CIRCLE
  8
default
  6
CONTINUOUS
 10
29.873928
 20
42.158081
 40
6.000000
 39
0
 62
0
  0
CIRCLE
  8
default
  6
CONTINUOUS
 10
34.653642
 20
18.128842
 40
2.500000
 39
0
 62
0
  0
CIRCLE
  8
default
  6
CONTINUOUS
 10
75.207631
 20
34.926854
 40
2.500000
 39
0
 62
0
  0
ARC
  8
default
  6
CONTINUOUS
 10
12.705981
 20
128.467185
 40
75.000000
 50
270.000000
 51
315.000000
 39
0
 62
0
  0
CIRCLE
  8
default
  6
CONTINUOUS
 10
46.382123
 20
47.165786
 40
2.500000
 39
0
 62
0
  0
CIRCLE
  8
trajectoire_D4_0mm
  6
CONTINUOUS
 10
61.596161
 20
55.297860
 40
4.000000
 39
0
 62
9
  0
CIRCLE
  8
trajectoire_D4_0mm
  6
CONTINUOUS
 10
46.382123
 20
47.165786
 40
0.500000
 39
0
 62
9
  0
CIRCLE
  8
trajectoire_D4_0mm
  6
CONTINUOUS
 10
29.873928
 20
42.158081
 40
4.000000
 39
0
 62
9
  0
CIRCLE
  8
trajectoire_D4_0mm
  6
CONTINUOUS
 10
34.653642
 20
18.128842
 40
0.500000
 39
0
 62
9
  0
CIRCLE
  8
trajectoire_D4_0mm
  6
CONTINUOUS
 10
75.207631
 20
34.926854
 40
0.500000
 39
0
 62
9
  0
ARC
  8
default
  6
CONTINUOUS
 10
20.233845
 20
32.467185
 40
2.000000
 50
296.565051
 51
90.000000
 39
0
 62
0
  0
ARC
  8
default
  6
CONTINUOUS
 10
10.705981
 20
23.231117
 40
2.000000
 50
116.565051
 51
180.000000
 39
0
 62
0
  0
LINE
  8
default
  6
CONTINUOUS
 10
9.811553
 20
25.019971
 11
21.128272
 21
30.678331
 39
0
 62
0
  0
ARC
  8
default
  6
CONTINUOUS
 10
10.705981
 20
17.703253
 40
2.000000
 50
180.000000
 51
296.565051
 39
0
 62
0
  0
LINE
  8
default
  6
CONTINUOUS
 10
8.705981
 20
17.703253
 11
8.705981
 21
23.231117
 39
0
 62
0
  0
LINE
  8
default
  6
CONTINUOUS
 10
19.811554
 20
20.019971
 11
11.600407
 21
15.914399
 39
0
 62
0
  0
ARC
  8
default
  6
CONTINUOUS
 10
12.705981
 20
128.467185
 40
125.000000
 50
270.000000
 51
315.000000
 39
0
 62
0
  0
ARC
  8
default
  6
CONTINUOUS
 10
8.705981
 20
36.467185
 40
2.000000
 50
180.000000
 51
270.000000
 39
0
 62
0
  0
LINE
  8
default
  6
CONTINUOUS
 10
20.233844
 20
34.467185
 11
8.705981
 21
34.467185
 39
0
 62
0
  0
ARC
  8
default
  6
CONTINUOUS
 10
8.705980
 20
46.638758
 40
2.000000
 50
135.000000
 51
180.000000
 39
0
 62
0
  0
LINE
  8
default
  6
CONTINUOUS
 10
6.705981
 20
36.467185
 11
6.705981
 21
46.638759
 39
0
 62
0
  0
LINE
  8
default
  6
CONTINUOUS
 10
12.705980
 20
53.467185
 11
7.291767
 21
48.052972
 39
0
 62
0
  0
ARC
  8
default
  6
CONTINUOUS
 10
85.911235
 20
65.907938
 40
2.000000
 50
341.565051
 51
135.000000
 39
0
 62
0
  0
ARC
  8
default
  6
CONTINUOUS
 10
85.704905
 20
52.639834
 40
2.000000
 50
161.565051
 51
225.000000
 39
0
 62
0
  0
LINE
  8
default
  6
CONTINUOUS
 10
83.807538
 20
53.272290
 11
87.808601
 21
65.275482
 39
0
 62
0
  0
ARC
  8
default
  6
CONTINUOUS
 10
89.613694
 20
48.731044
 40
2.000000
 50
225.000000
 51
341.565051
 39
0
 62
0
  0
LINE
  8
default
  6
CONTINUOUS
 10
88.199481
 20
47.316830
 11
84.290690
 21
51.225621
 39
0
 62
0
  0
LINE
  8
default
  6
CONTINUOUS
 10
94.414140
 20
56.807824
 11
91.511061
 21
48.098588
 39
0
 62
0
  0
ARC
  8
default
  6
CONTINUOUS
 10
74.931378
 20
60.584934
 40
2.000000
 50
225.000000
 51
315.000000
 39
0
 62
0
  0
LINE
  8
default
  6
CONTINUOUS
 10
84.497022
 20
67.322152
 11
76.345590
 21
59.170721
 39
0
 62
0
  0
ARC
  8
default
  6
CONTINUOUS
 10
67.738990
 20
67.777323
 40
2.000000
 50
180.000000
 51
225.000000
 39
0
 62
0
  0
LINE
  8
default
  6
CONTINUOUS
 10
73.517163
 20
59.170721
 11
66.324775
 21
66.363109
 39
0
 62
0
  0
LINE
  8
default
  6
CONTINUOUS
 10
65.738989
 20
75.434176
 11
65.738990
 21
67.777322
 39
0
 62
0
  0
ARC
  8
trajectoire_D4_5mm
  6
CONTINUOUS
 10
12.705981
 20
128.467185
 40
76.000000
 50
267.181933
 51
316.395570
 39
0
 62
10
  0
LINE
  8
trajectoire_D4_0mm
  6
CONTINUOUS
 10
74.931378
 20
60.584934
 11
67.738990
 21
67.777323
 39
0
 62
9
  0
LINE
  8
trajectoire_D4_0mm
  6
CONTINUOUS
 10
83.082808
 20
68.736365
 11
74.931378
 21
60.584934
 39
0
 62
9
  0
ARC
  8
trajectoire_D4_0mm
  6
CONTINUOUS
 10
85.911235
 20
65.907938
 40
4.000000
 50
341.565051
 51
135.000000
 39
0
 62
9
  0
LINE
  8
trajectoire_D4_0mm
  6
CONTINUOUS
 10
85.704905
 20
52.639834
 11
89.705969
 21
64.643027
 39
0
 62
9
  0
LINE
  8
trajectoire_D4_0mm
  6
CONTINUOUS
 10
89.613694
 20
48.731044
 11
85.704905
 21
52.639834
 39
0
 62
9
  0
LINE
  8
trajectoire_D4_0mm
  6
CONTINUOUS
 10
92.516772
 20
57.440279
 11
89.613694
 21
48.731044
 39
0
 62
9
  0
ARC
  8
trajectoire_D4_0mm
  6
CONTINUOUS
 10
99.335003
 20
53.151871
 40
4.000000
 50
331.699244
 51
45.000000
 39
0
 62
9
  0
LINE
  8
trajectoire_D4_0mm
  6
CONTINUOUS
 10
102.856887
 20
51.255472
 11
99.318120
 21
44.683473
 39
0
 62
9
  0
ARC
  8
trajectoire_D4_0mm
  6
CONTINUOUS
 10
14.705981
 20
7.979124
 40
4.000000
 50
106.699244
 51
180.000000
 39
0
 62
9
  0
LINE
  8
trajectoire_D4_0mm
  6
CONTINUOUS
 10
20.705980
 20
13.955246
 11
13.556588
 21
11.810429
 39
0
 62
9
  0
ARC
  8
trajectoire_D4_0mm
  6
CONTINUOUS
 10
10.705981
 20
17.703253
 40
4.000000
 50
180.000000
 51
296.565051
 39
0
 62
9
  0
LINE
  8
trajectoire_D4_0mm
  6
CONTINUOUS
 10
6.705980
 20
17.703254
 11
6.705981
 21
23.231117
 39
0
 62
9
  0
ARC
  8
trajectoire_D4_0mm
  6
CONTINUOUS
 10
10.705981
 20
23.231117
 40
4.000000
 50
116.565051
 51
180.000000
 39
0
 62
9
  0
LINE
  8
trajectoire_D4_0mm
  6
CONTINUOUS
 10
8.917126
 20
26.808826
 11
20.233845
 21
32.467185
 39
0
 62
9
  0
LINE
  8
trajectoire_D4_0mm
  6
CONTINUOUS
 10
20.233845
 20
32.467185
 11
8.705980
 21
32.467185
 39
0
 62
9
  0
ARC
  8
trajectoire_D4_0mm
  6
CONTINUOUS
 10
8.705981
 20
36.467185
 40
4.000000
 50
180.000000
 51
270.000000
 39
0
 62
9
  0
LINE
  8
trajectoire_D4_0mm
  6
CONTINUOUS
 10
4.705981
 20
36.467185
 11
4.705981
 21
46.638759
 39
0
 62
9
  0
ARC
  8
trajectoire_D4_0mm
  6
CONTINUOUS
 10
8.705980
 20
46.638758
 40
4.000000
 50
135.000000
 51
180.000000
 39
0
 62
9
  0
ARC
  8
trajectoire_D4_0mm
  6
CONTINUOUS
 10
12.705980
 20
53.467185
 40
2.000000
 50
90.000000
 51
135.000000
 39
0
 62
9
  0
LINE
  8
trajectoire_D4_0mm
  6
CONTINUOUS
 10
11.291767
 20
54.881399
 11
5.877553
 21
49.467185
 39
0
 62
9
  0
ARC
  8
trajectoire_D4_0mm
  6
CONTINUOUS
 10
65.738989
 20
75.434176
 40
2.000000
 50
0.000000
 51
135.000000
 39
0
 62
9
  0
ARC
  8
trajectoire_D4_0mm
  6
CONTINUOUS
 10
12.705981
 20
128.467185
 40
73.000000
 50
270.000000
 51
315.000000
 39
0
 62
9
  0
LINE
  8
trajectoire_D4_0mm
  6
CONTINUOUS
 10
67.738990
 20
75.434176
 11
67.738990
 21
67.777323
 39
0
 62
9
  0
ARC
  8
trajectoire_D4_0mm
  6
CONTINUOUS
 10
101.094329
 20
40.078837
 40
2.000000
 50
315.000000
 51
45.000000
 39
0
 62
9
  0
LINE
  8
trajectoire_D4_0mm
  6
CONTINUOUS
 10
99.318120
 20
44.683473
 11
102.508541
 21
41.493051
 39
0
 62
9
  0
ARC
  8
trajectoire_D4_0mm
  6
CONTINUOUS
 10
12.705980
 20
3.467185
 40
2.000000
 50
180.000000
 51
270.000000
 39
0
 62
9
  0
ARC
  8
trajectoire_D4_0mm
  6
CONTINUOUS
 10
12.705981
 20
128.467185
 40
127.000000
 50
270.000000
 51
315.000000
 39
0
 62
9
  0
LINE
  8
trajectoire_D4_0mm
  6
CONTINUOUS
 10
10.705981
 20
7.979124
 11
10.705981
 21
3.467186
 39
0
 62
9
  0
CIRCLE
  8
default
  6
CONTINUOUS
 10
12.705980
 20
40.467185
 40
2.500000
 39
0
 62
0
  0
CIRCLE
  8
trajectoire_D4_0mm
  6
CONTINUOUS
 10
12.705980
 20
40.467185
 40
0.500000
 39
0
 62
9
  0
CIRCLE
  8
trajectoire_D4_0mm
  6
CONTINUOUS
 10
29.873928
 20
42.158081
 40
2.000000
 39
0
 62
9
  0
CIRCLE
  8
trajectoire_D4_0mm
  6
CONTINUOUS
 10
61.596161
 20
55.297860
 40
2.000000
 39
0
 62
9
  0
LINE
  8
default
  6
CONTINUOUS
 10
22.705980
 20
13.955247
 11
22.705980
 21
18.231117
 39
0
 62
0
  0
ARC
  8
default
  6
CONTINUOUS
 10
20.705980
 20
18.231117
 40
2.000000
 50
0.000000
 51
116.565051
 39
0
 62
0
  0
LINE
  8
trajectoire_D4_0mm
  6
CONTINUOUS
 10
20.705980
 20
18.231117
 11
12.494834
 21
14.125544
 39
0
 62
9
  0
LINE
  8
trajectoire_D4_0mm
  6
CONTINUOUS
 10
20.705980
 20
13.955246
 11
20.705980
 21
18.231117
 39
0
 62
9
  0
ARC
  8
trajectoire_D4_0mm
  6
CONTINUOUS
 10
96.311505
 20
56.175368
 40
4.000000
 50
45.000009
 51
161.565051
 39
0
 62
9
  0
LINE
  8
trajectoire_D4_0mm
  6
CONTINUOUS
 10
102.163431
 20
55.980298
 11
99.139932
 21
59.003795
 39
0
 62
9
  0
LINE
  8
default
  6
CONTINUOUS
 10
100.749217
 20
54.566084
 11
97.725719
 21
57.589582
 39
0
 62
0
  0
ARC
  8
default
  6
CONTINUOUS
 10
96.311505
 20
56.175368
 40
2.000000
 50
44.999991
 51
161.565051
 39
0
 62
0
  0
ARC
  8
trajectoire_D4_8mm
  6
CONTINUOUS
 10
12.705981
 20
128.467185
 40
125.000000
 50
267.915363
 51
315.916742
 39
0
 62
12
  0
ARC
  8
trajectoire_D4_8mm
  6
CONTINUOUS
 10
12.705981
 20
128.467185
 40
122.000000
 50
267.864078
 51
315.939317
 39
0
 62
12
  0
ARC
  8
trajectoire_D4_8mm
  6
CONTINUOUS
 10
12.705981
 20
128.467185
 40
100.000000
 50
267.393880
 51
320.363773
 39
0
 62
12
  0
LINE
  8
trajectoire_D4_8mm
  6
CONTINUOUS
 10
102.497183
 20
41.504320
 11
104.047475
 21
53.677672
 39
0
 62
12
  0
LINE
  8
trajectoire_D4_8mm
  6
CONTINUOUS
 10
104.047475
 20
53.677672
 11
89.716987
 21
64.676082
 39
0
 62
12
  0
LINE
  8
trajectoire_D4_8mm
  6
CONTINUOUS
 10
8.159012
 20
28.570613
 11
8.159012
 21
6.551948
 39
0
 62
12
  0
LINE
  8
trajectoire_D4_8mm
  6
CONTINUOUS
 10
100.375629
 20
43.625964
 11
87.308097
 21
57.449411
 39
0
 62
12
  0
LINE
  8
trajectoire_D4_8mm
  6
CONTINUOUS
 10
103.009170
 20
52.511053
 11
86.231743
 21
52.112996
 39
0
 62
12
  0
LINE
  8
trajectoire_D4_8mm
  6
CONTINUOUS
 10
100.785093
 20
54.527548
 11
96.336680
 21
58.560776
 39
0
 62
12
  0
ARC
  8
trajectoire_D4_8mm
  6
CONTINUOUS
 10
12.705981
 20
128.467185
 40
103.000000
 50
269.139436
 51
316.410015
 39
0
 62
12
  0
ARC
  8
trajectoire_D4_8mm
  6
CONTINUOUS
 10
12.705981
 20
128.467185
 40
118.000000
 50
269.248836
 51
319.932021
 39
0
 62
12
  0
LINE
  8
trajectoire_D4_8mm
  6
CONTINUOUS
 10
11.159012
 20
25.478803
 11
11.159012
 21
10.477326
 39
0
 62
12
  0
ARC
  8
trajectoire_D4_8mm
  6
CONTINUOUS
 10
12.705981
 20
128.467185
 40
106.000000
 50
270.785426
 51
313.918883
 39
0
 62
12
  0
ARC
  8
trajectoire_D4_8mm
  6
CONTINUOUS
 10
12.705981
 20
128.467185
 40
115.000000
 50
270.723955
 51
319.987602
 39
0
 62
12
  0
LINE
  8
trajectoire_D4_8mm
  6
CONTINUOUS
 10
14.159012
 20
22.477145
 11
14.159012
 21
13.476365
 39
0
 62
12
  0
ARC
  8
trajectoire_D4_8mm
  6
CONTINUOUS
 10
12.705981
 20
128.467185
 40
109.000000
 50
272.341385
 51
320.107948
 39
0
 62
12
  0
LINE
  8
trajectoire_D4_8mm
  6
CONTINUOUS
 10
17.159012
 20
19.558184
 11
17.159012
 21
16.555745
 39
0
 62
12
  0
ARC
  8
trajectoire_D4_8mm
  6
CONTINUOUS
 10
12.705981
 20
128.467185
 40
112.000000
 50
272.278635
 51
318.510898
 39
0
 62
12
  0
ARC
  8
trajectoire_D4_5mm
  6
CONTINUOUS
 10
12.705981
 20
128.467185
 40
85.000000
 50
270.783692
 51
310.243293
 39
0
 62
10
  0
LINE
  8
trajectoire_D4_5mm
  6
CONTINUOUS
 10
13.868575
 20
43.475136
 11
13.488660
 21
40.470666
 39
0
 62
10
  0
ARC
  8
trajectoire_D4_5mm
  6
CONTINUOUS
 10
12.705981
 20
128.467185
 40
88.000000
 50
270.509600
 51
312.379437
 39
0
 62
10
  0
LINE
  8
trajectoire_D4_5mm
  6
CONTINUOUS
 10
72.021265
 20
63.461824
 11
67.738989
 21
67.677647
 39
0
 62
10
  0
ARC
  8
trajectoire_D4_5mm
  6
CONTINUOUS
 10
12.705981
 20
128.467185
 40
82.000000
 50
268.964945
 51
312.154667
 39
0
 62
10
  0
LINE
  8
trajectoire_D4_5mm
  6
CONTINUOUS
 10
11.224722
 20
46.480565
 11
10.089738
 21
37.504801
 39
0
 62
10
  0
ARC
  8
trajectoire_D4_5mm
  6
CONTINUOUS
 10
12.705981
 20
128.467185
 40
91.000000
 50
268.352524
 51
317.864457
 39
0
 62
10
  0
LINE
  8
trajectoire_D4_5mm
  6
CONTINUOUS
 10
80.187923
 20
67.416489
 11
68.442719
 21
72.481330
 39
0
 62
10
  0
ARC
  8
trajectoire_D4_5mm
  6
CONTINUOUS
 10
12.705981
 20
128.467185
 40
79.000000
 50
267.014964
 51
314.872243
 39
0
 62
10
  0
LINE
  8
trajectoire_D4_5mm
  6
CONTINUOUS
 10
8.592045
 20
49.574375
 11
6.705981
 21
34.658870
 39
0
 62
10
  0
ARC
  8
trajectoire_D4_5mm
  6
CONTINUOUS
 10
12.705981
 20
128.467185
 40
94.000000
 50
266.340335
 51
320.400718
 39
0
 62
10
  0
LINE
  8
trajectoire_D4_5mm
  6
CONTINUOUS
 10
85.134976
 20
68.550238
 11
67.738989
 21
76.051845
 39
0
 62
10
  0
ARC
  8
trajectoire_D4_5mm
  6
CONTINUOUS
 10
12.705981
 20
128.467185
 40
97.000000
 50
265.899248
 51
320.917295
 39
0
 62
10
  0
LINE
  8
trajectoire_D4_5mm
  6
CONTINUOUS
 10
8.969462
 20
52.559093
 11
5.769459
 21
31.715520
 39
0
 62
10
  0
ARC
  8
default
  6
CONTINUOUS
 10
20.705980
 20
13.955246
 40
2.000000
 50
286.699244
 51
0.000000
 39
0
 62
0
  0
ARC
  8
default
  6
CONTINUOUS
 10
14.705981
 20
7.979124
 40
2.000000
 50
106.699244
 51
180.000000
 39
0
 62
0
  0
LINE
  8
default
  6
CONTINUOUS
 10
21.280676
 20
12.039595
 11
14.131285
 21
9.894776
 39
0
 62
0
  0
LINE
  8
default
  6
CONTINUOUS
 10
12.705981
 20
7.979125
 11
12.705980
 21
3.467185
 39
0
 62
0
  0
ARC
  8
default
  6
CONTINUOUS
 10
99.318120
 20
44.683473
 40
2.000000
 50
151.699244
 51
225.000000
 39
0
 62
0
  0
LINE
  8
default
  6
CONTINUOUS
 10
97.903906
 20
43.269260
 11
101.094329
 21
40.078837
 39
0
 62
0
  0
LINE
  8
default
  6
CONTINUOUS
 10
101.095946
 20
52.203672
 11
97.557177
 21
45.631673
 39
0
 62
0
  0
ARC
  8
default
  6
CONTINUOUS
 10
99.335003
 20
53.151871
 40
2.000000
 50
331.699245
 51
45.000000
 39
0
 62
0
  0
ENDSEC
  0
EOF
