  0
SECTION
  2
HEADER
  9
$LIMMIN
 10
0.000000
 20
0.000000
  9
$LIMMAX
 10
102.998724
 20
102.998724
  9
$EXTMIN
 10
0.000000
 20
0.000000
  9
$EXTMAX
 10
102.998724
 20
102.998724
  9
$ANGBASE
 50
0.000000
  9
$ANGDIR
 70
0
  9
$INSUNITS
 70
4
  9
$DIMALT
 70
4
  9
$DIMLUNIT
 70
2
  9
$DIMASZ
 40
3.000000
  9
$DIMTXT
 40
5.000000
  9
$DIMRND
 40
0.010000
  9
$DIMEXE
 40
2.000000
  9
$DIMEXO
 40
2.000000
  9
$DIMAUNIT
 70
0
  9
$DIMADEC
 70
2
  9
$GRIDUNIT
 10
0.001000
 20
0.001000
  9
$PLIMMIN
 10
0.000000
 20
0.000000
  9
$PLIMMAX
 10
210.000000
 20
297.000000
  9
$PSVPSCALE
 40
1.000000
  0
ENDSEC
  0
SECTION
  2
TABLES
  0
TABLE
  2
LTYPE
 70
     1
  0
LTYPE
  2
CONTINUOUS
 70
    64
  3
Ausgez
 72
    65
 73
  0
 40
0.000000
  0
ENDTAB
  0
TABLE
  2
LAYER
 70
     1
  0
LAYER
  2
default
 70
    64
 62
0
  6
CONTINUOUS
  0
LAYER
  2
Trajectoire_D4
 70
    64
 62
0
  6
CONTINUOUS
  0
LAYER
  2
Trj_circuit_D4
 70
    64
 62
13
  6
CONTINUOUS
  0
LAYER
  2
Trj_Circuit_D4_bis
 70
    64
 62
4
  6
CONTINUOUS
  0
ENDTAB
  0
ENDSEC
  0
SECTION
  2
BLOCKS
  0
ENDSEC
  0
SECTION
  2
ENTITIES
  0
CIRCLE
  8
default
  6
CONTINUOUS
 10
86.301399
 20
38.676142
 40
2.500000
 39
0
 62
0
  0
CIRCLE
  8
default
  6
CONTINUOUS
 10
38.676142
 20
86.301399
 40
2.500000
 39
0
 62
0
  0
CIRCLE
  8
default
  6
CONTINUOUS
 10
22.167948
 20
91.309105
 40
6.000000
 39
0
 62
0
  0
CIRCLE
  8
default
  6
CONTINUOUS
 10
53.890181
 20
78.169326
 40
6.000000
 39
0
 62
0
  0
CIRCLE
  8
default
  6
CONTINUOUS
 10
78.169326
 20
53.890181
 40
6.000000
 39
0
 62
0
  0
CIRCLE
  8
default
  6
CONTINUOUS
 10
91.309105
 20
22.167948
 40
6.000000
 39
0
 62
0
  0
ARC
  8
default
  6
CONTINUOUS
 10
5.000000
 20
5.000000
 40
98.000000
 50
0.292327
 51
89.707673
 39
0
 62
0
  0
ARC
  8
default
  6
CONTINUOUS
 10
5.000000
 20
5.000000
 40
29.000000
 50
0.987907
 51
89.012093
 39
0
 62
0
  0
LINE
  8
default
  6
CONTINUOUS
 10
33.995689
 20
5.500000
 11
102.998724
 21
5.500000
 39
0
 62
0
  0
LINE
  8
default
  6
CONTINUOUS
 10
5.500000
 20
102.998724
 11
5.500000
 21
33.995689
 39
0
 62
0
  0
CIRCLE
  8
Trajectoire_D4
  6
CONTINUOUS
 10
91.309105
 20
22.167948
 40
4.000000
 39
0
 62
9
  0
CIRCLE
  8
Trajectoire_D4
  6
CONTINUOUS
 10
86.301399
 20
38.676142
 40
0.500000
 39
0
 62
9
  0
CIRCLE
  8
Trajectoire_D4
  6
CONTINUOUS
 10
78.169326
 20
53.890181
 40
4.000000
 39
0
 62
9
  0
CIRCLE
  8
Trajectoire_D4
  6
CONTINUOUS
 10
53.890181
 20
78.169326
 40
4.000000
 39
0
 62
9
  0
CIRCLE
  8
Trajectoire_D4
  6
CONTINUOUS
 10
38.676142
 20
86.301399
 40
0.500000
 39
0
 62
9
  0
CIRCLE
  8
Trajectoire_D4
  6
CONTINUOUS
 10
22.167948
 20
91.309105
 40
4.000000
 39
0
 62
9
  0
ARC
  8
Trajectoire_D4
  6
CONTINUOUS
 10
5.500000
 20
102.998724
 40
2.000000
 50
89.707673
 51
180.000000
 39
0
 62
9
  0
ARC
  8
Trajectoire_D4
  6
CONTINUOUS
 10
5.500000
 20
33.995689
 40
2.000000
 50
180.000000
 51
269.012093
 39
0
 62
9
  0
LINE
  8
Trajectoire_D4
  6
CONTINUOUS
 10
3.500000
 20
102.998724
 11
3.500000
 21
33.995689
 39
0
 62
9
  0
ARC
  8
Trajectoire_D4
  6
CONTINUOUS
 10
33.995689
 20
5.500000
 40
2.000000
 50
180.987907
 51
270.000000
 39
0
 62
9
  0
ARC
  8
Trajectoire_D4
  6
CONTINUOUS
 10
5.000000
 20
5.000000
 40
27.000000
 50
0.987907
 51
89.012093
 39
0
 62
9
  0
ARC
  8
Trajectoire_D4
  6
CONTINUOUS
 10
102.998724
 20
5.500000
 40
2.000000
 50
270.000000
 51
0.292327
 39
0
 62
9
  0
LINE
  8
Trajectoire_D4
  6
CONTINUOUS
 10
33.995689
 20
3.500000
 11
102.998724
 21
3.500000
 39
0
 62
9
  0
ARC
  8
Trajectoire_D4
  6
CONTINUOUS
 10
5.000000
 20
5.000000
 40
100.000000
 50
0.292327
 51
89.707673
 39
0
 62
9
  0
LINE
  8
Trj_circuit_D4
  6
CONTINUOUS
 10
79.373320
 20
10.500000
 11
93.338318
 21
18.720877
 39
0
 62
13
  0
LINE
  8
Trj_circuit_D4
  6
CONTINUOUS
 10
79.373320
 20
10.500000
 11
38.552198
 21
10.500000
 39
0
 62
13
  0
ARC
  8
Trj_circuit_D4
  6
CONTINUOUS
 10
5.000000
 20
5.000000
 40
34.000000
 50
9.309341
 51
41.467881
 39
0
 62
13
  0
ARC
  8
Trj_circuit_D4
  6
CONTINUOUS
 10
5.000000
 20
5.000000
 40
73.000000
 50
13.153920
 51
32.480936
 39
0
 62
13
  0
LINE
  8
Trj_circuit_D4
  6
CONTINUOUS
 10
89.279892
 20
25.615019
 11
79.787307
 21
20.026949
 39
0
 62
13
  0
LINE
  8
Trj_circuit_D4
  6
CONTINUOUS
 10
78.890265
 20
49.955686
 11
68.238962
 21
48.003990
 39
0
 62
13
  0
ARC
  8
Trj_circuit_D4
  6
CONTINUOUS
 10
68.689548
 20
45.544932
 40
2.500000
 50
100.383428
 51
212.480936
 39
0
 62
13
  0
ARC
  8
Trj_circuit_D4
  6
CONTINUOUS
 10
78.519049
 20
22.181368
 40
2.500000
 50
193.153920
 51
300.484356
 39
0
 62
13
  0
LINE
  8
Trj_circuit_D4
  6
CONTINUOUS
 10
63.153382
 20
49.105430
 11
55.728861
 21
42.357499
 39
0
 62
13
  0
LINE
  8
Trj_circuit_D4
  6
CONTINUOUS
 10
62.230980
 20
50.969711
 11
47.090304
 21
37.208792
 39
0
 62
13
  0
ARC
  8
Trj_circuit_D4
  6
CONTINUOUS
 10
5.000000
 20
5.000000
 40
43.000000
 50
10.044826
 51
38.968374
 39
0
 62
13
  0
LINE
  8
Trj_circuit_D4
  6
CONTINUOUS
 10
78.828350
 20
12.500000
 11
47.340879
 21
12.500000
 39
0
 62
13
  0
ARC
  8
Trj_circuit_D4
  6
CONTINUOUS
 10
5.000000
 20
5.000000
 40
53.000000
 50
10.325803
 51
37.424325
 39
0
 62
13
  0
LINE
  8
Trj_circuit_D4
  6
CONTINUOUS
 10
78.283381
 20
14.500000
 11
57.141634
 21
14.500000
 39
0
 62
13
  0
ARC
  8
Trj_circuit_D4
  6
CONTINUOUS
 10
5.000000
 20
5.000000
 40
63.000000
 50
10.517724
 51
36.368492
 39
0
 62
13
  0
LINE
  8
Trj_circuit_D4
  6
CONTINUOUS
 10
77.738411
 20
16.500000
 11
66.941505
 21
16.500000
 39
0
 62
13
  0
LINE
  8
Trj_circuit_D4
  6
CONTINUOUS
 10
61.308578
 20
52.833993
 11
38.432208
 21
32.042327
 39
0
 62
13
  0
LINE
  8
Trj_circuit_D4
  6
CONTINUOUS
 10
77.448387
 20
57.824676
 11
60.386177
 21
54.698275
 39
0
 62
13
  0
LINE
  8
Trj_circuit_D4
  6
CONTINUOUS
 10
60.386177
 20
54.698275
 11
30.477119
 21
27.514804
 39
0
 62
13
  0
LINE
  8
Trj_circuit_D4
  6
CONTINUOUS
 10
74.401484
 20
55.233077
 11
61.308578
 21
52.833993
 39
0
 62
13
  0
LINE
  8
Trj_circuit_D4
  6
CONTINUOUS
 10
74.234831
 20
53.169242
 11
62.230980
 21
50.969711
 39
0
 62
13
  0
LINE
  8
Trj_circuit_D4
  6
CONTINUOUS
 10
75.122423
 20
51.298582
 11
63.153382
 21
49.105430
 39
0
 62
13
  0
LINE
  8
Trj_circuit_D4
  6
CONTINUOUS
 10
77.738411
 20
16.500000
 11
87.309248
 21
22.134134
 39
0
 62
13
  0
LINE
  8
Trj_circuit_D4
  6
CONTINUOUS
 10
78.283381
 20
14.500000
 11
87.862034
 21
20.138736
 39
0
 62
13
  0
LINE
  8
Trj_circuit_D4
  6
CONTINUOUS
 10
78.828350
 20
12.500000
 11
89.338460
 21
18.687063
 39
0
 62
13
  0
LINE
  8
Trj_circuit_D4
  6
CONTINUOUS
 10
89.338460
 20
18.687063
 11
87.862034
 21
20.138736
 39
0
 62
13
  0
LINE
  8
Trj_circuit_D4
  6
CONTINUOUS
 10
87.309248
 20
22.134134
 11
89.279892
 21
25.615019
 39
0
 62
13
  0
LINE
  8
Trj_circuit_D4
  6
CONTINUOUS
 10
77.448387
 20
57.824676
 11
74.401484
 21
55.233077
 39
0
 62
13
  0
LINE
  8
Trj_circuit_D4
  6
CONTINUOUS
 10
74.234831
 20
53.169242
 11
75.122423
 21
51.298582
 39
0
 62
13
  0
LINE
  8
Trj_circuit_D4
  6
CONTINUOUS
 10
10.500000
 20
79.373320
 11
18.720877
 21
93.338318
 39
0
 62
10
  0
LINE
  8
Trj_circuit_D4
  6
CONTINUOUS
 10
10.500000
 20
79.373320
 11
10.500000
 21
38.552198
 39
0
 62
10
  0
ARC
  8
Trj_circuit_D4
  6
CONTINUOUS
 10
5.000000
 20
5.000000
 40
34.000000
 50
48.532119
 51
80.690659
 39
0
 62
10
  0
ARC
  8
Trj_circuit_D4
  6
CONTINUOUS
 10
5.000000
 20
5.000000
 40
73.000000
 50
57.519064
 51
76.846080
 39
0
 62
10
  0
LINE
  8
Trj_circuit_D4
  6
CONTINUOUS
 10
25.615019
 20
89.279892
 11
20.026949
 21
79.787307
 39
0
 62
10
  0
LINE
  8
Trj_circuit_D4
  6
CONTINUOUS
 10
49.955686
 20
78.890265
 11
48.003990
 21
68.238962
 39
0
 62
10
  0
ARC
  8
Trj_circuit_D4
  6
CONTINUOUS
 10
45.544932
 20
68.689548
 40
2.500000
 50
237.519064
 51
349.616572
 39
0
 62
10
  0
ARC
  8
Trj_circuit_D4
  6
CONTINUOUS
 10
22.181368
 20
78.519049
 40
2.500000
 50
149.515644
 51
256.846080
 39
0
 62
10
  0
LINE
  8
Trj_circuit_D4
  6
CONTINUOUS
 10
49.105430
 20
63.153382
 11
42.357499
 21
55.728861
 39
0
 62
10
  0
LINE
  8
Trj_circuit_D4
  6
CONTINUOUS
 10
50.969711
 20
62.230980
 11
37.208792
 21
47.090304
 39
0
 62
10
  0
ARC
  8
Trj_circuit_D4
  6
CONTINUOUS
 10
5.000000
 20
5.000000
 40
43.000000
 50
51.031626
 51
79.955174
 39
0
 62
10
  0
LINE
  8
Trj_circuit_D4
  6
CONTINUOUS
 10
12.500000
 20
78.828350
 11
12.500000
 21
47.340879
 39
0
 62
10
  0
ARC
  8
Trj_circuit_D4
  6
CONTINUOUS
 10
5.000000
 20
5.000000
 40
53.000000
 50
52.575675
 51
79.674197
 39
0
 62
10
  0
LINE
  8
Trj_circuit_D4
  6
CONTINUOUS
 10
14.500000
 20
78.283381
 11
14.500000
 21
57.141634
 39
0
 62
10
  0
ARC
  8
Trj_circuit_D4
  6
CONTINUOUS
 10
5.000000
 20
5.000000
 40
63.000000
 50
53.631508
 51
79.482276
 39
0
 62
10
  0
LINE
  8
Trj_circuit_D4
  6
CONTINUOUS
 10
16.500000
 20
77.738411
 11
16.500000
 21
66.941505
 39
0
 62
10
  0
LINE
  8
Trj_circuit_D4
  6
CONTINUOUS
 10
52.833993
 20
61.308578
 11
32.042327
 21
38.432208
 39
0
 62
10
  0
LINE
  8
Trj_circuit_D4
  6
CONTINUOUS
 10
57.824676
 20
77.448387
 11
54.698275
 21
60.386177
 39
0
 62
10
  0
LINE
  8
Trj_circuit_D4
  6
CONTINUOUS
 10
54.698275
 20
60.386177
 11
27.514804
 21
30.477119
 39
0
 62
10
  0
LINE
  8
Trj_circuit_D4
  6
CONTINUOUS
 10
12.500000
 20
78.828350
 11
18.687063
 21
89.338460
 39
0
 62
10
  0
LINE
  8
Trj_circuit_D4
  6
CONTINUOUS
 10
14.500000
 20
78.283381
 11
20.138736
 21
87.862034
 39
0
 62
10
  0
LINE
  8
Trj_circuit_D4
  6
CONTINUOUS
 10
16.500000
 20
77.738411
 11
22.134134
 21
87.309248
 39
0
 62
10
  0
LINE
  8
Trj_circuit_D4
  6
CONTINUOUS
 10
51.298582
 20
75.122423
 11
49.105430
 21
63.153382
 39
0
 62
10
  0
LINE
  8
Trj_circuit_D4
  6
CONTINUOUS
 10
53.169242
 20
74.234831
 11
50.969711
 21
62.230980
 39
0
 62
10
  0
LINE
  8
Trj_circuit_D4
  6
CONTINUOUS
 10
55.233077
 20
74.401484
 11
52.833993
 21
61.308578
 39
0
 62
10
  0
LINE
  8
Trj_circuit_D4
  6
CONTINUOUS
 10
57.824676
 20
77.448387
 11
55.233077
 21
74.401484
 39
0
 62
10
  0
LINE
  8
Trj_circuit_D4
  6
CONTINUOUS
 10
53.169242
 20
74.234831
 11
51.298582
 21
75.122423
 39
0
 62
10
  0
LINE
  8
Trj_circuit_D4
  6
CONTINUOUS
 10
18.687063
 20
89.338460
 11
20.138736
 21
87.862034
 39
0
 62
10
  0
LINE
  8
Trj_circuit_D4
  6
CONTINUOUS
 10
22.134134
 20
87.309248
 11
25.615019
 21
89.279892
 39
0
 62
10
  0
LINE
  8
Trj_Circuit_D4_bis
  6
CONTINUOUS
 10
12.993436
 20
43.172045
 11
26.781805
 21
37.350471
 39
0
 62
4
  0
LINE
  8
Trj_Circuit_D4_bis
  6
CONTINUOUS
 10
12.993436
 20
43.172045
 11
21.776659
 21
87.328289
 39
0
 62
4
  0
LINE
  8
Trj_Circuit_D4_bis
  6
CONTINUOUS
 10
26.781805
 20
37.350471
 11
51.783923
 21
74.768785
 39
0
 62
4
  0
LINE
  8
Trj_Circuit_D4_bis
  6
CONTINUOUS
 10
43.172045
 20
12.993436
 11
37.350471
 21
26.781805
 39
0
 62
2
  0
LINE
  8
Trj_Circuit_D4_bis
  6
CONTINUOUS
 10
43.172045
 20
12.993436
 11
87.328289
 21
21.776659
 39
0
 62
2
  0
LINE
  8
Trj_Circuit_D4_bis
  6
CONTINUOUS
 10
37.350471
 20
26.781805
 11
74.768785
 21
51.783923
 39
0
 62
2
  0
ENDSEC
  0
EOF
