  0
SECTION
  2
HEADER
  9
$LIMMIN
 10
0.000000
 20
0.000000
  9
$LIMMAX
 10
125.564280
 20
125.564280
  9
$EXTMIN
 10
0.000000
 20
0.000000
  9
$EXTMAX
 10
125.564280
 20
125.564280
  9
$ANGBASE
 50
0.000000
  9
$ANGDIR
 70
0
  9
$INSUNITS
 70
4
  9
$DIMALT
 70
4
  9
$DIMLUNIT
 70
2
  9
$DIMASZ
 40
3.000000
  9
$DIMTXT
 40
5.000000
  9
$DIMRND
 40
0.010000
  9
$DIMEXE
 40
2.000000
  9
$DIMEXO
 40
2.000000
  9
$DIMAUNIT
 70
0
  9
$DIMADEC
 70
2
  9
$GRIDUNIT
 10
0.001000
 20
0.001000
  9
$PLIMMIN
 10
0.000000
 20
0.000000
  9
$PLIMMAX
 10
210.000000
 20
297.000000
  9
$PSVPSCALE
 40
1.000000
  0
ENDSEC
  0
SECTION
  2
TABLES
  0
TABLE
  2
LTYPE
 70
     1
  0
LTYPE
  2
CONTINUOUS
 70
    64
  3
Ausgez
 72
    65
 73
  0
 40
0.000000
  0
ENDTAB
  0
TABLE
  2
LAYER
 70
     1
  0
LAYER
  2
default
 70
    64
 62
0
  6
CONTINUOUS
  0
LAYER
  2
0
 70
    64
 62
7
  6
CONTINUOUS
  0
LAYER
  2
trajectoire_D4_0mm
 70
    64
 62
2
  6
CONTINUOUS
  0
LAYER
  2
trajectoire_D4_5mm
 70
    64
 62
3
  6
CONTINUOUS
  0
LAYER
  2
trajectoire_D4_8mm
 70
    64
 62
12
  6
CONTINUOUS
  0
ENDTAB
  0
ENDSEC
  0
SECTION
  2
BLOCKS
  0
ENDSEC
  0
SECTION
  2
ENTITIES
  0
CIRCLE
  8
default
  6
CONTINUOUS
 10
53.890180
 20
78.169326
 40
6.000000
 39
0
 62
0
  0
CIRCLE
  8
default
  6
CONTINUOUS
 10
78.169326
 20
53.890180
 40
6.000000
 39
0
 62
0
  0
CIRCLE
  8
default
  6
CONTINUOUS
 10
98.540331
 20
67.501651
 40
2.500000
 39
0
 62
0
  0
CIRCLE
  8
default
  6
CONTINUOUS
 10
67.501651
 20
98.540331
 40
2.500000
 39
0
 62
0
  0
ARC
  8
default
  6
CONTINUOUS
 10
5.000000
 20
5.000000
 40
75.000000
 50
22.500000
 51
67.500000
 39
0
 62
0
  0
CIRCLE
  8
default
  6
CONTINUOUS
 10
67.225397
 20
67.225397
 40
2.500000
 39
0
 62
0
  0
CIRCLE
  8
trajectoire_D4_0mm
  6
CONTINUOUS
 10
53.890180
 20
78.169326
 40
4.000000
 39
0
 62
9
  0
CIRCLE
  8
trajectoire_D4_0mm
  6
CONTINUOUS
 10
67.225397
 20
67.225397
 40
0.500000
 39
0
 62
9
  0
CIRCLE
  8
trajectoire_D4_0mm
  6
CONTINUOUS
 10
78.169326
 20
53.890180
 40
4.000000
 39
0
 62
9
  0
CIRCLE
  8
trajectoire_D4_0mm
  6
CONTINUOUS
 10
98.540331
 20
67.501651
 40
0.500000
 39
0
 62
9
  0
CIRCLE
  8
trajectoire_D4_0mm
  6
CONTINUOUS
 10
67.501651
 20
98.540331
 40
0.500000
 39
0
 62
9
  0
ARC
  8
default
  6
CONTINUOUS
 10
90.811646
 20
48.692449
 40
2.000000
 50
49.065051
 51
202.500000
 39
0
 62
0
  0
ARC
  8
default
  6
CONTINUOUS
 10
102.990816
 20
43.424341
 40
2.000000
 50
229.065051
 51
292.500000
 39
0
 62
0
  0
LINE
  8
default
  6
CONTINUOUS
 10
101.680413
 20
41.913433
 11
92.122049
 21
50.203357
 39
0
 62
0
  0
ARC
  8
default
  6
CONTINUOUS
 10
108.097897
 20
45.539763
 40
2.000000
 50
292.500000
 51
49.065051
 39
0
 62
0
  0
LINE
  8
default
  6
CONTINUOUS
 10
108.863263
 20
43.692004
 11
103.756183
 21
41.576582
 39
0
 62
0
  0
LINE
  8
default
  6
CONTINUOUS
 10
102.472976
 20
53.065646
 11
109.408300
 21
47.050670
 39
0
 62
0
  0
ARC
  8
default
  6
CONTINUOUS
 10
5.000000
 20
5.000000
 40
125.000000
 50
22.500000
 51
67.500000
 39
0
 62
0
  0
ARC
  8
default
  6
CONTINUOUS
 10
91.527651
 20
36.511358
 40
2.000000
 50
292.500000
 51
22.500000
 39
0
 62
0
  0
LINE
  8
default
  6
CONTINUOUS
 10
88.963887
 20
47.927082
 11
93.375410
 21
37.276725
 39
0
 62
0
  0
ARC
  8
default
  6
CONTINUOUS
 10
82.130343
 20
32.618865
 40
2.000000
 50
247.500000
 51
292.500000
 39
0
 62
0
  0
LINE
  8
default
  6
CONTINUOUS
 10
92.293018
 20
34.663599
 11
82.895709
 21
30.771106
 39
0
 62
0
  0
LINE
  8
default
  6
CONTINUOUS
 10
74.290965
 20
33.701257
 11
81.364976
 21
30.771106
 39
0
 62
0
  0
ARC
  8
default
  6
CONTINUOUS
 10
34.782770
 20
96.573224
 40
2.000000
 50
94.065051
 51
247.500000
 39
0
 62
0
  0
ARC
  8
default
  6
CONTINUOUS
 10
47.119859
 20
101.460083
 40
2.000000
 50
274.065051
 51
337.500000
 39
0
 62
0
  0
LINE
  8
default
  6
CONTINUOUS
 10
47.261637
 20
99.465114
 11
34.640992
 21
98.568192
 39
0
 62
0
  0
ARC
  8
default
  6
CONTINUOUS
 10
49.235281
 20
106.567163
 40
2.000000
 50
337.500000
 51
94.065051
 39
0
 62
0
  0
LINE
  8
default
  6
CONTINUOUS
 10
51.083040
 20
105.801796
 11
48.967618
 21
100.694715
 39
0
 62
0
  0
LINE
  8
default
  6
CONTINUOUS
 10
39.936258
 20
107.911346
 11
49.093503
 21
108.562131
 39
0
 62
0
  0
ARC
  8
default
  6
CONTINUOUS
 10
43.902394
 20
88.466184
 40
2.000000
 50
337.500000
 51
67.500000
 39
0
 62
0
  0
LINE
  8
default
  6
CONTINUOUS
 10
34.017403
 20
94.725465
 11
44.667761
 21
90.313942
 39
0
 62
0
  0
ARC
  8
default
  6
CONTINUOUS
 10
40.009901
 20
79.068876
 40
2.000000
 50
292.500000
 51
337.500000
 39
0
 62
0
  0
LINE
  8
default
  6
CONTINUOUS
 10
45.750153
 20
87.700816
 11
41.857660
 21
78.303508
 39
0
 62
0
  0
LINE
  8
default
  6
CONTINUOUS
 10
33.701258
 20
74.290965
 11
40.775268
 21
77.221117
 39
0
 62
0
  0
ARC
  8
default
  6
CONTINUOUS
 10
107.733769
 20
56.212858
 40
2.000000
 50
39.199244
 51
112.500000
 39
0
 62
3
  0
ARC
  8
default
  6
CONTINUOUS
 10
115.551087
 20
52.956544
 40
2.000000
 50
219.199244
 51
292.500000
 39
0
 62
3
  0
LINE
  8
default
  6
CONTINUOUS
 10
109.283674
 20
57.476896
 11
114.001182
 21
51.692506
 39
0
 62
3
  0
LINE
  8
default
  6
CONTINUOUS
 10
116.316453
 20
51.108785
 11
120.484942
 21
52.835429
 39
0
 62
3
  0
LINE
  8
trajectoire_D4_5mm
  6
CONTINUOUS
 10
41.187572
 20
81.912025
 11
42.336853
 21
84.686633
 39
0
 62
10
  0
LINE
  8
trajectoire_D4_5mm
  6
CONTINUOUS
 10
43.486052
 20
87.461045
 11
31.529313
 21
95.178687
 39
0
 62
10
  0
LINE
  8
trajectoire_D4_5mm
  6
CONTINUOUS
 10
36.303197
 20
77.533508
 11
40.101989
 21
79.107020
 39
0
 62
10
  0
ARC
  8
trajectoire_D4_5mm
  6
CONTINUOUS
 10
5.000000
 20
5.000000
 40
82.000000
 50
16.901262
 51
64.654667
 39
0
 62
10
  0
ARC
  8
trajectoire_D4_5mm
  6
CONTINUOUS
 10
5.000000
 20
5.000000
 40
85.000000
 50
17.099463
 51
64.802732
 39
0
 62
10
  0
ARC
  8
trajectoire_D4_5mm
  6
CONTINUOUS
 10
5.000000
 20
5.000000
 40
88.000000
 50
17.284091
 51
64.894749
 39
0
 62
10
  0
ARC
  8
trajectoire_D4_5mm
  6
CONTINUOUS
 10
5.000000
 20
5.000000
 40
91.000000
 50
17.456498
 51
64.980692
 39
0
 62
10
  0
ARC
  8
trajectoire_D4_5mm
  6
CONTINUOUS
 10
5.000000
 20
5.000000
 40
94.000000
 50
17.617858
 51
73.606852
 39
0
 62
10
  0
ARC
  8
trajectoire_D4_5mm
  6
CONTINUOUS
 10
5.000000
 20
5.000000
 40
76.000000
 50
19.681933
 51
68.895570
 39
0
 62
10
  0
ARC
  8
trajectoire_D4_5mm
  6
CONTINUOUS
 10
5.000000
 20
5.000000
 40
79.000000
 50
17.739752
 51
66.656480
 39
0
 62
10
  0
LINE
  8
trajectoire_D4_5mm
  6
CONTINUOUS
 10
76.559836
 20
30.596676
 11
80.243574
 21
29.070822
 39
0
 62
10
  0
ARC
  8
trajectoire_D4_5mm
  6
CONTINUOUS
 10
5.000000
 20
5.000000
 40
97.000000
 50
25.978436
 51
73.417295
 39
0
 62
10
  0
LINE
  8
trajectoire_D4_5mm
  6
CONTINUOUS
 10
92.199019
 20
47.489187
 11
94.591060
 21
33.450694
 39
0
 62
10
  0
LINE
  8
trajectoire_D4_5mm
  6
CONTINUOUS
 10
91.808994
 20
32.298325
 11
89.026213
 21
31.145659
 39
0
 62
10
  0
LINE
  8
trajectoire_D4_5mm
  6
CONTINUOUS
 10
86.242641
 20
29.992666
 11
83.458189
 21
28.839308
 39
0
 62
10
  0
LINE
  8
trajectoire_D4_0mm
  6
CONTINUOUS
 10
43.902394
 20
88.466184
 11
40.009901
 21
79.068876
 39
0
 62
9
  0
LINE
  8
trajectoire_D4_0mm
  6
CONTINUOUS
 10
33.252036
 20
92.877706
 11
43.902394
 21
88.466184
 39
0
 62
9
  0
ARC
  8
trajectoire_D4_0mm
  6
CONTINUOUS
 10
34.782770
 20
96.573224
 40
4.000000
 50
94.065051
 51
247.500000
 39
0
 62
9
  0
LINE
  8
trajectoire_D4_0mm
  6
CONTINUOUS
 10
47.119859
 20
101.460083
 11
34.499214
 21
100.563161
 39
0
 62
9
  0
LINE
  8
trajectoire_D4_0mm
  6
CONTINUOUS
 10
49.235281
 20
106.567163
 11
47.119859
 21
101.460083
 39
0
 62
9
  0
LINE
  8
trajectoire_D4_0mm
  6
CONTINUOUS
 10
40.078037
 20
105.916377
 11
49.235281
 21
106.567163
 39
0
 62
9
  0
ARC
  8
trajectoire_D4_0mm
  6
CONTINUOUS
 10
41.430785
 20
113.856704
 40
4.000000
 50
84.199244
 51
157.500000
 39
0
 62
9
  0
LINE
  8
trajectoire_D4_0mm
  6
CONTINUOUS
 10
41.835063
 20
117.836221
 11
49.261026
 21
117.081821
 39
0
 62
9
  0
ARC
  8
trajectoire_D4_0mm
  6
CONTINUOUS
 10
115.551087
 20
52.956544
 40
4.000000
 50
219.199244
 51
292.500000
 39
0
 62
9
  0
LINE
  8
trajectoire_D4_0mm
  6
CONTINUOUS
 10
107.733769
 20
56.212858
 11
112.451276
 21
50.428467
 39
0
 62
9
  0
ARC
  8
trajectoire_D4_0mm
  6
CONTINUOUS
 10
108.097897
 20
45.539763
 40
4.000000
 50
292.500000
 51
49.065051
 39
0
 62
9
  0
LINE
  8
trajectoire_D4_0mm
  6
CONTINUOUS
 10
109.628630
 20
41.844244
 11
104.521550
 21
39.728823
 39
0
 62
9
  0
ARC
  8
trajectoire_D4_0mm
  6
CONTINUOUS
 10
102.990816
 20
43.424341
 40
4.000000
 50
229.065051
 51
292.500000
 39
0
 62
9
  0
LINE
  8
trajectoire_D4_0mm
  6
CONTINUOUS
 10
100.370009
 20
40.402525
 11
90.811646
 21
48.692449
 39
0
 62
9
  0
LINE
  8
trajectoire_D4_0mm
  6
CONTINUOUS
 10
90.811646
 20
48.692449
 11
95.223169
 21
38.042091
 39
0
 62
9
  0
ARC
  8
trajectoire_D4_0mm
  6
CONTINUOUS
 10
91.527651
 20
36.511358
 40
4.000000
 50
292.500000
 51
22.500000
 39
0
 62
9
  0
LINE
  8
trajectoire_D4_0mm
  6
CONTINUOUS
 10
93.058384
 20
32.815840
 11
83.661076
 21
28.923347
 39
0
 62
9
  0
ARC
  8
trajectoire_D4_0mm
  6
CONTINUOUS
 10
82.130343
 20
32.618865
 40
4.000000
 50
247.500000
 51
292.500000
 39
0
 62
9
  0
ARC
  8
trajectoire_D4_0mm
  6
CONTINUOUS
 10
74.290965
 20
33.701257
 40
2.000000
 50
202.500000
 51
247.500000
 39
0
 62
9
  0
LINE
  8
trajectoire_D4_0mm
  6
CONTINUOUS
 10
73.525598
 20
31.853498
 11
80.599609
 21
28.923347
 39
0
 62
9
  0
ARC
  8
trajectoire_D4_0mm
  6
CONTINUOUS
 10
33.701258
 20
74.290965
 40
2.000000
 50
112.500000
 51
247.500000
 39
0
 62
9
  0
ARC
  8
trajectoire_D4_0mm
  6
CONTINUOUS
 10
5.000000
 20
5.000000
 40
73.000000
 50
22.500000
 51
67.500000
 39
0
 62
9
  0
LINE
  8
trajectoire_D4_0mm
  6
CONTINUOUS
 10
32.935891
 20
76.138725
 11
40.009901
 21
79.068876
 39
0
 62
9
  0
ARC
  8
trajectoire_D4_0mm
  6
CONTINUOUS
 10
52.835429
 20
120.484942
 40
2.000000
 50
67.500000
 51
157.500000
 39
0
 62
9
  0
LINE
  8
trajectoire_D4_0mm
  6
CONTINUOUS
 10
49.261026
 20
117.081821
 11
50.987670
 21
121.250308
 39
0
 62
9
  0
ARC
  8
trajectoire_D4_0mm
  6
CONTINUOUS
 10
120.484942
 20
52.835429
 40
2.000000
 50
292.500000
 51
22.500000
 39
0
 62
9
  0
ARC
  8
trajectoire_D4_0mm
  6
CONTINUOUS
 10
5.000000
 20
5.000000
 40
127.000000
 50
22.500000
 51
67.500000
 39
0
 62
9
  0
LINE
  8
trajectoire_D4_0mm
  6
CONTINUOUS
 10
117.081820
 20
49.261026
 11
121.250308
 21
50.987670
 39
0
 62
9
  0
CIRCLE
  8
default
  6
CONTINUOUS
 10
86.301399
 20
38.676142
 40
2.500000
 39
0
 62
0
  0
CIRCLE
  8
trajectoire_D4_0mm
  6
CONTINUOUS
 10
86.301399
 20
38.676142
 40
0.500000
 39
0
 62
9
  0
CIRCLE
  8
trajectoire_D4_0mm
  6
CONTINUOUS
 10
78.169326
 20
53.890180
 40
2.000000
 39
0
 62
9
  0
CIRCLE
  8
trajectoire_D4_0mm
  6
CONTINUOUS
 10
53.890180
 20
78.169326
 40
2.000000
 39
0
 62
9
  0
LINE
  8
default
  6
CONTINUOUS
 10
106.968402
 20
58.060617
 11
103.018013
 21
56.424312
 39
0
 62
0
  0
ARC
  8
default
  6
CONTINUOUS
 10
103.783380
 20
54.576553
 40
2.000000
 50
112.500000
 51
229.065051
 39
0
 62
0
  0
LINE
  8
trajectoire_D4_0mm
  6
CONTINUOUS
 10
103.783380
 20
54.576553
 11
110.718704
 21
48.561578
 39
0
 62
9
  0
LINE
  8
trajectoire_D4_0mm
  6
CONTINUOUS
 10
107.733769
 20
56.212858
 11
103.783380
 21
54.576553
 39
0
 62
9
  0
ARC
  8
trajectoire_D4_0mm
  6
CONTINUOUS
 10
39.794481
 20
109.906314
 40
4.000000
 50
157.500009
 51
274.065051
 39
0
 62
9
  0
LINE
  8
trajectoire_D4_0mm
  6
CONTINUOUS
 10
37.735267
 20
115.387438
 11
36.098963
 21
111.437047
 39
0
 62
9
  0
LINE
  8
default
  6
CONTINUOUS
 10
39.583027
 20
114.622071
 11
37.946721
 21
110.671681
 39
0
 62
0
  0
ARC
  8
default
  6
CONTINUOUS
 10
39.794481
 20
109.906314
 40
2.000000
 50
157.499991
 51
274.065051
 39
0
 62
0
  0
ARC
  8
default
  6
CONTINUOUS
 10
49.261026
 20
117.081821
 40
2.000000
 50
264.199244
 51
337.500000
 39
0
 62
3
  0
LINE
  8
default
  6
CONTINUOUS
 10
51.108785
 20
116.316454
 11
52.835429
 21
120.484942
 39
0
 62
3
  0
LINE
  8
default
  6
CONTINUOUS
 10
41.632924
 20
115.846463
 11
49.058887
 21
115.092062
 39
0
 62
3
  0
ARC
  8
default
  6
CONTINUOUS
 10
41.430785
 20
113.856704
 40
2.000000
 50
84.199245
 51
157.500000
 39
0
 62
3
  0
LINE
  8
default
  6
CONTINUOUS
 10
0.000000
 20
0.000000
 11
0.000000
 21
200.000000
 39
0
 62
0
  0
LINE
  8
default
  6
CONTINUOUS
 10
0.000000
 20
0.000000
 11
200.000000
 21
0.000000
 39
0
 62
0
  0
LINE
  8
default
  6
CONTINUOUS
 10
0.000000
 20
0.000000
 11
58.056935
 21
191.388067
 39
0
 62
13
  0
LINE
  8
default
  6
CONTINUOUS
 10
0.000000
 20
0.000000
 11
191.388067
 21
58.056935
 39
0
 62
13
  0
ARC
  8
trajectoire_D4_8mm
  6
CONTINUOUS
 10
5.000000
 20
5.000000
 40
100.000000
 50
14.964818
 51
75.035182
 39
0
 62
12
  0
ARC
  8
trajectoire_D4_8mm
  6
CONTINUOUS
 10
5.000000
 20
5.000000
 40
103.000000
 50
15.020474
 51
74.979526
 39
0
 62
12
  0
ARC
  8
trajectoire_D4_8mm
  6
CONTINUOUS
 10
5.000000
 20
5.000000
 40
106.000000
 50
15.072979
 51
74.927021
 39
0
 62
12
  0
ARC
  8
trajectoire_D4_8mm
  6
CONTINUOUS
 10
5.000000
 20
5.000000
 40
109.000000
 50
15.122591
 51
74.877409
 39
0
 62
12
  0
ARC
  8
trajectoire_D4_8mm
  6
CONTINUOUS
 10
5.000000
 20
5.000000
 40
112.000000
 50
15.169545
 51
74.830455
 39
0
 62
12
  0
ARC
  8
trajectoire_D4_8mm
  6
CONTINUOUS
 10
5.000000
 20
5.000000
 40
115.000000
 50
15.214048
 51
74.785952
 39
0
 62
12
  0
ARC
  8
trajectoire_D4_8mm
  6
CONTINUOUS
 10
5.000000
 20
5.000000
 40
118.000000
 50
15.256287
 51
74.743713
 39
0
 62
12
  0
ARC
  8
trajectoire_D4_8mm
  6
CONTINUOUS
 10
5.000000
 20
5.000000
 40
122.000000
 50
15.309373
 51
74.690627
 39
0
 62
12
  0
ARC
  8
trajectoire_D4_8mm
  6
CONTINUOUS
 10
5.000000
 20
5.000000
 40
125.000000
 50
15.309373
 51
74.690627
 39
0
 62
12
  0
LINE
  8
trajectoire_D4_8mm
  6
CONTINUOUS
 10
38.003854
 20
125.564280
 11
37.211761
 21
122.670737
 39
0
 62
12
  0
LINE
  8
trajectoire_D4_8mm
  6
CONTINUOUS
 10
36.050174
 20
118.841498
 11
35.178964
 21
115.969501
 39
0
 62
12
  0
LINE
  8
trajectoire_D4_8mm
  6
CONTINUOUS
 10
34.307734
 20
113.097441
 11
33.436483
 21
110.225313
 39
0
 62
12
  0
LINE
  8
trajectoire_D4_8mm
  6
CONTINUOUS
 10
32.565210
 20
107.353110
 11
31.693913
 21
104.480827
 39
0
 62
12
  0
LINE
  8
trajectoire_D4_8mm
  6
CONTINUOUS
 10
101.608457
 20
30.822588
 11
104.480827
 21
31.693913
 39
0
 62
12
  0
LINE
  8
trajectoire_D4_8mm
  6
CONTINUOUS
 10
107.353110
 20
32.565210
 11
110.225313
 21
33.436483
 39
0
 62
12
  0
LINE
  8
trajectoire_D4_8mm
  6
CONTINUOUS
 10
113.097441
 20
34.307734
 11
115.969501
 21
35.178964
 39
0
 62
12
  0
LINE
  8
trajectoire_D4_8mm
  6
CONTINUOUS
 10
118.841498
 20
36.050174
 11
122.670737
 21
37.211761
 39
0
 62
12
  0
ENDSEC
  0
EOF
