  0
SECTION
  2
HEADER
  9
$LIMMIN
 10
0.000000
 20
0.000000
  9
$LIMMAX
 10
100.629023
 20
78.966991
  9
$EXTMIN
 10
0.000000
 20
0.000000
  9
$EXTMAX
 10
100.629023
 20
78.966991
  9
$ANGBASE
 50
0.000000
  9
$ANGDIR
 70
0
  9
$INSUNITS
 70
4
  9
$DIMALT
 70
4
  9
$DIMLUNIT
 70
2
  9
$DIMASZ
 40
3.000000
  9
$DIMTXT
 40
5.000000
  9
$DIMRND
 40
0.010000
  9
$DIMEXE
 40
2.000000
  9
$DIMEXO
 40
2.000000
  9
$DIMAUNIT
 70
0
  9
$DIMADEC
 70
2
  9
$GRIDUNIT
 10
0.001000
 20
0.001000
  9
$PLIMMIN
 10
0.000000
 20
0.000000
  9
$PLIMMAX
 10
210.000000
 20
297.000000
  9
$PSVPSCALE
 40
1.000000
  0
ENDSEC
  0
SECTION
  2
TABLES
  0
TABLE
  2
LTYPE
 70
     1
  0
LTYPE
  2
CONTINUOUS
 70
    64
  3
Ausgez
 72
    65
 73
  0
 40
0.000000
  0
ENDTAB
  0
TABLE
  2
LAYER
 70
     1
  0
LAYER
  2
default
 70
    64
 62
0
  6
CONTINUOUS
  0
LAYER
  2
0
 70
    64
 62
7
  6
CONTINUOUS
  0
LAYER
  2
trajectoire_D4_0mm
 70
    64
 62
2
  6
CONTINUOUS
  0
LAYER
  2
trajectoire_D4_5mm
 70
    64
 62
3
  6
CONTINUOUS
  0
ENDTAB
  0
ENDSEC
  0
SECTION
  2
BLOCKS
  0
ENDSEC
  0
SECTION
  2
ENTITIES
  0
CIRCLE
  8
trajectoire_D4_0mm
  6
CONTINUOUS
 10
58.890181
 20
56.830674
 40
4.000000
 39
0
 62
9
  0
CIRCLE
  8
trajectoire_D4_0mm
  6
CONTINUOUS
 10
43.676142
 20
48.698601
 40
0.500000
 39
0
 62
9
  0
CIRCLE
  8
trajectoire_D4_0mm
  6
CONTINUOUS
 10
27.167948
 20
43.690895
 40
4.000000
 39
0
 62
9
  0
CIRCLE
  8
trajectoire_D4_0mm
  6
CONTINUOUS
 10
31.947661
 20
19.661656
 40
0.500000
 39
0
 62
9
  0
CIRCLE
  8
trajectoire_D4_0mm
  6
CONTINUOUS
 10
72.501651
 20
36.459669
 40
0.500000
 39
0
 62
9
  0
LINE
  8
trajectoire_D4_5mm
  6
CONTINUOUS
 10
67.209061
 20
67.134085
 11
69.332654
 21
65.010492
 39
0
 62
10
  0
LINE
  8
trajectoire_D4_5mm
  6
CONTINUOUS
 10
71.456097
 20
62.887049
 11
83.161914
 21
70.980221
 39
0
 62
10
  0
LINE
  8
trajectoire_D4_5mm
  6
CONTINUOUS
 10
65.033009
 20
73.322245
 11
65.033009
 21
69.210462
 39
0
 62
10
  0
ARC
  8
trajectoire_D4_5mm
  6
CONTINUOUS
 10
10.000000
 20
130.000000
 40
82.000000
 50
264.401262
 51
312.154667
 39
0
 62
10
  0
ARC
  8
trajectoire_D4_5mm
  6
CONTINUOUS
 10
10.000000
 20
130.000000
 40
85.000000
 50
264.599463
 51
312.302732
 39
0
 62
10
  0
ARC
  8
trajectoire_D4_5mm
  6
CONTINUOUS
 10
10.000000
 20
130.000000
 40
88.000000
 50
264.784091
 51
312.394749
 39
0
 62
10
  0
ARC
  8
trajectoire_D4_5mm
  6
CONTINUOUS
 10
10.000000
 20
130.000000
 40
91.000000
 50
264.956498
 51
312.480692
 39
0
 62
10
  0
ARC
  8
trajectoire_D4_5mm
  6
CONTINUOUS
 10
10.000000
 20
130.000000
 40
94.000000
 50
265.117858
 51
321.106852
 39
0
 62
10
  0
ARC
  8
trajectoire_D4_5mm
  6
CONTINUOUS
 10
10.000000
 20
130.000000
 40
76.000000
 50
267.181933
 51
316.395570
 39
0
 62
10
  0
ARC
  8
trajectoire_D4_5mm
  6
CONTINUOUS
 10
10.000000
 20
130.000000
 40
79.000000
 50
265.239752
 51
314.156480
 39
0
 62
10
  0
LINE
  8
trajectoire_D4_5mm
  6
CONTINUOUS
 10
6.263481
 20
54.091908
 11
3.444070
 21
51.272497
 39
0
 62
10
  0
ARC
  8
trajectoire_D4_5mm
  6
CONTINUOUS
 10
10.000000
 20
130.000000
 40
97.000000
 50
273.478436
 51
320.917295
 39
0
 62
10
  0
LINE
  8
trajectoire_D4_5mm
  6
CONTINUOUS
 10
15.885270
 20
33.178703
 11
2.000000
 21
36.341044
 39
0
 62
10
  0
LINE
  8
trajectoire_D4_5mm
  6
CONTINUOUS
 10
2.000000
 20
39.352330
 11
2.000000
 21
42.364391
 39
0
 62
10
  0
LINE
  8
trajectoire_D4_5mm
  6
CONTINUOUS
 10
2.000000
 20
45.377308
 11
2.000000
 21
48.391177
 39
0
 62
10
  0
LINE
  8
trajectoire_D4_0mm
  6
CONTINUOUS
 10
72.225397
 20
62.117749
 11
65.033009
 21
69.310137
 39
0
 62
9
  0
LINE
  8
trajectoire_D4_0mm
  6
CONTINUOUS
 10
80.376828
 20
70.269180
 11
72.225397
 21
62.117749
 39
0
 62
9
  0
ARC
  8
trajectoire_D4_0mm
  6
CONTINUOUS
 10
83.205255
 20
67.440753
 40
4.000000
 50
341.565051
 51
135.000000
 39
0
 62
9
  0
LINE
  8
trajectoire_D4_0mm
  6
CONTINUOUS
 10
82.998924
 20
54.172649
 11
86.999988
 21
66.175842
 39
0
 62
9
  0
LINE
  8
trajectoire_D4_0mm
  6
CONTINUOUS
 10
86.907714
 20
50.263859
 11
82.998924
 21
54.172649
 39
0
 62
9
  0
LINE
  8
trajectoire_D4_0mm
  6
CONTINUOUS
 10
89.810792
 20
58.973094
 11
86.907714
 21
50.263859
 39
0
 62
9
  0
ARC
  8
trajectoire_D4_0mm
  6
CONTINUOUS
 10
96.629023
 20
54.684686
 40
4.000000
 50
331.699244
 51
45.000000
 39
0
 62
9
  0
LINE
  8
trajectoire_D4_0mm
  6
CONTINUOUS
 10
100.150907
 20
52.788287
 11
96.612139
 21
46.216288
 39
0
 62
9
  0
ARC
  8
trajectoire_D4_0mm
  6
CONTINUOUS
 10
12.000000
 20
9.511939
 40
4.000000
 50
106.699244
 51
180.000000
 39
0
 62
9
  0
LINE
  8
trajectoire_D4_0mm
  6
CONTINUOUS
 10
18.000000
 20
15.488061
 11
10.850608
 21
13.343244
 39
0
 62
9
  0
ARC
  8
trajectoire_D4_0mm
  6
CONTINUOUS
 10
8.000000
 20
19.236068
 40
4.000000
 50
180.000000
 51
296.565051
 39
0
 62
9
  0
LINE
  8
trajectoire_D4_0mm
  6
CONTINUOUS
 10
4.000000
 20
19.236068
 11
4.000000
 21
24.763932
 39
0
 62
9
  0
ARC
  8
trajectoire_D4_0mm
  6
CONTINUOUS
 10
8.000000
 20
24.763932
 40
4.000000
 50
116.565051
 51
180.000000
 39
0
 62
9
  0
LINE
  8
trajectoire_D4_0mm
  6
CONTINUOUS
 10
6.211146
 20
28.341641
 11
17.527864
 21
34.000000
 39
0
 62
9
  0
LINE
  8
trajectoire_D4_0mm
  6
CONTINUOUS
 10
17.527864
 20
34.000000
 11
6.000000
 21
34.000000
 39
0
 62
9
  0
ARC
  8
trajectoire_D4_0mm
  6
CONTINUOUS
 10
6.000000
 20
38.000000
 40
4.000000
 50
180.000000
 51
270.000000
 39
0
 62
9
  0
LINE
  8
trajectoire_D4_0mm
  6
CONTINUOUS
 10
2.000000
 20
38.000000
 11
2.000000
 21
48.171573
 39
0
 62
9
  0
ARC
  8
trajectoire_D4_0mm
  6
CONTINUOUS
 10
6.000000
 20
48.171573
 40
4.000000
 50
135.000000
 51
180.000000
 39
0
 62
9
  0
ARC
  8
trajectoire_D4_0mm
  6
CONTINUOUS
 10
10.000000
 20
55.000000
 40
2.000000
 50
90.000000
 51
135.000000
 39
0
 62
9
  0
LINE
  8
trajectoire_D4_0mm
  6
CONTINUOUS
 10
8.585786
 20
56.414214
 11
3.171573
 21
51.000000
 39
0
 62
9
  0
ARC
  8
trajectoire_D4_0mm
  6
CONTINUOUS
 10
63.033009
 20
76.966991
 40
2.000000
 50
0.000000
 51
135.000000
 39
0
 62
9
  0
ARC
  8
trajectoire_D4_0mm
  6
CONTINUOUS
 10
10.000000
 20
130.000000
 40
73.000000
 50
270.000000
 51
315.000000
 39
0
 62
9
  0
LINE
  8
trajectoire_D4_0mm
  6
CONTINUOUS
 10
65.033009
 20
76.966991
 11
65.033009
 21
69.310137
 39
0
 62
9
  0
ARC
  8
trajectoire_D4_0mm
  6
CONTINUOUS
 10
98.388348
 20
41.611652
 40
2.000000
 50
315.000000
 51
45.000000
 39
0
 62
9
  0
LINE
  8
trajectoire_D4_0mm
  6
CONTINUOUS
 10
96.612139
 20
46.216288
 11
99.802561
 21
43.025866
 39
0
 62
9
  0
ARC
  8
trajectoire_D4_0mm
  6
CONTINUOUS
 10
10.000000
 20
5.000000
 40
2.000000
 50
180.000000
 51
270.000000
 39
0
 62
9
  0
ARC
  8
trajectoire_D4_0mm
  6
CONTINUOUS
 10
10.000000
 20
130.000000
 40
127.000000
 50
270.000000
 51
315.000000
 39
0
 62
9
  0
LINE
  8
trajectoire_D4_0mm
  6
CONTINUOUS
 10
8.000000
 20
9.511939
 11
8.000000
 21
5.000000
 39
0
 62
9
  0
CIRCLE
  8
trajectoire_D4_0mm
  6
CONTINUOUS
 10
10.000000
 20
42.000000
 40
0.500000
 39
0
 62
9
  0
CIRCLE
  8
trajectoire_D4_0mm
  6
CONTINUOUS
 10
27.167948
 20
43.690895
 40
2.000000
 39
0
 62
9
  0
CIRCLE
  8
trajectoire_D4_0mm
  6
CONTINUOUS
 10
58.890181
 20
56.830674
 40
2.000000
 39
0
 62
9
  0
LINE
  8
trajectoire_D4_0mm
  6
CONTINUOUS
 10
18.000000
 20
19.763932
 11
9.788854
 21
15.658359
 39
0
 62
9
  0
LINE
  8
trajectoire_D4_0mm
  6
CONTINUOUS
 10
18.000000
 20
15.488061
 11
18.000000
 21
19.763932
 39
0
 62
9
  0
ARC
  8
trajectoire_D4_0mm
  6
CONTINUOUS
 10
93.605525
 20
57.708183
 40
4.000000
 50
45.000009
 51
161.565051
 39
0
 62
9
  0
LINE
  8
trajectoire_D4_0mm
  6
CONTINUOUS
 10
99.457450
 20
57.513113
 11
96.433952
 21
60.536610
 39
0
 62
9
  0
ENDSEC
  0
EOF
