  0
SECTION
  2
HEADER
  9
$LIMMIN
 10
-7.000000
 20
-127.000000
  9
$LIMMAX
 10
127.000000
 20
7.000000
  9
$EXTMIN
 10
-7.000000
 20
-127.000000
  9
$EXTMAX
 10
127.000000
 20
7.000000
  9
$ANGBASE
 50
0.000000
  9
$ANGDIR
 70
0
  9
$INSUNITS
 70
4
  9
$DIMALT
 70
4
  9
$DIMLUNIT
 70
2
  9
$DIMASZ
 40
3.000000
  9
$DIMTXT
 40
5.000000
  9
$DIMRND
 40
0.010000
  9
$DIMEXE
 40
2.000000
  9
$DIMEXO
 40
2.000000
  9
$DIMAUNIT
 70
0
  9
$DIMADEC
 70
2
  9
$GRIDUNIT
 10
0.001000
 20
0.001000
  9
$PLIMMIN
 10
0.000000
 20
0.000000
  9
$PLIMMAX
 10
210.000000
 20
297.000000
  9
$PSVPSCALE
 40
1.000000
  0
ENDSEC
  0
SECTION
  2
TABLES
  0
TABLE
  2
LTYPE
 70
     1
  0
LTYPE
  2
CONTINUOUS
 70
    64
  3
Ausgez
 72
    65
 73
  0
 40
0.000000
  0
ENDTAB
  0
TABLE
  2
LAYER
 70
     1
  0
LAYER
  2
default
 70
    64
 62
0
  6
CONTINUOUS
  0
LAYER
  2
trajectoire_D4
 70
    64
 62
0
  6
CONTINUOUS
  0
ENDTAB
  0
ENDSEC
  0
SECTION
  2
BLOCKS
  0
ENDSEC
  0
SECTION
  2
ENTITIES
  0
CIRCLE
  8
trajectoire_D4
  6
CONTINUOUS
 10
86.309105
 20
-17.167948
 40
4.000000
 39
0
 62
9
  0
CIRCLE
  8
trajectoire_D4
  6
CONTINUOUS
 10
81.301399
 20
-33.676142
 40
0.500000
 39
0
 62
9
  0
CIRCLE
  8
trajectoire_D4
  6
CONTINUOUS
 10
73.169326
 20
-48.890181
 40
4.000000
 39
0
 62
9
  0
CIRCLE
  8
trajectoire_D4
  6
CONTINUOUS
 10
48.890181
 20
-73.169326
 40
4.000000
 39
0
 62
9
  0
CIRCLE
  8
trajectoire_D4
  6
CONTINUOUS
 10
33.676142
 20
-81.301399
 40
0.500000
 39
0
 62
9
  0
CIRCLE
  8
trajectoire_D4
  6
CONTINUOUS
 10
17.167948
 20
-86.309105
 40
4.000000
 39
0
 62
9
  0
CIRCLE
  8
trajectoire_D4
  6
CONTINUOUS
 10
21.947661
 20
-110.338344
 40
0.500000
 39
0
 62
9
  0
CIRCLE
  8
trajectoire_D4
  6
CONTINUOUS
 10
62.501651
 20
-93.540331
 40
0.500000
 39
0
 62
9
  0
CIRCLE
  8
trajectoire_D4
  6
CONTINUOUS
 10
93.540331
 20
-62.501651
 40
0.500000
 39
0
 62
9
  0
CIRCLE
  8
trajectoire_D4
  6
CONTINUOUS
 10
110.338344
 20
-21.947661
 40
0.500000
 39
0
 62
9
  0
ARC
  8
default
  6
CONTINUOUS
 10
0.000000
 20
0.000000
 40
75.000000
 50
270.000000
 51
0.000000
 39
0
 62
0
  0
ARC
  8
default
  6
CONTINUOUS
 10
0.000000
 20
0.000000
 40
125.000000
 50
270.000000
 51
0.000000
 39
0
 62
0
  0
CIRCLE
  8
default
  6
CONTINUOUS
 10
86.309105
 20
-17.167948
 40
6.000000
 39
0
 62
0
  0
CIRCLE
  8
default
  6
CONTINUOUS
 10
73.169326
 20
-48.890181
 40
6.000000
 39
0
 62
0
  0
CIRCLE
  8
default
  6
CONTINUOUS
 10
48.890181
 20
-73.169326
 40
6.000000
 39
0
 62
0
  0
CIRCLE
  8
default
  6
CONTINUOUS
 10
17.167948
 20
-86.309105
 40
6.000000
 39
0
 62
0
  0
CIRCLE
  8
default
  6
CONTINUOUS
 10
81.301399
 20
-33.676142
 40
2.500000
 39
0
 62
0
  0
CIRCLE
  8
default
  6
CONTINUOUS
 10
33.676142
 20
-81.301399
 40
2.500000
 39
0
 62
0
  0
CIRCLE
  8
default
  6
CONTINUOUS
 10
21.947661
 20
-110.338344
 40
2.500000
 39
0
 62
0
  0
CIRCLE
  8
default
  6
CONTINUOUS
 10
62.501651
 20
-93.540331
 40
2.500000
 39
0
 62
0
  0
CIRCLE
  8
default
  6
CONTINUOUS
 10
93.540331
 20
-62.501651
 40
2.500000
 39
0
 62
0
  0
CIRCLE
  8
default
  6
CONTINUOUS
 10
110.338344
 20
-21.947661
 40
2.500000
 39
0
 62
0
  0
LINE
  8
default
  6
CONTINUOUS
 10
75.000000
 20
0.000000
 11
78.037883
 21
3.037883
 39
0
 62
0
  0
LINE
  8
default
  6
CONTINUOUS
 10
121.962117
 20
3.037883
 11
125.000000
 21
0.000000
 39
0
 62
0
  0
LINE
  8
default
  6
CONTINUOUS
 10
81.240951
 20
2.518097
 11
83.211146
 21
-1.422291
 39
0
 62
0
  0
LINE
  8
default
  6
CONTINUOUS
 10
86.788854
 20
-1.422291
 11
89.447214
 21
3.894427
 39
0
 62
0
  0
LINE
  8
default
  6
CONTINUOUS
 10
91.236068
 20
5.000000
 11
91.763932
 21
5.000000
 39
0
 62
0
  0
LINE
  8
default
  6
CONTINUOUS
 10
93.552786
 20
2.105573
 11
91.447214
 21
-2.105573
 39
0
 62
0
  0
LINE
  8
default
  6
CONTINUOUS
 10
93.236068
 20
-5.000000
 11
106.763932
 21
-5.000000
 39
0
 62
0
  0
LINE
  8
default
  6
CONTINUOUS
 10
108.552786
 20
-2.105573
 11
106.447214
 21
2.105573
 39
0
 62
0
  0
LINE
  8
default
  6
CONTINUOUS
 10
108.236068
 20
5.000000
 11
108.763932
 21
5.000000
 39
0
 62
0
  0
LINE
  8
default
  6
CONTINUOUS
 10
110.552786
 20
3.894427
 11
113.211146
 21
-1.422291
 39
0
 62
0
  0
LINE
  8
default
  6
CONTINUOUS
 10
116.788854
 20
-1.422291
 11
118.759049
 21
2.518097
 39
0
 62
0
  0
LINE
  8
default
  6
CONTINUOUS
 10
0.000000
 20
-75.000000
 11
3.037883
 21
-78.037883
 39
0
 62
0
  0
LINE
  8
default
  6
CONTINUOUS
 10
2.518097
 20
-81.240951
 11
-1.422291
 21
-83.211146
 39
0
 62
0
  0
LINE
  8
default
  6
CONTINUOUS
 10
-1.422291
 20
-86.788854
 11
3.894427
 21
-89.447214
 39
0
 62
0
  0
LINE
  8
default
  6
CONTINUOUS
 10
5.000000
 20
-91.236068
 11
5.000000
 21
-91.763932
 39
0
 62
0
  0
LINE
  8
default
  6
CONTINUOUS
 10
2.105573
 20
-93.552786
 11
-2.105573
 21
-91.447214
 39
0
 62
0
  0
LINE
  8
default
  6
CONTINUOUS
 10
-5.000000
 20
-93.236068
 11
-5.000000
 21
-106.763932
 39
0
 62
0
  0
LINE
  8
default
  6
CONTINUOUS
 10
-2.105573
 20
-108.552786
 11
2.105573
 21
-106.447214
 39
0
 62
0
  0
LINE
  8
default
  6
CONTINUOUS
 10
5.000000
 20
-108.236068
 11
5.000000
 21
-108.763932
 39
0
 62
0
  0
LINE
  8
default
  6
CONTINUOUS
 10
3.894427
 20
-110.552786
 11
-1.422291
 21
-113.211146
 39
0
 62
0
  0
LINE
  8
default
  6
CONTINUOUS
 10
-1.422291
 20
-116.788854
 11
2.518097
 21
-118.759049
 39
0
 62
0
  0
LINE
  8
default
  6
CONTINUOUS
 10
3.037883
 20
-121.962117
 11
0.000000
 21
-125.000000
 39
0
 62
0
  0
ARC
  8
default
  6
CONTINUOUS
 10
79.452097
 20
1.623670
 40
2.000000
 50
26.565051
 51
135.000000
 39
0
 62
0
  0
ARC
  8
default
  6
CONTINUOUS
 10
120.547903
 20
1.623670
 40
2.000000
 50
45.000000
 51
153.434949
 39
0
 62
0
  0
ARC
  8
default
  6
CONTINUOUS
 10
85.000000
 20
-0.527864
 40
2.000000
 50
206.565051
 51
333.434949
 39
0
 62
0
  0
ARC
  8
default
  6
CONTINUOUS
 10
91.236068
 20
3.000000
 40
2.000000
 50
90.000000
 51
153.434949
 39
0
 62
0
  0
ARC
  8
default
  6
CONTINUOUS
 10
91.763932
 20
3.000000
 40
2.000000
 50
333.434949
 51
90.000000
 39
0
 62
0
  0
ARC
  8
default
  6
CONTINUOUS
 10
93.236068
 20
-3.000000
 40
2.000000
 50
153.434949
 51
270.000000
 39
0
 62
0
  0
ARC
  8
default
  6
CONTINUOUS
 10
106.763932
 20
-3.000000
 40
2.000000
 50
270.000000
 51
26.565051
 39
0
 62
0
  0
ARC
  8
default
  6
CONTINUOUS
 10
108.236068
 20
3.000000
 40
2.000000
 50
90.000000
 51
206.565051
 39
0
 62
0
  0
ARC
  8
default
  6
CONTINUOUS
 10
108.763932
 20
3.000000
 40
2.000000
 50
26.565051
 51
90.000000
 39
0
 62
0
  0
ARC
  8
default
  6
CONTINUOUS
 10
115.000000
 20
-0.527864
 40
2.000000
 50
206.565051
 51
333.434949
 39
0
 62
0
  0
ARC
  8
default
  6
CONTINUOUS
 10
1.623670
 20
-79.452097
 40
2.000000
 50
296.565051
 51
45.000000
 39
0
 62
0
  0
ARC
  8
default
  6
CONTINUOUS
 10
-0.527864
 20
-85.000000
 40
2.000000
 50
116.565051
 51
243.434949
 39
0
 62
0
  0
ARC
  8
default
  6
CONTINUOUS
 10
3.000000
 20
-91.236068
 40
2.000000
 50
0.000000
 51
63.434949
 39
0
 62
0
  0
ARC
  8
default
  6
CONTINUOUS
 10
3.000000
 20
-91.763932
 40
2.000000
 50
243.434949
 51
0.000000
 39
0
 62
0
  0
ARC
  8
default
  6
CONTINUOUS
 10
-3.000000
 20
-93.236068
 40
2.000000
 50
63.434949
 51
180.000000
 39
0
 62
0
  0
ARC
  8
default
  6
CONTINUOUS
 10
-3.000000
 20
-106.763932
 40
2.000000
 50
180.000000
 51
296.565051
 39
0
 62
0
  0
ARC
  8
default
  6
CONTINUOUS
 10
3.000000
 20
-108.236068
 40
2.000000
 50
0.000000
 51
116.565051
 39
0
 62
0
  0
ARC
  8
default
  6
CONTINUOUS
 10
3.000000
 20
-108.763932
 40
2.000000
 50
296.565051
 51
0.000000
 39
0
 62
0
  0
ARC
  8
default
  6
CONTINUOUS
 10
-0.527864
 20
-115.000000
 40
2.000000
 50
116.565051
 51
243.434949
 39
0
 62
0
  0
ARC
  8
default
  6
CONTINUOUS
 10
1.623670
 20
-120.547903
 40
2.000000
 50
315.000000
 51
63.434949
 39
0
 62
0
  0
ARC
  8
trajectoire_D4
  6
CONTINUOUS
 10
79.452097
 20
1.623670
 40
4.000000
 50
26.565051
 51
135.000000
 39
0
 62
9
  0
LINE
  8
trajectoire_D4
  6
CONTINUOUS
 10
83.029806
 20
3.412524
 11
85.000000
 21
-0.527864
 39
0
 62
9
  0
LINE
  8
trajectoire_D4
  6
CONTINUOUS
 10
85.000000
 20
-0.527864
 11
87.658359
 21
4.788854
 39
0
 62
9
  0
ARC
  8
trajectoire_D4
  6
CONTINUOUS
 10
91.236068
 20
3.000000
 40
4.000000
 50
90.000000
 51
153.434949
 39
0
 62
9
  0
ARC
  8
trajectoire_D4
  6
CONTINUOUS
 10
91.763932
 20
3.000000
 40
4.000000
 50
333.434949
 51
90.000000
 39
0
 62
9
  0
LINE
  8
trajectoire_D4
  6
CONTINUOUS
 10
95.341641
 20
1.211146
 11
93.236068
 21
-3.000000
 39
0
 62
9
  0
LINE
  8
trajectoire_D4
  6
CONTINUOUS
 10
93.236068
 20
-3.000000
 11
106.763932
 21
-3.000000
 39
0
 62
9
  0
LINE
  8
trajectoire_D4
  6
CONTINUOUS
 10
106.763932
 20
-3.000000
 11
104.658359
 21
1.211146
 39
0
 62
9
  0
ARC
  8
trajectoire_D4
  6
CONTINUOUS
 10
108.236068
 20
3.000000
 40
4.000000
 50
90.000000
 51
206.565051
 39
0
 62
9
  0
ARC
  8
trajectoire_D4
  6
CONTINUOUS
 10
108.763932
 20
3.000000
 40
4.000000
 50
26.565051
 51
90.000000
 39
0
 62
9
  0
LINE
  8
trajectoire_D4
  6
CONTINUOUS
 10
112.341641
 20
4.788854
 11
115.000000
 21
-0.527864
 39
0
 62
9
  0
LINE
  8
trajectoire_D4
  6
CONTINUOUS
 10
115.000000
 20
-0.527864
 11
116.970194
 21
3.412524
 39
0
 62
9
  0
ARC
  8
trajectoire_D4
  6
CONTINUOUS
 10
120.547903
 20
1.623670
 40
4.000000
 50
45.000000
 51
153.434949
 39
0
 62
9
  0
LINE
  8
trajectoire_D4
  6
CONTINUOUS
 10
-2.316718
 20
-118.577709
 11
1.623670
 21
-120.547903
 39
0
 62
9
  0
ARC
  8
trajectoire_D4
  6
CONTINUOUS
 10
-0.527864
 20
-115.000000
 40
4.000000
 50
116.565051
 51
243.434949
 39
0
 62
9
  0
LINE
  8
trajectoire_D4
  6
CONTINUOUS
 10
3.000000
 20
-108.763932
 11
-2.316718
 21
-111.422291
 39
0
 62
9
  0
LINE
  8
trajectoire_D4
  6
CONTINUOUS
 10
3.000000
 20
-108.236068
 11
3.000000
 21
-108.763932
 39
0
 62
9
  0
LINE
  8
trajectoire_D4
  6
CONTINUOUS
 10
-1.211146
 20
-110.341641
 11
3.000000
 21
-108.236068
 39
0
 62
9
  0
ARC
  8
trajectoire_D4
  6
CONTINUOUS
 10
-3.000000
 20
-106.763932
 40
4.000000
 50
180.000000
 51
296.565051
 39
0
 62
9
  0
LINE
  8
trajectoire_D4
  6
CONTINUOUS
 10
-7.000000
 20
-93.236068
 11
-7.000000
 21
-106.763932
 39
0
 62
9
  0
ARC
  8
trajectoire_D4
  6
CONTINUOUS
 10
-3.000000
 20
-93.236068
 40
4.000000
 50
63.434949
 51
180.000000
 39
0
 62
9
  0
LINE
  8
trajectoire_D4
  6
CONTINUOUS
 10
3.000000
 20
-91.763932
 11
-1.211146
 21
-89.658359
 39
0
 62
9
  0
LINE
  8
trajectoire_D4
  6
CONTINUOUS
 10
3.000000
 20
-91.236068
 11
3.000000
 21
-91.763932
 39
0
 62
9
  0
LINE
  8
trajectoire_D4
  6
CONTINUOUS
 10
-2.316718
 20
-88.577709
 11
3.000000
 21
-91.236068
 39
0
 62
9
  0
ARC
  8
trajectoire_D4
  6
CONTINUOUS
 10
-0.527864
 20
-85.000000
 40
4.000000
 50
116.565051
 51
243.434949
 39
0
 62
9
  0
LINE
  8
trajectoire_D4
  6
CONTINUOUS
 10
1.623670
 20
-79.452097
 11
-2.316718
 21
-81.422291
 39
0
 62
9
  0
ARC
  8
trajectoire_D4
  6
CONTINUOUS
 10
-0.000000
 20
-75.000000
 40
2.000000
 50
90.000000
 51
225.000000
 39
0
 62
9
  0
LINE
  8
trajectoire_D4
  6
CONTINUOUS
 10
-1.414214
 20
-76.414214
 11
1.623670
 21
-79.452097
 39
0
 62
9
  0
ARC
  8
trajectoire_D4
  6
CONTINUOUS
 10
0.000000
 20
-125.000000
 40
2.000000
 50
135.000000
 51
270.000000
 39
0
 62
9
  0
LINE
  8
trajectoire_D4
  6
CONTINUOUS
 10
1.623670
 20
-120.547903
 11
-1.414214
 21
-123.585786
 39
0
 62
9
  0
ARC
  8
trajectoire_D4
  6
CONTINUOUS
 10
75.000000
 20
0.000000
 40
2.000000
 50
135.000000
 51
180.000000
 39
0
 62
9
  0
ARC
  8
trajectoire_D4
  6
CONTINUOUS
 10
0.000000
 20
0.000000
 40
73.000000
 50
270.000000
 51
0.000000
 39
0
 62
9
  0
LINE
  8
trajectoire_D4
  6
CONTINUOUS
 10
73.585786
 20
1.414214
 11
76.623670
 21
4.452097
 39
0
 62
9
  0
ARC
  8
trajectoire_D4
  6
CONTINUOUS
 10
125.000000
 20
0.000000
 40
2.000000
 50
0.000000
 51
45.000000
 39
0
 62
9
  0
LINE
  8
trajectoire_D4
  6
CONTINUOUS
 10
123.376330
 20
4.452097
 11
126.414214
 21
1.414214
 39
0
 62
9
  0
ARC
  8
trajectoire_D4
  6
CONTINUOUS
 10
0.000000
 20
0.000000
 40
127.000000
 50
270.000000
 51
0.000000
 39
0
 62
9
  0
LINE
  8
trajectoire_D4
  6
CONTINUOUS
 10
91.236068
 20
7.000000
 11
91.763932
 21
7.000000
 39
0
 62
0
  0
LINE
  8
trajectoire_D4
  6
CONTINUOUS
 10
108.236068
 20
7.000000
 11
108.763932
 21
7.000000
 39
0
 62
0
  0
ENDSEC
  0
EOF
