  0
SECTION
  2
HEADER
  9
$LIMMIN
 10
0.000000
 20
0.000000
  9
$LIMMAX
 10
102.998724
 20
102.998724
  9
$EXTMIN
 10
0.000000
 20
0.000000
  9
$EXTMAX
 10
102.998724
 20
102.998724
  9
$ANGBASE
 50
0.000000
  9
$ANGDIR
 70
0
  9
$INSUNITS
 70
4
  9
$DIMALT
 70
4
  9
$DIMLUNIT
 70
2
  9
$DIMASZ
 40
3.000000
  9
$DIMTXT
 40
5.000000
  9
$DIMRND
 40
0.010000
  9
$DIMEXE
 40
2.000000
  9
$DIMEXO
 40
2.000000
  9
$DIMAUNIT
 70
0
  9
$DIMADEC
 70
2
  9
$GRIDUNIT
 10
0.001000
 20
0.001000
  9
$PLIMMIN
 10
0.000000
 20
0.000000
  9
$PLIMMAX
 10
210.000000
 20
297.000000
  9
$PSVPSCALE
 40
1.000000
  0
ENDSEC
  0
SECTION
  2
TABLES
  0
TABLE
  2
LTYPE
 70
     1
  0
LTYPE
  2
CONTINUOUS
 70
    64
  3
Ausgez
 72
    65
 73
  0
 40
0.000000
  0
ENDTAB
  0
TABLE
  2
LAYER
 70
     1
  0
LAYER
  2
default
 70
    64
 62
0
  6
CONTINUOUS
  0
LAYER
  2
Trajectoire_D4
 70
    64
 62
0
  6
CONTINUOUS
  0
LAYER
  2
C Circuit D3
 70
    64
 62
2
  6
CONTINUOUS
  0
LAYER
  2
Trajectoire_D3
 70
    64
 62
12
  6
CONTINUOUS
  0
LAYER
  2
Trous_D3
 70
    64
 62
10
  6
CONTINUOUS
  0
LAYER
  2
Trj_circuit_D4
 70
    64
 62
13
  6
CONTINUOUS
  0
ENDTAB
  0
ENDSEC
  0
SECTION
  2
BLOCKS
  0
ENDSEC
  0
SECTION
  2
ENTITIES
  0
CIRCLE
  8
default
  6
CONTINUOUS
 10
86.301399
 20
38.676142
 40
2.500000
 39
0
 62
0
  0
CIRCLE
  8
default
  6
CONTINUOUS
 10
38.676142
 20
86.301399
 40
2.500000
 39
0
 62
0
  0
CIRCLE
  8
default
  6
CONTINUOUS
 10
22.167948
 20
91.309105
 40
6.000000
 39
0
 62
0
  0
CIRCLE
  8
default
  6
CONTINUOUS
 10
53.890181
 20
78.169326
 40
6.000000
 39
0
 62
0
  0
CIRCLE
  8
default
  6
CONTINUOUS
 10
78.169326
 20
53.890181
 40
6.000000
 39
0
 62
0
  0
CIRCLE
  8
default
  6
CONTINUOUS
 10
91.309105
 20
22.167948
 40
6.000000
 39
0
 62
0
  0
ARC
  8
default
  6
CONTINUOUS
 10
5.000000
 20
5.000000
 40
98.000000
 50
0.292327
 51
89.707673
 39
0
 62
0
  0
ARC
  8
default
  6
CONTINUOUS
 10
5.000000
 20
5.000000
 40
29.000000
 50
0.987907
 51
89.012093
 39
0
 62
0
  0
LINE
  8
default
  6
CONTINUOUS
 10
33.995689
 20
5.500000
 11
102.998724
 21
5.500000
 39
0
 62
0
  0
LINE
  8
default
  6
CONTINUOUS
 10
5.500000
 20
102.998724
 11
5.500000
 21
33.995689
 39
0
 62
0
  0
CIRCLE
  8
Trajectoire_D4
  6
CONTINUOUS
 10
91.309105
 20
22.167948
 40
4.000000
 39
0
 62
9
  0
CIRCLE
  8
Trajectoire_D4
  6
CONTINUOUS
 10
86.301399
 20
38.676142
 40
0.500000
 39
0
 62
9
  0
CIRCLE
  8
Trajectoire_D4
  6
CONTINUOUS
 10
78.169326
 20
53.890181
 40
4.000000
 39
0
 62
9
  0
CIRCLE
  8
Trajectoire_D4
  6
CONTINUOUS
 10
53.890181
 20
78.169326
 40
4.000000
 39
0
 62
9
  0
CIRCLE
  8
Trajectoire_D4
  6
CONTINUOUS
 10
38.676142
 20
86.301399
 40
0.500000
 39
0
 62
9
  0
CIRCLE
  8
Trajectoire_D4
  6
CONTINUOUS
 10
22.167948
 20
91.309105
 40
4.000000
 39
0
 62
9
  0
ARC
  8
Trajectoire_D4
  6
CONTINUOUS
 10
5.500000
 20
102.998724
 40
2.000000
 50
89.707673
 51
180.000000
 39
0
 62
9
  0
ARC
  8
Trajectoire_D4
  6
CONTINUOUS
 10
5.500000
 20
33.995689
 40
2.000000
 50
180.000000
 51
269.012093
 39
0
 62
9
  0
LINE
  8
Trajectoire_D4
  6
CONTINUOUS
 10
3.500000
 20
102.998724
 11
3.500000
 21
33.995689
 39
0
 62
9
  0
ARC
  8
Trajectoire_D4
  6
CONTINUOUS
 10
33.995689
 20
5.500000
 40
2.000000
 50
180.987907
 51
270.000000
 39
0
 62
9
  0
ARC
  8
Trajectoire_D4
  6
CONTINUOUS
 10
5.000000
 20
5.000000
 40
27.000000
 50
0.987907
 51
89.012093
 39
0
 62
9
  0
ARC
  8
Trajectoire_D4
  6
CONTINUOUS
 10
102.998724
 20
5.500000
 40
2.000000
 50
270.000000
 51
0.292327
 39
0
 62
9
  0
LINE
  8
Trajectoire_D4
  6
CONTINUOUS
 10
33.995689
 20
3.500000
 11
102.998724
 21
3.500000
 39
0
 62
9
  0
ARC
  8
Trajectoire_D4
  6
CONTINUOUS
 10
5.000000
 20
5.000000
 40
100.000000
 50
0.292327
 51
89.707673
 39
0
 62
9
  0
ARC
  8
C Circuit D3
  6
CONTINUOUS
 10
5.000000
 20
5.000000
 40
72.000000
 50
56.748219
 51
77.366155
 39
0
 62
2
  0
ARC
  8
C Circuit D3
  6
CONTINUOUS
 10
5.000000
 20
5.000000
 40
67.000000
 50
56.370524
 51
77.366155
 39
0
 62
2
  0
ARC
  8
C Circuit D3
  6
CONTINUOUS
 10
5.000000
 20
5.000000
 40
62.000000
 50
55.931612
 51
77.366155
 39
0
 62
2
  0
ARC
  8
C Circuit D3
  6
CONTINUOUS
 10
5.000000
 20
5.000000
 40
57.000000
 50
55.415254
 51
77.366155
 39
0
 62
2
  0
ARC
  8
C Circuit D3
  6
CONTINUOUS
 10
5.000000
 20
5.000000
 40
52.000000
 50
54.798913
 51
77.366155
 39
0
 62
2
  0
ARC
  8
C Circuit D3
  6
CONTINUOUS
 10
5.000000
 20
5.000000
 40
47.000000
 50
54.050335
 51
77.366155
 39
0
 62
2
  0
ARC
  8
C Circuit D3
  6
CONTINUOUS
 10
5.000000
 20
5.000000
 40
42.000000
 50
53.121662
 51
77.366155
 39
0
 62
2
  0
ARC
  8
C Circuit D3
  6
CONTINUOUS
 10
5.000000
 20
5.000000
 40
37.000000
 50
51.938644
 51
77.366155
 39
0
 62
2
  0
ARC
  8
C Circuit D3
  6
CONTINUOUS
 10
27.514803
 20
30.477120
 40
2.000000
 50
228.532119
 51
317.733214
 39
0
 62
2
  0
ARC
  8
C Circuit D3
  6
CONTINUOUS
 10
30.477120
 20
27.514803
 40
2.000000
 50
132.266786
 51
221.467881
 39
0
 62
2
  0
ARC
  8
C Circuit D3
  6
CONTINUOUS
 10
10.500000
 20
38.552198
 40
2.000000
 50
180.000000
 51
260.690659
 39
0
 62
2
  0
ARC
  8
C Circuit D3
  6
CONTINUOUS
 10
5.000000
 20
5.000000
 40
32.000000
 50
48.532119
 51
80.690659
 39
0
 62
2
  0
ARC
  8
C Circuit D3
  6
CONTINUOUS
 10
38.552198
 20
10.500000
 40
2.000000
 50
189.309341
 51
270.000000
 39
0
 62
2
  0
ARC
  8
C Circuit D3
  6
CONTINUOUS
 10
5.000000
 20
5.000000
 40
32.000000
 50
9.309341
 51
41.467881
 39
0
 62
2
  0
ARC
  8
C Circuit D3
  6
CONTINUOUS
 10
10.500000
 20
79.373320
 40
2.000000
 50
149.515644
 51
180.000000
 39
0
 62
2
  0
LINE
  8
C Circuit D3
  6
CONTINUOUS
 10
8.776465
 20
80.387926
 11
16.997342
 21
94.352924
 39
0
 62
2
  0
LINE
  8
C Circuit D3
  6
CONTINUOUS
 10
8.500000
 20
79.373320
 11
8.500000
 21
38.552198
 39
0
 62
2
  0
LINE
  8
C Circuit D3
  6
CONTINUOUS
 10
56.178317
 20
59.041010
 11
28.994846
 21
29.131952
 39
0
 62
2
  0
ARC
  8
C Circuit D3
  6
CONTINUOUS
 10
60.386177
 20
54.698275
 40
2.000000
 50
100.383428
 51
132.266786
 39
0
 62
2
  0
LINE
  8
C Circuit D3
  6
CONTINUOUS
 10
60.025708
 20
56.665522
 11
77.087918
 21
59.791923
 39
0
 62
2
  0
LINE
  8
C Circuit D3
  6
CONTINUOUS
 10
29.131952
 20
28.994846
 11
59.041010
 21
56.178317
 39
0
 62
2
  0
ARC
  8
C Circuit D3
  6
CONTINUOUS
 10
79.373320
 20
10.500000
 40
2.000000
 50
270.000000
 51
300.484356
 39
0
 62
2
  0
LINE
  8
C Circuit D3
  6
CONTINUOUS
 10
80.387926
 20
8.776465
 11
94.352924
 21
16.997342
 39
0
 62
2
  0
LINE
  8
C Circuit D3
  6
CONTINUOUS
 10
79.373320
 20
8.500000
 11
38.552198
 21
8.500000
 39
0
 62
2
  0
ARC
  8
C Circuit D3
  6
CONTINUOUS
 10
22.181368
 20
78.519049
 40
0.500000
 50
149.515644
 51
256.846080
 39
0
 62
2
  0
LINE
  8
C Circuit D3
  6
CONTINUOUS
 10
27.338554
 20
88.265286
 11
21.750484
 21
78.772701
 39
0
 62
2
  0
ARC
  8
C Circuit D3
  6
CONTINUOUS
 10
45.544932
 20
68.689548
 40
0.500000
 50
237.519064
 51
349.616572
 39
0
 62
2
  0
LINE
  8
C Circuit D3
  6
CONTINUOUS
 10
47.988439
 20
79.250734
 11
46.036743
 21
68.599431
 39
0
 62
2
  0
ARC
  8
C Circuit D3
  6
CONTINUOUS
 10
5.000000
 20
5.000000
 40
75.000000
 50
57.519064
 51
76.846080
 39
0
 62
2
  0
ARC
  8
C Circuit D3
  6
CONTINUOUS
 10
20.907244
 20
73.681945
 40
0.500000
 50
167.366155
 51
256.959798
 39
0
 62
2
  0
LINE
  8
C Circuit D3
  6
CONTINUOUS
 10
20.747818
 20
75.256717
 11
20.419350
 21
73.791305
 39
0
 62
2
  0
ARC
  8
C Circuit D3
  6
CONTINUOUS
 10
43.347057
 20
64.158712
 40
0.500000
 50
237.048434
 51
331.794734
 39
0
 62
2
  0
LINE
  8
C Circuit D3
  6
CONTINUOUS
 10
44.478984
 20
65.211376
 11
43.787687
 21
63.922396
 39
0
 62
2
  0
ARC
  8
C Circuit D3
  6
CONTINUOUS
 10
5.000000
 20
5.000000
 40
70.000000
 50
57.048434
 51
76.959798
 39
0
 62
2
  0
ARC
  8
C Circuit D3
  6
CONTINUOUS
 10
40.975142
 20
59.736086
 40
0.500000
 50
236.685192
 51
331.794734
 39
0
 62
2
  0
LINE
  8
C Circuit D3
  6
CONTINUOUS
 10
42.105939
 20
60.786641
 11
41.415772
 21
59.499770
 39
0
 62
2
  0
ARC
  8
C Circuit D3
  6
CONTINUOUS
 10
19.813616
 20
68.802874
 40
0.500000
 50
167.366155
 51
256.928778
 39
0
 62
2
  0
ARC
  8
C Circuit D3
  6
CONTINUOUS
 10
5.000000
 20
5.000000
 40
65.000000
 50
56.685192
 51
76.928778
 39
0
 62
2
  0
LINE
  8
C Circuit D3
  6
CONTINUOUS
 10
19.654219
 20
70.377778
 11
19.325722
 21
68.912234
 39
0
 62
2
  0
ARC
  8
C Circuit D3
  6
CONTINUOUS
 10
18.719983
 20
63.923782
 40
0.500000
 50
167.366155
 51
256.892630
 39
0
 62
2
  0
LINE
  8
C Circuit D3
  6
CONTINUOUS
 10
18.560621
 20
65.498839
 11
18.232089
 21
64.033142
 39
0
 62
2
  0
ARC
  8
C Circuit D3
  6
CONTINUOUS
 10
38.601771
 20
55.310744
 40
0.500000
 50
236.261649
 51
331.794734
 39
0
 62
2
  0
ARC
  8
C Circuit D3
  6
CONTINUOUS
 10
5.000000
 20
5.000000
 40
60.000000
 50
56.261649
 51
76.892630
 39
0
 62
2
  0
LINE
  8
C Circuit D3
  6
CONTINUOUS
 10
39.731287
 20
56.358911
 11
39.042401
 21
55.074428
 39
0
 62
2
  0
ARC
  8
C Circuit D3
  6
CONTINUOUS
 10
36.226545
 20
50.881945
 40
0.500000
 50
235.761400
 51
331.794734
 39
0
 62
2
  0
LINE
  8
C Circuit D3
  6
CONTINUOUS
 10
37.354601
 20
51.927389
 11
36.667175
 21
50.645629
 39
0
 62
2
  0
ARC
  8
C Circuit D3
  6
CONTINUOUS
 10
17.626344
 20
59.044661
 40
0.500000
 50
167.366155
 51
256.849969
 39
0
 62
2
  0
ARC
  8
C Circuit D3
  6
CONTINUOUS
 10
5.000000
 20
5.000000
 40
55.000000
 50
55.761400
 51
76.849969
 39
0
 62
2
  0
LINE
  8
C Circuit D3
  6
CONTINUOUS
 10
17.467022
 20
60.619901
 11
17.138450
 21
59.154021
 39
0
 62
2
  0
ARC
  8
C Circuit D3
  6
CONTINUOUS
 10
16.532697
 20
54.165505
 40
0.500000
 50
167.366155
 51
256.798860
 39
0
 62
2
  0
LINE
  8
C Circuit D3
  6
CONTINUOUS
 10
16.373424
 20
55.740962
 11
16.044803
 21
54.274865
 39
0
 62
2
  0
ARC
  8
C Circuit D3
  6
CONTINUOUS
 10
33.848908
 20
46.448649
 40
0.500000
 50
235.161479
 51
331.794734
 39
0
 62
2
  0
ARC
  8
C Circuit D3
  6
CONTINUOUS
 10
5.000000
 20
5.000000
 40
50.000000
 50
55.161479
 51
76.798860
 39
0
 62
2
  0
LINE
  8
C Circuit D3
  6
CONTINUOUS
 10
34.975287
 20
47.490966
 11
34.289538
 21
46.212333
 39
0
 62
2
  0
ARC
  8
C Circuit D3
  6
CONTINUOUS
 10
31.468053
 20
42.009352
 40
0.500000
 50
234.428711
 51
331.794734
 39
0
 62
2
  0
LINE
  8
C Circuit D3
  6
CONTINUOUS
 10
32.592492
 20
43.048054
 11
31.908683
 21
41.773037
 39
0
 62
2
  0
ARC
  8
C Circuit D3
  6
CONTINUOUS
 10
15.439039
 20
49.286301
 40
0.500000
 50
167.366155
 51
256.736518
 39
0
 62
2
  0
ARC
  8
C Circuit D3
  6
CONTINUOUS
 10
5.000000
 20
5.000000
 40
45.000000
 50
54.428711
 51
76.736518
 39
0
 62
2
  0
LINE
  8
C Circuit D3
  6
CONTINUOUS
 10
15.279825
 20
50.862023
 11
14.951145
 21
49.395661
 39
0
 62
2
  0
ARC
  8
C Circuit D3
  6
CONTINUOUS
 10
14.345366
 20
44.407031
 40
0.500000
 50
167.366155
 51
256.658781
 39
0
 62
2
  0
LINE
  8
C Circuit D3
  6
CONTINUOUS
 10
14.186227
 20
45.983085
 11
13.857472
 21
44.516391
 39
0
 62
2
  0
ARC
  8
C Circuit D3
  6
CONTINUOUS
 10
29.082766
 20
37.561793
 40
0.500000
 50
233.513298
 51
331.794734
 39
0
 62
2
  0
ARC
  8
C Circuit D3
  6
CONTINUOUS
 10
5.000000
 20
5.000000
 40
40.000000
 50
53.513298
 51
76.658781
 39
0
 62
2
  0
LINE
  8
C Circuit D3
  6
CONTINUOUS
 10
30.204949
 20
38.596288
 11
29.523396
 21
37.325477
 39
0
 62
2
  0
ARC
  8
C Circuit D3
  6
CONTINUOUS
 10
26.691132
 20
33.102398
 40
0.500000
 50
232.336867
 51
331.794734
 39
0
 62
2
  0
LINE
  8
C Circuit D3
  6
CONTINUOUS
 10
27.810684
 20
34.131987
 11
27.131762
 21
32.866082
 39
0
 62
2
  0
ARC
  8
C Circuit D3
  6
CONTINUOUS
 10
13.251673
 20
39.527669
 40
0.500000
 50
167.366155
 51
256.559145
 39
0
 62
2
  0
ARC
  8
C Circuit D3
  6
CONTINUOUS
 10
5.000000
 20
5.000000
 40
35.000000
 50
52.336867
 51
76.559145
 39
0
 62
2
  0
LINE
  8
C Circuit D3
  6
CONTINUOUS
 10
13.092629
 20
41.104146
 11
12.763779
 21
39.637028
 39
0
 62
2
  0
ARC
  8
C Circuit D3
  6
CONTINUOUS
 10
5.000000
 20
5.000000
 40
72.000000
 50
12.633845
 51
33.251781
 39
0
 62
2
  0
ARC
  8
C Circuit D3
  6
CONTINUOUS
 10
5.000000
 20
5.000000
 40
67.000000
 50
12.633845
 51
33.629476
 39
0
 62
2
  0
ARC
  8
C Circuit D3
  6
CONTINUOUS
 10
5.000000
 20
5.000000
 40
62.000000
 50
12.633845
 51
34.068388
 39
0
 62
2
  0
ARC
  8
C Circuit D3
  6
CONTINUOUS
 10
5.000000
 20
5.000000
 40
57.000000
 50
12.633845
 51
34.584746
 39
0
 62
2
  0
ARC
  8
C Circuit D3
  6
CONTINUOUS
 10
5.000000
 20
5.000000
 40
52.000000
 50
12.633845
 51
35.201087
 39
0
 62
2
  0
ARC
  8
C Circuit D3
  6
CONTINUOUS
 10
5.000000
 20
5.000000
 40
47.000000
 50
12.633845
 51
35.949665
 39
0
 62
2
  0
ARC
  8
C Circuit D3
  6
CONTINUOUS
 10
5.000000
 20
5.000000
 40
42.000000
 50
12.633845
 51
36.878338
 39
0
 62
2
  0
ARC
  8
C Circuit D3
  6
CONTINUOUS
 10
5.000000
 20
5.000000
 40
37.000000
 50
12.633845
 51
38.061356
 39
0
 62
2
  0
LINE
  8
C Circuit D3
  6
CONTINUOUS
 10
51.558795
 20
62.473131
 11
37.369801
 21
45.696388
 39
0
 62
2
  0
LINE
  8
C Circuit D3
  6
CONTINUOUS
 10
62.473131
 20
51.558795
 11
45.696388
 21
37.369801
 39
0
 62
2
  0
LINE
  8
C Circuit D3
  6
CONTINUOUS
 10
13.981199
 20
78.340942
 11
13.457309
 21
56.307640
 39
0
 62
2
  0
LINE
  8
C Circuit D3
  6
CONTINUOUS
 10
78.340942
 20
13.981199
 11
56.307640
 21
13.457309
 39
0
 62
2
  0
LINE
  8
C Circuit D3
  6
CONTINUOUS
 10
37.369801
 20
45.696388
 11
50.046230
 21
63.642405
 39
0
 62
2
  0
LINE
  8
C Circuit D3
  6
CONTINUOUS
 10
13.457309
 20
56.307640
 11
15.882953
 21
78.219506
 39
0
 62
2
  0
LINE
  8
C Circuit D3
  6
CONTINUOUS
 10
63.642405
 20
50.046230
 11
45.696388
 21
37.369801
 39
0
 62
2
  0
LINE
  8
C Circuit D3
  6
CONTINUOUS
 10
78.219506
 20
15.882953
 11
56.307640
 21
13.457309
 39
0
 62
2
  0
ARC
  8
C Circuit D3
  6
CONTINUOUS
 10
63.065459
 20
50.863012
 40
1.000000
 50
305.236026
 51
35.789698
 39
0
 62
2
  0
ARC
  8
C Circuit D3
  6
CONTINUOUS
 10
63.118896
 20
50.795258
 40
1.000000
 50
40.735320
 51
130.222998
 39
0
 62
2
  0
ARC
  8
C Circuit D3
  6
CONTINUOUS
 10
50.795258
 20
63.118896
 40
1.000000
 50
319.777002
 51
49.264680
 39
0
 62
2
  0
ARC
  8
C Circuit D3
  6
CONTINUOUS
 10
50.863012
 20
63.065459
 40
1.000000
 50
54.210302
 51
144.763974
 39
0
 62
2
  0
ARC
  8
C Circuit D3
  6
CONTINUOUS
 10
14.980916
 20
78.317171
 40
1.000000
 50
84.994943
 51
178.637926
 39
0
 62
2
  0
ARC
  8
C Circuit D3
  6
CONTINUOUS
 10
14.889024
 20
78.329534
 40
1.000000
 50
353.683077
 51
79.680589
 39
0
 62
2
  0
ARC
  8
C Circuit D3
  6
CONTINUOUS
 10
78.329534
 20
14.889024
 40
1.000000
 50
10.319411
 51
96.316923
 39
0
 62
2
  0
ARC
  8
C Circuit D3
  6
CONTINUOUS
 10
78.317171
 20
14.980916
 40
1.000000
 50
271.362074
 51
5.005057
 39
0
 62
2
  0
ARC
  8
C Circuit D3
  6
CONTINUOUS
 10
68.689548
 20
45.544932
 40
0.500000
 50
100.383428
 51
212.480936
 39
0
 62
2
  0
LINE
  8
C Circuit D3
  6
CONTINUOUS
 10
79.250734
 20
47.988439
 11
68.599431
 21
46.036743
 39
0
 62
2
  0
ARC
  8
C Circuit D3
  6
CONTINUOUS
 10
78.519049
 20
22.181368
 40
0.500000
 50
193.153920
 51
300.484356
 39
0
 62
2
  0
LINE
  8
C Circuit D3
  6
CONTINUOUS
 10
88.265286
 20
27.338554
 11
78.772701
 21
21.750484
 39
0
 62
2
  0
ARC
  8
C Circuit D3
  6
CONTINUOUS
 10
5.000000
 20
5.000000
 40
75.000000
 50
13.153920
 51
32.480936
 39
0
 62
2
  0
ARC
  8
C Circuit D3
  6
CONTINUOUS
 10
73.681945
 20
20.907244
 40
0.500000
 50
193.040202
 51
282.633845
 39
0
 62
2
  0
LINE
  8
C Circuit D3
  6
CONTINUOUS
 10
75.256717
 20
20.747818
 11
73.791305
 21
20.419350
 39
0
 62
2
  0
ARC
  8
C Circuit D3
  6
CONTINUOUS
 10
64.158712
 20
43.347057
 40
0.500000
 50
118.205266
 51
212.951566
 39
0
 62
2
  0
ARC
  8
C Circuit D3
  6
CONTINUOUS
 10
5.000000
 20
5.000000
 40
70.000000
 50
13.040202
 51
32.951566
 39
0
 62
2
  0
LINE
  8
C Circuit D3
  6
CONTINUOUS
 10
65.211376
 20
44.478984
 11
63.922396
 21
43.787687
 39
0
 62
2
  0
ARC
  8
C Circuit D3
  6
CONTINUOUS
 10
59.736086
 20
40.975142
 40
0.500000
 50
118.205266
 51
213.314808
 39
0
 62
2
  0
LINE
  8
C Circuit D3
  6
CONTINUOUS
 10
60.786641
 20
42.105939
 11
59.499770
 21
41.415772
 39
0
 62
2
  0
ARC
  8
C Circuit D3
  6
CONTINUOUS
 10
55.310744
 20
38.601771
 40
0.500000
 50
118.205266
 51
213.738351
 39
0
 62
2
  0
LINE
  8
C Circuit D3
  6
CONTINUOUS
 10
56.358911
 20
39.731287
 11
55.074428
 21
39.042401
 39
0
 62
2
  0
ARC
  8
C Circuit D3
  6
CONTINUOUS
 10
63.923782
 20
18.719983
 40
0.500000
 50
193.107370
 51
282.633845
 39
0
 62
2
  0
ARC
  8
C Circuit D3
  6
CONTINUOUS
 10
5.000000
 20
5.000000
 40
60.000000
 50
13.107370
 51
33.738351
 39
0
 62
2
  0
LINE
  8
C Circuit D3
  6
CONTINUOUS
 10
65.498839
 20
18.560621
 11
64.033142
 21
18.232089
 39
0
 62
2
  0
ARC
  8
C Circuit D3
  6
CONTINUOUS
 10
68.802874
 20
19.813616
 40
0.500000
 50
193.071222
 51
282.633845
 39
0
 62
2
  0
ARC
  8
C Circuit D3
  6
CONTINUOUS
 10
5.000000
 20
5.000000
 40
65.000000
 50
13.071222
 51
33.314808
 39
0
 62
2
  0
LINE
  8
C Circuit D3
  6
CONTINUOUS
 10
70.377778
 20
19.654219
 11
68.912234
 21
19.325722
 39
0
 62
2
  0
ARC
  8
C Circuit D3
  6
CONTINUOUS
 10
59.044661
 20
17.626344
 40
0.500000
 50
193.150031
 51
282.633845
 39
0
 62
2
  0
LINE
  8
C Circuit D3
  6
CONTINUOUS
 10
60.619901
 20
17.467022
 11
59.154021
 21
17.138450
 39
0
 62
2
  0
ARC
  8
C Circuit D3
  6
CONTINUOUS
 10
50.881945
 20
36.226545
 40
0.500000
 50
118.205266
 51
214.238600
 39
0
 62
2
  0
ARC
  8
C Circuit D3
  6
CONTINUOUS
 10
5.000000
 20
5.000000
 40
55.000000
 50
13.150031
 51
34.238600
 39
0
 62
2
  0
LINE
  8
C Circuit D3
  6
CONTINUOUS
 10
51.927389
 20
37.354601
 11
50.645629
 21
36.667175
 39
0
 62
2
  0
ARC
  8
C Circuit D3
  6
CONTINUOUS
 10
54.165505
 20
16.532697
 40
0.500000
 50
193.201140
 51
282.633845
 39
0
 62
2
  0
LINE
  8
C Circuit D3
  6
CONTINUOUS
 10
55.740962
 20
16.373424
 11
54.274865
 21
16.044803
 39
0
 62
2
  0
ARC
  8
C Circuit D3
  6
CONTINUOUS
 10
46.448649
 20
33.848908
 40
0.500000
 50
118.205266
 51
214.838521
 39
0
 62
2
  0
ARC
  8
C Circuit D3
  6
CONTINUOUS
 10
5.000000
 20
5.000000
 40
50.000000
 50
13.201140
 51
34.838521
 39
0
 62
2
  0
LINE
  8
C Circuit D3
  6
CONTINUOUS
 10
47.490966
 20
34.975287
 11
46.212333
 21
34.289538
 39
0
 62
2
  0
ARC
  8
C Circuit D3
  6
CONTINUOUS
 10
42.009352
 20
31.468053
 40
0.500000
 50
118.205266
 51
215.571289
 39
0
 62
2
  0
LINE
  8
C Circuit D3
  6
CONTINUOUS
 10
43.048054
 20
32.592492
 11
41.773037
 21
31.908683
 39
0
 62
2
  0
ARC
  8
C Circuit D3
  6
CONTINUOUS
 10
49.286301
 20
15.439039
 40
0.500000
 50
193.263482
 51
282.633845
 39
0
 62
2
  0
ARC
  8
C Circuit D3
  6
CONTINUOUS
 10
5.000000
 20
5.000000
 40
45.000000
 50
13.263482
 51
35.571289
 39
0
 62
2
  0
LINE
  8
C Circuit D3
  6
CONTINUOUS
 10
50.862023
 20
15.279825
 11
49.395661
 21
14.951145
 39
0
 62
2
  0
ARC
  8
C Circuit D3
  6
CONTINUOUS
 10
44.407031
 20
14.345366
 40
0.500000
 50
193.341219
 51
282.633845
 39
0
 62
2
  0
LINE
  8
C Circuit D3
  6
CONTINUOUS
 10
45.983085
 20
14.186227
 11
44.516391
 21
13.857472
 39
0
 62
2
  0
ARC
  8
C Circuit D3
  6
CONTINUOUS
 10
37.561793
 20
29.082766
 40
0.500000
 50
118.205266
 51
216.486702
 39
0
 62
2
  0
ARC
  8
C Circuit D3
  6
CONTINUOUS
 10
5.000000
 20
5.000000
 40
40.000000
 50
13.341219
 51
36.486702
 39
0
 62
2
  0
LINE
  8
C Circuit D3
  6
CONTINUOUS
 10
38.596288
 20
30.204949
 11
37.325477
 21
29.523396
 39
0
 62
2
  0
ARC
  8
C Circuit D3
  6
CONTINUOUS
 10
33.102398
 20
26.691132
 40
0.500000
 50
118.205266
 51
217.663133
 39
0
 62
2
  0
LINE
  8
C Circuit D3
  6
CONTINUOUS
 10
34.131987
 20
27.810684
 11
32.866082
 21
27.131762
 39
0
 62
2
  0
ARC
  8
C Circuit D3
  6
CONTINUOUS
 10
39.527669
 20
13.251673
 40
0.500000
 50
193.440855
 51
282.633845
 39
0
 62
2
  0
ARC
  8
C Circuit D3
  6
CONTINUOUS
 10
5.000000
 20
5.000000
 40
35.000000
 50
13.440855
 51
37.663133
 39
0
 62
2
  0
LINE
  8
C Circuit D3
  6
CONTINUOUS
 10
41.104146
 20
13.092629
 11
39.637028
 21
12.763779
 39
0
 62
2
  0
ARC
  8
Trajectoire_D3
  6
CONTINUOUS
 10
5.000000
 20
5.000000
 40
73.500000
 50
57.519064
 51
76.846080
 39
0
 62
12
  0
LINE
  8
Trajectoire_D3
  6
CONTINUOUS
 10
10.069116
 20
79.626971
 11
18.289993
 21
93.591969
 39
0
 62
12
  0
LINE
  8
Trajectoire_D3
  6
CONTINUOUS
 10
10.000000
 20
79.373320
 11
10.000000
 21
38.552198
 39
0
 62
12
  0
ARC
  8
Trajectoire_D3
  6
CONTINUOUS
 10
10.500000
 20
38.552198
 40
0.500000
 50
180.000000
 51
260.690659
 39
0
 62
12
  0
LINE
  8
Trajectoire_D3
  6
CONTINUOUS
 10
12.481623
 20
78.376597
 11
11.957733
 21
56.343296
 39
0
 62
12
  0
ARC
  8
Trajectoire_D3
  6
CONTINUOUS
 10
14.980916
 20
78.317171
 40
2.500000
 50
108.884588
 51
178.637926
 39
0
 62
12
  0
ARC
  8
Trajectoire_D3
  6
CONTINUOUS
 10
10.500000
 20
79.373320
 40
0.500000
 50
149.515644
 51
180.000000
 39
0
 62
12
  0
LINE
  8
Trajectoire_D3
  6
CONTINUOUS
 10
18.289993
 20
93.591969
 11
22.167948
 21
91.309105
 39
0
 62
12
  0
ARC
  8
Trajectoire_D3
  6
CONTINUOUS
 10
5.000000
 20
5.000000
 40
33.500000
 50
78.811944
 51
80.690659
 39
0
 62
12
  0
LINE
  8
Trajectoire_D3
  6
CONTINUOUS
 10
11.500000
 20
79.100835
 11
11.500000
 21
37.863353
 39
0
 62
12
  0
LINE
  8
Trajectoire_D3
  6
CONTINUOUS
 10
11.500000
 20
79.100835
 11
17.961227
 21
90.076673
 39
0
 62
12
  0
LINE
  8
Trajectoire_D3
  6
CONTINUOUS
 10
14.171759
 20
80.682602
 11
18.435435
 21
87.925409
 39
0
 62
12
  0
LINE
  8
Trajectoire_D3
  6
CONTINUOUS
 10
17.961227
 20
90.076673
 11
18.435435
 21
87.925409
 39
0
 62
12
  0
LINE
  8
Trajectoire_D3
  6
CONTINUOUS
 10
14.948202
 20
56.142598
 11
17.373846
 21
78.054464
 39
0
 62
12
  0
LINE
  8
Trajectoire_D3
  6
CONTINUOUS
 10
17.850570
 20
81.018260
 11
21.020738
 21
86.403500
 39
0
 62
12
  0
ARC
  8
Trajectoire_D3
  6
CONTINUOUS
 10
14.889024
 20
78.329534
 40
2.500000
 50
353.683077
 51
66.681027
 39
0
 62
12
  0
LINE
  8
Trajectoire_D3
  6
CONTINUOUS
 10
15.878648
 20
80.625322
 11
19.728087
 21
87.164454
 39
0
 62
12
  0
LINE
  8
Trajectoire_D3
  6
CONTINUOUS
 10
19.728087
 20
87.164454
 11
21.020738
 21
86.403500
 39
0
 62
12
  0
ARC
  8
Trajectoire_D3
  6
CONTINUOUS
 10
14.889024
 20
78.329534
 40
4.000000
 50
17.290830
 51
42.235656
 39
0
 62
12
  0
LINE
  8
Trajectoire_D3
  6
CONTINUOUS
 10
23.096191
 20
86.972308
 11
18.708258
 21
79.518422
 39
0
 62
12
  0
LINE
  8
Trajectoire_D3
  6
CONTINUOUS
 10
25.092571
 20
87.406793
 11
20.457833
 21
79.533655
 39
0
 62
12
  0
LINE
  8
Trajectoire_D3
  6
CONTINUOUS
 10
23.096191
 20
86.972308
 11
25.092571
 21
87.406793
 39
0
 62
12
  0
ARC
  8
Trajectoire_D3
  6
CONTINUOUS
 10
22.181368
 20
78.519049
 40
2.000000
 50
149.515644
 51
256.846080
 39
0
 62
12
  0
ARC
  8
Trajectoire_D3
  6
CONTINUOUS
 10
45.544932
 20
68.689548
 40
2.000000
 50
237.519064
 51
349.616572
 39
0
 62
12
  0
LINE
  8
Trajectoire_D3
  6
CONTINUOUS
 10
49.463874
 20
78.980382
 11
47.512178
 21
68.329079
 39
0
 62
12
  0
LINE
  8
Trajectoire_D3
  6
CONTINUOUS
 10
50.389107
 20
75.707322
 11
48.987614
 21
68.058727
 39
0
 62
12
  0
LINE
  8
Trajectoire_D3
  6
CONTINUOUS
 10
49.463874
 20
78.980382
 11
50.389107
 21
75.707322
 39
0
 62
12
  0
LINE
  8
Trajectoire_D3
  6
CONTINUOUS
 10
48.987614
 20
68.058727
 11
47.595883
 21
65.373243
 39
0
 62
12
  0
ARC
  8
Trajectoire_D3
  6
CONTINUOUS
 10
50.863012
 20
63.065459
 40
4.000000
 50
97.745812
 51
144.763974
 39
0
 62
12
  0
LINE
  8
Trajectoire_D3
  6
CONTINUOUS
 10
51.622063
 20
74.113646
 11
50.323898
 21
67.028962
 39
0
 62
12
  0
LINE
  8
Trajectoire_D3
  6
CONTINUOUS
 10
51.622063
 20
74.113646
 11
53.089055
 21
73.797211
 39
0
 62
12
  0
LINE
  8
Trajectoire_D3
  6
CONTINUOUS
 10
53.089055
 20
73.797211
 11
51.839914
 21
66.980074
 39
0
 62
12
  0
ARC
  8
Trajectoire_D3
  6
CONTINUOUS
 10
50.795258
 20
63.118896
 40
4.000000
 50
52.364411
 51
74.860866
 39
0
 62
12
  0
ARC
  8
Trajectoire_D3
  6
CONTINUOUS
 10
50.795258
 20
63.118896
 40
4.000000
 50
319.777002
 51
23.218002
 39
0
 62
12
  0
LINE
  8
Trajectoire_D3
  6
CONTINUOUS
 10
54.598758
 20
73.713875
 11
53.237807
 21
66.286538
 39
0
 62
12
  0
LINE
  8
Trajectoire_D3
  6
CONTINUOUS
 10
56.292350
 20
74.634103
 11
54.471304
 21
64.695819
 39
0
 62
12
  0
LINE
  8
Trajectoire_D3
  6
CONTINUOUS
 10
54.598758
 20
73.713875
 11
56.292350
 21
74.634103
 39
0
 62
12
  0
ARC
  8
Trajectoire_D3
  6
CONTINUOUS
 10
54.698275
 20
60.386177
 40
0.500000
 50
317.733214
 51
349.616572
 39
0
 62
12
  0
LINE
  8
Trajectoire_D3
  6
CONTINUOUS
 10
58.316487
 20
77.358270
 11
55.190086
 21
60.296060
 39
0
 62
12
  0
ARC
  8
Trajectoire_D3
  6
CONTINUOUS
 10
27.514803
 20
30.477120
 40
0.500000
 50
228.532119
 51
317.733214
 39
0
 62
12
  0
LINE
  8
Trajectoire_D3
  6
CONTINUOUS
 10
51.925940
 20
58.822675
 11
53.849406
 21
60.535839
 39
0
 62
12
  0
ARC
  8
Trajectoire_D3
  6
CONTINUOUS
 10
5.000000
 20
5.000000
 40
33.500000
 50
48.532119
 51
79.932495
 39
0
 62
12
  0
LINE
  8
Trajectoire_D3
  6
CONTINUOUS
 10
11.950634
 20
42.867383
 11
10.856079
 21
37.984183
 39
0
 62
12
  0
ARC
  8
Trajectoire_D3
  6
CONTINUOUS
 10
5.000000
 20
5.000000
 40
38.500000
 50
49.927455
 51
79.599022
 39
0
 62
12
  0
LINE
  8
Trajectoire_D3
  6
CONTINUOUS
 10
51.925940
 20
58.822675
 11
29.784645
 21
34.461354
 39
0
 62
12
  0
LINE
  8
Trajectoire_D3
  6
CONTINUOUS
 10
29.132574
 20
33.423039
 11
27.831135
 21
30.996402
 39
0
 62
12
  0
LINE
  8
Trajectoire_D3
  6
CONTINUOUS
 10
52.704100
 20
61.504485
 11
33.041285
 21
38.255621
 39
0
 62
12
  0
LINE
  8
Trajectoire_D3
  6
CONTINUOUS
 10
11.957733
 20
56.343296
 11
12.278950
 21
44.332136
 39
0
 62
12
  0
LINE
  8
Trajectoire_D3
  6
CONTINUOUS
 10
14.948202
 20
56.142598
 11
12.278950
 21
44.332136
 39
0
 62
12
  0
ARC
  8
Trajectoire_D3
  6
CONTINUOUS
 10
5.000000
 20
5.000000
 40
43.500000
 50
49.862266
 51
79.334092
 39
0
 62
12
  0
LINE
  8
Trajectoire_D3
  6
CONTINUOUS
 10
13.051063
 20
47.748455
 11
14.153945
 21
52.628303
 39
0
 62
12
  0
ARC
  8
Trajectoire_D3
  6
CONTINUOUS
 10
5.000000
 20
5.000000
 40
48.500000
 50
52.499936
 51
79.120673
 39
0
 62
12
  0
ARC
  8
Trajectoire_D3
  6
CONTINUOUS
 10
5.000000
 20
5.000000
 40
53.500000
 50
53.375251
 51
78.947164
 39
0
 62
12
  0
ARC
  8
Trajectoire_D3
  6
CONTINUOUS
 10
5.000000
 20
5.000000
 40
58.500000
 50
54.099432
 51
78.803326
 39
0
 62
12
  0
ARC
  8
Trajectoire_D3
  6
CONTINUOUS
 10
5.000000
 20
5.000000
 40
63.500000
 50
54.708606
 51
78.682148
 39
0
 62
12
  0
ARC
  8
Trajectoire_D3
  6
CONTINUOUS
 10
5.000000
 20
5.000000
 40
68.500000
 50
55.228210
 51
78.578665
 39
0
 62
12
  0
LINE
  8
Trajectoire_D3
  6
CONTINUOUS
 10
34.524972
 20
43.477604
 11
36.916581
 21
47.936952
 39
0
 62
12
  0
LINE
  8
Trajectoire_D3
  6
CONTINUOUS
 10
15.256706
 20
57.507618
 11
16.359378
 21
62.386536
 39
0
 62
12
  0
LINE
  8
Trajectoire_D3
  6
CONTINUOUS
 10
39.303253
 20
52.387096
 11
41.686175
 21
56.830248
 39
0
 62
12
  0
LINE
  8
Trajectoire_D3
  6
CONTINUOUS
 10
17.461981
 20
67.265151
 11
16.579825
 21
63.361935
 39
0
 62
12
  0
LINE
  8
Trajectoire_D3
  6
CONTINUOUS
 10
44.066180
 20
61.267962
 11
42.158806
 21
57.711508
 39
0
 62
12
  0
LINE
  8
Trajectoire_D3
  6
CONTINUOUS
 10
42.158806
 20
57.711508
 11
46.273506
 21
65.383689
 39
0
 62
12
  0
LINE
  8
Trajectoire_D3
  6
CONTINUOUS
 10
16.579825
 20
63.361935
 11
19.667038
 21
77.021719
 39
0
 62
12
  0
LINE
  8
Trajectoire_D3
  6
CONTINUOUS
 10
19.667038
 20
77.021719
 11
18.564531
 21
72.143529
 39
0
 62
12
  0
LINE
  8
Trajectoire_D3
  6
CONTINUOUS
 10
58.316487
 20
77.358270
 11
53.890181
 21
78.169326
 39
0
 62
12
  0
LINE
  8
C Circuit D3
  6
CONTINUOUS
 10
59.791923
 20
77.087918
 11
56.665522
 21
60.025708
 39
0
 62
2
  0
ARC
  8
C Circuit D3
  6
CONTINUOUS
 10
54.698275
 20
60.386177
 40
2.000000
 50
317.733214
 51
349.616571
 39
0
 62
2
  0
ARC
  8
Trajectoire_D3
  6
CONTINUOUS
 10
5.000000
 20
5.000000
 40
73.500000
 50
13.153920
 51
32.480936
 39
0
 62
12
  0
LINE
  8
Trajectoire_D3
  6
CONTINUOUS
 10
79.626971
 20
10.069116
 11
93.591969
 21
18.289993
 39
0
 62
12
  0
LINE
  8
Trajectoire_D3
  6
CONTINUOUS
 10
79.373320
 20
10.000000
 11
38.552198
 21
10.000000
 39
0
 62
12
  0
ARC
  8
Trajectoire_D3
  6
CONTINUOUS
 10
38.552198
 20
10.500000
 40
0.500000
 50
189.309341
 51
270.000000
 39
0
 62
12
  0
LINE
  8
Trajectoire_D3
  6
CONTINUOUS
 10
78.376597
 20
12.481623
 11
56.343296
 21
11.957733
 39
0
 62
12
  0
ARC
  8
Trajectoire_D3
  6
CONTINUOUS
 10
78.317171
 20
14.980916
 40
2.500000
 50
271.362074
 51
341.115412
 39
0
 62
12
  0
ARC
  8
Trajectoire_D3
  6
CONTINUOUS
 10
79.373320
 20
10.500000
 40
0.500000
 50
270.000000
 51
300.484356
 39
0
 62
12
  0
LINE
  8
Trajectoire_D3
  6
CONTINUOUS
 10
93.591969
 20
18.289993
 11
91.309105
 21
22.167948
 39
0
 62
12
  0
ARC
  8
Trajectoire_D3
  6
CONTINUOUS
 10
5.000000
 20
5.000000
 40
33.500000
 50
9.309341
 51
11.188056
 39
0
 62
12
  0
LINE
  8
Trajectoire_D3
  6
CONTINUOUS
 10
79.100835
 20
11.500000
 11
37.863353
 21
11.500000
 39
0
 62
12
  0
LINE
  8
Trajectoire_D3
  6
CONTINUOUS
 10
79.100835
 20
11.500000
 11
90.076673
 21
17.961227
 39
0
 62
12
  0
LINE
  8
Trajectoire_D3
  6
CONTINUOUS
 10
80.682602
 20
14.171759
 11
87.925409
 21
18.435435
 39
0
 62
12
  0
LINE
  8
Trajectoire_D3
  6
CONTINUOUS
 10
90.076673
 20
17.961227
 11
87.925409
 21
18.435435
 39
0
 62
12
  0
LINE
  8
Trajectoire_D3
  6
CONTINUOUS
 10
56.142598
 20
14.948202
 11
78.054464
 21
17.373846
 39
0
 62
12
  0
LINE
  8
Trajectoire_D3
  6
CONTINUOUS
 10
81.018260
 20
17.850570
 11
86.403500
 21
21.020738
 39
0
 62
12
  0
ARC
  8
Trajectoire_D3
  6
CONTINUOUS
 10
78.329534
 20
14.889024
 40
2.500000
 50
23.318973
 51
96.316923
 39
0
 62
12
  0
LINE
  8
Trajectoire_D3
  6
CONTINUOUS
 10
80.625322
 20
15.878648
 11
87.164454
 21
19.728087
 39
0
 62
12
  0
LINE
  8
Trajectoire_D3
  6
CONTINUOUS
 10
87.164454
 20
19.728087
 11
86.403500
 21
21.020738
 39
0
 62
12
  0
ARC
  8
Trajectoire_D3
  6
CONTINUOUS
 10
78.329534
 20
14.889024
 40
4.000000
 50
47.764344
 51
72.709170
 39
0
 62
12
  0
LINE
  8
Trajectoire_D3
  6
CONTINUOUS
 10
86.972308
 20
23.096191
 11
79.518422
 21
18.708258
 39
0
 62
12
  0
LINE
  8
Trajectoire_D3
  6
CONTINUOUS
 10
87.406793
 20
25.092571
 11
79.533655
 21
20.457833
 39
0
 62
12
  0
LINE
  8
Trajectoire_D3
  6
CONTINUOUS
 10
86.972308
 20
23.096191
 11
87.406793
 21
25.092571
 39
0
 62
12
  0
ARC
  8
Trajectoire_D3
  6
CONTINUOUS
 10
78.519049
 20
22.181368
 40
2.000000
 50
193.153920
 51
300.484356
 39
0
 62
12
  0
ARC
  8
Trajectoire_D3
  6
CONTINUOUS
 10
68.689548
 20
45.544932
 40
2.000000
 50
100.383428
 51
212.480936
 39
0
 62
12
  0
LINE
  8
Trajectoire_D3
  6
CONTINUOUS
 10
78.980382
 20
49.463874
 11
68.329079
 21
47.512178
 39
0
 62
12
  0
LINE
  8
Trajectoire_D3
  6
CONTINUOUS
 10
75.707322
 20
50.389107
 11
68.058727
 21
48.987614
 39
0
 62
12
  0
LINE
  8
Trajectoire_D3
  6
CONTINUOUS
 10
78.980382
 20
49.463874
 11
75.707322
 21
50.389107
 39
0
 62
12
  0
LINE
  8
Trajectoire_D3
  6
CONTINUOUS
 10
68.058727
 20
48.987614
 11
65.373243
 21
47.595883
 39
0
 62
12
  0
ARC
  8
Trajectoire_D3
  6
CONTINUOUS
 10
63.065459
 20
50.863012
 40
4.000000
 50
305.236026
 51
352.254188
 39
0
 62
12
  0
LINE
  8
Trajectoire_D3
  6
CONTINUOUS
 10
74.113646
 20
51.622063
 11
67.028962
 21
50.323898
 39
0
 62
12
  0
LINE
  8
Trajectoire_D3
  6
CONTINUOUS
 10
74.113646
 20
51.622063
 11
73.797211
 21
53.089055
 39
0
 62
12
  0
LINE
  8
Trajectoire_D3
  6
CONTINUOUS
 10
73.797211
 20
53.089055
 11
66.980074
 21
51.839914
 39
0
 62
12
  0
ARC
  8
Trajectoire_D3
  6
CONTINUOUS
 10
63.118896
 20
50.795258
 40
4.000000
 50
15.139134
 51
37.635589
 39
0
 62
12
  0
ARC
  8
Trajectoire_D3
  6
CONTINUOUS
 10
63.118896
 20
50.795258
 40
4.000000
 50
66.781998
 51
130.222998
 39
0
 62
12
  0
LINE
  8
Trajectoire_D3
  6
CONTINUOUS
 10
73.713875
 20
54.598758
 11
66.286538
 21
53.237807
 39
0
 62
12
  0
LINE
  8
Trajectoire_D3
  6
CONTINUOUS
 10
74.634103
 20
56.292350
 11
64.695819
 21
54.471304
 39
0
 62
12
  0
LINE
  8
Trajectoire_D3
  6
CONTINUOUS
 10
73.713875
 20
54.598758
 11
74.634103
 21
56.292350
 39
0
 62
12
  0
ARC
  8
Trajectoire_D3
  6
CONTINUOUS
 10
60.386177
 20
54.698275
 40
0.500000
 50
100.383428
 51
132.266786
 39
0
 62
12
  0
LINE
  8
Trajectoire_D3
  6
CONTINUOUS
 10
77.358270
 20
58.316487
 11
60.296060
 21
55.190086
 39
0
 62
12
  0
ARC
  8
Trajectoire_D3
  6
CONTINUOUS
 10
30.477120
 20
27.514803
 40
0.500000
 50
132.266786
 51
221.467881
 39
0
 62
12
  0
LINE
  8
Trajectoire_D3
  6
CONTINUOUS
 10
58.822675
 20
51.925940
 11
60.535839
 21
53.849406
 39
0
 62
12
  0
ARC
  8
Trajectoire_D3
  6
CONTINUOUS
 10
5.000000
 20
5.000000
 40
33.500000
 50
10.067505
 51
41.467881
 39
0
 62
12
  0
LINE
  8
Trajectoire_D3
  6
CONTINUOUS
 10
42.867383
 20
11.950634
 11
37.984183
 21
10.856079
 39
0
 62
12
  0
ARC
  8
Trajectoire_D3
  6
CONTINUOUS
 10
5.000000
 20
5.000000
 40
38.500000
 50
10.400978
 51
40.072545
 39
0
 62
12
  0
LINE
  8
Trajectoire_D3
  6
CONTINUOUS
 10
58.822675
 20
51.925940
 11
34.461354
 21
29.784645
 39
0
 62
12
  0
LINE
  8
Trajectoire_D3
  6
CONTINUOUS
 10
33.423039
 20
29.132574
 11
30.996402
 21
27.831135
 39
0
 62
12
  0
LINE
  8
Trajectoire_D3
  6
CONTINUOUS
 10
61.504485
 20
52.704100
 11
38.255621
 21
33.041285
 39
0
 62
12
  0
LINE
  8
Trajectoire_D3
  6
CONTINUOUS
 10
56.343296
 20
11.957733
 11
44.332136
 21
12.278950
 39
0
 62
12
  0
LINE
  8
Trajectoire_D3
  6
CONTINUOUS
 10
56.142598
 20
14.948202
 11
44.332136
 21
12.278950
 39
0
 62
12
  0
ARC
  8
Trajectoire_D3
  6
CONTINUOUS
 10
5.000000
 20
5.000000
 40
43.500000
 50
10.665908
 51
40.137734
 39
0
 62
12
  0
LINE
  8
Trajectoire_D3
  6
CONTINUOUS
 10
47.748455
 20
13.051063
 11
52.628303
 21
14.153945
 39
0
 62
12
  0
ARC
  8
Trajectoire_D3
  6
CONTINUOUS
 10
5.000000
 20
5.000000
 40
48.500000
 50
10.879327
 51
37.500064
 39
0
 62
12
  0
ARC
  8
Trajectoire_D3
  6
CONTINUOUS
 10
5.000000
 20
5.000000
 40
53.500000
 50
11.052836
 51
36.624749
 39
0
 62
12
  0
ARC
  8
Trajectoire_D3
  6
CONTINUOUS
 10
5.000000
 20
5.000000
 40
58.500000
 50
11.196674
 51
35.900568
 39
0
 62
12
  0
ARC
  8
Trajectoire_D3
  6
CONTINUOUS
 10
5.000000
 20
5.000000
 40
63.500000
 50
11.317852
 51
35.291394
 39
0
 62
12
  0
ARC
  8
Trajectoire_D3
  6
CONTINUOUS
 10
5.000000
 20
5.000000
 40
68.500000
 50
11.421335
 51
34.771790
 39
0
 62
12
  0
LINE
  8
Trajectoire_D3
  6
CONTINUOUS
 10
43.477604
 20
34.524972
 11
47.936952
 21
36.916581
 39
0
 62
12
  0
LINE
  8
Trajectoire_D3
  6
CONTINUOUS
 10
57.507618
 20
15.256706
 11
62.386536
 21
16.359378
 39
0
 62
12
  0
LINE
  8
Trajectoire_D3
  6
CONTINUOUS
 10
52.387096
 20
39.303253
 11
56.830248
 21
41.686175
 39
0
 62
12
  0
LINE
  8
Trajectoire_D3
  6
CONTINUOUS
 10
67.265151
 20
17.461981
 11
63.361935
 21
16.579825
 39
0
 62
12
  0
LINE
  8
Trajectoire_D3
  6
CONTINUOUS
 10
61.267962
 20
44.066180
 11
57.711508
 21
42.158806
 39
0
 62
12
  0
LINE
  8
Trajectoire_D3
  6
CONTINUOUS
 10
57.711508
 20
42.158806
 11
65.383689
 21
46.273506
 39
0
 62
12
  0
LINE
  8
Trajectoire_D3
  6
CONTINUOUS
 10
63.361935
 20
16.579825
 11
77.021719
 21
19.667038
 39
0
 62
12
  0
LINE
  8
Trajectoire_D3
  6
CONTINUOUS
 10
77.021719
 20
19.667038
 11
72.143529
 21
18.564531
 39
0
 62
12
  0
LINE
  8
Trajectoire_D3
  6
CONTINUOUS
 10
77.358270
 20
58.316487
 11
78.169326
 21
53.890181
 39
0
 62
12
  0
CIRCLE
  8
Trous_D3
  6
CONTINUOUS
 10
22.167948
 20
91.309105
 40
4.500000
 39
0
 62
10
  0
CIRCLE
  8
Trous_D3
  6
CONTINUOUS
 10
53.890181
 20
78.169326
 40
4.500000
 39
0
 62
10
  0
CIRCLE
  8
Trous_D3
  6
CONTINUOUS
 10
78.169326
 20
53.890181
 40
4.500000
 39
0
 62
10
  0
CIRCLE
  8
Trous_D3
  6
CONTINUOUS
 10
91.309105
 20
22.167948
 40
4.500000
 39
0
 62
10
  0
LINE
  8
Trajectoire_D3
  6
CONTINUOUS
 10
28.266621
 20
30.560916
 11
29.132574
 21
33.423039
 39
0
 62
12
  0
LINE
  8
Trajectoire_D3
  6
CONTINUOUS
 10
33.423039
 20
29.132574
 11
30.560916
 21
28.266621
 39
0
 62
12
  0
LINE
  8
Trajectoire_D3
  6
CONTINUOUS
 10
55.068285
 20
60.049885
 11
28.123109
 21
30.403015
 39
0
 62
12
  0
LINE
  8
Trajectoire_D3
  6
CONTINUOUS
 10
60.049885
 20
55.068285
 11
30.386880
 21
28.108445
 39
0
 62
12
  0
LINE
  8
Trajectoire_D3
  6
CONTINUOUS
 10
27.884814
 20
30.140828
 11
28.266621
 21
30.560916
 39
0
 62
12
  0
LINE
  8
Trajectoire_D3
  6
CONTINUOUS
 10
30.140828
 20
27.884814
 11
30.560916
 21
28.266621
 39
0
 62
12
  0
LINE
  8
Trajectoire_D3
  6
CONTINUOUS
 10
30.996402
 20
27.831135
 11
30.386880
 21
28.108445
 39
0
 62
12
  0
LINE
  8
Trajectoire_D3
  6
CONTINUOUS
 10
27.831135
 20
30.996402
 11
28.123109
 21
30.403015
 39
0
 62
12
  0
ARC
  8
Trajectoire_D3
  6
CONTINUOUS
 10
50.863012
 20
63.065459
 40
2.500000
 50
52.726328
 51
144.763974
 39
0
 62
12
  0
ARC
  8
Trajectoire_D3
  6
CONTINUOUS
 10
50.795258
 20
63.118896
 40
2.500000
 50
319.777002
 51
50.748588
 39
0
 62
12
  0
ARC
  8
Trajectoire_D3
  6
CONTINUOUS
 10
63.118896
 20
50.795258
 40
2.500000
 50
39.251412
 51
130.222998
 39
0
 62
12
  0
ARC
  8
Trajectoire_D3
  6
CONTINUOUS
 10
63.065459
 20
50.863012
 40
2.500000
 50
305.236026
 51
37.273672
 39
0
 62
12
  0
LINE
  8
Trajectoire_D3
  6
CONTINUOUS
 10
46.764360
 20
36.287704
 11
64.507824
 21
48.821057
 39
0
 62
12
  0
LINE
  8
Trajectoire_D3
  6
CONTINUOUS
 10
46.764360
 20
36.287704
 11
35.087058
 21
30.025010
 39
0
 62
12
  0
LINE
  8
Trajectoire_D3
  6
CONTINUOUS
 10
36.287704
 20
46.764360
 11
48.821057
 21
64.507824
 39
0
 62
12
  0
LINE
  8
Trajectoire_D3
  6
CONTINUOUS
 10
36.287704
 20
46.764360
 11
30.025010
 21
35.087058
 39
0
 62
12
  0
LINE
  8
Trajectoire_D3
  6
CONTINUOUS
 10
65.383689
 20
46.273506
 11
78.169326
 21
53.890181
 39
0
 62
12
  0
LINE
  8
Trajectoire_D3
  6
CONTINUOUS
 10
46.273506
 20
65.383689
 11
53.890181
 21
78.169326
 39
0
 62
12
  0
LINE
  8
Trj_circuit_D4
  6
CONTINUOUS
 10
10.500000
 20
79.373320
 11
18.720877
 21
93.338318
 39
0
 62
13
  0
LINE
  8
Trj_circuit_D4
  6
CONTINUOUS
 10
10.500000
 20
79.373320
 11
10.500000
 21
38.552198
 39
0
 62
13
  0
ARC
  8
Trj_circuit_D4
  6
CONTINUOUS
 10
5.000000
 20
5.000000
 40
34.000000
 50
48.532119
 51
80.690659
 39
0
 62
13
  0
ARC
  8
Trj_circuit_D4
  6
CONTINUOUS
 10
5.000000
 20
5.000000
 40
73.000000
 50
57.519064
 51
76.846080
 39
0
 62
13
  0
LINE
  8
Trj_circuit_D4
  6
CONTINUOUS
 10
25.615019
 20
89.279892
 11
20.026949
 21
79.787307
 39
0
 62
13
  0
LINE
  8
Trj_circuit_D4
  6
CONTINUOUS
 10
49.955686
 20
78.890265
 11
48.003990
 21
68.238962
 39
0
 62
13
  0
ARC
  8
Trj_circuit_D4
  6
CONTINUOUS
 10
45.544932
 20
68.689548
 40
2.500000
 50
237.519064
 51
349.616572
 39
0
 62
13
  0
ARC
  8
Trj_circuit_D4
  6
CONTINUOUS
 10
22.181368
 20
78.519049
 40
2.500000
 50
149.515644
 51
256.846080
 39
0
 62
13
  0
LINE
  8
Trj_circuit_D4
  6
CONTINUOUS
 10
12.500000
 20
78.828350
 11
20.444413
 21
92.323712
 39
0
 62
13
  0
LINE
  8
Trj_circuit_D4
  6
CONTINUOUS
 10
14.500000
 20
78.283381
 11
22.167948
 21
91.309106
 39
0
 62
13
  0
LINE
  8
Trj_circuit_D4
  6
CONTINUOUS
 10
16.500000
 20
77.738411
 11
23.891484
 21
90.294499
 39
0
 62
13
  0
LINE
  8
Trj_circuit_D4
  6
CONTINUOUS
 10
51.922934
 20
78.529795
 11
49.105430
 21
63.153382
 39
0
 62
13
  0
LINE
  8
Trj_circuit_D4
  6
CONTINUOUS
 10
53.890181
 20
78.169326
 11
50.969711
 21
62.230980
 39
0
 62
13
  0
LINE
  8
Trj_circuit_D4
  6
CONTINUOUS
 10
49.105430
 20
63.153382
 11
42.357499
 21
55.728861
 39
0
 62
13
  0
LINE
  8
Trj_circuit_D4
  6
CONTINUOUS
 10
50.969711
 20
62.230980
 11
37.208792
 21
47.090304
 39
0
 62
13
  0
ARC
  8
Trj_circuit_D4
  6
CONTINUOUS
 10
5.000000
 20
5.000000
 40
43.000000
 50
51.031626
 51
79.955174
 39
0
 62
13
  0
LINE
  8
Trj_circuit_D4
  6
CONTINUOUS
 10
12.500000
 20
78.828350
 11
12.500000
 21
47.340879
 39
0
 62
13
  0
ARC
  8
Trj_circuit_D4
  6
CONTINUOUS
 10
5.000000
 20
5.000000
 40
53.000000
 50
52.575675
 51
79.674197
 39
0
 62
13
  0
LINE
  8
Trj_circuit_D4
  6
CONTINUOUS
 10
14.500000
 20
78.283381
 11
14.500000
 21
57.141634
 39
0
 62
13
  0
ARC
  8
Trj_circuit_D4
  6
CONTINUOUS
 10
5.000000
 20
5.000000
 40
63.000000
 50
53.631508
 51
79.482276
 39
0
 62
13
  0
LINE
  8
Trj_circuit_D4
  6
CONTINUOUS
 10
16.500000
 20
77.738411
 11
16.500000
 21
66.941505
 39
0
 62
13
  0
LINE
  8
Trj_circuit_D4
  6
CONTINUOUS
 10
55.857428
 20
77.808856
 11
52.833993
 21
61.308578
 39
0
 62
13
  0
LINE
  8
Trj_circuit_D4
  6
CONTINUOUS
 10
52.833993
 20
61.308578
 11
32.042327
 21
38.432208
 39
0
 62
13
  0
LINE
  8
Trj_circuit_D4
  6
CONTINUOUS
 10
57.824676
 20
77.448387
 11
54.698275
 21
60.386177
 39
0
 62
13
  0
LINE
  8
Trj_circuit_D4
  6
CONTINUOUS
 10
54.698275
 20
60.386177
 11
27.514804
 21
30.477119
 39
0
 62
13
  0
LINE
  8
Trj_circuit_D4
  6
CONTINUOUS
 10
79.373320
 20
10.500000
 11
93.338318
 21
18.720877
 39
0
 62
13
  0
LINE
  8
Trj_circuit_D4
  6
CONTINUOUS
 10
79.373320
 20
10.500000
 11
38.552198
 21
10.500000
 39
0
 62
13
  0
ARC
  8
Trj_circuit_D4
  6
CONTINUOUS
 10
5.000000
 20
5.000000
 40
34.000000
 50
9.309341
 51
41.467881
 39
0
 62
13
  0
ARC
  8
Trj_circuit_D4
  6
CONTINUOUS
 10
5.000000
 20
5.000000
 40
73.000000
 50
13.153920
 51
32.480936
 39
0
 62
13
  0
LINE
  8
Trj_circuit_D4
  6
CONTINUOUS
 10
89.279892
 20
25.615019
 11
79.787307
 21
20.026949
 39
0
 62
13
  0
LINE
  8
Trj_circuit_D4
  6
CONTINUOUS
 10
78.890265
 20
49.955686
 11
68.238962
 21
48.003990
 39
0
 62
13
  0
ARC
  8
Trj_circuit_D4
  6
CONTINUOUS
 10
68.689548
 20
45.544932
 40
2.500000
 50
100.383428
 51
212.480936
 39
0
 62
13
  0
ARC
  8
Trj_circuit_D4
  6
CONTINUOUS
 10
78.519049
 20
22.181368
 40
2.500000
 50
193.153920
 51
300.484356
 39
0
 62
13
  0
LINE
  8
Trj_circuit_D4
  6
CONTINUOUS
 10
78.828350
 20
12.500000
 11
92.323712
 21
20.444413
 39
0
 62
13
  0
LINE
  8
Trj_circuit_D4
  6
CONTINUOUS
 10
78.283381
 20
14.500000
 11
91.309106
 21
22.167948
 39
0
 62
13
  0
LINE
  8
Trj_circuit_D4
  6
CONTINUOUS
 10
77.738411
 20
16.500000
 11
90.294499
 21
23.891484
 39
0
 62
13
  0
LINE
  8
Trj_circuit_D4
  6
CONTINUOUS
 10
78.529795
 20
51.922934
 11
63.153382
 21
49.105430
 39
0
 62
13
  0
LINE
  8
Trj_circuit_D4
  6
CONTINUOUS
 10
78.169326
 20
53.890181
 11
62.230980
 21
50.969711
 39
0
 62
13
  0
LINE
  8
Trj_circuit_D4
  6
CONTINUOUS
 10
63.153382
 20
49.105430
 11
55.728861
 21
42.357499
 39
0
 62
13
  0
LINE
  8
Trj_circuit_D4
  6
CONTINUOUS
 10
62.230980
 20
50.969711
 11
47.090304
 21
37.208792
 39
0
 62
13
  0
ARC
  8
Trj_circuit_D4
  6
CONTINUOUS
 10
5.000000
 20
5.000000
 40
43.000000
 50
10.044826
 51
38.968374
 39
0
 62
13
  0
LINE
  8
Trj_circuit_D4
  6
CONTINUOUS
 10
78.828350
 20
12.500000
 11
47.340879
 21
12.500000
 39
0
 62
13
  0
ARC
  8
Trj_circuit_D4
  6
CONTINUOUS
 10
5.000000
 20
5.000000
 40
53.000000
 50
10.325803
 51
37.424325
 39
0
 62
13
  0
LINE
  8
Trj_circuit_D4
  6
CONTINUOUS
 10
78.283381
 20
14.500000
 11
57.141634
 21
14.500000
 39
0
 62
13
  0
ARC
  8
Trj_circuit_D4
  6
CONTINUOUS
 10
5.000000
 20
5.000000
 40
63.000000
 50
10.517724
 51
36.368492
 39
0
 62
13
  0
LINE
  8
Trj_circuit_D4
  6
CONTINUOUS
 10
77.738411
 20
16.500000
 11
66.941505
 21
16.500000
 39
0
 62
13
  0
LINE
  8
Trj_circuit_D4
  6
CONTINUOUS
 10
77.808856
 20
55.857428
 11
61.308578
 21
52.833993
 39
0
 62
13
  0
LINE
  8
Trj_circuit_D4
  6
CONTINUOUS
 10
61.308578
 20
52.833993
 11
38.432208
 21
32.042327
 39
0
 62
13
  0
LINE
  8
Trj_circuit_D4
  6
CONTINUOUS
 10
77.448387
 20
57.824676
 11
60.386177
 21
54.698275
 39
0
 62
13
  0
LINE
  8
Trj_circuit_D4
  6
CONTINUOUS
 10
60.386177
 20
54.698275
 11
30.477119
 21
27.514804
 39
0
 62
13
  0
ENDSEC
  0
EOF
